<svg id="Layer_1" data-name="Layer 1" xmlns="http://www.w3.org/2000/svg" xmlns:xlink="http://www.w3.org/1999/xlink" viewBox="0 0 1001 1001"><defs><filter id="luminosity-invert-noclip" x="-0.5" y="-0.5" width="1001" height="1001" name="luminosity-invert-noclip"><feFlood result="bg" flood-color="#fff"/></filter><mask id="mask" x="0.5" y="0.5" width="9863.08" height="9863.08" maskUnits="userSpaceOnUse"><g id="mask-2" data-name="mask"><g style="filter:url(#luminosity-invert-noclip)"><path d="M448.94,11.18C231.57,33.5,33.5,231.57,11.18,448.94c-32.09,312.88,229,574,541.88,541.88C770.43,968.5,968.5,770.43,990.82,553.06,1022.92,240.17,761.83-20.92,448.94,11.18Z" style="fill:#c6c5c5"/></g></g></mask></defs><title>ICON03</title><g style="mask:url(#mask)"><rect x="0.5" y="0.5" width="1000" height="1000" style="fill:#933;fill-opacity:0"/></g><path d="M448.94,11.18C231.57,33.5,33.5,231.57,11.18,448.94c-32.09,312.88,229,574,541.88,541.88C770.43,968.5,968.5,770.43,990.82,553.06,1022.92,240.17,761.83-20.92,448.94,11.18Z" style="fill:#c6c5c5"/><g id="Layer_3_copy_16" data-name="Layer 3 copy 16"><rect x="37.5" y="821.5" width="926" height="144" rx="12" ry="12" style="fill:#383838"/><path d="M951.5,970.5H49.5a17,17,0,0,1-17-17v-120a17,17,0,0,1,17-17h902a17,17,0,0,1,17,17v120A17,17,0,0,1,951.5,970.5Zm-902-144a7,7,0,0,0-7,7h0v120a7,7,0,0,0,7,7h902a7,7,0,0,0,7-7v-120a7,7,0,0,0-7-7H49.5Z" style="fill:#c6c5c5"/></g><g id="Layer_5" data-name="Layer 5"><text transform="translate(274.22 924.4)" style="font-size:105px;fill:#fff;font-family:Myriad Pro">2D <tspan x="146.05" y="0">D</tspan><tspan x="216.4" y="0">esi</tspan><tspan x="335.15" y="0">g</tspan><tspan x="393.22" y="0">n</tspan></text><g id="_08" data-name="08"><path d="M262.37,428.06S259.08,400,280,364.13,353,295,381.8,324.32s14.34,73,0,103.74S183.52,805.14,183.52,805.14L471.2,675.92V592.43L342.67,648.51s72.45-124.56,84.17-148.78,36.52-72.45,44.36-125.24S474.5,274,441.85,238.11s-50.85-29.35-72.45-30S302.18,212,247.45,272s-60.64,112.84-63.93,135-5.23,57.44-5.23,57.44Z" style="fill:#404041"/><path d="M800.92,167.4c-28.38-78.26-100.45-64.22-109.26-61.31s-170.57,56.47-170.57,56.47V651.81s138-60.44,178.71-86.11a227.57,227.57,0,0,0,70.13-70.32c21.5-34.29,32-58.41,43.2-112.55C824.17,330.23,829.3,245.67,800.92,167.4ZM751,373.23c-4.94,25.77-11.33,57.34-40.29,95.7C684.11,504.19,663,510,650.11,516.3c-8.81,4.26-60.54,25.47-60.54,25.47s2.52-303.18,2.52-311.6c0-4.55,3.68-7.75,12.2-10.65,9.69-3.39,69.45-24.41,77.3-26.06,8.62-1.84,50.85-10.46,66.83,48.24S756,347.47,751,373.23Z" style="fill:#404041"/></g></g></svg>