<?xml version="1.0" encoding="utf-8"?>
<!-- Generator: Adobe Illustrator 22.0.0, SVG Export Plug-In . SVG Version: 6.00 Build 0)  -->
<svg version="1.1" id="Layer_1" xmlns="http://www.w3.org/2000/svg" xmlns:xlink="http://www.w3.org/1999/xlink" x="0px" y="0px"
	 viewBox="0 0 165.8 287.4" style="enable-background:new 0 0 165.8 287.4;" xml:space="preserve">
<style type="text/css">
	.st0{fill:#FFFFFF;}
	.st1{fill:#F8991D;}
</style>
<g>
	<g>
		<path class="st0" d="M7.7,287l-3-19.8l-0.2-1.3H4.3V287H0v-31.5h5.6l2.7,14.4l0.2,1.7h0.1l0.2-1.7l2.7-14.4h5.6V287H13v-21.1h-0.3
			l-0.2,1.3l-3,19.8H7.7z"/>
		<path class="st0" d="M32.7,280.5c0,1.3-0.3,2.4-0.8,3.4c-0.4,0.9-1,1.7-1.8,2.3c-0.9,0.7-2,1.1-3.6,1.1s-2.7-0.4-3.6-1.1
			c-0.9-0.6-1.4-1.5-1.8-2.3c-0.5-1-0.7-2.1-0.8-3.4V262c0-1.2,0.3-2.4,0.8-3.4c0.4-0.9,0.9-1.7,1.8-2.4c0.9-0.6,2.1-1.1,3.6-1.1
			s2.7,0.4,3.6,1.1c0.9,0.6,1.5,1.5,1.8,2.4c0.5,1,0.7,2.1,0.8,3.4V280.5z M28.1,262c0-0.9-0.2-1.5-0.6-2c-0.2-0.2-0.6-0.3-0.9-0.3
			c-0.8,0-1.2,0.6-1.4,1.2c-0.1,0.3-0.2,0.7-0.2,1.2v18.5c0,0.9,0.2,1.5,0.6,2c0.2,0.2,0.5,0.3,0.9,0.3c0.8,0,1.2-0.5,1.4-1.2
			c0.1-0.3,0.2-0.7,0.2-1.2V262z"/>
		<path class="st0" d="M35.9,287v-31.5h4.1c2.7,0,4.9,0.5,6.3,1.8c1.4,1.3,2.1,3.4,2.1,6.5c0,1.5-0.1,2.6-0.6,3.6
			c-0.5,1-1.2,1.9-2.3,2.9c1.2,0.6,2,1.8,2.7,3.9c0.3,1,0.5,2.3,0.5,3.9c0,2.4-0.4,4.5-1.5,6.1c-1.1,1.6-2.9,2.7-5.6,2.8H35.9z
			 M40.5,268.5c0.4,0,1.3,0,2.1-0.5c0.8-0.5,1.4-1.5,1.4-3.7c0-2.2-0.6-3.2-1.4-3.7c-0.8-0.5-1.7-0.5-2.1-0.5V268.5z M40.5,282.4
			c0.4,0,1.3,0.1,2.1-0.5c0.8-0.6,1.4-1.8,1.4-4.4c0-2.6-0.6-3.8-1.4-4.4c-0.8-0.6-1.7-0.5-2.1-0.5V282.4z"/>
		<path class="st0" d="M51.4,287v-31.5h4.1c2.7,0,4.9,0.5,6.3,1.8c1.4,1.3,2.1,3.4,2.1,6.5c0,1.5-0.1,2.6-0.6,3.6
			c-0.5,1-1.2,1.9-2.3,2.9c1.2,0.6,2,1.8,2.7,3.9c0.3,1,0.5,2.3,0.5,3.9c0,2.4-0.4,4.5-1.5,6.1c-1.1,1.6-2.9,2.7-5.6,2.8H51.4z
			 M56.1,268.5c0.4,0,1.3,0,2.1-0.5c0.8-0.5,1.4-1.5,1.4-3.7c0-2.2-0.6-3.2-1.4-3.7c-0.8-0.5-1.7-0.5-2.1-0.5V268.5z M56.1,282.4
			c0.4,0,1.3,0.1,2.1-0.5c0.8-0.6,1.4-1.8,1.4-4.4c0-2.6-0.6-3.8-1.4-4.4c-0.8-0.6-1.7-0.5-2.1-0.5V282.4z"/>
		<path class="st0" d="M67,255.6h4.6V287H67V255.6z"/>
		<path class="st0" d="M75.1,255.6h4.6v27.2h6.1v4.3H75.1V255.6z"/>
		<path class="st0" d="M87.7,255.6h10.6v4.8h-5.9v8.3h4.3v5.1h-4.3v8.6h5.9v4.8H87.7V255.6z"/>
		<path class="st0" d="M106.1,287l4.8-31.5h5.6l4.8,31.5h-4.5l-0.9-6.4h-4.5l-0.9,6.4H106.1z M114,265.8l-0.1-0.8h-0.3l-0.1,0.8
			l-1.3,9.9h3.2L114,265.8z"/>
		<path class="st0" d="M123.4,255.6h4.6c2,0,4,0.5,5.6,2c1.5,1.5,2.6,3.9,2.6,7.4c0,3.6-1,5.9-2.6,7.4c-1.5,1.5-3.6,2.1-5.6,2.1V287
			h-4.6V255.6z M128,269.7c1.4,0,2.3-0.3,2.8-1c0.5-0.7,0.6-1.8,0.6-3.6c0-1.8-0.1-3-0.6-3.8c-0.5-0.8-1.4-1.1-2.8-1.1V269.7z"/>
		<path class="st0" d="M138.5,255.6h4.6c2,0,4,0.5,5.6,2c1.5,1.5,2.6,3.9,2.6,7.4c0,3.6-1,5.9-2.6,7.4c-1.5,1.5-3.6,2.1-5.6,2.1V287
			h-4.6V255.6z M143.1,269.7c1.4,0,2.3-0.3,2.8-1c0.5-0.7,0.6-1.8,0.6-3.6c0-1.8-0.1-3-0.6-3.8c-0.5-0.8-1.4-1.1-2.8-1.1V269.7z"/>
		<path class="st0" d="M161.2,264c0-1,0-2.2-0.3-3.1c-0.3-0.9-0.8-1.5-1.5-1.5c-1.2,0-1.6,1.3-1.6,3.1c0,1.1,0.5,2.2,1.2,3.4
			c0.7,1.2,1.6,2.4,2.5,3.8c1.1,1.6,2.1,3.2,3,4.8c0.8,1.6,1.4,3.2,1.4,4.9c0,2.1-0.3,4.1-1.3,5.5c-1,1.5-2.6,2.4-5.1,2.4
			c-3,0-4.6-1.1-5.6-2.8c-0.9-1.7-1.2-4-1.2-6.3l4.5-0.4c0,1.3,0,2.7,0.4,3.6c0.3,1,0.8,1.7,1.8,1.7c1.4,0,1.9-1.5,1.9-3.5
			c0-1-0.5-2.2-1.2-3.5c-0.4-0.6-0.8-1.2-1.2-1.9c-0.9-1.3-1.9-2.7-2.9-4.3c-1-1.6-1.8-3.2-2.3-4.9c-0.3-0.8-0.4-1.7-0.4-2.5
			c0-1.7,0.4-3.6,1.4-5c1-1.4,2.5-2.4,4.7-2.4c2.8,0,4.4,1.1,5.3,2.8c0.9,1.7,1.2,3.8,1.2,5.6L161.2,264z"/>
	</g>
	<path class="st1" d="M124.7,0H41c-9,0-16.4,7.3-16.4,16.4v188c0,0,0,0,0,0c0,6.4,3.7,12,9.1,14.7c2.2,1.1,4.7,1.7,7.3,1.7h83.7
		c9,0,16.4-7.3,16.4-16.4v-188c0,0,0,0,0,0C141.1,7.3,133.8,0,124.7,0z M83.3,6.8c1.7,0,3,1.4,3,3c0,1.7-1.4,3-3,3c-1.7,0-3-1.4-3-3
		C80.2,8.2,81.6,6.8,83.3,6.8z M69.3,16.7c0.3-0.3,0.8-0.6,1.3-0.6h25.1c1,0,1.9,0.9,1.9,1.9c0,0.5-0.2,1-0.6,1.3
		c-0.3,0.3-0.8,0.6-1.3,0.6H70.7c-1,0-1.9-0.9-1.9-1.9C68.8,17.5,69,17,69.3,16.7z M83.1,216.1c-5.4,0-9.9-4.4-9.9-9.9
		c0-5.5,4.4-9.9,9.9-9.9c5.5,0,9.9,4.4,9.9,9.9C93,211.7,88.5,216.1,83.1,216.1z M136.1,193.8H62.5c3.4-3.2,6.5-6.2,8.2-7.8
		c3-3-0.4-5.1-2.1-6.1c-1.7-1-4-1.9-8.2,0.4c-0.3,0.2-0.7,0.4-1.1,0.8c-0.1,0.1-0.2,0.2-0.3,0.2c-4,3.2-12.5,11.9-13,12.5
		c6.5-9,20.4-28.4,31.1-43.6c2.3,0.7,4.8,1.1,7.3,1.1c14.1,0,25.5-11.4,25.5-25.5s-11.4-25.5-25.5-25.5h0
		c-14.1,0-25.5,11.4-25.5,25.5c0,6,2.1,11.6,5.6,16c-9.1,13.1-19.9,28.4-20.9,29.7c-1.7,2.1-2.5,1.2-1.7-0.4
		c0.8-1.5,5.9-9.5,7.6-12.1c1.7-2.6,2.3-4.9-2.8-7.4c-5.1-2.5-8.2,1.3-9.9,3.2c-1.6,1.8-5.4,7.1-7.4,9.8v-2.8c1.3-2.2,3-4.8,4.1-6.6
		c2.3-3.4,2.3-5.9-1.7-8.5c-0.8-0.5-1.6-0.8-2.4-0.9V28h106.6V193.8z M84.7,108.2c-9.8,0-17.7,7.9-17.7,17.7c0,3.3,0.9,6.3,2.4,8.9
		c-1.2,1.7-2.4,3.4-3.7,5.2c-3-4-4.9-8.9-4.9-14.3c0-13,10.6-23.6,23.6-23.6c13,0,23.6,10.6,23.6,23.6c0,13-10.6,23.6-23.6,23.6
		c-2.1,0-4.2-0.3-6.2-0.8c1.3-1.8,2.5-3.5,3.6-5.1c0.9,0.1,1.8,0.2,2.8,0.2c9.8,0,17.7-7.9,17.7-17.7
		C102.4,116.1,94.5,108.2,84.7,108.2z"/>
</g>
</svg>
