<?xml version="1.0" encoding="utf-8"?>
<!-- Generator: Adobe Illustrator 19.2.1, SVG Export Plug-In . SVG Version: 6.00 Build 0)  -->
<svg version="1.1" xmlns="http://www.w3.org/2000/svg" xmlns:xlink="http://www.w3.org/1999/xlink" x="0px" y="0px"
	 viewBox="0 0 212 250" style="enable-background:new 0 0 212 250;" xml:space="preserve">
<style type="text/css">
	.st0{display:none;}
	.st1{display:inline;fill:#0A8C44;}
	.st2{fill:#FFFFFF;}
	.st3{fill:#F99B22;}
	.st4{display:inline;fill:#FFFFFF;}
	.st5{display:inline;}
	.st6{display:inline;fill:#F99B22;}
	.st7{fill:none;}
	.st8{opacity:0.5;fill:#ED1F24;}
	.st9{display:none;fill:#ED1F24;}
	.st10{opacity:0.5;fill:#62C8D4;}
	.st11{opacity:0.5;fill:#E1CE20;}
</style>
<g id="Layer_9" class="st0">
	<rect class="st1" width="212" height="250"/>
</g>
<g id="GUIDES" class="st0">
</g>
<g id="AI">
	<g>
		<g>
			<path class="st2" d="M43.6,206.7l4.8-31.5h5.7l4.8,31.5h-4.5l-0.9-6.4h-4.6l-0.8,6.4H43.6z M51.4,185.5l-0.1-0.8H51l-0.1,0.8
				l-1.3,9.9h3.2L51.4,185.5z"/>
			<path class="st2" d="M69.2,206.7l-2.4-13.3h-1.2v13.3H61v-31.5h4.6c5.5,0,7.9,3.1,7.9,9.1c0,3.1-0.8,5.9-2.6,7.1l3,15.2
				L69.2,206.7L69.2,206.7z M65.5,189.2c0.6,0,1.5-0.1,2.2-0.7c0.7-0.6,1.2-1.8,1.2-4s-0.6-3.4-1.2-4c-0.7-0.6-1.5-0.6-2.2-0.6
				V189.2z"/>
			<path class="st2" d="M74.7,180v-4.8h13.4v4.8h-4.4v26.7h-4.6V180H74.7z"/>
			<path class="st2" d="M89.9,175.3h4.6v31.4h-4.6V175.3z"/>
			<path class="st2" d="M108.9,180h-6.4v8.3h4.3v4.8h-4.3v13.6h-4.6v-31.5h11V180z"/>
			<path class="st2" d="M110.8,175.3h4.6v31.4h-4.6V175.3z"/>
			<path class="st2" d="M130.8,195.9v4.3c0,1.3-0.3,2.4-0.8,3.4c-0.4,0.9-1,1.7-1.8,2.3c-0.9,0.7-2,1.1-3.6,1.1s-2.7-0.4-3.6-1.1
				c-0.9-0.6-1.4-1.5-1.8-2.3c-0.5-1-0.7-2.1-0.8-3.4v-18.5c0-1.2,0.3-2.4,0.8-3.4c0.4-0.9,0.9-1.7,1.8-2.4c0.9-0.6,2.1-1.1,3.6-1.1
				s2.7,0.4,3.6,1.1c0.9,0.6,1.5,1.5,1.8,2.4c0.5,1,0.7,2.1,0.8,3.4v4.3h-4.3v-4.3c0-0.9-0.2-1.5-0.7-2c-0.2-0.2-0.6-0.3-1.1-0.3
				c-0.8,0-1.2,0.6-1.4,1.2c-0.1,0.3-0.2,0.7-0.2,1.2v18.5c0,0.9,0.3,1.5,0.7,2c0.2,0.2,0.5,0.3,0.9,0.3c1,0,1.4-0.5,1.6-1.2
				c0.1-0.3,0.2-0.7,0.2-1.2v-4.3H130.8L130.8,195.9z"/>
			<path class="st2" d="M133.6,175.3h4.6v31.4h-4.6V175.3z"/>
			<path class="st2" d="M140.3,206.7l4.8-31.5h5.7l4.7,31.5H151l-0.9-6.4h-4.5l-0.9,6.4H140.3z M148.1,185.5l-0.1-0.8h-0.3l-0.1,0.8
				l-1.3,9.9h3.2L148.1,185.5z"/>
			<path class="st2" d="M157.6,175.3h4.6v27.2h6.1v4.3h-10.7L157.6,175.3L157.6,175.3z"/>
		</g>
		<g>
			<path class="st2" d="M31.2,213.3h4.4v30.2h-4.4L31.2,213.3z"/>
			<path class="st2" d="M43.5,227.8l-0.4-1.4h-0.3v17.2h-4v-30.3h3.9l4.4,15.9l0.4,1.4h0.3v-17.1h4v30.1h-3.9L43.5,227.8z"/>
			<path class="st2" d="M53.6,217.8v-4.6h12.9v4.6h-4.2v25.7h-4.4v-25.7H53.6z"/>
			<path class="st2" d="M68.2,213.3h10.2v4.6h-5.7v8h4.1v4.9h-4.1v8.3h5.7v4.6H68.2V213.3z"/>
			<path class="st2" d="M80.8,213.3h4.4v26.2h5.9v4.1H80.8L80.8,213.3L80.8,213.3z"/>
			<path class="st2" d="M92.9,213.3h4.5v26.2h5.9v4.1H93L92.9,213.3L92.9,213.3z"/>
			<path class="st2" d="M105.1,213.3h4.4v30.2h-4.4V213.3z"/>
			<path class="st2" d="M120.1,224.2v-4.7c0-0.9-0.2-1.4-0.6-1.9c-0.2-0.2-0.6-0.3-0.9-0.3c-0.8,0-1.2,0.6-1.3,1.2
				c-0.1,0.3-0.2,0.7-0.2,1.2v18.2c0,0.9,0.2,1.4,0.6,1.9c0.2,0.2,0.5,0.3,0.9,0.3c0.8,0,1.2-0.5,1.3-1.2c0.1-0.3,0.2-0.7,0.2-1.2
				v-5.5h-1.7v-3.8h6.3v15.1H122l-0.6-1.4c-0.9,1.1-2,1.7-3.5,1.7c-1.4,0-2.4-0.4-3.2-1.1c-0.8-0.6-1.3-1.4-1.5-2.2
				c-0.4-1-0.6-2-0.5-3.3v-17.8c0-1.2,0.3-2.3,0.8-3.3c0.4-0.9,0.9-1.6,1.7-2.3c0.9-0.6,2-1.1,3.5-1.1s2.6,0.4,3.5,1.1
				c0.9,0.6,1.4,1.4,1.7,2.3c0.5,1,0.7,2,0.8,3.3v4.6L120.1,224.2L120.1,224.2z"/>
			<path class="st2" d="M127.8,213.3H138v4.6h-5.7v8h4.1v4.9h-4.1v8.3h5.7v4.6h-10.2V213.3z"/>
			<path class="st2" d="M145.1,227.8l-0.4-1.4h-0.2v17.2h-4v-30.3h3.9l4.3,15.8l0.4,1.4h0.3v-17.1h4v30.2h-3.9L145.1,227.8z"/>
			<path class="st2" d="M168.3,233.2v4.1c0,1.3-0.3,2.3-0.8,3.3c-0.4,0.9-1,1.6-1.7,2.2c-0.9,0.7-1.9,1.1-3.5,1.1
				c-1.4,0-2.6-0.4-3.5-1.1c-0.9-0.6-1.3-1.4-1.7-2.2c-0.5-1-0.7-2-0.8-3.3v-17.8c0-1.2,0.3-2.3,0.8-3.3c0.4-0.9,0.9-1.6,1.7-2.3
				c0.9-0.6,2-1.1,3.5-1.1s2.6,0.4,3.5,1.1c0.9,0.6,1.4,1.4,1.7,2.3c0.5,1,0.7,2,0.8,3.3v4.1h-4.1v-4.1c0-0.9-0.2-1.4-0.7-1.9
				c-0.2-0.2-0.6-0.3-1.1-0.3c-0.8,0-1.2,0.6-1.3,1.2c-0.1,0.3-0.2,0.7-0.2,1.2v17.8c0,0.9,0.3,1.4,0.7,1.9c0.2,0.2,0.5,0.3,0.9,0.3
				c1,0,1.3-0.5,1.5-1.2c0.1-0.3,0.2-0.7,0.2-1.2v-4.1H168.3L168.3,233.2z"/>
			<path class="st2" d="M171,213.3h10.1v4.6h-5.7v8h4.1v4.9h-4.1v8.3h5.7v4.6h-10.2L171,213.3L171,213.3L171,213.3z"/>
		</g>
	</g>
	<g>
		<path class="st3" d="M81.4,52.9h-6.8c-2,5.9-8.5,8.9-14.3,6.8c-5.9-2-8.9-8.5-6.8-14.3s8.5-8.8,14.3-6.8c3.3,1.1,5.8,3.7,6.8,6.8
			h14.2v17.4h13.4V21.2c0-9.5-1.6-11.9-8.3-14.2c-6.7-2.3-15.5-0.3-23.4,4c-7.9,4.3-11.7,14.7-11.7,14.7s-11.7-2.8-22.5,19.8
			c-9.8,20.2-3.3,32.9-0.6,36.3h18.7c1.7-5.9,8-9.4,13.9-7.6c5.9,1.7,9.4,8,7.6,13.9c-1.7,5.9-8,9.4-13.9,7.6
			c-3.7-1.1-6.5-4-7.6-7.6H34.3c-1.5,4.6-2.2,9.1-2.2,13.9c0,9,4.8,15.7,7.2,17.4c2,1.4,7.2,4.9,9.5,5.9c0.3,0.2,0.6,0.6,0.4,1
			c0,0.1,0,0.1-0.1,0.2c-1.7,2.4-5.7,10.4,0.6,17.8c8.1,9.6,16.5,10.4,18.7,10.2c0.2,0,0.5,0.2,0.5,0.4c0.5,2.2,3.9,10.2,14.2,12.9
			c11,2.8,19.3-1,19.3-12v-49.9H79.7v14.5c5.9,1.7,9.4,8,7.7,13.9s-8,9.4-13.9,7.7c-5.9-1.7-9.4-8-7.7-13.9c1.1-3.7,4-6.5,7.6-7.6
			V99.7h29.1V70.2H81.5L81.4,52.9L81.4,52.9z"/>
		<path class="st3" d="M175.7,82.5c1.4-1.1,10.9-14.2,0-37c-10.9-22.7-22.5-19.8-22.5-19.8s-3.8-10.5-11.7-14.7
			c-7.8-4.3-16.7-6.2-23.4-4s-8.3,4.6-8.3,14.2v24.8h29.4c1.7-5.9,8-9.4,13.9-7.6c5.9,1.7,9.4,8,7.6,13.9c-1.7,5.9-8,9.4-13.9,7.6
			c-3.7-1.1-6.5-4-7.6-7.6h-29.4v74.5h14.6c1.7-5.9,8-9.4,13.9-7.6c5.9,1.7,9.4,8,7.6,13.9c-1.7,5.9-8,9.4-13.9,7.6
			c-3.7-1.1-6.5-4-7.6-7.6h-14.6v22.5c0,11,8.3,14.7,19.3,11.9c10.4-2.6,13.7-10.7,14.2-12.9c0.1-0.2,0.2-0.4,0.5-0.4
			c2.1,0.2,10.5-0.5,18.7-10.2c6.4-7.5,2.3-15.2,0.6-17.8c-0.1-0.1-0.1-0.2-0.1-0.2c-0.1-0.1-0.1-0.2-0.1-0.2l0,0c0,0,0,0,0-0.1
			l-0.1-0.1c-0.1-0.1-0.1-0.1-0.2-0.2c-0.1-0.1-0.2-0.2-0.2-0.2l-0.1-0.1l0,0l0,0l0,0c-0.2-0.1-0.2-0.2-0.2-0.4l0,0v-17.2H131V91.1
			c-5.9-1.7-9.4-8-7.6-13.9c1.7-5.9,8-9.4,13.9-7.6c5.9,1.7,9.4,8,7.6,13.9c-1.1,3.7-4,6.5-7.6,7.6v10.3h31.1v21
			c1.8-1.1,3.7-2.4,4.6-3c2.4-1.6,7.2-8.3,7.2-17.4s-2.9-17.4-4.4-18.7C175.3,83,175.3,82.9,175.7,82.5z"/>
	</g>
</g>
<g id="AR" class="st0">
	<g>
		<path class="st4" d="M6.2,241l4-26.3H15l4,26.3h-3.8l-0.8-5.4h-3.8L9.8,241H6.2z M12.7,223.2l-0.1-0.7h-0.3l-0.1,0.7l-1.1,8.2h2.8
			L12.7,223.2z"/>
		<path class="st4" d="M30.8,214.7v20.8c0,1.1-0.3,2-0.7,2.9c-0.3,0.8-0.8,1.4-1.5,1.9c-0.8,0.6-1.7,0.9-3,0.9c-1.3,0-2.3-0.3-3-0.9
			c-0.8-0.5-1.2-1.3-1.5-1.9c-0.4-0.8-0.6-1.8-0.7-2.9v-20.8h3.9v20.8c0,0.8,0.2,1.3,0.5,1.7c0.2,0.2,0.4,0.3,0.8,0.3
			c0.7,0,1-0.4,1.2-1c0.1-0.3,0.2-0.6,0.2-1v-20.8H30.8L30.8,214.7z"/>
		<path class="st4" d="M39.9,224.1v-4c0-0.8-0.2-1.3-0.5-1.7c-0.2-0.2-0.5-0.3-0.8-0.3c-0.7,0-1,0.5-1.2,1c-0.1,0.3-0.2,0.6-0.2,1
			v15.8c0,0.8,0.2,1.3,0.5,1.7c0.2,0.2,0.4,0.3,0.8,0.3c0.7,0,1-0.4,1.2-1c0.1-0.3,0.2-0.6,0.2-1v-4.8h-1.5v-3.3h5.4V241h-2.3
			l-0.5-1.3c-0.8,0.9-1.8,1.5-3,1.5c-1.3,0-2.1-0.3-2.8-0.9c-0.7-0.5-1.1-1.3-1.3-1.9c-0.3-0.8-0.5-1.8-0.4-2.9v-15.5
			c0-1,0.3-2,0.7-2.9c0.3-0.8,0.8-1.4,1.5-2c0.8-0.5,1.8-0.9,3-0.9c1.3,0,2.3,0.3,3,0.9c0.8,0.5,1.3,1.3,1.5,2
			c0.4,0.8,0.6,1.8,0.7,2.9v4L39.9,224.1L39.9,224.1z"/>
		<path class="st4" d="M52.8,241l-2.5-16.5l-0.2-1.1h-0.3V241h-3.6v-26.3h4.9l2.3,12l0.2,1.4h0.1l0.2-1.4l2.3-12H61V241h-3.6v-17.5
			h-0.3l-0.2,1.1L54.4,241H52.8z"/>
		<path class="st4" d="M63.7,214.7h8.8v4h-5v6.9h3.5v4.3h-3.6v7.1h5v4h-8.7V214.7z"/>
		<path class="st4" d="M78.8,227.3l-0.3-1.3h-0.3v14.9h-3.5v-26.3h3.4l3.8,13.7l0.3,1.3h0.3v-14.9H86V241h-3.4L78.8,227.3z"/>
		<path class="st4" d="M87.4,218.7v-4h11.2v4H95v22.2h-3.9v-22.2H87.4z"/>
		<path class="st4" d="M100,214.7h8.8v4h-5v6.9h3.6v4.3h-3.6v7.1h5v4H100V214.7z"/>
		<path class="st4" d="M111,241v-26.3h3c3.6,0,5.5,0.8,6.5,2.8c1,2,1.2,5.3,1.2,10.4c0,5.2-0.2,8.4-1.2,10.4c-1,2-3,2.8-6.5,2.8
			L111,241L111,241z M114.9,237.1c1.3,0,2.1-0.2,2.5-1.4c0.2-0.6,0.3-1.5,0.3-2.8s0-2.9,0-5.1s0-3.9,0-5.1c0-1.2-0.2-2.2-0.3-2.8
			c-0.4-1.3-1.2-1.4-2.5-1.4V237.1z"/>
		<path class="st4" d="M136.6,241l-2-11.1h-1V241h-3.9v-26.3h3.9c4.6,0,6.5,2.6,6.5,7.5c0,2.6-0.7,5-2.2,5.9l2.5,12.7L136.6,241
			L136.6,241z M133.6,226.3c0.5,0,1.3-0.1,1.8-0.6c0.6-0.5,1-1.5,1-3.4c0-1.9-0.5-2.9-1-3.4c-0.6-0.5-1.3-0.5-1.8-0.5V226.3z"/>
		<path class="st4" d="M142.7,214.7h8.8v4h-5v6.9h3.6v4.3h-3.6v7.1h5v4h-8.8V214.7z"/>
		<path class="st4" d="M152.6,241l4-26.3h4.8l4,26.3h-3.7l-0.8-5.4h-3.9l-0.8,5.4H152.6z M159.1,223.2l-0.1-0.7h-0.3l-0.1,0.7
			l-1.1,8.2h2.7L159.1,223.2z"/>
		<path class="st4" d="M167,214.7h3.9v22.7h5.1v3.6H167V214.7z"/>
		<path class="st4" d="M177.5,214.7h3.9V241h-3.9V214.7z"/>
		<path class="st4" d="M182.9,218.7v-4h11.2v4h-3.8v22.2h-3.9v-22.2H182.9z"/>
		<path class="st4" d="M200.1,223.1l0.1,0.3h0.1l0.1-0.3l1.9-8.4h3.8l-4,15.1V241h-3.9v-11.2l-4-15.1h3.8L200.1,223.1z"/>
	</g>
	<g id="_x32__Line" class="st5">
		<g>
			<path class="st2" d="M38.9,206.2l4.6-30.2H49l4.6,30.2h-4.3l-0.9-6.2h-4.3l-0.9,6.2H38.9z M46.3,185.8l-0.1-0.8h-0.3l-0.1,0.8
				l-1.3,9.5h3.2L46.3,185.8z"/>
			<path class="st2" d="M67.2,176v23.9c0,1.3-0.3,2.3-0.8,3.3c-0.3,0.9-0.9,1.6-1.7,2.2c-0.9,0.7-1.9,1-3.4,1c-1.5,0-2.6-0.3-3.4-1
				c-0.9-0.6-1.4-1.5-1.7-2.2c-0.5-0.9-0.7-2.1-0.8-3.3V176h4.4v23.9c0,0.9,0.2,1.5,0.6,1.9c0.2,0.2,0.5,0.3,0.9,0.3
				c0.8,0,1.1-0.5,1.4-1.1c0.1-0.3,0.2-0.7,0.2-1.1V176H67.2L67.2,176z"/>
			<path class="st2" d="M77.6,186.8v-4.6c0-0.9-0.2-1.5-0.6-1.9c-0.2-0.2-0.6-0.3-0.9-0.3c-0.8,0-1.1,0.6-1.4,1.1
				c-0.1,0.3-0.2,0.7-0.2,1.1v18.1c0,0.9,0.2,1.5,0.6,1.9c0.2,0.2,0.5,0.3,0.9,0.3c0.8,0,1.1-0.5,1.4-1.1c0.1-0.3,0.2-0.7,0.2-1.1
				v-5.5h-1.7v-3.8H82v15h-2.6l-0.6-1.5c-0.9,1-2.1,1.7-3.4,1.7c-1.5,0-2.4-0.3-3.2-1c-0.8-0.6-1.3-1.5-1.5-2.2
				c-0.3-0.9-0.6-2.1-0.5-3.3v-17.8c0-1.1,0.3-2.3,0.8-3.3c0.3-0.9,0.9-1.6,1.7-2.3c0.9-0.6,2.1-1,3.4-1c1.5,0,2.6,0.3,3.4,1
				c0.9,0.6,1.5,1.5,1.7,2.3c0.5,0.9,0.7,2.1,0.8,3.3v4.6h-4.6V186.8z"/>
			<path class="st2" d="M92.5,206.2l-2.8-18.9l-0.2-1.3h-0.3v20.2H85V176h5.6l2.6,13.8l0.2,1.6h0.1l0.2-1.6l2.6-13.8h5.5v30.2h-4.1
				V186h-0.3l-0.2,1.3l-2.8,18.9H92.5z"/>
			<path class="st2" d="M105,176h10.1v4.6h-5.7v8h4v4.9h-4.1v8.2h5.7v4.6h-10V176z"/>
			<path class="st2" d="M122.3,190.4l-0.3-1.5h-0.3V206h-4v-30.2h3.9l4.3,15.7l0.3,1.5h0.3V176h4v30.2h-3.9L122.3,190.4z"/>
			<path class="st2" d="M132.2,180.5V176h12.9v4.6h-4.2V206h-4.4v-25.5H132.2z"/>
			<path class="st2" d="M146.7,176h10.1v4.6h-5.7v8h4.1v4.9h-4.1v8.2h5.7v4.6h-10.1V176z"/>
			<path class="st2" d="M159.4,206.2V176h3.4c4.1,0,6.3,0.9,7.5,3.2c1.1,2.3,1.4,6,1.4,12c0,5.9-0.2,9.7-1.4,12
				c-1.1,2.3-3.4,3.2-7.5,3.2L159.4,206.2L159.4,206.2z M163.8,201.7c1.5,0,2.4-0.2,2.8-1.6c0.2-0.7,0.3-1.7,0.3-3.2s0-3.3,0-5.8
				c0-2.5,0-4.4,0-5.8s-0.2-2.5-0.3-3.2c-0.5-1.5-1.4-1.6-2.8-1.6V201.7z"/>
		</g>
		<g>
			<path class="st2" d="M68,244.3l-2.4-13.3h-1.2v13.3h-4.6v-31.6h4.6c5.5,0,7.9,3.1,7.9,9c0,3.1-0.8,6-2.6,7.1l3,15.2L68,244.3
				L68,244.3z M64.4,226.6c0.6,0,1.5-0.1,2.1-0.7c0.7-0.6,1.2-1.8,1.2-4c0-2.3-0.6-3.5-1.2-4c-0.7-0.6-1.5-0.6-2.1-0.6V226.6z"/>
			<path class="st2" d="M75.2,212.7h10.6v4.8h-6v8.3h4.3v5.1h-4.3v8.6h6v4.8H75.2V212.7z"/>
			<path class="st2" d="M87.2,244.3l4.8-31.6h5.7l4.8,31.6H98l-1-6.4h-4.6l-1,6.4H87.2z M95,222.9l-0.1-0.8h-0.4l-0.1,0.8l-1.3,9.9
				h3.2L95,222.9z"/>
			<path class="st2" d="M104.5,212.7h4.6V240h6.1v4.3h-10.7V212.7z"/>
			<path class="st2" d="M117.2,212.7h4.6v31.6h-4.6V212.7z"/>
			<path class="st2" d="M123.6,217.5v-4.8H137v4.8h-4.5v26.7h-4.6v-26.7H123.6z"/>
			<path class="st2" d="M144.2,222.8l0.1,0.4h0.1l0.1-0.4l2.3-10.1h4.5l-4.8,18.1v13.5h-4.6v-13.5l-4.8-18.1h4.5L144.2,222.8z"/>
		</g>
	</g>
	<g class="st5">
		<path class="st3" d="M130.3,82l-0.4-0.9c-0.7-1.4-0.3-3.2,1.3-3.9l0,0l10.3-5.3c1-0.5,1.5-1.5,1.5-2.6v-9.4c0-1.6,1.3-2.9,2.9-2.9
			h1c1.6,0,2.9,1.3,2.9,2.9v13.7c0,1.1-0.7,2-1.5,2.6l-14,7.2C132.8,84.1,131,83.6,130.3,82L130.3,82z"/>
		<path class="st3" d="M122.3,85.6L122.3,85.6c-0.7-1.5-2.5-2-4-1.4l-8.9,4.7c-0.3,0.1-0.4,0-0.5-0.2c0-0.1-0.1-0.1-0.1-0.2v-7.4
			c0-1.6-1.4-3-3-3h-0.2h-0.1c-1.6,0-3,1.4-3,3v7.5c0,0.3-0.2,0.3-0.3,0.3c-0.1,0-0.2,0-0.2-0.1l-8.9-4.7c-1.5-0.7-3.3-0.2-4,1.4
			l0,0c-0.7,1.5-0.2,3.3,1.4,4l13.8,7.2c0.4,0.3,0.9,0.3,1.4,0.3h0.2c0.5,0,0.9-0.1,1.4-0.3l13.8-7.2
			C122.3,88.9,123,87.1,122.3,85.6L122.3,85.6z"/>
		<path class="st3" d="M148,27.9l-12.2-6c-1.7-0.8-3.8-0.1-4.6,1.5c-0.8,1.7-0.2,3.7,1.5,4.6l6.5,3.2l-7.8,4.1
			c-1.5,0.9-2.2,2.9-1.4,4.4c0.9,1.5,2.9,2.2,4.4,1.4l0,0l8.4-4.4v7.8c0,1.9,1.5,3.4,3.4,3.4l0,0l0,0c1.9,0,3.4-1.5,3.4-3.4V30.9
			C149.7,29.7,149.1,28.5,148,27.9z"/>
		<path class="st3" d="M81.3,82l0.4-0.9c0.8-1.4,0.3-3.2-1.3-3.9l0,0L70.2,72c-1-0.5-1.5-1.5-1.5-2.6v-9.4c0-1.6-1.3-2.9-2.9-2.9h-1
			c-1.6,0-2.9,1.3-2.9,2.9v13.7c0,1.1,0.7,2,1.5,2.6l14,7.2C78.8,84.1,80.6,83.6,81.3,82z"/>
		<path class="st3" d="M63.7,27.9l12.2-6c1.7-0.8,3.8-0.1,4.6,1.5c0.8,1.7,0.2,3.7-1.5,4.6l-6.5,3.2l7.8,4.1
			c1.5,0.9,2.2,2.9,1.4,4.4c-0.9,1.5-2.9,2.2-4.4,1.4l-8.4-4.4v7.8c0,1.9-1.5,3.4-3.4,3.4l0,0c-2,0-3.4-1.5-3.4-3.4V30.9
			C61.7,29.7,62.6,28.5,63.7,27.9z"/>
		<path class="st3" d="M122.3,43.7L122.3,43.7c-0.9-1.6-2.8-2.3-4.4-1.4l0,0l-12.1,6l-12.3-6c-1.6-0.7-3.6,0.1-4.3,1.7
			c-0.7,1.5-0.1,3.4,1.4,4.3l11.9,5.9v12.3c0,1.8,1.5,3.3,3.3,3.3l0,0l0,0c1.8,0,3.3-1.5,3.3-3.3l0,0V54.1l11.8-6
			C122.5,47.3,123.2,45.4,122.3,43.7z"/>
		<path class="st3" d="M117.7,20.3l-11.3-6.2c-0.3-0.2-0.7-0.2-0.9,0l-10.1,5.3c-1.6,0.9-3.6,0.3-4.4-1.4l0,0l0,0
			c-0.9-1.6-0.3-3.6,1.4-4.4l0,0l12.9-6.7c0.5-0.3,1-0.3,1.5,0l14,7.6c1.6,0.9,2.3,2.8,1.4,4.4l0,0l0,0
			C121.3,20.5,119.3,21.2,117.7,20.3z"/>
		<path class="st3" d="M183.5,169.8L28.3,170c-0.9,0-1.9-0.3-2.6-0.9c-1.1-1-1.5-2.6-1.1-4.1l27.2-77.7c0.5-1.5,2-2.5,3.5-2.5h9.8
			c1.9,0,3.4,1.5,3.4,3.4l0,0c0,1.9-1.5,3.4-3.4,3.4h-7.5c-0.1,0-0.1,0-0.1,0.1l-24.9,71.4c0,0.1,0,0.1,0.1,0.2l0,0l146.5-0.3
			c0.1,0,0.1-0.1,0.1-0.1l0,0l-24.9-71.1l-0.1-0.1h-6.5c-1.9,0-3.4-1.5-3.4-3.4l0,0l0,0c0-1.9,1.5-3.4,3.4-3.4l0,0h8.8
			c1.6,0,3.1,1,3.7,2.6l27.2,77.4c0.5,1.4,0.1,3.1-1.1,4.1C185.2,169.4,184.3,169.9,183.5,169.8z"/>
		<path class="st3" d="M153.3,130.9l-3.1-12.7c-0.3-1.3-1.4-2.1-2.8-2.1h-18.1l-1.6-15.3c-0.3-1.9-2-3.2-3.8-3c-1.9,0.3-3.2,2-3,3.8
			l0,0l1.5,14.6h-13.3v-3.7c0-1.9-1.5-3.4-3.4-3.4l0,0l0,0c-1.9,0-3.4,1.5-3.4,3.4l0,0v3.7H85.8h-0.3c-2.5,0-3.6,0.7-3.8,3.2
			l-1.1,8.6c-0.1,0.3-0.3,0.9-0.7,0.9h-17c-2.2,0-4.1,1.5-4.6,3.7l-3.5,16.1c-0.3,1.7,0.7,3.4,2.5,3.8c0.3,0.1,0.4,0.1,0.7,0.1h23.9
			c1.4,0,2.7-1.1,2.9-2.5l1.9-13.4c0-0.3,0.3-0.4,0.5-0.4h15.2v12.9c0,1.9,1.5,3.4,3.4,3.4l0,0h23.8c1.9,0,3.4-1.5,3.4-3.4
			c0-0.2,0-0.3,0-0.3l-1.4-12.8h17.9c2.2,0,4.1-1.8,4.1-4.1C153.4,131.6,153.4,131.2,153.3,130.9z M79.4,136.7l-1.1,7.8
			c-0.1,0.4-0.4,0.8-0.9,0.8H63.6c-0.3,0-0.7-0.3-0.7-0.7c0-0.1,0-0.1,0-0.2l1.6-7.7c0.1-0.5,0.5-0.9,1-0.9h13.1
			c0.3,0,0.7,0.3,0.7,0.7C79.4,136.7,79.4,136.7,79.4,136.7z M123.3,122.9l0.6,5.9h-14.6v-5.9H123.3L123.3,122.9z M88.4,128.8
			c-0.3,0-0.5-0.3-0.5-0.5v-0.1l0.7-4.9c0-0.3,0.3-0.4,0.4-0.4h13.4v5.9H88.4L88.4,128.8z M125.5,144.6c0.1,0.5-0.3,1-0.8,1h-0.1
			h-14.4c-0.6,0-1-0.4-1-1v-8.7h15.4L125.5,144.6z M144.6,128.8h-13.8l-0.7-5.9h13.4c0.3,0,0.7,0.3,0.7,0.6l1,4.4
			C145.2,128.2,145,128.7,144.6,128.8L144.6,128.8z"/>
	</g>
</g>
<g id="_x33_60" class="st0">
	<g class="st5">
		<path class="st2" d="M53.6,229.9v-3.8c1.8-0.1,2.7-0.5,3.1-1.4c0.2-0.4,0.3-1,0.3-1.6s0-1.5,0-2.4c0-0.9,0-1.8-0.2-2.6
			c-0.2-0.8-0.6-1.4-1.3-1.4c-0.6,0-0.9,0.3-1.1,1.1c-0.2,0.9-0.3,2.1-0.3,4.2h-4.4c0-1.7,0-4.1,0.8-5.9c0.8-1.8,2.1-3.2,4.9-3.2
			s4.3,1.5,5,3c0.8,1.6,0.8,3.2,0.8,3.6c0,4.6-0.8,6.7-2.1,8l0,0c2.1,1.7,2.6,4.8,2.6,8.3c0,0.1,0,0.4,0,0.9c0,0.9-0.3,2.1-0.8,3.5
			c-0.5,1.4-1.4,2.5-2.6,3.2c-0.7,0.4-1.5,0.6-2.4,0.6c-2.8,0-4.3-1.5-5-3.3s-0.9-4.2-0.9-5.8h4.4c0,2,0.1,3.3,0.4,4.1
			c0.3,0.9,0.6,1.1,1.2,1.1c0.7,0,1.1-0.6,1.3-1.3c0.2-0.8,0.2-1.7,0.2-2.6c0-1,0-1.8,0-2.6c0-1.5-0.3-2.5-1.3-3.2
			c-0.5-0.3-1.3-0.5-2.2-0.6h-0.4L53.6,229.9z"/>
		<path class="st2" d="M75.9,237.4c0,0.7-0.1,2.3-0.9,3.8c-0.8,1.5-2.3,2.8-4.9,2.8c-2.8,0-4.2-1.3-4.9-2.8
			c-0.8-1.5-0.9-3.1-0.9-3.8v-17.3c0-1.1,0-2.9,0.9-4.5c0.8-1.5,2.2-2.8,5-2.8s4.3,1.3,5,2.8c0.8,1.6,0.9,3.4,0.9,4.5v1.9h-4.5
			c0-2,0-3.4-0.2-4.2c-0.2-0.8-0.5-1.1-1.2-1.1c-0.6,0-0.9,0.3-1.1,0.8c-0.2,0.6-0.3,1.4-0.3,2.5v5.4c0.8-0.5,1.5-0.8,2.2-0.8
			c2.3,0,3.6,1.2,4.3,2.6c0.7,1.4,0.8,3,0.8,3.9v6.2H75.9z M68.6,238.7c0,0.4,0.3,1.4,1.4,1.4c1,0,1.4-1,1.4-1.4v-9.1
			c0-0.4-0.4-1.4-1.4-1.4s-1.4,0.8-1.4,1.3V238.7z"/>
		<path class="st2" d="M90.3,237.4c0,1.3-0.3,2.3-0.8,3.3c-0.4,0.9-1,1.6-1.7,2.2c-0.9,0.7-1.9,1.1-3.5,1.1c-1.5,0-2.6-0.4-3.5-1.1
			c-0.9-0.6-1.4-1.5-1.7-2.2c-0.5-1-0.7-2-0.8-3.3v-17.9c0-1.2,0.3-2.3,0.8-3.3c0.4-0.9,0.9-1.6,1.7-2.3c0.9-0.6,2-1.1,3.5-1.1
			s2.6,0.4,3.5,1.1c0.9,0.6,1.5,1.5,1.7,2.3c0.5,1,0.7,2,0.8,3.3V237.4z M85.8,219.4c0-0.9-0.2-1.5-0.6-1.9
			c-0.2-0.2-0.6-0.3-0.9-0.3c-0.8,0-1.2,0.6-1.4,1.2c-0.1,0.3-0.2,0.7-0.2,1.2v17.9c0,0.9,0.2,1.5,0.6,1.9c0.2,0.2,0.5,0.3,0.9,0.3
			c0.8,0,1.2-0.5,1.4-1.2c0.1-0.3,0.2-0.7,0.2-1.2V219.4z"/>
		<path class="st2" d="M107.8,213.2h4.4l-4.7,30.5h-4.5l-4.7-30.5h4.4L105,230l0.2,1.3h0.3l0.2-1.3L107.8,213.2z"/>
		<path class="st2" d="M114.2,213.2h4.5v30.5h-4.5V213.2z"/>
		<path class="st2" d="M122.1,243.6v-30.5h3.5c4.2,0,6.4,0.9,7.6,3.2c1.2,2.3,1.4,6.1,1.4,12.1s-0.2,9.8-1.4,12.1
			c-1.2,2.3-3.5,3.2-7.6,3.2L122.1,243.6L122.1,243.6z M126.5,239.2c1.6,0,2.4-0.2,2.9-1.6c0.2-0.7,0.4-1.7,0.4-3.2s0-3.4,0-5.9
			s0-4.5,0-5.9s-0.2-2.5-0.4-3.2c-0.5-1.5-1.4-1.6-2.9-1.6L126.5,239.2z"/>
		<path class="st2" d="M137.4,213.2h10.3v4.7h-5.7v8h4.2v4.9h-4.2v8.3h5.7v4.7h-10.3V213.2z"/>
		<path class="st2" d="M161.8,237.4c0,1.3-0.3,2.3-0.8,3.3c-0.4,0.9-1,1.6-1.7,2.2c-0.9,0.7-1.9,1.1-3.5,1.1c-1.6,0-2.6-0.4-3.5-1.1
			c-0.9-0.6-1.4-1.5-1.7-2.2c-0.5-1-0.7-2-0.8-3.3v-17.9c0-1.2,0.3-2.3,0.8-3.3c0.4-0.9,0.9-1.6,1.7-2.3c0.9-0.6,2-1.1,3.5-1.1
			s2.6,0.4,3.5,1.1c0.9,0.6,1.5,1.5,1.7,2.3c0.5,1,0.7,2,0.8,3.3V237.4z M157.2,219.4c0-0.9-0.2-1.5-0.6-1.9
			c-0.2-0.2-0.6-0.3-0.9-0.3c-0.8,0-1.2,0.6-1.4,1.2c-0.1,0.3-0.2,0.7-0.2,1.2v17.9c0,0.9,0.2,1.5,0.6,1.9c0.2,0.2,0.5,0.3,0.9,0.3
			c0.8,0,1.2-0.5,1.4-1.2c0.1-0.3,0.2-0.7,0.2-1.2V219.4z"/>
	</g>
	<g class="st5">
		<path class="st3" d="M45.3,111.1c1.5,2.5,3.1,5.1,4.9,7.7l7.2-5c-1.7-2.4-3.2-4.8-4.7-7.1L45.3,111.1z"/>
		<path class="st3" d="M104.1,14.8l0.2-8.8c-0.7,0-1.5,0-2.3,0c-5.6,0-11,0.5-16.1,1.6l1.8,8.6C92.8,15.1,98.2,14.8,104.1,14.8z"/>
		<path class="st3" d="M139.9,13.7c-5.1-2.4-10.8-4.2-17.6-5.5l-1.7,8.7c6,1.2,11.1,2.8,15.6,4.8L139.9,13.7z"/>
		<path class="st3" d="M72.7,21.8l-4.3-7.7c-5.5,3-10.4,6.8-14.8,11.5l6.4,6C63.7,27.7,68,24.4,72.7,21.8z"/>
		<path class="st3" d="M165.8,40.1c-3.4-6.7-6.6-11.4-10.4-15.4l-6.4,6c3.2,3.5,6,7.6,8.9,13.4L165.8,40.1z"/>
		<path class="st3" d="M164.6,68.3c0,2.2-0.2,4.6-0.5,6.9l8.8,1c0.3-2.6,0.5-5.4,0.5-7.9c0-3.7-0.3-7.4-1-10.8l-8.7,1.7
			C164.3,62,164.6,65.2,164.6,68.3z"/>
		<path class="st3" d="M49.9,45.9c0.2-0.4,0.4-0.6,0.5-1l-7.7-4.3c-0.2,0.4-0.5,0.7-0.6,1.1c-2.8,5.3-5,10.7-6.4,16l8.5,2.2
			C45.5,55.3,47.3,50.5,49.9,45.9z"/>
		<path class="st3" d="M42.6,75.8l-8.8,0.5c0.3,6,1.6,12.1,3.7,18.3l8.3-2.9C43.9,86.3,42.8,81,42.6,75.8z"/>
		<path class="st3" d="M160.5,91.4c-0.2,0.6-0.4,1.2-0.6,1.8l-10.6-7.9l-4,36l33.1-14.4l-11.1-8.3c0.6-1.5,1.1-3,1.6-4.5L160.5,91.4
			z"/>
		<path class="st3" d="M135.4,137.9c-6.3-7.7-12.4-11.8-14.3-14.9c-1.6-2.6-1.8-6.7-1.8-9.4c0.1-2.7,0.6-5.8,1.7-7.6
			c1-1.7,3.8-3.7,5.5-4.7c1.6-1,2.7-1.8,3.9-2.3c1.3-0.6,1-1.2-0.8-1.8c-1.7-0.6-4.7-2-12.4-5.5c-3.1-1.5-9.2-4.6-10.6-5.5
			c-1.4-1-1.5,0-2.2,1c-0.7,1-1.6,2.3-2.9,3.3c-1.1,0.8-1.1,2.1-13.9,2c-12.8-0.1-19.3-3.8-20.7-4.5c-1.5-0.6-2.1-0.9-2.2-0.2
			c-0.1,0.6-0.6,7.5-0.9,10.8c-0.3,3.3,1.2,4.7,3.2,5.4c2,0.7,9.2,2.6,11.3,3.9c2.1,1.4,3.7,19.5,3,23.8c-0.6,4.3-5.1,9.1-7.7,16.4
			s-3.8,14.7-3.8,17.5s1.6,3.1,3.3,3.1c1.2,0,73.5,0,76.1-0.1c2.9-0.1,5.1,0.2,5.9-0.2c1-0.5-4.7-9.4-6.8-12.6
			C146,152.2,142.9,147,135.4,137.9z"/>
		<path class="st3" d="M96.3,85.2c1.6-0.3,2.5-0.7,2.5-1.4c0-1.2-1.6-1.6-2.6-2.1c-1-0.5-1.2-1.5-0.7-2.6c0.3-0.8,5.3-11.7,6.7-14.2
			c1.3-2.6,2.6-1.6,4.2-0.8c1.4,0.6,1.9,0.6,2.2,0.4c0.5-0.5-0.1-2.2-1.5-4.4c-1.6-2.6-8.9-9.8-13.8-12.8c-4.8-3-12.1-6.6-16.3-8.4
			s-6,0.7-6.8,2.2S59.1,65.2,57.2,70c-1.9,4.7,0.5,6.3,2.8,7.5c2.4,1.2,17.2,5.9,23.4,7.1C89.6,85.9,94.9,85.4,96.3,85.2z"/>
		<path class="st3" d="M98.4,42.4c6.6,3.5,8.9,5,12,9.4s3.8,7.2,3.9,10c0.2,3.5,0.1,3.5,0.3,4.3c0.2,1,1.2,1.6,2.2,2
			c1,0.5,23,10.9,23.7,11.1c0.7,0.3,2.6,1.2,3.2,0.8c0.5-0.5,1-1.5,1.5-7.1c0.5-5.7-0.8-14.3-5.5-21.8s-14.3-14.4-25.1-15.6
			S95,38.2,93,39C91,39.9,95.1,40.7,98.4,42.4z"/>
		<path class="st3" d="M107,70.9c-0.5-0.2-1-0.1-1.2,0.3c-0.2,0.4-2.2,4.7-2.5,5.5c-0.5,1-0.4,1.5,0.2,1.7
			c1.1,0.5,30.5,13.7,32.3,14.5c1.8,0.8,1.9,0.5,2.6-0.5c0.4-0.6,1.9-3.8,2.6-4.9c0-0.1,0.1-0.1,0.1-0.2c0.2-0.5-0.1-1.1-0.6-1.4
			C139.6,85.6,107.8,71.3,107,70.9z"/>
	</g>
</g>
<g id="MObile_apps" class="st0">
	<g class="st5">
		<path class="st2" d="M31.5,243.7l-3-19.5l-0.2-1.3h-0.2v20.7h-4.2v-31h5.5l2.7,14.2l0.2,1.7h0.1l0.2-1.7l2.7-14.2h5.5v31h-4v-20.7
			h-0.3l-0.2,1.3l-3,19.5H31.5L31.5,243.7z"/>
		<path class="st2" d="M56.1,237.3c0,1.3-0.3,2.4-0.8,3.3c-0.4,0.9-1,1.7-1.8,2.3c-0.9,0.7-2,1.1-3.5,1.1s-2.7-0.4-3.5-1.1
			c-0.9-0.6-1.4-1.5-1.8-2.3c-0.5-1-0.7-2.1-0.8-3.3v-18.2c0-1.2,0.3-2.4,0.8-3.3c0.4-0.9,0.9-1.7,1.8-2.4c0.9-0.6,2.1-1.1,3.5-1.1
			c1.5,0,2.7,0.4,3.5,1.1c0.9,0.6,1.5,1.5,1.8,2.4c0.5,1,0.7,2.1,0.8,3.3V237.3z M51.5,219.1c0-0.9-0.2-1.5-0.6-2
			c-0.2-0.2-0.6-0.3-0.9-0.3c-0.8,0-1.2,0.6-1.4,1.2c-0.1,0.3-0.2,0.7-0.2,1.2v18.2c0,0.9,0.2,1.5,0.6,2c0.2,0.2,0.5,0.3,0.9,0.3
			c0.8,0,1.2-0.5,1.4-1.2c0.1-0.3,0.2-0.7,0.2-1.2V219.1z"/>
		<path class="st2" d="M59.2,243.7v-31h4c2.7,0,4.8,0.5,6.2,1.8s2.1,3.3,2.1,6.4c0,1.5-0.1,2.6-0.6,3.5s-1.2,1.9-2.3,2.9
			c1.2,0.6,2,1.8,2.7,3.8c0.3,1,0.5,2.3,0.5,3.8c0,2.4-0.4,4.4-1.5,6c-1.1,1.6-2.9,2.7-5.5,2.8H59.2L59.2,243.7z M63.7,225.5
			c0.4,0,1.3,0,2.1-0.5c0.8-0.5,1.4-1.5,1.4-3.6s-0.6-3.1-1.4-3.6c-0.8-0.5-1.7-0.5-2.1-0.5V225.5z M63.7,239.1
			c0.4,0,1.3,0.1,2.1-0.5c0.8-0.6,1.4-1.8,1.4-4.3c0-2.6-0.6-3.7-1.4-4.3c-0.8-0.6-1.7-0.5-2.1-0.5V239.1z"/>
		<path class="st2" d="M74.4,243.7v-31h4c2.7,0,4.8,0.5,6.2,1.8c1.4,1.3,2.1,3.3,2.1,6.4c0,1.5-0.1,2.6-0.6,3.5s-1.2,1.9-2.3,2.9
			c1.2,0.6,2,1.8,2.7,3.8c0.3,1,0.5,2.3,0.5,3.8c0,2.4-0.4,4.4-1.5,6c-1.1,1.6-2.9,2.7-5.5,2.8H74.4L74.4,243.7z M79.1,225.5
			c0.4,0,1.3,0,2.1-0.5c0.8-0.5,1.4-1.5,1.4-3.6s-0.6-3.1-1.4-3.6c-0.8-0.5-1.7-0.5-2.1-0.5V225.5z M79.1,239.1
			c0.4,0,1.3,0.1,2.1-0.5c0.8-0.6,1.4-1.8,1.4-4.3c0-2.6-0.6-3.7-1.4-4.3c-0.8-0.6-1.7-0.5-2.1-0.5V239.1z"/>
		<path class="st2" d="M89.8,212.8h4.5v30.9h-4.5V212.8z"/>
		<path class="st2" d="M97.7,212.8h4.5v26.7h6v4.2H97.7V212.8z"/>
		<path class="st2" d="M110.1,212.8h10.4v4.7h-5.8v8.2h4.2v5h-4.2v8.5h5.8v4.7h-10.4V212.8z"/>
		<path class="st2" d="M128.2,243.7l4.7-31h5.5l4.7,31h-4.4l-0.9-6.3h-4.4l-0.9,6.3H128.2z M136,222.7l-0.1-0.8h-0.3l-0.1,0.8
			l-1.3,9.7h3.1L136,222.7z"/>
		<path class="st2" d="M145.2,212.8h4.5c2,0,3.9,0.5,5.5,2c1.5,1.5,2.6,3.8,2.6,7.3c0,3.5-1,5.8-2.6,7.3c-1.5,1.5-3.5,2.1-5.5,2.1
			v12.3h-4.5V212.8z M149.8,226.7c1.4,0,2.3-0.3,2.8-1c0.5-0.7,0.6-1.8,0.6-3.5c0-1.8-0.1-3-0.6-3.7c-0.5-0.8-1.4-1.1-2.8-1.1V226.7
			z"/>
		<path class="st2" d="M160.1,212.8h4.5c2,0,3.9,0.5,5.5,2c1.5,1.5,2.6,3.8,2.6,7.3c0,3.5-1,5.8-2.6,7.3c-1.5,1.5-3.5,2.1-5.5,2.1
			v12.3h-4.5V212.8z M164.6,226.7c1.4,0,2.3-0.3,2.8-1c0.5-0.7,0.6-1.8,0.6-3.5c0-1.8-0.1-3-0.6-3.7c-0.5-0.8-1.4-1.1-2.8-1.1V226.7
			z"/>
		<path class="st2" d="M182.3,221.1c0-1,0-2.2-0.3-3c-0.3-0.9-0.8-1.5-1.5-1.5c-1.2,0-1.6,1.3-1.6,3c0,1.1,0.5,2.2,1.2,3.3
			s1.6,2.4,2.5,3.7c1.1,1.6,2.1,3.1,3,4.7c0.8,1.6,1.4,3.1,1.4,4.8c0,2.1-0.3,4-1.3,5.4c-1,1.5-2.6,2.4-5,2.4c-3,0-4.5-1.1-5.5-2.8
			c-0.9-1.7-1.2-3.9-1.2-6.2l4.4-0.4c0,1.3,0,2.7,0.4,3.5c0.3,1,0.8,1.7,1.8,1.7c1.4,0,1.9-1.5,1.9-3.4c0-1-0.5-2.2-1.2-3.4
			c-0.4-0.6-0.8-1.2-1.2-1.9c-0.9-1.3-1.9-2.7-2.9-4.2c-1-1.6-1.8-3.1-2.3-4.8c-0.3-0.8-0.4-1.7-0.4-2.5c0-1.7,0.4-3.5,1.4-4.9
			c1-1.4,2.5-2.4,4.6-2.4c2.8,0,4.3,1.1,5.2,2.8c0.9,1.7,1.2,3.7,1.2,5.5L182.3,221.1z"/>
	</g>
	<path class="st6" d="M136.7,6.5H74.8c-6.6,0-12.1,5.4-12.1,12.1v138.8l0,0c0,4.7,2.7,8.8,6.7,10.8c1.6,0.8,3.4,1.3,5.4,1.3h61.9
		c6.6,0,12.1-5.4,12.1-12.1V18.6l0,0C148.8,11.8,143.4,6.5,136.7,6.5z M106.1,11.5c1.3,0,2.2,1,2.2,2.2c0,1.3-1,2.2-2.2,2.2
		c-1.3,0-2.2-1-2.2-2.2C103.8,12.5,104.8,11.5,106.1,11.5z M95.8,18.8c0.3-0.3,0.6-0.4,0.9-0.4h18.5c0.8,0,1.4,0.7,1.4,1.4
		c0,0.3-0.2,0.8-0.4,0.9c-0.3,0.3-0.6,0.4-0.9,0.4H96.8c-0.8,0-1.4-0.7-1.4-1.4C95.3,19.4,95.5,19,95.8,18.8z M105.9,166.1
		c-4,0-7.3-3.3-7.3-7.3s3.3-7.3,7.3-7.3c4,0,7.3,3.3,7.3,7.3S109.9,166.1,105.9,166.1z M145.1,149.6H90.7c2.5-2.4,4.8-4.6,6-5.8
		c2.2-2.2-0.3-3.8-1.5-4.5c-1.3-0.8-2.9-1.4-6.1,0.3c-0.3,0.2-0.5,0.3-0.8,0.6c-0.1,0.1-0.2,0.2-0.3,0.2c-2.9,2.4-9.2,8.8-9.6,9.2
		c4.8-6.6,15-21,22.9-32.2c1.7,0.5,3.5,0.8,5.4,0.8c10.4,0,18.8-8.4,18.8-18.8s-8.4-18.8-18.8-18.8l0,0C96.4,80.5,88,89,88,99.4
		c0,4.5,1.5,8.6,4.1,11.9c-6.7,9.7-14.7,21-15.5,21.9c-1.3,1.5-1.8,0.9-1.3-0.3c0.6-1.1,4.4-7,5.6-8.9c1.3-1.9,1.7-3.6-2.1-5.5
		c-3.8-1.8-6.1,0.9-7.3,2.4c-1.2,1.3-4,5.2-5.5,7.2V126c0.9-1.6,2.2-3.5,3-4.9c1.7-2.5,1.7-4.4-1.3-6.3c-0.6-0.3-1.2-0.6-1.8-0.7
		v-87h78.7L145.1,149.6L145.1,149.6z M107.1,86.4c-7.2,0-13.1,5.8-13.1,13.1c0,2.4,0.7,4.6,1.8,6.6c-0.9,1.3-1.8,2.5-2.7,3.9
		c-2.2-2.9-3.6-6.6-3.6-10.6c0-9.6,7.8-17.4,17.4-17.4s17.4,7.8,17.4,17.4s-7.8,17.4-17.4,17.4c-1.5,0-3.1-0.3-4.6-0.6
		c0.9-1.3,1.8-2.6,2.7-3.8c0.7,0.1,1.3,0.2,2.1,0.2c7.2,0,13.1-5.8,13.1-13.1C120.2,92.2,114.3,86.4,107.1,86.4z"/>
</g>
<g id="Automation" class="st0">
	<g class="st5">
		<path class="st2" d="M33.3,243.6l4.7-31h5.6l4.7,31h-4.4l-0.9-6.3h-4.4l-0.9,6.3H33.3z M41,222.7l-0.1-0.8h-0.3l-0.1,0.8l-1.3,9.7
			h3.2L41,222.7z"/>
		<path class="st2" d="M62.4,212.7v24.6c0,1.3-0.3,2.4-0.8,3.3c-0.4,0.9-1,1.7-1.8,2.3c-0.9,0.7-2,1.1-3.5,1.1
			c-1.5,0-2.7-0.4-3.5-1.1c-0.9-0.6-1.4-1.5-1.8-2.3c-0.5-1-0.7-2.1-0.8-3.3v-24.6h4.6v24.6c0,0.9,0.2,1.5,0.6,2
			c0.2,0.2,0.5,0.3,0.9,0.3c0.8,0,1.2-0.5,1.4-1.2c0.1-0.3,0.2-0.7,0.2-1.2v-24.6L62.4,212.7L62.4,212.7z"/>
		<path class="st2" d="M64.1,217.3v-4.7h13.2v4.7H73v26.3h-4.5v-26.3H64.1z"/>
		<path class="st2" d="M90.9,237.2c0,1.3-0.3,2.4-0.8,3.3c-0.4,0.9-1,1.7-1.8,2.3c-0.9,0.7-2,1.1-3.5,1.1c-1.5,0-2.7-0.4-3.5-1.1
			c-0.9-0.6-1.4-1.5-1.8-2.3c-0.5-1-0.7-2.1-0.8-3.3V219c0-1.2,0.3-2.4,0.8-3.3c0.4-0.9,0.9-1.7,1.8-2.4c0.9-0.6,2.1-1.1,3.5-1.1
			c1.5,0,2.7,0.4,3.5,1.1c0.9,0.6,1.5,1.5,1.8,2.4c0.5,1,0.7,2.1,0.8,3.3V237.2z M86.4,219c0-0.9-0.2-1.5-0.6-2
			c-0.2-0.2-0.6-0.3-0.9-0.3c-0.8,0-1.2,0.6-1.4,1.2c-0.1,0.3-0.2,0.7-0.2,1.2v18.2c0,0.9,0.2,1.5,0.6,2c0.2,0.2,0.5,0.3,0.9,0.3
			c0.8,0,1.2-0.5,1.4-1.2c0.1-0.3,0.2-0.7,0.2-1.2V219z"/>
		<path class="st2" d="M101.5,243.6l-3-19.5l-0.2-1.3h-0.2v20.8h-4.2v-31h5.6l2.7,14.2l0.2,1.7h0.1l0.2-1.7l2.7-14.2h5.6v31h-4.2
			v-20.8h-0.3l-0.2,1.3l-3,19.5H101.5z"/>
		<path class="st2" d="M113,243.6l4.7-31h5.6l4.7,31h-4.4l-0.9-6.3h-4.4l-0.9,6.3H113z M120.8,222.7l-0.1-0.8h-0.3l-0.1,0.8
			l-1.3,9.7h3.2L120.8,222.7z"/>
		<path class="st2" d="M127.6,217.3v-4.7h13.2v4.7h-4.3v26.3h-4.5v-26.3H127.6z"/>
		<path class="st2" d="M142.5,212.7h4.5v30.9h-4.5V212.7z"/>
		<path class="st2" d="M162.3,237.2c0,1.3-0.3,2.4-0.8,3.3c-0.4,0.9-1,1.7-1.8,2.3c-0.9,0.7-2,1.1-3.5,1.1c-1.5,0-2.7-0.4-3.5-1.1
			c-0.9-0.6-1.4-1.5-1.8-2.3c-0.5-1-0.7-2.1-0.8-3.3V219c0-1.2,0.3-2.4,0.8-3.3c0.4-0.9,0.9-1.7,1.8-2.4c0.9-0.6,2.1-1.1,3.5-1.1
			c1.5,0,2.7,0.4,3.5,1.1c0.9,0.6,1.5,1.5,1.8,2.4c0.5,1,0.7,2.1,0.8,3.3V237.2z M157.7,219c0-0.9-0.2-1.5-0.6-2
			c-0.2-0.2-0.6-0.3-0.9-0.3c-0.8,0-1.2,0.6-1.4,1.2c-0.1,0.3-0.2,0.7-0.2,1.2v18.2c0,0.9,0.2,1.5,0.6,2c0.2,0.2,0.5,0.3,0.9,0.3
			c0.8,0,1.2-0.5,1.4-1.2c0.1-0.3,0.2-0.7,0.2-1.2V219z"/>
		<path class="st2" d="M170.1,227.5l-0.4-1.5h-0.3v17.6h-4.1v-31h4l4.4,16.1l0.4,1.5h0.3v-17.5h4.1v30.9h-4L170.1,227.5z"/>
	</g>
	<path class="st6" d="M182.7,90.1c-3.8-2.7-4.5-3.7-4.5-6.2c0-1.6-0.4-5-0.9-7.7l-0.9-4.7l3.7-3.7l3.7-3.7l-2.4-6.4l-2.4-6.4h-4.8
		c-5.3,0-4.8,0.3-11.1-8c-3.8-5-3.8-5.3-2.3-13c0.5-2.4,0.1-3-4.5-6.6l-5-3.9l-4.5,2.3l-4.5,2.3l-7.3-3.2l-7.4-3.1l-1.6-4.9l-1.6-5
		l-6.6-1L110.8,6l-2.6,4.2l-2.6,4.3l-8.1,0.9l-8.1,1l-3.7-3.7l-3.7-3.5l-6.2,2.5c-3.6,1.5-6.2,3.1-6.3,3.8c-0.1,0.7-0.2,3.1-0.2,5
		c-0.2,3.5-0.5,3.9-6.6,8.5l-6.5,4.6l-4.8-0.9c-2.6-0.5-5-0.9-5.5-0.6c-0.3,0.2-2.4,2.6-4.3,5.3l-3.9,4.8l2.4,4.4l2.4,4.4L40,56.4
		c-4.3,9.6-4.3,9.6-9.2,11c-4.9,1.4-4.9,1.4-6,9.9l-0.6,5l4.5,2.8c4.2,2.6,4.5,3.1,4.5,6.2c0,1.9,0.3,5.5,0.5,7.8
		c0.5,4.2,0.3,4.6-2.7,7.7c-1.8,1.8-3.2,3.8-3.2,4.5c0,0.6,1,3.6,2.2,6.5l2.2,5.3l4.9,0.3l4.8,0.3l5,6.7l5,6.7l-1.4,4.6l-1.3,4.6
		l4.2,3.7c5.7,5,6.7,5.3,11.4,2.7l3.9-2.3l6.5,2.9c8.8,3.7,8.6,3.7,9.8,8.2c0.5,2.2,1.5,4.3,2.1,4.6c0.8,0.5,3.2,1,12.4,2.8
		c0.3,0,1.6-1.8,2.9-3.8c1.3-2.3,2.7-4.2,3-4.4c0.4-0.3,4.1-0.9,8.2-1.3l7.5-1l3.7,3.6l3.7,3.7l6.3-2.4l6.3-2.4l0.5-5.5
		c0.3-3.5,1-5.8,1.8-6.3c0.8-0.3,3.7-2.5,6.5-4.6l5-3.8l4,1.1c2.3,0.7,4.4,1.2,5,1.2c0.5,0,2.9-2.4,5-5.2l4.1-5.2l-2.3-4.5l-2.3-4.5
		l3.2-7.4l3.2-7.5l4.9-1.2l4.8-1.3l0.6-4.9c0.3-2.8,0.7-5.7,0.9-6.5C187.1,93.9,185.8,92.5,182.7,90.1z M105.5,138.2
		c-27.9,0-50.6-22.7-50.6-50.6S77.6,37,105.5,37s50.6,22.7,50.6,50.6S133.4,138.2,105.5,138.2z"/>
</g>
<g id="_x32_D" class="st0">
	<g class="st5">
		<path class="st2" d="M47.5,222.7v-2.1c0-2,0.3-4.1,1.2-5.5c0.9-1.5,2.3-2.4,4.9-2.4c2.3,0,3.8,0.9,4.8,2.2
			c0.9,1.4,1.3,3.3,1.3,5.5c0,3.1-1.2,6.8-2.6,10.3c-1.5,3.5-3.2,6.6-4.4,8.6h7.1v4.5H47.4v-4.5c1.4-2.1,2.6-4.3,3.8-6.4
			c1-1.9,1.9-3.9,2.6-6c0.7-2.1,1.3-4.2,1.3-6c0-0.9,0-1.8-0.3-2.5c-0.2-0.7-0.6-1.3-1.3-1.3c-0.6,0-1,0.5-1.2,1.2
			c-0.2,0.7-0.3,1.7-0.3,2.6v2.1h-4.6L47.5,222.7z"/>
		<path class="st2" d="M62.8,243.7V213h3.5c4.2,0,6.4,0.9,7.6,3.2c1.2,2.3,1.4,6.1,1.4,12.2s-0.2,9.8-1.4,12.2
			c-1.2,2.3-3.5,3.2-7.6,3.2L62.8,243.7L62.8,243.7z M67.4,239.2c1.6,0,2.4-0.2,2.9-1.7c0.2-0.7,0.4-1.8,0.4-3.2c0-1.5,0-3.4,0-5.9
			c0-2.5,0-4.5,0-5.9s-0.2-2.5-0.4-3.2c-0.5-1.5-1.4-1.7-2.9-1.7V239.2z"/>
		<path class="st2" d="M84.8,243.7V213h3.5c4.2,0,6.4,0.9,7.6,3.2c1.2,2.3,1.4,6.1,1.4,12.2s-0.2,9.8-1.4,12.2
			c-1.2,2.3-3.5,3.2-7.6,3.2L84.8,243.7L84.8,243.7z M89.3,239.2c1.6,0,2.4-0.2,2.9-1.7c0.2-0.7,0.4-1.8,0.4-3.2c0-1.5,0-3.4,0-5.9
			c0-2.5,0-4.5,0-5.9s-0.2-2.5-0.4-3.2c-0.5-1.5-1.4-1.7-2.9-1.7V239.2z"/>
		<path class="st2" d="M100.4,213h10.2v4.7h-5.8v8.1h4.2v5h-4.2v8.4h5.8v4.7h-10.2V213z"/>
		<path class="st2" d="M120.7,221.3c0-1,0-2.1-0.3-3c-0.3-0.9-0.8-1.5-1.5-1.5c-1.2,0-1.6,1.3-1.6,3c0,1.1,0.5,2.1,1.2,3.3
			c0.7,1.2,1.6,2.3,2.4,3.7c1.1,1.6,2,3.1,2.9,4.7c0.8,1.6,1.4,3.1,1.4,4.8c0,2-0.3,4-1.3,5.4c-1,1.5-2.5,2.3-5,2.3
			c-2.9,0-4.5-1.1-5.5-2.7c-0.9-1.7-1.2-3.9-1.2-6.1l4.4-0.4c0,1.3,0,2.6,0.4,3.5c0.3,1,0.8,1.7,1.8,1.7c1.4,0,1.9-1.5,1.9-3.4
			c0-1-0.5-2.1-1.2-3.4c-0.4-0.6-0.8-1.2-1.2-1.9c-0.9-1.3-1.9-2.6-2.8-4.2c-1-1.6-1.8-3.1-2.2-4.8c-0.3-0.8-0.4-1.7-0.4-2.4
			c0-1.7,0.4-3.5,1.4-4.9c1-1.4,2.4-2.3,4.6-2.3c2.7,0,4.3,1.1,5.2,2.7c0.9,1.7,1.2,3.7,1.2,5.5L120.7,221.3z"/>
		<path class="st2" d="M127.6,213h4.5v30.7h-4.5V213z"/>
		<path class="st2" d="M142.5,224v-4.7c0-0.9-0.2-1.5-0.6-2c-0.2-0.2-0.6-0.3-0.9-0.3c-0.8,0-1.2,0.6-1.4,1.2
			c-0.1,0.3-0.2,0.7-0.2,1.2v18.4c0,0.9,0.2,1.5,0.6,2c0.2,0.2,0.5,0.3,0.9,0.3c0.8,0,1.2-0.5,1.4-1.2c0.1-0.3,0.2-0.7,0.2-1.2v-5.6
			h-1.8v-3.8h6.3v15.3h-2.6l-0.6-1.5c-0.9,1.1-2,1.8-3.5,1.8c-1.5,0-2.4-0.4-3.2-1.1c-0.8-0.6-1.3-1.5-1.6-2.2c-0.4-1-0.6-2-0.5-3.3
			v-18c0-1.2,0.3-2.3,0.8-3.3c0.4-0.9,0.9-1.7,1.8-2.3c0.9-0.6,2-1.1,3.5-1.1s2.6,0.4,3.5,1.1c0.9,0.6,1.5,1.5,1.8,2.3
			c0.5,1,0.7,2,0.8,3.3v4.7H142.5z"/>
		<path class="st2" d="M155.2,227.7l-0.4-1.5h-0.2v17.4h-4.1v-30.7h4l4.4,16l0.4,1.5h0.3V213h4.1v30.7h-4L155.2,227.7z"/>
	</g>
	<g class="st5">
		<path class="st3" d="M92.8,96.3c2.7-5.6,7.9-16.1,9.5-27.4c2.1-14.3-0.1-24.5-7.1-32.1c-6.3-6.8-10.5-7.4-14.4-7.4
			c-0.4,0-0.9,0-1.2,0c-0.7,0-1.3,0-2,0c-0.3,0-0.6,0-0.9,0c-9.4,0-19,5.2-28,15C36.6,57.6,34.9,69.8,34.1,74.9L34,75.5
			c-0.8,5-1.2,12.7-1.2,13L32.6,92l21.9-9.5l1.4-0.7l-0.2-1.6c0-0.1-0.6-5.7,3.6-12.9c3.3-5.7,10-10.3,14.8-10.3
			c1.8,0,3.3,0.6,4.5,1.9c4.2,4.3,4.1,11.1-0.4,20.7c-3.1,6.7-43.7,83.1-44.1,83.9l-2.9,5.6l71.1-31.9v-23.3l-25.6,11.2
			c4.9-8.4,13.6-23.7,15.5-27.6L92.8,96.3z"/>
		<path class="st3" d="M175.7,21.7C170.7,8.1,160.3,6,154.4,6c-2.7,0-4.9,0.5-5.8,0.8c-2,0.7-38,12.6-38,12.6l-1.5,0.5v113.8l3-1.3
			c1.2-0.6,31-13.6,40.1-19.3c6.5-4.2,12.1-9.8,16.3-16.3c4.7-7.5,7.3-13.1,10-25.8C179.8,64.8,183.4,43,175.7,21.7z M128.8,102.6
			c0.1-13.3,0.5-61.9,0.6-66c0.2-0.1,0.6-0.3,1.2-0.6l0.4-0.2c13.6-4.7,16.1-5.5,16.6-5.6c0.4-0.1,1.3-0.3,2.6-0.3
			c4.8,0,8.2,3.2,9.9,9.5c3.5,13,1.5,23.3,0.6,28.3c-1,5.4-2.4,12.1-8.6,20.4c-4.8,6.3-8.6,8.1-11.4,9.3c-0.5,0.2-0.9,0.4-1.3,0.6
			C137.9,98.8,132.9,101,128.8,102.6z"/>
	</g>
</g>
<g id="_x33_D" class="st0">
	<g class="st5">
		<path class="st2" d="M51.5,229.5v-3.8c1.9-0.1,2.8-0.5,3.1-1.4c0.2-0.4,0.3-1,0.3-1.7s0-1.5,0-2.5c0-0.9,0-1.9-0.2-2.7
			s-0.6-1.4-1.3-1.4c-0.6,0-0.9,0.3-1.1,1.1c-0.2,0.9-0.3,2.2-0.3,4.2h-4.4c0-1.8,0-4.1,0.8-6c0.8-1.9,2.2-3.2,5-3.2
			c2.9,0,4.3,1.5,5.1,3s0.8,3.2,0.8,3.6c0,4.6-0.8,6.8-2.2,8.2l0,0c2.2,1.8,2.7,4.9,2.7,8.5c0,0.1,0,0.4,0,0.9
			c0,0.9-0.3,2.2-0.8,3.5c-0.5,1.4-1.4,2.6-2.7,3.2c-0.7,0.4-1.5,0.6-2.5,0.6c-2.9,0-4.3-1.5-5.1-3.3c-0.8-1.9-0.9-4.2-0.9-5.9h4.4
			c0,2.1,0.1,3.3,0.4,4.1c0.3,0.9,0.6,1.1,1.2,1.1c0.7,0,1.1-0.6,1.3-1.3c0.2-0.8,0.2-1.8,0.2-2.7c0-1,0-1.9,0-2.7
			c0-1.5-0.3-2.6-1.3-3.2c-0.5-0.3-1.3-0.5-2.3-0.6h-0.4V229.5z"/>
		<path class="st2" d="M62.5,243.6v-31H66c4.2,0,6.5,0.9,7.7,3.2c1.2,2.4,1.4,6.2,1.4,12.3s-0.2,9.9-1.4,12.3
			c-1.2,2.4-3.5,3.2-7.7,3.2L62.5,243.6L62.5,243.6z M67,239c1.6,0,2.5-0.2,2.9-1.7c0.2-0.7,0.4-1.8,0.4-3.2s0-3.4,0-6s0-4.5,0-6
			s-0.2-2.6-0.4-3.2c-0.5-1.5-1.4-1.7-2.9-1.7V239z"/>
		<path class="st2" d="M84.6,243.6v-31h3.5c4.2,0,6.5,0.9,7.7,3.2c1.2,2.4,1.4,6.2,1.4,12.3s-0.2,9.9-1.4,12.3
			c-1.2,2.4-3.5,3.2-7.7,3.2L84.6,243.6L84.6,243.6z M89.1,239c1.6,0,2.5-0.2,2.9-1.7c0.2-0.7,0.4-1.8,0.4-3.2s0-3.4,0-6s0-4.5,0-6
			s-0.2-2.6-0.4-3.2c-0.5-1.5-1.4-1.7-2.9-1.7V239z"/>
		<path class="st2" d="M100.2,212.6h10.4v4.7h-5.8v8.2h4.2v5h-4.2v8.5h5.8v4.7h-10.4V212.6z"/>
		<path class="st2" d="M120.7,220.9c0-1,0-2.2-0.3-3c-0.3-0.9-0.8-1.5-1.5-1.5c-1.2,0-1.6,1.3-1.6,3c0,1.1,0.5,2.2,1.2,3.3
			s1.6,2.4,2.5,3.7c1.1,1.6,2.1,3.1,2.9,4.7c0.8,1.6,1.4,3.1,1.4,4.8c0,2.1-0.3,4-1.3,5.4c-1,1.5-2.6,2.4-5,2.4
			c-2.9,0-4.5-1.1-5.5-2.8c-0.9-1.7-1.2-3.9-1.2-6.2l4.4-0.4c0,1.3,0,2.7,0.4,3.5c0.3,1,0.8,1.7,1.8,1.7c1.4,0,1.9-1.5,1.9-3.4
			c0-1-0.5-2.2-1.2-3.4c-0.4-0.6-0.8-1.2-1.2-1.9c-0.9-1.3-1.9-2.7-2.9-4.2c-1-1.6-1.8-3.1-2.3-4.8c-0.3-0.8-0.4-1.7-0.4-2.5
			c0-1.7,0.4-3.5,1.4-4.9s2.5-2.4,4.6-2.4c2.8,0,4.3,1.1,5.2,2.8c0.9,1.7,1.2,3.7,1.2,5.5L120.7,220.9z"/>
		<path class="st2" d="M127.6,212.6h4.5v31h-4.5V212.6z"/>
		<path class="st2" d="M142.8,223.7V219c0-0.9-0.2-1.5-0.6-2c-0.2-0.2-0.6-0.3-0.9-0.3c-0.8,0-1.2,0.6-1.4,1.2
			c-0.1,0.3-0.2,0.7-0.2,1.2v18.6c0,0.9,0.2,1.5,0.6,2c0.2,0.2,0.5,0.3,0.9,0.3c0.8,0,1.2-0.5,1.4-1.2c0.1-0.3,0.2-0.7,0.2-1.2V232
			H141v-3.8h6.4v15.4h-2.7l-0.6-1.5c-0.9,1.1-2.1,1.8-3.5,1.8s-2.5-0.4-3.2-1.1c-0.8-0.6-1.3-1.5-1.6-2.3c-0.4-1-0.6-2.1-0.5-3.3
			V219c0-1.2,0.3-2.4,0.8-3.3c0.4-0.9,0.9-1.7,1.8-2.4c0.9-0.6,2.1-1.1,3.5-1.1c1.5,0,2.7,0.4,3.5,1.1c0.9,0.6,1.5,1.5,1.8,2.4
			c0.5,1,0.7,2.1,0.8,3.3v4.7H142.8z"/>
		<path class="st2" d="M155.4,227.5l-0.4-1.5h-0.2v17.5h-4.1v-31h4l4.4,16.1l0.4,1.5h0.3v-17.5h4.1v31h-4L155.4,227.5z"/>
	</g>
	<g class="st5">
		<path class="st3" d="M202.4,82.9c-10.6-33-31.6-39-39.6-40.6c-8-1.5-48.8-5.4-48.8-5.4h-5.7l14.6,102.5l60-2.9
			C198.1,133.5,213.1,116,202.4,82.9z M167.7,109.4c-2.9,0.3-15.3,0-15.3,0l-8.6-46.4c0,0,12.4-0.5,20.2,2.5
			c7.8,2.9,15,10.4,16.7,26.9C182.5,108.9,170.6,109.2,167.7,109.4z"/>
		<path class="st3" d="M10,65.1c0,0-0.4-20.6,14.3-28s46.3-7.2,63.8,4.8s15.9,22.7,15.2,26.8c-0.7,4.2-10.6,11-13.3,11.4
			c-2.7,0.4,14.6,1.6,19.7,15.2c5.2,13.7-2,32.4-19.1,42.4c-16.4,9.6-53,7.7-68-6.8C1.6,110.6,7.3,93.6,7.3,93.6l38.9,0.6
			c0,0,1.3,18.5,17.1,18.5s17.8-5.5,16.6-12.6c-1.3-7.1-9.1-11-15.6-11.4c-6.5-0.4-12.9,0-12.9,0l-2.3-18.8c0,0,13.7,1.6,19.7,0
			c6.1-1.5,12.3-7.8,2.3-14.3S51.4,52,47.6,56c-3.8,3.8-2.3,12-2.3,12L10,65.1z"/>
	</g>
</g>
<g id="DIGITAL_ART" class="st0">
	<g class="st5">
		<line class="st7" x1="105.9" y1="124.6" x2="105.9" y2="124.6"/>
		<path class="st3" d="M103.9,53.3c4.1-4.7,18.4-18,26.1-23.8c7.7-5.8,13.7-8.2,19-13c6.2-5.5,9.8-10.9,13.5-8.7s-3.3,9.1-5.6,12
			s-9.5,15.1-12,19.2c-2.5,4.2-20.5,24.8-24.4,28.8c-3.9,3.9-27.3,22.4-28.5,23.3c-1.1,1-1.1,1.1-2.3,0c-1.2-1.1-6.2-6.3-7.2-7.2
			c-0.9-0.9-1.2-1.6,0-3.1C85.3,77.1,96.9,61.3,103.9,53.3z"/>
		<path class="st3" d="M197,158.4c-1.4-2.2-10-14.8-12.4-17.9c-2.2-3-3.5-1.1-3.1-2.3c0.4-1.5,0.3-4.9,0.4-5.7c0-0.1,0-0.2,0-0.3
			c0-4.1-0.4-87.2-0.4-94.7c0-4.9-4.5-6-6.9-6c-2.5,0-13.5,0-16.2,0c-1.8,0-2.2,1.3-2.2,1.3c-0.4,0.8-2,3.5-2.9,4.9
			c-0.6,1-0.3,1.6,0.9,1.6h19.7c0,0,1.2,89.4,1.2,92.3c0,1.8,0.4,6.4,0.4,6.4h-37.1c0,0-97.5-1.7-101.3-1.7c-2,0-3.5-2.9-3.9-3.7
			c-0.1-0.1-0.1-0.3-0.1-0.4V42.7c0-2.4,0.6-3,2.1-3c1.5,0,10.1-0.1,10.1-0.1h64.4c1.4,0,1.9-1,2.6-1.6c2.9-2.6,3.9-4.3,6.2-6.6
			H40.5c-6.6,0-10.6,0.3-12.8,1.8c-1.8,1.2-2.9,4.4-2.9,6.6v45.3c0,9.1,1.3,43.3,1.4,44.5c0.7,7.9,3.4,7.9,3.2,8.7
			c-0.1,0.8-1.5,0.5-4.9,4.8c-1.6,2-5.9,8.6-7.6,10.6c-1,1.3-3.9,6.6-1.6,9.9c3,4.2,9.4,5.4,9.4,5.4h165
			C195.8,168.8,198.4,160.6,197,158.4z M177.2,151.6h-43.9c-2.4,0-2.9,1-2.3,1.6c0.6,0.6,1.6,2.9-0.3,2.9H84.6
			c-2.4,0-4.6-1.3-4.3-2.7s1.2-3,1.2-3H36c0,0-5.5,1-5.2-0.7c0.3-1.1,0.7-2.1,1.4-3c0.7-1.4,2.6-4.4,7.3-4.4s125.7-0.3,130.2-0.2
			s5.2-0.1,6.6,2.2s2.6,3.7,2.9,4.1C179.3,148.8,181.1,151.6,177.2,151.6L177.2,151.6z"/>
		<path class="st3" d="M81.1,86.7c0.3,0.1,0.5,0.3,0.7,0.5c1,1,4.2,4,5,4.8c0.8,0.8,1.3,1.8,1.4,2.9c0.1,1.4,0.4,6.9-1.3,10.3
			c-1.7,3.4-3.6,6.8-8.7,9.3c-5,2.6-11.9,3.3-16.3,6.1c-4.3,2.9-4.7,7-5.5,7.3c-0.8,0.3-4.5-11.5-3.7-21c0.7-9.5,6.6-16.2,13-18.3
			C71.8,86.6,78.2,85.5,81.1,86.7z"/>
	</g>
	<g class="st5">
		<path class="st2" d="M36.9,243.7v-31.5h3.6c4.3,0,6.6,0.9,7.8,3.3c1.2,2.4,1.4,6.3,1.4,12.5s-0.2,10.1-1.4,12.5s-3.6,3.3-7.8,3.3
			h-3.6V243.7z M41.6,239c1.6,0,2.5-0.2,3-1.7c0.2-0.7,0.4-1.8,0.4-3.3s0-3.5,0-6.1s0-4.6,0-6.1s-0.2-2.6-0.4-3.3
			c-0.5-1.5-1.4-1.7-3-1.7V239z"/>
		<path class="st2" d="M52.9,212.2h4.6v31.5h-4.6V212.2z"/>
		<path class="st2" d="M68.3,223.5v-4.8c0-0.9-0.2-1.5-0.6-2c-0.2-0.2-0.6-0.3-0.9-0.3c-0.8,0-1.2,0.6-1.4,1.2
			c-0.1,0.3-0.2,0.7-0.2,1.2v18.9c0,0.9,0.2,1.5,0.6,2c0.2,0.2,0.5,0.3,0.9,0.3c0.8,0,1.2-0.5,1.4-1.2c0.1-0.3,0.2-0.7,0.2-1.2v-5.7
			h-1.8V228H73v15.7h-2.7l-0.6-1.5c-0.9,1.1-2.1,1.8-3.6,1.8s-2.5-0.4-3.3-1.1c-0.8-0.6-1.3-1.5-1.6-2.3c-0.4-1-0.6-2.1-0.5-3.4
			v-18.5c0-1.2,0.3-2.4,0.8-3.4c0.4-0.9,0.9-1.7,1.8-2.4c0.9-0.6,2.1-1.1,3.6-1.1s2.7,0.4,3.6,1.1c0.9,0.6,1.5,1.5,1.8,2.4
			c0.5,1,0.7,2.1,0.8,3.4v4.8H68.3z"/>
		<path class="st2" d="M76.3,212.2h4.6v31.5h-4.6V212.2z"/>
		<path class="st2" d="M82.7,217v-4.8h13.4v4.8h-4.4v26.7h-4.6V217H82.7z"/>
		<path class="st2" d="M95.6,243.7l4.8-31.5h5.6l4.8,31.5h-4.5l-0.9-6.4h-4.5l-0.9,6.4H95.6z M103.5,222.4l-0.1-0.8h-0.3l-0.1,0.8
			l-1.3,9.9h3.2L103.5,222.4z"/>
		<path class="st2" d="M112.9,212.2h4.6v27.2h6.1v4.3h-10.7V212.2z"/>
		<path class="st2" d="M130.9,243.7l4.8-31.5h5.7l4.8,31.5h-4.5l-0.9-6.4h-4.5l-0.9,6.4H130.9z M138.7,222.4l-0.1-0.8h-0.3l-0.1,0.8
			l-1.3,9.9h3.2L138.7,222.4z"/>
		<path class="st2" d="M156.4,243.7l-2.4-13.3h-1.2v13.3h-4.6v-31.5h4.6c5.5,0,7.9,3.1,7.9,9.1c0,3.1-0.8,5.9-2.6,7.1l3,15.2
			L156.4,243.7L156.4,243.7z M152.8,226.1c0.6,0,1.5-0.1,2.2-0.7c0.7-0.6,1.2-1.8,1.2-4s-0.6-3.4-1.2-4c-0.7-0.6-1.5-0.6-2.2-0.6
			V226.1z"/>
		<path class="st2" d="M162,217v-4.8h13.4v4.8H171v26.7h-4.6V217H162z"/>
	</g>
</g>
<g id="MAIN" class="st0">
	<g id="IconGuide_copy" class="st5">
		<rect x="6" y="6" class="st8" width="200" height="163.7"/>
		<rect x="6" y="175.2" class="st9" width="200.2" height="31.4"/>
		<rect x="6" y="212.6" class="st9" width="200.2" height="31.4"/>
	</g>
	<g id="IconGuide" class="st5">
		<rect x="56" y="46.9" class="st10" width="100" height="81.8"/>
		<rect x="6" y="175.2" class="st9" width="200.2" height="31.4"/>
		<rect x="6" y="212.6" class="st9" width="200.2" height="31.4"/>
	</g>
	<g id="IconGuide_copy_2" class="st5">
		<rect x="86" y="71.5" class="st11" width="40" height="32.7"/>
		<rect x="6" y="175.2" class="st8" width="200.2" height="31.4"/>
		<rect x="6" y="212.6" class="st8" width="200.2" height="31.4"/>
	</g>
</g>
</svg>
