<svg id="BACKGROUND" xmlns="http://www.w3.org/2000/svg" viewBox="0 0 1000 1000"><defs><style>.cls-1{fill:#c6c5c5;}.cls-2{fill:#404041;}</style></defs><title>ICON02</title><g id="BACKGROUND-2" data-name="BACKGROUND"><rect class="cls-1" width="1000" height="1000"/></g><g id="_08" data-name="08"><path class="cls-2" d="M277.8,463.5s-3.4-29,18.2-66,75.4-71.4,105.1-41.1,14.8,75.4,0,107.1S196.4,852.8,196.4,852.8l297-133.4V633.2L360.7,691.1s74.8-128.6,86.9-153.6,37.7-74.8,45.8-129.3,3.4-103.7-30.3-140.8-52.5-30.3-74.8-31-69.4,4-125.9,66-62.6,116.5-66,139.4-5.4,59.3-5.4,59.3Z" transform="translate(-0.5 -1)"/><path class="cls-2" d="M833.8,194.4c-29.3-80.8-103.7-66.3-112.8-63.3s-176.1,58.3-176.1,58.3V694.5s142.5-62.4,184.5-88.9A234.94,234.94,0,0,0,801.8,533c22.2-35.4,33-60.3,44.6-116.2C857.8,362.5,863.1,275.2,833.8,194.4ZM782.3,406.9c-5.1,26.6-11.7,59.2-41.6,98.8-27.5,36.4-49.3,42.4-62.6,48.9-9.1,4.4-62.5,26.3-62.5,26.3s2.6-313,2.6-321.7c0-4.7,3.8-8,12.6-11,10-3.5,71.7-25.2,79.8-26.9,8.9-1.9,52.5-10.8,69,49.8S787.4,380.3,782.3,406.9Z" transform="translate(-0.5 -1)"/></g><g id="RING"><path d="M0.5,1V1001h1000V1H0.5ZM501,994C229,994,8.5,773.5,8.5,501.5S229,9,501,9,993.5,229.5,993.5,501.5,773,994,501,994Z" transform="translate(-0.5 -1)"/></g></svg>