<svg id="_6_-_360_copy" data-name="6 - 360 copy" xmlns="http://www.w3.org/2000/svg" viewBox="0 0 1000 1000"><defs><style>.cls-1{fill:#c6c5c5;}.cls-2{fill:none;stroke:#000;stroke-width:20px;stroke-dasharray:40 40;}.cls-2,.cls-5{stroke-miterlimit:10;}.cls-3{fill:#404041;}.cls-4{fill:#212120;}.cls-5{fill:#383838;stroke:#c6c5c5;stroke-width:10px;}.cls-6{fill:#fff;}</style></defs><title>ICON06</title><rect class="cls-1" width="1000" height="1000"/><path class="cls-2" d="M224.41,708.89C140.31,588,101,458.78,180.93,309.6c73.5-137.22,202.65-205.82,386.68-177.82,177.42,27,222.87,103.94,269,204C876.48,422.22,858.1,529.52,817.86,625"/><polygon points="750.4 538.83 728.15 737.01 910.92 657.22 750.4 538.83"/><path class="cls-3" d="M487,566.5c6.8-5.19,12.35-12.75,15.94-17.93s4.78-10.36,12-5.18,40.86,22.6,58.17,30.28c42.9,19,59,26.7,68.53,30.28s11.5,6.63,4.38,10c-6.59,3.08-13.42,7.34-21.91,12.75-8.87,5.65-24.16,16.73-29.88,26.34s-9.16,26.66-9.56,41.8,1.16,37.35,10,51.8c10.32,16.94,43.81,39.48,78.89,81.68,41.56,50,58.55,79,71.32,98,12,17.9,43.08,66.81,37.45,69.48-4.65,2.21-16.22,1-32.4,1.39-14.35.34-413,.38-419.43,0.41-8.89,0-18.33-1.61-17.93-17.15s7.17-56.12,21.52-96.36,38.65-66.54,42.23-90.45S371.06,669.7,359.5,662.13s-51.4-17.93-62.56-21.91-18.73-11.55-17.53-29.48,4.38-55.38,4.78-59,4-2.39,12,1.2,44.23,24.3,114.35,24.7S480.9,571.16,487,566.5Z"/><path class="cls-4" d="M472,530.44c0.08,3.19-5,5.83-13.71,7.37-8,1.41-37.06,3.59-71.32-3.59s-115.55-33.07-128.7-39.45-26.3-14.74-15.54-41,66.54-151.41,70.92-159.38,14.34-21.91,37.85-12,62.56,30.68,89.25,47,67,55.6,76.1,70.13c7.58,12.1,10.33,21.35,8,24.3-1.42,1.77-4.43,1.76-12-2-8.25-4.12-15.94-9.56-23.11,4.38s-34.59,74.11-36.43,78.52c-2.5,6-1.58,11.38,4,14.17S471.86,523.78,472,530.44Z"/><path class="cls-3" d="M560,433.15c-1.13-4.43-.71-4.72-1.71-23.84-0.79-15.28-4-31-21.63-55.2S506,321.28,470,302.28c-18.61-9.82-40.8-14.28-30-18.67s59.89-26.7,119.59-19.52,112.7,44.81,138.6,86.35,33.07,89.36,30.28,120.44-5.58,36.66-8.37,39-13.95-2.79-17.53-4.38-125-59-130.53-61.39S561.44,438.68,560,433.15Z"/><path class="cls-3" d="M497.32,490.86c1.73-3.91,12.8-28,13.7-30.06s3.51-2.95,6.37-1.68c4.52,2,179.42,80.89,184.15,82.92a5.69,5.69,0,0,1,2.87,8.23c-3.26,6.19-11.84,23.61-13.8,27.29-3.07,5.76-3.78,7.37-13.94,2.88s-172.16-77.2-178.16-80C495.27,499,495,496.07,497.32,490.86Z"/><g id="RING"><path d="M0,0V1000H1000V0H0ZM500.5,993C228.5,993,8,772.5,8,500.5S228.5,8,500.5,8,993,228.5,993,500.5,772.5,993,500.5,993Z"/></g><g id="Layer_3_copy_13" data-name="Layer 3 copy 13"><rect class="cls-5" x="37" y="821" width="926" height="144" rx="12" ry="12"/><path class="cls-6" d="M290.15,913.8a30.89,30.89,0,0,0,15.12,4.3c11.86,0,15.54-7.56,15.43-13.23-0.1-9.55-8.71-13.65-17.64-13.65h-5.15V884.3h5.15c6.72,0,15.22-3.46,15.22-11.55,0-5.46-3.46-10.29-12-10.29A25.07,25.07,0,0,0,292.67,867l-2.42-6.72c3.57-2.62,10.5-5.25,17.85-5.25,13.44,0,19.53,8,19.53,16.27,0,7-4.2,13-12.6,16.06v0.21c8.4,1.68,15.22,8,15.22,17.53,0,10.92-8.5,20.47-24.88,20.47-7.67,0-14.38-2.42-17.74-4.62Z"/><path class="cls-6" d="M380.76,862.67a33.33,33.33,0,0,0-6.93.42c-14.49,2.42-22.15,13-23.73,24.25h0.31a20.34,20.34,0,0,1,16.48-7.87c12.07,0,20.58,8.71,20.58,22,0,12.49-8.5,24-22.68,24-14.59,0-24.15-11.34-24.15-29.08,0-13.44,4.83-24,11.55-30.76A37.15,37.15,0,0,1,374,855.63a44.36,44.36,0,0,1,6.72-.52v7.56ZM378.13,902c0-9.76-5.56-15.64-14.07-15.64a15.2,15.2,0,0,0-13.23,8.4,7.86,7.86,0,0,0-1,4.09c0.21,11.23,5.35,19.53,15,19.53C372.78,918.42,378.13,911.81,378.13,902Z"/><path class="cls-6" d="M441,889.55c0,23.2-8.61,36-23.73,36-13.33,0-22.36-12.5-22.57-35.07,0-22.89,9.87-35.49,23.73-35.49C432.84,855,441,867.81,441,889.55Zm-37.06,1c0,17.74,5.46,27.82,13.86,27.82,9.45,0,14-11,14-28.45,0-16.8-4.3-27.82-13.86-27.82C409.84,862.14,404,872,404,890.6Z"/><path class="cls-6" d="M486.81,924.41l-23.1-70.77h9.87l11,34.86c3,9.55,5.67,18.16,7.56,26.46h0.21c2-8.19,4.93-17.11,8.08-26.35l12-35h9.76l-25.3,70.77H486.81Z"/><path class="cls-6" d="M538.15,859.31c0.1,3.15-2.21,5.67-5.88,5.67a5.49,5.49,0,0,1-5.57-5.67,5.63,5.63,0,0,1,5.78-5.77A5.48,5.48,0,0,1,538.15,859.31Zm-10.29,65.1V873.59h9.24v50.82h-9.24Z"/><path class="cls-6" d="M596.32,849.86v61.42c0,4.51.1,9.66,0.42,13.12h-8.29L588,915.59h-0.21c-2.83,5.67-9,10-17.32,10-12.28,0-21.73-10.39-21.73-25.83-0.1-16.9,10.39-27.3,22.78-27.3,7.77,0,13,3.67,15.33,7.77h0.21V849.86h9.24Zm-9.24,44.41a16.29,16.29,0,0,0-.42-3.88,13.59,13.59,0,0,0-13.33-10.71c-9.55,0-15.22,8.4-15.22,19.63,0,10.29,5,18.79,15,18.79a13.89,13.89,0,0,0,13.54-11,16,16,0,0,0,.42-4v-8.82Z"/><path class="cls-6" d="M616.8,900.68c0.21,12.5,8.19,17.64,17.43,17.64a33.42,33.42,0,0,0,14.07-2.62l1.58,6.62c-3.25,1.47-8.82,3.15-16.9,3.15-15.64,0-25-10.29-25-25.62s9-27.4,23.83-27.4c16.59,0,21,14.59,21,23.94a35,35,0,0,1-.31,4.3H616.8Zm27.09-6.61c0.11-5.88-2.41-15-12.81-15-9.35,0-13.44,8.61-14.17,15h27Z"/><path class="cls-6" d="M710.24,898.58c0,18.79-13,27-25.3,27-13.75,0-24.36-10.08-24.36-26.14,0-17,11.13-27,25.2-27C700.37,872.43,710.24,883,710.24,898.58Zm-40.32.53c0,11.13,6.41,19.53,15.43,19.53,8.82,0,15.43-8.29,15.43-19.74,0-8.61-4.3-19.53-15.22-19.53S669.92,889.44,669.92,899.1Z"/></g></svg>