<svg id="_2_-_3D_Design_copy" data-name="2 - 3D Design copy" xmlns="http://www.w3.org/2000/svg" viewBox="0 0 1000 1000"><defs><style>.cls-1{fill:#c6c5c5;}.cls-2{fill:#404041;}.cls-3{fill:#383838;}.cls-4{fill:#fff;}</style></defs><title>ICON02</title><rect class="cls-1" width="1000" height="1000"/><path class="cls-2" d="M905.53,479.6c-45.09-139.37-133.22-165-167-171.13s-206-22.54-206-22.54H508l62.4,432.45,253.11-12.3C887.08,692.74,950.62,619,905.53,479.6ZM759,591.29c-12.3,1-64.56,0-64.56,0L658.56,395.57s52.26-2,85.05,10.25,63.53,44.06,70.71,113.75S771.28,590.27,759,591.29Z"/><path class="cls-2" d="M93.24,404.45s-1.37-86.76,60.12-118.53,195.39-30.4,269.17,20.15,67,95.64,64.22,113.41-45.09,46.46-56,47.82,61.49,6.83,83.35,64.22-8.46,136.91-80.61,179c-69.05,40.27-223.55,32.38-286.93-28.69C58.08,596.59,82.31,524.68,82.31,524.68l164,2.73s5.47,77.88,72.42,77.88,75.15-23.23,69.68-53.29-38.26-46.46-65.58-47.82-54.65,0-54.65,0l-9.56-79.25s57.39,6.83,83.35,0,51.92-32.79,9.56-60.12-83.35-15-99.74,1.37-9.56,50.55-9.56,50.55Z"/><g id="RING"><path d="M0,0V1000H1000V0H0ZM500.5,993C228.5,993,8,772.5,8,500.5S228.5,8,500.5,8,993,228.5,993,500.5,772.5,993,500.5,993Z"/></g><g id="Layer_3_copy_9" data-name="Layer 3 copy 9"><rect class="cls-3" x="37" y="821" width="926" height="144" rx="12" ry="12"/><path class="cls-1" d="M951,970H49a17,17,0,0,1-17-17V833a17,17,0,0,1,17-17H951a17,17,0,0,1,17,17V953A17,17,0,0,1,951,970ZM49,826a7,7,0,0,0-7,7V953a7,7,0,0,0,7,7H951a7,7,0,0,0,7-7V833a7,7,0,0,0-7-7H49Z"/><path class="cls-4" d="M281.18,913.8a30.89,30.89,0,0,0,15.12,4.3c11.86,0,15.54-7.56,15.43-13.23-0.1-9.55-8.71-13.65-17.64-13.65H289V884.3h5.15c6.72,0,15.22-3.46,15.22-11.55,0-5.46-3.46-10.29-12-10.29A25.07,25.07,0,0,0,283.7,867l-2.42-6.72c3.57-2.62,10.5-5.25,17.85-5.25,13.44,0,19.53,8,19.53,16.27,0,7-4.2,13-12.6,16.06v0.21c8.4,1.68,15.22,8,15.22,17.53,0,10.92-8.5,20.47-24.88,20.47-7.67,0-14.38-2.42-17.74-4.62Z"/><path class="cls-4" d="M336.1,854.58a130.86,130.86,0,0,1,19.42-1.47c13.12,0,22.47,3,28.66,8.82s10,14,10,25.41-3.57,21-10.18,27.51S366.44,925,352.69,925a147.35,147.35,0,0,1-16.59-.84V854.58Zm9.13,62.58a57.69,57.69,0,0,0,9.24.53c19.53,0,30.13-10.92,30.13-30,0.1-16.69-9.34-27.3-28.66-27.3a51.94,51.94,0,0,0-10.71.95v55.86Z"/><path class="cls-4" d="M428.28,854.58a130.86,130.86,0,0,1,19.42-1.47c13.12,0,22.47,3,28.66,8.82s10,14,10,25.41-3.57,21-10.18,27.51S458.63,925,444.87,925a147.35,147.35,0,0,1-16.59-.84V854.58Zm9.13,62.58a57.69,57.69,0,0,0,9.24.53c19.53,0,30.13-10.92,30.13-30,0.1-16.69-9.34-27.3-28.66-27.3a51.94,51.94,0,0,0-10.71.95v55.86Z"/><path class="cls-4" d="M503.46,900.68c0.21,12.5,8.19,17.64,17.43,17.64A33.41,33.41,0,0,0,535,915.69l1.58,6.62c-3.26,1.47-8.82,3.15-16.9,3.15-15.64,0-25-10.29-25-25.62s9-27.4,23.83-27.4c16.59,0,21,14.59,21,23.94a34.91,34.91,0,0,1-.32,4.3h-35.7Zm27.09-6.61c0.1-5.88-2.42-15-12.81-15-9.34,0-13.44,8.61-14.17,15h27Z"/><path class="cls-4" d="M549.66,915a24.22,24.22,0,0,0,12.18,3.67c6.72,0,9.87-3.36,9.87-7.56,0-4.41-2.62-6.83-9.45-9.34-9.13-3.25-13.44-8.29-13.44-14.38,0-8.19,6.62-14.91,17.53-14.91a25.37,25.37,0,0,1,12.5,3.15l-2.31,6.72a19.78,19.78,0,0,0-10.39-2.94c-5.46,0-8.5,3.15-8.5,6.93,0,4.2,3,6.09,9.66,8.61,8.82,3.36,13.33,7.77,13.33,15.33,0,8.92-6.93,15.22-19,15.22A29,29,0,0,1,547.35,922Z"/><path class="cls-4" d="M602.79,859.31c0.11,3.15-2.21,5.67-5.88,5.67a5.49,5.49,0,0,1-5.57-5.67,5.63,5.63,0,0,1,5.77-5.77A5.48,5.48,0,0,1,602.79,859.31Zm-10.29,65.1V873.59h9.24v50.82H592.5Z"/><path class="cls-4" d="M660.85,873.59c-0.21,3.67-.42,7.77-0.42,14v29.5c0,11.65-2.31,18.79-7.25,23.2-4.93,4.62-12.07,6.09-18.48,6.09-6.09,0-12.81-1.47-16.9-4.2l2.31-7a28.66,28.66,0,0,0,14.91,4c9.45,0,16.38-4.93,16.38-17.74v-5.67h-0.21c-2.83,4.72-8.29,8.5-16.17,8.5-12.6,0-21.63-10.71-21.63-24.78,0-17.22,11.23-27,22.89-27,8.82,0,13.65,4.62,15.85,8.82h0.21l0.42-7.67h8.08Zm-9.55,20.05a13.16,13.16,0,0,0-.53-4.2c-1.68-5.35-6.19-9.76-12.91-9.76-8.82,0-15.12,7.46-15.12,19.21,0,10,5,18.27,15,18.27a13.51,13.51,0,0,0,12.81-9.45,16.06,16.06,0,0,0,.74-4.93v-9.13Z"/><path class="cls-4" d="M675.14,887.34c0-5.25-.11-9.55-0.42-13.75h8.19l0.52,8.4h0.21a18.69,18.69,0,0,1,16.8-9.55c7,0,18,4.2,18,21.63v30.34h-9.24V895.11c0-8.19-3-15-11.76-15A13.13,13.13,0,0,0,685,889.55a13.28,13.28,0,0,0-.63,4.3v30.55h-9.24V887.34Z"/></g></svg>