<?xml version="1.0" encoding="utf-8"?>
<!-- Generator: Adobe Illustrator 19.2.1, SVG Export Plug-In . SVG Version: 6.00 Build 0)  -->
<svg version="1.1" id="Layer_2" xmlns="http://www.w3.org/2000/svg" xmlns:xlink="http://www.w3.org/1999/xlink" x="0px" y="0px"
	 viewBox="0 0 1001 1001" style="enable-background:new 0 0 1001 1001;" xml:space="preserve">
<style type="text/css">
	.st0{fill:#C6C5C5;}
	.st1{fill:none;stroke:#000000;stroke-width:20;stroke-miterlimit:10;stroke-dasharray:40,40;}
	.st2{fill:#404041;}
	.st3{fill:#212120;}
	.st4{fill:#231F20;}
</style>
<rect x="1" y="-1.8" class="st0" width="1000" height="1000"/>
<g>
	<g>
		<g>
			<path class="st1" d="M225.4,707.1C141.3,586.3,102,457,181.9,307.8C255.4,170.6,384.5,102,568.6,130
				c177.4,27,222.9,103.9,269,204c39.9,86.4,21.5,193.7-18.8,289.2"/>
			<g>
				<polygon points="751.4,537.1 729.1,735.2 911.9,655.4 				"/>
			</g>
		</g>
	</g>
	<path class="st2" d="M488,564.7c6.8-5.2,12.4-12.8,15.9-17.9c3.6-5.2,4.8-10.4,12-5.2s40.9,22.6,58.2,30.3
		c42.9,19,59,26.7,68.5,30.3c9.6,3.6,11.5,6.6,4.4,10c-6.6,3.1-13.4,7.3-21.9,12.8c-8.9,5.7-24.2,16.7-29.9,26.3
		c-5.7,9.5-9.2,26.7-9.6,41.8c-0.4,15.1,1.2,37.3,10,51.8c10.3,16.9,43.8,39.5,78.9,81.7c41.6,50,58.6,79,71.3,98
		c12,17.9,43.1,66.8,37.5,69.5c-4.7,2.2-16.2,1-32.4,1.4c-14.3,0.3-413,0.4-419.4,0.4c-8.9,0-18.3-1.6-17.9-17.1
		c0.4-15.5,7.2-56.1,21.5-96.4c14.3-40.2,38.6-66.5,42.2-90.4c3.6-23.9-5.2-123.9-16.7-131.5c-11.6-7.6-51.4-17.9-62.6-21.9
		c-11.2-4-18.7-11.6-17.5-29.5c1.2-17.9,4.4-55.4,4.8-59s4-2.4,12,1.2c8,3.6,44.2,24.3,114.4,24.7S481.9,569.4,488,564.7z"/>
	<path class="st3" d="M473,528.7c0.1,3.2-5,5.8-13.7,7.4c-8,1.4-37.1,3.6-71.3-3.6S272.4,499.4,259.3,493
		c-13.1-6.4-26.3-14.7-15.5-41c10.8-26.3,66.5-151.4,70.9-159.4c4.4-8,14.3-21.9,37.9-12c23.5,10,62.6,30.7,89.3,47
		c26.7,16.3,67,55.6,76.1,70.1c7.6,12.1,10.3,21.4,8,24.3c-1.4,1.8-4.4,1.8-12-2c-8.2-4.1-15.9-9.6-23.1,4.4
		c-7.2,13.9-34.6,74.1-36.4,78.5c-2.5,6-1.6,11.4,4,14.2C463.9,520,472.8,522,473,528.7z"/>
	<path class="st2" d="M561,431.4c-1.1-4.4-0.7-4.7-1.7-23.8c-0.8-15.3-4-31-21.6-55.2C520,328.1,507,319.5,471,300.5
		c-18.6-9.8-40.8-14.3-30-18.7c10.8-4.4,59.9-26.7,119.6-19.5c59.7,7.2,112.7,44.8,138.6,86.4c25.9,41.5,33.1,89.4,30.3,120.4
		c-2.8,31.1-5.6,36.7-8.4,39c-2.8,2.4-13.9-2.8-17.5-4.4c-3.6-1.6-125-59-130.5-61.4S562.4,436.9,561,431.4z"/>
	<path class="st2" d="M498.3,489.1c1.7-3.9,12.8-28,13.7-30.1s3.5-2.9,6.4-1.7c4.5,2,179.4,80.9,184.2,82.9c3.6,1.5,4.5,5.1,2.9,8.2
		c-3.3,6.2-11.8,23.6-13.8,27.3c-3.1,5.8-3.8,7.4-13.9,2.9s-172.2-77.2-178.2-80C496.2,497.2,496,494.3,498.3,489.1z"/>
</g>
<g id="RING_4_">
	<path class="st4" d="M1-1.8v1000h1000V-1.8H1z M501.5,991.2C229.5,991.2,9,770.7,9,498.7S229.5,6.2,501.5,6.2S994,226.7,994,498.7
		S773.5,991.2,501.5,991.2z"/>
</g>
</svg>
