<?xml version="1.0" encoding="utf-8"?>
<!-- Generator: Adobe Illustrator 19.2.1, SVG Export Plug-In . SVG Version: 6.00 Build 0)  -->
<svg version="1.1" id="BACKGROUND" xmlns="http://www.w3.org/2000/svg" xmlns:xlink="http://www.w3.org/1999/xlink" x="0px" y="0px"
	 viewBox="0 0 1001 1001" style="enable-background:new 0 0 1001 1001;" xml:space="preserve">
<style type="text/css">
	.st0{fill:#C6C5C5;}
	.st1{fill:#404041;}
	.st2{fill:#292929;}
	.st3{fill:#8B8E91;}
	.st4{fill:#B4BCC4;}
	.st5{fill:#E2E8ED;}
	.st6{fill:#5D6B72;}
	.st7{fill:#B9B9BA;}
</style>
<rect x="1" y="1" class="st0" width="1000" height="1000"/>
<path class="st1" d="M0,0v1001h1001V0H0z M501,994C228.7,994,8,773.3,8,501S228.7,8,501,8s493,220.7,493,493S773.3,994,501,994z"/>
<g>
	<g id="Layer_16_1_">
		<path class="st2" d="M357.9,96.8h294.5c31.9,0,57.7,25.8,57.7,57.7v661.4c0,31.9-25.8,57.7-57.7,57.7H357.9
			c-31.9,0-57.7-25.8-57.7-57.7V154.5C300.2,122.6,326,96.8,357.9,96.8z"/>
		<rect x="317.3" y="195.2" class="st3" width="375" height="583.5"/>
		<circle class="st3" cx="506.5" cy="131.5" r="10.7"/>
		<path class="st3" d="M462.2,153.5h88.3c3.7,0,6.7,3,6.7,6.7v0c0,3.7-3,6.7-6.7,6.7h-88.3c-3.7,0-6.7-3-6.7-6.7v0
			C455.5,156.5,458.5,153.5,462.2,153.5z"/>
		<circle class="st3" cx="505.9" cy="822.5" r="34.7"/>
		<circle class="st4" cx="511.5" cy="539.8" r="62.3"/>
		<path class="st4" d="M510.7,449.6c-49.5,0-89.7,40.1-89.7,89.7s40.1,89.7,89.7,89.7s89.7-40.1,89.7-89.7S560.2,449.6,510.7,449.6
			L510.7,449.6z M510.7,622.2c-45.8,0-83-37.2-83-83c0-45.8,37.2-83,83-83s83,37.2,83,83S556.5,622.2,510.7,622.2L510.7,622.2z"/>
		<path class="st5" d="M94.5,861.1l38-56.7c0,0-2.7-44,12-68s76-114.7,84-125.3s27.3-24,40.7-17.3c13.3,6.7,18,14,10,26
			s-24,28.7-21.3,30.7s14.5-8.7,25.3-22s28.7-25.3,42.7-16s14,18,6,30s-22,35.3-23.3,38s1.3,4.7,8-4s20.7-28.7,26.7-35.3
			s16.7-20,34.7-11.3s16,16.7,10,26s-24,37.3-26.7,42.7s0,8.7,6,1.3s111.3-158.7,118.6-168.7s18-26.1,38.7-16
			c20.7,10.1,20,19.4,11.3,36S367.2,790.5,362.5,796.5s0.7,8.7,7.3,1.3s42-58.7,56.7-66.7s22.7-4.7,28.7-1.3s18,10.7,7.3,21.3
			s-38.7,36.7-57.3,54.7s-48,44-63.3,55.3s-31.3,18-45.3,24s-39.3,14-39.3,14l-30,47.3L94.5,861.1z"/>
		<polygon class="st6" points="222.2,973.1 69.7,866.6 79.2,853.1 236.7,954.9 		"/>
		<polygon class="st7" points="230.7,979.6 218.7,1001 0,1001 0,949 59.2,857.6 		"/>
	</g>
</g>
</svg>
