<?xml version="1.0" encoding="utf-8"?>
<!-- Generator: Adobe Illustrator 22.0.0, SVG Export Plug-In . SVG Version: 6.00 Build 0)  -->
<svg version="1.1" id="Layer_1" xmlns="http://www.w3.org/2000/svg" xmlns:xlink="http://www.w3.org/1999/xlink" x="0px" y="0px"
	 viewBox="0 0 228.1 220.2" style="enable-background:new 0 0 228.1 220.2;" xml:space="preserve">
<style type="text/css">
	.st0{fill:#FFFFFF;}
	.st1{fill:#F8991D;}
</style>
<g>
	<g>
		<path class="st0" d="M58.8,205.6v-3.9c1.9-0.1,2.8-0.5,3.2-1.4c0.2-0.4,0.3-1,0.3-1.7s0-1.5,0-2.5c0-0.9,0-1.9-0.2-2.7
			c-0.2-0.8-0.6-1.4-1.3-1.4c-0.6,0-0.9,0.3-1.1,1.1c-0.2,0.9-0.3,2.2-0.3,4.3h-4.5c0-1.8,0-4.2,0.8-6.1c0.8-1.9,2.2-3.3,5.1-3.3
			c2.9,0,4.4,1.5,5.2,3.1c0.8,1.6,0.8,3.3,0.8,3.7c0,4.7-0.8,6.9-2.2,8.3l0,0c2.2,1.8,2.7,5,2.7,8.6c0,0.1,0,0.4,0,0.9
			c0,0.9-0.3,2.2-0.8,3.6c-0.5,1.4-1.4,2.6-2.7,3.3c-0.7,0.4-1.5,0.6-2.5,0.6c-2.9,0-4.4-1.5-5.2-3.4c-0.8-1.9-0.9-4.3-0.9-6h4.5
			c0,2.1,0.1,3.4,0.4,4.2c0.3,0.9,0.6,1.1,1.2,1.1c0.7,0,1.1-0.6,1.3-1.3c0.2-0.8,0.2-1.8,0.2-2.7c0-1,0-1.9,0-2.7
			c0-1.5-0.3-2.6-1.3-3.3c-0.5-0.3-1.3-0.5-2.3-0.6H58.8z"/>
		<path class="st0" d="M70,219.9v-31.5h3.6c4.3,0,6.6,0.9,7.8,3.3c1.2,2.4,1.4,6.3,1.4,12.5c0,6.2-0.2,10.1-1.4,12.5
			c-1.2,2.4-3.6,3.3-7.8,3.3H70z M74.6,215.2c1.6,0,2.5-0.2,3-1.7c0.2-0.7,0.4-1.8,0.4-3.3c0-1.5,0-3.5,0-6.1c0-2.6,0-4.6,0-6.1
			c0-1.5-0.2-2.6-0.4-3.3c-0.5-1.5-1.4-1.7-3-1.7V215.2z"/>
		<path class="st0" d="M92.5,219.9v-31.5h3.6c4.3,0,6.6,0.9,7.8,3.3c1.2,2.4,1.4,6.3,1.4,12.5c0,6.2-0.2,10.1-1.4,12.5
			c-1.2,2.4-3.6,3.3-7.8,3.3H92.5z M97.1,215.2c1.6,0,2.5-0.2,3-1.7c0.2-0.7,0.4-1.8,0.4-3.3c0-1.5,0-3.5,0-6.1c0-2.6,0-4.6,0-6.1
			c0-1.5-0.2-2.6-0.4-3.3c-0.5-1.5-1.4-1.7-3-1.7V215.2z"/>
		<path class="st0" d="M108.4,188.4H119v4.8h-5.9v8.3h4.3v5.1h-4.3v8.6h5.9v4.8h-10.6V188.4z"/>
		<path class="st0" d="M129.2,196.8c0-1,0-2.2-0.3-3.1c-0.3-0.9-0.8-1.5-1.5-1.5c-1.2,0-1.6,1.3-1.6,3.1c0,1.1,0.5,2.2,1.2,3.4
			c0.7,1.2,1.6,2.4,2.5,3.8c1.1,1.6,2.1,3.2,3,4.8c0.8,1.6,1.4,3.2,1.4,4.9c0,2.1-0.3,4.1-1.3,5.5c-1,1.5-2.6,2.4-5.1,2.4
			c-3,0-4.6-1.1-5.6-2.8c-0.9-1.7-1.2-4-1.2-6.3l4.5-0.4c0,1.3,0,2.7,0.4,3.6c0.3,1,0.8,1.7,1.8,1.7c1.4,0,1.9-1.5,1.9-3.5
			c0-1-0.5-2.2-1.2-3.5c-0.4-0.6-0.8-1.2-1.2-1.9c-0.9-1.3-1.9-2.7-2.9-4.3c-1-1.6-1.8-3.2-2.3-4.9c-0.3-0.8-0.4-1.7-0.4-2.5
			c0-1.7,0.4-3.6,1.4-5c1-1.4,2.5-2.4,4.7-2.4c2.8,0,4.4,1.1,5.3,2.8c0.9,1.7,1.2,3.8,1.2,5.6L129.2,196.8z"/>
		<path class="st0" d="M136.3,188.4h4.6v31.5h-4.6V188.4z"/>
		<path class="st0" d="M151.7,199.7v-4.8c0-0.9-0.2-1.5-0.6-2c-0.2-0.2-0.6-0.3-0.9-0.3c-0.8,0-1.2,0.6-1.4,1.2
			c-0.1,0.3-0.2,0.7-0.2,1.2v18.9c0,0.9,0.2,1.5,0.6,2c0.2,0.2,0.5,0.3,0.9,0.3c0.8,0,1.2-0.5,1.4-1.2c0.1-0.3,0.2-0.7,0.2-1.2v-5.7
			h-1.8v-3.9h6.5v15.7h-2.7l-0.6-1.5c-0.9,1.1-2.1,1.8-3.6,1.8c-1.5,0-2.5-0.4-3.3-1.1c-0.8-0.6-1.3-1.5-1.6-2.3
			c-0.4-1-0.6-2.1-0.5-3.4v-18.5c0-1.2,0.3-2.4,0.8-3.4c0.4-0.9,0.9-1.7,1.8-2.4c0.9-0.6,2.1-1.1,3.6-1.1s2.7,0.4,3.6,1.1
			c0.9,0.6,1.5,1.5,1.8,2.4c0.5,1,0.7,2.1,0.8,3.4v4.8H151.7z"/>
		<path class="st0" d="M164.6,203.5l-0.4-1.5H164v17.8h-4.2v-31.5h4.1l4.5,16.4l0.4,1.5h0.3v-17.8h4.2v31.5h-4.1L164.6,203.5z"/>
	</g>
	<g>
		<path class="st1" d="M224,58.3c-12.2-37.8-36.1-44.7-45.3-46.4c-9.2-1.7-55.8-6.1-55.8-6.1h-6.6L133.1,123l68.6-3.3
			C219,116.1,236.2,96.1,224,58.3z M184.3,88.6c-3.3,0.3-17.5,0-17.5,0L157,35.5c0,0,14.2-0.5,23.1,2.8c8.9,3.3,17.2,11.9,19.2,30.8
			C201.2,88,187.6,88.3,184.3,88.6z"/>
		<path class="st1" d="M3.8,37.9c0,0-0.4-23.5,16.3-32.1c16.7-8.6,53-8.2,73,5.5s18.2,25.9,17.4,30.7c-0.8,4.8-12.2,12.6-15.2,13
			c-3,0.4,16.7,1.9,22.6,17.4c5.9,15.6-2.3,37.1-21.9,48.5c-18.7,10.9-60.6,8.8-77.8-7.8C-5.7,90,0.8,70.5,0.8,70.5l44.5,0.7
			c0,0,1.5,21.1,19.6,21.1c18.1,0,20.4-6.3,18.9-14.4c-1.5-8.1-10.4-12.6-17.8-13c-7.4-0.4-14.8,0-14.8,0l-2.6-21.5
			c0,0,15.6,1.9,22.6,0c7-1.8,14.1-8.9,2.6-16.3c-11.5-7.4-22.6-4.1-27,0.4c-4.4,4.4-2.6,13.7-2.6,13.7L3.8,37.9z"/>
	</g>
</g>
</svg>
