<?xml version="1.0" encoding="utf-8"?>
<!-- Generator: Adobe Illustrator 22.0.0, SVG Export Plug-In . SVG Version: 6.00 Build 0)  -->
<svg version="1.1" id="Layer_1" xmlns="http://www.w3.org/2000/svg" xmlns:xlink="http://www.w3.org/1999/xlink" x="0px" y="0px"
	 viewBox="0 0 157.4 241.1" style="enable-background:new 0 0 157.4 241.1;" xml:space="preserve">
<style type="text/css">
	.st0{fill:#FFFFFF;}
	.st1{fill:#F8991D;}
</style>
<g>
	<g>
		<path class="st0" d="M19.3,219.3v-2.2c0-2.1,0.3-4.2,1.2-5.6c0.9-1.5,2.4-2.5,5-2.5c2.4,0,3.9,0.9,4.9,2.3
			c0.9,1.4,1.3,3.4,1.3,5.6c0,3.2-1.2,7-2.7,10.6c-1.5,3.6-3.3,6.8-4.5,8.8h7.3v4.6H19.2v-4.6c1.4-2.2,2.7-4.4,3.9-6.6
			c1-1.9,1.9-4,2.7-6.2c0.7-2.2,1.3-4.3,1.3-6.2c0-0.9,0-1.8-0.3-2.6c-0.2-0.7-0.6-1.3-1.3-1.3c-0.6,0-1,0.5-1.2,1.2
			c-0.2,0.7-0.3,1.7-0.3,2.7v2.2H19.3z"/>
		<path class="st0" d="M35,240.8v-31.5h3.6c4.3,0,6.6,0.9,7.8,3.3c1.2,2.4,1.4,6.3,1.4,12.5c0,6.2-0.2,10.1-1.4,12.5
			c-1.2,2.4-3.6,3.3-7.8,3.3H35z M39.7,236.2c1.6,0,2.5-0.2,3-1.7c0.2-0.7,0.4-1.8,0.4-3.3c0-1.5,0-3.5,0-6.1c0-2.6,0-4.6,0-6.1
			c0-1.5-0.2-2.6-0.4-3.3c-0.5-1.5-1.4-1.7-3-1.7V236.2z"/>
		<path class="st0" d="M57.5,240.8v-31.5h3.6c4.3,0,6.6,0.9,7.8,3.3c1.2,2.4,1.4,6.3,1.4,12.5c0,6.2-0.2,10.1-1.4,12.5
			c-1.2,2.4-3.6,3.3-7.8,3.3H57.5z M62.2,236.2c1.6,0,2.5-0.2,3-1.7c0.2-0.7,0.4-1.8,0.4-3.3c0-1.5,0-3.5,0-6.1c0-2.6,0-4.6,0-6.1
			c0-1.5-0.2-2.6-0.4-3.3c-0.5-1.5-1.4-1.7-3-1.7V236.2z"/>
		<path class="st0" d="M73.5,209.3H84v4.8h-5.9v8.3h4.3v5.1h-4.3v8.6H84v4.8H73.5V209.3z"/>
		<path class="st0" d="M94.3,217.8c0-1,0-2.2-0.3-3.1c-0.3-0.9-0.8-1.5-1.5-1.5c-1.2,0-1.6,1.3-1.6,3.1c0,1.1,0.5,2.2,1.2,3.4
			c0.7,1.2,1.6,2.4,2.5,3.8c1.1,1.6,2.1,3.2,3,4.8c0.8,1.6,1.4,3.2,1.4,4.9c0,2.1-0.3,4.1-1.3,5.5c-1,1.5-2.6,2.4-5.1,2.4
			c-3,0-4.6-1.1-5.6-2.8c-0.9-1.7-1.2-4-1.2-6.3l4.5-0.4c0,1.3,0,2.7,0.4,3.6c0.3,1,0.8,1.7,1.8,1.7c1.4,0,1.9-1.5,1.9-3.5
			c0-1-0.5-2.2-1.2-3.5c-0.4-0.6-0.8-1.2-1.2-1.9c-0.9-1.3-1.9-2.7-2.9-4.3c-1-1.6-1.8-3.2-2.3-4.9c-0.3-0.8-0.4-1.7-0.4-2.5
			c0-1.7,0.4-3.6,1.4-5c1-1.4,2.5-2.4,4.7-2.4c2.8,0,4.4,1.1,5.3,2.8c0.9,1.7,1.2,3.8,1.2,5.6L94.3,217.8z"/>
		<path class="st0" d="M101.3,209.3h4.6v31.5h-4.6V209.3z"/>
		<path class="st0" d="M116.7,220.6v-4.8c0-0.9-0.2-1.5-0.6-2c-0.2-0.2-0.6-0.3-0.9-0.3c-0.8,0-1.2,0.6-1.4,1.2
			c-0.1,0.3-0.2,0.7-0.2,1.2v18.9c0,0.9,0.2,1.5,0.6,2c0.2,0.2,0.5,0.3,0.9,0.3c0.8,0,1.2-0.5,1.4-1.2c0.1-0.3,0.2-0.7,0.2-1.2V229
			h-1.8v-3.9h6.5v15.7h-2.7l-0.6-1.5c-0.9,1.1-2.1,1.8-3.6,1.8c-1.5,0-2.5-0.4-3.3-1.1c-0.8-0.6-1.3-1.5-1.6-2.3
			c-0.4-1-0.6-2.1-0.5-3.4v-18.5c0-1.2,0.3-2.4,0.8-3.4c0.4-0.9,0.9-1.7,1.8-2.4c0.9-0.6,2.1-1.1,3.6-1.1c1.5,0,2.7,0.4,3.6,1.1
			c0.9,0.6,1.5,1.5,1.8,2.4c0.5,1,0.7,2.1,0.8,3.4v4.8H116.7z"/>
		<path class="st0" d="M129.6,224.4l-0.4-1.5H129v17.8h-4.2v-31.5h4.1l4.5,16.4l0.4,1.5h0.3v-17.8h4.2v31.5h-4.1L129.6,224.4z"/>
	</g>
	<g>
		<path class="st1" d="M64.9,95.3c2.9-5.9,8.3-17,10-28.9c2.2-15.1-0.1-25.9-7.5-33.9c-6.6-7.2-11.1-7.8-15.2-7.8
			c-0.4,0-0.9,0-1.3,0c-0.7,0-1.4,0-2.1,0c-0.3,0-0.6,0-0.9,0c-9.9,0-20.1,5.5-29.5,15.8C5.6,54.5,3.8,67.3,3,72.7l-0.1,0.6
			C2.1,78.6,1.6,86.7,1.6,87l-0.2,3.7l23.1-10l1.5-0.7l-0.2-1.7c0-0.1-0.6-6,3.8-13.6c3.5-6,10.5-10.9,15.6-10.9
			c1.9,0,3.5,0.6,4.8,2c4.4,4.5,4.3,11.7-0.4,21.8c-3.3,7.1-46.1,87.7-46.5,88.5L0,172l75-33.7v-24.6l-27,11.8
			c5.2-8.9,14.4-25,16.4-29.1L64.9,95.3z"/>
		<path class="st1" d="M152.4,16.6C147.1,2.2,136.1,0,129.9,0c-2.9,0-5.2,0.5-6.1,0.8c-2.1,0.7-40.1,13.3-40.1,13.3l-1.6,0.5v120.1
			l3.2-1.4c1.3-0.6,32.7-14.3,42.3-20.4c6.9-4.4,12.8-10.3,17.2-17.2c5-7.9,7.7-13.8,10.5-27.2C156.7,62,160.5,39,152.4,16.6z
			 M102.9,101.9c0.1-14,0.5-65.3,0.6-69.6c0.2-0.1,0.6-0.3,1.3-0.6l0.4-0.2c14.3-5,17-5.8,17.5-5.9c0.4-0.1,1.4-0.3,2.7-0.3
			c5.1,0,8.6,3.4,10.4,10c3.7,13.7,1.6,24.6,0.6,29.9c-1.1,5.7-2.5,12.8-9.1,21.5c-5.1,6.7-9.1,8.5-12,9.8c-0.5,0.2-1,0.4-1.4,0.6
			C112.5,97.9,107.2,100.2,102.9,101.9z"/>
	</g>
</g>
</svg>
