<?xml version="1.0" encoding="utf-8"?>
<!-- Generator: Adobe Illustrator 22.0.0, SVG Export Plug-In . SVG Version: 6.00 Build 0)  -->
<svg version="1.1" id="Layer_1" xmlns="http://www.w3.org/2000/svg" xmlns:xlink="http://www.w3.org/1999/xlink" x="0px" y="0px"
	 viewBox="0 0 289 275.4" style="enable-background:new 0 0 289 275.4;" xml:space="preserve">
<style type="text/css">
	.st0{fill:#FFFFFF;}
	.st1{fill:#F8991D;}
</style>
<g>
	<g>
		<path class="st0" d="M0,275l4.8-31.5h5.7l4.8,31.5h-4.5l-0.9-6.4H5.3L4.5,275H0z M7.8,253.8L7.7,253H7.4l-0.1,0.8L6,263.7h3.2
			L7.8,253.8z"/>
		<path class="st0" d="M25.6,275l-2.4-13.3h-1.2V275h-4.6v-31.5h4.6c5.5,0,7.9,3.1,7.9,9.1c0,3.1-0.8,5.9-2.6,7.1l3,15.2H25.6z
			 M21.9,257.5c0.6,0,1.5-0.1,2.2-0.7c0.7-0.6,1.2-1.8,1.2-4s-0.6-3.4-1.2-4c-0.7-0.6-1.5-0.6-2.2-0.6V257.5z"/>
		<path class="st0" d="M31.1,248.3v-4.8h13.4v4.8h-4.4V275h-4.6v-26.7H31.1z"/>
		<path class="st0" d="M46.3,243.6h4.6V275h-4.6V243.6z"/>
		<path class="st0" d="M65.3,248.3h-6.4v8.3h4.3v4.8h-4.3V275h-4.6v-31.5h11V248.3z"/>
		<path class="st0" d="M67.2,243.6h4.6V275h-4.6V243.6z"/>
		<path class="st0" d="M87.3,264.2v4.3c0,1.3-0.3,2.4-0.8,3.4c-0.4,0.9-1,1.7-1.8,2.3c-0.9,0.7-2,1.1-3.6,1.1s-2.7-0.4-3.6-1.1
			c-0.9-0.6-1.4-1.5-1.8-2.3c-0.5-1-0.7-2.1-0.8-3.4V250c0-1.2,0.3-2.4,0.8-3.4c0.4-0.9,0.9-1.7,1.8-2.4c0.9-0.6,2.1-1.1,3.6-1.1
			s2.7,0.4,3.6,1.1c0.9,0.6,1.5,1.5,1.8,2.4c0.5,1,0.7,2.1,0.8,3.4v4.3h-4.3V250c0-0.9-0.2-1.5-0.7-2c-0.2-0.2-0.6-0.3-1.1-0.3
			c-0.8,0-1.2,0.6-1.4,1.2c-0.1,0.3-0.2,0.7-0.2,1.2v18.5c0,0.9,0.3,1.5,0.7,2c0.2,0.2,0.5,0.3,0.9,0.3c1,0,1.4-0.5,1.6-1.2
			c0.1-0.3,0.2-0.7,0.2-1.2v-4.3H87.3z"/>
		<path class="st0" d="M90,243.6h4.6V275H90V243.6z"/>
		<path class="st0" d="M96.8,275l4.8-31.5h5.7L112,275h-4.5l-0.9-6.4h-4.5l-0.9,6.4H96.8z M104.6,253.8l-0.1-0.8h-0.3l-0.1,0.8
			l-1.3,9.9h3.2L104.6,253.8z"/>
		<path class="st0" d="M114.1,243.6h4.6v27.2h6.1v4.3h-10.7V243.6z"/>
		<path class="st0" d="M133.3,243.6h4.6V275h-4.6V243.6z"/>
		<path class="st0" d="M146.2,258.6l-0.4-1.5h-0.3V275h-4.2v-31.5h4.1L150,260l0.4,1.5h0.3v-17.8h4.2V275h-4.1L146.2,258.6z"/>
		<path class="st0" d="M156.6,248.3v-4.8H170v4.8h-4.4V275H161v-26.7H156.6z"/>
		<path class="st0" d="M171.8,243.6h10.6v4.8h-5.9v8.3h4.3v5.1h-4.3v8.6h5.9v4.8h-10.6V243.6z"/>
		<path class="st0" d="M184.9,243.6h4.6v27.2h6.1v4.3h-10.7V243.6z"/>
		<path class="st0" d="M197.5,243.6h4.6v27.2h6.1v4.3h-10.7V243.6z"/>
		<path class="st0" d="M210.2,243.6h4.6V275h-4.6V243.6z"/>
		<path class="st0" d="M225.6,254.9V250c0-0.9-0.2-1.5-0.6-2c-0.2-0.2-0.6-0.3-0.9-0.3c-0.8,0-1.2,0.6-1.4,1.2
			c-0.1,0.3-0.2,0.7-0.2,1.2v18.9c0,0.9,0.2,1.5,0.6,2c0.2,0.2,0.5,0.3,0.9,0.3c0.8,0,1.2-0.5,1.4-1.2c0.1-0.3,0.2-0.7,0.2-1.2v-5.7
			h-1.8v-3.9h6.5V275h-2.7l-0.6-1.5c-0.9,1.1-2.1,1.8-3.6,1.8c-1.5,0-2.5-0.4-3.3-1.1c-0.8-0.6-1.3-1.5-1.6-2.3
			c-0.4-1-0.6-2.1-0.5-3.4V250c0-1.2,0.3-2.4,0.8-3.4c0.4-0.9,0.9-1.7,1.8-2.4c0.9-0.6,2.1-1.1,3.6-1.1c1.5,0,2.7,0.4,3.6,1.1
			c0.9,0.6,1.5,1.5,1.8,2.4c0.5,1,0.7,2.1,0.8,3.4v4.8H225.6z"/>
		<path class="st0" d="M233.6,243.6h10.6v4.8h-5.9v8.3h4.3v5.1h-4.3v8.6h5.9v4.8h-10.6V243.6z"/>
		<path class="st0" d="M251.6,258.6l-0.4-1.5H251V275h-4.2v-31.5h4.1l4.5,16.4l0.4,1.5h0.3v-17.8h4.2V275h-4.1L251.6,258.6z"/>
		<path class="st0" d="M275.7,264.2v4.3c0,1.3-0.3,2.4-0.8,3.4c-0.4,0.9-1,1.7-1.8,2.3c-0.9,0.7-2,1.1-3.6,1.1
			c-1.5,0-2.7-0.4-3.6-1.1c-0.9-0.6-1.4-1.5-1.8-2.3c-0.5-1-0.7-2.1-0.8-3.4V250c0-1.2,0.3-2.4,0.8-3.4c0.4-0.9,0.9-1.7,1.8-2.4
			c0.9-0.6,2.1-1.1,3.6-1.1c1.5,0,2.7,0.4,3.6,1.1c0.9,0.6,1.5,1.5,1.8,2.4c0.5,1,0.7,2.1,0.8,3.4v4.3h-4.3V250c0-0.9-0.2-1.5-0.7-2
			c-0.2-0.2-0.6-0.3-1.1-0.3c-0.8,0-1.2,0.6-1.4,1.2c-0.1,0.3-0.2,0.7-0.2,1.2v18.5c0,0.9,0.3,1.5,0.7,2c0.2,0.2,0.5,0.3,0.9,0.3
			c1,0,1.4-0.5,1.6-1.2c0.1-0.3,0.2-0.7,0.2-1.2v-4.3H275.7z"/>
		<path class="st0" d="M278.5,243.6H289v4.8h-5.9v8.3h4.3v5.1h-4.3v8.6h5.9v4.8h-10.6V243.6z"/>
	</g>
	<g>
		<path class="st1" d="M114.6,56.7h-8.2c-2.5,7.1-10.3,10.8-17.4,8.3c-7.1-2.5-10.8-10.3-8.3-17.4c2.5-7.1,10.3-10.8,17.4-8.3
			c3.9,1.4,7,4.4,8.3,8.3h17.3v21h16.3V18.3c0-11.6-2-14.4-10.1-17.2c-8.1-2.8-18.8-0.4-28.3,4.8C92,11.1,87.4,23.8,87.4,23.8
			s-14.1-3.5-27.3,24c-11.8,24.5-3.9,39.9-0.8,43.9h22.6c2.1-7.2,9.7-11.4,16.9-9.2c7.2,2.1,11.4,9.7,9.2,16.9
			c-2.1,7.2-9.7,11.4-16.9,9.2c-4.4-1.3-7.9-4.8-9.2-9.2H57.5c-1.8,5.5-2.7,11.1-2.7,16.9c0,11,5.8,19.1,8.7,21.1
			c2.5,1.7,8.7,5.9,11.6,7.2c0.4,0.2,0.7,0.7,0.5,1.2c0,0.1,0,0.1-0.1,0.2c-2.1,3-6.9,12.5,0.7,21.6c9.9,11.7,20,12.6,22.6,12.3
			c0.3,0,0.6,0.2,0.6,0.5c0.6,2.7,4.7,12.3,17.2,15.6c13.3,3.4,23.4-1.2,23.4-14.5v-60.4h-27.5v17.6c7.2,2.1,11.4,9.7,9.3,16.9
			c-2.1,7.2-9.7,11.4-16.9,9.3c-7.2-2.1-11.4-9.7-9.3-16.9c1.3-4.4,4.8-7.9,9.2-9.2v-25.3h35.2V77.7h-25.3V56.7z"/>
		<path class="st1" d="M228.9,92.6c1.7-1.3,13.2-17.3,0-44.8c-13.2-27.4-27.3-24-27.3-24S197,11.1,187.5,5.9
			c-9.5-5.2-20.2-7.5-28.3-4.8c-8.1,2.7-10.1,5.6-10.1,17.2v30h35.6c2.1-7.2,9.7-11.4,16.9-9.2c7.2,2.1,11.4,9.7,9.2,16.9
			c-2.1,7.2-9.7,11.4-16.9,9.2c-4.4-1.3-7.9-4.8-9.2-9.2h-35.6v90.2h17.7c2.1-7.2,9.7-11.4,16.9-9.2c7.2,2.1,11.4,9.7,9.2,16.9
			c-2.1,7.2-9.7,11.4-16.9,9.2c-4.4-1.3-7.9-4.8-9.2-9.2h-17.7v27.3c0,13.3,10.1,17.9,23.4,14.4c12.6-3.2,16.6-12.9,17.2-15.6
			c0.1-0.3,0.3-0.5,0.6-0.5c2.6,0.3,12.7-0.6,22.6-12.3c7.7-9.1,2.8-18.5,0.7-21.6c-0.1-0.1-0.1-0.2-0.1-0.3
			c-0.1-0.1-0.1-0.2-0.1-0.2l0,0c0,0,0,0,0-0.1l-0.1-0.1c-0.1-0.1-0.1-0.1-0.2-0.2c-0.1-0.1-0.2-0.2-0.3-0.3c0,0-0.1-0.1-0.1-0.1
			c0,0,0,0,0,0l0,0l0,0c-0.2-0.1-0.3-0.3-0.2-0.5h0v-20.7h-37.7v-20.1c-7.2-2.1-11.4-9.7-9.2-16.9c2.1-7.2,9.7-11.4,16.9-9.2
			c7.2,2.1,11.4,9.7,9.2,16.9c-1.3,4.4-4.8,7.9-9.2,9.2v12.4h37.7v25.5c2.2-1.4,4.4-2.9,5.6-3.7c2.9-2,8.7-10.1,8.7-21.1
			c0-11-3.8-21-5.5-22.6C228.3,93.2,228.3,93.1,228.9,92.6z"/>
	</g>
</g>
</svg>
