<svg id="_4_-_Automation_copy" data-name="4 - Automation copy" xmlns="http://www.w3.org/2000/svg" viewBox="0 0 1000 1000"><defs><style>.cls-1{fill:#c6c5c5;}.cls-2{fill:#404041;}.cls-3{fill:#383838;}.cls-4{fill:#fff;}</style></defs><title>ICON04</title><rect class="cls-1" width="1000" height="1000"/><path class="cls-2" d="M911.93,513.35c-20.51-14.31-24.32-19.56-24.32-32.91,0-8.59-2.38-26.71-4.77-41l-4.77-25.28,19.56-20,19.56-20L904.3,340.22l-12.88-33.86H865.67c-28.14,0-25.76,1.91-59.14-42.93C786,236.24,786,235.29,794.6,194.27c2.86-12.88.48-16.22-24.32-35.29l-26.71-21-24.32,11.92-24.32,11.92-39.11-17.17L616.22,128l-8.59-26.23L599,75l-35.29-5.25-35.29-5.25L514.63,87,500.8,109.85l-43.4,5.25L414,120.82l-20-19.56L374.4,82.19,341,95.06c-19.08,8.11-32.91,16.69-33.39,20.51s-1,16.22-1,26.71c-1,18.6-2.86,21-35.29,44.83L236.56,212.4l-25.76-5.25c-13.83-2.86-27.19-4.77-29.09-3.34-1.91,1-12.4,13.83-23.37,28.14l-20.51,26.23L150.71,282l12.88,23.37-12.4,28.14c-23.37,51-22.89,51-49.13,58.67-27.19,7.63-27.19,7.63-32.43,52.94l-3.34,26.71,24.32,14.79c22.42,13.83,24.32,16.69,24.32,32.91,0,10,1.43,29.09,2.86,42,2.86,22.42,1.91,24.8-14.31,41.5-9.54,9.54-17.17,20.51-17.17,24.32,0,3.34,5.25,19.08,11.45,34.82l11.45,28.14,26.23,1.43,25.76,1.43,27.19,35.77,27.19,35.77-7.63,24.8-7.15,24.8,22.42,20c30.53,26.71,35.77,28.14,61.05,14.31l21-11.92L340.06,852c46.74,20,45.79,19.56,52,43.88,2.86,11.45,8.11,22.89,11,24.8,4.29,2.86,17.17,5.72,65.82,14.79,1.43,0,8.59-9.06,15.26-20.51,7.15-11.92,14.31-22.42,16.22-23.85,2.39-1.43,21.94-4.77,43.88-7.15l40.06-5.25,19.56,19.08,20,19.56,33.39-12.4,33.39-12.4,2.86-29.09c1.43-18.6,5.25-30.53,9.54-33.39,4.29-1.91,19.56-13.35,34.82-24.8L765,784.74l21.46,6.2c11.92,3.82,23.85,6.68,26.71,6.68s15.26-12.4,27.19-27.66l21.94-27.66L850.41,718l-11.92-24.32,17.17-39.59L872.82,614l26.23-6.68,25.76-7.15,3.34-26.23c1.43-14.79,3.82-30.53,5.25-34.82C935.3,533.39,928.63,525.76,911.93,513.35ZM777,640.23C749.29,697,696.35,749.45,639.59,777.11,570.91,810.5,503.66,819.56,434.5,804.3c-41-8.59-100.64-38.16-135.93-66.77-32.43-27.19-72.5-83.47-88.24-124-18.12-47.7-25.76-103.5-20-145,16.22-114,74.41-198.41,169.32-245.16,59.14-29.09,98.25-38.16,156-34.82,81.08,4.77,145.95,34.34,205.57,93.48,59.62,59.62,90.14,133.55,90.14,217.49C811.29,552.94,802.71,587.76,777,640.23Z"/><g id="RING"><path class="cls-2" d="M0,0V1000H1000V0H0ZM500.5,993C228.5,993,8,772.5,8,500.5S228.5,8,500.5,8,993,228.5,993,500.5,772.5,993,500.5,993Z"/></g><g id="Layer_3_copy_11" data-name="Layer 3 copy 11"><rect class="cls-3" x="37" y="821" width="926" height="144" rx="12" ry="12"/><path class="cls-1" d="M951,970H49a17,17,0,0,1-17-17V833a17,17,0,0,1,17-17H951a17,17,0,0,1,17,17V953A17,17,0,0,1,951,970ZM49,826a7,7,0,0,0-7,7V953a7,7,0,0,0,7,7H951a7,7,0,0,0,7-7V833a7,7,0,0,0-7-7H49Z"/><path class="cls-4" d="M256.61,902.15l-7.35,22.26h-9.45l24-70.77h11L299,924.41h-9.76l-7.56-22.26H256.61Zm23.2-7.14-6.93-20.37c-1.58-4.62-2.62-8.82-3.67-12.92H269c-1,4.2-2.2,8.5-3.57,12.81L258.5,895h21.31Z"/><path class="cls-4" d="M350.38,910.55c0,5.25.1,9.87,0.42,13.86h-8.19l-0.53-8.29h-0.21a19.12,19.12,0,0,1-16.8,9.45c-8,0-17.53-4.41-17.53-22.26V873.59h9.24v28.14c0,9.66,2.94,16.17,11.34,16.17a13.36,13.36,0,0,0,12.18-8.4,13.51,13.51,0,0,0,.84-4.72V873.59h9.24v37Z"/><path class="cls-4" d="M376.84,859v14.59h13.23v7H376.84V908c0,6.3,1.78,9.87,6.93,9.87a20.58,20.58,0,0,0,5.35-.63l0.42,6.93a22.61,22.61,0,0,1-8.19,1.26c-4.3,0-7.77-1.37-10-3.88-2.62-2.73-3.57-7.25-3.57-13.23V880.62h-7.87v-7h7.87V861.41Z"/><path class="cls-4" d="M445.82,898.58c0,18.79-13,27-25.3,27-13.75,0-24.36-10.08-24.36-26.14,0-17,11.13-27,25.2-27C435.95,872.43,445.82,883,445.82,898.58Zm-40.32.53c0,11.13,6.4,19.53,15.43,19.53,8.82,0,15.43-8.29,15.43-19.74,0-8.61-4.3-19.53-15.22-19.53S405.5,889.44,405.5,899.1Z"/><path class="cls-4" d="M457.48,887.34c0-5.25-.1-9.55-0.42-13.75h8.08l0.42,8.19h0.31c2.83-4.83,7.56-9.34,16-9.34a15,15,0,0,1,14.38,10.18h0.21A20.93,20.93,0,0,1,502.1,876a17.34,17.34,0,0,1,11.23-3.57c6.72,0,16.69,4.41,16.69,22v29.92h-9V895.64c0-9.76-3.57-15.64-11-15.64-5.25,0-9.34,3.88-10.92,8.4a15.22,15.22,0,0,0-.74,4.62v31.39h-9V894c0-8.08-3.57-14-10.6-14-5.77,0-10,4.62-11.44,9.24a12.74,12.74,0,0,0-.73,4.51v30.66h-9V887.34Z"/><path class="cls-4" d="M573.18,924.41l-0.74-6.4h-0.31a18.93,18.93,0,0,1-15.54,7.56c-10.29,0-15.54-7.25-15.54-14.59,0-12.28,10.92-19,30.55-18.9v-1c0-4.2-1.15-11.76-11.55-11.76A25.33,25.33,0,0,0,546.83,883l-2.1-6.09a31.54,31.54,0,0,1,16.69-4.51c15.54,0,19.32,10.6,19.32,20.79v19a71.56,71.56,0,0,0,.84,12.18h-8.4Zm-1.37-25.93c-10.08-.21-21.52,1.57-21.52,11.44,0,6,4,8.82,8.71,8.82a12.64,12.64,0,0,0,12.29-8.5,9.65,9.65,0,0,0,.52-2.94v-8.82Z"/><path class="cls-4" d="M606.37,859v14.59h13.23v7H606.37V908c0,6.3,1.79,9.87,6.93,9.87a20.58,20.58,0,0,0,5.35-.63l0.42,6.93a22.61,22.61,0,0,1-8.19,1.26c-4.3,0-7.77-1.37-10-3.88-2.62-2.73-3.57-7.25-3.57-13.23V880.62h-7.87v-7h7.88V861.41Z"/><path class="cls-4" d="M640.28,859.31c0.11,3.15-2.21,5.67-5.88,5.67a5.49,5.49,0,0,1-5.57-5.67,5.63,5.63,0,0,1,5.77-5.77A5.48,5.48,0,0,1,640.28,859.31ZM630,924.41V873.59h9.24v50.82H630Z"/><path class="cls-4" d="M700.55,898.58c0,18.79-13,27-25.3,27-13.75,0-24.36-10.08-24.36-26.14,0-17,11.13-27,25.2-27C690.68,872.43,700.55,883,700.55,898.58Zm-40.32.53c0,11.13,6.41,19.53,15.44,19.53,8.82,0,15.43-8.29,15.43-19.74,0-8.61-4.3-19.53-15.22-19.53S660.23,889.44,660.23,899.1Z"/><path class="cls-4" d="M712.2,887.34c0-5.25-.1-9.55-0.42-13.75H720l0.52,8.4h0.21a18.68,18.68,0,0,1,16.8-9.55c7,0,18,4.2,18,21.63v30.34h-9.24V895.11c0-8.19-3-15-11.76-15a13.13,13.13,0,0,0-12.39,9.45,13.28,13.28,0,0,0-.63,4.3v30.55H712.2V887.34Z"/></g></svg>