<?xml version="1.0" encoding="utf-8"?>
<!-- Generator: Adobe Illustrator 19.2.1, SVG Export Plug-In . SVG Version: 6.00 Build 0)  -->
<svg version="1.1" id="Layer_2" xmlns="http://www.w3.org/2000/svg" xmlns:xlink="http://www.w3.org/1999/xlink" x="0px" y="0px"
	 viewBox="0 0 1001 1001" style="enable-background:new 0 0 1001 1001;" xml:space="preserve">
<style type="text/css">
	.st0{fill:#C6C5C5;stroke:#000000;stroke-width:5;stroke-miterlimit:10;}
	.st1{fill:#292929;}
	.st2{fill:#231F20;}
	.st3{fill:#C6C5C5;}
	.st4{fill:none;stroke:#C6C5C5;stroke-width:5;stroke-miterlimit:10;}
</style>
<g>
	<rect x="1" y="-2" class="st0" width="1000" height="1000"/>
	<g>
		<polygon class="st1" points="345.8,546 434.9,546 390.4,417.6 		"/>
		<path class="st1" d="M837.3,282.7c-3.8,0.4-7.7,0.6-11.6,0.6c-55.2,0-100.5-42.8-104.3-97.1c-66.9-0.1-427.1-0.2-431.1-0.2
			c-33.5,0-65.2,13.1-89.1,37c-23.9,23.9-37.2,55.4-37.2,88.9v373.7c0,33.5,13.3,64.8,37.1,88.6c23.9,23.9,55.6,36.7,89.1,36.7
			h424.4c33.5,0,65.3-12.9,89.1-36.7c23.9-23.9,37.2-55.2,37.2-88.6V311.9C841,302.1,839.6,292.2,837.3,282.7z M700.5,661l-65.7-135
			H585v135H471.1l-19-59H329.1l-21.4,59h-70.6l127.3-344h50.3L518,594.7V317c0,0,105.5,0,149,0c43.9,0,96,30.3,96,81s0,11,0,49.2
			c0,28-19.1,54.4-59,65.4c10.8,23.2,73.3,148.4,73.3,148.4H700.5z"/>
		<path class="st1" d="M653.3,374c-13.7,0-70.3,0-70.3,0v96h75.8c38.8,0,41.2-27.9,41.2-34.1s0-4.9,0-25.1
			C700,384.8,684.8,374,653.3,374z"/>
	</g>
	<path class="st2" d="M1-2V998h1000V-2H1z M501.5,991C229.5,991,9,770.5,9,498.5S229.5,6,501.5,6S994,226.5,994,498.5
		S773.5,991,501.5,991z"/>
	<circle class="st3" cx="832.2" cy="172.7" r="110.2"/>
	<path class="st1" d="M939.4,172.7c0-58.9-47.8-106.7-106.7-106.7c-56.5,0-102.7,43.9-106.4,99.5c-60.8-0.1-345.7-0.2-439.9-0.2
		c-38.1,0-74.1,15-101.3,42.1C158,234.5,143,270.5,143,308.6V690c0,38.1,15,74.1,42.1,101.3c27.2,27.2,63.1,42.1,101.3,42.1h433.1
		c38.1,0,74.1-15,101.3-42.1c27.2-27.2,42.1-63.1,42.1-101.3V308.6c0-11-1.3-21.9-3.8-32.5C905.2,264.3,939.4,222.5,939.4,172.7z
		 M848,308.6V690c0,34.2-13.4,66.4-37.8,90.8c-24.3,24.3-56.6,37.8-90.8,37.8H286.4c-34.2,0-66.4-13.4-90.8-37.8
		c-24.3-24.3-37.8-56.6-37.8-90.8V308.6c0-34.2,13.4-66.4,37.8-90.8c24.3-24.3,56.6-37.8,90.7-37.8c4.1,0,371.6,0.1,439.9,0.2
		c3.9,55.4,50.1,99,106.4,99c4,0,7.9-0.2,11.8-0.6C846.8,288.5,848,298.5,848,308.6z M905.4,190.9c0,0.7-0.6,1.3-1.3,1.3h-50.9
		c-0.7,0-1.3,0.6-1.3,1.3v50.5c0,0.7-0.6,1.3-1.3,1.3h-35.2c-0.7,0-1.3-0.6-1.3-1.3v-50.7c0-0.7-0.6-1.3-1.3-1.3h-52.7
		c-0.7,0-1.3-0.6-1.3-1.3v-35.2c0-0.7,0.6-1.3,1.3-1.3l52.7,0.4c0.7,0,1.3-0.6,1.3-1.3v-48.7c0-0.7,0.6-1.3,1.3-1.3h36.8
		c0.7,0,1.3,0.6,1.3,1.3v48.7c0,0.7,0.6,1.3,1.3,1.3h49.4c0.7,0,1.3,0.6,1.3,1.3V190.9z"/>
	<circle class="st4" cx="833.2" cy="171.7" r="110.2"/>
</g>
</svg>
