<svg id="_8_-_Artificial_Intelligence_copy" data-name="8 - Artificial Intelligence copy" xmlns="http://www.w3.org/2000/svg" viewBox="0 0 1000 1000"><defs><style>.cls-1,.cls-4{fill:#c6c5c5;}.cls-1{stroke:#000;stroke-miterlimit:10;}.cls-2{fill:#404041;}.cls-3{fill:#383838;}.cls-5{fill:#fff;}</style></defs><title>ICON08</title><rect class="cls-1" y="0.5" width="1000" height="1000"/><path class="cls-2" d="M373.62,325.19H337.34a60,60,0,1,1,0-39.82h76.09v92.45H485V156.33c0-50.83-8.9-63.48-44.48-75.58S357.94,78.82,316,101.69s-62.26,78.78-62.26,78.78-62-15.25-120,105.48c-51.81,108-17.08,175.65-3.68,193h99.36a60,60,0,1,1,0,33.89H122.22a243,243,0,0,0-12.09,74.29c0,48.29,25.42,83.87,38.13,92.76,10.9,7.63,38.38,25.93,51,31.46a3.88,3.88,0,0,1,1.65,5.76c-9.18,13.39-30.43,55,3.25,94.95,43.36,51.43,88,55.39,99.24,54a2.55,2.55,0,0,1,2.79,2c2.67,11.9,20.46,54.32,75.88,68.6,58.37,15,102.93-5.08,102.93-63.54V607.35H364v77.44a60,60,0,1,1-33.89.06V573.46H485V417.64H373.62V325.19Z"/><path class="cls-2" d="M876.51,483c7.66-5.91,57.94-76.3,0-197s-120-105.48-120-105.48-20.33-55.91-62.27-78.78-89-33-124.53-20.94-44.48,24.76-44.48,75.58v132H681.89a60,60,0,1,1,0,33.89H525.26V719.13h78.1a60,60,0,1,1,0,33.89h-78.1v120c0,58.46,44.56,78.59,102.94,63.54,55.41-14.28,73.2-56.7,75.87-68.6a2.55,2.55,0,0,1,2.8-2c11.29,1.44,55.88-2.52,99.24-54,33.68-40,12.43-81.55,3.25-94.95a3.84,3.84,0,0,1-.53-1.13,5.42,5.42,0,0,1-.57-1.07l0,0a0.75,0.75,0,0,1-.15-0.23l-0.24-.28a12.11,12.11,0,0,1-.89-0.85c-0.46-.48-0.91-1-1.36-1.48-0.21-.22-0.41-0.45-0.63-0.66-0.06-.06-0.14-0.12-0.2-0.19h0l-0.12-.11a1.93,1.93,0,0,1-1-2h-0.08V618H637.66V529.35a60,60,0,1,1,33.89,0v54.75h165.9V696.22c9.71-6.16,19.16-12.55,24.56-16.33,12.71-8.9,38.13-44.47,38.13-92.76s-16.67-92.46-24.24-99.47C873.87,485.78,873.76,485.11,876.51,483Z"/><g id="RING"><path class="cls-2" d="M0,0V1000H1000V0H0ZM500.5,993C228.5,993,8,772.5,8,500.5S228.5,8,500.5,8,993,228.5,993,500.5,772.5,993,500.5,993Z"/></g><g id="Layer_3_copy_15" data-name="Layer 3 copy 15"><rect class="cls-3" x="37" y="821" width="926" height="144" rx="12" ry="12"/><path class="cls-4" d="M951,970H49a17,17,0,0,1-17-17V833a17,17,0,0,1,17-17H951a17,17,0,0,1,17,17V953A17,17,0,0,1,951,970ZM49,826a7,7,0,0,0-7,7V953a7,7,0,0,0,7,7H951a7,7,0,0,0,7-7V833a7,7,0,0,0-7-7H49Z"/><path class="cls-5" d="M70.56,902.15l-7.35,22.26H53.76l24-70.77h11L113,924.41h-9.76l-7.56-22.26H70.56ZM93.76,895l-6.93-20.37c-1.58-4.62-2.62-8.82-3.67-12.92H82.95c-1,4.2-2.2,8.5-3.57,12.81L72.45,895H93.76Z"/><path class="cls-5" d="M122.74,889.44c0-6-.1-11.13-0.42-15.85h8.08l0.31,10h0.42c2.31-6.82,7.87-11.13,14.07-11.13a10,10,0,0,1,2.63.31v8.71a13.89,13.89,0,0,0-3.15-.31c-6.51,0-11.13,4.93-12.39,11.86a26,26,0,0,0-.42,4.3v27.09h-9.13v-35Z"/><path class="cls-5" d="M170.73,859v14.59H184v7H170.73V908c0,6.3,1.78,9.87,6.93,9.87a20.58,20.58,0,0,0,5.35-.63l0.42,6.93a22.61,22.61,0,0,1-8.19,1.26c-4.3,0-7.77-1.37-10-3.88-2.62-2.73-3.57-7.25-3.57-13.23V880.62h-7.87v-7h7.87V861.41Z"/><path class="cls-5" d="M204.64,859.31c0.1,3.15-2.2,5.67-5.88,5.67a5.49,5.49,0,0,1-5.56-5.67,5.63,5.63,0,0,1,5.77-5.77A5.48,5.48,0,0,1,204.64,859.31Zm-10.29,65.1V873.59h9.24v50.82h-9.24Z"/><path class="cls-5" d="M219.86,924.41V880.62h-7.14v-7h7.14v-2.73c0-13.44,7.87-22.15,22.15-22.15,4.73,0,10.29,1.47,12.91,3.36l-2.62,7a19.43,19.43,0,0,0-10.71-2.94c-9.76,0-12.6,6.82-12.6,14.91v2.52h29.5v50.82h-9.13V880.62H229v43.78h-9.13Z"/><path class="cls-5" d="M310.06,922.52a34,34,0,0,1-14.59,2.94c-15.33,0-25.3-10.39-25.3-25.93s10.71-27,27.3-27a30.89,30.89,0,0,1,12.81,2.63l-2.1,7.14a21.43,21.43,0,0,0-10.71-2.42c-11.65,0-18,8.61-18,19.21,0,11.76,7.56,19,17.64,19a26.26,26.26,0,0,0,11.34-2.52Z"/><path class="cls-5" d="M331.16,859.31c0.1,3.15-2.2,5.67-5.88,5.67a5.49,5.49,0,0,1-5.56-5.67,5.63,5.63,0,0,1,5.77-5.77A5.48,5.48,0,0,1,331.16,859.31Zm-10.29,65.1V873.59h9.24v50.82h-9.24Z"/><path class="cls-5" d="M373.58,924.41l-0.74-6.4h-0.31A18.93,18.93,0,0,1,357,925.56c-10.29,0-15.54-7.25-15.54-14.59,0-12.28,10.92-19,30.55-18.9v-1c0-4.2-1.15-11.76-11.55-11.76A25.32,25.32,0,0,0,347.23,883l-2.1-6.09a31.54,31.54,0,0,1,16.69-4.51c15.54,0,19.32,10.6,19.32,20.79v19a71.56,71.56,0,0,0,.84,12.18h-8.4Zm-1.37-25.93c-10.08-.21-21.52,1.57-21.52,11.44,0,6,4,8.82,8.71,8.82a12.64,12.64,0,0,0,12.28-8.5,9.64,9.64,0,0,0,.52-2.94v-8.82Z"/><path class="cls-5" d="M396.05,849.86h9.24v74.55h-9.24V849.86Z"/><path class="cls-5" d="M452.54,853.64v70.77H443.4V853.64h9.13Z"/><path class="cls-5" d="M469.23,887.34c0-5.25-.1-9.55-0.42-13.75H477l0.52,8.4h0.21a18.69,18.69,0,0,1,16.8-9.55c7,0,18,4.2,18,21.63v30.34h-9.24V895.11c0-8.19-3-15-11.76-15a13.13,13.13,0,0,0-12.39,9.45,13.28,13.28,0,0,0-.63,4.3v30.55h-9.24V887.34Z"/><path class="cls-5" d="M538.22,859v14.59h13.23v7H538.22V908c0,6.3,1.79,9.87,6.93,9.87a20.58,20.58,0,0,0,5.35-.63l0.42,6.93a22.61,22.61,0,0,1-8.19,1.26c-4.3,0-7.77-1.37-10-3.88-2.62-2.73-3.57-7.25-3.57-13.23V880.62h-7.87v-7h7.88V861.41Z"/><path class="cls-5" d="M566.36,900.68c0.21,12.5,8.19,17.64,17.43,17.64a33.42,33.42,0,0,0,14.07-2.62l1.57,6.62c-3.25,1.47-8.82,3.15-16.9,3.15-15.64,0-25-10.29-25-25.62s9-27.4,23.83-27.4c16.59,0,21,14.59,21,23.94a34.71,34.71,0,0,1-.32,4.3h-35.7Zm27.09-6.61c0.11-5.88-2.42-15-12.81-15-9.34,0-13.44,8.61-14.17,15h27Z"/><path class="cls-5" d="M613.82,849.86h9.24v74.55h-9.24V849.86Z"/><path class="cls-5" d="M638.6,849.86h9.24v74.55H638.6V849.86Z"/><path class="cls-5" d="M673.67,859.31c0.1,3.15-2.21,5.67-5.88,5.67a5.49,5.49,0,0,1-5.57-5.67,5.63,5.63,0,0,1,5.78-5.77A5.48,5.48,0,0,1,673.67,859.31Zm-10.29,65.1V873.59h9.24v50.82h-9.24Z"/><path class="cls-5" d="M731.73,873.59c-0.21,3.67-.42,7.77-0.42,14v29.5c0,11.65-2.31,18.79-7.24,23.2-4.94,4.62-12.08,6.09-18.48,6.09-6.09,0-12.81-1.47-16.9-4.2l2.31-7a28.66,28.66,0,0,0,14.91,4c9.45,0,16.38-4.93,16.38-17.74v-5.67h-0.21c-2.83,4.72-8.29,8.5-16.17,8.5-12.6,0-21.63-10.71-21.63-24.78,0-17.22,11.24-27,22.89-27,8.82,0,13.65,4.62,15.85,8.82h0.21l0.42-7.67h8.08Zm-9.55,20.05a13.16,13.16,0,0,0-.53-4.2c-1.68-5.35-6.19-9.76-12.91-9.76-8.82,0-15.12,7.46-15.12,19.21,0,10,5,18.27,15,18.27a13.51,13.51,0,0,0,12.81-9.45,16.09,16.09,0,0,0,.73-4.93v-9.13Z"/><path class="cls-5" d="M751.78,900.68c0.21,12.5,8.19,17.64,17.43,17.64a33.42,33.42,0,0,0,14.07-2.62l1.57,6.62c-3.25,1.47-8.82,3.15-16.9,3.15-15.64,0-25-10.29-25-25.62s9-27.4,23.83-27.4c16.59,0,21,14.59,21,23.94a34.71,34.71,0,0,1-.32,4.3h-35.7Zm27.09-6.61c0.11-5.88-2.42-15-12.81-15-9.34,0-13.44,8.61-14.17,15h27Z"/><path class="cls-5" d="M799.24,887.34c0-5.25-.1-9.55-0.42-13.75H807l0.52,8.4h0.21a18.69,18.69,0,0,1,16.8-9.55c7,0,18,4.2,18,21.63v30.34h-9.24V895.11c0-8.19-3-15-11.76-15a13.13,13.13,0,0,0-12.39,9.45,13.28,13.28,0,0,0-.63,4.3v30.55h-9.24V887.34Z"/><path class="cls-5" d="M893.74,922.52a34,34,0,0,1-14.59,2.94c-15.33,0-25.3-10.39-25.3-25.93s10.71-27,27.3-27A30.89,30.89,0,0,1,894,875.16l-2.1,7.14a21.43,21.43,0,0,0-10.71-2.42c-11.66,0-18,8.61-18,19.21,0,11.76,7.56,19,17.64,19a26.26,26.26,0,0,0,11.34-2.52Z"/><path class="cls-5" d="M909.07,900.68c0.21,12.5,8.19,17.64,17.43,17.64a33.42,33.42,0,0,0,14.07-2.62l1.57,6.62c-3.25,1.47-8.82,3.15-16.9,3.15-15.64,0-25-10.29-25-25.62s9-27.4,23.83-27.4c16.59,0,21,14.59,21,23.94a34.71,34.71,0,0,1-.32,4.3h-35.7Zm27.09-6.61c0.1-5.88-2.42-15-12.81-15-9.34,0-13.44,8.61-14.17,15h27Z"/></g></svg>