<svg id="_1_-_Digital_Art_copy" data-name="1 - Digital Art copy" xmlns="http://www.w3.org/2000/svg" viewBox="0 0 1000 1000"><defs><style>.cls-1{fill:#c6c5c5;}.cls-2{fill:#404041;}.cls-3{fill:#383838;}.cls-4{fill:#fff;}</style></defs><title>ICON01</title><rect class="cls-1" x="0.51" width="997.98" height="1000"/><path class="cls-2" d="M0,0V1000H1000V0H0ZM552.56,990.32c-312.88,32.09-574-229-541.88-541.88C33,231.07,231.07,33,448.44,10.68c312.88-32.09,574,229,541.88,541.88C968,769.93,769.93,968,552.56,990.32Z"/><g id="COMPUTER"><path class="cls-2" d="M486.29,303.32c17.19-19.57,77.62-75.65,109.85-100s57.32-34.71,79.92-54.6c26.33-23.17,41.11-46,56.9-36.84S719.16,150,709.29,162.54s-40.13,63.15-50.65,80.91S572.47,348,556,364.49s-115.12,94.07-119.72,98-4.6,4.6-9.87,0S400.12,436,396.18,432.25c-3.62-3.47-5.15-6.56,0-13.16C408.4,403.43,456.69,337,486.29,303.32Z"/><path class="cls-2" d="M877.85,745.39c-5.92-9.21-42.37-62.09-52-75.29-9.23-12.69-14.93-4.9-13.28-10,2-6.25,1.37-20.62,1.84-24.09a9,9,0,0,0,.09-1.29c-0.09-17.13-2-366.9-2-398.35,0-20.83-19.05-25-28.94-25-10.71,0-56.68-.1-68.17-0.1-7.64,0-9.45,5.31-9.45,5.31-1.83,3.15-8.55,14.43-12.37,20.89-2.51,4.26-1.24,7,3.7,7h82.89s5.22,376.14,5.22,388.31c0,7.59,1.69,27.1,1.69,27.1H631s-410.31-7.28-426.26-7.4c-8.4-.06-14.83-12.21-16.4-15.48a3.74,3.74,0,0,1-.37-1.63V258.75c0-10.2,2.63-12.8,8.88-12.8s42.43-.52,42.43-0.52H510c6,0,8.05-4.54,10.85-7,12.37-10.82,16.38-18.22,26.09-27.55H219.75c-27.63,0-44.26,1.29-54,7.51-7.75,5-12.35,18.61-12.35,27.81V436.85c0,38.15,5.47,182,5.92,187,3,33.05,14.12,33,13.63,36.31s-6.28,2.37-20.86,20.22c-6.72,8.23-24.79,36.19-31.9,44.85-4.44,5.4-16.45,27.71-6.58,41.36,12.83,17.75,39.8,22.53,39.8,22.53h694C873.09,789.11,883.78,754.6,877.85,745.39Zm-83-28.45H610.29c-10.36,0-12.33,4.32-9.87,6.79s6.91,12.21-1.48,12.21H405.06c-10.36,0-19.24-5.34-18.25-11.26s4.93-12.74,4.93-12.74H200.81s-23.19,4-21.71-2.86a39.09,39.09,0,0,1,5.67-12.78c3-5.92,11-18.48,30.71-18.48s528.94-1.1,547.69-.6,21.74-.19,27.66,9.25,10.87,15.51,11.86,17S811.09,716.94,794.81,716.94Z"/><path class="cls-2" d="M390.37,443.86a10.59,10.59,0,0,1,3.06,2c4.4,4,17.87,16.59,21,19.87a19.32,19.32,0,0,1,5.92,12.08c0.49,5.92,2,29.11-5.43,43.42s-15.29,28.61-36.51,39.47-50.32,13.81-68.58,25.65-19.73,29.6-23.19,30.59-18.75-48.35-15.79-88.31,27.63-68.08,54.76-77C351.39,443.22,378,438.79,390.37,443.86Z"/></g><g id="Layer_3_copy_8" data-name="Layer 3 copy 8"><rect class="cls-3" x="37" y="821" width="926" height="144" rx="12" ry="12"/><path class="cls-1" d="M951,970H49a17,17,0,0,1-17-17V833a17,17,0,0,1,17-17H951a17,17,0,0,1,17,17V953A17,17,0,0,1,951,970ZM49,826a7,7,0,0,0-7,7V953a7,7,0,0,0,7,7H951a7,7,0,0,0,7-7V833a7,7,0,0,0-7-7H49Z"/><path class="cls-4" d="M285.44,854.58a130.86,130.86,0,0,1,19.42-1.47c13.12,0,22.47,3,28.66,8.82s10,14,10,25.41-3.57,21-10.18,27.51S315.78,925,302,925a147.35,147.35,0,0,1-16.59-.84V854.58Zm9.13,62.58a57.69,57.69,0,0,0,9.24.53c19.53,0,30.13-10.92,30.13-30,0.1-16.69-9.34-27.3-28.66-27.3a51.94,51.94,0,0,0-10.71.95v55.86Z"/><path class="cls-4" d="M365.34,859.31c0.1,3.15-2.2,5.67-5.88,5.67a5.49,5.49,0,0,1-5.56-5.67,5.63,5.63,0,0,1,5.77-5.77A5.48,5.48,0,0,1,365.34,859.31ZM355,924.41V873.59h9.24v50.82H355Z"/><path class="cls-4" d="M423.4,873.59c-0.21,3.67-.42,7.77-0.42,14v29.5c0,11.65-2.31,18.79-7.24,23.2-4.93,4.62-12.07,6.09-18.48,6.09-6.09,0-12.81-1.47-16.9-4.2l2.31-7a28.66,28.66,0,0,0,14.91,4c9.45,0,16.38-4.93,16.38-17.74v-5.67h-0.21c-2.83,4.72-8.29,8.5-16.17,8.5-12.6,0-21.63-10.71-21.63-24.78,0-17.22,11.23-27,22.89-27,8.82,0,13.65,4.62,15.85,8.82h0.21l0.42-7.67h8.08Zm-9.55,20.05a13.16,13.16,0,0,0-.52-4.2c-1.68-5.35-6.19-9.76-12.91-9.76-8.82,0-15.12,7.46-15.12,19.21,0,10,5,18.27,15,18.27a13.51,13.51,0,0,0,12.81-9.45,16.08,16.08,0,0,0,.73-4.93v-9.13Z"/><path class="cls-4" d="M448,859.31c0.1,3.15-2.2,5.67-5.88,5.67a5.49,5.49,0,0,1-5.56-5.67,5.63,5.63,0,0,1,5.77-5.77A5.48,5.48,0,0,1,448,859.31Zm-10.29,65.1V873.59h9.24v50.82h-9.24Z"/><path class="cls-4" d="M473.38,859v14.59h13.23v7H473.38V908c0,6.3,1.78,9.87,6.93,9.87a20.58,20.58,0,0,0,5.35-.63l0.42,6.93a22.61,22.61,0,0,1-8.19,1.26c-4.3,0-7.77-1.37-10-3.88-2.62-2.73-3.57-7.25-3.57-13.23V880.62h-7.87v-7h7.87V861.41Z"/><path class="cls-4" d="M525.15,924.41l-0.74-6.4H524.1a18.93,18.93,0,0,1-15.54,7.56c-10.29,0-15.54-7.25-15.54-14.59,0-12.28,10.92-19,30.55-18.9v-1c0-4.2-1.15-11.76-11.55-11.76A25.32,25.32,0,0,0,498.79,883l-2.1-6.09a31.54,31.54,0,0,1,16.69-4.51c15.54,0,19.32,10.6,19.32,20.79v19a71.66,71.66,0,0,0,.84,12.18h-8.4Zm-1.37-25.93c-10.08-.21-21.52,1.57-21.52,11.44,0,6,4,8.82,8.71,8.82a12.64,12.64,0,0,0,12.29-8.5,9.65,9.65,0,0,0,.53-2.94v-8.82Z"/><path class="cls-4" d="M547.62,849.86h9.24v74.55h-9.24V849.86Z"/><path class="cls-4" d="M606.41,902.15l-7.35,22.26h-9.45l24-70.77h11l24.15,70.77h-9.76l-7.56-22.26H606.41Zm23.2-7.14-6.93-20.37c-1.57-4.62-2.62-8.82-3.67-12.92H618.8c-1,4.2-2.2,8.5-3.57,12.81L608.3,895h21.31Z"/><path class="cls-4" d="M658.6,889.44c0-6-.11-11.13-0.42-15.85h8.08l0.31,10H667c2.31-6.82,7.88-11.13,14.07-11.13a10,10,0,0,1,2.63.31v8.71a13.89,13.89,0,0,0-3.15-.31c-6.51,0-11.13,4.93-12.39,11.86a25.9,25.9,0,0,0-.42,4.3v27.09H658.6v-35Z"/><path class="cls-4" d="M706.58,859v14.59h13.23v7H706.58V908c0,6.3,1.79,9.87,6.93,9.87a20.57,20.57,0,0,0,5.36-.63l0.42,6.93a22.61,22.61,0,0,1-8.19,1.26c-4.3,0-7.77-1.37-10-3.88-2.62-2.73-3.57-7.25-3.57-13.23V880.62h-7.87v-7h7.88V861.41Z"/></g></svg>