<svg id="_5_-_Mobile_Apps_copy" data-name="5 - Mobile Apps copy" xmlns="http://www.w3.org/2000/svg" viewBox="0 0 1000 1000"><defs><style>.cls-1{fill:#c6c6c6;stroke:#000;stroke-miterlimit:10;}.cls-2{fill:#292929;}.cls-3{fill:#8c8f92;}.cls-4{fill:#b5bdc4;}.cls-5{fill:#e3e9ee;}.cls-6{fill:#5c6a71;}.cls-7{fill:#bababa;}.cls-8{fill:#404041;}.cls-9{fill:#383838;}.cls-10{fill:#c6c5c5;}.cls-11{fill:#fff;}</style></defs><title>ICON05</title><rect class="cls-1" width="1000" height="1000"/><g id="Layer_16" data-name="Layer 16"><path class="cls-2" d="M364.15,75.9H635.82A53.19,53.19,0,0,1,689,129.13V739.25a53.19,53.19,0,0,1-53.23,53.23H364.15a53.19,53.19,0,0,1-53.23-53.23V129.13A53.19,53.19,0,0,1,364.15,75.9Z"/><rect class="cls-3" x="326.7" y="166.67" width="345.93" height="538.26"/><circle class="cls-3" cx="501.23" cy="107.91" r="9.87"/><path class="cls-3" d="M460.37,128.2h81.45a6.18,6.18,0,0,1,6.18,6.18h0a6.18,6.18,0,0,1-6.18,6.18H460.37a6.18,6.18,0,0,1-6.18-6.18h0A6.18,6.18,0,0,1,460.37,128.2Z"/><circle class="cls-3" cx="500.68" cy="745.34" r="32.01"/><circle class="cls-4" cx="505.84" cy="484.56" r="57.47"/><path class="cls-4" d="M505.11,401.35a82.75,82.75,0,1,0,82.75,82.75,82.73,82.73,0,0,0-82.75-82.75h0Zm0,159.31a76.57,76.57,0,1,1,76.57-76.57,76.61,76.61,0,0,1-76.57,76.57h0Z"/><path class="cls-5" d="M121.17,780.95l35.05-52.3s-2.49-40.59,11.07-62.73,70.11-105.81,77.49-115.59,25.18-22.14,37.54-16,16.6,12.91,9.22,24-22.14,26.47-19.65,28.32,13.38-8,23.34-20.29,26.47-23.34,39.39-14.76,12.91,16.6,5.53,27.67-20.29,32.56-21.49,35.05,1.2,4.34,7.38-3.69,19.1-26.47,24.63-32.56,15.41-18.45,32-10.42,14.76,15.41,9.22,24S369.78,626.06,367.29,631s0,8,5.53,1.2S475.4,485.75,482.23,476.53s16.6-24.08,35.7-14.76,18.45,17.9,10.42,33.21-155.62,220.84-160,226.37,0.65,8,6.73,1.2,38.74-54.15,52.3-61.53,20.94-4.34,26.47-1.2,16.6,9.87,6.73,19.65-35.7,33.85-52.86,50.46-44.28,40.59-58.39,51-28.87,16.6-41.79,22.14S271.35,816,271.35,816l-27.67,43.63Z"/><polygon class="cls-6" points="238.97 884.26 98.3 786.02 107.06 773.57 252.35 867.47 238.97 884.26"/><polygon class="cls-7" points="246.81 890.26 235.75 910 34 910 34 862.03 88.61 777.72 246.81 890.26"/></g><g id="RING"><path class="cls-8" d="M0,0V1000H1000V0H0ZM500.5,993C228.5,993,8,772.5,8,500.5S228.5,8,500.5,8,993,228.5,993,500.5,772.5,993,500.5,993Z"/></g><g id="Layer_3_copy_12" data-name="Layer 3 copy 12"><rect class="cls-9" x="37" y="821" width="926" height="144" rx="12" ry="12"/><path class="cls-10" d="M951,970H49a17,17,0,0,1-17-17V833a17,17,0,0,1,17-17H951a17,17,0,0,1,17,17V953A17,17,0,0,1,951,970ZM49,826a7,7,0,0,0-7,7V953a7,7,0,0,0,7,7H951a7,7,0,0,0,7-7V833a7,7,0,0,0-7-7H49Z"/><path class="cls-11" d="M291.79,893.33c-0.52-9.87-1.15-21.73-1-30.55h-0.31c-2.42,8.29-5.35,17.11-8.92,26.88L269,924h-6.93l-11.44-33.7c-3.36-10-6.19-19.11-8.19-27.51h-0.21c-0.21,8.82-.73,20.68-1.36,31.29L239,924.41h-8.71l4.93-70.77h11.65l12.07,34.23c2.94,8.71,5.35,16.48,7.14,23.83h0.32c1.78-7.14,4.3-14.91,7.45-23.83l12.6-34.23h11.65l4.41,70.77h-8.92Z"/><path class="cls-11" d="M362.87,898.58c0,18.79-13,27-25.3,27-13.75,0-24.36-10.08-24.36-26.14,0-17,11.13-27,25.2-27C353,872.43,362.87,883,362.87,898.58Zm-40.32.53c0,11.13,6.4,19.53,15.43,19.53,8.82,0,15.43-8.29,15.43-19.74,0-8.61-4.3-19.53-15.22-19.53S322.55,889.44,322.55,899.1Z"/><path class="cls-11" d="M374.11,924.41c0.21-3.46.42-8.61,0.42-13.12V849.86h9.13v31.92h0.21c3.25-5.67,9.13-9.34,17.32-9.34,12.6,0,21.52,10.5,21.42,25.93,0,18.16-11.44,27.19-22.78,27.19-7.35,0-13.23-2.83-17-9.55h-0.31l-0.42,8.4h-8ZM383.66,904a17.29,17.29,0,0,0,.42,3.36,14.26,14.26,0,0,0,13.86,10.82c9.66,0,15.43-7.87,15.43-19.53,0-10.18-5.25-18.9-15.12-18.9-6.3,0-12.18,4.3-14.07,11.34a18.21,18.21,0,0,0-.52,3.78V904Z"/><path class="cls-11" d="M444.56,859.31c0.1,3.15-2.2,5.67-5.88,5.67a5.49,5.49,0,0,1-5.56-5.67,5.63,5.63,0,0,1,5.77-5.77A5.48,5.48,0,0,1,444.56,859.31Zm-10.29,65.1V873.59h9.24v50.82h-9.24Z"/><path class="cls-11" d="M458.84,849.86h9.24v74.55h-9.24V849.86Z"/><path class="cls-11" d="M488.76,900.68c0.21,12.5,8.19,17.64,17.43,17.64a33.42,33.42,0,0,0,14.07-2.62l1.57,6.62c-3.25,1.47-8.82,3.15-16.9,3.15-15.64,0-25-10.29-25-25.62s9-27.4,23.83-27.4c16.59,0,21,14.59,21,23.94a34.71,34.71,0,0,1-.32,4.3h-35.7Zm27.09-6.61c0.11-5.88-2.42-15-12.81-15-9.34,0-13.44,8.61-14.17,15h27Z"/><path class="cls-11" d="M570.24,902.15l-7.35,22.26h-9.45l24-70.77h11l24.15,70.77H602.9l-7.56-22.26H570.24Zm23.2-7.14-6.93-20.37c-1.58-4.62-2.62-8.82-3.67-12.92h-0.21c-1,4.2-2.2,8.5-3.57,12.81L572.13,895h21.31Z"/><path class="cls-11" d="M622.43,890.18c0-6.51-.21-11.76-0.42-16.59h8.29l0.42,8.71h0.21c3.78-6.19,9.76-9.87,18.06-9.87,12.28,0,21.52,10.39,21.52,25.83,0,18.27-11.13,27.3-23.1,27.3-6.72,0-12.6-2.94-15.64-8h-0.21v27.61h-9.13v-55Zm9.13,13.54a20.81,20.81,0,0,0,.42,3.78,14.26,14.26,0,0,0,13.86,10.81c9.76,0,15.43-8,15.43-19.63,0-10.18-5.35-18.9-15.12-18.9-6.3,0-12.18,4.51-14,11.44a15,15,0,0,0-.63,3.78v8.71Z"/><path class="cls-11" d="M682.17,890.18c0-6.51-.21-11.76-0.42-16.59H690l0.42,8.71h0.21c3.78-6.19,9.77-9.87,18.06-9.87,12.28,0,21.52,10.39,21.52,25.83,0,18.27-11.13,27.3-23.1,27.3-6.72,0-12.6-2.94-15.64-8h-0.21v27.61h-9.13v-55Zm9.13,13.54a20.73,20.73,0,0,0,.42,3.78,14.26,14.26,0,0,0,13.86,10.81c9.76,0,15.43-8,15.43-19.63,0-10.18-5.35-18.9-15.12-18.9-6.3,0-12.18,4.51-14,11.44a15,15,0,0,0-.63,3.78v8.71Z"/><path class="cls-11" d="M740.66,915a24.22,24.22,0,0,0,12.18,3.67c6.72,0,9.87-3.36,9.87-7.56,0-4.41-2.62-6.83-9.45-9.34-9.13-3.25-13.44-8.29-13.44-14.38,0-8.19,6.61-14.91,17.53-14.91a25.36,25.36,0,0,1,12.49,3.15l-2.31,6.72a19.78,19.78,0,0,0-10.39-2.94c-5.46,0-8.5,3.15-8.5,6.93,0,4.2,3,6.09,9.66,8.61,8.82,3.36,13.33,7.77,13.33,15.33,0,8.92-6.93,15.22-19,15.22A29,29,0,0,1,738.35,922Z"/></g></svg>