<svg id="Layer_1" data-name="Layer 1" xmlns="http://www.w3.org/2000/svg" xmlns:xlink="http://www.w3.org/1999/xlink" viewBox="0 0 1001 1001"><defs><filter id="luminosity-invert-noclip" x="-0.5" y="-0.5" width="1001" height="1001" name="luminosity-invert-noclip"><feFlood result="bg" flood-color="#fff"/></filter><mask id="mask" x="0.5" y="0.5" width="9863.08" height="9863.08" maskUnits="userSpaceOnUse"><g id="mask-2" data-name="mask"><g style="filter:url(#luminosity-invert-noclip)"><path d="M448.94,11.18C231.57,33.5,33.5,231.57,11.18,448.94c-32.09,312.88,229,574,541.88,541.88C770.43,968.5,968.5,770.43,990.82,553.06,1022.92,240.17,761.83-20.92,448.94,11.18Z" style="fill:#c6c5c5"/></g></g></mask></defs><title>ICON04</title><g style="mask:url(#mask)"><rect x="0.5" y="0.5" width="1000" height="1000" style="fill:#933;fill-opacity:0"/></g><path d="M448.94,11.18C231.57,33.5,33.5,231.57,11.18,448.94c-32.09,312.88,229,574,541.88,541.88C770.43,968.5,968.5,770.43,990.82,553.06,1022.92,240.17,761.83-20.92,448.94,11.18Z" style="fill:#c6c5c5"/><g id="_4_-_Automation" data-name="4 - Automation"><path d="M911.93,511.35c-20.51-14.31-24.32-19.56-24.32-32.91,0-8.59-2.38-26.71-4.77-41l-4.77-25.28,19.56-20,19.56-20L904.3,338.22l-12.88-33.86H865.67c-28.14,0-25.76,1.91-59.14-42.93C786,234.24,786,233.29,794.6,192.27c2.86-12.88.48-16.22-24.32-35.29l-26.71-21-24.32,11.92-24.32,11.92-39.11-17.17L616.22,126l-8.59-26.23L599,73l-35.29-5.25-35.29-5.25L514.63,85,500.8,107.85l-43.4,5.25L414,118.82,394,99.26,374.4,80.19,341,93.06c-19.08,8.11-32.91,16.69-33.39,20.51s-1,16.22-1,26.71c-1,18.6-2.86,21-35.29,44.83L236.56,210.4l-25.76-5.25c-13.83-2.86-27.19-4.77-29.09-3.34-1.91,1-12.4,13.83-23.37,28.14l-20.51,26.23L150.71,280l12.88,23.37-12.4,28.14c-23.37,51-22.89,51-49.13,58.67-27.19,7.63-27.19,7.63-32.43,52.94l-3.34,26.71,24.32,14.79c22.42,13.83,24.32,16.69,24.32,32.91,0,10,1.43,29.09,2.86,42,2.86,22.42,1.91,24.8-14.31,41.5-9.54,9.54-17.17,20.51-17.17,24.32,0,3.34,5.25,19.08,11.45,34.82l11.45,28.14,26.23,1.43,25.76,1.43,27.19,35.77,27.19,35.77-7.63,24.8-7.15,24.8,22.42,20c30.53,26.71,35.77,28.14,61.05,14.31l21-11.92L340.06,850c46.74,20,45.79,19.56,52,43.88,2.86,11.45,8.11,22.89,11,24.8,4.29,2.86,17.17,5.72,65.82,14.79,1.43,0,8.59-9.06,15.26-20.51,7.15-11.92,14.31-22.42,16.22-23.85,2.39-1.43,21.94-4.77,43.88-7.15l40.06-5.25,19.56,19.08,20,19.56,33.39-12.4,33.39-12.4,2.86-29.09c1.43-18.6,5.25-30.53,9.54-33.39,4.29-1.91,19.56-13.35,34.82-24.8L765,782.74l21.46,6.2c11.92,3.82,23.85,6.68,26.71,6.68s15.26-12.4,27.19-27.66l21.94-27.66L850.41,716l-11.92-24.32,17.17-39.59L872.82,612l26.23-6.68,25.76-7.15,3.34-26.23c1.43-14.79,3.82-30.53,5.25-34.82C935.3,531.39,928.63,523.76,911.93,511.35ZM777,638.23C749.29,695,696.35,747.45,639.59,775.11,570.91,808.5,503.66,817.56,434.5,802.3c-41-8.59-100.64-38.16-135.93-66.77-32.43-27.19-72.5-83.47-88.24-124-18.12-47.7-25.76-103.5-20-145,16.22-114,74.41-198.41,169.32-245.16,59.14-29.09,98.25-38.16,156-34.82,81.08,4.77,145.95,34.34,205.57,93.48,59.62,59.62,90.14,133.55,90.14,217.49C811.29,550.94,802.71,585.76,777,638.23Z" style="fill:#404041"/><g id="Layer_3_copy_16" data-name="Layer 3 copy 16"><rect x="37.5" y="821.5" width="926" height="144" rx="12" ry="12" style="fill:#383838"/><path d="M951.5,970.5H49.5a17,17,0,0,1-17-17v-120a17,17,0,0,1,17-17h902a17,17,0,0,1,17,17v120A17,17,0,0,1,951.5,970.5Zm-902-144a7,7,0,0,0-7,7h0v120a7,7,0,0,0,7,7h902a7,7,0,0,0,7-7v-120a7,7,0,0,0-7-7H49.5Z" style="fill:#c6c5c5"/></g><text transform="translate(237.19 925.4)" style="font-size:105px;fill:#fff;font-family:Myriad Pro"><tspan style="letter-spacing:-1px">A</tspan><tspan x="63" y="0">u</tspan><tspan x="120.85" y="0">t</tspan><tspan x="154.98" y="0">om</tspan><tspan x="300.19" y="0">a</tspan><tspan x="350.38" y="0">tion</tspan></text></g></svg>