<?xml version="1.0" encoding="utf-8"?>
<!-- Generator: Adobe Illustrator 22.0.0, SVG Export Plug-In . SVG Version: 6.00 Build 0)  -->
<svg version="1.1" id="Layer_1" xmlns="http://www.w3.org/2000/svg" xmlns:xlink="http://www.w3.org/1999/xlink" x="0px" y="0px"
	 viewBox="0 0 157.8 235.4" style="enable-background:new 0 0 157.8 235.4;" xml:space="preserve">
<style type="text/css">
	.st0{fill:#FFFFFF;}
	.st1{fill:#F8991D;}
</style>
<g>
	<g>
		<path class="st0" d="M5.1,235l4.8-31.5h5.7l4.8,31.5h-4.5l-0.9-6.4h-4.5L9.6,235H5.1z M12.9,213.8l-0.1-0.8h-0.3l-0.1,0.8
			l-1.3,9.9h3.2L12.9,213.8z"/>
		<path class="st0" d="M34.7,203.6v25c0,1.3-0.3,2.4-0.8,3.4c-0.4,0.9-1,1.7-1.8,2.3c-0.9,0.7-2,1.1-3.6,1.1c-1.5,0-2.7-0.4-3.6-1.1
			c-0.9-0.6-1.4-1.5-1.8-2.3c-0.5-1-0.7-2.1-0.8-3.4v-25H27v25c0,0.9,0.2,1.5,0.6,2c0.2,0.2,0.5,0.3,0.9,0.3c0.8,0,1.2-0.5,1.4-1.2
			c0.1-0.3,0.2-0.7,0.2-1.2v-25H34.7z"/>
		<path class="st0" d="M36.4,208.3v-4.8h13.4v4.8h-4.4V235h-4.6v-26.7H36.4z"/>
		<path class="st0" d="M63.6,228.5c0,1.3-0.3,2.4-0.8,3.4c-0.4,0.9-1,1.7-1.8,2.3c-0.9,0.7-2,1.1-3.6,1.1c-1.5,0-2.7-0.4-3.6-1.1
			c-0.9-0.6-1.4-1.5-1.8-2.3c-0.5-1-0.7-2.1-0.8-3.4V210c0-1.2,0.3-2.4,0.8-3.4c0.4-0.9,0.9-1.7,1.8-2.4c0.9-0.6,2.1-1.1,3.6-1.1
			c1.5,0,2.7,0.4,3.6,1.1c0.9,0.6,1.5,1.5,1.8,2.4c0.5,1,0.7,2.1,0.8,3.4V228.5z M59,210c0-0.9-0.2-1.5-0.6-2
			c-0.2-0.2-0.6-0.3-0.9-0.3c-0.8,0-1.2,0.6-1.4,1.2c-0.1,0.3-0.2,0.7-0.2,1.2v18.5c0,0.9,0.2,1.5,0.6,2c0.2,0.2,0.5,0.3,0.9,0.3
			c0.8,0,1.2-0.5,1.4-1.2c0.1-0.3,0.2-0.7,0.2-1.2V210z"/>
		<path class="st0" d="M74.4,235l-3-19.8l-0.2-1.3H71V235h-4.3v-31.5h5.7l2.7,14.4l0.2,1.7h0.1l0.2-1.7l2.7-14.4H84V235h-4.3v-21.1
			h-0.3l-0.2,1.3l-3,19.8H74.4z"/>
		<path class="st0" d="M86.1,235l4.8-31.5h5.7l4.8,31.5h-4.5l-0.9-6.4h-4.5l-0.9,6.4H86.1z M94,213.8l-0.1-0.8h-0.3l-0.1,0.8
			l-1.3,9.9h3.2L94,213.8z"/>
		<path class="st0" d="M100.9,208.3v-4.8h13.4v4.8h-4.4V235h-4.6v-26.7H100.9z"/>
		<path class="st0" d="M116,203.6h4.6V235H116V203.6z"/>
		<path class="st0" d="M136.1,228.5c0,1.3-0.3,2.4-0.8,3.4c-0.4,0.9-1,1.7-1.8,2.3c-0.9,0.7-2,1.1-3.6,1.1c-1.5,0-2.7-0.4-3.6-1.1
			c-0.9-0.6-1.4-1.5-1.8-2.3c-0.5-1-0.7-2.1-0.8-3.4V210c0-1.2,0.3-2.4,0.8-3.4c0.4-0.9,0.9-1.7,1.8-2.4c0.9-0.6,2.1-1.1,3.6-1.1
			c1.5,0,2.7,0.4,3.6,1.1c0.9,0.6,1.5,1.5,1.8,2.4c0.5,1,0.7,2.1,0.8,3.4V228.5z M131.5,210c0-0.9-0.2-1.5-0.6-2
			c-0.2-0.2-0.6-0.3-0.9-0.3c-0.8,0-1.2,0.6-1.4,1.2c-0.1,0.3-0.2,0.7-0.2,1.2v18.5c0,0.9,0.2,1.5,0.6,2c0.2,0.2,0.5,0.3,0.9,0.3
			c0.8,0,1.2-0.5,1.4-1.2c0.1-0.3,0.2-0.7,0.2-1.2V210z"/>
		<path class="st0" d="M144.1,218.6l-0.4-1.5h-0.3V235h-4.2v-31.5h4.1l4.5,16.4l0.4,1.5h0.3v-17.8h4.2V235h-4.1L144.1,218.6z"/>
	</g>
	<path class="st1" d="M153.8,81.6c-3.7-2.6-4.4-3.6-4.4-6c0-1.6-0.4-4.9-0.9-7.5l-0.9-4.6l3.6-3.6l3.6-3.6l-2.3-6.2l-2.3-6.2h-4.7
		c-5.1,0-4.7,0.3-10.8-7.8c-3.7-4.9-3.7-5.1-2.2-12.6c0.5-2.3,0.1-2.9-4.4-6.4l-4.9-3.8l-4.4,2.2l-4.4,2.2l-7.1-3.1l-7.2-3l-1.6-4.8
		l-1.6-4.9l-6.4-1L84,0l-2.5,4.1L79,8.3l-7.9,0.9l-7.9,1l-3.6-3.6L56,3.2L50,5.6c-3.5,1.5-6,3-6.1,3.7c-0.1,0.7-0.2,3-0.2,4.9
		c-0.2,3.4-0.5,3.8-6.4,8.2L31,26.9L26.3,26c-2.5-0.5-4.9-0.9-5.3-0.6c-0.3,0.2-2.3,2.5-4.2,5.1L13,35.2l2.3,4.3l2.3,4.3l-2.3,5.1
		c-4.2,9.3-4.2,9.3-8.9,10.7C1.6,61,1.6,61,0.6,69.2L0,74.1l4.4,2.7c4.1,2.5,4.4,3,4.4,6c0,1.8,0.3,5.3,0.5,7.6
		c0.5,4.1,0.3,4.5-2.6,7.5c-1.7,1.7-3.1,3.7-3.1,4.4c0,0.6,1,3.5,2.1,6.3l2.1,5.1l4.8,0.3l4.7,0.3l4.9,6.5l4.9,6.5l-1.4,4.5
		l-1.3,4.5l4.1,3.6c5.5,4.9,6.5,5.1,11.1,2.6l3.8-2.2l6.3,2.8c8.5,3.6,8.3,3.6,9.5,8c0.5,2.1,1.5,4.2,2,4.5c0.8,0.5,3.1,1,12,2.7
		c0.3,0,1.6-1.7,2.8-3.7c1.3-2.2,2.6-4.1,2.9-4.3c0.4-0.3,4-0.9,8-1.3l7.3-1l3.6,3.5l3.6,3.6l6.1-2.3l6.1-2.3l0.5-5.3
		c0.3-3.4,1-5.6,1.7-6.1c0.8-0.3,3.6-2.4,6.3-4.5l4.9-3.7l3.9,1.1c2.2,0.7,4.3,1.2,4.9,1.2c0.5,0,2.8-2.3,4.9-5l4-5l-2.2-4.4
		l-2.2-4.4l3.1-7.2l3.1-7.3l4.8-1.2l4.7-1.3l0.6-4.8c0.3-2.7,0.7-5.5,0.9-6.3C158.1,85.3,156.8,83.9,153.8,81.6z M78.9,128.3
		c-27.1,0-49.1-22-49.1-49.1c0-27.1,22-49.1,49.1-49.1c27.1,0,49.1,22,49.1,49.1C128,106.3,106,128.3,78.9,128.3z"/>
</g>
</svg>
