<?xml version="1.0" encoding="utf-8"?>
<!-- Generator: Adobe Illustrator 19.2.1, SVG Export Plug-In . SVG Version: 6.00 Build 0)  -->
<svg version="1.1" id="BACKGROUND" xmlns="http://www.w3.org/2000/svg" xmlns:xlink="http://www.w3.org/1999/xlink" x="0px" y="0px"
	 viewBox="0 0 1001 1001" style="enable-background:new 0 0 1001 1001;" xml:space="preserve">
<style type="text/css">
	.st0{fill:#C6C5C5;}
	.st1{fill:#404041;}
</style>
<title>ICON05</title>
<rect x="1" y="2.2" class="st0" width="1000" height="1000"/>
<path class="st1" d="M912.9,515.6c-20.5-14.3-24.3-19.6-24.3-32.9c0-8.6-2.4-26.7-4.8-41l-4.8-25.3l19.6-20l19.6-20l-12.9-33.9
	l-12.9-33.9h-25.8c-28.1,0-25.8,1.9-59.1-42.9c-20.5-27.2-20.5-28.1-11.9-69.2c2.9-12.9,0.5-16.2-24.3-35.3l-26.7-21l-24.3,11.9
	L695.9,164l-39.1-17.2l-39.6-16.7l-8.6-26.2L600,77.2L564.8,72l-35.3-5.2l-13.8,22.4L501.8,112l-43.4,5.2L415,123l-20-19.6
	l-19.6-19.1L342,97.3c-19.1,8.1-32.9,16.7-33.4,20.5s-1,16.2-1,26.7c-1,18.6-2.9,21-35.3,44.8l-34.8,25.3l-25.8-5.2
	c-13.8-2.9-27.2-4.8-29.1-3.3c-1.9,1-12.4,13.8-23.4,28.1l-20.5,26.2l12.9,23.8l12.9,23.4l-12.4,28.1c-23.4,51-22.9,51-49.1,58.7
	c-27.2,7.6-27.2,7.6-32.4,52.9l-3.3,26.7l24.3,14.8c22.4,13.8,24.3,16.7,24.3,32.9c0,10,1.4,29.1,2.9,42
	c2.9,22.4,1.9,24.8-14.3,41.5c-9.5,9.5-17.2,20.5-17.2,24.3c0,3.3,5.2,19.1,11.4,34.8l11.4,28.1l26.2,1.4l25.8,1.4l27.2,35.8
	l27.2,35.8l-7.6,24.8l-7.2,24.8l22.4,20c30.5,26.7,35.8,28.1,61.1,14.3l21-11.9l34.8,15.3c46.7,20,45.8,19.6,52,43.9
	c2.9,11.4,8.1,22.9,11,24.8c4.3,2.9,17.2,5.7,65.8,14.8c1.4,0,8.6-9.1,15.3-20.5c7.2-11.9,14.3-22.4,16.2-23.8
	c2.4-1.4,21.9-4.8,43.9-7.2l40.1-5.2l19.6,19.1l20,19.6l33.4-12.4l33.4-12.4l2.9-29.1c1.4-18.6,5.2-30.5,9.5-33.4
	c4.3-1.9,19.6-13.4,34.8-24.8l27.2-20.5l21.5,6.2c11.9,3.8,23.8,6.7,26.7,6.7s15.3-12.4,27.2-27.7l21.9-27.7l-11.9-24.3l-11.9-24.3
	l17.2-39.6l17.2-40.1l26.2-6.7l25.8-7.2l3.3-26.2c1.4-14.8,3.8-30.5,5.2-34.8C936.3,535.6,929.6,528,912.9,515.6z M778,642.4
	c-27.7,56.8-80.6,109.2-137.4,136.9c-68.7,33.4-135.9,42.4-205.1,27.2c-41-8.6-100.6-38.2-135.9-66.8c-32.4-27.2-72.5-83.5-88.2-124
	c-18.1-47.7-25.8-103.5-20-145c16.2-114,74.4-198.4,169.3-245.2c59.1-29.1,98.3-38.2,156-34.8c81.1,4.8,145.9,34.3,205.6,93.5
	c59.6,59.6,90.1,133.5,90.1,217.5C812.3,555.1,803.7,590,778,642.4z"/>
<path class="st1" d="M2,0v1000h999V0H2z M502.6,993c-272,0-492.5-220.5-492.5-492.5S230.6,8,502.6,8s492.5,220.5,492.5,492.5
	S774.6,993,502.6,993z"/>
</svg>
