<?xml version="1.0" encoding="utf-8"?>
<!-- Generator: Adobe Illustrator 22.0.0, SVG Export Plug-In . SVG Version: 6.00 Build 0)  -->
<svg version="1.1" id="Layer_1" xmlns="http://www.w3.org/2000/svg" xmlns:xlink="http://www.w3.org/1999/xlink" x="0px" y="0px"
	 viewBox="0 0 239.8 291.1" style="enable-background:new 0 0 239.8 291.1;" xml:space="preserve">
<style type="text/css">
	.st0{fill:#FFFFFF;}
	.st1{fill:#F8991D;}
</style>
<g>
	<g>
		<path class="st0" d="M0,290.8l4.8-31.5h5.7l4.7,31.5h-4.5l-0.9-6.4H5.3l-0.9,6.4H0z M7.8,269.6l-0.1-0.8H7.4l-0.1,0.8L6,279.5h3.2
			L7.8,269.6z"/>
		<path class="st0" d="M29.6,259.3v25c0,1.3-0.3,2.4-0.8,3.4c-0.4,0.9-1,1.7-1.8,2.3c-0.9,0.7-2,1.1-3.6,1.1c-1.5,0-2.7-0.4-3.6-1.1
			c-0.9-0.6-1.4-1.5-1.8-2.3c-0.5-1-0.7-2.1-0.8-3.4v-25h4.6v25c0,0.9,0.2,1.5,0.6,2c0.2,0.2,0.5,0.3,0.9,0.3c0.8,0,1.2-0.5,1.4-1.2
			c0.1-0.3,0.2-0.7,0.2-1.2v-25H29.6z"/>
		<path class="st0" d="M40.4,270.6v-4.8c0-0.9-0.2-1.5-0.6-2c-0.2-0.2-0.6-0.3-0.9-0.3c-0.8,0-1.2,0.6-1.4,1.2
			c-0.1,0.3-0.2,0.7-0.2,1.2v18.9c0,0.9,0.2,1.5,0.6,2c0.2,0.2,0.5,0.3,0.9,0.3c0.8,0,1.2-0.5,1.4-1.2c0.1-0.3,0.2-0.7,0.2-1.2V279
			h-1.8v-3.9H45v15.7h-2.7l-0.6-1.5c-0.9,1.1-2.1,1.8-3.6,1.8c-1.5,0-2.5-0.4-3.3-1.1c-0.8-0.6-1.3-1.5-1.6-2.3
			c-0.4-1-0.6-2.1-0.5-3.4v-18.5c0-1.2,0.3-2.4,0.8-3.4c0.4-0.9,0.9-1.7,1.8-2.4c0.9-0.6,2.1-1.1,3.6-1.1c1.5,0,2.7,0.4,3.6,1.1
			c0.9,0.6,1.5,1.5,1.8,2.4c0.5,1,0.7,2.1,0.8,3.4v4.8H40.4z"/>
		<path class="st0" d="M56,290.8l-3-19.8l-0.2-1.3h-0.3v21.1h-4.3v-31.5H54l2.7,14.4l0.2,1.7H57l0.2-1.7l2.7-14.4h5.7v31.5h-4.3
			v-21.1h-0.3l-0.2,1.3l-3,19.8H56z"/>
		<path class="st0" d="M69.1,259.3h10.6v4.8h-5.9v8.3H78v5.1h-4.3v8.6h5.9v4.8H69.1V259.3z"/>
		<path class="st0" d="M87.1,274.4l-0.4-1.5h-0.3v17.8h-4.2v-31.5h4.1l4.5,16.4l0.4,1.5h0.3v-17.8h4.2v31.5h-4.1L87.1,274.4z"/>
		<path class="st0" d="M97.5,264.1v-4.8h13.4v4.8h-4.4v26.7h-4.6v-26.7H97.5z"/>
		<path class="st0" d="M112.6,259.3h10.6v4.8h-5.9v8.3h4.3v5.1h-4.3v8.6h5.9v4.8h-10.6V259.3z"/>
		<path class="st0" d="M125.8,290.8v-31.5h3.6c4.3,0,6.6,0.9,7.8,3.3c1.2,2.4,1.4,6.3,1.4,12.5c0,6.2-0.2,10.1-1.4,12.5
			c-1.2,2.4-3.6,3.3-7.8,3.3H125.8z M130.4,286.2c1.6,0,2.5-0.2,3-1.7c0.2-0.7,0.4-1.8,0.4-3.3c0-1.5,0-3.5,0-6.1c0-2.6,0-4.6,0-6.1
			c0-1.5-0.2-2.6-0.4-3.3c-0.5-1.5-1.4-1.7-3-1.7V286.2z"/>
		<path class="st0" d="M156.5,290.8l-2.4-13.3h-1.2v13.3h-4.6v-31.5h4.6c5.5,0,7.9,3.1,7.9,9.1c0,3.1-0.8,5.9-2.6,7.1l3,15.2H156.5z
			 M152.9,273.3c0.6,0,1.5-0.1,2.2-0.7c0.7-0.6,1.2-1.8,1.2-4c0-2.2-0.6-3.4-1.2-4c-0.7-0.6-1.5-0.6-2.2-0.6V273.3z"/>
		<path class="st0" d="M163.7,259.3h10.6v4.8h-5.9v8.3h4.3v5.1h-4.3v8.6h5.9v4.8h-10.6V259.3z"/>
		<path class="st0" d="M175.7,290.8l4.8-31.5h5.7l4.8,31.5h-4.5l-0.9-6.4H181l-0.9,6.4H175.7z M183.5,269.6l-0.1-0.8h-0.3l-0.1,0.8
			l-1.3,9.9h3.2L183.5,269.6z"/>
		<path class="st0" d="M193,259.3h4.6v27.2h6.1v4.3H193V259.3z"/>
		<path class="st0" d="M205.6,259.3h4.6v31.5h-4.6V259.3z"/>
		<path class="st0" d="M212,264.1v-4.8h13.4v4.8H221v26.7h-4.6v-26.7H212z"/>
		<path class="st0" d="M232.6,269.4l0.1,0.3h0.1l0.1-0.3l2.3-10.1h4.5l-4.7,18.1v13.4h-4.6v-13.4l-4.7-18.1h4.5L232.6,269.4z"/>
	</g>
	<g>
		<path class="st1" d="M154.2,105.3l-0.6-1.2c-1-2-0.3-4.5,1.8-5.5l0,0l14.4-7.4c1.4-0.7,2.2-2.1,2.2-3.7V74.3
			c0-2.3,1.8-4.1,4.1-4.1h1.4c2.3,0,4.1,1.8,4.1,4.1v19.1c0,1.5-0.9,2.9-2.2,3.7l-19.6,10.1C157.7,108.1,155.2,107.4,154.2,105.3
			L154.2,105.3z"/>
		<path class="st1" d="M142.9,110.3L142.9,110.3c-1-2.1-3.5-2.9-5.6-1.9l-12.5,6.6c-0.3,0.1-0.6,0-0.7-0.2c0-0.1-0.1-0.1-0.1-0.2
			v-10.3c0-2.3-1.9-4.2-4.2-4.2h-0.2h-0.1c-2.3,0-4.2,1.9-4.2,4.2v10.3c0,0.3-0.2,0.5-0.5,0.5c-0.1,0-0.2,0-0.2-0.1l-12.5-6.6
			c-2.1-1-4.6-0.2-5.6,1.9l0,0c-1,2.1-0.2,4.6,1.9,5.6l19.3,10c0.6,0.3,1.2,0.4,1.9,0.4h0.2c0.7,0,1.3-0.1,1.9-0.4l19.3-10
			C143.1,114.9,144,112.4,142.9,110.3C142.9,110.3,142.9,110.3,142.9,110.3z"/>
		<path class="st1" d="M178.8,29.6l-17-8.4c-2.4-1.1-5.3-0.1-6.4,2.2c-1.1,2.4-0.2,5.2,2.2,6.4l9.1,4.5L155.8,40
			c-2.2,1.2-3.1,4-1.9,6.2c1.2,2.2,4,3.1,6.2,1.9l0,0l11.8-6.2v11c0,2.6,2.1,4.8,4.8,4.8l0,0l0,0c2.6,0,4.8-2.1,4.8-4.8v-19
			C181.4,32.1,180.4,30.5,178.8,29.6z"/>
		<path class="st1" d="M85.7,105.3l0.6-1.2c1.1-2,0.3-4.5-1.8-5.5c0,0,0,0,0,0l-14.4-7.4c-1.4-0.7-2.2-2.1-2.2-3.7V74.3
			c0-2.3-1.8-4.1-4.1-4.1h-1.4c-2.3,0-4.1,1.8-4.1,4.1v19.1c0,1.5,0.9,2.9,2.2,3.7l19.6,10.1C82.2,108.1,84.7,107.4,85.7,105.3z"/>
		<path class="st1" d="M61.1,29.6l17-8.4c2.4-1.1,5.3-0.1,6.4,2.2c1.1,2.4,0.2,5.2-2.2,6.4l-9.1,4.5L84.1,40c2.2,1.2,3.1,4,1.9,6.2
			c-1.2,2.2-4,3.1-6.2,1.9L68,41.9v11c0,2.6-2.1,4.8-4.8,4.8l0,0c-2.7,0-4.8-2.1-4.8-4.8v-19C58.4,32.1,59.5,30.4,61.1,29.6z"/>
		<path class="st1" d="M143.1,51.8L143.1,51.8c-1.2-2.3-3.9-3.2-6.2-2l0,0L120,58.3l-17.3-8.5c-2.3-1-5,0.1-6,2.4
			c-0.9,2.2-0.1,4.7,2,5.9l16.6,8.2v17.2c0,2.5,2.1,4.6,4.6,4.6c0,0,0,0,0,0l0,0c2.5,0,4.6-2.1,4.6-4.6c0,0,0,0,0,0V66.3l16.5-8.4
			C143.3,56.8,144.2,54.1,143.1,51.8z"/>
		<path class="st1" d="M136.5,19l-15.8-8.7c-0.4-0.2-0.9-0.2-1.3,0l-14.2,7.4c-2.3,1.2-5,0.3-6.2-2c0,0,0,0,0,0l0,0
			c-1.2-2.3-0.3-5,2-6.2c0,0,0,0,0,0l18-9.4c0.7-0.3,1.4-0.3,2.1,0l19.6,10.6c2.3,1.2,3.2,3.9,2,6.2v0l0,0
			C141.6,19.3,138.8,20.2,136.5,19z"/>
		<path class="st1" d="M228.4,227.9l-216.9,0.4c-1.3,0-2.6-0.4-3.6-1.3c-1.6-1.4-2.2-3.7-1.5-5.7l38-108.6c0.7-2.1,2.7-3.5,4.9-3.5
			H63c2.6,0,4.8,2.1,4.8,4.8l0,0c0,2.6-2.1,4.8-4.8,4.8H52.5c-0.1,0-0.1,0-0.1,0.1l-34.9,99.7c0,0.1,0,0.1,0.1,0.2c0,0,0,0,0,0
			l204.7-0.4c0.1,0,0.1-0.1,0.1-0.1c0,0,0,0,0,0l-34.9-99.3c0,0-0.1-0.1-0.1-0.1h-9.1c-2.6,0-4.8-2.1-4.8-4.8l0,0l0,0
			c0-2.6,2.1-4.8,4.8-4.8l0,0h12.2c2.3,0,4.3,1.4,5.1,3.6l38,108.1c0.7,2,0.1,4.3-1.5,5.7C231,227.5,229.7,228,228.4,227.9z"/>
		<path class="st1" d="M186.4,173.6l-4.4-17.7c-0.4-1.8-2-3-3.9-3h-25.3l-2.3-21.4c-0.3-2.6-2.7-4.5-5.3-4.2
			c-2.6,0.3-4.5,2.7-4.2,5.3l0,0l2.2,20.3h-18.5v-5.1c0-2.6-2.1-4.8-4.8-4.8l0,0l0,0c-2.6,0-4.8,2.1-4.8,4.8l0,0v5.1H92l-0.3,0
			c-3.5,0-5,0.9-5.4,4.5l-1.6,12c-0.1,0.5-0.5,1.3-1,1.3H60c-3.1,0-5.7,2.1-6.4,5.1l-4.9,22.5c-0.5,2.4,1,4.7,3.4,5.3
			c0.3,0.1,0.6,0.1,0.9,0.1h33.6c2,0,3.8-1.5,4-3.5l2.6-18.8c0-0.3,0.3-0.6,0.7-0.6h21.2V199c0,2.6,2.1,4.8,4.8,4.8l0,0h33.2
			c2.6,0,4.8-2.1,4.8-4.8c0-0.2,0-0.4,0-0.5l-1.9-17.8h25c3.1,0,5.7-2.5,5.7-5.7C186.5,174.5,186.5,174,186.4,173.6z M83.1,181.6
			l-1.5,10.9c-0.1,0.6-0.6,1.1-1.2,1.1H61c-0.5,0-0.9-0.4-0.9-0.9c0-0.1,0-0.1,0-0.2l2.3-10.8c0.1-0.7,0.7-1.2,1.4-1.2h18.3
			c0.5,0,0.9,0.4,0.9,0.9C83.1,181.6,83.1,181.6,83.1,181.6z M144.3,162.4l0.8,8.2h-20.4v-8.2L144.3,162.4L144.3,162.4z M95.6,170.6
			c-0.4,0-0.7-0.3-0.7-0.7c0,0,0-0.1,0-0.1l0.9-6.8c0-0.3,0.3-0.6,0.6-0.6h18.8v8.2L95.6,170.6L95.6,170.6z M147.5,192.7
			c0.1,0.7-0.4,1.4-1.1,1.4c0,0-0.1,0-0.1,0h-20.1c-0.8,0-1.4-0.6-1.4-1.4v-12.1h21.5L147.5,192.7z M174.1,170.6h-19.3l-0.9-8.2
			h18.7c0.5,0,0.9,0.3,1,0.8l1.4,6.2c0.1,0.5-0.2,1.1-0.7,1.2C174.2,170.6,174.1,170.6,174.1,170.6z"/>
	</g>
</g>
</svg>
