<svg id="_7_-_Augmented_Reality_copy" data-name="7 - Augmented Reality copy" xmlns="http://www.w3.org/2000/svg" viewBox="0 0 1000 1000"><defs><style>.cls-1,.cls-3{fill:#c6c5c5;}.cls-1{stroke:#000;}.cls-1,.cls-4{stroke-miterlimit:10;stroke-width:5px;}.cls-2{fill:#292929;}.cls-4{fill:none;stroke:#c6c5c5;}.cls-5{fill:#383838;}.cls-6{fill:#fff;}</style></defs><title>ICON07</title><rect class="cls-1" width="1000" height="1000"/><g id="RING"><path d="M0-1V999H1000V-1H0ZM500.5,992C228.5,992,8,771.5,8,499.5S228.5,7,500.5,7,993,227.5,993,499.5,772.5,992,500.5,992Z"/></g><polygon class="cls-2" points="339.92 524.25 426.87 524.25 383.4 398.99 339.92 524.25"/><path class="cls-2" d="M819.2,267A102,102,0,0,1,706.27,172.9c-65.28-.13-416.74-0.21-420.62-0.21A123.5,123.5,0,0,0,162.5,295.57V660.22a123.65,123.65,0,0,0,123.16,123H699.81a123.24,123.24,0,0,0,122.69-123V295.57A121.75,121.75,0,0,0,819.2,267ZM686,636.25l-64.14-132H572.5v132H462.17l-18.51-57H323.56l-20.88,57H233.81L358,300.25h49.07L507.5,571.52V300.25H653.3c42.83,0,93.2,29.77,93.2,79.28v48c0,27.33-18.41,53.14-57.36,63.9,10.55,22.6,71.78,144.83,71.78,144.83H686Z"/><path class="cls-2" d="M640,356.25H570.5v94h74.83c37.88,0,40.17-27.68,40.17-33.7V392C685.5,366.62,670.73,356.25,640,356.25Z"/><circle class="cls-3" cx="814.49" cy="159.67" r="107.5"/><path class="cls-2" d="M919.11,159.66a104.11,104.11,0,0,0-208-7c-59.37-.13-337.38-0.2-429.23-0.22A140.28,140.28,0,0,0,142,292.3V664.43A140.28,140.28,0,0,0,281.89,804.32H704.54A140.28,140.28,0,0,0,844.43,664.43V292.3a138.83,138.83,0,0,0-3.68-31.75A104.15,104.15,0,0,0,919.11,159.66ZM829.93,292.3V664.43a125.79,125.79,0,0,1-125.4,125.4H281.89a125.79,125.79,0,0,1-125.4-125.4V292.3A125.79,125.79,0,0,1,281.89,166.9c4,0,362.64.08,429.26,0.21A104.12,104.12,0,0,0,815,263.77a105.22,105.22,0,0,0,11.47-.63A124.34,124.34,0,0,1,829.93,292.3Zm56-114.82a1.28,1.28,0,0,1-1.28,1.28H834.95a1.28,1.28,0,0,0-1.28,1.28v49.27a1.28,1.28,0,0,1-1.28,1.28H798a1.28,1.28,0,0,1-1.28-1.28V179.83a1.28,1.28,0,0,0-1.28-1.28H744a1.28,1.28,0,0,1-1.28-1.28V142.94a1.28,1.28,0,0,1,1.29-1.28l51.45,0.42a1.28,1.28,0,0,0,1.29-1.28V93.29A1.28,1.28,0,0,1,798,92h35.87a1.28,1.28,0,0,1,1.28,1.28V140.8a1.28,1.28,0,0,0,1.28,1.28h48.17a1.28,1.28,0,0,1,1.28,1.28v34.12Z"/><circle class="cls-4" cx="815.46" cy="158.69" r="107.5"/><g id="Layer_3_copy_14" data-name="Layer 3 copy 14"><rect class="cls-5" x="37" y="821" width="926" height="144" rx="12" ry="12"/><path class="cls-3" d="M951,970H49a17,17,0,0,1-17-17V833a17,17,0,0,1,17-17H951a17,17,0,0,1,17,17V953A17,17,0,0,1,951,970ZM49,826a7,7,0,0,0-7,7V953a7,7,0,0,0,7,7H951a7,7,0,0,0,7-7V833a7,7,0,0,0-7-7H49Z"/><path class="cls-6" d="M99.53,902.15l-7.35,22.26H82.74l24-70.77h11L142,924.41h-9.76l-7.56-22.26H99.53Zm23.2-7.14-6.93-20.37c-1.58-4.62-2.62-8.82-3.67-12.92h-0.21c-1,4.2-2.2,8.5-3.57,12.81L101.42,895h21.31Z"/><path class="cls-6" d="M193.3,910.55c0,5.25.1,9.87,0.42,13.86h-8.19L185,916.11h-0.21a19.12,19.12,0,0,1-16.8,9.45c-8,0-17.53-4.41-17.53-22.26V873.59h9.24v28.14c0,9.66,2.94,16.17,11.34,16.17a13.36,13.36,0,0,0,12.18-8.4,13.51,13.51,0,0,0,.84-4.72V873.59h9.24v37Z"/><path class="cls-6" d="M252.41,873.59c-0.21,3.67-.42,7.77-0.42,14v29.5c0,11.65-2.31,18.79-7.24,23.2-4.93,4.62-12.07,6.09-18.48,6.09-6.09,0-12.81-1.47-16.9-4.2l2.31-7a28.66,28.66,0,0,0,14.91,4c9.45,0,16.38-4.93,16.38-17.74v-5.67h-0.21c-2.83,4.72-8.29,8.5-16.17,8.5C214,924.2,205,913.49,205,899.42c0-17.22,11.23-27,22.89-27,8.82,0,13.65,4.62,15.85,8.82h0.21l0.42-7.67h8.08Zm-9.55,20.05a13.16,13.16,0,0,0-.52-4.2c-1.68-5.35-6.19-9.76-12.91-9.76-8.82,0-15.12,7.46-15.12,19.21,0,10,5,18.27,15,18.27a13.51,13.51,0,0,0,12.81-9.45,16.08,16.08,0,0,0,.73-4.93v-9.13Z"/><path class="cls-6" d="M266.69,887.34c0-5.25-.1-9.55-0.42-13.75h8.08l0.42,8.19h0.31c2.83-4.83,7.56-9.34,16-9.34a15,15,0,0,1,14.38,10.18h0.21a20.93,20.93,0,0,1,5.67-6.62,17.34,17.34,0,0,1,11.23-3.57c6.72,0,16.69,4.41,16.69,22v29.92h-9V895.64c0-9.76-3.57-15.64-11-15.64-5.25,0-9.34,3.88-10.92,8.4a15.22,15.22,0,0,0-.74,4.62v31.39h-9V894c0-8.08-3.57-14-10.6-14-5.77,0-10,4.62-11.44,9.24a12.74,12.74,0,0,0-.73,4.51v30.66h-9V887.34Z"/><path class="cls-6" d="M359.41,900.68c0.21,12.5,8.19,17.64,17.43,17.64a33.41,33.41,0,0,0,14.07-2.62l1.58,6.62c-3.25,1.47-8.82,3.15-16.9,3.15-15.64,0-25-10.29-25-25.62s9-27.4,23.83-27.4c16.59,0,21,14.59,21,23.94a34.81,34.81,0,0,1-.32,4.3h-35.7Zm27.09-6.61c0.1-5.88-2.42-15-12.81-15-9.34,0-13.44,8.61-14.17,15h27Z"/><path class="cls-6" d="M406.87,887.34c0-5.25-.1-9.55-0.42-13.75h8.19l0.52,8.4h0.21a18.69,18.69,0,0,1,16.8-9.55c7,0,18,4.2,18,21.63v30.34h-9.24V895.11c0-8.19-3-15-11.76-15a13.13,13.13,0,0,0-12.39,9.45,13.28,13.28,0,0,0-.63,4.3v30.55h-9.24V887.34Z"/><path class="cls-6" d="M475.85,859v14.59h13.23v7H475.85V908c0,6.3,1.78,9.87,6.93,9.87a20.58,20.58,0,0,0,5.35-.63l0.42,6.93a22.61,22.61,0,0,1-8.19,1.26c-4.3,0-7.77-1.37-10-3.88-2.62-2.73-3.57-7.25-3.57-13.23V880.62h-7.87v-7h7.87V861.41Z"/><path class="cls-6" d="M504,900.68c0.21,12.5,8.19,17.64,17.43,17.64a33.41,33.41,0,0,0,14.07-2.62l1.58,6.62c-3.26,1.47-8.82,3.15-16.9,3.15-15.64,0-25-10.29-25-25.62s9-27.4,23.83-27.4c16.59,0,21,14.59,21,23.94a34.91,34.91,0,0,1-.32,4.3H504Zm27.09-6.61c0.1-5.88-2.42-15-12.81-15-9.34,0-13.44,8.61-14.17,15h27Z"/><path class="cls-6" d="M595.34,849.86v61.42c0,4.51.1,9.66,0.42,13.12h-8.29L587,915.59h-0.21c-2.83,5.67-9,10-17.32,10-12.28,0-21.73-10.39-21.73-25.83-0.1-16.9,10.39-27.3,22.78-27.3,7.77,0,13,3.67,15.33,7.77h0.21V849.86h9.24Zm-9.24,44.41a16.29,16.29,0,0,0-.42-3.88,13.59,13.59,0,0,0-13.33-10.71c-9.55,0-15.22,8.4-15.22,19.63,0,10.29,5,18.79,15,18.79a13.89,13.89,0,0,0,13.54-11,16,16,0,0,0,.42-4v-8.82Z"/><path class="cls-6" d="M633.24,854.58a95.14,95.14,0,0,1,17.54-1.47c9.76,0,16.06,1.79,20.47,5.77a17.63,17.63,0,0,1,5.56,13.44c0,9.34-5.88,15.54-13.33,18.06v0.31c5.46,1.89,8.71,6.93,10.39,14.28,2.31,9.87,4,16.69,5.46,19.42h-9.45c-1.16-2-2.73-8.08-4.72-16.9-2.1-9.76-5.88-13.44-14.17-13.75h-8.61v30.66h-9.13V854.58Zm9.13,32.23h9.35c9.76,0,16-5.35,16-13.44,0-9.13-6.62-13.12-16.27-13.23a37.53,37.53,0,0,0-9,.84v25.83Z"/><path class="cls-6" d="M695,900.68c0.21,12.5,8.19,17.64,17.43,17.64a33.42,33.42,0,0,0,14.07-2.62l1.58,6.62c-3.25,1.47-8.82,3.15-16.9,3.15-15.64,0-25-10.29-25-25.62s9-27.4,23.83-27.4c16.59,0,21,14.59,21,23.94a34.67,34.67,0,0,1-.32,4.3H695Zm27.09-6.61c0.11-5.88-2.41-15-12.81-15-9.35,0-13.44,8.61-14.17,15h27Z"/><path class="cls-6" d="M770.58,924.41l-0.74-6.4h-0.32A18.93,18.93,0,0,1,754,925.56c-10.29,0-15.54-7.25-15.54-14.59,0-12.28,10.92-19,30.55-18.9v-1c0-4.2-1.16-11.76-11.55-11.76A25.32,25.32,0,0,0,744.23,883l-2.1-6.09a31.54,31.54,0,0,1,16.69-4.51c15.54,0,19.32,10.6,19.32,20.79v19a71.56,71.56,0,0,0,.84,12.18h-8.4Zm-1.37-25.93c-10.08-.21-21.52,1.57-21.52,11.44,0,6,4,8.82,8.71,8.82a12.64,12.64,0,0,0,12.28-8.5,9.62,9.62,0,0,0,.53-2.94v-8.82Z"/><path class="cls-6" d="M793.05,849.86h9.24v74.55h-9.24V849.86Z"/><path class="cls-6" d="M828.12,859.31c0.11,3.15-2.21,5.67-5.88,5.67a5.49,5.49,0,0,1-5.57-5.67,5.63,5.63,0,0,1,5.77-5.77A5.48,5.48,0,0,1,828.12,859.31Zm-10.29,65.1V873.59h9.24v50.82h-9.24Z"/><path class="cls-6" d="M853.53,859v14.59h13.23v7H853.53V908c0,6.3,1.79,9.87,6.93,9.87a20.59,20.59,0,0,0,5.36-.63l0.42,6.93a22.61,22.61,0,0,1-8.19,1.26c-4.3,0-7.77-1.37-10-3.88-2.62-2.73-3.57-7.25-3.57-13.23V880.62h-7.87v-7h7.87V861.41Z"/><path class="cls-6" d="M881.46,873.59l11.13,30C893.74,907,895,911,895.84,914h0.21c0.94-3,2-6.93,3.25-10.6l10.08-29.82h9.76l-13.86,36.22c-6.61,17.43-11.13,26.35-17.43,31.81a25,25,0,0,1-11.34,6l-2.31-7.77a24.45,24.45,0,0,0,8.08-4.51A28,28,0,0,0,890.07,925a6.64,6.64,0,0,0,.74-2.21,8.06,8.06,0,0,0-.63-2.42l-18.79-46.83h10.08Z"/></g></svg>