<svg id="Layer_1" data-name="Layer 1" xmlns="http://www.w3.org/2000/svg" xmlns:xlink="http://www.w3.org/1999/xlink" viewBox="0 0 1001 1001"><defs><filter id="luminosity-invert-noclip" x="-0.5" y="-0.5" width="1001" height="1001" name="luminosity-invert-noclip"><feFlood result="bg" flood-color="#fff"/></filter><mask id="mask" x="0.5" y="0.5" width="9863.08" height="9863.08" maskUnits="userSpaceOnUse"><g id="mask-2" data-name="mask"><g style="filter:url(#luminosity-invert-noclip)"><path d="M448.94,11.18C231.57,33.5,33.5,231.57,11.18,448.94c-32.09,312.88,229,574,541.88,541.88C770.43,968.5,968.5,770.43,990.82,553.06,1022.92,240.17,761.83-20.92,448.94,11.18Z" style="fill:#c6c5c5"/></g></g></mask></defs><title>ICON08</title><g style="mask:url(#mask)"><rect x="0.5" y="0.5" width="1000" height="1000" style="fill:#933;fill-opacity:0"/></g><path d="M448.94,11.18C231.57,33.5,33.5,231.57,11.18,448.94c-32.09,312.88,229,574,541.88,541.88C770.43,968.5,968.5,770.43,990.82,553.06,1022.92,240.17,761.83-20.92,448.94,11.18Z" style="fill:#c6c5c5"/><g id="Layer_3_copy_16" data-name="Layer 3 copy 16"><rect x="37.5" y="821.5" width="926" height="144" rx="12" ry="12" style="fill:#383838"/><path d="M951.5,970.5H49.5a17,17,0,0,1-17-17v-120a17,17,0,0,1,17-17h902a17,17,0,0,1,17,17v120A17,17,0,0,1,951.5,970.5Zm-902-144a7,7,0,0,0-7,7h0v120a7,7,0,0,0,7,7h902a7,7,0,0,0,7-7v-120a7,7,0,0,0-7-7H49.5Z" style="fill:#c6c5c5"/></g><g id="_8_-_Artifical" data-name="8 - Artifical"><path d="M369.62,325.69H333.34a60,60,0,1,1,0-39.82h76.09v92.45H481V156.83c0-50.83-8.9-63.48-44.48-75.58S353.94,79.32,312,102.19,249.74,181,249.74,181s-62-15.25-120,105.48c-51.81,108-17.08,175.65-3.68,193h99.36a60,60,0,1,1,0,33.89H118.22a243,243,0,0,0-12.09,74.29c0,48.29,25.42,83.87,38.13,92.76,10.9,7.63,38.38,25.93,51,31.46a3.88,3.88,0,0,1,1.65,5.76c-9.18,13.39-30.43,55,3.25,94.95,43.36,51.43,88,55.39,99.24,54a2.55,2.55,0,0,1,2.79,2c2.67,11.9,20.46,54.32,75.88,68.6C436.46,952.14,481,932,481,873.55V607.85H360v77.44a60,60,0,1,1-33.89.06V574H481V418.14H369.62V325.69Z" style="fill:#404041"/><path d="M872.51,483.48c7.66-5.91,57.94-76.3,0-197S752.54,181,752.54,181s-20.33-55.91-62.27-78.78-89-33-124.53-20.94S521.26,106,521.26,156.83v132H677.89a60,60,0,1,1,0,33.89H521.26V719.63h78.1a60,60,0,1,1,0,33.89h-78.1v120c0,58.46,44.56,78.59,102.94,63.54,55.41-14.28,73.2-56.7,75.87-68.6a2.55,2.55,0,0,1,2.8-2c11.29,1.44,55.88-2.52,99.24-54,33.68-40,12.43-81.55,3.25-94.95a3.84,3.84,0,0,1-.53-1.13,5.42,5.42,0,0,1-.57-1.07l0,0a0.75,0.75,0,0,1-.15-0.23l-0.24-.28a12.11,12.11,0,0,1-.89-0.85c-0.46-.48-0.91-1-1.36-1.48-0.21-.22-0.41-0.45-0.63-0.66-0.06-.06-0.14-0.12-0.2-0.19h0l-0.12-.11a1.93,1.93,0,0,1-1-2h-0.08V618.5H633.66V529.85a60,60,0,1,1,33.89,0v54.75h165.9V696.72c9.71-6.16,19.16-12.55,24.56-16.33,12.71-8.9,38.13-44.47,38.13-92.76s-16.67-92.46-24.24-99.47C869.87,486.28,869.76,485.61,872.51,483.48Z" style="fill:#404041"/><g id="Layer_3_copy_16-2" data-name="Layer 3 copy 16"><rect x="37.5" y="821.5" width="926" height="144" rx="12" ry="12" style="fill:#383838"/><path d="M951.5,970.5H49.5a17,17,0,0,1-17-17v-120a17,17,0,0,1,17-17h902a17,17,0,0,1,17,17v120A17,17,0,0,1,951.5,970.5Zm-902-144a7,7,0,0,0-7,7h0v120a7,7,0,0,0,7,7h902a7,7,0,0,0,7-7v-120a7,7,0,0,0-7-7H49.5Z" style="fill:#c6c5c5"/></g><text transform="translate(51.13 924.9)" style="font-size:105px;fill:#fff;font-family:Myriad Pro">A<tspan x="63.95" y="0" style="letter-spacing:2px">r</tspan><tspan x="100.8" y="0">tificial </tspan><tspan x="384.29" y="0" style="letter-spacing:1px">I</tspan><tspan x="410.44" y="0">n</tspan><tspan x="468.29" y="0">t</tspan><tspan x="502.42" y="0">elligen</tspan><tspan x="798.72" y="0">c</tspan><tspan x="845.13" y="0">e</tspan></text></g></svg>