<svg id="Layer_1" data-name="Layer 1" xmlns="http://www.w3.org/2000/svg" viewBox="0 0 1001 1000.68"><defs><style>.cls-1{fill:#c6c5c5;}.cls-2{fill:#404041;}</style></defs><title>ICON01</title><rect class="cls-1" x="1" y="0.68" width="1000" height="1000"/><path class="cls-2" d="M-1-.68v1000H999V-0.68H-1Zm500.5,993c-272,0-492.5-220.5-492.5-492.5S227.52,7.32,499.52,7.32,992,227.82,992,499.82,771.52,992.32,499.52,992.32Z" transform="translate(0.98 0.68)"/><g id="COMPUTER"><path class="cls-2" d="M485.32,305.38c17.19-19.57,77.62-75.65,109.85-100s57.32-34.71,79.92-54.6c26.33-23.17,41.11-46,56.9-36.84s-13.81,38.15-23.68,50.65-40.13,63.15-50.65,80.91S571.49,350.11,555,366.55s-115.12,94.07-119.72,98-4.6,4.6-9.87,0-26.31-26.48-30.26-30.26c-3.62-3.47-5.15-6.56,0-13.16C407.43,405.49,455.71,339.09,485.32,305.38Z" transform="translate(0.98 0.68)"/><path class="cls-2" d="M876.88,747.45c-5.92-9.21-42.37-62.09-52-75.29-9.23-12.69-17.93-2.9-16.28-8,2.28-7,4.93-26.74,4.93-26.74s-2-371.76-2-404S789,197.92,779.11,197.26s-34.15,1.08-45.64,1.08c-9.3,0-11.26,6.88-11.26,6.88l-13.91,25.26c-5.9,5.9,2.63,16,2.63,16h52.3s8.39,387.28,8.39,399.45a106.88,106.88,0,0,1-1.48,16H630s-410.31-7.28-426.26-7.4c-3.47,0-6.6-2.11-9.19-4.78A27.59,27.59,0,0,1,187,630.46V260.81c0-10.2,2.63-12.8,8.88-12.8s42.43-.52,42.43-0.52H509c6,0,8.05-4.54,10.85-7,12.37-10.82,16.38-18.22,26.09-27.55H218.77c-27.63,0-44.26,1.29-54,7.51-7.75,5-12.35,18.61-12.35,27.81V438.91c0,38.15,5.47,182,5.92,187,3,33.05,14.12,33,13.63,36.31s-6.28,2.37-20.86,20.22c-6.72,8.23-24.79,36.19-31.9,44.85-4.44,5.4-16.45,27.71-6.58,41.36,12.83,17.75,39.8,22.53,39.8,22.53h694C872.11,791.17,882.8,756.66,876.88,747.45Zm-83-28.45H609.31c-10.36,0-12.33,4.32-9.87,6.79S606.35,738,598,738H404.08c-10.36,0-19.24-5.34-18.25-11.26S390.76,714,390.76,714H199.83s-23.19,4-21.71-2.86a39.09,39.09,0,0,1,5.67-12.78c3-5.92,11-18.48,30.71-18.48s528.94-1.1,547.69-.6,21.74-.19,27.66,9.25,10.87,15.51,11.86,17S810.11,719,793.83,719Z" transform="translate(0.98 0.68)"/><line class="cls-2" x1="546.98" y1="213.68" x2="546.98" y2="213.68"/><path class="cls-2" d="M389.41,445.92a10.59,10.59,0,0,1,3.05,2c4.41,4,17.86,16.58,21,19.87a19.32,19.32,0,0,1,5.92,12.08c0.49,5.92,2,29.11-5.43,43.42s-15.29,28.61-36.51,39.47-50.32,13.81-68.58,25.65S289.12,618,285.67,619s-18.75-48.35-15.79-88.31,27.63-68.08,54.76-77C350.42,445.27,377.07,440.85,389.41,445.92Z" transform="translate(0.98 0.68)"/></g></svg>