<svg id="Layer_1" data-name="Layer 1" xmlns="http://www.w3.org/2000/svg" xmlns:xlink="http://www.w3.org/1999/xlink" viewBox="0 0 1001 1001"><defs><filter id="luminosity-invert-noclip" x="-0.5" y="-0.5" width="1001" height="1001" name="luminosity-invert-noclip"><feFlood result="bg" flood-color="#fff"/></filter><mask id="mask" x="0.5" y="0.5" width="9863.08" height="9863.08" maskUnits="userSpaceOnUse"><g id="mask-2" data-name="mask"><g style="filter:url(#luminosity-invert-noclip)"><path d="M448.94,11.18C231.57,33.5,33.5,231.57,11.18,448.94c-32.09,312.88,229,574,541.88,541.88C770.43,968.5,968.5,770.43,990.82,553.06,1022.92,240.17,761.83-20.92,448.94,11.18Z" style="fill:#c6c5c5"/></g></g></mask></defs><title>ICON06</title><g style="mask:url(#mask)"><rect x="0.5" y="0.5" width="1000" height="1000" style="fill:#933;fill-opacity:0"/></g><path d="M448.94,11.18C231.57,33.5,33.5,231.57,11.18,448.94c-32.09,312.88,229,574,541.88,541.88C770.43,968.5,968.5,770.43,990.82,553.06,1022.92,240.17,761.83-20.92,448.94,11.18Z" style="fill:#c6c5c5"/><g id="Layer_8" data-name="Layer 8"><path d="M225.41,722.32C141.31,601.47,102,472.2,181.93,323c73.5-137.22,202.65-205.82,386.68-177.82,177.42,27,222.87,103.94,269,204,39.86,86.43,21.48,193.73-18.76,289.17" style="fill:none;stroke:#000;stroke-miterlimit:10;stroke-width:20px;stroke-dasharray:40,40"/><polygon points="751.4 552.26 729.15 750.44 911.92 670.65 751.4 552.26"/><path d="M488,579.93c6.8-5.19,12.35-12.75,15.94-17.93s4.78-10.36,12-5.18,40.86,22.6,58.17,30.28c42.9,19,59,26.7,68.53,30.28s11.5,6.63,4.38,10c-6.59,3.08-13.42,7.34-21.91,12.75-8.87,5.65-24.16,16.73-29.88,26.34s-9.16,26.66-9.56,41.8,1.16,37.35,10,51.8c10.32,16.94,43.81,39.48,78.89,81.68,41.56,50,58.55,79,71.32,98,12,17.9,43.08,66.81,37.45,69.48-4.65,2.21-16.22,1-32.4,1.39-14.35.34-413,.38-419.43,0.41-8.89,0-18.33-1.61-17.93-17.15s7.17-56.12,21.52-96.36S373.65,831,377.24,807s-5.18-123.92-16.73-131.49-51.4-17.93-62.56-21.91-18.73-11.55-17.53-29.48,4.38-55.38,4.78-59,4-2.39,12,1.2,44.23,24.3,114.35,24.7S481.9,584.59,488,579.93Z" style="fill:#404041"/><path d="M473,543.87c0.08,3.19-5,5.83-13.71,7.37-8,1.41-37.06,3.59-71.32-3.59s-115.55-33.07-128.7-39.45-26.3-14.74-15.54-41S310.3,315.77,314.68,307.8s14.34-21.91,37.85-12,62.56,30.68,89.25,47,67,55.6,76.1,70.13c7.58,12.1,10.33,21.35,8,24.3-1.42,1.77-4.43,1.76-12-2-8.25-4.12-15.94-9.56-23.11,4.38s-34.59,74.11-36.43,78.52c-2.5,6-1.58,11.38,4,14.17S472.86,537.2,473,543.87Z" style="fill:#212120"/><path d="M561,446.58c-1.13-4.43-.71-4.72-1.71-23.84-0.79-15.28-4-31-21.63-55.2S507,334.7,471,315.7c-18.61-9.82-40.8-14.28-30-18.67s59.89-26.7,119.59-19.52,112.7,44.81,138.6,86.35,33.07,89.36,30.28,120.44-5.58,36.66-8.37,39-13.95-2.79-17.53-4.38-125-59-130.53-61.39S562.44,452.11,561,446.58Z" style="fill:#404041"/><path d="M498.32,504.29c1.73-3.91,12.8-28,13.7-30.06s3.51-2.95,6.37-1.68c4.52,2,179.42,80.89,184.15,82.92a5.69,5.69,0,0,1,2.87,8.23c-3.26,6.19-11.84,23.61-13.8,27.29-3.07,5.76-3.78,7.37-13.94,2.88s-172.16-77.2-178.16-80C496.27,512.4,496,509.5,498.32,504.29Z" style="fill:#404041"/><g id="Layer_3_copy_16" data-name="Layer 3 copy 16"><rect x="37.5" y="821.5" width="926" height="144" rx="12" ry="12" style="fill:#383838"/><path d="M951.5,970.5H49.5a17,17,0,0,1-17-17v-120a17,17,0,0,1,17-17h902a17,17,0,0,1,17,17v120A17,17,0,0,1,951.5,970.5Zm-902-144a7,7,0,0,0-7,7h0v120a7,7,0,0,0,7,7h902a7,7,0,0,0,7-7v-120a7,7,0,0,0-7-7H49.5Z" style="fill:#c6c5c5"/></g><text transform="translate(284.22 923.83)" style="font-size:105px;fill:#fff;font-family:Myriad Pro">360<tspan x="161.59" y="0" style="letter-spacing:-3px"> </tspan><tspan x="180.07" y="0" style="letter-spacing:-1px">V</tspan><tspan x="236.98" y="0">ideo</tspan></text></g></svg>