<svg id="Layer_1" data-name="Layer 1" xmlns="http://www.w3.org/2000/svg" xmlns:xlink="http://www.w3.org/1999/xlink" viewBox="0 0 1001 1001"><defs><filter id="luminosity-invert-noclip" x="-0.5" y="-0.5" width="1001" height="1001" name="luminosity-invert-noclip"><feFlood result="bg" flood-color="#fff"/></filter><mask id="mask" x="0.5" y="0.5" width="9863.08" height="9863.08" maskUnits="userSpaceOnUse"><g id="mask-2" data-name="mask"><g style="filter:url(#luminosity-invert-noclip)"><path d="M448.94,11.18C231.57,33.5,33.5,231.57,11.18,448.94c-32.09,312.88,229,574,541.88,541.88C770.43,968.5,968.5,770.43,990.82,553.06,1022.92,240.17,761.83-20.92,448.94,11.18Z" style="fill:#c6c5c5"/></g></g></mask></defs><title>ICON02</title><g style="mask:url(#mask)"><rect x="0.5" y="0.5" width="1000" height="1000" style="fill:#933;fill-opacity:0"/></g><path d="M448.94,11.18C231.57,33.5,33.5,231.57,11.18,448.94c-32.09,312.88,229,574,541.88,541.88C770.43,968.5,968.5,770.43,990.82,553.06,1022.92,240.17,761.83-20.92,448.94,11.18Z" style="fill:#c6c5c5"/><g id="Layer_3_copy_16" data-name="Layer 3 copy 16"><rect x="37.5" y="821.5" width="926" height="144" rx="12" ry="12" style="fill:#383838"/><path d="M951.5,970.5H49.5a17,17,0,0,1-17-17v-120a17,17,0,0,1,17-17h902a17,17,0,0,1,17,17v120A17,17,0,0,1,951.5,970.5Zm-902-144a7,7,0,0,0-7,7h0v120a7,7,0,0,0,7,7h902a7,7,0,0,0,7-7v-120a7,7,0,0,0-7-7H49.5Z" style="fill:#c6c5c5"/></g><g id="_3D" data-name="3D"><text transform="translate(289.25 924.4)" style="font-size:105px;fill:#fff;font-family:Myriad Pro">3D <tspan x="146.05" y="0">D</tspan><tspan x="216.4" y="0">esi</tspan><tspan x="335.15" y="0">g</tspan><tspan x="393.22" y="0">n</tspan></text><path d="M920.53,479.6c-45.09-139.37-133.22-165-167-171.13s-206-22.54-206-22.54H523l62.4,432.45,253.11-12.3C902.08,692.74,965.62,619,920.53,479.6ZM774,591.29c-12.3,1-64.56,0-64.56,0L673.56,395.57s52.26-2,85.05,10.25,63.53,44.06,70.71,113.75S786.28,590.27,774,591.29Z" style="fill:#404041"/><path d="M108.24,404.45s-1.37-86.76,60.12-118.53,195.39-30.4,269.17,20.15,67,95.64,64.22,113.41-45.09,46.46-56,47.82,61.49,6.83,83.35,64.22-8.46,136.91-80.61,179c-69.05,40.27-223.55,32.38-286.93-28.69C73.08,596.59,97.31,524.68,97.31,524.68l164,2.73s5.47,77.88,72.42,77.88,75.15-23.23,69.68-53.29-38.26-46.46-65.58-47.82-54.65,0-54.65,0l-9.56-79.25s57.39,6.83,83.35,0,51.92-32.79,9.56-60.12-83.35-15-99.74,1.37-9.56,50.55-9.56,50.55Z" style="fill:#404041"/></g></svg>