<?xml version="1.0" encoding="utf-8"?>
<!-- Generator: Adobe Illustrator 19.2.1, SVG Export Plug-In . SVG Version: 6.00 Build 0)  -->
<svg version="1.1" id="Layer_2" xmlns="http://www.w3.org/2000/svg" xmlns:xlink="http://www.w3.org/1999/xlink" x="0px" y="0px"
	 viewBox="0 0 1001 1001" style="enable-background:new 0 0 1001 1001;" xml:space="preserve">
<style type="text/css">
	.st0{fill:#C6C5C5;stroke:#000000;stroke-miterlimit:10;}
	.st1{fill:#404041;}
</style>
<g>
	<rect x="3" y="-1" class="st0" width="1000" height="1000"/>
	<path class="st1" d="M376.6,323.7h-36.3c-8.2,23.4-30.5,40.1-56.6,40.1c-33.2,0-60-26.9-60-60c0-33.2,26.9-60,60-60
		c26.2,0,48.4,16.8,56.6,40.1h76.1v92.4H488c0-123.6,0-221.5,0-221.5c0-50.8-8.9-63.5-44.5-75.6c-35.6-12.1-82.6-1.9-124.5,20.9
		S256.7,179,256.7,179s-62-15.3-120,105.5c-51.8,108-17.1,175.7-3.7,193h99.4c7.3-24.9,30.3-43.1,57.6-43.1c33.2,0,60,26.9,60,60
		s-26.9,60-60,60c-27.3,0-50.3-18.2-57.6-43.1H125.2c-6.3,18.8-12.1,45.8-12.1,74.3c0,48.3,25.4,83.9,38.1,92.8
		c10.9,7.6,38.4,25.9,51,31.5c2.2,1,3,3.7,1.7,5.8c-9.2,13.4-30.4,55,3.3,94.9c43.4,51.4,88,55.4,99.2,54c1.3-0.2,2.5,0.7,2.8,2
		c2.7,11.9,20.5,54.3,75.9,68.6c58.4,15,102.9-5.1,102.9-63.5c0-22.7,0-135.8,0-265.7H367v77.4c25,7.3,43.2,30.3,43.2,57.6
		c0,33.2-26.9,60-60,60c-33.2,0-60-26.9-60-60c0-27.2,18.1-50.2,43-57.6V572H488c0-51.8,0-105.2,0-155.8H376.6V323.7z"/>
	<path class="st1" d="M879.5,481.5c7.7-5.9,57.9-76.3,0-197c-57.9-120.7-120-105.5-120-105.5s-20.3-55.9-62.3-78.8
		c-41.9-22.9-89-33-124.5-20.9c-35.6,12.1-44.5,24.8-44.5,75.6c0,0,0,53.8,0,132h156.6c7.3-24.9,30.3-43.1,57.6-43.1
		c33.2,0,60,26.9,60,60c0,33.2-26.9,60-60,60c-27.3,0-50.3-18.2-57.6-43.1H528.2v396.9h78.1c7.3-24.9,30.3-43.1,57.6-43.1
		c33.2,0,60,26.9,60,60s-26.9,60-60,60c-27.3,0-50.3-18.2-57.6-43.1h-78.1v120c0,58.5,44.6,78.6,102.9,63.5
		c55.4-14.3,73.2-56.7,75.9-68.6c0.3-1.3,1.5-2.1,2.8-2c11.3,1.4,55.9-2.5,99.2-54c33.7-40,12.4-81.6,3.3-94.9
		c-0.2-0.4-0.4-0.7-0.5-1.1c-0.2-0.3-0.4-0.7-0.6-1.1c0,0,0,0,0,0c-0.1-0.1-0.1-0.2-0.1-0.2c-0.1-0.1-0.2-0.2-0.2-0.3
		c-0.3-0.3-0.6-0.6-0.9-0.9c-0.5-0.5-0.9-1-1.4-1.5c-0.2-0.2-0.4-0.4-0.6-0.7c-0.1-0.1-0.1-0.1-0.2-0.2c0,0,0,0,0,0
		c0,0-0.1-0.1-0.1-0.1c-0.7-0.4-1.1-1.2-1-2h-0.1v-91.1H640.6v-88.6c-24.9-7.3-43.1-30.3-43.1-57.6c0-33.2,26.9-60,60-60
		c33.2,0,60,26.9,60,60c0,27.3-18.2,50.3-43.1,57.6v54.8h165.9v112.1c9.7-6.2,19.2-12.5,24.6-16.3c12.7-8.9,38.1-44.5,38.1-92.8
		s-16.7-92.5-24.2-99.5C876.8,484.3,876.7,483.6,879.5,481.5z"/>
</g>
<path class="st1" d="M2-2V998h1000V-2H2z M502.4,991C230.4,991,9.9,770.5,9.9,498.5S230.4,6,502.4,6s492.5,220.5,492.5,492.5
	S774.4,991,502.4,991z"/>
</svg>
