<svg id="Layer_1" data-name="Layer 1" xmlns="http://www.w3.org/2000/svg" xmlns:xlink="http://www.w3.org/1999/xlink" viewBox="0 0 1001 1001"><defs><filter id="luminosity-invert-noclip" x="-0.5" y="-0.5" width="1001" height="1001" name="luminosity-invert-noclip"><feFlood result="bg" flood-color="#fff"/></filter><mask id="mask" x="0.5" y="0.5" width="9863.08" height="9863.08" maskUnits="userSpaceOnUse"><g id="mask-2" data-name="mask"><g style="filter:url(#luminosity-invert-noclip)"><path d="M448.94,11.18C231.57,33.5,33.5,231.57,11.18,448.94c-32.09,312.88,229,574,541.88,541.88C770.43,968.5,968.5,770.43,990.82,553.06,1022.92,240.17,761.83-20.92,448.94,11.18Z" style="fill:#c6c5c5"/></g></g></mask></defs><title>ICON07</title><g style="mask:url(#mask)"><rect x="0.5" y="0.5" width="1000" height="1000" style="fill:#933;fill-opacity:0"/></g><path d="M448.94,11.18C231.57,33.5,33.5,231.57,11.18,448.94c-32.09,312.88,229,574,541.88,541.88C770.43,968.5,968.5,770.43,990.82,553.06,1022.92,240.17,761.83-20.92,448.94,11.18Z" style="fill:#c6c5c5"/><g id="Layer_3_copy_16" data-name="Layer 3 copy 16"><rect x="37.5" y="821.5" width="926" height="144" rx="12" ry="12" style="fill:#383838"/><path d="M951.5,970.5H49.5a17,17,0,0,1-17-17v-120a17,17,0,0,1,17-17h902a17,17,0,0,1,17,17v120A17,17,0,0,1,951.5,970.5Zm-902-144a7,7,0,0,0-7,7h0v120a7,7,0,0,0,7,7h902a7,7,0,0,0,7-7v-120a7,7,0,0,0-7-7H49.5Z" style="fill:#c6c5c5"/></g><g id="_7_-_AR" data-name="7 - AR"><path d="M610.14,400.73l-2-3.85a13.11,13.11,0,0,1,5.59-17.68l45.85-23.57A13.11,13.11,0,0,0,666.66,344V301.78a13.11,13.11,0,0,1,13.11-13.11h4.34a13.11,13.11,0,0,1,13.11,13.11v60.78a13.11,13.11,0,0,1-7.07,11.64l-62.33,32.13A13.11,13.11,0,0,1,610.14,400.73Z" style="fill:#333"/><path d="M574.34,416.43h0a13.37,13.37,0,0,0-17.92-6l-39.79,21.07a1.63,1.63,0,0,1-2.35-1.46v-32.9a13.37,13.37,0,0,0-13.37-13.37l-0.47,0-0.47,0a13.37,13.37,0,0,0-13.37,13.37V430a1.63,1.63,0,0,1-2.35,1.46L444.47,410.4a13.37,13.37,0,0,0-17.92,6h0a13.37,13.37,0,0,0,6,17.92L494,466.18a13.25,13.25,0,0,0,6.05,1.39h0.72a13.25,13.25,0,0,0,6.05-1.39l61.45-31.83A13.37,13.37,0,0,0,574.34,416.43Z" style="fill:#333"/><path d="M688.47,159.51l-54.2-26.79a15.28,15.28,0,0,0-13.49,27.42l28.91,14.32-34.38,18a14.64,14.64,0,0,0,13.61,25.93l37.53-19.69v35.17a15.28,15.28,0,0,0,15.28,15.28h0A15.28,15.28,0,0,0,697,233.92v-60.7A15.28,15.28,0,0,0,688.47,159.51Z" style="fill:#333"/><path d="M392,400.73l2-3.85a13.11,13.11,0,0,0-5.59-17.68l-45.85-23.57A13.11,13.11,0,0,1,335.45,344V301.78a13.11,13.11,0,0,0-13.11-13.11H318a13.11,13.11,0,0,0-13.11,13.11v60.78A13.11,13.11,0,0,0,312,374.2l62.33,32.13A13.11,13.11,0,0,0,392,400.73Z" style="fill:#333"/><path d="M313.63,159.51l54.2-26.79a15.28,15.28,0,0,1,13.49,27.42l-28.91,14.32,34.38,18a14.64,14.64,0,0,1-13.61,25.93l-37.53-19.69v35.17a15.28,15.28,0,0,1-15.28,15.28h0a15.28,15.28,0,0,1-15.28-15.28v-60.7A15.28,15.28,0,0,1,313.63,159.51Z" style="fill:#333"/><path d="M574.76,230.1h0a14.64,14.64,0,0,0-19.7-6.38l-53.77,27.2-55.07-27.19A14.64,14.64,0,0,0,433.36,250l53.05,26.19,0,54.76a14.64,14.64,0,0,0,14.71,14.58h0a14.64,14.64,0,0,0,14.58-14.71l0-54.42,52.68-26.65A14.64,14.64,0,0,0,574.76,230.1Z" style="fill:#333"/><path d="M553.95,125.65L503.45,98.08a4.5,4.5,0,0,0-4.1,0l-45.26,23.7a14.64,14.64,0,0,1-19.71-6.35h0a14.64,14.64,0,0,1,6.35-19.71L498,65.86a7.38,7.38,0,0,1,6.73,0l62.53,33.71a14.64,14.64,0,0,1,6.38,19.7h0A14.64,14.64,0,0,1,553.95,125.65Z" style="fill:#333"/><path d="M846.55,791.42l-691.28,1.27a17.57,17.57,0,0,1-11.51-4,16.71,16.71,0,0,1-4.86-18.18L260.14,424.42a16.72,16.72,0,0,1,15.76-11.17h43.56a15.28,15.28,0,0,1,15.28,15.28h0a15.28,15.28,0,0,1-15.28,15.28H286a0.39,0.39,0,0,0-.37.26L174.39,761.61a0.39,0.39,0,0,0,.37.52L827,760.86a0.39,0.39,0,0,0,.37-0.52L716.22,444.06a0.39,0.39,0,0,0-.37-0.26h-29a15.28,15.28,0,0,1-15.28-15.28h0a15.28,15.28,0,0,1,15.28-15.28h38.83a17.09,17.09,0,0,1,16.11,11.38L862.9,769.15a16.71,16.71,0,0,1-4.82,18.2A17.55,17.55,0,0,1,846.55,791.42Z" style="fill:#333"/><path d="M712.74,618.16L698.8,561.67A12.68,12.68,0,0,0,686.49,552H605.93l-7.44-68.29a15.28,15.28,0,0,0-30.36,3.52l7,64.77h-59V535.69a15.28,15.28,0,0,0-15.28-15.28h0a15.28,15.28,0,0,0-15.28,15.28V552H412l-0.86.16c-11,0-16.08,3-17.16,14.38l-5.1,38.14c-0.22,1.58-1.57,4-3.16,4H310a20.81,20.81,0,0,0-20.33,16.39l-15.57,71.55a14.07,14.07,0,0,0,13.74,17.06H394.94a13,13,0,0,0,12.84-11.2L416,642.42a2.12,2.12,0,0,1,2.1-1.83h67.51V699.1a15.28,15.28,0,0,0,15.28,15.28H606.6a15.28,15.28,0,0,0,15.18-17l-6.19-56.76h79.59A18.09,18.09,0,0,0,712.74,618.16ZM383.69,643.88l-4.74,34.6a4,4,0,0,1-3.94,3.44H313.3a2.72,2.72,0,0,1-2.66-3.3l7.48-34.37a4.64,4.64,0,0,1,4.54-3.66h58.16A2.9,2.9,0,0,1,383.69,643.88Zm194.9-61.29,2.69,26.16H516.19V582.6h62.4ZM423.34,608.75a2.36,2.36,0,0,1-2.34-2.68l2.8-21.69a2.08,2.08,0,0,1,2.06-1.8h59.77v26.16H423.34Zm165.57,70.47a4.13,4.13,0,0,1-4.1,4.6h-64a4.61,4.61,0,0,1-4.61-4.61V640.59h68.54Zm84.59-70.47H612.12L609.4,582.6h59.54a3.25,3.25,0,0,1,3.16,2.47l4.55,19.68A3.23,3.23,0,0,1,673.5,608.75Z" style="fill:#333"/><text transform="translate(80.11 924.5)" style="font-size:105px;fill:#fff;font-family:Myriad Pro"><tspan style="letter-spacing:-1px">A</tspan><tspan x="63" y="0">u</tspan><tspan x="120.85" y="0">g</tspan><tspan x="178.92" y="0">me</tspan><tspan x="319.09" y="0">n</tspan><tspan x="376.95" y="0">t</tspan><tspan x="411.07" y="0">ed </tspan><tspan x="545.16" y="0">R</tspan><tspan x="602.06" y="0">eali</tspan><tspan x="754.63" y="0">t</tspan><tspan x="790.32" y="0">y</tspan></text></g></svg>