<svg id="_3_-_2D_Design_copy" data-name="3 - 2D Design copy" xmlns="http://www.w3.org/2000/svg" viewBox="0 0 1000 1000"><defs><style>.cls-1{fill:#c6c5c5;}.cls-2{fill:#404041;}.cls-3{fill:#383838;}.cls-4{fill:#fff;}</style></defs><title>ICON03</title><g id="BACKGROUND"><rect class="cls-1" width="1000" height="1000"/></g><g id="_08" data-name="08"><path class="cls-2" d="M262.37,424.06S259.08,396,280,360.13,353,291,381.8,320.32s14.34,73,0,103.74S183.52,801.14,183.52,801.14L471.2,671.92V588.43L342.67,644.51s72.45-124.56,84.17-148.78,36.52-72.45,44.36-125.24S474.5,270,441.85,234.11s-50.85-29.35-72.45-30S302.18,208,247.45,268s-60.64,112.84-63.93,135-5.23,57.44-5.23,57.44Z"/><path class="cls-2" d="M800.92,163.4c-28.38-78.26-100.45-64.22-109.26-61.31s-170.57,56.47-170.57,56.47V647.81s138-60.44,178.71-86.11a227.57,227.57,0,0,0,70.13-70.32c21.5-34.29,32-58.41,43.2-112.55C824.17,326.23,829.3,241.67,800.92,163.4ZM751,369.23c-4.94,25.77-11.33,57.34-40.29,95.7C684.11,500.19,663,506,650.11,512.3c-8.81,4.26-60.54,25.47-60.54,25.47s2.52-303.18,2.52-311.6c0-4.55,3.68-7.75,12.2-10.65,9.69-3.39,69.45-24.41,77.3-26.06,8.62-1.84,50.85-10.46,66.83,48.24S756,343.47,751,369.23Z"/></g><g id="RING"><path d="M0,0V1000H1000V0H0ZM500.5,993C228.5,993,8,772.5,8,500.5S228.5,8,500.5,8,993,228.5,993,500.5,772.5,993,500.5,993Z"/></g><g id="Layer_3_copy_10" data-name="Layer 3 copy 10"><rect class="cls-3" x="37" y="821" width="926" height="144" rx="12" ry="12"/><path class="cls-1" d="M951,970H49a17,17,0,0,1-17-17V833a17,17,0,0,1,17-17H951a17,17,0,0,1,17,17V953A17,17,0,0,1,951,970ZM49,826a7,7,0,0,0-7,7V953a7,7,0,0,0,7,7H951a7,7,0,0,0,7-7V833a7,7,0,0,0-7-7H49Z"/><path class="cls-4" d="M277.94,924.41v-5.67l7.25-7c17.43-16.59,25.3-25.41,25.41-35.7,0-6.93-3.36-13.33-13.54-13.33-6.19,0-11.34,3.15-14.49,5.77l-2.94-6.51A30,30,0,0,1,298.94,855c14.7,0,20.89,10.08,20.89,19.84,0,12.6-9.13,22.78-23.52,36.64l-5.46,5v0.21h30.66v7.67H277.94Z"/><path class="cls-4" d="M335.06,854.58a130.86,130.86,0,0,1,19.42-1.47c13.12,0,22.47,3,28.66,8.82s10,14,10,25.41-3.57,21-10.18,27.51S365.4,925,351.65,925a147.35,147.35,0,0,1-16.59-.84V854.58Zm9.13,62.58a57.69,57.69,0,0,0,9.24.53c19.53,0,30.13-10.92,30.13-30,0.1-16.69-9.34-27.3-28.66-27.3a51.94,51.94,0,0,0-10.71.95v55.86Z"/><path class="cls-4" d="M427.25,854.58a130.86,130.86,0,0,1,19.42-1.47c13.12,0,22.47,3,28.66,8.82s10,14,10,25.41-3.57,21-10.18,27.51S457.59,925,443.84,925a147.35,147.35,0,0,1-16.59-.84V854.58Zm9.13,62.58a57.69,57.69,0,0,0,9.24.53c19.53,0,30.13-10.92,30.13-30,0.1-16.69-9.34-27.3-28.66-27.3a51.94,51.94,0,0,0-10.71.95v55.86Z"/><path class="cls-4" d="M502.43,900.68c0.21,12.5,8.19,17.64,17.43,17.64a33.41,33.41,0,0,0,14.07-2.62l1.58,6.62c-3.26,1.47-8.82,3.15-16.9,3.15-15.64,0-25-10.29-25-25.62s9-27.4,23.83-27.4c16.59,0,21,14.59,21,23.94a34.91,34.91,0,0,1-.32,4.3h-35.7Zm27.09-6.61c0.1-5.88-2.42-15-12.81-15-9.34,0-13.44,8.61-14.17,15h27Z"/><path class="cls-4" d="M548.63,915a24.22,24.22,0,0,0,12.18,3.67c6.72,0,9.87-3.36,9.87-7.56,0-4.41-2.62-6.83-9.45-9.34-9.13-3.25-13.44-8.29-13.44-14.38,0-8.19,6.62-14.91,17.53-14.91a25.37,25.37,0,0,1,12.5,3.15l-2.31,6.72a19.78,19.78,0,0,0-10.39-2.94c-5.46,0-8.5,3.15-8.5,6.93,0,4.2,3,6.09,9.66,8.61,8.82,3.36,13.33,7.77,13.33,15.33,0,8.92-6.93,15.22-19,15.22A29,29,0,0,1,546.31,922Z"/><path class="cls-4" d="M601.75,859.31c0.11,3.15-2.21,5.67-5.88,5.67a5.49,5.49,0,0,1-5.57-5.67,5.63,5.63,0,0,1,5.77-5.77A5.48,5.48,0,0,1,601.75,859.31Zm-10.29,65.1V873.59h9.24v50.82h-9.24Z"/><path class="cls-4" d="M659.82,873.59c-0.21,3.67-.42,7.77-0.42,14v29.5c0,11.65-2.31,18.79-7.25,23.2-4.93,4.62-12.07,6.09-18.48,6.09-6.09,0-12.81-1.47-16.9-4.2l2.31-7a28.66,28.66,0,0,0,14.91,4c9.45,0,16.38-4.93,16.38-17.74v-5.67h-0.21c-2.83,4.72-8.29,8.5-16.17,8.5-12.6,0-21.63-10.71-21.63-24.78,0-17.22,11.23-27,22.89-27,8.82,0,13.65,4.62,15.85,8.82h0.21l0.42-7.67h8.08Zm-9.55,20.05a13.16,13.16,0,0,0-.53-4.2c-1.68-5.35-6.19-9.76-12.91-9.76-8.82,0-15.12,7.46-15.12,19.21,0,10,5,18.27,15,18.27a13.51,13.51,0,0,0,12.81-9.45,16.06,16.06,0,0,0,.74-4.93v-9.13Z"/><path class="cls-4" d="M674.1,887.34c0-5.25-.11-9.55-0.42-13.75h8.19l0.52,8.4h0.21a18.69,18.69,0,0,1,16.8-9.55c7,0,18,4.2,18,21.63v30.34h-9.24V895.11c0-8.19-3-15-11.76-15A13.13,13.13,0,0,0,684,889.55a13.28,13.28,0,0,0-.63,4.3v30.55H674.1V887.34Z"/></g></svg>