<?xml version="1.0" encoding="utf-8"?>
<!-- Generator: Adobe Illustrator 22.0.0, SVG Export Plug-In . SVG Version: 6.00 Build 0)  -->
<svg version="1.1" id="Layer_1" xmlns="http://www.w3.org/2000/svg" xmlns:xlink="http://www.w3.org/1999/xlink" x="0px" y="0px"
	 viewBox="0 0 211.5 249.7" style="enable-background:new 0 0 211.5 249.7;" xml:space="preserve">
<style type="text/css">
	.st0{fill:#F8991D;}
	.st1{fill:#FFFFFF;}
</style>
<g>
	<g>
		<line class="st0" x1="105.7" y1="135.6" x2="105.7" y2="135.6"/>
		<path class="st0" d="M103.4,53.2c4.7-5.4,21.3-20.8,30.2-27.5c8.9-6.7,15.8-9.5,22-15c7.2-6.4,11.3-12.6,15.6-10.1
			c4.3,2.5-3.8,10.5-6.5,13.9c-2.7,3.4-11,17.4-13.9,22.2c-2.9,4.9-23.7,28.7-28.2,33.3c-4.5,4.5-31.6,25.9-32.9,26.9
			c-1.3,1.1-1.3,1.3-2.7,0c-1.4-1.3-7.2-7.3-8.3-8.3c-1-1-1.4-1.8,0-3.6C82,80.7,95.3,62.4,103.4,53.2z"/>
		<path class="st0" d="M211,174.6c-1.6-2.5-11.6-17.1-14.3-20.7c-2.5-3.5-4.1-1.3-3.6-2.7c0.5-1.7,0.4-5.7,0.5-6.6
			c0-0.1,0-0.2,0-0.4c0-4.7-0.5-100.8-0.5-109.5c0-5.7-5.2-6.9-8-6.9c-2.9,0-15.6,0-18.7,0c-2.1,0-2.6,1.5-2.6,1.5
			c-0.5,0.9-2.3,4-3.4,5.7c-0.7,1.2-0.3,1.9,1,1.9h22.8c0,0,1.4,103.3,1.4,106.7c0,2.1,0.5,7.4,0.5,7.4h-42.9c0,0-112.7-2-117.1-2
			c-2.3,0-4.1-3.4-4.5-4.3c-0.1-0.1-0.1-0.3-0.1-0.5V40.9c0-2.8,0.7-3.5,2.4-3.5c1.7,0,11.7-0.1,11.7-0.1H110c1.6,0,2.2-1.2,3-1.9
			c3.4-3,4.5-5,7.2-7.6H30.2c-7.6,0-12.2,0.4-14.8,2.1c-2.1,1.4-3.4,5.1-3.4,7.6v52.4c0,10.5,1.5,50,1.6,51.4
			c0.8,9.1,3.9,9.1,3.7,10c-0.1,0.9-1.7,0.6-5.7,5.6c-1.8,2.3-6.8,9.9-8.8,12.3c-1.2,1.5-4.5,7.6-1.8,11.4
			c3.5,4.9,10.9,6.2,10.9,6.2h190.7C209.7,186.6,212.7,177.2,211,174.6z M188.2,166.8h-50.7c-2.8,0-3.4,1.2-2.7,1.9
			c0.7,0.7,1.9,3.4-0.4,3.4H81.1c-2.8,0-5.3-1.5-5-3.1c0.3-1.6,1.4-3.5,1.4-3.5H25c0,0-6.4,1.1-6-0.8c0.3-1.3,0.8-2.4,1.6-3.5
			c0.8-1.6,3-5.1,8.4-5.1c5.4,0,145.3-0.3,150.5-0.2c5.2,0.1,6-0.1,7.6,2.5c1.6,2.6,3,4.3,3.3,4.7
			C190.6,163.5,192.7,166.8,188.2,166.8L188.2,166.8z"/>
		<path class="st0" d="M77.1,91.8c0.3,0.1,0.6,0.3,0.8,0.6c1.2,1.1,4.9,4.6,5.8,5.5c0.9,0.9,1.5,2.1,1.6,3.3c0.1,1.6,0.5,8-1.5,11.9
			c-2,3.9-4.2,7.9-10,10.8c-5.8,3-13.8,3.8-18.8,7c-5,3.3-5.4,8.1-6.4,8.4c-0.9,0.3-5.2-13.3-4.3-24.3c0.8-11,7.6-18.7,15-21.2
			C66.4,91.6,73.7,90.4,77.1,91.8z"/>
	</g>
	<g>
		<path class="st1" d="M36.5,249.4v-31.5h3.6c4.3,0,6.6,0.9,7.8,3.3c1.2,2.4,1.4,6.3,1.4,12.5c0,6.2-0.2,10.1-1.4,12.5
			c-1.2,2.4-3.6,3.3-7.8,3.3H36.5z M41.2,244.7c1.6,0,2.5-0.2,3-1.7c0.2-0.7,0.4-1.8,0.4-3.3c0-1.5,0-3.5,0-6.1c0-2.6,0-4.6,0-6.1
			c0-1.5-0.2-2.6-0.4-3.3c-0.5-1.5-1.4-1.7-3-1.7V244.7z"/>
		<path class="st1" d="M52.5,217.9h4.6v31.5h-4.6V217.9z"/>
		<path class="st1" d="M67.9,229.2v-4.8c0-0.9-0.2-1.5-0.6-2c-0.2-0.2-0.6-0.3-0.9-0.3c-0.8,0-1.2,0.6-1.4,1.2
			c-0.1,0.3-0.2,0.7-0.2,1.2v18.9c0,0.9,0.2,1.5,0.6,2c0.2,0.2,0.5,0.3,0.9,0.3c0.8,0,1.2-0.5,1.4-1.2c0.1-0.3,0.2-0.7,0.2-1.2v-5.7
			h-1.8v-3.9h6.5v15.7h-2.7l-0.6-1.5c-0.9,1.1-2.1,1.8-3.6,1.8c-1.5,0-2.5-0.4-3.3-1.1c-0.8-0.6-1.3-1.5-1.6-2.3
			c-0.4-1-0.6-2.1-0.5-3.4v-18.5c0-1.2,0.3-2.4,0.8-3.4c0.4-0.9,0.9-1.7,1.8-2.4c0.9-0.6,2.1-1.1,3.6-1.1c1.5,0,2.7,0.4,3.6,1.1
			c0.9,0.6,1.5,1.5,1.8,2.4c0.5,1,0.7,2.1,0.8,3.4v4.8H67.9z"/>
		<path class="st1" d="M75.9,217.9h4.6v31.5h-4.6V217.9z"/>
		<path class="st1" d="M82.3,222.7v-4.8h13.4v4.8h-4.4v26.7h-4.6v-26.7H82.3z"/>
		<path class="st1" d="M95.2,249.4l4.8-31.5h5.6l4.8,31.5h-4.5l-0.9-6.4h-4.5l-0.9,6.4H95.2z M103.1,228.1l-0.1-0.8h-0.3l-0.1,0.8
			l-1.3,9.9h3.2L103.1,228.1z"/>
		<path class="st1" d="M112.5,217.9h4.6v27.2h6.1v4.3h-10.7V217.9z"/>
		<path class="st1" d="M130.5,249.4l4.8-31.5h5.7l4.8,31.5h-4.5l-0.9-6.4h-4.5l-0.9,6.4H130.5z M138.3,228.1l-0.1-0.8h-0.3l-0.1,0.8
			l-1.3,9.9h3.2L138.3,228.1z"/>
		<path class="st1" d="M156,249.4l-2.4-13.3h-1.2v13.3h-4.6v-31.5h4.6c5.5,0,7.9,3.1,7.9,9.1c0,3.1-0.8,5.9-2.6,7.1l3,15.2H156z
			 M152.4,231.8c0.6,0,1.5-0.1,2.2-0.7c0.7-0.6,1.2-1.8,1.2-4s-0.6-3.4-1.2-4c-0.7-0.6-1.5-0.6-2.2-0.6V231.8z"/>
		<path class="st1" d="M161.6,222.7v-4.8h13.4v4.8h-4.4v26.7h-4.6v-26.7H161.6z"/>
	</g>
</g>
</svg>
