<?xml version="1.0" encoding="utf-8"?>
<!-- Generator: Adobe Illustrator 22.0.0, SVG Export Plug-In . SVG Version: 6.00 Build 0)  -->
<svg version="1.1" id="Layer_1" xmlns="http://www.w3.org/2000/svg" xmlns:xlink="http://www.w3.org/1999/xlink" x="0px" y="0px"
	 viewBox="0 0 194.1 286.1" style="enable-background:new 0 0 194.1 286.1;" xml:space="preserve">
<style type="text/css">
	.st0{fill:#FFFFFF;}
	.st1{fill:#F8991D;}
</style>
<g>
	<g>
		<path class="st0" d="M43.1,271.5v-3.9c1.9-0.1,2.8-0.5,3.2-1.4c0.2-0.4,0.3-1,0.3-1.7c0-0.7,0-1.5,0-2.5c0-0.9,0-1.9-0.2-2.7
			c-0.2-0.8-0.6-1.4-1.3-1.4c-0.6,0-0.9,0.3-1.1,1.1c-0.2,0.9-0.3,2.2-0.3,4.3h-4.5c0-1.8,0-4.2,0.8-6.1c0.8-1.9,2.2-3.3,5.1-3.3
			c2.9,0,4.4,1.5,5.2,3.1c0.8,1.6,0.8,3.3,0.8,3.7c0,4.7-0.8,6.9-2.2,8.3l0,0c2.2,1.8,2.7,5,2.7,8.6c0,0.1,0,0.4,0,0.9
			c0,0.9-0.3,2.2-0.8,3.6c-0.5,1.4-1.4,2.6-2.7,3.3c-0.7,0.4-1.5,0.6-2.5,0.6c-2.9,0-4.4-1.5-5.2-3.4c-0.8-1.9-0.9-4.3-0.9-6H44
			c0,2.1,0.1,3.4,0.4,4.2c0.3,0.9,0.6,1.1,1.2,1.1c0.7,0,1.1-0.6,1.3-1.3c0.2-0.8,0.2-1.8,0.2-2.7c0-1,0-1.9,0-2.7
			c0-1.5-0.3-2.6-1.3-3.3c-0.5-0.3-1.3-0.5-2.3-0.6H43.1z"/>
		<path class="st0" d="M66.1,279.3c0,0.7-0.1,2.4-0.9,3.9c-0.8,1.5-2.4,2.9-5.1,2.9c-2.9,0-4.3-1.3-5.1-2.9
			c-0.8-1.5-0.9-3.2-0.9-3.9v-17.9c0-1.1,0-3,0.9-4.6c0.8-1.5,2.3-2.9,5.2-2.9c2.9,0,4.4,1.3,5.2,2.9c0.8,1.6,0.9,3.5,0.9,4.6v2
			h-4.6c0-2.1,0-3.5-0.2-4.3c-0.2-0.8-0.5-1.1-1.2-1.1c-0.6,0-0.9,0.3-1.1,0.8c-0.2,0.6-0.3,1.4-0.3,2.6v5.6
			c0.8-0.5,1.5-0.8,2.3-0.8c2.4,0,3.7,1.2,4.4,2.7c0.7,1.4,0.8,3.1,0.8,4V279.3z M58.6,280.6c0,0.4,0.3,1.4,1.4,1.4
			c1,0,1.4-1,1.4-1.4v-9.4c0-0.4-0.4-1.4-1.4-1.4c-1,0-1.4,0.8-1.4,1.3V280.6z"/>
		<path class="st0" d="M81,279.3c0,1.3-0.3,2.4-0.8,3.4c-0.4,0.9-1,1.7-1.8,2.3c-0.9,0.7-2,1.1-3.6,1.1c-1.5,0-2.7-0.4-3.6-1.1
			c-0.9-0.6-1.4-1.5-1.8-2.3c-0.5-1-0.7-2.1-0.8-3.4v-18.5c0-1.2,0.3-2.4,0.8-3.4c0.4-0.9,0.9-1.7,1.8-2.4c0.9-0.6,2.1-1.1,3.6-1.1
			c1.5,0,2.7,0.4,3.6,1.1c0.9,0.6,1.5,1.5,1.8,2.4c0.5,1,0.7,2.1,0.8,3.4V279.3z M76.4,260.7c0-0.9-0.2-1.5-0.6-2
			c-0.2-0.2-0.6-0.3-0.9-0.3c-0.8,0-1.2,0.6-1.4,1.2c-0.1,0.3-0.2,0.7-0.2,1.2v18.5c0,0.9,0.2,1.5,0.6,2c0.2,0.2,0.5,0.3,0.9,0.3
			c0.8,0,1.2-0.5,1.4-1.2c0.1-0.3,0.2-0.7,0.2-1.2V260.7z"/>
		<path class="st0" d="M99.1,254.3h4.5l-4.8,31.5h-4.6l-4.8-31.5h4.5l2.3,17.3l0.2,1.3h0.3l0.2-1.3L99.1,254.3z"/>
		<path class="st0" d="M105.7,254.3h4.6v31.5h-4.6V254.3z"/>
		<path class="st0" d="M113.8,285.7v-31.5h3.6c4.3,0,6.6,0.9,7.8,3.3c1.2,2.4,1.4,6.3,1.4,12.5c0,6.2-0.2,10.1-1.4,12.5
			c-1.2,2.4-3.6,3.3-7.8,3.3H113.8z M118.4,281.1c1.6,0,2.5-0.2,3-1.7c0.2-0.7,0.4-1.8,0.4-3.3c0-1.5,0-3.5,0-6.1c0-2.6,0-4.6,0-6.1
			c0-1.5-0.2-2.6-0.4-3.3c-0.5-1.5-1.4-1.7-3-1.7V281.1z"/>
		<path class="st0" d="M129.7,254.3h10.6v4.8h-5.9v8.3h4.3v5.1h-4.3v8.6h5.9v4.8h-10.6V254.3z"/>
		<path class="st0" d="M154.9,279.3c0,1.3-0.3,2.4-0.8,3.4c-0.4,0.9-1,1.7-1.8,2.3c-0.9,0.7-2,1.1-3.6,1.1s-2.7-0.4-3.6-1.1
			c-0.9-0.6-1.4-1.5-1.8-2.3c-0.5-1-0.7-2.1-0.8-3.4v-18.5c0-1.2,0.3-2.4,0.8-3.4c0.4-0.9,0.9-1.7,1.8-2.4c0.9-0.6,2.1-1.1,3.6-1.1
			s2.7,0.4,3.6,1.1c0.9,0.6,1.5,1.5,1.8,2.4c0.5,1,0.7,2.1,0.8,3.4V279.3z M150.2,260.7c0-0.9-0.2-1.5-0.6-2
			c-0.2-0.2-0.6-0.3-0.9-0.3c-0.8,0-1.2,0.6-1.4,1.2c-0.1,0.3-0.2,0.7-0.2,1.2v18.5c0,0.9,0.2,1.5,0.6,2c0.2,0.2,0.5,0.3,0.9,0.3
			c0.8,0,1.2-0.5,1.4-1.2c0.1-0.3,0.2-0.7,0.2-1.2V260.7z"/>
	</g>
	<g>
		<path class="st1" d="M15.5,141c2,3.3,4.2,6.8,6.6,10.3l9.7-6.7c-2.3-3.2-4.3-6.5-6.2-9.6L15.5,141z"/>
		<path class="st1" d="M94.3,11.8L94.6,0c-1,0-2,0-3.1,0C84,0,76.7,0.7,69.9,2.2l2.5,11.5C79.2,12.3,86.5,11.7,94.3,11.8z"/>
		<path class="st1" d="M142.4,10.3c-6.8-3.2-14.5-5.6-23.6-7.4l-2.3,11.6c8.1,1.6,15,3.8,20.9,6.5L142.4,10.3z"/>
		<path class="st1" d="M52.2,21.2l-5.7-10.3c-7.3,4-13.9,9.2-19.8,15.4l8.6,8.1C40.2,29.1,46,24.7,52.2,21.2z"/>
		<path class="st1" d="M177.1,45.7c-4.5-8.9-8.8-15.3-14-20.7l-8.6,8.1c4.3,4.6,8.1,10.2,12,18L177.1,45.7z"/>
		<path class="st1" d="M175.5,83.5c0,3-0.2,6.1-0.6,9.3l11.7,1.4c0.4-3.6,0.6-7.2,0.6-10.7c0-5-0.4-9.9-1.3-14.5l-11.6,2.3
			C175.1,75.1,175.5,79.3,175.5,83.5z"/>
		<path class="st1" d="M21.6,53.5c0.2-0.5,0.5-0.9,0.7-1.4L12,46.4c-0.3,0.5-0.6,1-0.8,1.5C7.4,55,4.5,62.2,2.6,69.3l11.4,3
			C15.7,66.1,18.2,59.8,21.6,53.5z"/>
		<path class="st1" d="M11.8,93.7L0,94.3c0.4,8.1,2.1,16.3,5,24.5l11.2-3.9C13.6,107.8,12.2,100.7,11.8,93.7z"/>
		<path class="st1" d="M170,114.6c-0.3,0.8-0.5,1.6-0.8,2.4L155,106.5l-5.4,48.2l44.5-19.4l-15-11.1c0.8-2,1.5-4,2.1-6L170,114.6z"
			/>
		<path class="st1" d="M136.3,177c-8.5-10.3-16.7-15.8-19.2-19.9c-2.2-3.5-2.5-8.9-2.4-12.6c0.1-3.7,0.9-7.8,2.3-10.2
			c1.4-2.3,5.1-5,7.3-6.4c2.1-1.3,3.7-2.4,5.3-3.1c1.7-0.8,1.3-1.6-1.1-2.4c-2.3-0.9-6.2-2.7-16.7-7.4c-4.2-1.9-12.4-6.1-14.2-7.4
			c-1.8-1.3-2,0-2.9,1.3c-0.9,1.3-2.2,3.1-3.9,4.4c-1.5,1.1-1.5,2.8-18.6,2.7c-17.1-0.1-25.9-5.1-27.8-6c-1.9-0.9-2.8-1.2-2.9-0.3
			c-0.1,0.9-0.9,10-1.2,14.4c-0.3,4.4,1.6,6.2,4.3,7.2c2.7,1,12.4,3.5,15.2,5.3c2.8,1.8,4.9,26.2,4.1,32c-0.9,5.8-6.8,12.2-10.3,22
			c-3.5,9.8-5.1,19.7-5.2,23.5c-0.1,3.8,2.2,4.2,4.4,4.2c1.6,0,98.6,0,102.1-0.1c3.9-0.1,6.8,0.2,7.9-0.3c1.4-0.7-6.2-12.6-9.1-16.9
			C150.6,196.2,146.4,189.2,136.3,177z"/>
		<path class="st1" d="M83.9,106.3c2.1-0.4,3.4-1,3.3-1.8c0-1.6-2.2-2.1-3.6-2.8c-1.4-0.7-1.6-2-1-3.5c0.4-1.1,7.1-15.7,8.9-19.1
			c1.7-3.4,3.6-2.1,5.6-1.1c1.8,0.9,2.6,0.9,2.9,0.5c0.6-0.7-0.1-3-1.9-5.9c-2.2-3.5-12-13.1-18.5-17.1c-6.5-4-16-9-21.7-11.4
			c-5.7-2.4-8.1,1-9.2,2.9c-1.1,1.9-14.7,32.4-17.3,38.8c-2.6,6.4,0.6,8.4,3.8,10c3.2,1.6,23,7.9,31.3,9.6
			C74.9,107.1,82,106.6,83.9,106.3z"/>
		<path class="st1" d="M86.8,48.9c8.8,4.6,11.9,6.7,16.2,12.6c4.3,5.9,5.1,9.7,5.3,13.4c0.2,4.7,0.1,4.7,0.4,5.8
			c0.3,1.3,1.6,2.1,2.9,2.7C113,84,142.5,98,143.4,98.4c0.9,0.4,3.6,1.6,4.3,1.1c0.7-0.6,1.4-1.9,2-9.5c0.7-7.6-1.1-19.2-7.4-29.3
			c-6.3-10.1-19.2-19.3-33.7-21c-14.5-1.7-26.5,3.7-29.1,4.8C76.8,45.4,82.2,46.5,86.8,48.9z"/>
		<path class="st1" d="M98.3,87.1c-0.7-0.3-1.3-0.1-1.6,0.4c-0.2,0.5-2.9,6.4-3.3,7.3c-0.6,1.3-0.5,2,0.3,2.3
			c1.5,0.7,40.9,18.4,43.4,19.5c2.5,1.1,2.6,0.7,3.4-0.7c0.5-0.9,2.6-5.1,3.4-6.6c0-0.1,0.1-0.1,0.1-0.2c0.3-0.7-0.1-1.5-0.8-1.8
			C142,106.8,99.4,87.6,98.3,87.1z"/>
	</g>
</g>
</svg>
