<svg id="Layer_1" data-name="Layer 1" xmlns="http://www.w3.org/2000/svg" xmlns:xlink="http://www.w3.org/1999/xlink" viewBox="0 0 1001 1001"><defs><filter id="luminosity-invert-noclip" x="-0.5" y="-0.5" width="1001" height="1001" name="luminosity-invert-noclip"><feFlood result="bg" flood-color="#fff"/></filter><mask id="mask" x="0.5" y="0.5" width="9863.08" height="9863.08" maskUnits="userSpaceOnUse"><g id="mask-2" data-name="mask"><g style="filter:url(#luminosity-invert-noclip)"><path d="M448.94,11.18C231.57,33.5,33.5,231.57,11.18,448.94c-32.09,312.88,229,574,541.88,541.88C770.43,968.5,968.5,770.43,990.82,553.06,1022.92,240.17,761.83-20.92,448.94,11.18Z" style="fill:#c6c5c5"/></g></g></mask></defs><title>ICON05</title><g style="mask:url(#mask)"><rect x="0.5" y="0.5" width="1000" height="1000" style="fill:#933;fill-opacity:0"/></g><path d="M448.94,11.18C231.57,33.5,33.5,231.57,11.18,448.94c-32.09,312.88,229,574,541.88,541.88C770.43,968.5,968.5,770.43,990.82,553.06,1022.92,240.17,761.83-20.92,448.94,11.18Z" style="fill:#c6c5c5"/><g id="Layer_7" data-name="Layer 7"><g id="Layer_16" data-name="Layer 16"><path d="M363.15,91.9H634.82A53.19,53.19,0,0,1,688,145.13V755.25a53.19,53.19,0,0,1-53.23,53.23H363.15a53.19,53.19,0,0,1-53.23-53.23V145.13A53.19,53.19,0,0,1,363.15,91.9Z" style="fill:#292929"/><rect x="325.7" y="182.67" width="345.93" height="538.26" style="fill:#8c8f92"/><circle cx="500.23" cy="123.91" r="9.87" style="fill:#8c8f92"/><path d="M459.37,144.2h81.45a6.18,6.18,0,0,1,6.18,6.18h0a6.18,6.18,0,0,1-6.18,6.18H459.37a6.18,6.18,0,0,1-6.18-6.18h0A6.18,6.18,0,0,1,459.37,144.2Z" style="fill:#8c8f92"/><circle cx="499.68" cy="761.34" r="32.01" style="fill:#8c8f92"/><circle cx="504.84" cy="500.56" r="57.47" style="fill:#b5bdc4"/><path d="M504.11,417.35a82.75,82.75,0,1,0,82.75,82.75,82.73,82.73,0,0,0-82.75-82.75h0Zm0,159.31a76.57,76.57,0,1,1,76.57-76.57,76.61,76.61,0,0,1-76.57,76.57h0Z" style="fill:#b5bdc4"/><path d="M120.17,796.95l35.05-52.3s-2.49-40.59,11.07-62.73,70.11-105.81,77.49-115.59,25.18-22.14,37.54-16,16.6,12.91,9.22,24-22.14,26.47-19.65,28.32,13.38-8,23.34-20.29,26.47-23.34,39.39-14.76,12.91,16.6,5.53,27.67-20.29,32.56-21.49,35.05,1.2,4.34,7.38-3.69,19.1-26.47,24.63-32.56,15.41-18.45,32-10.42,14.76,15.41,9.22,24S368.78,642.06,366.29,647s0,8,5.53,1.2S474.4,501.75,481.23,492.53s16.6-24.08,35.7-14.76,18.45,17.9,10.42,33.21-155.62,220.84-160,226.37,0.65,8,6.73,1.2,38.74-54.15,52.3-61.53,20.94-4.34,26.47-1.2,16.6,9.87,6.73,19.65-35.7,33.85-52.86,50.46-44.28,40.59-58.39,51-28.87,16.6-41.79,22.14S270.35,832,270.35,832l-27.67,43.63Z" style="fill:#e3e9ee"/><polygon points="237.97 900.26 97.3 802.02 106.06 789.57 251.35 883.47 237.97 900.26" style="fill:#5c6a71"/><polygon points="245.81 906.26 234.75 926 33 926 33 878.03 87.61 793.72 245.81 906.26" style="fill:#bababa"/></g><g id="Layer_3_copy_16" data-name="Layer 3 copy 16"><rect x="37.5" y="821.5" width="926" height="144" rx="12" ry="12" style="fill:#383838"/><path d="M951.5,970.5H49.5a17,17,0,0,1-17-17v-120a17,17,0,0,1,17-17h902a17,17,0,0,1,17,17v120A17,17,0,0,1,951.5,970.5Zm-902-144a7,7,0,0,0-7,7h0v120a7,7,0,0,0,7,7h902a7,7,0,0,0,7-7v-120a7,7,0,0,0-7-7H49.5Z" style="fill:#c6c5c5"/></g><text transform="translate(223.17 924.4)" style="font-size:105px;fill:#fff;font-family:Myriad Pro">M<tspan x="85.05" y="0">obile </tspan><tspan x="326.65" y="0">A</tspan><tspan x="390.59" y="0">pps</tspan></text></g></svg>