<svg id="Layer_1" data-name="Layer 1" xmlns="http://www.w3.org/2000/svg" viewBox="0 0 1000 1000.4"><defs><style>.cls-1{fill:#c6c5c5;}.cls-2{fill:#404041;}</style></defs><title>ICON03</title><g id="Layer_3" data-name="Layer 3"><rect class="cls-1" width="1000" height="1000"/><path class="cls-2" d="M908.7,482.7c-45.1-139.4-133.2-165-167-171.1s-206-22.5-206-22.5H511.2l62.4,432.4,253.1-12.3C890.3,695.9,953.8,622.1,908.7,482.7ZM762.2,594.4c-12.3,1-64.6,0-64.6,0L661.7,398.7s52.3-2,85.1,10.2,63.5,44.1,70.7,113.7S774.5,593.4,762.2,594.4Z" transform="translate(-1 0.4)"/><path class="cls-2" d="M96.4,407.6S95,320.8,156.5,289.1s195.4-30.4,269.2,20.2,67,95.6,64.2,113.4-45.1,46.5-56,47.8,61.5,6.8,83.3,64.2-8.5,136.9-80.6,179C367.5,754,213.1,746.1,149.7,685,61.3,599.8,85.5,527.9,85.5,527.9l164,2.7s5.5,77.9,72.4,77.9,75.1-23.2,69.7-53.3-38.3-46.5-65.6-47.8-54.7,0-54.7,0l-9.6-79.2s57.4,6.8,83.3,0,51.9-32.8,9.6-60.1-83.3-15-99.7,1.4-9.6,50.6-9.6,50.6Z" transform="translate(-1 0.4)"/><g id="RING"><path d="M1,0V1000H1001V0H1ZM501.5,993C229.5,993,9,772.5,9,500.5S229.5,8,501.5,8,994,228.5,994,500.5,773.5,993,501.5,993Z" transform="translate(-1 0.4)"/></g></g></svg>