<?xml version="1.0" encoding="utf-8"?>
<!-- Generator: Adobe Illustrator 22.0.0, SVG Export Plug-In . SVG Version: 6.00 Build 0)  -->
<svg version="1.1" id="Layer_1" xmlns="http://www.w3.org/2000/svg" xmlns:xlink="http://www.w3.org/1999/xlink" x="0px" y="0px"
	 viewBox="0 0 1920 1080" style="enable-background:new 0 0 1920 1080;" xml:space="preserve">
<style type="text/css">
	.st0{fill:url(#SVGID_1_);}
	.st1{opacity:0.2;}
	.st2{fill:#101010;}
</style>
<g id="Background_1_">
	<linearGradient id="SVGID_1_" gradientUnits="userSpaceOnUse" x1="0" y1="539.1729" x2="1920" y2="539.1729">
		<stop  offset="0" style="stop-color:#393939"/>
		<stop  offset="0.739" style="stop-color:#101010"/>
	</linearGradient>
	<rect y="-1.7" class="st0" width="1920" height="1081.7"/>
	<g class="st1">
		<polygon class="st2" points="135.1,1080 0,1080 0,970.6 0.1,970.7 		"/>
		<polygon class="st2" points="1160.3,1080 1002.8,1080 0,268.9 0,141.5 		"/>
		<polygon class="st2" points="907,1080 749.4,1080 0,473.8 0,346.4 		"/>
		<polygon class="st2" points="649.7,1080 492.2,1080 0,681.9 0,554.5 		"/>
		<polygon class="st2" points="392.4,1080 235,1080 0,889.9 0,762.6 		"/>
		<path class="st2" d="M1432.2-1.6l-713,576.7c-10.1,8.2-24,13.2-39.4,13.2c-30.7,0-55.6-20.2-55.6-45.1c0-12.4,6.2-23.7,16.3-31.8
			l634.3-513H1432.2z"/>
		<path class="st2" d="M1397.8,333.7c-15.3,0-29.3,5-39.3,13.2l-203.8,164.8c-10,8.1-16.3,19.4-16.3,31.9c0,24.9,24.9,45,55.7,45
			c15.4,0,29.3-5,39.4-13.2l203.8-164.8c10.1-8.1,16.3-19.4,16.3-31.8C1453.4,353.8,1428.5,333.7,1397.8,333.7z"/>
		<path class="st2" d="M1397.8,644.7l38.6-31.2c10.1-8.1,16.3-19.4,16.3-31.8c0-24.9-24.9-45-55.7-45c-15.4,0-29.3,5-39.4,13.2
			l-78,63c-10.1,8.1-16.3,19.4-16.3,31.8c0,12.4,6.2,23.6,16.2,31.8l79.5,64.3c10.1,8.1,24,13.2,39.4,13.2c30.8,0,55.7-20.2,55.7-45
			c0-12.4-6.3-23.7-16.3-31.8L1397.8,644.7z"/>
		<path class="st2" d="M917.7-1.6L590.9,262.7c-10.1,8.1-24,13.2-39.4,13.2c-15.4,0-30.1-4.5-40.2-12.7L184-1.6h157.4l209.4,169.3
			L760.2-1.6H917.7z"/>
		<path class="st2" d="M1015.4,543.5L1436.5,203c10.1-8.1,16.3-19.4,16.3-31.8c0-24.9-25-45-55.7-45c-15.4,0-29.3,5-39.4,13.2
			L897.4,511.7c-10.1,8.1-16.3,19.4-16.3,31.9c0,12.4,6.8,24.1,16.9,32.3l459.7,371.8c10,8.2,24,13.2,39.4,13.2
			c30.7,0,55.7-20.2,55.7-45.1c0-12.4-6.2-23.7-16.3-31.8L1015.4,543.5z"/>
		<path class="st2" d="M1174.9-1.6l-585,473.2c-10.1,8.2-24,13.2-39.4,13.2c-15.4,0-29.1-5.2-39.2-13.4L0,57.7V-1.6h84.2
			l466.6,377.4L1017.5-1.6H1174.9z"/>
		<path class="st2" d="M1421.5,1080H1264L768.7,679.4l-0.1,0c-0.8-0.6-1.5-1.3-2.2-1.9l-0.2-0.1l0,0c-8.7-8-14-18.4-14-29.8
			c0-24.9,24.9-45,55.7-45c15.3,0,29.3,5,39.4,13.2l0.1-0.1L1421.5,1080z"/>
	</g>
</g>
</svg>
