<?xml version="1.0" encoding="utf-8"?>
<!-- Generator: Adobe Illustrator 22.0.0, SVG Export Plug-In . SVG Version: 6.00 Build 0)  -->
<svg version="1.1" id="Layer_1" xmlns="http://www.w3.org/2000/svg" xmlns:xlink="http://www.w3.org/1999/xlink" x="0px" y="0px"
	 viewBox="0 0 404.7 218.4" style="enable-background:new 0 0 404.7 218.4;" xml:space="preserve">
<style type="text/css">
	.st0{fill:url(#SVGID_1_);}
	.st1{fill:#A8A9AC;}
</style>
<g>
	<linearGradient id="SVGID_1_" gradientUnits="userSpaceOnUse" x1="-0.5986" y1="108.352" x2="404.1494" y2="108.352">
		<stop  offset="0" style="stop-color:#393939"/>
		<stop  offset="0.739" style="stop-color:#101010"/>
	</linearGradient>
	<rect x="-0.6" y="-1" class="st0" width="404.7" height="218.8"/>
	<g>
		<path class="st1" d="M259.2,69.5l0.2-0.2c-0.3-0.2-0.6-0.3-1-0.2v0.5C258.7,69.7,258.9,69.7,259.2,69.5z"/>
		<path class="st1" d="M257.4,69.5c0.4,0,0.4-0.2,0.3-0.5h-0.5C257.2,69.2,257,69.5,257.4,69.5z"/>
		<path class="st1" d="M278.2,69.3c0.1-0.2,0.6,0,0.5-0.5h-0.2c-0.4-0.1-0.9-0.4-1.2,0.2c0,0.1,0,0.1,0,0.2H278.2z"/>
		<path class="st1" d="M217,70.3c0.1-0.3,0.8-0.1,0.8-0.9c-0.4,0.4-1.3-0.3-1,0.9H217L217,70.3z"/>
		<path class="st1" d="M228.1,69.5l0.8-0.4c-0.6-0.3-1.3-0.3-2-0.3c-0.6,0.6-1.6-0.1-2.2,1h2.2C227.3,70,227.8,69.9,228.1,69.5z"/>
		<path class="st1" d="M292.8,70.8c-0.3-0.2-0.7-0.4-1.1-0.6l-2,0c-0.9,0-1.8,0.2-2.7-0.1c-1.4-0.4-2.8-1.1-4,0.6
			c-0.1,0.1-0.2,0.1-0.3,0.1c-1-0.4-2.1,0.1-3-0.4c-1,0-2-0.3-2.9-0.7c-0.6,0-1.3-0.4-1.9-0.3c0,0,0,0,0,0c-1.5,0.1-2.8,0.9-4.3,0.8
			h-1c-2.4,0-4.8,0-7.2,0.2h-0.2c0-0.1,0-0.1,0-0.2c-0.3-0.1-0.6-0.1-0.9-0.2c-0.3-0.1-0.6-0.1-0.9,0c-0.4,0-0.8,0.1-1.1,0.2l-0.7,0
			c0-0.1-0.1-0.1-0.2,0c0,0,0,0,0,0.1l0,0l0,0c-0.6,0-1.2,0-1.7-0.2c-0.6-0.3-1.3-0.2-1.7,0.1c-0.1,0-0.1,0-0.1-0.1
			c-1-0.1-2-0.4-3.1-0.3c-2.1,0.1-4.1-0.4-6.1,0.2c-1.1,0.3-2.3,0.7-3.5,0.8c-1.3-0.3-2.6-0.4-3.8-0.5c-0.1,0-0.3,0-0.4,0
			c-0.6,0-1.2,0-1.7-0.1c-0.4-0.1-0.9-0.2-1,0.5l0,0c-2,0.2-4,1.3-6,0l-5.7,0.2l0,0l0-0.4c-1.1-0.4-2.2-0.9-3.4-0.7
			c-0.4,0.2-1.3,0.2-0.9,1.1l-0.3,0.1c-0.5-0.3-1.2-0.3-1.7,0h-0.5c-0.3,0-0.9,0-0.9-0.1c-0.3-1.4-1.3-0.5-2-0.7l-0.8,0l-0.5,0h-5.8
			h-0.2c-0.4-0.4-1-0.3-1.4-0.1c-0.6,0.2-1.1,0.5-1.7,0.4c0,0.1,0,0.1,0,0.2c-0.2,0-0.4,0-0.6-0.1c-2.1-0.1-4.3,0.4-6.4-0.4
			c-0.3-0.1-0.6-0.1-0.8,0c-1.6,0.5-3.2,0.3-4.8,0.4c-0.6,0-1.3-0.1-1.9,0.1c0-0.1,0-0.1,0-0.2c-0.2-0.2-0.5-0.2-0.8,0h-0.7
			c-1.5,0.4-3.2,0.4-4.7,0.2c-1.9-0.2-3.8-0.3-5.7,0l0,0l0,0l0,0c-1.2,0.3-2.3-0.5-3.6-0.2c-1.2,0.1-2.4-0.2-3.6,0.3
			c-1.2,0.6-2.4-0.1-3.6,0.5c-1.7,0.5-3.2-0.3-4.8-0.7l0,0c-1.2-0.6-2.6-0.7-3.9-0.2l0,0c-0.4,0-0.9,0-1.3-0.1
			c-1.4-0.1-2.9-0.4-4.3,0.4c-0.5,0.1-1-0.2-1.4,0.2l0,0c-0.2,0-0.4,0-0.5,0.2h-0.2c-0.6-0.5-1.3-0.1-2-0.2l0,0l-0.5-0.1
			c-0.1,0-0.1,0-0.1,0c-0.3-0.4-0.9-0.4-1.3-0.5c-1.2-0.2-2.4-0.1-3.6-0.6l0,0c0-0.1,0-0.1-0.1-0.2l-2.6,0.2c-0.3,0-0.7,0-1,0.1
			l-1.4,0.1c-0.2,0-0.3,0-0.5,0l-3.4,0.3c-1.5,0.3-3.1,0.3-4.7,0.5l0,0c0,0.1-0.1,0.2-0.1,0.3l0,0l-0.7,0c-0.2,0.4-0.8,0.1-0.9,0.5
			c0,0.3,0.3,0.4,0.6,0.5l0.1,0h0l-0.1,0c-0.1,0.4,0.6,1-0.1,1.2c-1.2,0.4-1.2,1.4-1.3,2.3c0.1,0,0.1,0,0.2,0c0,0.5-0.1,0.9-0.7,1
			c-0.7,0.4-0.1,1.2-0.5,1.7l0,0l0.2,0.5l0,0v0.7c0.1,0.5,0.7,1,0,1.4l0,0c-0.1,0-0.1,0-0.2,0c-0.1,0.1-0.2,0.1-0.3,0.2
			c-0.7,0.3-1.4,0.6-1.4,1.5c0.1,1.7-0.4,3.4,0.5,5c0.1,0.1,0,0.2-0.2,0.3L123,88c-0.4,0.2-0.9,0.2-0.9,0.8c0,1-0.7,2.1,0.2,3
			c0,0,0,0,0,0c-0.7,0.2-0.9,0.8-1.1,1.4l0,0l0,0l0,0l-0.2,0l0,0c-0.1,0-0.1,0-0.2,0l-0.3,0.5c0.1,0.8,0.5,1.7,0.1,2.3
			c-0.7,1.2-0.1,2.4-0.4,3.5c-0.1,0.2-0.2,0.5,0,0.7c0,0.5-0.1,0.9-0.5,1.3h-0.5c-0.5,0-0.7,0.2-0.5,0.8l0.5,0.7c0.1,0,0.1,0,0.2,0
			l0,0c0.3,0.8-0.2,1.3-0.5,1.9l0,0c-0.6,0.5-0.5,0.9,0.2,1.3c0.6,0.3,0.8,0.9-0.1,1.1c0,0.1,0,0.1,0,0.2l0,0l-0.4,0.1
			c-0.5,0.5,0,0.8,0.2,1.2l-0.3,0.9l0,0c-0.7,0-0.8,0.3-0.4,0.9c0.2,0.3,0.6,0.7,0.2,1.1l0,0c-0.1,0-0.1,0-0.2,0
			c-0.5,0.2-0.3,0.8-0.7,1.1c-1.1,0.9-1.1,2.3-1.2,3.4c-0.1,1.6-0.5,3.1-1.3,4.4c-0.1,0.4,0,0.6,0.3,0.7c0.4,0.3,0.7,0.5,0.2,1
			c-0.1,0.1-0.1,0.2-0.2,0.3c0,0.1,0,0.2,0,0.3c-0.8,0.7-1,1.4-0.6,2.2c0.2,0.3,0.2,0.8,0,1.1l0,0c-0.3,0.4-1.5,0.1-0.9,1.2l0.2,0.3
			c0.2,0.2,0.2,0.4,0.2,0.7c0,0,0,0.1,0,0.2c-0.1,0.4,0.2,0.8,0.2,1.2c0,0.1-0.1,0.1-0.1,0.2c-0.1,0.1-0.2,0.2-0.3,0.4
			c0,0.2-0.2,0.4-0.3,0.6c-0.1,0-0.2,0-0.2,0.1c-0.2,0.3-0.4,0.5-0.5,0.8c-0.4,0.5-0.7,1-0.7,1.8c0,0.1,0,0.1,0,0.2
			c0.3,0.1,0.5,0.4,0.5,0.7c0,0.1,0,0.1,0,0.2c-0.3,0.4-0.2,1.1-0.7,1.4c-0.7,0.5-0.4,0.9,0.1,1.2c0.8,0.5,0.6,0.9-0.1,1.2
			c-0.2,0.4,0,1-0.3,1.4c-1.8,0.1-1.9,0.1-1.4,1.9c0,0.1,0,0.1,0,0.2l0.4,0l0,0c0,0.4,0.2,0.8,0.3,1.2c1,0.2,0.2,0.8,0.1,1.1
			c-0.2,0.4-0.7,0.8,0,1.2l0,0c0.6,1.2,1.9,1.5,2.9,2.2l0,0c0,0.1,0,0.1,0,0.2h0.5c0.6-0.2,1.2-0.6,1.8-0.7
			c-0.1,0.2-0.3,0.5,0.1,0.7h0.7c0.3,0,0.7-0.1,1-0.2l0,0c0.1,0.2,0.3,0.2,0.5,0.2l1.9,0c0.4,0,0.9,0.1,1.3-0.1
			c0.5-0.2,0.2-0.3-0.1-0.4c-0.3-0.2-0.7-0.1-1-0.2c-0.2-0.1-0.5-0.1-0.8,0c0-0.1,0.1-0.1,0.1-0.1c0.3,0,0.7,0,1.1,0
			c0.1,0,0.2,0,0.3,0c0.3,0,0.6-0.1,0.8-0.1c0.2,0.4,0.7,0.3,1,0.3c0.7,0.1,1.3,0,2,0c0.5,0.2,1,0.2,1.5,0.1l0.2,0
			c0.8,0.1,1.6,0.1,2.4-0.2c0.7-0.2,1.3-0.8,2.2-0.5l0,0c0.1,0.2,0.1,0.5,0.3,0.4c1.1-0.4,2.3,0.1,3.3-0.4l0,0
			c0.4,0,0.9-0.2,1.2,0.2l0.5,0c0.7,0.3,1.5,0.4,2.3,0.5c0.6,0.1,0.7-0.2,0.9-0.5c1.3,0.7,2.6,0.1,3.8-0.2h0.1c0,0,0.1,0,0.1,0
			c0,0,0,0,0,0.1l0,0c-0.1,0.4,0.1,0.5,0.5,0.3c2.4-0.2,4.8,0.6,7.2,0h2.2l1,0c0-0.1,0-0.1,0-0.2l0,0h1.7l0,0c0.3,0.4,0.6,0.1,1,0
			l0,0c0.9-0.1,1.7,0.8,2.6,0.4c0-0.1,0-0.1,0-0.2l0,0c0.1,0,0.1,0,0.2,0c1.7,0.2,3.4-0.6,5.1-0.5l0,0c0.2,0.1,0.3,0.2,0.5,0.2
			c2.1,0.3,4.1,0.3,6.2,0.2h0.2c0.5-0.9,1.2-0.3,1.8-0.2c0.7,0.1,0,0.6,0.2,0.9c1.2,0.4,2-0.9,3.1-0.7l0,0c0.1,0,0.1,0,0.2,0l0,0
			c0,0.1,0,0.1,0,0.2h2.2c0-0.1,0.1-0.1,0-0.2h0.7c0-0.1,0-0.1,0-0.2l0,0c1.4-0.1,2.8,0.2,4.1-0.2c0.4-0.1,0.8-0.1,1.1,0.2l0,0
			c0.6,0.4,1.1,0.3,1.7,0h1c1.4,0.5,2.7-0.2,4.1,0l0,0c1.2,0.8,2.5,0.7,3.9,0.7c0.1,0,0.1,0,0.2,0c1-0.4,2.1,0,3-0.4
			c0.8-0.3,1.7-0.3,2.4,0.1c1.3,0.6,2.4,0.5,3.7,0.1l0,0c0.5,0.3,1,0.1,1.5,0.1c0.4,0,0.8,0,1.2,0.1c1.1,0,2.2,0.1,3.1-0.5h4.3
			c0.7,0.6,1.4,1.3,2.4,0.7c0.5,0,1.1,0.6,1.4-0.2l0,0c0.8-0.1,1.5-0.3,2.2-0.7l0,0l1.7,0l0,0c0.5,0.5,1,0,1.5,0l0,0h1.9
			c1-0.3,2-0.2,3,0c0,0,0,0,0.1,0l0,0l1.4,0.2c0.7,0.2,1.4,0.4,2.1,0.2c1.1-0.3,2,0,3,0.3l0,0c0.2,0.3,0.5,0.2,0.7,0.2l0.7,0
			c0-0.1,0-0.1,0-0.2h0.2c0.7-0.3,1.4-0.5,2.2-0.5c0,0,0,0.1,0,0.1c1.4,0.5,2.8,0.4,4.1-0.3l3.3,0c0.9,1,2,1,3.1,0.9
			c0.9-0.6,1.8-0.8,2.8-0.9c0.5,0,1.1,0,1.6,0c0.4,0,0.9-0.1,1.3,0.2c0.1,0,0.2,0.1,0.3,0.1c0.4,0.2,0.8,0.2,1.3,0.2
			c0.4,0,0.9,0,1.3-0.2l0.4,0c0.1-0.1,0.3-0.2,0.3-0.4c0,0,0,0,0-0.1c0.5,0,0.9,0,1.4,0c0.2,0,0.4,0,0.5,0c0.9,0.2,1.7,0.2,2.6,0.1
			c1.2,0.1,2.5,0.4,3.7,0.5c0.1,0,0.2,0,0.3,0c0.2,0,0.3,0,0.5,0c0.3-0.2,0.6,0,0.9-0.1c0.6-0.1,0.2-0.4,0-0.6
			c0.1-0.4,0.5-0.1,0.7-0.2c0.4,0,0.6,0.5,1.1,0.4c0.4-0.1,1.1,0.1,1.1-0.2c-0.1-1,0.6-0.8,1.1-1l0,0l0,0c0.5-0.1,1,0.1,1.4-0.2
			l0.9-0.3c0.9-0.7,0.5-2,1-2.8l0,0c0.3-0.1,0.4-0.3,0.2-0.7c-0.4-0.7-0.1-1.4-0.1-2.1c-0.1-1.4,1-2.6,0.8-4c0-0.1,0-0.2,0-0.2
			c0.2-0.5,0.8-0.5,1.1-1c0.1-0.2,0.8-0.2,0.4-0.7l0,0c-0.1-0.6-0.6-1.1-0.2-1.7c0-0.6,0-1.1,0-1.7l0,0c0-0.1,0-0.3,0-0.5l0,0
			c0.1,0,0.1,0,0.2,0c0.7-0.3,0-1.1,0.5-1.5l0,0c-0.5-1,0-1.7,0.7-2.4c0.7-0.7,0.9-1.6,1.2-2.4c-0.5-0.7-1.1-1.2-0.2-2.1
			c0.3-0.3,1-1.2-0.1-1.7l0,0c-0.1-0.1-0.1-0.1-0.2-0.2l-0.1,0c-0.1-0.3,0-0.6,0.3-0.8l0.3-0.9h0.2c0.5,0,0.3-0.4,0.2-0.6
			c-0.3-0.9,0.1-1.6,0.5-2.4c0.3-0.7,0.3-1.4,0.3-2.1l0,0l0.7-0.3c0.1-1.1,0.6-2.1,0.2-3.2c-0.2-0.5-0.2-0.9,0.3-1.2
			c0.3-0.2,0.5-0.6,0.7-0.9c0,0,0-0.1,0-0.1c0-0.1,0-0.1-0.1-0.2h-0.1c-0.1-0.4,0.1-0.7,0-1.1c-0.4-0.2-0.5-0.6-0.4-1l0.2-0.7l0,0
			l0.4-0.3l0.3-0.7l0.2-0.5l0,0c0-0.1,0-0.1,0-0.2l0,0c0.1,0,0.1,0,0.2,0l0,0c1.2-0.3,1.3-0.5,1-2.2v-0.2l0,0
			c0.2-0.1,0.5-0.3,0.4-0.5c-0.7-1,0.1-1.9,0.1-2.8c0.1,0,0.2,0,0.2,0c0.4-0.3,0.2-0.6,0-0.9c-0.1-0.2-0.3-0.6-0.3-0.6
			c0.9-0.9,0.4-2.3,1.3-3.1c0-0.1,0-0.1,0-0.2l0,0c-0.7-0.7-0.2-1,0.4-1.2c0.5-0.2,1.3-0.3,0.9-1.2c0.1,0,0.1,0,0.2,0
			c0-0.4,0.3-0.8-0.1-1.2c-0.4-0.4-0.5-1.4-0.3-1.7c0.5-0.9,0.2-1.5-0.3-2.1c-0.3-0.3-0.3-0.7,0.2-0.8c0-0.1,0.1-0.1,0.1-0.2
			c0.1,0,0.1,0,0.2,0l0,0c0.5-0.3,0-0.9,0.5-1.2c0-0.1,0-0.1,0-0.2l0,0l0.9-0.3c0.6-1.1,0.6-2.2,0.2-3.4c0-0.1,0-0.1,0-0.2l0,0
			c0-1-0.2-1.8-1.4-1.7c0.7-0.7,1.2-1.4,1-2.4c-0.4-0.5,0.5-0.7,0.2-1.2c0-0.5,0.1-0.9,0.7-1c0-0.1,0-0.1,0-0.2
			C293.6,71.2,293,71,292.8,70.8z M172.2,128.1h-12c0,0,4.6-22.9,4.8-24.2l-11.3,24.2h-9.2l-2.8-24.6c0.2,1.3-3.7,24.6-3.7,24.6H126
			l7.2-40.7h15.9l2.8,25l11.5-25h16L172.2,128.1z M211.2,125.1c-4,2.3-8.3,3.3-12.8,3.3c-5.4-0.1-10.4-1.2-14.2-5.5
			c-2.1-2.4-3.2-5.3-3.5-8.5c-0.5-6,0.6-11.6,3.7-16.8c3.6-6,8.8-9.6,15.6-11.2c4.2-1,8.4-1,12.5,0.2c6,1.8,9.7,5.7,10.8,11.9
			C225.2,108.4,220.3,119.9,211.2,125.1L211.2,125.1z M271.2,127.7h-12c0,0,4.6-22.9,4.8-24.2l-11.3,24.2h-9.2l-2.8-24.6
			c0.2,1.3-3.7,24.6-3.7,24.6H225l7.2-40.7H248l2.7,25l11.5-25h16L271.2,127.7z"/>
		<path class="st1" d="M203.2,95.9c-2.6,0.3-4.6,1.7-6.1,3.8c-0.6,0.9-1.1,1.8-1.5,2.8c-1.3,3.2-1.8,6.7-1.5,10.1
			c0.3,3.4,2.3,5.5,5.3,5.8c3.2,0.3,5.7-0.9,7.5-3.5c2.9-4.1,3.9-8.7,3.3-13.7C209.7,97.4,207,95.5,203.2,95.9z"/>
		<path class="st1" d="M279.6,69.5l1,0c0.3-0.4,0.8-0.2,1.2-0.2h0c0.1-0.1,0.3-0.1,0.3-0.2c0-0.1-0.1-0.2-0.3-0.2h-0.8V69l0,0
			c-0.5,0-1.1-0.1-1.5,0C279,69.2,279.3,69.4,279.6,69.5z"/>
	</g>
</g>
</svg>
