<?xml version="1.0" encoding="utf-8"?>
<!-- Generator: Adobe Illustrator 22.0.0, SVG Export Plug-In . SVG Version: 6.00 Build 0)  -->
<svg version="1.1" id="Layer_1" xmlns="http://www.w3.org/2000/svg" xmlns:xlink="http://www.w3.org/1999/xlink" x="0px" y="0px"
	 viewBox="0 0 404.7 218.4" style="enable-background:new 0 0 404.7 218.4;" xml:space="preserve">
<style type="text/css">
	.st0{fill:url(#SVGID_1_);}
	.st1{fill:#A8A9AC;}
</style>
<g>
	<g id="Layer_2-2_22_">
		<linearGradient id="SVGID_1_" gradientUnits="userSpaceOnUse" x1="-0.5986" y1="108.5703" x2="404.1494" y2="108.5703">
			<stop  offset="0" style="stop-color:#393939"/>
			<stop  offset="0.739" style="stop-color:#101010"/>
		</linearGradient>
		<rect x="-0.6" y="-0.8" class="st0" width="404.7" height="218.8"/>
	</g>
	<g id="Riverdale_1_">
		<g>
			<path class="st1" d="M287.4,125.1c0-0.1-0.1-0.2-0.1-0.4c0-1.2,0-2.4,0-3.7c0-0.3,0.1-0.4,0.4-0.4h1.2V96.5h-1.1
				c-0.4,0-0.4,0-0.4-0.4c0-1.2,0-2.4,0-3.6c0-0.4,0.1-0.4,0.4-0.4h18.1c0.4,0,0.4,0,0.4,0.4c0.1,1.6,0.2,3.3,0.4,4.9
				c0.1,1.6,0.2,3.1,0.4,4.7c0,0.1,0,0.3-0.2,0.3c0,0,0,0-0.1,0h-3.7c-0.1,0-0.3-0.1-0.3-0.2c0,0,0,0,0,0c-0.2-1.3-0.4-2.5-0.6-3.8
				c-0.1-0.4-0.2-0.8-0.3-1.3c0-0.3-0.3-0.5-0.6-0.5c-0.3,0-0.6-0.1-0.9-0.1c-2,0-4,0-6,0c-0.1,0-0.1,0-0.2,0v9.2h7.6
				c0.4,0,0.5,0,0.5,0.4c0,1.2,0,2.3,0,3.5c0,0.4,0,0.4-0.4,0.4h-7.7v10.7h0.2c2.1,0,4.2,0,6.3,0c0.3,0,0.6,0,0.9-0.1
				c0.4,0,0.7-0.3,0.8-0.7c0.1-0.6,0.3-1.3,0.4-1.9c0.2-1.2,0.4-2.3,0.6-3.5c0-0.2,0.1-0.3,0.3-0.3h0c1.1,0,2.2,0,3.3,0
				c0.2,0,0.3,0.1,0.3,0.3c-0.1,3.2-0.3,6.3-0.5,9.5c0,0.2,0,0.4,0,0.6c0,0.1-0.1,0.2-0.1,0.3L287.4,125.1L287.4,125.1z"/>
			<path class="st1" d="M263.9,125.1c-0.1-0.1-0.1-0.2-0.1-0.3c0-1.3,0-2.5,0-3.7c0-0.3,0.1-0.3,0.3-0.3c0.4,0,0.8,0,1.2,0V96.5
				h-1.1c-0.4,0-0.4,0-0.4-0.4c0-1.2,0-2.4,0-3.6c0-0.3,0-0.4,0.4-0.4h7.7c0.3,0,0.4,0.1,0.4,0.4c0,1.2,0,2.4,0,3.6
				c0,0.3-0.1,0.4-0.4,0.4h-1.2v24.2h0.2c2,0,4,0,6,0c0.2,0,0.4,0,0.6,0c0.5,0,0.8-0.2,0.9-0.7c0.1-0.5,0.2-1.1,0.3-1.6
				c0.2-1.3,0.4-2.5,0.6-3.8c0-0.2,0.1-0.3,0.3-0.3c0,0,0,0,0,0c1.2,0,2.3,0,3.5,0c0.3,0,0.4,0.1,0.3,0.4c-0.1,1.9-0.3,3.8-0.4,5.8
				c-0.1,1.5-0.2,2.9-0.3,4.4c0,0.1-0.1,0.2-0.1,0.3L263.9,125.1L263.9,125.1z"/>
			<path class="st1" d="M259.8,121c0-0.2-0.1-0.3-0.3-0.3c-0.4,0-0.8,0-1.1,0c-0.1,0-0.3,0-0.3-0.2c0,0,0,0,0,0
				c-1.1-4.9-2.3-9.9-3.4-14.8c-1-4.4-2.1-8.9-3.1-13.3c0-0.2-0.2-0.3-0.3-0.3h0c-2.3,0-4.7,0-7,0c-0.2,0-0.4,0.1-0.4,0.3v0
				c-1,4.3-2,8.6-3,12.9l-3.2,13.8c-0.1,0.5-0.2,1.1-0.4,1.6h-1.5c-0.3,0-0.4,0-0.4,0.4c0,1.2,0,2.5,0,3.7c0,0.1,0,0.2,0.1,0.4h6.1
				c0-0.1,0.1-0.2,0.1-0.3c0.5-2.6,1.1-5.1,1.6-7.7c0-0.1,0.1-0.2,0.2-0.2c0,0,0,0,0,0c2.7,0,5.5,0,8.2,0c0.1,0,0.2,0,0.3,0.2
				c0,0,0,0,0,0c0.5,2.5,1.1,5.1,1.7,7.6c0,0.1,0.1,0.3,0.2,0.4h5.8c0-0.1,0.1-0.2,0.1-0.3C259.9,123.5,259.9,122.3,259.8,121z
				 M251.2,113.3H244c-0.4,0-0.4-0.1-0.4-0.4l2.9-13.9l0.7-3.5c0-0.2,0-0.4,0.3-0.4c0.2,0,0.2,0.2,0.3,0.4c0.6,2.7,1.2,5.5,1.8,8.3
				c0.7,3,1.3,6.1,2,9.1C251.7,113.2,251.6,113.3,251.2,113.3z"/>
			<path class="st1" d="M231.6,99.9c0-0.5,0-1,0-1.4c0-1.1-0.4-2.1-1.2-2.8c-0.8-0.8-1.7-1.5-2.5-2.3c-0.7-0.7-1.6-1.1-2.6-1.2
				c-0.8-0.1-1.5-0.1-2.3-0.1c-4.1,0-8.1,0-12.2,0c-0.4,0-0.4,0-0.4,0.4c0,1.2,0,2.4,0,3.5c0,0.4,0,0.5,0.5,0.5h1.1v24.2h-1.2
				c-0.3,0-0.4,0-0.4,0.4c0,1.2,0,2.5,0,3.7c0,0.1,0.1,0.2,0.1,0.4h13.9c0.1,0,0.2,0,0.2,0c0.9-0.1,1.7-0.3,2.5-0.7
				c1.8-1,3.1-2.6,3.9-4.5c0.4-1,0.5-2,0.5-3C231.6,111.2,231.7,105.5,231.6,99.9z M226.3,116.4c0,0.6,0,1.2-0.1,1.7
				c-0.2,1.4-1,2.1-2.3,2.4c-0.6,0.1-1.1,0.2-1.7,0.2c-1.5,0-3.1,0-4.6,0c0,0-0.1,0-0.1,0V96.5c0.1,0,0.2,0,0.2,0c1.8,0,3.5,0,5.3,0
				c0.4,0,0.8,0,1.2,0.1c1.2,0.2,1.8,0.8,2,2c0.1,0.7,0.2,1.4,0.2,2.1C226.3,105.9,226.3,111.1,226.3,116.4L226.3,116.4z"/>
			<path class="st1" d="M206.5,121c0-0.3-0.1-0.3-0.3-0.3h-1.2v-0.3c0-2.1,0-4.1,0-6.1c0-0.7,0-1.3-0.1-2c0-1-0.5-2-1.3-2.6
				c-0.6-0.4-1.2-0.8-1.9-1.1c-0.3-0.1-0.6-0.3-1-0.4c0.1-0.1,0.2-0.1,0.3-0.1c0.7-0.5,1.3-0.9,2-1.4c1-0.8,1.6-1.8,1.6-3.1
				c0-1.7,0-3.4,0-5.1c0-1-0.4-1.9-1.1-2.7c-0.8-0.9-1.7-1.8-2.6-2.5c-0.7-0.6-1.5-0.9-2.4-1c-0.7,0-1.3-0.1-2-0.1
				c-3.8,0-7.6,0-11.5,0c-0.3,0-0.4,0-0.4,0.4c0,1.2,0,2.3,0,3.4c0,0.6,0,0.6,0.6,0.6h0.9v24.2h-1.2c-0.3,0-0.3,0-0.3,0.3
				c0,1.2,0,2.5,0,3.7c0,0.1,0,0.2,0.1,0.3h6.7c0-0.1,0.1-0.2,0.1-0.4c0-4.7,0-9.4,0-14.1v-0.3c0.1,0,0.1,0,0.2,0c1.3,0,2.5,0,3.8,0
				c0.7,0,1.4,0.1,2.2,0.2c1.1,0.2,1.7,0.9,1.8,2c0.1,0.6,0.1,1.2,0.1,1.7c0,3.5,0,7,0,10.5c0,0.1,0.1,0.3,0.1,0.4h6.7
				c0-0.1,0.1-0.2,0.1-0.3C206.5,123.5,206.5,122.3,206.5,121z M199.1,103.5c-0.2,1.1-0.7,1.9-1.8,2.2c-0.3,0.1-0.7,0.2-1.1,0.2
				c-1.4,0-2.8,0-4.2,0c-0.2,0-0.5,0-0.7,0v-9.4c0,0,0.1,0,0.1,0c1.5,0,3,0,4.4,0c0.4,0,0.8,0.1,1.2,0.1c1.1,0.2,1.7,0.9,1.9,2
				c0.1,0.5,0.2,1,0.2,1.5C199.3,101.3,199.2,102.4,199.1,103.5L199.1,103.5z"/>
			<path class="st1" d="M161.7,125.1c-0.1-0.1-0.1-0.2-0.1-0.3c0-1.3,0-2.5,0-3.7c0-0.3,0.1-0.3,0.3-0.3h1.2V96.5
				c-0.4,0-0.8,0-1.2,0c-0.3,0-0.4-0.1-0.4-0.4c0-1.2,0-2.4,0-3.7c0-0.3,0-0.4,0.4-0.4h18.2c0.3,0,0.4,0,0.4,0.4
				c0.2,2.9,0.5,5.8,0.7,8.6c0,0.3,0,0.6,0.1,1c0,0.2-0.1,0.3-0.3,0.3c-1.2,0-2.4,0-3.6,0c-0.2,0-0.3-0.1-0.3-0.3c0,0,0,0,0,0
				c-0.2-1.3-0.4-2.6-0.6-3.8c-0.1-0.4-0.2-0.8-0.2-1.2c0-0.3-0.3-0.5-0.6-0.5c-0.3,0-0.6-0.1-0.9-0.1c-2,0-4,0-6,0
				c-0.1,0-0.1,0-0.2,0v9.2h7.6c0.4,0,0.4,0,0.4,0.4c0,1.2,0,2.3,0,3.5c0,0.3,0,0.4-0.4,0.4h-7.7v10.7h0.2c2.1,0,4.2,0,6.3,0
				c0.2,0,0.5,0,0.7,0c0.5,0,0.9-0.3,1-0.8c0.1-0.5,0.2-1,0.3-1.5c0.2-1.2,0.5-2.5,0.7-3.7c0-0.2,0.1-0.3,0.3-0.3h0
				c1.1,0,2.2,0,3.3,0c0.3,0,0.4,0.1,0.3,0.4c-0.1,2.1-0.2,4.2-0.3,6.3c-0.1,1.2-0.1,2.5-0.2,3.8c0,0.1,0,0.2-0.1,0.3L161.7,125.1
				L161.7,125.1z"/>
			<path class="st1" d="M142.6,125.1c0-0.1-0.1-0.2-0.1-0.3c-1.6-7-3.2-14-4.8-21c-0.5-2.4-1.1-4.7-1.6-7.1c0-0.1-0.1-0.2-0.3-0.2
				c0,0,0,0,0,0c-0.3,0-0.7,0-1,0c-0.3,0-0.3-0.1-0.3-0.3c0-1.3,0-2.5,0-3.7c0-0.3,0.1-0.3,0.3-0.3c1.8,0,3.7,0,5.5,0
				c0.2,0,0.3,0.1,0.4,0.3c0.5,2.4,1,4.8,1.4,7.2c0.6,2.7,1.1,5.5,1.7,8.2l2.1,10.3c0.1,0.4,0.1,0.8,0.3,1.2
				c0.1-0.6,0.2-1.2,0.4-1.8c0.8-3.9,1.6-7.8,2.4-11.7c0.9-4.3,1.8-8.6,2.6-13c0.1-0.2,0.1-0.4,0.1-0.6c0-0.1,0.1-0.3,0.3-0.3h0
				c0.6,0,1.2,0,1.8,0h3.5c0.4,0,0.4,0,0.4,0.4c0,1.2,0,2.4,0,3.7c0,0.3,0,0.4-0.4,0.4c-0.3,0-0.7,0-1,0c-0.1,0-0.2,0.1-0.2,0.2v0
				c-0.5,2.3-1.1,4.5-1.6,6.8c-1,4.5-2.1,9-3.1,13.5c-0.6,2.6-1.2,5.2-1.8,7.8c0,0.1-0.1,0.2-0.1,0.3H142.6L142.6,125.1z"/>
			<path class="st1" d="M122,125.1c0-0.1-0.1-0.2-0.1-0.4c0-1.2,0-2.5,0-3.7c0-0.3,0.1-0.4,0.4-0.4h1.2V96.5h-1.1
				c-0.4,0-0.4,0-0.4-0.4c0-1.2,0-2.4,0-3.6c0-0.4,0-0.4,0.4-0.4h7.6c0.4,0,0.4,0,0.4,0.4c0,1.2,0,2.4,0,3.6c0,0.4-0.1,0.4-0.4,0.4
				h-1.1v24.2h1c0.6,0,0.6,0,0.6,0.6c0,1.2,0,2.3,0,3.4c0,0.1-0.1,0.2-0.1,0.4H122L122,125.1z"/>
			<path class="st1" d="M118,121c0-0.3,0-0.4-0.4-0.4h-1.2v-0.3c0-2,0-4,0-6.1c0-0.7-0.1-1.5-0.1-2.2c0-1-0.5-1.9-1.3-2.5
				c-0.4-0.3-0.9-0.6-1.4-0.9c-0.5-0.3-1-0.5-1.5-0.7l0.2-0.1c0.8-0.4,1.5-0.9,2.1-1.5c1-0.8,1.5-1.9,1.5-3.2c0-1.7,0.1-3.4-0.1-5.1
				c-0.1-0.9-0.4-1.8-1-2.5c-0.7-0.8-1.5-1.5-2.3-2.2c-0.4-0.3-0.9-0.7-1.3-0.9c-0.8-0.4-1.7-0.5-2.5-0.5c-4.1,0-8.3,0-12.4,0
				c-0.1,0-0.3,0.1-0.4,0.1v4.2c0.1,0,0.3,0.1,0.4,0.1c0.4,0,0.8,0,1.2,0v24.2c-0.3,0-0.7,0-1.1,0c-0.2,0-0.3,0-0.5,0.1v4.3h6.8
				c0-0.1,0.1-0.3,0.1-0.4c0-4.7,0-9.4,0-14.1v-0.3c0.1,0,0.1,0,0.2,0c1.3,0,2.6,0,3.9,0c0.7,0,1.5,0.1,2.2,0.3
				c1,0.2,1.6,0.9,1.7,1.9c0.1,0.7,0.1,1.3,0.1,2c0,3.4,0,6.8,0,10.3c0,0.1,0.1,0.3,0.1,0.4h6.7c0.1-0.1,0.1-0.2,0.1-0.4
				C118,123.5,118,122.3,118,121z M110.7,103.5c-0.2,1.3-0.9,2-2.2,2.2c-0.5,0.1-1.1,0.1-1.6,0.1c-1.2,0-2.4,0-3.7,0h-0.3
				c0-0.1,0-0.2,0-0.2c0-3,0-6,0-8.9c0-0.2,0.1-0.3,0.3-0.3c1.4,0,2.9,0,4.3,0c0.4,0,0.8,0.1,1.2,0.1c1.1,0.2,1.7,0.9,1.9,1.9
				c0.1,0.5,0.2,1.1,0.2,1.6C110.8,101.3,110.8,102.4,110.7,103.5L110.7,103.5z"/>
		</g>
	</g>
</g>
</svg>
