<?xml version="1.0" encoding="utf-8"?>
<!-- Generator: Adobe Illustrator 22.0.0, SVG Export Plug-In . SVG Version: 6.00 Build 0)  -->
<svg version="1.1" id="Layer_1" xmlns="http://www.w3.org/2000/svg" xmlns:xlink="http://www.w3.org/1999/xlink" x="0px" y="0px"
	 viewBox="0 0 404.7 218.4" style="enable-background:new 0 0 404.7 218.4;" xml:space="preserve">
<style type="text/css">
	.st0{fill:url(#SVGID_1_);}
	.st1{fill:#A8A9AC;}
</style>
<g>
	<g id="Layer_2-2_21_">
		<linearGradient id="SVGID_1_" gradientUnits="userSpaceOnUse" x1="-0.3574" y1="108.5703" x2="404.3906" y2="108.5703">
			<stop  offset="0" style="stop-color:#393939"/>
			<stop  offset="0.739" style="stop-color:#101010"/>
		</linearGradient>
		<rect x="-0.4" y="-0.8" class="st0" width="404.7" height="218.8"/>
	</g>
	<g id="CrazyEXGirlfriend_2_">
		<g>
			<path class="st1" d="M129.8,105.9l5.3,6.2l-0.5,0.7c-0.2,0.2-4.1,5.5-12,6c-9.4,0.7-16.6-5.5-17.2-14.6
				c-0.7-8.9,5.9-16.2,15.1-16.8c7.5-0.5,11.7,3.4,11.9,3.6l0.5,0.5l-3.8,7.2l-0.9-0.7c-0.1,0-3.2-2.5-6.8-2.2c-5,0.4-7,4.1-6.8,7.7
				c0.2,3.8,3,7.5,7.8,7.2c3.9-0.3,6.8-3.7,6.8-3.7L129.8,105.9z M287.8,91.5l8.4-16l-10.3,0.7l-3,6.6c-0.4,0.7-0.6,1.4-0.9,2
				c-0.3-0.6-0.7-1.2-1.1-1.9l-3.8-6.2l-10.4,0.8l10.5,14.7l-8.1,15.3l-0.5-7.4l-11.6,0.8l-0.2-3.5l8.8-0.6l-0.5-7.9l-8.8,0.6
				l-0.2-3.3l11.1-0.8l-0.5-7.9L246.3,79l2.1,30.5l20.3-1.4h0.3l9.8-0.7l3.1-6.8c0.4-0.7,0.7-1.4,0.9-2c0.3,0.5,0.7,1.2,1.1,1.8
				l4,6.2l10.2-0.7L287.8,91.5z M239.6,79.5l-9,18.8l0.9,12.4l-9,0.7l-0.9-12.4L211,83l0.3,4.1L201,103.8c-0.2,0.4-0.5,0.8-0.7,1.1
				c0,0,0,0,0,0l12.4-0.9l0.5,7.9l-23.6,1.7l-0.9,0.1l-8.4,0.6l-2.2-5.9l-7.6,0.5l-1.3,6.1l-7.1,0.5l-2.3,0.2l-7.9,0.5l-5.8-9.3
				l-1.8,0.1l0.7,9.7l-9,0.7l-2.1-30.5l11-0.8c3-0.2,4.6-0.1,6,0.3c3.9,1.2,6.3,4.4,6.6,8.8c0.2,3.4-1.1,6.6-3.4,8.4
				c0.2,0.2,0.4,0.6,0.7,1l5.7,8.6l7.7-28.8l8.8-0.6l11.6,27.2l-0.2-3l10.3-16.7c0.2-0.4,0.5-0.8,0.7-1.1c0,0,0,0,0,0l-11.6,0.8
				l-0.5-7.9l23-1.6l0.8,0l9.5-0.7l4.1,7.2c0.4,0.7,0.8,1.4,1.1,2c0.2-0.7,0.5-1.4,0.8-2.1l3-7.6L239.6,79.5z M148.4,96.3
				c-0.1-1.5-0.4-2.5-3.6-2.3l-1.4,0.1l0.4,5l2.1-0.2C147.7,98.9,148.6,98,148.4,96.3z M175.4,101l-1.6-4.3
				c-0.1-0.4-0.2-0.7-0.4-1.1c0,0.4-0.2,0.8-0.2,1.1l-1,4.4L175.4,101z"/>
			<path class="st1" d="M118.2,116.7c5.7,0,8.7,2.8,8.7,2.8l-1.3,1.8c0,0-2.8-2.4-7.3-2.4c-5.9,0-9.9,4.5-9.9,10.3
				c0,5.9,4.1,10.3,9.7,10.3c4.8,0,7.7-3.6,7.7-3.6v-4.1h-4.2v-2.1h6.5v11.6h-2.3v-1.8c0-0.5,0-1,0-1h0c0,0-2.8,3.3-8,3.3
				c-6.7,0-12-5.3-12-12.5C105.8,122.2,111.2,116.7,118.2,116.7z M133.9,117.1h2.4v24.1h-2.4V117.1z M143.4,117.1h7.2
				c2.5,0,3.6,0.2,4.6,0.7c2.3,1,3.7,3.3,3.7,6.2c0,3.3-1.9,5.8-4.6,6.5v0c0,0,0.2,0.3,0.7,1l5.3,9.7h-2.7l-5.5-10.1h-6.2v10.1h-2.4
				L143.4,117.1L143.4,117.1L143.4,117.1z M151.6,128.9c3,0,4.9-1.9,4.9-4.9c0-2-0.8-3.5-2.3-4.2c-0.7-0.4-1.6-0.6-3.5-0.6h-4.9v9.7
				H151.6z M165.3,117.1h2.4v22h11.4v2.1h-13.8V117.1z M183.3,117.1h12.9v2.1h-10.5v9.1h9v2.1h-9v10.8h-2.4L183.3,117.1L183.3,117.1
				z M201.2,117.1h7.2c2.5,0,3.6,0.2,4.6,0.7c2.3,1,3.7,3.3,3.7,6.2c0,3.3-1.9,5.8-4.6,6.5v0c0,0,0.2,0.3,0.7,1l5.3,9.7h-2.7
				l-5.5-10.1h-6.2v10.1h-2.4L201.2,117.1L201.2,117.1L201.2,117.1z M209.4,128.9c3,0,4.9-1.9,4.9-4.9c0-2-0.8-3.5-2.3-4.2
				c-0.7-0.4-1.6-0.6-3.5-0.6h-4.9v9.7H209.4z M223,117.1h2.4v24.1H223V117.1z M232.5,117.1h13.8v2.1h-11.4v8.8h9.3v2.1h-9.3v8.9h12
				v2.1h-14.4L232.5,117.1L232.5,117.1L232.5,117.1z M252.4,117.1h2.3l12.5,17.4c0.8,1.2,2,3.3,2,3.3h0c0,0-0.2-2-0.2-3.3v-17.4h2.4
				v24.1h-2.3l-12.5-17.4c-0.8-1.2-2-3.3-2-3.3h0c0,0,0.2,2,0.2,3.3v17.4h-2.4V117.1L252.4,117.1z M278.6,117.1h7.9
				c7.3,0,12.3,4.4,12.3,12c0,7.7-4.9,12.1-12.3,12.1h-7.9V117.1z M286.3,139.1c6,0,10-3.5,10-9.9c0-6.4-4-9.9-10-9.9H281v19.8
				H286.3z"/>
		</g>
	</g>
</g>
</svg>
