<?xml version="1.0" encoding="utf-8"?>
<!-- Generator: Adobe Illustrator 22.0.0, SVG Export Plug-In . SVG Version: 6.00 Build 0)  -->
<svg version="1.1" id="Layer_1" xmlns="http://www.w3.org/2000/svg" xmlns:xlink="http://www.w3.org/1999/xlink" x="0px" y="0px"
	 viewBox="0 0 404.7 218.8" style="enable-background:new 0 0 404.7 218.8;" xml:space="preserve">
<style type="text/css">
	.st0{fill:url(#SVGID_1_);}
	.st1{fill:#A8A9AC;}
</style>
<g>
	<linearGradient id="SVGID_1_" gradientUnits="userSpaceOnUse" x1="5.5763" y1="210.8455" x2="393.576" y2="10.8455">
		<stop  offset="0" style="stop-color:#393939"/>
		<stop  offset="0.739" style="stop-color:#101010"/>
	</linearGradient>
	<rect class="st0" width="404.7" height="218.8"/>
	<g id="layer101_2_">
		<path class="st1" d="M175.5,165.5c-0.2-0.1-0.8-0.2-1.3-0.4c-3.6-1-6.2-3.8-7.9-8.1c-1-2.6-1.5-6.4-1.4-10.4
			c0.1-3.4,0.2-4.2,0.9-7c0.5-2,1.9-4.7,3.1-6.1c2.5-2.9,5.5-4.2,9.7-4.2c2.7,0,4.3,0.3,6.3,1.4c1,0.5,1.6,1,2.6,2
			c1.8,1.8,2.7,3.3,3.6,5.9c0.5,1.5,0.6,2.1,1.1,5.5c0.3,1.7,0.2,5-0.1,7.2c-0.2,1.2-0.3,2.4-0.3,2.8c0,0.4-0.1,0.6-0.1,0.6
			c-0.1,0-0.1,0.2-0.2,0.5c-0.4,2-1.9,5.1-3.1,6.4c-0.3,0.3-0.5,0.6-0.4,0.7c0,0.1,0,0.1-0.1,0.1s-0.4,0.1-0.6,0.4
			c-0.9,0.9-2.7,2.1-4,2.5c-1.8,0.6-2.3,0.6-4.8,0.6C177,165.6,175.7,165.5,175.5,165.5z M180.8,161.2c2.5-0.9,4.1-3,4.9-6.4
			c0.6-2.4,0.6-3,0.6-7.2c0-3-0.1-4.8-0.2-5.6c-0.7-3.6-1.5-5.5-2.8-6.9c-1.2-1.2-1.5-1.3-2.7-1.7c-0.7-0.2-3.2-0.2-3.9,0
			c-1.7,0.6-3.1,1.7-3.9,3.4c-1.2,2.2-1.6,4.2-1.9,8.4c-0.3,4.4,0.2,9,1.3,11.8c1,2.5,2.9,4.2,5,4.6
			C178,161.6,180.1,161.4,180.8,161.2z"/>
		<path class="st1" d="M254.5,165.5c-0.2-0.1-0.4-0.2-0.6-0.2c-1.1-0.2-1.6-0.3-3-1c-3.4-1.6-5.6-4-7.1-7.8
			c-2.2-5.4-1.9-14.3,0.5-19.6c0.8-1.8,2.4-3.8,4.1-5.2c1-0.8,3.1-1.7,4.7-2.1c1-0.3,1.9-0.3,3.4-0.3c4,0,6.7,1,9,3.2
			c1.2,1.2,1.5,1.6,2.2,2.9c1.3,2.4,2.2,6.2,2.2,9.7c0,1.2,0,1.6-0.2,1.6c-0.1,0-0.7,0.1-1.3,0.2c-0.6,0.1-1.6,0.2-2.2,0.3
			c-0.6,0.1-1.6,0.2-2.2,0.3c-0.6,0.1-1.6,0.2-2.2,0.3c-0.6,0.1-1.6,0.2-2.3,0.3c-0.7,0.1-1.7,0.2-2.3,0.3c-0.5,0.1-1.5,0.2-2.2,0.3
			l-3.4,0.5c-1.2,0.2-2.5,0.4-2.9,0.4l-0.7,0.1l0.1,1.1c0.3,3.2,1.7,6.4,3.5,8c0.8,0.8,2.3,1.7,3.1,1.9c2.1,0.6,4.1,0.8,6.5,0.4
			c2.4-0.4,3.7-0.8,5.2-1.5l0.8-0.4l0.2,0.5c0.1,0.2,0.2,0.4,0.3,0.7c0.1,0.3,0.2,0.6,0.3,0.8c0.6,1.3,0.7,1.7,0.6,2
			c-0.1,0.3-1.2,0.8-2.8,1.3c-0.9,0.3-1.4,0.4-3.6,0.9C261.2,165.7,254.6,165.7,254.5,165.5z M250,146.1c1.4-0.2,2.7-0.4,4.2-0.6
			c0.6-0.1,1.6-0.2,2.1-0.3c0.5-0.1,1.5-0.2,2.2-0.3c0.7-0.1,1.7-0.3,2.2-0.3c0.5-0.1,1.5-0.2,2.2-0.3c0.5,0,0.9-0.1,1.4-0.3
			c0.4-0.2,0-3.8-0.6-5.6c-0.5-1.5-1.6-3.4-1.9-3.2c0,0-0.1,0-0.1-0.1c0-0.3-1.3-1.2-2.4-1.5c-0.5-0.2-1.5-0.3-2.4-0.4
			c-1.3,0-1.8,0-2.7,0.3c-1.2,0.4-2.7,1.3-2.6,1.5c0,0.1,0,0.1-0.1,0.1c-0.3,0-0.7,0.4-1.3,1.5c-1.3,2-2.1,4.8-2.2,8.3l-0.1,1.6
			l0.5-0.1C248.6,146.3,249.4,146.2,250,146.1z"/>
		<path class="st1" d="M202.3,164.9c-1.2-0.4-2.1-0.9-2.9-1.6c-0.6-0.6-1.8-2.3-1.8-2.6c0-0.1,0-0.2-0.1-0.3
			c-0.1-0.2-0.3-0.5-0.4-0.8c-0.2-0.6-0.3-2.7-0.3-13.3l-0.1-12.6h-4v-3.8h4.1v-8.1l1.7-0.5c0.9-0.3,1.9-0.6,2.2-0.7
			c0.3-0.1,0.8-0.2,1.2-0.4c0.4-0.1,0.8-0.2,0.9-0.1c0.1,0,0.1,2.3,0.1,4.9v4.8h6v3.8h-6V158l0.4,0.9c0.5,1,0.8,1.4,1.6,1.9
			c0.6,0.3,0.9,0.4,2.3,0.4h1.7v3.7l-0.7,0.2c-0.4,0.1-1.6,0.2-2.7,0.2C203.8,165.3,203.1,165.2,202.3,164.9z"/>
		<path class="st1" d="M115.7,148.3v-16.7l0.9-0.4c1.9-0.8,4.2-1.4,6.8-1.8c1.7-0.2,6.7-0.2,8.2,0.1c2.8,0.6,5.1,1.7,6.6,3.3
			l0.5,0.5l0.6-0.5c0.6-0.6,2.3-1.7,2.9-2c1.6-0.7,2.1-0.9,4.1-1.3c1.2-0.3,5-0.3,6.1,0c1.6,0.3,2.3,0.5,2.6,0.8
			c0.2,0.1,0.3,0.2,0.5,0.2c0.3,0,2,1.2,2.8,2.1c0.9,1,1.9,2.7,2.3,3.9c0.4,1.5,0.4,3.1,0.4,15.6l0,13.1h-6v-13.4
			c0-13.2,0-13.4-0.3-14.4c-0.7-2.1-2.1-3.3-4.4-3.8c-2-0.4-4.1-0.2-6.1,0.8c-0.3,0.1-0.6,0.3-0.9,0.6c-0.1,0.1-0.2,0.2-0.3,0.2
			c-0.1,0-0.4,0.3-0.8,0.6l-0.7,0.6V165h-6l0-13.7l0-13.7l-0.4-0.8c-0.5-1-1.8-2.4-2.6-2.7c-1.4-0.7-2.3-0.8-4.1-0.9
			c-2.2-0.1-3.8,0.1-5.4,0.7c-0.6,0.2-1.1,0.4-1.1,0.4s-0.1,6.9-0.1,15.4v15.4h-5.9V148.3L115.7,148.3z"/>
		<path class="st1" d="M213,140.3v-24.7h6v8c0,4.4,0,8,0,8c0.2,0,0.4-0.1,0.5-0.2c2.7-1.3,4.6-1.7,7.6-1.7c2,0,2.4,0.1,4.3,0.5
			c2.6,0.7,4.8,2.4,6,4.8c1.1,2.2,1,1.3,1.1,16.4l0.1,13.7h-6v-13.2c0-13.7,0-13.8-0.7-15.2c-0.4-0.9-1.4-1.9-1.6-1.7
			c-0.1,0.1-0.1,0-0.1,0c0.1-0.2-0.5-0.6-1.7-1c-0.8-0.3-1.4-0.3-3.1-0.3c-2.5,0-4.2,0.4-5.9,1.3l-0.5,0.3l0,15l0,15h-6V140.3
			L213,140.3z"/>
		<path class="st1" d="M273.8,148.3v-16.7l0.4-0.2c0.2-0.1,0.7-0.3,1.1-0.5c1.1-0.5,1.8-0.7,4-1.2c2.3-0.5,9.8-0.8,9.8-0.3
			c0,0.2-0.3,1.2-1.2,4.1c0,0.1-0.2,0.2-0.6,0.1c-1.5-0.3-3.1-0.4-3.9-0.3c-1,0.1-2.9,0.6-3.3,0.9c-0.2,0.1-0.2,3.4-0.2,15.4V165h-6
			V148.3L273.8,148.3z"/>
		<path class="st1" d="M224,127c0.1-0.2,0.1-0.3,0.1-0.5c0-0.1,0.1-0.3,0.2-0.4c0.1-0.1,0.2-0.2,0.2-0.3c0.1-0.3,0.2-0.6,0.3-0.9
			c0.1-0.3,0.3-0.7,0.4-1c0-0.2,0.1-0.3,0.1-0.3c0.1,0,0.1-0.1,0.1-0.2c0.1-0.3,0.2-0.6,0.3-0.9c0.8-1.8,1-2.2,1.2-2.9l0.3-0.8
			l-3.4-10.2c-1.9-5.6-3.5-10.4-3.5-10.5c-0.1-0.3,0.1-0.3,1.8-0.3h2l0.2,0.5c0.1,0.2,1,3.2,1.9,6.4c0.9,3.3,1.9,6.5,2.1,7.2
			c0.2,0.6,0.4,1.5,0.5,2l0.2,0.9l0.2-0.7c0.1-0.4,0.3-1,0.4-1.4c0.1-0.4,0.3-1.1,0.5-1.6c0.2-0.5,0.4-1.2,0.5-1.5
			c0.1-0.4,0.4-1.3,0.7-2.2c0.3-0.8,0.7-2.3,1-3.3c0.3-0.9,0.6-1.9,0.7-2.1c0.1-0.2,0.3-1,0.5-1.6c0.1-0.5,0.3-1.1,0.5-1.6
			c0.1-0.2,0.1-0.4,0.1-0.7c0-0.3,0.1-0.3,1.8-0.3c1,0,1.8,0,1.8,0c0,0-0.6,1.8-1.3,4c-0.7,2.2-1.3,4-1.2,4.1c0,0.1,0,0.1,0,0.1
			c-0.1,0-0.3,0.4-0.4,0.9c-0.1,0.5-0.5,1.4-0.7,2.2c-0.2,0.5-0.3,1-0.5,1.5c0,0.1-0.1,0.3-0.1,0.4c-0.1,0.2-0.7,1.8-0.9,2.5
			c0,0.1-0.8,2.5-1.7,5.1c-0.9,2.7-1.9,5.7-2.2,6.7l-0.6,1.9l-2,0.1C224,127.3,223.9,127.2,224,127z"/>
		<path class="st1" d="M262.8,119.5c0-0.1-0.4-0.2-0.9-0.2c-1.2-0.1-2.8-0.9-3.6-1.7c-0.8-0.8-1.4-2.2-1.6-3.4
			c-0.1-0.6-0.2-4.5-0.2-8.7v-7.7h3.7v8c0,8.5,0,8.3,0.8,9.5c1,1.5,3.9,2,6.3,0.9l0.7-0.3V97.7h3.6v20.1l-0.8,0.4
			c-1.3,0.6-2.9,1-4.7,1.2C264.2,119.5,262.7,119.6,262.8,119.5z"/>
		<path class="st1" d="M189.4,119.2c-1.7-0.3-2.3-0.5-3.4-1.1c-1.7-1-3.1-2.8-3.7-4.9c-0.8-2.7-0.8-7.3,0-9.9c0.6-2,2.1-3.9,3.6-4.8
			c2.3-1.3,5.6-1.4,8-0.3c1.7,0.8,3.1,2.5,3.7,4.5c0.6,1.9,0.9,5.3,0.4,5.3c-0.3,0-2.7,0.3-6.4,0.9c-1,0.1-2.4,0.3-3.1,0.4
			c-0.7,0.1-1.6,0.2-2,0.3c-0.4,0.1-0.7,0.1-1.1,0.1c-0.4,0-0.4,0-0.3,0.8c0.2,1.8,1,3.6,2,4.5c1.1,1.1,2.3,1.5,4.5,1.5
			c1.7,0,3-0.2,4.2-0.8c0.7-0.3,0.7-0.3,0.9-0.1c0.1,0.1,0.2,0.3,0.2,0.5c0.1,0.3,0.2,0.6,0.3,0.9l0.3,0.7l-0.3,0.3
			c-0.5,0.4-2.9,1.1-4.6,1.2C190.9,119.5,191.1,119.5,189.4,119.2z M186.6,107.4c0.6-0.1,1.6-0.2,2.2-0.3c1-0.2,1.4-0.2,4.3-0.6
			c1.8-0.3,1.7-0.2,1.7-1.3c-0.2-2.5-1-4.1-2.6-4.9c-0.9-0.5-3.1-0.5-4.1,0c-1.1,0.6-2,1.6-2.4,2.8c-0.3,0.9-0.8,3.1-0.8,4
			c0,0.6,0,0.7,0.3,0.6C185.6,107.6,186.1,107.5,186.6,107.4z"/>
		<path class="st1" d="M244.6,119.2c-3.4-0.6-5.6-3-6.5-7.3c-0.4-1.7-0.3-6,0.1-7.8c0.3-1.4,1.1-3.2,1.6-3.8c1.6-2.1,3.6-3,6.3-3
			c3.5,0,6,1.7,7.3,4.9c1.3,3.1,1.4,8.1,0.3,11.3c-1.1,3.5-3.1,5.2-6.4,5.8C246.1,119.5,246.1,119.5,244.6,119.2z M246.8,116.7
			c0.8-0.2,1.8-0.7,2.2-1.1c0.4-0.6,1.2-2.1,1.3-2.9c0.6-2.7,0.5-6.9-0.2-9.2c-0.7-2.4-1.5-3.2-3.3-3.6c-1.7-0.4-3.3,0.3-4.2,1.9
			c-1.6,2.7-1.8,9.7-0.2,12.7c0.7,1.3,1.3,1.8,2.6,2.2c0.4,0.1,0.8,0.2,0.8,0.2C246.3,116.8,246.5,116.8,246.8,116.7L246.8,116.7z"
			/>
		<path class="st1" d="M204.7,118.8c-1-0.4-1.9-1.2-2.5-2.4l-0.4-0.8l0-7.7l0-7.8h-2.4v-2.5h2.4v-4.8l1.3-0.4
			c0.7-0.2,1.4-0.5,1.6-0.5c0.2-0.1,0.3-0.1,0.5-0.1c0.1,0,0.2,1.2,0.2,2.9v2.9h3.8l0,1.2l-0.1,1.2h-3.7l0.1,7.4l0,7.3l0.4,0.6
			c0.5,0.8,1.1,1.1,2.3,1.1h1v1.1c0,1,0,1.1-0.4,1.3C207.9,119.2,205.6,119.2,204.7,118.8z"/>
		<path class="st1" d="M152.1,108.9V98.8l0.6-0.2c2.1-0.9,4-1.2,6.6-1.2c2.8,0,4.8,0.6,6,1.8c0.3,0.3,0.6,0.5,0.6,0.5
			c0.1,0,0.4-0.2,0.7-0.5c2.2-1.9,6.7-2.4,9.5-1.1c0.8,0.4,2.2,1.8,2.6,2.5c0.6,1.3,0.6,1.6,0.6,10v8.4h-3.6v-7.9
			c0-8.3,0-8.7-0.7-9.7c-0.7-1.1-1.5-1.4-3.3-1.4c-1.7,0-2.6,0.3-3.6,1.2l-0.6,0.5V119H164l0-8.3c0-9.2,0-8.9-1.1-9.8
			c-1-0.8-1.5-1-3.6-1c-1.3,0-2.2,0.1-2.6,0.3l-0.7,0.2l0,9.3l0,9.3h-3.7V108.9L152.1,108.9z"/>
		<path class="st1" d="M274.6,108.9V98.9l0.9-0.4c1.8-0.8,3.8-1.1,6.5-1.1h1.9l-0.1,0.5c-0.1,0.7-0.6,1.9-0.7,2.2
			c-0.1,0.2-0.2,0.2-0.5,0c-0.5-0.3-3-0.1-3.6,0.2l-0.5,0.2l0,9.2l0,9.2h-3.7L274.6,108.9L274.6,108.9z"/>
		<path class="st1" d="M151.1,91.9c-2-0.4-3.5-1.1-4.8-2.4c-2-1.9-2.8-3.8-3.5-7.8c-0.4-2.1-0.1-6.6,0.5-9.1c0.4-1.9,1.5-4,2.8-5.3
			c1.5-1.6,4.3-2.7,7-2.7c4.2,0,7.4,2.2,9,6.1c0.3,0.7,0.4,1.2,0.9,3c0.1,0.3,0.2,1.6,0.3,2.8c0.1,1.8,0.1,2.5-0.1,4.3
			c-0.1,1.2-0.3,2.4-0.4,2.8c-0.1,0.4-0.2,0.9-0.3,1.1c-0.3,1.4-2,4.2-3,5.1c-1.9,1.6-3.4,2.2-6.1,2.2C152.4,92,151.3,92,151.1,91.9
			z M154.7,88.6c1.5-0.4,2.8-2.1,3.5-4.3c1.3-4.7,0.7-12.6-1.3-14.8c-0.1-0.1-0.2-0.3-0.3-0.4c0-0.2-1.3-1-2.1-1.3
			c-1.4-0.5-2.6-0.3-4.1,0.4c-1.2,0.6-2.4,2.6-2.9,4.8c-0.4,1.6-0.5,7.3-0.2,9.1c0.4,2.5,1.3,4.5,2.4,5.5
			C151.1,88.8,152.8,89.2,154.7,88.6z"/>
		<path class="st1" d="M120.6,72.4V53.2h4.6l0,6.6l0,6.6l0.5-0.2c0.6-0.3,1.7-0.7,2.8-1c1.1-0.3,4.4-0.3,5.6,0
			c1.3,0.3,2.9,1.1,3.7,2c0.8,0.8,1.7,2.4,1.9,3.6c0.1,0.5,0.2,4.9,0.2,10.8v10h-4.4V82c0-6-0.1-9.8-0.2-10.4
			c-0.4-1.9-1.2-2.9-2.9-3.6c-1.6-0.6-5-0.3-6.7,0.7l-0.5,0.3l0,11.2l0,11.2h-4.6V72.4z"/>
		<path class="st1" d="M170.7,91c-0.1-0.3-0.3-1-0.4-1.6c-0.2-0.6-0.4-1.3-0.5-1.7c-0.1-0.4-0.2-0.8-0.3-1.1
			c-0.1-0.2-0.2-0.7-0.3-1.1c-0.1-0.4-0.3-0.9-0.3-1.1c-0.1-0.2-0.2-0.7-0.3-1.1c-0.1-0.4-0.3-0.9-0.3-1.1c-0.1-0.2-0.2-0.7-0.3-1.1
			c-0.1-0.4-0.3-0.9-0.3-1.1c-0.1-0.2-0.2-0.7-0.3-1.1c-0.1-0.4-0.3-0.9-0.3-1.1c-0.1-0.2-0.2-0.7-0.3-1.1c-0.1-0.4-0.3-1.2-0.5-1.8
			c-0.2-0.6-0.6-2.2-1-3.5c-0.8-2.9-1.2-4.5-1.5-5.1c-0.3-1.1-0.4-1,2.1-1c1.2,0,2.3,0,2.3,0.1c0,0,0.1,0.6,0.3,1.3
			c0.2,0.7,0.6,2.5,1,4c0.4,1.5,0.7,3,0.8,3.3c0.1,0.3,0.4,1.6,0.7,3c0.3,1.3,0.8,3.5,1.2,4.8c0.3,1.3,0.6,2.7,0.7,3.1
			c0.4,1.8,0.3,1.8,0.7,0.4c0.2-0.7,0.4-1.6,0.5-1.9c0.1-0.3,0.3-1.1,0.5-1.8c0.2-0.7,0.5-1.6,0.6-2.1c0.4-1.5,0.7-2.4,1.1-3.7
			c0.2-0.7,0.4-1.5,0.5-1.8c0.1-0.3,0.2-0.8,0.3-1.1c0.6-2,1.2-4.3,1.8-6.4l0.4-1.3h4l0.1,0.5c0,0.2,0.2,0.9,0.3,1.4
			c0.1,0.5,0.4,1.3,0.5,1.9c0.1,0.5,0.3,1.2,0.4,1.4c0.1,0.3,0.3,1,0.5,1.7c0.2,0.7,0.5,1.8,0.7,2.4c0.2,0.7,0.4,1.5,0.5,1.8
			c0.1,0.3,0.3,1.1,0.5,1.8c0.2,0.7,0.5,1.8,0.7,2.4c0.2,0.7,0.4,1.4,0.5,1.7c0.2,0.7,0.6,2.2,0.9,3.4l0.2,1l0.1-0.9
			c0.1-0.6,0.2-1.2,0.4-1.8c0.1-0.5,0.3-1.2,0.4-1.5c0.1-0.4,0.2-0.9,0.3-1.3c0.1-0.3,0.2-0.9,0.3-1.2c0.1-0.3,0.8-3,1.5-5.8
			c0.7-2.9,1.5-6,1.8-7l0.5-1.8l2.1,0c1.6,0,2.1,0,2.1,0.2c-0.1,0.4-0.2,0.9-0.3,1.3c-0.2,0.6-0.5,1.6-0.6,2.2
			c-0.2,0.6-0.5,1.7-0.7,2.4c-0.2,0.7-0.5,1.7-0.7,2.4c-0.4,1.5-0.8,3-1.2,4.4c-0.2,0.6-1,3.5-1.8,6.3c-0.8,2.9-1.6,5.7-1.8,6.3
			l-0.3,1.1h-3.8l-0.2-0.4c-0.1-0.3-0.2-0.8-0.4-1.2c-0.1-0.4-0.3-0.9-0.3-1.1c-0.1-0.2-0.2-0.7-0.3-1.1c-0.1-0.4-0.3-0.9-0.3-1.1
			c-0.1-0.2-0.2-0.7-0.3-1.1c-0.1-0.4-0.3-0.9-0.3-1.1c-0.1-0.2-0.2-0.7-0.3-1.1c-0.1-0.4-0.4-1.3-0.6-2.1c-0.2-0.8-0.5-1.9-0.7-2.3
			c-0.1-0.5-0.3-1.2-0.5-1.7c-0.1-0.5-0.4-1.4-0.6-2.1c-0.1-0.5-0.3-0.9-0.5-1.4c-0.1-0.1-0.1-0.3-0.1-0.4c-0.1-0.9-0.4-2.3-0.5-2.2
			c-0.1,0.1-0.3,0.7-0.5,1.5c-0.4,1.3-0.8,3-1.2,4.2c-0.1,0.3-0.2,0.8-0.3,1.1c-0.2,0.8-0.5,1.7-0.7,2.3c-0.1,0.3-0.2,0.8-0.3,1.1
			c-0.1,0.3-0.2,0.8-0.3,1.1c-0.1,0.3-0.2,0.8-0.3,1.2c-0.1,0.3-0.2,0.8-0.3,1.1c-0.1,0.3-0.3,1-0.5,1.7c-0.2,0.6-0.6,1.9-0.8,2.8
			c-0.3,0.9-0.6,1.9-0.6,2.1c-0.1,0.3-0.1,0.4-2.1,0.4h-2.1L170.7,91z"/>
		<path class="st1" d="M213.5,78.3V65h4.6v26.5h-4.6V78.3z"/>
		<path class="st1" d="M214.5,59.9c-1.6-0.8-1.8-3.1-0.3-4.1c0.4-0.3,2.8-0.8,2.5-0.5c0,0,0.2,0.2,0.5,0.4c1.7,0.9,1.7,3.4,0,4.3
			C216.3,60.3,215.2,60.3,214.5,59.9z"/>
	</g>
</g>
</svg>
