<?xml version="1.0" encoding="utf-8"?>
<!-- Generator: Adobe Illustrator 22.0.0, SVG Export Plug-In . SVG Version: 6.00 Build 0)  -->
<svg version="1.1" id="Layer_1" xmlns="http://www.w3.org/2000/svg" xmlns:xlink="http://www.w3.org/1999/xlink" x="0px" y="0px"
	 viewBox="0 0 404.7 218.4" style="enable-background:new 0 0 404.7 218.4;" xml:space="preserve">
<style type="text/css">
	.st0{fill:url(#SVGID_1_);}
	.st1{fill:#A8A9AC;}
</style>
<g>
	<linearGradient id="SVGID_1_" gradientUnits="userSpaceOnUse" x1="0" y1="109.2056" x2="404.749" y2="109.2056">
		<stop  offset="0" style="stop-color:#393939"/>
		<stop  offset="0.739" style="stop-color:#101010"/>
	</linearGradient>
	<rect class="st0" width="404.7" height="218.4"/>
	<path class="st1" d="M260.4,70.9c-0.2-3.5-1.6-6.4-3.5-8.4c-0.2-0.2-0.4-0.4-0.7-0.6c-0.2-0.2-0.5-0.4-0.7-0.6
		c-0.2-0.1-0.3-0.3-0.5-0.4c-0.2-0.1-0.3-0.2-0.5-0.3c-0.2-0.1-0.4-0.2-0.6-0.3c-0.5-0.3-1-0.4-1.5-0.6c-0.3-0.1-0.5-0.2-0.8-0.2
		c-1-0.2-2.1-0.3-3.3-0.2c-0.4,0-0.9,0.1-1.3,0.2c-0.4,0.1-0.8,0.2-1.2,0.3c-0.4,0.1-0.8,0.3-1.1,0.4c-0.4,0.2-0.7,0.3-1,0.5
		c-0.2,0.1-0.4,0.3-0.6,0.4c-0.4,0.3-0.8,0.6-1.1,0.9c-0.2,0.2-0.4,0.3-0.5,0.5c-0.5,0.5-1,1.2-1.4,1.8c-0.1,0.2-0.3,0.4-0.4,0.7
		c-0.1,0.2-0.2,0.4-0.3,0.6c-0.1,0.1-0.1,0.2-0.2,0.4c-0.1,0.2-0.2,0.4-0.2,0.6c-0.1,0.3-0.2,0.5-0.3,0.8c-0.1,0.3-0.2,0.5-0.2,0.8
		c-0.1,0.6-0.3,1.1-0.3,1.7c-0.1,0.9-0.1,1.9-0.1,2.9c0.1,2.1,0.6,3.9,1.3,5.4c0.1,0.2,0.2,0.3,0.2,0.5c0.1,0.2,0.2,0.3,0.3,0.5
		c0.2,0.3,0.3,0.6,0.6,0.9c0.3,0.4,0.6,0.8,1,1.3c0.8,0.9,1.9,1.7,3.2,2.3c0.4,0.2,0.9,0.3,1.3,0.5c0.6,0.2,1.3,0.3,1.9,0.4
		c0.7,0.1,1.4,0.1,2.2,0c0.2,0,0.4-0.1,0.7-0.1c0.4-0.1,0.8-0.1,1.2-0.2c0.2-0.1,0.4-0.1,0.6-0.2c0.3-0.1,0.6-0.2,0.8-0.3
		c0.2-0.1,0.4-0.2,0.6-0.3c0.4-0.2,0.8-0.4,1.2-0.7c0.1-0.1,0.3-0.2,0.4-0.3c0,0,0.1,0,0.1-0.1c0,0,0,0,0,0c0.2-0.1,0.3-0.3,0.5-0.4
		c0.1-0.1,0.3-0.2,0.4-0.4c0,0,0,0,0,0c0.2-0.2,0.4-0.4,0.6-0.6c0,0,0.1-0.1,0.1-0.1c0.1-0.1,0.1-0.2,0.2-0.2
		c0.1-0.2,0.3-0.3,0.4-0.5c0.5-0.6,0.9-1.3,1.3-2.1c0,0,0,0,0,0c0.1-0.3,0.3-0.6,0.4-1l0,0C260.2,75.3,260.6,73.2,260.4,70.9z
		 M260.4,70.9c-0.2-3.5-1.6-6.4-3.5-8.4c-0.2-0.2-0.4-0.4-0.7-0.6c-0.2-0.2-0.5-0.4-0.7-0.6c-0.2-0.1-0.3-0.3-0.5-0.4
		c-0.2-0.1-0.3-0.2-0.5-0.3c-0.2-0.1-0.4-0.2-0.6-0.3c-0.5-0.3-1-0.4-1.5-0.6c-0.3-0.1-0.5-0.2-0.8-0.2c-1-0.2-2.1-0.3-3.3-0.2
		c-0.4,0-0.9,0.1-1.3,0.2c-0.4,0.1-0.8,0.2-1.2,0.3c-0.4,0.1-0.8,0.3-1.1,0.4c-0.4,0.2-0.7,0.3-1,0.5c-0.2,0.1-0.4,0.3-0.6,0.4
		c-0.4,0.3-0.8,0.6-1.1,0.9c-0.2,0.2-0.4,0.3-0.5,0.5c-0.5,0.5-1,1.2-1.4,1.8c-0.1,0.2-0.3,0.4-0.4,0.7c-0.1,0.2-0.2,0.4-0.3,0.6
		c-0.1,0.1-0.1,0.2-0.2,0.4c-0.1,0.2-0.2,0.4-0.2,0.6c-0.1,0.3-0.2,0.5-0.3,0.8c-0.1,0.3-0.2,0.5-0.2,0.8c-0.1,0.6-0.3,1.1-0.3,1.7
		c-0.1,0.9-0.1,1.9-0.1,2.9c0.1,2.1,0.6,3.9,1.3,5.4c0.1,0.2,0.2,0.3,0.2,0.5c0.1,0.2,0.2,0.3,0.3,0.5c0.2,0.3,0.3,0.6,0.6,0.9
		c0.3,0.4,0.6,0.8,1,1.3c0.8,0.9,1.9,1.7,3.2,2.3c0.4,0.2,0.9,0.3,1.3,0.5c0.6,0.2,1.3,0.3,1.9,0.4c0.7,0.1,1.4,0.1,2.2,0
		c0.2,0,0.4-0.1,0.7-0.1c0.4-0.1,0.8-0.1,1.2-0.2c0.2-0.1,0.4-0.1,0.6-0.2c0.3-0.1,0.6-0.2,0.8-0.3c0.2-0.1,0.4-0.2,0.6-0.3
		c0.4-0.2,0.8-0.4,1.2-0.7c0.1-0.1,0.3-0.2,0.4-0.3c0,0,0.1,0,0.1-0.1c0,0,0,0,0,0c0.2-0.1,0.3-0.3,0.5-0.4c0.1-0.1,0.3-0.2,0.4-0.4
		c0,0,0,0,0,0c0.2-0.2,0.4-0.4,0.6-0.6c0,0,0.1-0.1,0.1-0.1c0.1-0.1,0.1-0.2,0.2-0.2c0.1-0.2,0.3-0.3,0.4-0.5
		c0.5-0.6,0.9-1.3,1.3-2.1c0,0,0,0,0,0c0.1-0.3,0.3-0.6,0.4-1l0,0C260.2,75.3,260.6,73.2,260.4,70.9z M260.4,70.9
		c-0.2-3.5-1.6-6.4-3.5-8.4c-0.2-0.2-0.4-0.4-0.7-0.6c-0.2-0.2-0.5-0.4-0.7-0.6c-0.2-0.1-0.3-0.3-0.5-0.4c-0.2-0.1-0.3-0.2-0.5-0.3
		c-0.2-0.1-0.4-0.2-0.6-0.3c-0.5-0.3-1-0.4-1.5-0.6c-0.3-0.1-0.5-0.2-0.8-0.2c-1-0.2-2.1-0.3-3.3-0.2c-0.4,0-0.9,0.1-1.3,0.2
		c-0.4,0.1-0.8,0.2-1.2,0.3c-0.4,0.1-0.8,0.3-1.1,0.4c-0.4,0.2-0.7,0.3-1,0.5c-0.2,0.1-0.4,0.3-0.6,0.4c-0.4,0.3-0.8,0.6-1.1,0.9
		c-0.2,0.2-0.4,0.3-0.5,0.5c-0.5,0.5-1,1.2-1.4,1.8c-0.1,0.2-0.3,0.4-0.4,0.7c-0.1,0.2-0.2,0.4-0.3,0.6c-0.1,0.1-0.1,0.2-0.2,0.4
		c-0.1,0.2-0.2,0.4-0.2,0.6c-0.1,0.3-0.2,0.5-0.3,0.8c-0.1,0.3-0.2,0.5-0.2,0.8c-0.1,0.6-0.3,1.1-0.3,1.7c-0.1,0.9-0.1,1.9-0.1,2.9
		c0.1,2.1,0.6,3.9,1.3,5.4c0.1,0.2,0.2,0.3,0.2,0.5c0.1,0.2,0.2,0.3,0.3,0.5c0.2,0.3,0.3,0.6,0.6,0.9c0.3,0.4,0.6,0.8,1,1.3
		c0.8,0.9,1.9,1.7,3.2,2.3c0.4,0.2,0.9,0.3,1.3,0.5c0.6,0.2,1.3,0.3,1.9,0.4c0.7,0.1,1.4,0.1,2.2,0c0.2,0,0.4-0.1,0.7-0.1
		c0.4-0.1,0.8-0.1,1.2-0.2c0.2-0.1,0.4-0.1,0.6-0.2c0.3-0.1,0.6-0.2,0.8-0.3c0.2-0.1,0.4-0.2,0.6-0.3c0.4-0.2,0.8-0.4,1.2-0.7
		c0.1-0.1,0.3-0.2,0.4-0.3c0,0,0.1,0,0.1-0.1c0,0,0,0,0,0c0.2-0.1,0.3-0.3,0.5-0.4c0.1-0.1,0.3-0.2,0.4-0.4c0,0,0,0,0,0
		c0.2-0.2,0.4-0.4,0.6-0.6c0,0,0.1-0.1,0.1-0.1c0.1-0.1,0.1-0.2,0.2-0.2c0.1-0.2,0.3-0.3,0.4-0.5c0.5-0.6,0.9-1.3,1.3-2.1
		c0,0,0,0,0,0c0.1-0.3,0.3-0.6,0.4-1l0,0C260.2,75.3,260.6,73.2,260.4,70.9z M260.4,70.9c-0.2-3.5-1.6-6.4-3.5-8.4
		c-0.2-0.2-0.4-0.4-0.7-0.6c-0.2-0.2-0.5-0.4-0.7-0.6c-0.2-0.1-0.3-0.3-0.5-0.4c-0.2-0.1-0.3-0.2-0.5-0.3c-0.2-0.1-0.4-0.2-0.6-0.3
		c-0.5-0.3-1-0.4-1.5-0.6c-0.3-0.1-0.5-0.2-0.8-0.2c-1-0.2-2.1-0.3-3.3-0.2c-0.4,0-0.9,0.1-1.3,0.2c-0.4,0.1-0.8,0.2-1.2,0.3
		c-0.4,0.1-0.8,0.3-1.1,0.4c-0.4,0.2-0.7,0.3-1,0.5c-0.2,0.1-0.4,0.3-0.6,0.4c-0.4,0.3-0.8,0.6-1.1,0.9c-0.2,0.2-0.4,0.3-0.5,0.5
		c-0.5,0.5-1,1.2-1.4,1.8c-0.1,0.2-0.3,0.4-0.4,0.7c-0.1,0.2-0.2,0.4-0.3,0.6c-0.1,0.1-0.1,0.2-0.2,0.4c-0.1,0.2-0.2,0.4-0.2,0.6
		c-0.1,0.3-0.2,0.5-0.3,0.8c-0.1,0.3-0.2,0.5-0.2,0.8c-0.1,0.6-0.3,1.1-0.3,1.7c-0.1,0.9-0.1,1.9-0.1,2.9c0.1,2.1,0.6,3.9,1.3,5.4
		c0.1,0.2,0.2,0.3,0.2,0.5c0.1,0.2,0.2,0.3,0.3,0.5c0.2,0.3,0.3,0.6,0.6,0.9c0.3,0.4,0.6,0.8,1,1.3c0.8,0.9,1.9,1.7,3.2,2.3
		c0.4,0.2,0.9,0.3,1.3,0.5c0.6,0.2,1.3,0.3,1.9,0.4c0.7,0.1,1.4,0.1,2.2,0c0.2,0,0.4-0.1,0.7-0.1c0.4-0.1,0.8-0.1,1.2-0.2
		c0.2-0.1,0.4-0.1,0.6-0.2c0.3-0.1,0.6-0.2,0.8-0.3c0.2-0.1,0.4-0.2,0.6-0.3c0.4-0.2,0.8-0.4,1.2-0.7c0.1-0.1,0.3-0.2,0.4-0.3
		c0,0,0.1,0,0.1-0.1c0,0,0,0,0,0c0.2-0.1,0.3-0.3,0.5-0.4c0.1-0.1,0.3-0.2,0.4-0.4c0,0,0,0,0,0c0.2-0.2,0.4-0.4,0.6-0.6
		c0,0,0.1-0.1,0.1-0.1c0.1-0.1,0.1-0.2,0.2-0.2c0.1-0.2,0.3-0.3,0.4-0.5c0.5-0.6,0.9-1.3,1.3-2.1c0,0,0,0,0,0c0.1-0.3,0.3-0.6,0.4-1
		l0,0C260.2,75.3,260.6,73.2,260.4,70.9z M145.2,115.8L145.2,115.8c-0.1,0-0.2,0-0.3,0c-0.1,0-0.3,0-0.4,0c-0.2,0-0.3,0-0.4,0.1
		c-0.2,0-0.4,0.1-0.6,0.1c0,0,0,0,0,0c-1,0.2-1.8,0.6-1.8,1.5c0.1,0.2,0.3,0.3,0.5,0.4c0,0,0,0,0,0c0.5,0.2,1.2,0.2,1.8,0.2
		c0.1,0,0.2,0,0.3,0c0.1,0,0.2,0,0.3,0c0.1,0,0.3,0,0.4,0c0,0,0.1,0,0.1,0h0C145.2,117.2,145.2,116.6,145.2,115.8z M260.4,70.9
		c-0.2-3.5-1.6-6.4-3.5-8.4c-0.2-0.2-0.4-0.4-0.7-0.6c-0.2-0.2-0.5-0.4-0.7-0.6c-0.2-0.1-0.3-0.3-0.5-0.4c-0.2-0.1-0.3-0.2-0.5-0.3
		c-0.2-0.1-0.4-0.2-0.6-0.3c-0.5-0.3-1-0.4-1.5-0.6c-0.3-0.1-0.5-0.2-0.8-0.2c-1-0.2-2.1-0.3-3.3-0.2c-0.4,0-0.9,0.1-1.3,0.2
		c-0.4,0.1-0.8,0.2-1.2,0.3c-0.4,0.1-0.8,0.3-1.1,0.4c-0.4,0.2-0.7,0.3-1,0.5c-0.2,0.1-0.4,0.3-0.6,0.4c-0.4,0.3-0.8,0.6-1.1,0.9
		c-0.2,0.2-0.4,0.3-0.5,0.5c-0.5,0.5-1,1.2-1.4,1.8c-0.1,0.2-0.3,0.4-0.4,0.7c-0.1,0.2-0.2,0.4-0.3,0.6c-0.1,0.1-0.1,0.2-0.2,0.4
		c-0.1,0.2-0.2,0.4-0.2,0.6c-0.1,0.3-0.2,0.5-0.3,0.8c-0.1,0.3-0.2,0.5-0.2,0.8c-0.1,0.6-0.3,1.1-0.3,1.7c-0.1,0.9-0.1,1.9-0.1,2.9
		c0.1,2.1,0.6,3.9,1.3,5.4c0.1,0.2,0.2,0.3,0.2,0.5c0.1,0.2,0.2,0.3,0.3,0.5c0.2,0.3,0.3,0.6,0.6,0.9c0.3,0.4,0.6,0.8,1,1.3
		c0.8,0.9,1.9,1.7,3.2,2.3c0.4,0.2,0.9,0.3,1.3,0.5c0.6,0.2,1.3,0.3,1.9,0.4c0.7,0.1,1.4,0.1,2.2,0c0.2,0,0.4-0.1,0.7-0.1
		c0.4-0.1,0.8-0.1,1.2-0.2c0.2-0.1,0.4-0.1,0.6-0.2c0.3-0.1,0.6-0.2,0.8-0.3c0.2-0.1,0.4-0.2,0.6-0.3c0.4-0.2,0.8-0.4,1.2-0.7
		c0.1-0.1,0.3-0.2,0.4-0.3c0,0,0.1,0,0.1-0.1c0,0,0,0,0,0c0.2-0.1,0.3-0.3,0.5-0.4c0.1-0.1,0.3-0.2,0.4-0.4c0,0,0,0,0,0
		c0.2-0.2,0.4-0.4,0.6-0.6c0,0,0.1-0.1,0.1-0.1c0.1-0.1,0.1-0.2,0.2-0.2c0.1-0.2,0.3-0.3,0.4-0.5c0.5-0.6,0.9-1.3,1.3-2.1
		c0,0,0,0,0,0c0.1-0.3,0.3-0.6,0.4-1l0,0C260.2,75.3,260.6,73.2,260.4,70.9z M260.4,70.9c-0.2-3.5-1.6-6.4-3.5-8.4
		c-0.2-0.2-0.4-0.4-0.7-0.6c-0.2-0.2-0.5-0.4-0.7-0.6c-0.2-0.1-0.3-0.3-0.5-0.4c-0.2-0.1-0.3-0.2-0.5-0.3c-0.2-0.1-0.4-0.2-0.6-0.3
		c-0.5-0.3-1-0.4-1.5-0.6c-0.3-0.1-0.5-0.2-0.8-0.2c-1-0.2-2.1-0.3-3.3-0.2c-0.4,0-0.9,0.1-1.3,0.2c-0.4,0.1-0.8,0.2-1.2,0.3
		c-0.4,0.1-0.8,0.3-1.1,0.4c-0.4,0.2-0.7,0.3-1,0.5c-0.2,0.1-0.4,0.3-0.6,0.4c-0.4,0.3-0.8,0.6-1.1,0.9c-0.2,0.2-0.4,0.3-0.5,0.5
		c-0.5,0.5-1,1.2-1.4,1.8c-0.1,0.2-0.3,0.4-0.4,0.7c-0.1,0.2-0.2,0.4-0.3,0.6c-0.1,0.1-0.1,0.2-0.2,0.4c-0.1,0.2-0.2,0.4-0.2,0.6
		c-0.1,0.3-0.2,0.5-0.3,0.8c-0.1,0.3-0.2,0.5-0.2,0.8c-0.1,0.6-0.3,1.1-0.3,1.7c-0.1,0.9-0.1,1.9-0.1,2.9c0.1,2.1,0.6,3.9,1.3,5.4
		c0.1,0.2,0.2,0.3,0.2,0.5c0.1,0.2,0.2,0.3,0.3,0.5c0.2,0.3,0.3,0.6,0.6,0.9c0.3,0.4,0.6,0.8,1,1.3c0.8,0.9,1.9,1.7,3.2,2.3
		c0.4,0.2,0.9,0.3,1.3,0.5c0.6,0.2,1.3,0.3,1.9,0.4c0.7,0.1,1.4,0.1,2.2,0c0.2,0,0.4-0.1,0.7-0.1c0.4-0.1,0.8-0.1,1.2-0.2
		c0.2-0.1,0.4-0.1,0.6-0.2c0.3-0.1,0.6-0.2,0.8-0.3c0.2-0.1,0.4-0.2,0.6-0.3c0.4-0.2,0.8-0.4,1.2-0.7c0.1-0.1,0.3-0.2,0.4-0.3
		c0,0,0.1,0,0.1-0.1c0,0,0,0,0,0c0.2-0.1,0.3-0.3,0.5-0.4c0.1-0.1,0.3-0.2,0.4-0.4c0,0,0,0,0,0c0.2-0.2,0.4-0.4,0.6-0.6
		c0,0,0.1-0.1,0.1-0.1c0.1-0.1,0.1-0.2,0.2-0.2c0.1-0.2,0.3-0.3,0.4-0.5c0.5-0.6,0.9-1.3,1.3-2.1c0,0,0,0,0,0c0.1-0.3,0.3-0.6,0.4-1
		l0,0C260.2,75.3,260.6,73.2,260.4,70.9z M145.2,115.8L145.2,115.8c-0.1,0-0.2,0-0.3,0c-0.1,0-0.3,0-0.4,0c-0.2,0-0.3,0-0.4,0.1
		c-0.2,0-0.4,0.1-0.6,0.1c0,0,0,0,0,0c-1,0.2-1.8,0.6-1.8,1.5c0.1,0.2,0.3,0.3,0.5,0.4c0,0,0,0,0,0c0.5,0.2,1.2,0.2,1.8,0.2
		c0.1,0,0.2,0,0.3,0c0.1,0,0.2,0,0.3,0c0.1,0,0.3,0,0.4,0c0,0,0.1,0,0.1,0h0C145.2,117.2,145.2,116.6,145.2,115.8z M145.2,115.8
		L145.2,115.8c-0.1,0-0.2,0-0.3,0c-0.1,0-0.3,0-0.4,0c-0.2,0-0.3,0-0.4,0.1c-0.2,0-0.4,0.1-0.6,0.1c0,0,0,0,0,0
		c-1,0.2-1.8,0.6-1.8,1.5c0.1,0.2,0.3,0.3,0.5,0.4c0,0,0,0,0,0c0.5,0.2,1.2,0.2,1.8,0.2c0.1,0,0.2,0,0.3,0c0.1,0,0.2,0,0.3,0
		c0.1,0,0.3,0,0.4,0c0,0,0.1,0,0.1,0h0C145.2,117.2,145.2,116.6,145.2,115.8z M178.8,109.2c-0.5-0.1-1,0.5-1.4,1.4c0,0,0,0,0,0
		c-0.1,0.3-0.3,0.6-0.4,0.9c-0.1,0.3-0.2,0.6-0.3,0.8c-0.1,0.2-0.1,0.3-0.2,0.4c-0.1,0.3-0.2,0.6-0.3,0.9c0,0,0,0,0,0
		c-0.1,0.2-0.1,0.4-0.2,0.7c0,0.2-0.1,0.4-0.1,0.7c0,0.2,0,0.3-0.1,0.5c0,0.3-0.1,0.5-0.1,0.8c0,0.4,0,0.8,0.1,1.1
		c0.2,0,0.4,0,0.5-0.1c0.1,0,0.1-0.1,0.2-0.1c0.1,0,0.1-0.1,0.2-0.1c0.1-0.1,0.2-0.2,0.3-0.3c0.1-0.1,0.2-0.2,0.3-0.3
		c0.1-0.1,0.2-0.2,0.3-0.3c0.4-0.4,1-0.9,1.3-1.5c0-0.1,0.1-0.2,0.1-0.3c0.1-0.2,0.1-0.5,0.2-0.8c0-0.3,0-0.6,0.1-0.9
		c0-0.3,0-0.5,0-0.7C179.3,110.9,179.4,109.4,178.8,109.2z M201.8,115.8c-0.3,0-0.7,0-1.1,0.1c-0.2,0-0.4,0.1-0.6,0.1c0,0,0,0-0.1,0
		c-0.3,0.1-0.6,0.2-0.9,0.3c-0.1,0.1-0.3,0.1-0.4,0.2c0,0-0.1,0.1-0.2,0.1c0,0-0.1,0.1-0.1,0.1c-0.1,0.1-0.2,0.2-0.2,0.3
		c0,0.1,0,0.2,0,0.3c0,0.1,0.1,0.3,0.2,0.3c0,0,0.1,0.1,0.1,0.1c0.1,0,0.1,0.1,0.2,0.1c0.1,0,0.1,0.1,0.2,0.1c0,0,0.1,0,0.1,0
		c0,0,0,0,0,0h0c0.1,0,0.1,0,0.2,0c0,0,0,0,0.1,0h0.1c0.1,0,0.1,0,0.2,0c0.7,0.1,1.6-0.1,2.2-0.2
		C201.8,117.3,201.8,116.4,201.8,115.8z M260.4,70.9c-0.2-3.5-1.6-6.4-3.5-8.4c-0.2-0.2-0.4-0.4-0.7-0.6c-0.2-0.2-0.5-0.4-0.7-0.6
		c-0.2-0.1-0.3-0.3-0.5-0.4c-0.2-0.1-0.3-0.2-0.5-0.3c-0.2-0.1-0.4-0.2-0.6-0.3c-0.5-0.3-1-0.4-1.5-0.6c-0.3-0.1-0.5-0.2-0.8-0.2
		c-1-0.2-2.1-0.3-3.3-0.2c-0.4,0-0.9,0.1-1.3,0.2c-0.4,0.1-0.8,0.2-1.2,0.3c-0.4,0.1-0.8,0.3-1.1,0.4c-0.4,0.2-0.7,0.3-1,0.5
		c-0.2,0.1-0.4,0.3-0.6,0.4c-0.4,0.3-0.8,0.6-1.1,0.9c-0.2,0.2-0.4,0.3-0.5,0.5c-0.5,0.5-1,1.2-1.4,1.8c-0.1,0.2-0.3,0.4-0.4,0.7
		c-0.1,0.2-0.2,0.4-0.3,0.6c-0.1,0.1-0.1,0.2-0.2,0.4c-0.1,0.2-0.2,0.4-0.2,0.6c-0.1,0.3-0.2,0.5-0.3,0.8c-0.1,0.3-0.2,0.5-0.2,0.8
		c-0.1,0.6-0.3,1.1-0.3,1.7c-0.1,0.9-0.1,1.9-0.1,2.9c0.1,2.1,0.6,3.9,1.3,5.4c0.1,0.2,0.2,0.3,0.2,0.5c0.1,0.2,0.2,0.3,0.3,0.5
		c0.2,0.3,0.3,0.6,0.6,0.9c0.3,0.4,0.6,0.8,1,1.3c0.8,0.9,1.9,1.7,3.2,2.3c0.4,0.2,0.9,0.3,1.3,0.5c0.6,0.2,1.3,0.3,1.9,0.4
		c0.7,0.1,1.4,0.1,2.2,0c0.2,0,0.4-0.1,0.7-0.1c0.4-0.1,0.8-0.1,1.2-0.2c0.2-0.1,0.4-0.1,0.6-0.2c0.3-0.1,0.6-0.2,0.8-0.3
		c0.2-0.1,0.4-0.2,0.6-0.3c0.4-0.2,0.8-0.4,1.2-0.7c0.1-0.1,0.3-0.2,0.4-0.3c0,0,0.1,0,0.1-0.1c0,0,0,0,0,0c0.2-0.1,0.3-0.3,0.5-0.4
		c0.1-0.1,0.3-0.2,0.4-0.4c0,0,0,0,0,0c0.2-0.2,0.4-0.4,0.6-0.6c0,0,0.1-0.1,0.1-0.1c0.1-0.1,0.1-0.2,0.2-0.2
		c0.1-0.2,0.3-0.3,0.4-0.5c0.5-0.6,0.9-1.3,1.3-2.1c0,0,0,0,0,0c0.1-0.3,0.3-0.6,0.4-1l0,0C260.2,75.3,260.6,73.2,260.4,70.9z
		 M260.4,70.9c-0.2-3.5-1.6-6.4-3.5-8.4c-0.2-0.2-0.4-0.4-0.7-0.6c-0.2-0.2-0.5-0.4-0.7-0.6c-0.2-0.1-0.3-0.3-0.5-0.4
		c-0.2-0.1-0.3-0.2-0.5-0.3c-0.2-0.1-0.4-0.2-0.6-0.3c-0.5-0.3-1-0.4-1.5-0.6c-0.3-0.1-0.5-0.2-0.8-0.2c-1-0.2-2.1-0.3-3.3-0.2
		c-0.4,0-0.9,0.1-1.3,0.2c-0.4,0.1-0.8,0.2-1.2,0.3c-0.4,0.1-0.8,0.3-1.1,0.4c-0.4,0.2-0.7,0.3-1,0.5c-0.2,0.1-0.4,0.3-0.6,0.4
		c-0.4,0.3-0.8,0.6-1.1,0.9c-0.2,0.2-0.4,0.3-0.5,0.5c-0.5,0.5-1,1.2-1.4,1.8c-0.1,0.2-0.3,0.4-0.4,0.7c-0.1,0.2-0.2,0.4-0.3,0.6
		c-0.1,0.1-0.1,0.2-0.2,0.4c-0.1,0.2-0.2,0.4-0.2,0.6c-0.1,0.3-0.2,0.5-0.3,0.8c-0.1,0.3-0.2,0.5-0.2,0.8c-0.1,0.6-0.3,1.1-0.3,1.7
		c-0.1,0.9-0.1,1.9-0.1,2.9c0.1,2.1,0.6,3.9,1.3,5.4c0.1,0.2,0.2,0.3,0.2,0.5c0.1,0.2,0.2,0.3,0.3,0.5c0.2,0.3,0.3,0.6,0.6,0.9
		c0.3,0.4,0.6,0.8,1,1.3c0.8,0.9,1.9,1.7,3.2,2.3c0.4,0.2,0.9,0.3,1.3,0.5c0.6,0.2,1.3,0.3,1.9,0.4c0.7,0.1,1.4,0.1,2.2,0
		c0.2,0,0.4-0.1,0.7-0.1c0.4-0.1,0.8-0.1,1.2-0.2c0.2-0.1,0.4-0.1,0.6-0.2c0.3-0.1,0.6-0.2,0.8-0.3c0.2-0.1,0.4-0.2,0.6-0.3
		c0.4-0.2,0.8-0.4,1.2-0.7c0.1-0.1,0.3-0.2,0.4-0.3c0,0,0.1,0,0.1-0.1c0,0,0,0,0,0c0.2-0.1,0.3-0.3,0.5-0.4c0.1-0.1,0.3-0.2,0.4-0.4
		c0,0,0,0,0,0c0.2-0.2,0.4-0.4,0.6-0.6c0,0,0.1-0.1,0.1-0.1c0.1-0.1,0.1-0.2,0.2-0.2c0.1-0.2,0.3-0.3,0.4-0.5
		c0.5-0.6,0.9-1.3,1.3-2.1c0,0,0,0,0,0c0.1-0.3,0.3-0.6,0.4-1l0,0C260.2,75.3,260.6,73.2,260.4,70.9z M145.2,115.8L145.2,115.8
		c-0.1,0-0.2,0-0.3,0c-0.1,0-0.3,0-0.4,0c-0.2,0-0.3,0-0.4,0.1c-0.2,0-0.4,0.1-0.6,0.1c0,0,0,0,0,0c-1,0.2-1.8,0.6-1.8,1.5
		c0.1,0.2,0.3,0.3,0.5,0.4c0,0,0,0,0,0c0.5,0.2,1.2,0.2,1.8,0.2c0.1,0,0.2,0,0.3,0c0.1,0,0.2,0,0.3,0c0.1,0,0.3,0,0.4,0
		c0,0,0.1,0,0.1,0h0C145.2,117.2,145.2,116.6,145.2,115.8z M178.8,109.2c-0.5-0.1-1,0.5-1.4,1.4c0,0,0,0,0,0
		c-0.1,0.3-0.3,0.6-0.4,0.9c-0.1,0.3-0.2,0.6-0.3,0.8c-0.1,0.2-0.1,0.3-0.2,0.4c-0.1,0.3-0.2,0.6-0.3,0.9c0,0,0,0,0,0
		c-0.1,0.2-0.1,0.4-0.2,0.7c0,0.2-0.1,0.4-0.1,0.7c0,0.2,0,0.3-0.1,0.5c0,0.3-0.1,0.5-0.1,0.8c0,0.4,0,0.8,0.1,1.1
		c0.2,0,0.4,0,0.5-0.1c0.1,0,0.1-0.1,0.2-0.1c0.1,0,0.1-0.1,0.2-0.1c0.1-0.1,0.2-0.2,0.3-0.3c0.1-0.1,0.2-0.2,0.3-0.3
		c0.1-0.1,0.2-0.2,0.3-0.3c0.4-0.4,1-0.9,1.3-1.5c0-0.1,0.1-0.2,0.1-0.3c0.1-0.2,0.1-0.5,0.2-0.8c0-0.3,0-0.6,0.1-0.9
		c0-0.3,0-0.5,0-0.7C179.3,110.9,179.4,109.4,178.8,109.2z M201.8,115.8c-0.3,0-0.7,0-1.1,0.1c-0.2,0-0.4,0.1-0.6,0.1c0,0,0,0-0.1,0
		c-0.3,0.1-0.6,0.2-0.9,0.3c-0.1,0.1-0.3,0.1-0.4,0.2c0,0-0.1,0.1-0.2,0.1c0,0-0.1,0.1-0.1,0.1c-0.1,0.1-0.2,0.2-0.2,0.3
		c0,0.1,0,0.2,0,0.3c0,0.1,0.1,0.3,0.2,0.3c0,0,0.1,0.1,0.1,0.1c0.1,0,0.1,0.1,0.2,0.1c0.1,0,0.1,0.1,0.2,0.1c0,0,0.1,0,0.1,0
		c0,0,0,0,0,0h0c0.1,0,0.1,0,0.2,0c0,0,0,0,0.1,0h0.1c0.1,0,0.1,0,0.2,0c0.7,0.1,1.6-0.1,2.2-0.2
		C201.8,117.3,201.8,116.4,201.8,115.8z M145.2,115.8L145.2,115.8c-0.1,0-0.2,0-0.3,0c-0.1,0-0.3,0-0.4,0c-0.2,0-0.3,0-0.4,0.1
		c-0.2,0-0.4,0.1-0.6,0.1c0,0,0,0,0,0c-1,0.2-1.8,0.6-1.8,1.5c0.1,0.2,0.3,0.3,0.5,0.4c0,0,0,0,0,0c0.5,0.2,1.2,0.2,1.8,0.2
		c0.1,0,0.2,0,0.3,0c0.1,0,0.2,0,0.3,0c0.1,0,0.3,0,0.4,0c0,0,0.1,0,0.1,0h0C145.2,117.2,145.2,116.6,145.2,115.8z M178.8,109.2
		c-0.5-0.1-1,0.5-1.4,1.4c0,0,0,0,0,0c-0.1,0.3-0.3,0.6-0.4,0.9c-0.1,0.3-0.2,0.6-0.3,0.8c-0.1,0.2-0.1,0.3-0.2,0.4
		c-0.1,0.3-0.2,0.6-0.3,0.9c0,0,0,0,0,0c-0.1,0.2-0.1,0.4-0.2,0.7c0,0.2-0.1,0.4-0.1,0.7c0,0.2,0,0.3-0.1,0.5c0,0.3-0.1,0.5-0.1,0.8
		c0,0.4,0,0.8,0.1,1.1c0.2,0,0.4,0,0.5-0.1c0.1,0,0.1-0.1,0.2-0.1c0.1,0,0.1-0.1,0.2-0.1c0.1-0.1,0.2-0.2,0.3-0.3
		c0.1-0.1,0.2-0.2,0.3-0.3c0.1-0.1,0.2-0.2,0.3-0.3c0.4-0.4,1-0.9,1.3-1.5c0-0.1,0.1-0.2,0.1-0.3c0.1-0.2,0.1-0.5,0.2-0.8
		c0-0.3,0-0.6,0.1-0.9c0-0.3,0-0.5,0-0.7C179.3,110.9,179.4,109.4,178.8,109.2z M201.8,115.8c-0.3,0-0.7,0-1.1,0.1
		c-0.2,0-0.4,0.1-0.6,0.1c0,0,0,0-0.1,0c-0.3,0.1-0.6,0.2-0.9,0.3c-0.1,0.1-0.3,0.1-0.4,0.2c0,0-0.1,0.1-0.2,0.1
		c0,0-0.1,0.1-0.1,0.1c-0.1,0.1-0.2,0.2-0.2,0.3c0,0.1,0,0.2,0,0.3c0,0.1,0.1,0.3,0.2,0.3c0,0,0.1,0.1,0.1,0.1
		c0.1,0,0.1,0.1,0.2,0.1c0.1,0,0.1,0.1,0.2,0.1c0,0,0.1,0,0.1,0c0,0,0,0,0,0h0c0.1,0,0.1,0,0.2,0c0,0,0,0,0.1,0h0.1
		c0.1,0,0.1,0,0.2,0c0.7,0.1,1.6-0.1,2.2-0.2C201.8,117.3,201.8,116.4,201.8,115.8z M240.8,115.8
		C240.8,115.8,240.8,115.8,240.8,115.8c-0.7,0-1.7,0.1-2.4,0.4c-0.2,0.1-0.3,0.1-0.5,0.2c-0.1,0-0.1,0.1-0.2,0.1
		c-0.1,0-0.1,0.1-0.2,0.1c-0.1,0.1-0.2,0.2-0.2,0.3v0c0,0,0,0.1-0.1,0.1c0,0,0,0.1,0,0.1c0,0.2,0,0.4,0.1,0.5c0,0.1,0.1,0.1,0.2,0.1
		c0.1,0.1,0.3,0.2,0.4,0.2c0,0,0,0,0,0c0.1,0,0.2,0,0.3,0c0.1,0,0.2,0,0.3,0c0.4,0,0.8,0,1.1,0c0.2,0,0.3,0,0.5-0.1
		c0.2,0,0.4,0,0.6-0.1C240.9,117.2,240.8,116.5,240.8,115.8z M260.4,70.9c-0.2-3.5-1.6-6.4-3.5-8.4c-0.2-0.2-0.4-0.4-0.7-0.6
		c-0.2-0.2-0.5-0.4-0.7-0.6c-0.2-0.1-0.3-0.3-0.5-0.4c-0.2-0.1-0.3-0.2-0.5-0.3c-0.2-0.1-0.4-0.2-0.6-0.3c-0.5-0.3-1-0.4-1.5-0.6
		c-0.3-0.1-0.5-0.2-0.8-0.2c-1-0.2-2.1-0.3-3.3-0.2c-0.4,0-0.9,0.1-1.3,0.2c-0.4,0.1-0.8,0.2-1.2,0.3c-0.4,0.1-0.8,0.3-1.1,0.4
		c-0.4,0.2-0.7,0.3-1,0.5c-0.2,0.1-0.4,0.3-0.6,0.4c-0.4,0.3-0.8,0.6-1.1,0.9c-0.2,0.2-0.4,0.3-0.5,0.5c-0.5,0.5-1,1.2-1.4,1.8
		c-0.1,0.2-0.3,0.4-0.4,0.7c-0.1,0.2-0.2,0.4-0.3,0.6c-0.1,0.1-0.1,0.2-0.2,0.4c-0.1,0.2-0.2,0.4-0.2,0.6c-0.1,0.3-0.2,0.5-0.3,0.8
		c-0.1,0.3-0.2,0.5-0.2,0.8c-0.1,0.6-0.3,1.1-0.3,1.7c-0.1,0.9-0.1,1.9-0.1,2.9c0.1,2.1,0.6,3.9,1.3,5.4c0.1,0.2,0.2,0.3,0.2,0.5
		c0.1,0.2,0.2,0.3,0.3,0.5c0.2,0.3,0.3,0.6,0.6,0.9c0.3,0.4,0.6,0.8,1,1.3c0.8,0.9,1.9,1.7,3.2,2.3c0.4,0.2,0.9,0.3,1.3,0.5
		c0.6,0.2,1.3,0.3,1.9,0.4c0.7,0.1,1.4,0.1,2.2,0c0.2,0,0.4-0.1,0.7-0.1c0.4-0.1,0.8-0.1,1.2-0.2c0.2-0.1,0.4-0.1,0.6-0.2
		c0.3-0.1,0.6-0.2,0.8-0.3c0.2-0.1,0.4-0.2,0.6-0.3c0.4-0.2,0.8-0.4,1.2-0.7c0.1-0.1,0.3-0.2,0.4-0.3c0,0,0.1,0,0.1-0.1c0,0,0,0,0,0
		c0.2-0.1,0.3-0.3,0.5-0.4c0.1-0.1,0.3-0.2,0.4-0.4c0,0,0,0,0,0c0.2-0.2,0.4-0.4,0.6-0.6c0,0,0.1-0.1,0.1-0.1
		c0.1-0.1,0.1-0.2,0.2-0.2c0.1-0.2,0.3-0.3,0.4-0.5c0.5-0.6,0.9-1.3,1.3-2.1c0,0,0,0,0,0c0.1-0.3,0.3-0.6,0.4-1l0,0
		C260.2,75.3,260.6,73.2,260.4,70.9z M260.4,70.9c-0.2-3.5-1.6-6.4-3.5-8.4c-0.2-0.2-0.4-0.4-0.7-0.6c-0.2-0.2-0.5-0.4-0.7-0.6
		c-0.2-0.1-0.3-0.3-0.5-0.4c-0.2-0.1-0.3-0.2-0.5-0.3c-0.2-0.1-0.4-0.2-0.6-0.3c-0.5-0.3-1-0.4-1.5-0.6c-0.3-0.1-0.5-0.2-0.8-0.2
		c-1-0.2-2.1-0.3-3.3-0.2c-0.4,0-0.9,0.1-1.3,0.2c-0.4,0.1-0.8,0.2-1.2,0.3c-0.4,0.1-0.8,0.3-1.1,0.4c-0.4,0.2-0.7,0.3-1,0.5
		c-0.2,0.1-0.4,0.3-0.6,0.4c-0.4,0.3-0.8,0.6-1.1,0.9c-0.2,0.2-0.4,0.3-0.5,0.5c-0.5,0.5-1,1.2-1.4,1.8c-0.1,0.2-0.3,0.4-0.4,0.7
		c-0.1,0.2-0.2,0.4-0.3,0.6c-0.1,0.1-0.1,0.2-0.2,0.4c-0.1,0.2-0.2,0.4-0.2,0.6c-0.1,0.3-0.2,0.5-0.3,0.8c-0.1,0.3-0.2,0.5-0.2,0.8
		c-0.1,0.6-0.3,1.1-0.3,1.7c-0.1,0.9-0.1,1.9-0.1,2.9c0.1,2.1,0.6,3.9,1.3,5.4c0.1,0.2,0.2,0.3,0.2,0.5c0.1,0.2,0.2,0.3,0.3,0.5
		c0.2,0.3,0.3,0.6,0.6,0.9c0.3,0.4,0.6,0.8,1,1.3c0.8,0.9,1.9,1.7,3.2,2.3c0.4,0.2,0.9,0.3,1.3,0.5c0.6,0.2,1.3,0.3,1.9,0.4
		c0.7,0.1,1.4,0.1,2.2,0c0.2,0,0.4-0.1,0.7-0.1c0.4-0.1,0.8-0.1,1.2-0.2c0.2-0.1,0.4-0.1,0.6-0.2c0.3-0.1,0.6-0.2,0.8-0.3
		c0.2-0.1,0.4-0.2,0.6-0.3c0.4-0.2,0.8-0.4,1.2-0.7c0.1-0.1,0.3-0.2,0.4-0.3c0,0,0.1,0,0.1-0.1c0,0,0,0,0,0c0.2-0.1,0.3-0.3,0.5-0.4
		c0.1-0.1,0.3-0.2,0.4-0.4c0,0,0,0,0,0c0.2-0.2,0.4-0.4,0.6-0.6c0,0,0.1-0.1,0.1-0.1c0.1-0.1,0.1-0.2,0.2-0.2
		c0.1-0.2,0.3-0.3,0.4-0.5c0.5-0.6,0.9-1.3,1.3-2.1c0,0,0,0,0,0c0.1-0.3,0.3-0.6,0.4-1l0,0C260.2,75.3,260.6,73.2,260.4,70.9z
		 M240.8,115.8C240.8,115.8,240.8,115.8,240.8,115.8c-0.7,0-1.7,0.1-2.4,0.4c-0.2,0.1-0.3,0.1-0.5,0.2c-0.1,0-0.1,0.1-0.2,0.1
		c-0.1,0-0.1,0.1-0.2,0.1c-0.1,0.1-0.2,0.2-0.2,0.3v0c0,0,0,0.1-0.1,0.1c0,0,0,0.1,0,0.1c0,0.2,0,0.4,0.1,0.5c0,0.1,0.1,0.1,0.2,0.1
		c0.1,0.1,0.3,0.2,0.4,0.2c0,0,0,0,0,0c0.1,0,0.2,0,0.3,0c0.1,0,0.2,0,0.3,0c0.4,0,0.8,0,1.1,0c0.2,0,0.3,0,0.5-0.1
		c0.2,0,0.4,0,0.6-0.1C240.9,117.2,240.8,116.5,240.8,115.8z M145.2,115.8L145.2,115.8c-0.1,0-0.2,0-0.3,0c-0.1,0-0.3,0-0.4,0
		c-0.2,0-0.3,0-0.4,0.1c-0.2,0-0.4,0.1-0.6,0.1c0,0,0,0,0,0c-1,0.2-1.8,0.6-1.8,1.5c0.1,0.2,0.3,0.3,0.5,0.4c0,0,0,0,0,0
		c0.5,0.2,1.2,0.2,1.8,0.2c0.1,0,0.2,0,0.3,0c0.1,0,0.2,0,0.3,0c0.1,0,0.3,0,0.4,0c0,0,0.1,0,0.1,0h0
		C145.2,117.2,145.2,116.6,145.2,115.8z M178.8,109.2c-0.5-0.1-1,0.5-1.4,1.4c0,0,0,0,0,0c-0.1,0.3-0.3,0.6-0.4,0.9
		c-0.1,0.3-0.2,0.6-0.3,0.8c-0.1,0.2-0.1,0.3-0.2,0.4c-0.1,0.3-0.2,0.6-0.3,0.9c0,0,0,0,0,0c-0.1,0.2-0.1,0.4-0.2,0.7
		c0,0.2-0.1,0.4-0.1,0.7c0,0.2,0,0.3-0.1,0.5c0,0.3-0.1,0.5-0.1,0.8c0,0.4,0,0.8,0.1,1.1c0.2,0,0.4,0,0.5-0.1c0.1,0,0.1-0.1,0.2-0.1
		c0.1,0,0.1-0.1,0.2-0.1c0.1-0.1,0.2-0.2,0.3-0.3c0.1-0.1,0.2-0.2,0.3-0.3c0.1-0.1,0.2-0.2,0.3-0.3c0.4-0.4,1-0.9,1.3-1.5
		c0-0.1,0.1-0.2,0.1-0.3c0.1-0.2,0.1-0.5,0.2-0.8c0-0.3,0-0.6,0.1-0.9c0-0.3,0-0.5,0-0.7C179.3,110.9,179.4,109.4,178.8,109.2z
		 M201.8,115.8c-0.3,0-0.7,0-1.1,0.1c-0.2,0-0.4,0.1-0.6,0.1c0,0,0,0-0.1,0c-0.3,0.1-0.6,0.2-0.9,0.3c-0.1,0.1-0.3,0.1-0.4,0.2
		c0,0-0.1,0.1-0.2,0.1c0,0-0.1,0.1-0.1,0.1c-0.1,0.1-0.2,0.2-0.2,0.3c0,0.1,0,0.2,0,0.3c0,0.1,0.1,0.3,0.2,0.3c0,0,0.1,0.1,0.1,0.1
		c0.1,0,0.1,0.1,0.2,0.1c0.1,0,0.1,0.1,0.2,0.1c0,0,0.1,0,0.1,0c0,0,0,0,0,0h0c0.1,0,0.1,0,0.2,0c0,0,0,0,0.1,0h0.1
		c0.1,0,0.1,0,0.2,0c0.7,0.1,1.6-0.1,2.2-0.2C201.8,117.3,201.8,116.4,201.8,115.8z M145.2,115.8L145.2,115.8c-0.1,0-0.2,0-0.3,0
		c-0.1,0-0.3,0-0.4,0c-0.2,0-0.3,0-0.4,0.1c-0.2,0-0.4,0.1-0.6,0.1c0,0,0,0,0,0c-1,0.2-1.8,0.6-1.8,1.5c0.1,0.2,0.3,0.3,0.5,0.4
		c0,0,0,0,0,0c0.5,0.2,1.2,0.2,1.8,0.2c0.1,0,0.2,0,0.3,0c0.1,0,0.2,0,0.3,0c0.1,0,0.3,0,0.4,0c0,0,0.1,0,0.1,0h0
		C145.2,117.2,145.2,116.6,145.2,115.8z M178.8,109.2c-0.5-0.1-1,0.5-1.4,1.4c0,0,0,0,0,0c-0.1,0.3-0.3,0.6-0.4,0.9
		c-0.1,0.3-0.2,0.6-0.3,0.8c-0.1,0.2-0.1,0.3-0.2,0.4c-0.1,0.3-0.2,0.6-0.3,0.9c0,0,0,0,0,0c-0.1,0.2-0.1,0.4-0.2,0.7
		c0,0.2-0.1,0.4-0.1,0.7c0,0.2,0,0.3-0.1,0.5c0,0.3-0.1,0.5-0.1,0.8c0,0.4,0,0.8,0.1,1.1c0.2,0,0.4,0,0.5-0.1c0.1,0,0.1-0.1,0.2-0.1
		c0.1,0,0.1-0.1,0.2-0.1c0.1-0.1,0.2-0.2,0.3-0.3c0.1-0.1,0.2-0.2,0.3-0.3c0.1-0.1,0.2-0.2,0.3-0.3c0.4-0.4,1-0.9,1.3-1.5
		c0-0.1,0.1-0.2,0.1-0.3c0.1-0.2,0.1-0.5,0.2-0.8c0-0.3,0-0.6,0.1-0.9c0-0.3,0-0.5,0-0.7C179.3,110.9,179.4,109.4,178.8,109.2z
		 M201.8,115.8c-0.3,0-0.7,0-1.1,0.1c-0.2,0-0.4,0.1-0.6,0.1c0,0,0,0-0.1,0c-0.3,0.1-0.6,0.2-0.9,0.3c-0.1,0.1-0.3,0.1-0.4,0.2
		c0,0-0.1,0.1-0.2,0.1c0,0-0.1,0.1-0.1,0.1c-0.1,0.1-0.2,0.2-0.2,0.3c0,0.1,0,0.2,0,0.3c0,0.1,0.1,0.3,0.2,0.3c0,0,0.1,0.1,0.1,0.1
		c0.1,0,0.1,0.1,0.2,0.1c0.1,0,0.1,0.1,0.2,0.1c0,0,0.1,0,0.1,0c0,0,0,0,0,0h0c0.1,0,0.1,0,0.2,0c0,0,0,0,0.1,0h0.1
		c0.1,0,0.1,0,0.2,0c0.7,0.1,1.6-0.1,2.2-0.2C201.8,117.3,201.8,116.4,201.8,115.8z M240.8,115.8
		C240.8,115.8,240.8,115.8,240.8,115.8c-0.7,0-1.7,0.1-2.4,0.4c-0.2,0.1-0.3,0.1-0.5,0.2c-0.1,0-0.1,0.1-0.2,0.1
		c-0.1,0-0.1,0.1-0.2,0.1c-0.1,0.1-0.2,0.2-0.2,0.3v0c0,0,0,0.1-0.1,0.1c0,0,0,0.1,0,0.1c0,0.2,0,0.4,0.1,0.5c0,0.1,0.1,0.1,0.2,0.1
		c0.1,0.1,0.3,0.2,0.4,0.2c0,0,0,0,0,0c0.1,0,0.2,0,0.3,0c0.1,0,0.2,0,0.3,0c0.4,0,0.8,0,1.1,0c0.2,0,0.3,0,0.5-0.1
		c0.2,0,0.4,0,0.6-0.1C240.9,117.2,240.8,116.5,240.8,115.8z M260.4,70.9c-0.2-3.5-1.6-6.4-3.5-8.4c-0.2-0.2-0.4-0.4-0.7-0.6
		c-0.2-0.2-0.5-0.4-0.7-0.6c-0.2-0.1-0.3-0.3-0.5-0.4c-0.2-0.1-0.3-0.2-0.5-0.3c-0.2-0.1-0.4-0.2-0.6-0.3c-0.5-0.3-1-0.4-1.5-0.6
		c-0.3-0.1-0.5-0.2-0.8-0.2c-1-0.2-2.1-0.3-3.3-0.2c-0.4,0-0.9,0.1-1.3,0.2c-0.4,0.1-0.8,0.2-1.2,0.3c-0.4,0.1-0.8,0.3-1.1,0.4
		c-0.4,0.2-0.7,0.3-1,0.5c-0.2,0.1-0.4,0.3-0.6,0.4c-0.4,0.3-0.8,0.6-1.1,0.9c-0.2,0.2-0.4,0.3-0.5,0.5c-0.5,0.5-1,1.2-1.4,1.8
		c-0.1,0.2-0.3,0.4-0.4,0.7c-0.1,0.2-0.2,0.4-0.3,0.6c-0.1,0.1-0.1,0.2-0.2,0.4c-0.1,0.2-0.2,0.4-0.2,0.6c-0.1,0.3-0.2,0.5-0.3,0.8
		c-0.1,0.3-0.2,0.5-0.2,0.8c-0.1,0.6-0.3,1.1-0.3,1.7c-0.1,0.9-0.1,1.9-0.1,2.9c0.1,2.1,0.6,3.9,1.3,5.4c0.1,0.2,0.2,0.3,0.2,0.5
		c0.1,0.2,0.2,0.3,0.3,0.5c0.2,0.3,0.3,0.6,0.6,0.9c0.3,0.4,0.6,0.8,1,1.3c0.8,0.9,1.9,1.7,3.2,2.3c0.4,0.2,0.9,0.3,1.3,0.5
		c0.6,0.2,1.3,0.3,1.9,0.4c0.7,0.1,1.4,0.1,2.2,0c0.2,0,0.4-0.1,0.7-0.1c0.4-0.1,0.8-0.1,1.2-0.2c0.2-0.1,0.4-0.1,0.6-0.2
		c0.3-0.1,0.6-0.2,0.8-0.3c0.2-0.1,0.4-0.2,0.6-0.3c0.4-0.2,0.8-0.4,1.2-0.7c0.1-0.1,0.3-0.2,0.4-0.3c0,0,0.1,0,0.1-0.1c0,0,0,0,0,0
		c0.2-0.1,0.3-0.3,0.5-0.4c0.1-0.1,0.3-0.2,0.4-0.4c0,0,0,0,0,0c0.2-0.2,0.4-0.4,0.6-0.6c0,0,0.1-0.1,0.1-0.1
		c0.1-0.1,0.1-0.2,0.2-0.2c0.1-0.2,0.3-0.3,0.4-0.5c0.5-0.6,0.9-1.3,1.3-2.1c0,0,0,0,0,0c0.1-0.3,0.3-0.6,0.4-1l0,0
		C260.2,75.3,260.6,73.2,260.4,70.9z M260.4,70.9c-0.2-3.5-1.6-6.4-3.5-8.4c-0.2-0.2-0.4-0.4-0.7-0.6c-0.2-0.2-0.5-0.4-0.7-0.6
		c-0.2-0.1-0.3-0.3-0.5-0.4c-0.2-0.1-0.3-0.2-0.5-0.3c-0.2-0.1-0.4-0.2-0.6-0.3c-0.5-0.3-1-0.4-1.5-0.6c-0.3-0.1-0.5-0.2-0.8-0.2
		c-1-0.2-2.1-0.3-3.3-0.2c-0.4,0-0.9,0.1-1.3,0.2c-0.4,0.1-0.8,0.2-1.2,0.3c-0.4,0.1-0.8,0.3-1.1,0.4c-0.4,0.2-0.7,0.3-1,0.5
		c-0.2,0.1-0.4,0.3-0.6,0.4c-0.4,0.3-0.8,0.6-1.1,0.9c-0.2,0.2-0.4,0.3-0.5,0.5c-0.5,0.5-1,1.2-1.4,1.8c-0.1,0.2-0.3,0.4-0.4,0.7
		c-0.1,0.2-0.2,0.4-0.3,0.6c-0.1,0.1-0.1,0.2-0.2,0.4c-0.1,0.2-0.2,0.4-0.2,0.6c-0.1,0.3-0.2,0.5-0.3,0.8c-0.1,0.3-0.2,0.5-0.2,0.8
		c-0.1,0.6-0.3,1.1-0.3,1.7c-0.1,0.9-0.1,1.9-0.1,2.9c0.1,2.1,0.6,3.9,1.3,5.4c0.1,0.2,0.2,0.3,0.2,0.5c0.1,0.2,0.2,0.3,0.3,0.5
		c0.2,0.3,0.3,0.6,0.6,0.9c0.3,0.4,0.6,0.8,1,1.3c0.8,0.9,1.9,1.7,3.2,2.3c0.4,0.2,0.9,0.3,1.3,0.5c0.6,0.2,1.3,0.3,1.9,0.4
		c0.7,0.1,1.4,0.1,2.2,0c0.2,0,0.4-0.1,0.7-0.1c0.4-0.1,0.8-0.1,1.2-0.2c0.2-0.1,0.4-0.1,0.6-0.2c0.3-0.1,0.6-0.2,0.8-0.3
		c0.2-0.1,0.4-0.2,0.6-0.3c0.4-0.2,0.8-0.4,1.2-0.7c0.1-0.1,0.3-0.2,0.4-0.3c0,0,0.1,0,0.1-0.1c0,0,0,0,0,0c0.2-0.1,0.3-0.3,0.5-0.4
		c0.1-0.1,0.3-0.2,0.4-0.4c0,0,0,0,0,0c0.2-0.2,0.4-0.4,0.6-0.6c0,0,0.1-0.1,0.1-0.1c0.1-0.1,0.1-0.2,0.2-0.2
		c0.1-0.2,0.3-0.3,0.4-0.5c0.5-0.6,0.9-1.3,1.3-2.1c0,0,0,0,0,0c0.1-0.3,0.3-0.6,0.4-1l0,0C260.2,75.3,260.6,73.2,260.4,70.9z
		 M240.8,115.8C240.8,115.8,240.8,115.8,240.8,115.8c-0.7,0-1.7,0.1-2.4,0.4c-0.2,0.1-0.3,0.1-0.5,0.2c-0.1,0-0.1,0.1-0.2,0.1
		c-0.1,0-0.1,0.1-0.2,0.1c-0.1,0.1-0.2,0.2-0.2,0.3v0c0,0,0,0.1-0.1,0.1c0,0,0,0.1,0,0.1c0,0.2,0,0.4,0.1,0.5c0,0.1,0.1,0.1,0.2,0.1
		c0.1,0.1,0.3,0.2,0.4,0.2c0,0,0,0,0,0c0.1,0,0.2,0,0.3,0c0.1,0,0.2,0,0.3,0c0.4,0,0.8,0,1.1,0c0.2,0,0.3,0,0.5-0.1
		c0.2,0,0.4,0,0.6-0.1C240.9,117.2,240.8,116.5,240.8,115.8z M145.2,115.8L145.2,115.8c-0.1,0-0.2,0-0.3,0c-0.1,0-0.3,0-0.4,0
		c-0.2,0-0.3,0-0.4,0.1c-0.2,0-0.4,0.1-0.6,0.1c0,0,0,0,0,0c-1,0.2-1.8,0.6-1.8,1.5c0.1,0.2,0.3,0.3,0.5,0.4c0,0,0,0,0,0
		c0.5,0.2,1.2,0.2,1.8,0.2c0.1,0,0.2,0,0.3,0c0.1,0,0.2,0,0.3,0c0.1,0,0.3,0,0.4,0c0,0,0.1,0,0.1,0h0
		C145.2,117.2,145.2,116.6,145.2,115.8z M178.8,109.2c-0.5-0.1-1,0.5-1.4,1.4c0,0,0,0,0,0c-0.1,0.3-0.3,0.6-0.4,0.9
		c-0.1,0.3-0.2,0.6-0.3,0.8c-0.1,0.2-0.1,0.3-0.2,0.4c-0.1,0.3-0.2,0.6-0.3,0.9c0,0,0,0,0,0c-0.1,0.2-0.1,0.4-0.2,0.7
		c0,0.2-0.1,0.4-0.1,0.7c0,0.2,0,0.3-0.1,0.5c0,0.3-0.1,0.5-0.1,0.8c0,0.4,0,0.8,0.1,1.1c0.2,0,0.4,0,0.5-0.1c0.1,0,0.1-0.1,0.2-0.1
		c0.1,0,0.1-0.1,0.2-0.1c0.1-0.1,0.2-0.2,0.3-0.3c0.1-0.1,0.2-0.2,0.3-0.3c0.1-0.1,0.2-0.2,0.3-0.3c0.4-0.4,1-0.9,1.3-1.5
		c0-0.1,0.1-0.2,0.1-0.3c0.1-0.2,0.1-0.5,0.2-0.8c0-0.3,0-0.6,0.1-0.9c0-0.3,0-0.5,0-0.7C179.3,110.9,179.4,109.4,178.8,109.2z
		 M201.8,115.8c-0.3,0-0.7,0-1.1,0.1c-0.2,0-0.4,0.1-0.6,0.1c0,0,0,0-0.1,0c-0.3,0.1-0.6,0.2-0.9,0.3c-0.1,0.1-0.3,0.1-0.4,0.2
		c0,0-0.1,0.1-0.2,0.1c0,0-0.1,0.1-0.1,0.1c-0.1,0.1-0.2,0.2-0.2,0.3c0,0.1,0,0.2,0,0.3c0,0.1,0.1,0.3,0.2,0.3c0,0,0.1,0.1,0.1,0.1
		c0.1,0,0.1,0.1,0.2,0.1c0.1,0,0.1,0.1,0.2,0.1c0,0,0.1,0,0.1,0c0,0,0,0,0,0h0c0.1,0,0.1,0,0.2,0c0,0,0,0,0.1,0h0.1
		c0.1,0,0.1,0,0.2,0c0.7,0.1,1.6-0.1,2.2-0.2C201.8,117.3,201.8,116.4,201.8,115.8z M145.2,115.8L145.2,115.8c-0.1,0-0.2,0-0.3,0
		c-0.1,0-0.3,0-0.4,0c-0.2,0-0.3,0-0.4,0.1c-0.2,0-0.4,0.1-0.6,0.1c0,0,0,0,0,0c-1,0.2-1.8,0.6-1.8,1.5c0.1,0.2,0.3,0.3,0.5,0.4
		c0,0,0,0,0,0c0.5,0.2,1.2,0.2,1.8,0.2c0.1,0,0.2,0,0.3,0c0.1,0,0.2,0,0.3,0c0.1,0,0.3,0,0.4,0c0,0,0.1,0,0.1,0h0
		C145.2,117.2,145.2,116.6,145.2,115.8z M178.8,109.2c-0.5-0.1-1,0.5-1.4,1.4c0,0,0,0,0,0c-0.1,0.3-0.3,0.6-0.4,0.9
		c-0.1,0.3-0.2,0.6-0.3,0.8c-0.1,0.2-0.1,0.3-0.2,0.4c-0.1,0.3-0.2,0.6-0.3,0.9c0,0,0,0,0,0c-0.1,0.2-0.1,0.4-0.2,0.7
		c0,0.2-0.1,0.4-0.1,0.7c0,0.2,0,0.3-0.1,0.5c0,0.3-0.1,0.5-0.1,0.8c0,0.4,0,0.8,0.1,1.1c0.2,0,0.4,0,0.5-0.1c0.1,0,0.1-0.1,0.2-0.1
		c0.1,0,0.1-0.1,0.2-0.1c0.1-0.1,0.2-0.2,0.3-0.3c0.1-0.1,0.2-0.2,0.3-0.3c0.1-0.1,0.2-0.2,0.3-0.3c0.4-0.4,1-0.9,1.3-1.5
		c0-0.1,0.1-0.2,0.1-0.3c0.1-0.2,0.1-0.5,0.2-0.8c0-0.3,0-0.6,0.1-0.9c0-0.3,0-0.5,0-0.7C179.3,110.9,179.4,109.4,178.8,109.2z
		 M201.8,115.8c-0.3,0-0.7,0-1.1,0.1c-0.2,0-0.4,0.1-0.6,0.1c0,0,0,0-0.1,0c-0.3,0.1-0.6,0.2-0.9,0.3c-0.1,0.1-0.3,0.1-0.4,0.2
		c0,0-0.1,0.1-0.2,0.1c0,0-0.1,0.1-0.1,0.1c-0.1,0.1-0.2,0.2-0.2,0.3c0,0.1,0,0.2,0,0.3c0,0.1,0.1,0.3,0.2,0.3c0,0,0.1,0.1,0.1,0.1
		c0.1,0,0.1,0.1,0.2,0.1c0.1,0,0.1,0.1,0.2,0.1c0,0,0.1,0,0.1,0c0,0,0,0,0,0h0c0.1,0,0.1,0,0.2,0c0,0,0,0,0.1,0h0.1
		c0.1,0,0.1,0,0.2,0c0.7,0.1,1.6-0.1,2.2-0.2C201.8,117.3,201.8,116.4,201.8,115.8z M240.8,115.8
		C240.8,115.8,240.8,115.8,240.8,115.8c-0.7,0-1.7,0.1-2.4,0.4c-0.2,0.1-0.3,0.1-0.5,0.2c-0.1,0-0.1,0.1-0.2,0.1
		c-0.1,0-0.1,0.1-0.2,0.1c-0.1,0.1-0.2,0.2-0.2,0.3v0c0,0,0,0.1-0.1,0.1c0,0,0,0.1,0,0.1c0,0.2,0,0.4,0.1,0.5c0,0.1,0.1,0.1,0.2,0.1
		c0.1,0.1,0.3,0.2,0.4,0.2c0,0,0,0,0,0c0.1,0,0.2,0,0.3,0c0.1,0,0.2,0,0.3,0c0.4,0,0.8,0,1.1,0c0.2,0,0.3,0,0.5-0.1
		c0.2,0,0.4,0,0.6-0.1C240.9,117.2,240.8,116.5,240.8,115.8z M260.4,70.9c-0.2-3.5-1.6-6.4-3.5-8.4c-0.2-0.2-0.4-0.4-0.7-0.6
		c-0.2-0.2-0.5-0.4-0.7-0.6c-0.2-0.1-0.3-0.3-0.5-0.4c-0.2-0.1-0.3-0.2-0.5-0.3c-0.2-0.1-0.4-0.2-0.6-0.3c-0.5-0.3-1-0.4-1.5-0.6
		c-0.3-0.1-0.5-0.2-0.8-0.2c-1-0.2-2.1-0.3-3.3-0.2c-0.4,0-0.9,0.1-1.3,0.2c-0.4,0.1-0.8,0.2-1.2,0.3c-0.4,0.1-0.8,0.3-1.1,0.4
		c-0.4,0.2-0.7,0.3-1,0.5c-0.2,0.1-0.4,0.3-0.6,0.4c-0.4,0.3-0.8,0.6-1.1,0.9c-0.2,0.2-0.4,0.3-0.5,0.5c-0.5,0.5-1,1.2-1.4,1.8
		c-0.1,0.2-0.3,0.4-0.4,0.7c-0.1,0.2-0.2,0.4-0.3,0.6c-0.1,0.1-0.1,0.2-0.2,0.4c-0.1,0.2-0.2,0.4-0.2,0.6c-0.1,0.3-0.2,0.5-0.3,0.8
		c-0.1,0.3-0.2,0.5-0.2,0.8c-0.1,0.6-0.3,1.1-0.3,1.7c-0.1,0.9-0.1,1.9-0.1,2.9c0.1,2.1,0.6,3.9,1.3,5.4c0.1,0.2,0.2,0.3,0.2,0.5
		c0.1,0.2,0.2,0.3,0.3,0.5c0.2,0.3,0.3,0.6,0.6,0.9c0.3,0.4,0.6,0.8,1,1.3c0.8,0.9,1.9,1.7,3.2,2.3c0.4,0.2,0.9,0.3,1.3,0.5
		c0.6,0.2,1.3,0.3,1.9,0.4c0.7,0.1,1.4,0.1,2.2,0c0.2,0,0.4-0.1,0.7-0.1c0.4-0.1,0.8-0.1,1.2-0.2c0.2-0.1,0.4-0.1,0.6-0.2
		c0.3-0.1,0.6-0.2,0.8-0.3c0.2-0.1,0.4-0.2,0.6-0.3c0.4-0.2,0.8-0.4,1.2-0.7c0.1-0.1,0.3-0.2,0.4-0.3c0,0,0.1,0,0.1-0.1c0,0,0,0,0,0
		c0.2-0.1,0.3-0.3,0.5-0.4c0.1-0.1,0.3-0.2,0.4-0.4c0,0,0,0,0,0c0.2-0.2,0.4-0.4,0.6-0.6c0,0,0.1-0.1,0.1-0.1
		c0.1-0.1,0.1-0.2,0.2-0.2c0.1-0.2,0.3-0.3,0.4-0.5c0.5-0.6,0.9-1.3,1.3-2.1c0,0,0,0,0,0c0.1-0.3,0.3-0.6,0.4-1l0,0
		C260.2,75.3,260.6,73.2,260.4,70.9z M260.4,70.9c-0.2-3.5-1.6-6.4-3.5-8.4c-0.2-0.2-0.4-0.4-0.7-0.6c-0.2-0.2-0.5-0.4-0.7-0.6
		c-0.2-0.1-0.3-0.3-0.5-0.4c-0.2-0.1-0.3-0.2-0.5-0.3c-0.2-0.1-0.4-0.2-0.6-0.3c-0.5-0.3-1-0.4-1.5-0.6c-0.3-0.1-0.5-0.2-0.8-0.2
		c-1-0.2-2.1-0.3-3.3-0.2c-0.4,0-0.9,0.1-1.3,0.2c-0.4,0.1-0.8,0.2-1.2,0.3c-0.4,0.1-0.8,0.3-1.1,0.4c-0.4,0.2-0.7,0.3-1,0.5
		c-0.2,0.1-0.4,0.3-0.6,0.4c-0.4,0.3-0.8,0.6-1.1,0.9c-0.2,0.2-0.4,0.3-0.5,0.5c-0.5,0.5-1,1.2-1.4,1.8c-0.1,0.2-0.3,0.4-0.4,0.7
		c-0.1,0.2-0.2,0.4-0.3,0.6c-0.1,0.1-0.1,0.2-0.2,0.4c-0.1,0.2-0.2,0.4-0.2,0.6c-0.1,0.3-0.2,0.5-0.3,0.8c-0.1,0.3-0.2,0.5-0.2,0.8
		c-0.1,0.6-0.3,1.1-0.3,1.7c-0.1,0.9-0.1,1.9-0.1,2.9c0.1,2.1,0.6,3.9,1.3,5.4c0.1,0.2,0.2,0.3,0.2,0.5c0.1,0.2,0.2,0.3,0.3,0.5
		c0.2,0.3,0.3,0.6,0.6,0.9c0.3,0.4,0.6,0.8,1,1.3c0.8,0.9,1.9,1.7,3.2,2.3c0.4,0.2,0.9,0.3,1.3,0.5c0.6,0.2,1.3,0.3,1.9,0.4
		c0.7,0.1,1.4,0.1,2.2,0c0.2,0,0.4-0.1,0.7-0.1c0.4-0.1,0.8-0.1,1.2-0.2c0.2-0.1,0.4-0.1,0.6-0.2c0.3-0.1,0.6-0.2,0.8-0.3
		c0.2-0.1,0.4-0.2,0.6-0.3c0.4-0.2,0.8-0.4,1.2-0.7c0.1-0.1,0.3-0.2,0.4-0.3c0,0,0.1,0,0.1-0.1c0,0,0,0,0,0c0.2-0.1,0.3-0.3,0.5-0.4
		c0.1-0.1,0.3-0.2,0.4-0.4c0,0,0,0,0,0c0.2-0.2,0.4-0.4,0.6-0.6c0,0,0.1-0.1,0.1-0.1c0.1-0.1,0.1-0.2,0.2-0.2
		c0.1-0.2,0.3-0.3,0.4-0.5c0.5-0.6,0.9-1.3,1.3-2.1c0,0,0,0,0,0c0.1-0.3,0.3-0.6,0.4-1l0,0C260.2,75.3,260.6,73.2,260.4,70.9z
		 M240.8,115.8C240.8,115.8,240.8,115.8,240.8,115.8c-0.7,0-1.7,0.1-2.4,0.4c-0.2,0.1-0.3,0.1-0.5,0.2c-0.1,0-0.1,0.1-0.2,0.1
		c-0.1,0-0.1,0.1-0.2,0.1c-0.1,0.1-0.2,0.2-0.2,0.3v0c0,0,0,0.1-0.1,0.1c0,0,0,0.1,0,0.1c0,0.2,0,0.4,0.1,0.5c0,0.1,0.1,0.1,0.2,0.1
		c0.1,0.1,0.3,0.2,0.4,0.2c0,0,0,0,0,0c0.1,0,0.2,0,0.3,0c0.1,0,0.2,0,0.3,0c0.4,0,0.8,0,1.1,0c0.2,0,0.3,0,0.5-0.1
		c0.2,0,0.4,0,0.6-0.1C240.9,117.2,240.8,116.5,240.8,115.8z M145.2,115.8L145.2,115.8c-0.1,0-0.2,0-0.3,0c-0.1,0-0.3,0-0.4,0
		c-0.2,0-0.3,0-0.4,0.1c-0.2,0-0.4,0.1-0.6,0.1c0,0,0,0,0,0c-1,0.2-1.8,0.6-1.8,1.5c0.1,0.2,0.3,0.3,0.5,0.4c0,0,0,0,0,0
		c0.5,0.2,1.2,0.2,1.8,0.2c0.1,0,0.2,0,0.3,0c0.1,0,0.2,0,0.3,0c0.1,0,0.3,0,0.4,0c0,0,0.1,0,0.1,0h0
		C145.2,117.2,145.2,116.6,145.2,115.8z M178.8,109.2c-0.5-0.1-1,0.5-1.4,1.4c0,0,0,0,0,0c-0.1,0.3-0.3,0.6-0.4,0.9
		c-0.1,0.3-0.2,0.6-0.3,0.8c-0.1,0.2-0.1,0.3-0.2,0.4c-0.1,0.3-0.2,0.6-0.3,0.9c0,0,0,0,0,0c-0.1,0.2-0.1,0.4-0.2,0.7
		c0,0.2-0.1,0.4-0.1,0.7c0,0.2,0,0.3-0.1,0.5c0,0.3-0.1,0.5-0.1,0.8c0,0.4,0,0.8,0.1,1.1c0.2,0,0.4,0,0.5-0.1c0.1,0,0.1-0.1,0.2-0.1
		c0.1,0,0.1-0.1,0.2-0.1c0.1-0.1,0.2-0.2,0.3-0.3c0.1-0.1,0.2-0.2,0.3-0.3c0.1-0.1,0.2-0.2,0.3-0.3c0.4-0.4,1-0.9,1.3-1.5
		c0-0.1,0.1-0.2,0.1-0.3c0.1-0.2,0.1-0.5,0.2-0.8c0-0.3,0-0.6,0.1-0.9c0-0.3,0-0.5,0-0.7C179.3,110.9,179.4,109.4,178.8,109.2z
		 M201.8,115.8c-0.3,0-0.7,0-1.1,0.1c-0.2,0-0.4,0.1-0.6,0.1c0,0,0,0-0.1,0c-0.3,0.1-0.6,0.2-0.9,0.3c-0.1,0.1-0.3,0.1-0.4,0.2
		c0,0-0.1,0.1-0.2,0.1c0,0-0.1,0.1-0.1,0.1c-0.1,0.1-0.2,0.2-0.2,0.3c0,0.1,0,0.2,0,0.3c0,0.1,0.1,0.3,0.2,0.3c0,0,0.1,0.1,0.1,0.1
		c0.1,0,0.1,0.1,0.2,0.1c0.1,0,0.1,0.1,0.2,0.1c0,0,0.1,0,0.1,0c0,0,0,0,0,0h0c0.1,0,0.1,0,0.2,0c0,0,0,0,0.1,0h0.1
		c0.1,0,0.1,0,0.2,0c0.7,0.1,1.6-0.1,2.2-0.2C201.8,117.3,201.8,116.4,201.8,115.8z M145.2,115.8L145.2,115.8c-0.1,0-0.2,0-0.3,0
		c-0.1,0-0.3,0-0.4,0c-0.2,0-0.3,0-0.4,0.1c-0.2,0-0.4,0.1-0.6,0.1c0,0,0,0,0,0c-1,0.2-1.8,0.6-1.8,1.5c0.1,0.2,0.3,0.3,0.5,0.4
		c0,0,0,0,0,0c0.5,0.2,1.2,0.2,1.8,0.2c0.1,0,0.2,0,0.3,0c0.1,0,0.2,0,0.3,0c0.1,0,0.3,0,0.4,0c0,0,0.1,0,0.1,0h0
		C145.2,117.2,145.2,116.6,145.2,115.8z M178.8,109.2c-0.5-0.1-1,0.5-1.4,1.4c0,0,0,0,0,0c-0.1,0.3-0.3,0.6-0.4,0.9
		c-0.1,0.3-0.2,0.6-0.3,0.8c-0.1,0.2-0.1,0.3-0.2,0.4c-0.1,0.3-0.2,0.6-0.3,0.9c0,0,0,0,0,0c-0.1,0.2-0.1,0.4-0.2,0.7
		c0,0.2-0.1,0.4-0.1,0.7c0,0.2,0,0.3-0.1,0.5c0,0.3-0.1,0.5-0.1,0.8c0,0.4,0,0.8,0.1,1.1c0.2,0,0.4,0,0.5-0.1c0.1,0,0.1-0.1,0.2-0.1
		c0.1,0,0.1-0.1,0.2-0.1c0.1-0.1,0.2-0.2,0.3-0.3c0.1-0.1,0.2-0.2,0.3-0.3c0.1-0.1,0.2-0.2,0.3-0.3c0.4-0.4,1-0.9,1.3-1.5
		c0-0.1,0.1-0.2,0.1-0.3c0.1-0.2,0.1-0.5,0.2-0.8c0-0.3,0-0.6,0.1-0.9c0-0.3,0-0.5,0-0.7C179.3,110.9,179.4,109.4,178.8,109.2z
		 M201.8,115.8c-0.3,0-0.7,0-1.1,0.1c-0.2,0-0.4,0.1-0.6,0.1c0,0,0,0-0.1,0c-0.3,0.1-0.6,0.2-0.9,0.3c-0.1,0.1-0.3,0.1-0.4,0.2
		c0,0-0.1,0.1-0.2,0.1c0,0-0.1,0.1-0.1,0.1c-0.1,0.1-0.2,0.2-0.2,0.3c0,0.1,0,0.2,0,0.3c0,0.1,0.1,0.3,0.2,0.3c0,0,0.1,0.1,0.1,0.1
		c0.1,0,0.1,0.1,0.2,0.1c0.1,0,0.1,0.1,0.2,0.1c0,0,0.1,0,0.1,0c0,0,0,0,0,0h0c0.1,0,0.1,0,0.2,0c0,0,0,0,0.1,0h0.1
		c0.1,0,0.1,0,0.2,0c0.7,0.1,1.6-0.1,2.2-0.2C201.8,117.3,201.8,116.4,201.8,115.8z M240.8,115.8
		C240.8,115.8,240.8,115.8,240.8,115.8c-0.7,0-1.7,0.1-2.4,0.4c-0.2,0.1-0.3,0.1-0.5,0.2c-0.1,0-0.1,0.1-0.2,0.1
		c-0.1,0-0.1,0.1-0.2,0.1c-0.1,0.1-0.2,0.2-0.2,0.3v0c0,0,0,0.1-0.1,0.1c0,0,0,0.1,0,0.1c0,0.2,0,0.4,0.1,0.5c0,0.1,0.1,0.1,0.2,0.1
		c0.1,0.1,0.3,0.2,0.4,0.2c0,0,0,0,0,0c0.1,0,0.2,0,0.3,0c0.1,0,0.2,0,0.3,0c0.4,0,0.8,0,1.1,0c0.2,0,0.3,0,0.5-0.1
		c0.2,0,0.4,0,0.6-0.1C240.9,117.2,240.8,116.5,240.8,115.8z M260.4,70.9c-0.2-3.5-1.6-6.4-3.5-8.4c-0.2-0.2-0.4-0.4-0.7-0.6
		c-0.2-0.2-0.5-0.4-0.7-0.6c-0.2-0.1-0.3-0.3-0.5-0.4c-0.2-0.1-0.3-0.2-0.5-0.3c-0.2-0.1-0.4-0.2-0.6-0.3c-0.5-0.3-1-0.4-1.5-0.6
		c-0.3-0.1-0.5-0.2-0.8-0.2c-1-0.2-2.1-0.3-3.3-0.2c-0.4,0-0.9,0.1-1.3,0.2c-0.4,0.1-0.8,0.2-1.2,0.3c-0.4,0.1-0.8,0.3-1.1,0.4
		c-0.4,0.2-0.7,0.3-1,0.5c-0.2,0.1-0.4,0.3-0.6,0.4c-0.4,0.3-0.8,0.6-1.1,0.9c-0.2,0.2-0.4,0.3-0.5,0.5c-0.5,0.5-1,1.2-1.4,1.8
		c-0.1,0.2-0.3,0.4-0.4,0.7c-0.1,0.2-0.2,0.4-0.3,0.6c-0.1,0.1-0.1,0.2-0.2,0.4c-0.1,0.2-0.2,0.4-0.2,0.6c-0.1,0.3-0.2,0.5-0.3,0.8
		c-0.1,0.3-0.2,0.5-0.2,0.8c-0.1,0.6-0.3,1.1-0.3,1.7c-0.1,0.9-0.1,1.9-0.1,2.9c0.1,2.1,0.6,3.9,1.3,5.4c0.1,0.2,0.2,0.3,0.2,0.5
		c0.1,0.2,0.2,0.3,0.3,0.5c0.2,0.3,0.3,0.6,0.6,0.9c0.3,0.4,0.6,0.8,1,1.3c0.8,0.9,1.9,1.7,3.2,2.3c0.4,0.2,0.9,0.3,1.3,0.5
		c0.6,0.2,1.3,0.3,1.9,0.4c0.7,0.1,1.4,0.1,2.2,0c0.2,0,0.4-0.1,0.7-0.1c0.4-0.1,0.8-0.1,1.2-0.2c0.2-0.1,0.4-0.1,0.6-0.2
		c0.3-0.1,0.6-0.2,0.8-0.3c0.2-0.1,0.4-0.2,0.6-0.3c0.4-0.2,0.8-0.4,1.2-0.7c0.1-0.1,0.3-0.2,0.4-0.3c0,0,0.1,0,0.1-0.1c0,0,0,0,0,0
		c0.2-0.1,0.3-0.3,0.5-0.4c0.1-0.1,0.3-0.2,0.4-0.4c0,0,0,0,0,0c0.2-0.2,0.4-0.4,0.6-0.6c0,0,0.1-0.1,0.1-0.1
		c0.1-0.1,0.1-0.2,0.2-0.2c0.1-0.2,0.3-0.3,0.4-0.5c0.5-0.6,0.9-1.3,1.3-2.1c0,0,0,0,0,0c0.1-0.3,0.3-0.6,0.4-1l0,0
		C260.2,75.3,260.6,73.2,260.4,70.9z M260.4,70.9c-0.2-3.5-1.6-6.4-3.5-8.4c-0.2-0.2-0.4-0.4-0.7-0.6c-0.2-0.2-0.5-0.4-0.7-0.6
		c-0.2-0.1-0.3-0.3-0.5-0.4c-0.2-0.1-0.3-0.2-0.5-0.3c-0.2-0.1-0.4-0.2-0.6-0.3c-0.5-0.3-1-0.4-1.5-0.6c-0.3-0.1-0.5-0.2-0.8-0.2
		c-1-0.2-2.1-0.3-3.3-0.2c-0.4,0-0.9,0.1-1.3,0.2c-0.4,0.1-0.8,0.2-1.2,0.3c-0.4,0.1-0.8,0.3-1.1,0.4c-0.4,0.2-0.7,0.3-1,0.5
		c-0.2,0.1-0.4,0.3-0.6,0.4c-0.4,0.3-0.8,0.6-1.1,0.9c-0.2,0.2-0.4,0.3-0.5,0.5c-0.5,0.5-1,1.2-1.4,1.8c-0.1,0.2-0.3,0.4-0.4,0.7
		c-0.1,0.2-0.2,0.4-0.3,0.6c-0.1,0.1-0.1,0.2-0.2,0.4c-0.1,0.2-0.2,0.4-0.2,0.6c-0.1,0.3-0.2,0.5-0.3,0.8c-0.1,0.3-0.2,0.5-0.2,0.8
		c-0.1,0.6-0.3,1.1-0.3,1.7c-0.1,0.9-0.1,1.9-0.1,2.9c0.1,2.1,0.6,3.9,1.3,5.4c0.1,0.2,0.2,0.3,0.2,0.5c0.1,0.2,0.2,0.3,0.3,0.5
		c0.2,0.3,0.3,0.6,0.6,0.9c0.3,0.4,0.6,0.8,1,1.3c0.8,0.9,1.9,1.7,3.2,2.3c0.4,0.2,0.9,0.3,1.3,0.5c0.6,0.2,1.3,0.3,1.9,0.4
		c0.7,0.1,1.4,0.1,2.2,0c0.2,0,0.4-0.1,0.7-0.1c0.4-0.1,0.8-0.1,1.2-0.2c0.2-0.1,0.4-0.1,0.6-0.2c0.3-0.1,0.6-0.2,0.8-0.3
		c0.2-0.1,0.4-0.2,0.6-0.3c0.4-0.2,0.8-0.4,1.2-0.7c0.1-0.1,0.3-0.2,0.4-0.3c0,0,0.1,0,0.1-0.1c0,0,0,0,0,0c0.2-0.1,0.3-0.3,0.5-0.4
		c0.1-0.1,0.3-0.2,0.4-0.4c0,0,0,0,0,0c0.2-0.2,0.4-0.4,0.6-0.6c0,0,0.1-0.1,0.1-0.1c0.1-0.1,0.1-0.2,0.2-0.2
		c0.1-0.2,0.3-0.3,0.4-0.5c0.5-0.6,0.9-1.3,1.3-2.1c0,0,0,0,0,0c0.1-0.3,0.3-0.6,0.4-1l0,0C260.2,75.3,260.6,73.2,260.4,70.9z
		 M240.8,115.8C240.8,115.8,240.8,115.8,240.8,115.8c-0.7,0-1.7,0.1-2.4,0.4c-0.2,0.1-0.3,0.1-0.5,0.2c-0.1,0-0.1,0.1-0.2,0.1
		c-0.1,0-0.1,0.1-0.2,0.1c-0.1,0.1-0.2,0.2-0.2,0.3v0c0,0,0,0.1-0.1,0.1c0,0,0,0.1,0,0.1c0,0.2,0,0.4,0.1,0.5c0,0.1,0.1,0.1,0.2,0.1
		c0.1,0.1,0.3,0.2,0.4,0.2c0,0,0,0,0,0c0.1,0,0.2,0,0.3,0c0.1,0,0.2,0,0.3,0c0.4,0,0.8,0,1.1,0c0.2,0,0.3,0,0.5-0.1
		c0.2,0,0.4,0,0.6-0.1C240.9,117.2,240.8,116.5,240.8,115.8z M145.2,115.8L145.2,115.8c-0.1,0-0.2,0-0.3,0c-0.1,0-0.3,0-0.4,0
		c-0.2,0-0.3,0-0.4,0.1c-0.2,0-0.4,0.1-0.6,0.1c0,0,0,0,0,0c-1,0.2-1.8,0.6-1.8,1.5c0.1,0.2,0.3,0.3,0.5,0.4c0,0,0,0,0,0
		c0.5,0.2,1.2,0.2,1.8,0.2c0.1,0,0.2,0,0.3,0c0.1,0,0.2,0,0.3,0c0.1,0,0.3,0,0.4,0c0,0,0.1,0,0.1,0h0
		C145.2,117.2,145.2,116.6,145.2,115.8z M178.8,109.2c-0.5-0.1-1,0.5-1.4,1.4c0,0,0,0,0,0c-0.1,0.3-0.3,0.6-0.4,0.9
		c-0.1,0.3-0.2,0.6-0.3,0.8c-0.1,0.2-0.1,0.3-0.2,0.4c-0.1,0.3-0.2,0.6-0.3,0.9c0,0,0,0,0,0c-0.1,0.2-0.1,0.4-0.2,0.7
		c0,0.2-0.1,0.4-0.1,0.7c0,0.2,0,0.3-0.1,0.5c0,0.3-0.1,0.5-0.1,0.8c0,0.4,0,0.8,0.1,1.1c0.2,0,0.4,0,0.5-0.1c0.1,0,0.1-0.1,0.2-0.1
		c0.1,0,0.1-0.1,0.2-0.1c0.1-0.1,0.2-0.2,0.3-0.3c0.1-0.1,0.2-0.2,0.3-0.3c0.1-0.1,0.2-0.2,0.3-0.3c0.4-0.4,1-0.9,1.3-1.5
		c0-0.1,0.1-0.2,0.1-0.3c0.1-0.2,0.1-0.5,0.2-0.8c0-0.3,0-0.6,0.1-0.9c0-0.3,0-0.5,0-0.7C179.3,110.9,179.4,109.4,178.8,109.2z
		 M201.8,115.8c-0.3,0-0.7,0-1.1,0.1c-0.2,0-0.4,0.1-0.6,0.1c0,0,0,0-0.1,0c-0.3,0.1-0.6,0.2-0.9,0.3c-0.1,0.1-0.3,0.1-0.4,0.2
		c0,0-0.1,0.1-0.2,0.1c0,0-0.1,0.1-0.1,0.1c-0.1,0.1-0.2,0.2-0.2,0.3c0,0.1,0,0.2,0,0.3c0,0.1,0.1,0.3,0.2,0.3c0,0,0.1,0.1,0.1,0.1
		c0.1,0,0.1,0.1,0.2,0.1c0.1,0,0.1,0.1,0.2,0.1c0,0,0.1,0,0.1,0c0,0,0,0,0,0h0c0.1,0,0.1,0,0.2,0c0,0,0,0,0.1,0h0.1
		c0.1,0,0.1,0,0.2,0c0.7,0.1,1.6-0.1,2.2-0.2C201.8,117.3,201.8,116.4,201.8,115.8z M125.4,40.5v137.5h153.9V40.5H125.4z M130,47.8
		h47.1c2,8.5,4.1,16.9,6,25.4c2.2-8.4,4.4-16.9,6.7-25.4h11.4c2.2,8.3,4.4,16.7,6.6,25c2-8.4,4.1-16.7,6.1-25h14.5
		c-4.5,16-9,31.9-13.5,47.8h-13c-2.2-7.6-4.5-15.2-6.5-22.9c-2.1,7.7-4.3,15.3-6.5,22.9h-13c-3.3-11.8-6.6-23.5-10-35.3
		c-3.6,0.1-7.8,0.1-11.6,0.1c-0.1,11.6,0,23.5-0.1,35.2h-14.3V60.4c-3.3-0.1-6.8,0-10.2-0.1V47.9C130,47.8,130,47.8,130,47.8z
		 M207.5,121.1c-0.3,0.5-1.2,0.4-1.9,0.4c-0.7,0-1.7,0.1-2.4,0c-0.6-0.1-0.9-0.8-1.4-0.9c-0.9-0.1-1.9,0.4-2.7,0.4
		c-2.1,0-4.3-1.7-5-3.2c-1.1-2.4,1.3-3.8,3-4.5c1.3-0.5,2.7-0.8,4.7-1.1c-0.1-0.8,0.3-2.5-0.3-2.8c-0.4-0.2-1.4,0.7-1.8,1.1
		c-0.5,0.5-0.9,1.3-1.5,1.5c-1,0.3-3.4,0.1-3.7-0.7c-0.2-0.7,0.7-1.9,1.1-2.6c1-1.4,1.9-2.7,3.6-3.1c0.2-0.1,0.6-0.1,1-0.1
		c1.2,0.1,2.3,0.4,3.6,0.7c1.9,0.5,3.7,0.9,4.1,2.7c0.3,1.3,0.1,3.4,0,5c0,1.8-0.2,3.3-0.1,4.8C207.6,119.6,207.9,120.7,207.5,121.1
		z M185.6,118.3c0,1,0.2,2.2-0.1,2.7c-0.4,0.6-2.1,0.5-3,0.3c-1.7-0.2-3.1-0.3-3-2c-1.4,0.3-1.7,1.5-3.5,1.4c-0.6,0-1.3-0.3-1.9-0.5
		c-1.4-0.6-2.8-1.1-3.5-2.4c-1.6-3.1,0.3-7.7,2-10.1c0.7-1,1.9-2.1,3.7-1.9c1,0.1,1.7,0.5,2.8,0.5c0.1-2.6,0-5.7,0-8.3
		c0.8-0.5,2.6-0.3,3.9,0c1,0.2,2,0.5,2.6,0.8c0,5.3-0.3,10.8-0.3,16.8C185.6,116.3,185.6,117.2,185.6,118.3z M162.1,109.7
		c-0.8-0.2-1.5,1.2-1.7,1.8c-0.4,0.9-0.6,1.9-0.8,2.8c-0.3,2.3,0.2,4.8,0,6.8c-1.2,0.9-3.6,0.3-4.8-0.3c-0.4-0.2-1-0.5-1.1-0.8
		c-0.2-0.6,0-1.8,0-2.7c0-3,0.2-6.6,0-9.1c0.5-1.3,3.6-1,4.4-0.1c1.5-0.8,2.1-2.6,4.5-2.3c0.6,0.1,1.3,0.4,2.1,0.6
		c1.1,0.4,2.2,0.4,2.8,1c1.3,1.1,1,3.9,1,6.4c0,1.3,0,2.4-0.1,3.7c-0.1,0.8,0,2.8-0.5,3.3c-0.3,0.3-1.3,0.4-1.9,0.3
		c-1.3,0-3.1-0.5-3.4-1.3c-0.2-0.6,0-1.8,0-2.6c0-1.7,0.1-3.3,0.1-5.3C162.6,111,162.6,109.8,162.1,109.7z M151,119
		c0,0.6,0.3,1.6,0,2c-0.3,0.5-1.1,0.5-1.9,0.5c-0.8,0-1.7,0.1-2.4,0c-0.6-0.1-0.9-0.8-1.4-0.9c-1-0.2-1.9,0.4-2.8,0.4
		c-1.8,0.1-3.4-1.1-4.3-2.1c-0.9-1.1-1.4-2.7-0.3-4c1.3-1.6,4.1-2.1,7.2-2.6c0-0.6,0.3-2.5-0.3-2.8c-0.3-0.2-1,0.4-1.3,0.6
		c-0.7,0.6-1.2,1.7-2,1.9c-1,0.3-3.4,0.1-3.7-0.6c-0.3-0.8,1-2.6,1.5-3.2c0.9-1.3,2.2-2.7,4.2-2.6c1.1,0.1,2.3,0.3,3.5,0.6
		c1.8,0.4,3.7,0.9,4.1,2.6c0.2,0.6,0,1.6,0,2.5h0v2.6C151.1,115.9,150.9,117.5,151,119z M177.4,171.6c-1.1-8.4-2.4-16.5-3.3-25.1
		c-2.5,8.3-4.8,16.8-7.3,25.1h-9.6c-2.6-8.3-4.9-16.8-7.3-25.2c-1.1,8.4-2.3,16.8-3.4,25.2h-13.4c2.4-15.9,4.9-31.8,7.3-47.7
		c0-0.1,0-0.1,0.1-0.2h13.7c2.7,8.7,5.2,17.6,7.8,26.4c2.7-8.7,5.2-17.7,7.9-26.4h13.8c2.5,15.9,4.9,31.9,7.4,47.8H177.4z
		 M223,135.7h-15.9c-0.1,2,0,4.2-0.1,6.2h15v11.6h-15v6c5.2,0.1,10.7,0,15.9,0v12h-30V124c0-0.1,0.1-0.2,0.1-0.2H223V135.7z
		 M224.1,111.5c-0.3,0.7-0.7,1.3-0.9,2c-0.3,1-0.3,2.6-0.4,3.8c0,1.3,0.2,3.2-0.4,3.8c-0.8,0.7-2.9,0.2-3.7-0.2
		c-0.4-0.1-1-0.3-1.2-0.4c-0.8-0.7-0.7-3.6-0.6-5.2c0.2-4.7,0.5-9.3,0.1-14.3c-0.1-0.8-0.3-2.1-0.1-2.6c0.3-0.7,2.1-1,3.2-0.8
		c0.6,0.1,1.2,0.5,1.7,0.8c0.7,0.3,1.3,0.6,1.4,1.1c0.3,0.9-0.1,2.7-0.2,3.7c-0.1,1.3-0.2,2.4,0.2,3.7c1-0.3,1.1-1,2.3-1.2
		c1.3-0.2,2.2,0.3,3.2,0.8c0.7,0.4,1.5,0.5,1.8,0.8c1.3,1,1.3,3.7,1.3,6.3c0,1.1,0,2.5,0,3.7c0,1.1,0.2,3-0.3,3.5
		c-0.3,0.2-1.1,0.3-1.6,0.3c-0.6,0.1-1.3,0.1-1.8,0.1c-0.9-0.1-2.3-0.6-2.5-1.2c-0.2-0.6,0-1.8,0.1-2.5c0.1-1.7,0.2-3.1,0.2-5.1
		c0-0.9,0.1-2.1-0.4-2.3C224.7,109.8,224.3,111.1,224.1,111.5z M271.8,171.6h-11.6c-0.5,0-1.3,0.1-1.6,0c-0.3-0.1-1-1.2-1.3-1.6
		c-4.6-6.4-9.2-12.6-13.8-18.9c-1.7-2.3-3.5-4.5-4.7-7.2c0.3,8.8,0.1,18.5,0.2,27.7h-13.9V124c0-0.1,0-0.1,0.1-0.2h11.5
		c0.5,0,1.3-0.1,1.6,0c0.3,0.1,1,1.2,1.3,1.7c4.6,6.4,9.3,12.6,13.8,18.9c1.7,2.3,3.6,4.5,4.7,7.2c-0.3-9-0.1-18.5-0.1-27.7h13.8
		V171.6z M240.5,109.6c-0.3-0.2-1.1,0.4-1.4,0.7c-0.7,0.6-1.2,1.7-2,1.9c-1,0.3-3.4,0.1-3.7-0.6c-0.3-0.8,0.8-2.2,1.2-2.9
		c0.8-1.2,2.1-2.7,3.6-3c0.2,0,0.6,0,0.9,0c1.1,0.1,2.3,0.3,3.5,0.6c1.8,0.4,3.6,0.9,4.1,2.4c0.4,1.2,0.2,3.5,0.1,5.1
		c0,0.8,0,1.7,0,2.6c0,0.9-0.1,1.7-0.1,2.5c0,0.7,0.4,1.7-0.1,2.3c-0.4,0.4-1.3,0.3-1.9,0.3c-0.7,0-1.7,0.1-2.3,0
		c-0.6-0.2-0.9-0.8-1.4-0.9c-0.9-0.2-1.9,0.4-2.8,0.4c-1.2,0-2.6-0.7-3.5-1.4c-0.8-0.6-2-1.9-1.6-3.6c0.2-1,1.1-1.7,1.9-2.2
		c1.5-0.9,3.5-1.2,6-1.5C240.7,111.7,241.1,109.9,240.5,109.6z M250.2,100.5c0.1-1.4,0-2.7,1.3-2.9c1.1-0.1,2.5,0.1,3.6,0.3
		c0.8,0.2,1.6,0.6,2,1.1c-1.1,6.6-0.7,14.8-1,22.2c-0.8,0.4-1.9,0.2-2.9,0c-0.8-0.1-2.2-0.1-2.7-0.5c-0.4-0.3-0.5-1.5-0.5-2.5
		C249.5,112.5,249.6,106,250.2,100.5z M271.8,105.3c-0.3,0.4-1,0.3-1.6,0.4c-0.5,0-1.3,0.1-1.8-0.1c-0.4-0.2-0.6-0.8-0.8-1.4
		c-0.1-0.5-0.1-1.4-0.8-1.4c-0.6,0-0.5,1.2-0.5,2c0,0.9,0,1.8,0.1,2.5c0.4,0.4,1,0.4,1.6,0.4c0.6,0.1,1.4,0,1.8,0.2
		c0.6,0.4,0.4,1.7,0.4,2.5c-0.8,1-2.8,0.6-3.9,1.2c0.1,1.5,0.1,3,0.1,5c0,1.2,0.2,3.2-0.1,3.8c-0.4,1.1-2.4,1-3.8,0.8
		c-0.7-0.1-1.5-0.1-1.8-0.5c-0.7-0.7-0.4-3-0.4-4.4c0-1.7-0.1-3.1-0.1-4.7c-2.1,0.6-2.7-1.1-2.6-2.8c0.5-0.7,1.7-0.6,2.7-0.8
		c0-1.3,0.1-2.6,0.3-3.7c0.2-1.3,0.2-2.5,0.5-3.5c0.6-1.9,2.8-3.7,5.6-3.4c1.4,0.2,3.9,1.4,4.7,2.3c0.6,0.7,0.9,1.8,0.9,3.2
		C272.1,103.8,272.2,104.8,271.8,105.3z M267.5,89.3c-2.1,2.1-4.6,3.8-7.5,5.1c-2.9,1.3-6.4,2.3-10.3,2.3c-7.9,0-13.9-3-18.2-7.1
		c-4.3-4.1-7.6-9.5-7.7-17.6c-0.1-8.1,3.2-13.8,7.3-17.9c2.1-2.1,4.6-3.8,7.5-5.1c2.9-1.3,6.3-2.2,10.4-2.3
		c3.9-0.1,7.6,0.9,10.6,2.1c2.9,1.2,5.6,3,7.6,5c4.1,4.1,7.6,9.5,7.6,17.6C274.8,79.4,271.7,85.1,267.5,89.3z M256.9,62.5
		c-0.2-0.2-0.4-0.4-0.7-0.6c-0.2-0.2-0.5-0.4-0.7-0.6c-0.2-0.1-0.3-0.3-0.5-0.4c-0.2-0.1-0.3-0.2-0.5-0.3c-0.2-0.1-0.4-0.2-0.6-0.3
		c-0.5-0.3-1-0.4-1.5-0.6c-0.3-0.1-0.5-0.2-0.8-0.2c-1-0.2-2.1-0.3-3.3-0.2c-0.4,0-0.9,0.1-1.3,0.2c-0.4,0.1-0.8,0.2-1.2,0.3
		c-0.4,0.1-0.8,0.3-1.1,0.4c-0.4,0.2-0.7,0.3-1,0.5c-0.2,0.1-0.4,0.3-0.6,0.4c-0.4,0.3-0.8,0.6-1.1,0.9c-0.2,0.2-0.4,0.3-0.5,0.5
		c-0.5,0.5-1,1.2-1.4,1.8c-0.1,0.2-0.3,0.4-0.4,0.7c-0.1,0.2-0.2,0.4-0.3,0.6c-0.1,0.1-0.1,0.2-0.2,0.4c-0.1,0.2-0.2,0.4-0.2,0.6
		c-0.1,0.3-0.2,0.5-0.3,0.8c-0.1,0.3-0.2,0.5-0.2,0.8c-0.1,0.6-0.3,1.1-0.3,1.7c-0.1,0.9-0.1,1.9-0.1,2.9c0.1,2.1,0.6,3.9,1.3,5.4
		c0.1,0.2,0.2,0.3,0.2,0.5c0.1,0.2,0.2,0.3,0.3,0.5c0.2,0.3,0.3,0.6,0.6,0.9c0.3,0.4,0.6,0.8,1,1.3c0.8,0.9,1.9,1.7,3.2,2.3
		c0.4,0.2,0.9,0.3,1.3,0.5c0.6,0.2,1.3,0.3,1.9,0.4c0.7,0.1,1.4,0.1,2.2,0c0.2,0,0.4-0.1,0.7-0.1c0.4-0.1,0.8-0.1,1.2-0.2
		c0.2-0.1,0.4-0.1,0.6-0.2c0.3-0.1,0.6-0.2,0.8-0.3c0.2-0.1,0.4-0.2,0.6-0.3c0.4-0.2,0.8-0.4,1.2-0.7c0.1-0.1,0.3-0.2,0.4-0.3
		c0,0,0.1,0,0.1-0.1c0,0,0,0,0,0c0.2-0.1,0.3-0.3,0.5-0.4c0.1-0.1,0.3-0.2,0.4-0.4c0,0,0,0,0,0c0.2-0.2,0.4-0.4,0.6-0.6
		c0,0,0.1-0.1,0.1-0.1c0.1-0.1,0.1-0.2,0.2-0.2c0.1-0.2,0.3-0.3,0.4-0.5c0.5-0.6,0.9-1.3,1.3-2.1c0,0,0,0,0,0c0.1-0.3,0.3-0.6,0.4-1
		l0,0c0.7-1.8,1.1-3.9,0.9-6.2C260.2,67.3,258.8,64.5,256.9,62.5z M237.6,117.8c0.1,0.1,0.3,0.2,0.4,0.2c0,0,0,0,0,0
		c0.1,0,0.2,0,0.3,0c0.1,0,0.2,0,0.3,0c0.4,0,0.8,0,1.1,0c0.2,0,0.3,0,0.5-0.1c0.2,0,0.4,0,0.6-0.1c0.1-0.7,0.1-1.4,0.1-2.1
		c0,0,0,0,0,0c-0.7,0.1-1.7,0.1-2.4,0.4c-0.2,0.1-0.3,0.1-0.5,0.2c-0.1,0-0.1,0.1-0.2,0.1c-0.1,0-0.1,0.1-0.2,0.1
		c-0.1,0.1-0.2,0.2-0.2,0.3v0c0,0,0,0.1-0.1,0.1c0,0,0,0.1,0,0.1c0,0.2,0,0.4,0.1,0.5C237.5,117.7,237.5,117.8,237.6,117.8z
		 M200.7,115.9c-0.2,0-0.4,0.1-0.6,0.1c0,0,0,0-0.1,0c-0.3,0.1-0.6,0.2-0.9,0.3c-0.1,0.1-0.3,0.1-0.4,0.2c0,0-0.1,0.1-0.2,0.1
		c0,0-0.1,0.1-0.1,0.1c-0.1,0.1-0.2,0.2-0.2,0.3c0,0.1,0,0.2,0,0.3c0,0.1,0.1,0.3,0.2,0.3c0,0,0.1,0.1,0.1,0.1
		c0.1,0,0.1,0.1,0.2,0.1c0.1,0,0.1,0.1,0.2,0.1c0,0,0.1,0,0.1,0c0,0,0,0,0,0h0c0.1,0,0.1,0,0.2,0c0,0,0,0,0.1,0h0.1
		c0.1,0,0.1,0,0.2,0c0.7,0.1,1.6-0.1,2.2-0.2c0.1-0.6,0.1-1.5,0-2.1C201.5,115.8,201.1,115.8,200.7,115.9z M178.8,109.2
		c-0.5-0.1-1,0.5-1.4,1.4c0,0,0,0,0,0c-0.1,0.3-0.3,0.6-0.4,0.9c-0.1,0.3-0.2,0.6-0.3,0.8c-0.1,0.2-0.1,0.3-0.2,0.4
		c-0.1,0.3-0.2,0.6-0.3,0.9c0,0,0,0,0,0c-0.1,0.2-0.1,0.4-0.2,0.7c0,0.2-0.1,0.4-0.1,0.7c0,0.2,0,0.3-0.1,0.5c0,0.3-0.1,0.5-0.1,0.8
		c0,0.4,0,0.8,0.1,1.1c0.2,0,0.4,0,0.5-0.1c0.1,0,0.1-0.1,0.2-0.1c0.1,0,0.1-0.1,0.2-0.1c0.1-0.1,0.2-0.2,0.3-0.3
		c0.1-0.1,0.2-0.2,0.3-0.3c0.1-0.1,0.2-0.2,0.3-0.3c0.4-0.4,1-0.9,1.3-1.5c0-0.1,0.1-0.2,0.1-0.3c0.1-0.2,0.1-0.5,0.2-0.8
		c0-0.3,0-0.6,0.1-0.9c0-0.3,0-0.5,0-0.7C179.3,110.9,179.4,109.4,178.8,109.2z M145.1,115.8c-0.1,0-0.2,0-0.3,0c-0.1,0-0.3,0-0.4,0
		c-0.2,0-0.3,0-0.4,0.1c-0.2,0-0.4,0.1-0.6,0.1c0,0,0,0,0,0c-1,0.2-1.8,0.6-1.8,1.5c0.1,0.2,0.3,0.3,0.5,0.4c0,0,0,0,0,0
		c0.5,0.2,1.2,0.2,1.8,0.2c0.1,0,0.2,0,0.3,0c0.1,0,0.2,0,0.3,0c0.1,0,0.3,0,0.4,0c0,0,0.1,0,0.1,0h0
		C145.2,117.2,145.2,116.6,145.1,115.8L145.1,115.8z M201.8,115.8c-0.3,0-0.7,0-1.1,0.1c-0.2,0-0.4,0.1-0.6,0.1c0,0,0,0-0.1,0
		c-0.3,0.1-0.6,0.2-0.9,0.3c-0.1,0.1-0.3,0.1-0.4,0.2c0,0-0.1,0.1-0.2,0.1c0,0-0.1,0.1-0.1,0.1c-0.1,0.1-0.2,0.2-0.2,0.3
		c0,0.1,0,0.2,0,0.3c0,0.1,0.1,0.3,0.2,0.3c0,0,0.1,0.1,0.1,0.1c0.1,0,0.1,0.1,0.2,0.1c0.1,0,0.1,0.1,0.2,0.1c0,0,0.1,0,0.1,0
		c0,0,0,0,0,0h0c0.1,0,0.1,0,0.2,0c0,0,0,0,0.1,0h0.1c0.1,0,0.1,0,0.2,0c0.7,0.1,1.6-0.1,2.2-0.2
		C201.8,117.3,201.8,116.4,201.8,115.8z M178.8,109.2c-0.5-0.1-1,0.5-1.4,1.4c0,0,0,0,0,0c-0.1,0.3-0.3,0.6-0.4,0.9
		c-0.1,0.3-0.2,0.6-0.3,0.8c-0.1,0.2-0.1,0.3-0.2,0.4c-0.1,0.3-0.2,0.6-0.3,0.9c0,0,0,0,0,0c-0.1,0.2-0.1,0.4-0.2,0.7
		c0,0.2-0.1,0.4-0.1,0.7c0,0.2,0,0.3-0.1,0.5c0,0.3-0.1,0.5-0.1,0.8c0,0.4,0,0.8,0.1,1.1c0.2,0,0.4,0,0.5-0.1c0.1,0,0.1-0.1,0.2-0.1
		c0.1,0,0.1-0.1,0.2-0.1c0.1-0.1,0.2-0.2,0.3-0.3c0.1-0.1,0.2-0.2,0.3-0.3c0.1-0.1,0.2-0.2,0.3-0.3c0.4-0.4,1-0.9,1.3-1.5
		c0-0.1,0.1-0.2,0.1-0.3c0.1-0.2,0.1-0.5,0.2-0.8c0-0.3,0-0.6,0.1-0.9c0-0.3,0-0.5,0-0.7C179.3,110.9,179.4,109.4,178.8,109.2z
		 M145.2,115.8L145.2,115.8c-0.1,0-0.2,0-0.3,0c-0.1,0-0.3,0-0.4,0c-0.2,0-0.3,0-0.4,0.1c-0.2,0-0.4,0.1-0.6,0.1c0,0,0,0,0,0
		c-1,0.2-1.8,0.6-1.8,1.5c0.1,0.2,0.3,0.3,0.5,0.4c0,0,0,0,0,0c0.5,0.2,1.2,0.2,1.8,0.2c0.1,0,0.2,0,0.3,0c0.1,0,0.2,0,0.3,0
		c0.1,0,0.3,0,0.4,0c0,0,0.1,0,0.1,0h0C145.2,117.2,145.2,116.6,145.2,115.8z M240.8,115.8C240.8,115.8,240.8,115.8,240.8,115.8
		c-0.7,0-1.7,0.1-2.4,0.4c-0.2,0.1-0.3,0.1-0.5,0.2c-0.1,0-0.1,0.1-0.2,0.1c-0.1,0-0.1,0.1-0.2,0.1c-0.1,0.1-0.2,0.2-0.2,0.3v0
		c0,0,0,0.1-0.1,0.1c0,0,0,0.1,0,0.1c0,0.2,0,0.4,0.1,0.5c0,0.1,0.1,0.1,0.2,0.1c0.1,0.1,0.3,0.2,0.4,0.2c0,0,0,0,0,0
		c0.1,0,0.2,0,0.3,0c0.1,0,0.2,0,0.3,0c0.4,0,0.8,0,1.1,0c0.2,0,0.3,0,0.5-0.1c0.2,0,0.4,0,0.6-0.1
		C240.9,117.2,240.8,116.5,240.8,115.8z M260.4,70.9c-0.2-3.5-1.6-6.4-3.5-8.4c-0.2-0.2-0.4-0.4-0.7-0.6c-0.2-0.2-0.5-0.4-0.7-0.6
		c-0.2-0.1-0.3-0.3-0.5-0.4c-0.2-0.1-0.3-0.2-0.5-0.3c-0.2-0.1-0.4-0.2-0.6-0.3c-0.5-0.3-1-0.4-1.5-0.6c-0.3-0.1-0.5-0.2-0.8-0.2
		c-1-0.2-2.1-0.3-3.3-0.2c-0.4,0-0.9,0.1-1.3,0.2c-0.4,0.1-0.8,0.2-1.2,0.3c-0.4,0.1-0.8,0.3-1.1,0.4c-0.4,0.2-0.7,0.3-1,0.5
		c-0.2,0.1-0.4,0.3-0.6,0.4c-0.4,0.3-0.8,0.6-1.1,0.9c-0.2,0.2-0.4,0.3-0.5,0.5c-0.5,0.5-1,1.2-1.4,1.8c-0.1,0.2-0.3,0.4-0.4,0.7
		c-0.1,0.2-0.2,0.4-0.3,0.6c-0.1,0.1-0.1,0.2-0.2,0.4c-0.1,0.2-0.2,0.4-0.2,0.6c-0.1,0.3-0.2,0.5-0.3,0.8c-0.1,0.3-0.2,0.5-0.2,0.8
		c-0.1,0.6-0.3,1.1-0.3,1.7c-0.1,0.9-0.1,1.9-0.1,2.9c0.1,2.1,0.6,3.9,1.3,5.4c0.1,0.2,0.2,0.3,0.2,0.5c0.1,0.2,0.2,0.3,0.3,0.5
		c0.2,0.3,0.3,0.6,0.6,0.9c0.3,0.4,0.6,0.8,1,1.3c0.8,0.9,1.9,1.7,3.2,2.3c0.4,0.2,0.9,0.3,1.3,0.5c0.6,0.2,1.3,0.3,1.9,0.4
		c0.7,0.1,1.4,0.1,2.2,0c0.2,0,0.4-0.1,0.7-0.1c0.4-0.1,0.8-0.1,1.2-0.2c0.2-0.1,0.4-0.1,0.6-0.2c0.3-0.1,0.6-0.2,0.8-0.3
		c0.2-0.1,0.4-0.2,0.6-0.3c0.4-0.2,0.8-0.4,1.2-0.7c0.1-0.1,0.3-0.2,0.4-0.3c0,0,0.1,0,0.1-0.1c0,0,0,0,0,0c0.2-0.1,0.3-0.3,0.5-0.4
		c0.1-0.1,0.3-0.2,0.4-0.4c0,0,0,0,0,0c0.2-0.2,0.4-0.4,0.6-0.6c0,0,0.1-0.1,0.1-0.1c0.1-0.1,0.1-0.2,0.2-0.2
		c0.1-0.2,0.3-0.3,0.4-0.5c0.5-0.6,0.9-1.3,1.3-2.1c0,0,0,0,0,0c0.1-0.3,0.3-0.6,0.4-1l0,0C260.2,75.3,260.6,73.2,260.4,70.9z
		 M260.4,70.9c-0.2-3.5-1.6-6.4-3.5-8.4c-0.2-0.2-0.4-0.4-0.7-0.6c-0.2-0.2-0.5-0.4-0.7-0.6c-0.2-0.1-0.3-0.3-0.5-0.4
		c-0.2-0.1-0.3-0.2-0.5-0.3c-0.2-0.1-0.4-0.2-0.6-0.3c-0.5-0.3-1-0.4-1.5-0.6c-0.3-0.1-0.5-0.2-0.8-0.2c-1-0.2-2.1-0.3-3.3-0.2
		c-0.4,0-0.9,0.1-1.3,0.2c-0.4,0.1-0.8,0.2-1.2,0.3c-0.4,0.1-0.8,0.3-1.1,0.4c-0.4,0.2-0.7,0.3-1,0.5c-0.2,0.1-0.4,0.3-0.6,0.4
		c-0.4,0.3-0.8,0.6-1.1,0.9c-0.2,0.2-0.4,0.3-0.5,0.5c-0.5,0.5-1,1.2-1.4,1.8c-0.1,0.2-0.3,0.4-0.4,0.7c-0.1,0.2-0.2,0.4-0.3,0.6
		c-0.1,0.1-0.1,0.2-0.2,0.4c-0.1,0.2-0.2,0.4-0.2,0.6c-0.1,0.3-0.2,0.5-0.3,0.8c-0.1,0.3-0.2,0.5-0.2,0.8c-0.1,0.6-0.3,1.1-0.3,1.7
		c-0.1,0.9-0.1,1.9-0.1,2.9c0.1,2.1,0.6,3.9,1.3,5.4c0.1,0.2,0.2,0.3,0.2,0.5c0.1,0.2,0.2,0.3,0.3,0.5c0.2,0.3,0.3,0.6,0.6,0.9
		c0.3,0.4,0.6,0.8,1,1.3c0.8,0.9,1.9,1.7,3.2,2.3c0.4,0.2,0.9,0.3,1.3,0.5c0.6,0.2,1.3,0.3,1.9,0.4c0.7,0.1,1.4,0.1,2.2,0
		c0.2,0,0.4-0.1,0.7-0.1c0.4-0.1,0.8-0.1,1.2-0.2c0.2-0.1,0.4-0.1,0.6-0.2c0.3-0.1,0.6-0.2,0.8-0.3c0.2-0.1,0.4-0.2,0.6-0.3
		c0.4-0.2,0.8-0.4,1.2-0.7c0.1-0.1,0.3-0.2,0.4-0.3c0,0,0.1,0,0.1-0.1c0,0,0,0,0,0c0.2-0.1,0.3-0.3,0.5-0.4c0.1-0.1,0.3-0.2,0.4-0.4
		c0,0,0,0,0,0c0.2-0.2,0.4-0.4,0.6-0.6c0,0,0.1-0.1,0.1-0.1c0.1-0.1,0.1-0.2,0.2-0.2c0.1-0.2,0.3-0.3,0.4-0.5
		c0.5-0.6,0.9-1.3,1.3-2.1c0,0,0,0,0,0c0.1-0.3,0.3-0.6,0.4-1l0,0C260.2,75.3,260.6,73.2,260.4,70.9z M240.8,115.8
		C240.8,115.8,240.8,115.8,240.8,115.8c-0.7,0-1.7,0.1-2.4,0.4c-0.2,0.1-0.3,0.1-0.5,0.2c-0.1,0-0.1,0.1-0.2,0.1
		c-0.1,0-0.1,0.1-0.2,0.1c-0.1,0.1-0.2,0.2-0.2,0.3v0c0,0,0,0.1-0.1,0.1c0,0,0,0.1,0,0.1c0,0.2,0,0.4,0.1,0.5c0,0.1,0.1,0.1,0.2,0.1
		c0.1,0.1,0.3,0.2,0.4,0.2c0,0,0,0,0,0c0.1,0,0.2,0,0.3,0c0.1,0,0.2,0,0.3,0c0.4,0,0.8,0,1.1,0c0.2,0,0.3,0,0.5-0.1
		c0.2,0,0.4,0,0.6-0.1C240.9,117.2,240.8,116.5,240.8,115.8z M201.8,115.8c-0.3,0-0.7,0-1.1,0.1c-0.2,0-0.4,0.1-0.6,0.1
		c0,0,0,0-0.1,0c-0.3,0.1-0.6,0.2-0.9,0.3c-0.1,0.1-0.3,0.1-0.4,0.2c0,0-0.1,0.1-0.2,0.1c0,0-0.1,0.1-0.1,0.1
		c-0.1,0.1-0.2,0.2-0.2,0.3c0,0.1,0,0.2,0,0.3c0,0.1,0.1,0.3,0.2,0.3c0,0,0.1,0.1,0.1,0.1c0.1,0,0.1,0.1,0.2,0.1
		c0.1,0,0.1,0.1,0.2,0.1c0,0,0.1,0,0.1,0c0,0,0,0,0,0h0c0.1,0,0.1,0,0.2,0c0,0,0,0,0.1,0h0.1c0.1,0,0.1,0,0.2,0
		c0.7,0.1,1.6-0.1,2.2-0.2C201.8,117.3,201.8,116.4,201.8,115.8z M178.8,109.2c-0.5-0.1-1,0.5-1.4,1.4c0,0,0,0,0,0
		c-0.1,0.3-0.3,0.6-0.4,0.9c-0.1,0.3-0.2,0.6-0.3,0.8c-0.1,0.2-0.1,0.3-0.2,0.4c-0.1,0.3-0.2,0.6-0.3,0.9c0,0,0,0,0,0
		c-0.1,0.2-0.1,0.4-0.2,0.7c0,0.2-0.1,0.4-0.1,0.7c0,0.2,0,0.3-0.1,0.5c0,0.3-0.1,0.5-0.1,0.8c0,0.4,0,0.8,0.1,1.1
		c0.2,0,0.4,0,0.5-0.1c0.1,0,0.1-0.1,0.2-0.1c0.1,0,0.1-0.1,0.2-0.1c0.1-0.1,0.2-0.2,0.3-0.3c0.1-0.1,0.2-0.2,0.3-0.3
		c0.1-0.1,0.2-0.2,0.3-0.3c0.4-0.4,1-0.9,1.3-1.5c0-0.1,0.1-0.2,0.1-0.3c0.1-0.2,0.1-0.5,0.2-0.8c0-0.3,0-0.6,0.1-0.9
		c0-0.3,0-0.5,0-0.7C179.3,110.9,179.4,109.4,178.8,109.2z M145.2,115.8L145.2,115.8c-0.1,0-0.2,0-0.3,0c-0.1,0-0.3,0-0.4,0
		c-0.2,0-0.3,0-0.4,0.1c-0.2,0-0.4,0.1-0.6,0.1c0,0,0,0,0,0c-1,0.2-1.8,0.6-1.8,1.5c0.1,0.2,0.3,0.3,0.5,0.4c0,0,0,0,0,0
		c0.5,0.2,1.2,0.2,1.8,0.2c0.1,0,0.2,0,0.3,0c0.1,0,0.2,0,0.3,0c0.1,0,0.3,0,0.4,0c0,0,0.1,0,0.1,0h0
		C145.2,117.2,145.2,116.6,145.2,115.8z M201.8,115.8c-0.3,0-0.7,0-1.1,0.1c-0.2,0-0.4,0.1-0.6,0.1c0,0,0,0-0.1,0
		c-0.3,0.1-0.6,0.2-0.9,0.3c-0.1,0.1-0.3,0.1-0.4,0.2c0,0-0.1,0.1-0.2,0.1c0,0-0.1,0.1-0.1,0.1c-0.1,0.1-0.2,0.2-0.2,0.3
		c0,0.1,0,0.2,0,0.3c0,0.1,0.1,0.3,0.2,0.3c0,0,0.1,0.1,0.1,0.1c0.1,0,0.1,0.1,0.2,0.1c0.1,0,0.1,0.1,0.2,0.1c0,0,0.1,0,0.1,0
		c0,0,0,0,0,0h0c0.1,0,0.1,0,0.2,0c0,0,0,0,0.1,0h0.1c0.1,0,0.1,0,0.2,0c0.7,0.1,1.6-0.1,2.2-0.2
		C201.8,117.3,201.8,116.4,201.8,115.8z M178.8,109.2c-0.5-0.1-1,0.5-1.4,1.4c0,0,0,0,0,0c-0.1,0.3-0.3,0.6-0.4,0.9
		c-0.1,0.3-0.2,0.6-0.3,0.8c-0.1,0.2-0.1,0.3-0.2,0.4c-0.1,0.3-0.2,0.6-0.3,0.9c0,0,0,0,0,0c-0.1,0.2-0.1,0.4-0.2,0.7
		c0,0.2-0.1,0.4-0.1,0.7c0,0.2,0,0.3-0.1,0.5c0,0.3-0.1,0.5-0.1,0.8c0,0.4,0,0.8,0.1,1.1c0.2,0,0.4,0,0.5-0.1c0.1,0,0.1-0.1,0.2-0.1
		c0.1,0,0.1-0.1,0.2-0.1c0.1-0.1,0.2-0.2,0.3-0.3c0.1-0.1,0.2-0.2,0.3-0.3c0.1-0.1,0.2-0.2,0.3-0.3c0.4-0.4,1-0.9,1.3-1.5
		c0-0.1,0.1-0.2,0.1-0.3c0.1-0.2,0.1-0.5,0.2-0.8c0-0.3,0-0.6,0.1-0.9c0-0.3,0-0.5,0-0.7C179.3,110.9,179.4,109.4,178.8,109.2z
		 M145.2,115.8L145.2,115.8c-0.1,0-0.2,0-0.3,0c-0.1,0-0.3,0-0.4,0c-0.2,0-0.3,0-0.4,0.1c-0.2,0-0.4,0.1-0.6,0.1c0,0,0,0,0,0
		c-1,0.2-1.8,0.6-1.8,1.5c0.1,0.2,0.3,0.3,0.5,0.4c0,0,0,0,0,0c0.5,0.2,1.2,0.2,1.8,0.2c0.1,0,0.2,0,0.3,0c0.1,0,0.2,0,0.3,0
		c0.1,0,0.3,0,0.4,0c0,0,0.1,0,0.1,0h0C145.2,117.2,145.2,116.6,145.2,115.8z M240.8,115.8C240.8,115.8,240.8,115.8,240.8,115.8
		c-0.7,0-1.7,0.1-2.4,0.4c-0.2,0.1-0.3,0.1-0.5,0.2c-0.1,0-0.1,0.1-0.2,0.1c-0.1,0-0.1,0.1-0.2,0.1c-0.1,0.1-0.2,0.2-0.2,0.3v0
		c0,0,0,0.1-0.1,0.1c0,0,0,0.1,0,0.1c0,0.2,0,0.4,0.1,0.5c0,0.1,0.1,0.1,0.2,0.1c0.1,0.1,0.3,0.2,0.4,0.2c0,0,0,0,0,0
		c0.1,0,0.2,0,0.3,0c0.1,0,0.2,0,0.3,0c0.4,0,0.8,0,1.1,0c0.2,0,0.3,0,0.5-0.1c0.2,0,0.4,0,0.6-0.1
		C240.9,117.2,240.8,116.5,240.8,115.8z M260.4,70.9c-0.2-3.5-1.6-6.4-3.5-8.4c-0.2-0.2-0.4-0.4-0.7-0.6c-0.2-0.2-0.5-0.4-0.7-0.6
		c-0.2-0.1-0.3-0.3-0.5-0.4c-0.2-0.1-0.3-0.2-0.5-0.3c-0.2-0.1-0.4-0.2-0.6-0.3c-0.5-0.3-1-0.4-1.5-0.6c-0.3-0.1-0.5-0.2-0.8-0.2
		c-1-0.2-2.1-0.3-3.3-0.2c-0.4,0-0.9,0.1-1.3,0.2c-0.4,0.1-0.8,0.2-1.2,0.3c-0.4,0.1-0.8,0.3-1.1,0.4c-0.4,0.2-0.7,0.3-1,0.5
		c-0.2,0.1-0.4,0.3-0.6,0.4c-0.4,0.3-0.8,0.6-1.1,0.9c-0.2,0.2-0.4,0.3-0.5,0.5c-0.5,0.5-1,1.2-1.4,1.8c-0.1,0.2-0.3,0.4-0.4,0.7
		c-0.1,0.2-0.2,0.4-0.3,0.6c-0.1,0.1-0.1,0.2-0.2,0.4c-0.1,0.2-0.2,0.4-0.2,0.6c-0.1,0.3-0.2,0.5-0.3,0.8c-0.1,0.3-0.2,0.5-0.2,0.8
		c-0.1,0.6-0.3,1.1-0.3,1.7c-0.1,0.9-0.1,1.9-0.1,2.9c0.1,2.1,0.6,3.9,1.3,5.4c0.1,0.2,0.2,0.3,0.2,0.5c0.1,0.2,0.2,0.3,0.3,0.5
		c0.2,0.3,0.3,0.6,0.6,0.9c0.3,0.4,0.6,0.8,1,1.3c0.8,0.9,1.9,1.7,3.2,2.3c0.4,0.2,0.9,0.3,1.3,0.5c0.6,0.2,1.3,0.3,1.9,0.4
		c0.7,0.1,1.4,0.1,2.2,0c0.2,0,0.4-0.1,0.7-0.1c0.4-0.1,0.8-0.1,1.2-0.2c0.2-0.1,0.4-0.1,0.6-0.2c0.3-0.1,0.6-0.2,0.8-0.3
		c0.2-0.1,0.4-0.2,0.6-0.3c0.4-0.2,0.8-0.4,1.2-0.7c0.1-0.1,0.3-0.2,0.4-0.3c0,0,0.1,0,0.1-0.1c0,0,0,0,0,0c0.2-0.1,0.3-0.3,0.5-0.4
		c0.1-0.1,0.3-0.2,0.4-0.4c0,0,0,0,0,0c0.2-0.2,0.4-0.4,0.6-0.6c0,0,0.1-0.1,0.1-0.1c0.1-0.1,0.1-0.2,0.2-0.2
		c0.1-0.2,0.3-0.3,0.4-0.5c0.5-0.6,0.9-1.3,1.3-2.1c0,0,0,0,0,0c0.1-0.3,0.3-0.6,0.4-1l0,0C260.2,75.3,260.6,73.2,260.4,70.9z
		 M260.4,70.9c-0.2-3.5-1.6-6.4-3.5-8.4c-0.2-0.2-0.4-0.4-0.7-0.6c-0.2-0.2-0.5-0.4-0.7-0.6c-0.2-0.1-0.3-0.3-0.5-0.4
		c-0.2-0.1-0.3-0.2-0.5-0.3c-0.2-0.1-0.4-0.2-0.6-0.3c-0.5-0.3-1-0.4-1.5-0.6c-0.3-0.1-0.5-0.2-0.8-0.2c-1-0.2-2.1-0.3-3.3-0.2
		c-0.4,0-0.9,0.1-1.3,0.2c-0.4,0.1-0.8,0.2-1.2,0.3c-0.4,0.1-0.8,0.3-1.1,0.4c-0.4,0.2-0.7,0.3-1,0.5c-0.2,0.1-0.4,0.3-0.6,0.4
		c-0.4,0.3-0.8,0.6-1.1,0.9c-0.2,0.2-0.4,0.3-0.5,0.5c-0.5,0.5-1,1.2-1.4,1.8c-0.1,0.2-0.3,0.4-0.4,0.7c-0.1,0.2-0.2,0.4-0.3,0.6
		c-0.1,0.1-0.1,0.2-0.2,0.4c-0.1,0.2-0.2,0.4-0.2,0.6c-0.1,0.3-0.2,0.5-0.3,0.8c-0.1,0.3-0.2,0.5-0.2,0.8c-0.1,0.6-0.3,1.1-0.3,1.7
		c-0.1,0.9-0.1,1.9-0.1,2.9c0.1,2.1,0.6,3.9,1.3,5.4c0.1,0.2,0.2,0.3,0.2,0.5c0.1,0.2,0.2,0.3,0.3,0.5c0.2,0.3,0.3,0.6,0.6,0.9
		c0.3,0.4,0.6,0.8,1,1.3c0.8,0.9,1.9,1.7,3.2,2.3c0.4,0.2,0.9,0.3,1.3,0.5c0.6,0.2,1.3,0.3,1.9,0.4c0.7,0.1,1.4,0.1,2.2,0
		c0.2,0,0.4-0.1,0.7-0.1c0.4-0.1,0.8-0.1,1.2-0.2c0.2-0.1,0.4-0.1,0.6-0.2c0.3-0.1,0.6-0.2,0.8-0.3c0.2-0.1,0.4-0.2,0.6-0.3
		c0.4-0.2,0.8-0.4,1.2-0.7c0.1-0.1,0.3-0.2,0.4-0.3c0,0,0.1,0,0.1-0.1c0,0,0,0,0,0c0.2-0.1,0.3-0.3,0.5-0.4c0.1-0.1,0.3-0.2,0.4-0.4
		c0,0,0,0,0,0c0.2-0.2,0.4-0.4,0.6-0.6c0,0,0.1-0.1,0.1-0.1c0.1-0.1,0.1-0.2,0.2-0.2c0.1-0.2,0.3-0.3,0.4-0.5
		c0.5-0.6,0.9-1.3,1.3-2.1c0,0,0,0,0,0c0.1-0.3,0.3-0.6,0.4-1l0,0C260.2,75.3,260.6,73.2,260.4,70.9z M240.8,115.8
		C240.8,115.8,240.8,115.8,240.8,115.8c-0.7,0-1.7,0.1-2.4,0.4c-0.2,0.1-0.3,0.1-0.5,0.2c-0.1,0-0.1,0.1-0.2,0.1
		c-0.1,0-0.1,0.1-0.2,0.1c-0.1,0.1-0.2,0.2-0.2,0.3v0c0,0,0,0.1-0.1,0.1c0,0,0,0.1,0,0.1c0,0.2,0,0.4,0.1,0.5c0,0.1,0.1,0.1,0.2,0.1
		c0.1,0.1,0.3,0.2,0.4,0.2c0,0,0,0,0,0c0.1,0,0.2,0,0.3,0c0.1,0,0.2,0,0.3,0c0.4,0,0.8,0,1.1,0c0.2,0,0.3,0,0.5-0.1
		c0.2,0,0.4,0,0.6-0.1C240.9,117.2,240.8,116.5,240.8,115.8z M201.8,115.8c-0.3,0-0.7,0-1.1,0.1c-0.2,0-0.4,0.1-0.6,0.1
		c0,0,0,0-0.1,0c-0.3,0.1-0.6,0.2-0.9,0.3c-0.1,0.1-0.3,0.1-0.4,0.2c0,0-0.1,0.1-0.2,0.1c0,0-0.1,0.1-0.1,0.1
		c-0.1,0.1-0.2,0.2-0.2,0.3c0,0.1,0,0.2,0,0.3c0,0.1,0.1,0.3,0.2,0.3c0,0,0.1,0.1,0.1,0.1c0.1,0,0.1,0.1,0.2,0.1
		c0.1,0,0.1,0.1,0.2,0.1c0,0,0.1,0,0.1,0c0,0,0,0,0,0h0c0.1,0,0.1,0,0.2,0c0,0,0,0,0.1,0h0.1c0.1,0,0.1,0,0.2,0
		c0.7,0.1,1.6-0.1,2.2-0.2C201.8,117.3,201.8,116.4,201.8,115.8z M178.8,109.2c-0.5-0.1-1,0.5-1.4,1.4c0,0,0,0,0,0
		c-0.1,0.3-0.3,0.6-0.4,0.9c-0.1,0.3-0.2,0.6-0.3,0.8c-0.1,0.2-0.1,0.3-0.2,0.4c-0.1,0.3-0.2,0.6-0.3,0.9c0,0,0,0,0,0
		c-0.1,0.2-0.1,0.4-0.2,0.7c0,0.2-0.1,0.4-0.1,0.7c0,0.2,0,0.3-0.1,0.5c0,0.3-0.1,0.5-0.1,0.8c0,0.4,0,0.8,0.1,1.1
		c0.2,0,0.4,0,0.5-0.1c0.1,0,0.1-0.1,0.2-0.1c0.1,0,0.1-0.1,0.2-0.1c0.1-0.1,0.2-0.2,0.3-0.3c0.1-0.1,0.2-0.2,0.3-0.3
		c0.1-0.1,0.2-0.2,0.3-0.3c0.4-0.4,1-0.9,1.3-1.5c0-0.1,0.1-0.2,0.1-0.3c0.1-0.2,0.1-0.5,0.2-0.8c0-0.3,0-0.6,0.1-0.9
		c0-0.3,0-0.5,0-0.7C179.3,110.9,179.4,109.4,178.8,109.2z M145.2,115.8L145.2,115.8c-0.1,0-0.2,0-0.3,0c-0.1,0-0.3,0-0.4,0
		c-0.2,0-0.3,0-0.4,0.1c-0.2,0-0.4,0.1-0.6,0.1c0,0,0,0,0,0c-1,0.2-1.8,0.6-1.8,1.5c0.1,0.2,0.3,0.3,0.5,0.4c0,0,0,0,0,0
		c0.5,0.2,1.2,0.2,1.8,0.2c0.1,0,0.2,0,0.3,0c0.1,0,0.2,0,0.3,0c0.1,0,0.3,0,0.4,0c0,0,0.1,0,0.1,0h0
		C145.2,117.2,145.2,116.6,145.2,115.8z M201.8,115.8c-0.3,0-0.7,0-1.1,0.1c-0.2,0-0.4,0.1-0.6,0.1c0,0,0,0-0.1,0
		c-0.3,0.1-0.6,0.2-0.9,0.3c-0.1,0.1-0.3,0.1-0.4,0.2c0,0-0.1,0.1-0.2,0.1c0,0-0.1,0.1-0.1,0.1c-0.1,0.1-0.2,0.2-0.2,0.3
		c0,0.1,0,0.2,0,0.3c0,0.1,0.1,0.3,0.2,0.3c0,0,0.1,0.1,0.1,0.1c0.1,0,0.1,0.1,0.2,0.1c0.1,0,0.1,0.1,0.2,0.1c0,0,0.1,0,0.1,0
		c0,0,0,0,0,0h0c0.1,0,0.1,0,0.2,0c0,0,0,0,0.1,0h0.1c0.1,0,0.1,0,0.2,0c0.7,0.1,1.6-0.1,2.2-0.2
		C201.8,117.3,201.8,116.4,201.8,115.8z M178.8,109.2c-0.5-0.1-1,0.5-1.4,1.4c0,0,0,0,0,0c-0.1,0.3-0.3,0.6-0.4,0.9
		c-0.1,0.3-0.2,0.6-0.3,0.8c-0.1,0.2-0.1,0.3-0.2,0.4c-0.1,0.3-0.2,0.6-0.3,0.9c0,0,0,0,0,0c-0.1,0.2-0.1,0.4-0.2,0.7
		c0,0.2-0.1,0.4-0.1,0.7c0,0.2,0,0.3-0.1,0.5c0,0.3-0.1,0.5-0.1,0.8c0,0.4,0,0.8,0.1,1.1c0.2,0,0.4,0,0.5-0.1c0.1,0,0.1-0.1,0.2-0.1
		c0.1,0,0.1-0.1,0.2-0.1c0.1-0.1,0.2-0.2,0.3-0.3c0.1-0.1,0.2-0.2,0.3-0.3c0.1-0.1,0.2-0.2,0.3-0.3c0.4-0.4,1-0.9,1.3-1.5
		c0-0.1,0.1-0.2,0.1-0.3c0.1-0.2,0.1-0.5,0.2-0.8c0-0.3,0-0.6,0.1-0.9c0-0.3,0-0.5,0-0.7C179.3,110.9,179.4,109.4,178.8,109.2z
		 M145.2,115.8L145.2,115.8c-0.1,0-0.2,0-0.3,0c-0.1,0-0.3,0-0.4,0c-0.2,0-0.3,0-0.4,0.1c-0.2,0-0.4,0.1-0.6,0.1c0,0,0,0,0,0
		c-1,0.2-1.8,0.6-1.8,1.5c0.1,0.2,0.3,0.3,0.5,0.4c0,0,0,0,0,0c0.5,0.2,1.2,0.2,1.8,0.2c0.1,0,0.2,0,0.3,0c0.1,0,0.2,0,0.3,0
		c0.1,0,0.3,0,0.4,0c0,0,0.1,0,0.1,0h0C145.2,117.2,145.2,116.6,145.2,115.8z M240.8,115.8C240.8,115.8,240.8,115.8,240.8,115.8
		c-0.7,0-1.7,0.1-2.4,0.4c-0.2,0.1-0.3,0.1-0.5,0.2c-0.1,0-0.1,0.1-0.2,0.1c-0.1,0-0.1,0.1-0.2,0.1c-0.1,0.1-0.2,0.2-0.2,0.3v0
		c0,0,0,0.1-0.1,0.1c0,0,0,0.1,0,0.1c0,0.2,0,0.4,0.1,0.5c0,0.1,0.1,0.1,0.2,0.1c0.1,0.1,0.3,0.2,0.4,0.2c0,0,0,0,0,0
		c0.1,0,0.2,0,0.3,0c0.1,0,0.2,0,0.3,0c0.4,0,0.8,0,1.1,0c0.2,0,0.3,0,0.5-0.1c0.2,0,0.4,0,0.6-0.1
		C240.9,117.2,240.8,116.5,240.8,115.8z M260.4,70.9c-0.2-3.5-1.6-6.4-3.5-8.4c-0.2-0.2-0.4-0.4-0.7-0.6c-0.2-0.2-0.5-0.4-0.7-0.6
		c-0.2-0.1-0.3-0.3-0.5-0.4c-0.2-0.1-0.3-0.2-0.5-0.3c-0.2-0.1-0.4-0.2-0.6-0.3c-0.5-0.3-1-0.4-1.5-0.6c-0.3-0.1-0.5-0.2-0.8-0.2
		c-1-0.2-2.1-0.3-3.3-0.2c-0.4,0-0.9,0.1-1.3,0.2c-0.4,0.1-0.8,0.2-1.2,0.3c-0.4,0.1-0.8,0.3-1.1,0.4c-0.4,0.2-0.7,0.3-1,0.5
		c-0.2,0.1-0.4,0.3-0.6,0.4c-0.4,0.3-0.8,0.6-1.1,0.9c-0.2,0.2-0.4,0.3-0.5,0.5c-0.5,0.5-1,1.2-1.4,1.8c-0.1,0.2-0.3,0.4-0.4,0.7
		c-0.1,0.2-0.2,0.4-0.3,0.6c-0.1,0.1-0.1,0.2-0.2,0.4c-0.1,0.2-0.2,0.4-0.2,0.6c-0.1,0.3-0.2,0.5-0.3,0.8c-0.1,0.3-0.2,0.5-0.2,0.8
		c-0.1,0.6-0.3,1.1-0.3,1.7c-0.1,0.9-0.1,1.9-0.1,2.9c0.1,2.1,0.6,3.9,1.3,5.4c0.1,0.2,0.2,0.3,0.2,0.5c0.1,0.2,0.2,0.3,0.3,0.5
		c0.2,0.3,0.3,0.6,0.6,0.9c0.3,0.4,0.6,0.8,1,1.3c0.8,0.9,1.9,1.7,3.2,2.3c0.4,0.2,0.9,0.3,1.3,0.5c0.6,0.2,1.3,0.3,1.9,0.4
		c0.7,0.1,1.4,0.1,2.2,0c0.2,0,0.4-0.1,0.7-0.1c0.4-0.1,0.8-0.1,1.2-0.2c0.2-0.1,0.4-0.1,0.6-0.2c0.3-0.1,0.6-0.2,0.8-0.3
		c0.2-0.1,0.4-0.2,0.6-0.3c0.4-0.2,0.8-0.4,1.2-0.7c0.1-0.1,0.3-0.2,0.4-0.3c0,0,0.1,0,0.1-0.1c0,0,0,0,0,0c0.2-0.1,0.3-0.3,0.5-0.4
		c0.1-0.1,0.3-0.2,0.4-0.4c0,0,0,0,0,0c0.2-0.2,0.4-0.4,0.6-0.6c0,0,0.1-0.1,0.1-0.1c0.1-0.1,0.1-0.2,0.2-0.2
		c0.1-0.2,0.3-0.3,0.4-0.5c0.5-0.6,0.9-1.3,1.3-2.1c0,0,0,0,0,0c0.1-0.3,0.3-0.6,0.4-1l0,0C260.2,75.3,260.6,73.2,260.4,70.9z
		 M260.4,70.9c-0.2-3.5-1.6-6.4-3.5-8.4c-0.2-0.2-0.4-0.4-0.7-0.6c-0.2-0.2-0.5-0.4-0.7-0.6c-0.2-0.1-0.3-0.3-0.5-0.4
		c-0.2-0.1-0.3-0.2-0.5-0.3c-0.2-0.1-0.4-0.2-0.6-0.3c-0.5-0.3-1-0.4-1.5-0.6c-0.3-0.1-0.5-0.2-0.8-0.2c-1-0.2-2.1-0.3-3.3-0.2
		c-0.4,0-0.9,0.1-1.3,0.2c-0.4,0.1-0.8,0.2-1.2,0.3c-0.4,0.1-0.8,0.3-1.1,0.4c-0.4,0.2-0.7,0.3-1,0.5c-0.2,0.1-0.4,0.3-0.6,0.4
		c-0.4,0.3-0.8,0.6-1.1,0.9c-0.2,0.2-0.4,0.3-0.5,0.5c-0.5,0.5-1,1.2-1.4,1.8c-0.1,0.2-0.3,0.4-0.4,0.7c-0.1,0.2-0.2,0.4-0.3,0.6
		c-0.1,0.1-0.1,0.2-0.2,0.4c-0.1,0.2-0.2,0.4-0.2,0.6c-0.1,0.3-0.2,0.5-0.3,0.8c-0.1,0.3-0.2,0.5-0.2,0.8c-0.1,0.6-0.3,1.1-0.3,1.7
		c-0.1,0.9-0.1,1.9-0.1,2.9c0.1,2.1,0.6,3.9,1.3,5.4c0.1,0.2,0.2,0.3,0.2,0.5c0.1,0.2,0.2,0.3,0.3,0.5c0.2,0.3,0.3,0.6,0.6,0.9
		c0.3,0.4,0.6,0.8,1,1.3c0.8,0.9,1.9,1.7,3.2,2.3c0.4,0.2,0.9,0.3,1.3,0.5c0.6,0.2,1.3,0.3,1.9,0.4c0.7,0.1,1.4,0.1,2.2,0
		c0.2,0,0.4-0.1,0.7-0.1c0.4-0.1,0.8-0.1,1.2-0.2c0.2-0.1,0.4-0.1,0.6-0.2c0.3-0.1,0.6-0.2,0.8-0.3c0.2-0.1,0.4-0.2,0.6-0.3
		c0.4-0.2,0.8-0.4,1.2-0.7c0.1-0.1,0.3-0.2,0.4-0.3c0,0,0.1,0,0.1-0.1c0,0,0,0,0,0c0.2-0.1,0.3-0.3,0.5-0.4c0.1-0.1,0.3-0.2,0.4-0.4
		c0,0,0,0,0,0c0.2-0.2,0.4-0.4,0.6-0.6c0,0,0.1-0.1,0.1-0.1c0.1-0.1,0.1-0.2,0.2-0.2c0.1-0.2,0.3-0.3,0.4-0.5
		c0.5-0.6,0.9-1.3,1.3-2.1c0,0,0,0,0,0c0.1-0.3,0.3-0.6,0.4-1l0,0C260.2,75.3,260.6,73.2,260.4,70.9z M240.8,115.8
		C240.8,115.8,240.8,115.8,240.8,115.8c-0.7,0-1.7,0.1-2.4,0.4c-0.2,0.1-0.3,0.1-0.5,0.2c-0.1,0-0.1,0.1-0.2,0.1
		c-0.1,0-0.1,0.1-0.2,0.1c-0.1,0.1-0.2,0.2-0.2,0.3v0c0,0,0,0.1-0.1,0.1c0,0,0,0.1,0,0.1c0,0.2,0,0.4,0.1,0.5c0,0.1,0.1,0.1,0.2,0.1
		c0.1,0.1,0.3,0.2,0.4,0.2c0,0,0,0,0,0c0.1,0,0.2,0,0.3,0c0.1,0,0.2,0,0.3,0c0.4,0,0.8,0,1.1,0c0.2,0,0.3,0,0.5-0.1
		c0.2,0,0.4,0,0.6-0.1C240.9,117.2,240.8,116.5,240.8,115.8z M201.8,115.8c-0.3,0-0.7,0-1.1,0.1c-0.2,0-0.4,0.1-0.6,0.1
		c0,0,0,0-0.1,0c-0.3,0.1-0.6,0.2-0.9,0.3c-0.1,0.1-0.3,0.1-0.4,0.2c0,0-0.1,0.1-0.2,0.1c0,0-0.1,0.1-0.1,0.1
		c-0.1,0.1-0.2,0.2-0.2,0.3c0,0.1,0,0.2,0,0.3c0,0.1,0.1,0.3,0.2,0.3c0,0,0.1,0.1,0.1,0.1c0.1,0,0.1,0.1,0.2,0.1
		c0.1,0,0.1,0.1,0.2,0.1c0,0,0.1,0,0.1,0c0,0,0,0,0,0h0c0.1,0,0.1,0,0.2,0c0,0,0,0,0.1,0h0.1c0.1,0,0.1,0,0.2,0
		c0.7,0.1,1.6-0.1,2.2-0.2C201.8,117.3,201.8,116.4,201.8,115.8z M178.8,109.2c-0.5-0.1-1,0.5-1.4,1.4c0,0,0,0,0,0
		c-0.1,0.3-0.3,0.6-0.4,0.9c-0.1,0.3-0.2,0.6-0.3,0.8c-0.1,0.2-0.1,0.3-0.2,0.4c-0.1,0.3-0.2,0.6-0.3,0.9c0,0,0,0,0,0
		c-0.1,0.2-0.1,0.4-0.2,0.7c0,0.2-0.1,0.4-0.1,0.7c0,0.2,0,0.3-0.1,0.5c0,0.3-0.1,0.5-0.1,0.8c0,0.4,0,0.8,0.1,1.1
		c0.2,0,0.4,0,0.5-0.1c0.1,0,0.1-0.1,0.2-0.1c0.1,0,0.1-0.1,0.2-0.1c0.1-0.1,0.2-0.2,0.3-0.3c0.1-0.1,0.2-0.2,0.3-0.3
		c0.1-0.1,0.2-0.2,0.3-0.3c0.4-0.4,1-0.9,1.3-1.5c0-0.1,0.1-0.2,0.1-0.3c0.1-0.2,0.1-0.5,0.2-0.8c0-0.3,0-0.6,0.1-0.9
		c0-0.3,0-0.5,0-0.7C179.3,110.9,179.4,109.4,178.8,109.2z M145.2,115.8L145.2,115.8c-0.1,0-0.2,0-0.3,0c-0.1,0-0.3,0-0.4,0
		c-0.2,0-0.3,0-0.4,0.1c-0.2,0-0.4,0.1-0.6,0.1c0,0,0,0,0,0c-1,0.2-1.8,0.6-1.8,1.5c0.1,0.2,0.3,0.3,0.5,0.4c0,0,0,0,0,0
		c0.5,0.2,1.2,0.2,1.8,0.2c0.1,0,0.2,0,0.3,0c0.1,0,0.2,0,0.3,0c0.1,0,0.3,0,0.4,0c0,0,0.1,0,0.1,0h0
		C145.2,117.2,145.2,116.6,145.2,115.8z M201.8,115.8c-0.3,0-0.7,0-1.1,0.1c-0.2,0-0.4,0.1-0.6,0.1c0,0,0,0-0.1,0
		c-0.3,0.1-0.6,0.2-0.9,0.3c-0.1,0.1-0.3,0.1-0.4,0.2c0,0-0.1,0.1-0.2,0.1c0,0-0.1,0.1-0.1,0.1c-0.1,0.1-0.2,0.2-0.2,0.3
		c0,0.1,0,0.2,0,0.3c0,0.1,0.1,0.3,0.2,0.3c0,0,0.1,0.1,0.1,0.1c0.1,0,0.1,0.1,0.2,0.1c0.1,0,0.1,0.1,0.2,0.1c0,0,0.1,0,0.1,0
		c0,0,0,0,0,0h0c0.1,0,0.1,0,0.2,0c0,0,0,0,0.1,0h0.1c0.1,0,0.1,0,0.2,0c0.7,0.1,1.6-0.1,2.2-0.2
		C201.8,117.3,201.8,116.4,201.8,115.8z M178.8,109.2c-0.5-0.1-1,0.5-1.4,1.4c0,0,0,0,0,0c-0.1,0.3-0.3,0.6-0.4,0.9
		c-0.1,0.3-0.2,0.6-0.3,0.8c-0.1,0.2-0.1,0.3-0.2,0.4c-0.1,0.3-0.2,0.6-0.3,0.9c0,0,0,0,0,0c-0.1,0.2-0.1,0.4-0.2,0.7
		c0,0.2-0.1,0.4-0.1,0.7c0,0.2,0,0.3-0.1,0.5c0,0.3-0.1,0.5-0.1,0.8c0,0.4,0,0.8,0.1,1.1c0.2,0,0.4,0,0.5-0.1c0.1,0,0.1-0.1,0.2-0.1
		c0.1,0,0.1-0.1,0.2-0.1c0.1-0.1,0.2-0.2,0.3-0.3c0.1-0.1,0.2-0.2,0.3-0.3c0.1-0.1,0.2-0.2,0.3-0.3c0.4-0.4,1-0.9,1.3-1.5
		c0-0.1,0.1-0.2,0.1-0.3c0.1-0.2,0.1-0.5,0.2-0.8c0-0.3,0-0.6,0.1-0.9c0-0.3,0-0.5,0-0.7C179.3,110.9,179.4,109.4,178.8,109.2z
		 M145.2,115.8L145.2,115.8c-0.1,0-0.2,0-0.3,0c-0.1,0-0.3,0-0.4,0c-0.2,0-0.3,0-0.4,0.1c-0.2,0-0.4,0.1-0.6,0.1c0,0,0,0,0,0
		c-1,0.2-1.8,0.6-1.8,1.5c0.1,0.2,0.3,0.3,0.5,0.4c0,0,0,0,0,0c0.5,0.2,1.2,0.2,1.8,0.2c0.1,0,0.2,0,0.3,0c0.1,0,0.2,0,0.3,0
		c0.1,0,0.3,0,0.4,0c0,0,0.1,0,0.1,0h0C145.2,117.2,145.2,116.6,145.2,115.8z M260.4,70.9c-0.2-3.5-1.6-6.4-3.5-8.4
		c-0.2-0.2-0.4-0.4-0.7-0.6c-0.2-0.2-0.5-0.4-0.7-0.6c-0.2-0.1-0.3-0.3-0.5-0.4c-0.2-0.1-0.3-0.2-0.5-0.3c-0.2-0.1-0.4-0.2-0.6-0.3
		c-0.5-0.3-1-0.4-1.5-0.6c-0.3-0.1-0.5-0.2-0.8-0.2c-1-0.2-2.1-0.3-3.3-0.2c-0.4,0-0.9,0.1-1.3,0.2c-0.4,0.1-0.8,0.2-1.2,0.3
		c-0.4,0.1-0.8,0.3-1.1,0.4c-0.4,0.2-0.7,0.3-1,0.5c-0.2,0.1-0.4,0.3-0.6,0.4c-0.4,0.3-0.8,0.6-1.1,0.9c-0.2,0.2-0.4,0.3-0.5,0.5
		c-0.5,0.5-1,1.2-1.4,1.8c-0.1,0.2-0.3,0.4-0.4,0.7c-0.1,0.2-0.2,0.4-0.3,0.6c-0.1,0.1-0.1,0.2-0.2,0.4c-0.1,0.2-0.2,0.4-0.2,0.6
		c-0.1,0.3-0.2,0.5-0.3,0.8c-0.1,0.3-0.2,0.5-0.2,0.8c-0.1,0.6-0.3,1.1-0.3,1.7c-0.1,0.9-0.1,1.9-0.1,2.9c0.1,2.1,0.6,3.9,1.3,5.4
		c0.1,0.2,0.2,0.3,0.2,0.5c0.1,0.2,0.2,0.3,0.3,0.5c0.2,0.3,0.3,0.6,0.6,0.9c0.3,0.4,0.6,0.8,1,1.3c0.8,0.9,1.9,1.7,3.2,2.3
		c0.4,0.2,0.9,0.3,1.3,0.5c0.6,0.2,1.3,0.3,1.9,0.4c0.7,0.1,1.4,0.1,2.2,0c0.2,0,0.4-0.1,0.7-0.1c0.4-0.1,0.8-0.1,1.2-0.2
		c0.2-0.1,0.4-0.1,0.6-0.2c0.3-0.1,0.6-0.2,0.8-0.3c0.2-0.1,0.4-0.2,0.6-0.3c0.4-0.2,0.8-0.4,1.2-0.7c0.1-0.1,0.3-0.2,0.4-0.3
		c0,0,0.1,0,0.1-0.1c0,0,0,0,0,0c0.2-0.1,0.3-0.3,0.5-0.4c0.1-0.1,0.3-0.2,0.4-0.4c0,0,0,0,0,0c0.2-0.2,0.4-0.4,0.6-0.6
		c0,0,0.1-0.1,0.1-0.1c0.1-0.1,0.1-0.2,0.2-0.2c0.1-0.2,0.3-0.3,0.4-0.5c0.5-0.6,0.9-1.3,1.3-2.1c0,0,0,0,0,0c0.1-0.3,0.3-0.6,0.4-1
		l0,0C260.2,75.3,260.6,73.2,260.4,70.9z M260.4,70.9c-0.2-3.5-1.6-6.4-3.5-8.4c-0.2-0.2-0.4-0.4-0.7-0.6c-0.2-0.2-0.5-0.4-0.7-0.6
		c-0.2-0.1-0.3-0.3-0.5-0.4c-0.2-0.1-0.3-0.2-0.5-0.3c-0.2-0.1-0.4-0.2-0.6-0.3c-0.5-0.3-1-0.4-1.5-0.6c-0.3-0.1-0.5-0.2-0.8-0.2
		c-1-0.2-2.1-0.3-3.3-0.2c-0.4,0-0.9,0.1-1.3,0.2c-0.4,0.1-0.8,0.2-1.2,0.3c-0.4,0.1-0.8,0.3-1.1,0.4c-0.4,0.2-0.7,0.3-1,0.5
		c-0.2,0.1-0.4,0.3-0.6,0.4c-0.4,0.3-0.8,0.6-1.1,0.9c-0.2,0.2-0.4,0.3-0.5,0.5c-0.5,0.5-1,1.2-1.4,1.8c-0.1,0.2-0.3,0.4-0.4,0.7
		c-0.1,0.2-0.2,0.4-0.3,0.6c-0.1,0.1-0.1,0.2-0.2,0.4c-0.1,0.2-0.2,0.4-0.2,0.6c-0.1,0.3-0.2,0.5-0.3,0.8c-0.1,0.3-0.2,0.5-0.2,0.8
		c-0.1,0.6-0.3,1.1-0.3,1.7c-0.1,0.9-0.1,1.9-0.1,2.9c0.1,2.1,0.6,3.9,1.3,5.4c0.1,0.2,0.2,0.3,0.2,0.5c0.1,0.2,0.2,0.3,0.3,0.5
		c0.2,0.3,0.3,0.6,0.6,0.9c0.3,0.4,0.6,0.8,1,1.3c0.8,0.9,1.9,1.7,3.2,2.3c0.4,0.2,0.9,0.3,1.3,0.5c0.6,0.2,1.3,0.3,1.9,0.4
		c0.7,0.1,1.4,0.1,2.2,0c0.2,0,0.4-0.1,0.7-0.1c0.4-0.1,0.8-0.1,1.2-0.2c0.2-0.1,0.4-0.1,0.6-0.2c0.3-0.1,0.6-0.2,0.8-0.3
		c0.2-0.1,0.4-0.2,0.6-0.3c0.4-0.2,0.8-0.4,1.2-0.7c0.1-0.1,0.3-0.2,0.4-0.3c0,0,0.1,0,0.1-0.1c0,0,0,0,0,0c0.2-0.1,0.3-0.3,0.5-0.4
		c0.1-0.1,0.3-0.2,0.4-0.4c0,0,0,0,0,0c0.2-0.2,0.4-0.4,0.6-0.6c0,0,0.1-0.1,0.1-0.1c0.1-0.1,0.1-0.2,0.2-0.2
		c0.1-0.2,0.3-0.3,0.4-0.5c0.5-0.6,0.9-1.3,1.3-2.1c0,0,0,0,0,0c0.1-0.3,0.3-0.6,0.4-1l0,0C260.2,75.3,260.6,73.2,260.4,70.9z
		 M201.8,115.8c-0.3,0-0.7,0-1.1,0.1c-0.2,0-0.4,0.1-0.6,0.1c0,0,0,0-0.1,0c-0.3,0.1-0.6,0.2-0.9,0.3c-0.1,0.1-0.3,0.1-0.4,0.2
		c0,0-0.1,0.1-0.2,0.1c0,0-0.1,0.1-0.1,0.1c-0.1,0.1-0.2,0.2-0.2,0.3c0,0.1,0,0.2,0,0.3c0,0.1,0.1,0.3,0.2,0.3c0,0,0.1,0.1,0.1,0.1
		c0.1,0,0.1,0.1,0.2,0.1c0.1,0,0.1,0.1,0.2,0.1c0,0,0.1,0,0.1,0c0,0,0,0,0,0h0c0.1,0,0.1,0,0.2,0c0,0,0,0,0.1,0h0.1
		c0.1,0,0.1,0,0.2,0c0.7,0.1,1.6-0.1,2.2-0.2C201.8,117.3,201.8,116.4,201.8,115.8z M178.8,109.2c-0.5-0.1-1,0.5-1.4,1.4
		c0,0,0,0,0,0c-0.1,0.3-0.3,0.6-0.4,0.9c-0.1,0.3-0.2,0.6-0.3,0.8c-0.1,0.2-0.1,0.3-0.2,0.4c-0.1,0.3-0.2,0.6-0.3,0.9c0,0,0,0,0,0
		c-0.1,0.2-0.1,0.4-0.2,0.7c0,0.2-0.1,0.4-0.1,0.7c0,0.2,0,0.3-0.1,0.5c0,0.3-0.1,0.5-0.1,0.8c0,0.4,0,0.8,0.1,1.1
		c0.2,0,0.4,0,0.5-0.1c0.1,0,0.1-0.1,0.2-0.1c0.1,0,0.1-0.1,0.2-0.1c0.1-0.1,0.2-0.2,0.3-0.3c0.1-0.1,0.2-0.2,0.3-0.3
		c0.1-0.1,0.2-0.2,0.3-0.3c0.4-0.4,1-0.9,1.3-1.5c0-0.1,0.1-0.2,0.1-0.3c0.1-0.2,0.1-0.5,0.2-0.8c0-0.3,0-0.6,0.1-0.9
		c0-0.3,0-0.5,0-0.7C179.3,110.9,179.4,109.4,178.8,109.2z M145.2,115.8L145.2,115.8c-0.1,0-0.2,0-0.3,0c-0.1,0-0.3,0-0.4,0
		c-0.2,0-0.3,0-0.4,0.1c-0.2,0-0.4,0.1-0.6,0.1c0,0,0,0,0,0c-1,0.2-1.8,0.6-1.8,1.5c0.1,0.2,0.3,0.3,0.5,0.4c0,0,0,0,0,0
		c0.5,0.2,1.2,0.2,1.8,0.2c0.1,0,0.2,0,0.3,0c0.1,0,0.2,0,0.3,0c0.1,0,0.3,0,0.4,0c0,0,0.1,0,0.1,0h0
		C145.2,117.2,145.2,116.6,145.2,115.8z M178.8,109.2c-0.5-0.1-1,0.5-1.4,1.4c0,0,0,0,0,0c-0.1,0.3-0.3,0.6-0.4,0.9
		c-0.1,0.3-0.2,0.6-0.3,0.8c-0.1,0.2-0.1,0.3-0.2,0.4c-0.1,0.3-0.2,0.6-0.3,0.9c0,0,0,0,0,0c-0.1,0.2-0.1,0.4-0.2,0.7
		c0,0.2-0.1,0.4-0.1,0.7c0,0.2,0,0.3-0.1,0.5c0,0.3-0.1,0.5-0.1,0.8c0,0.4,0,0.8,0.1,1.1c0.2,0,0.4,0,0.5-0.1c0.1,0,0.1-0.1,0.2-0.1
		c0.1,0,0.1-0.1,0.2-0.1c0.1-0.1,0.2-0.2,0.3-0.3c0.1-0.1,0.2-0.2,0.3-0.3c0.1-0.1,0.2-0.2,0.3-0.3c0.4-0.4,1-0.9,1.3-1.5
		c0-0.1,0.1-0.2,0.1-0.3c0.1-0.2,0.1-0.5,0.2-0.8c0-0.3,0-0.6,0.1-0.9c0-0.3,0-0.5,0-0.7C179.3,110.9,179.4,109.4,178.8,109.2z
		 M145.2,115.8L145.2,115.8c-0.1,0-0.2,0-0.3,0c-0.1,0-0.3,0-0.4,0c-0.2,0-0.3,0-0.4,0.1c-0.2,0-0.4,0.1-0.6,0.1c0,0,0,0,0,0
		c-1,0.2-1.8,0.6-1.8,1.5c0.1,0.2,0.3,0.3,0.5,0.4c0,0,0,0,0,0c0.5,0.2,1.2,0.2,1.8,0.2c0.1,0,0.2,0,0.3,0c0.1,0,0.2,0,0.3,0
		c0.1,0,0.3,0,0.4,0c0,0,0.1,0,0.1,0h0C145.2,117.2,145.2,116.6,145.2,115.8z M260.4,70.9c-0.2-3.5-1.6-6.4-3.5-8.4
		c-0.2-0.2-0.4-0.4-0.7-0.6c-0.2-0.2-0.5-0.4-0.7-0.6c-0.2-0.1-0.3-0.3-0.5-0.4c-0.2-0.1-0.3-0.2-0.5-0.3c-0.2-0.1-0.4-0.2-0.6-0.3
		c-0.5-0.3-1-0.4-1.5-0.6c-0.3-0.1-0.5-0.2-0.8-0.2c-1-0.2-2.1-0.3-3.3-0.2c-0.4,0-0.9,0.1-1.3,0.2c-0.4,0.1-0.8,0.2-1.2,0.3
		c-0.4,0.1-0.8,0.3-1.1,0.4c-0.4,0.2-0.7,0.3-1,0.5c-0.2,0.1-0.4,0.3-0.6,0.4c-0.4,0.3-0.8,0.6-1.1,0.9c-0.2,0.2-0.4,0.3-0.5,0.5
		c-0.5,0.5-1,1.2-1.4,1.8c-0.1,0.2-0.3,0.4-0.4,0.7c-0.1,0.2-0.2,0.4-0.3,0.6c-0.1,0.1-0.1,0.2-0.2,0.4c-0.1,0.2-0.2,0.4-0.2,0.6
		c-0.1,0.3-0.2,0.5-0.3,0.8c-0.1,0.3-0.2,0.5-0.2,0.8c-0.1,0.6-0.3,1.1-0.3,1.7c-0.1,0.9-0.1,1.9-0.1,2.9c0.1,2.1,0.6,3.9,1.3,5.4
		c0.1,0.2,0.2,0.3,0.2,0.5c0.1,0.2,0.2,0.3,0.3,0.5c0.2,0.3,0.3,0.6,0.6,0.9c0.3,0.4,0.6,0.8,1,1.3c0.8,0.9,1.9,1.7,3.2,2.3
		c0.4,0.2,0.9,0.3,1.3,0.5c0.6,0.2,1.3,0.3,1.9,0.4c0.7,0.1,1.4,0.1,2.2,0c0.2,0,0.4-0.1,0.7-0.1c0.4-0.1,0.8-0.1,1.2-0.2
		c0.2-0.1,0.4-0.1,0.6-0.2c0.3-0.1,0.6-0.2,0.8-0.3c0.2-0.1,0.4-0.2,0.6-0.3c0.4-0.2,0.8-0.4,1.2-0.7c0.1-0.1,0.3-0.2,0.4-0.3
		c0,0,0.1,0,0.1-0.1c0,0,0,0,0,0c0.2-0.1,0.3-0.3,0.5-0.4c0.1-0.1,0.3-0.2,0.4-0.4c0,0,0,0,0,0c0.2-0.2,0.4-0.4,0.6-0.6
		c0,0,0.1-0.1,0.1-0.1c0.1-0.1,0.1-0.2,0.2-0.2c0.1-0.2,0.3-0.3,0.4-0.5c0.5-0.6,0.9-1.3,1.3-2.1c0,0,0,0,0,0c0.1-0.3,0.3-0.6,0.4-1
		l0,0C260.2,75.3,260.6,73.2,260.4,70.9z M260.4,70.9c-0.2-3.5-1.6-6.4-3.5-8.4c-0.2-0.2-0.4-0.4-0.7-0.6c-0.2-0.2-0.5-0.4-0.7-0.6
		c-0.2-0.1-0.3-0.3-0.5-0.4c-0.2-0.1-0.3-0.2-0.5-0.3c-0.2-0.1-0.4-0.2-0.6-0.3c-0.5-0.3-1-0.4-1.5-0.6c-0.3-0.1-0.5-0.2-0.8-0.2
		c-1-0.2-2.1-0.3-3.3-0.2c-0.4,0-0.9,0.1-1.3,0.2c-0.4,0.1-0.8,0.2-1.2,0.3c-0.4,0.1-0.8,0.3-1.1,0.4c-0.4,0.2-0.7,0.3-1,0.5
		c-0.2,0.1-0.4,0.3-0.6,0.4c-0.4,0.3-0.8,0.6-1.1,0.9c-0.2,0.2-0.4,0.3-0.5,0.5c-0.5,0.5-1,1.2-1.4,1.8c-0.1,0.2-0.3,0.4-0.4,0.7
		c-0.1,0.2-0.2,0.4-0.3,0.6c-0.1,0.1-0.1,0.2-0.2,0.4c-0.1,0.2-0.2,0.4-0.2,0.6c-0.1,0.3-0.2,0.5-0.3,0.8c-0.1,0.3-0.2,0.5-0.2,0.8
		c-0.1,0.6-0.3,1.1-0.3,1.7c-0.1,0.9-0.1,1.9-0.1,2.9c0.1,2.1,0.6,3.9,1.3,5.4c0.1,0.2,0.2,0.3,0.2,0.5c0.1,0.2,0.2,0.3,0.3,0.5
		c0.2,0.3,0.3,0.6,0.6,0.9c0.3,0.4,0.6,0.8,1,1.3c0.8,0.9,1.9,1.7,3.2,2.3c0.4,0.2,0.9,0.3,1.3,0.5c0.6,0.2,1.3,0.3,1.9,0.4
		c0.7,0.1,1.4,0.1,2.2,0c0.2,0,0.4-0.1,0.7-0.1c0.4-0.1,0.8-0.1,1.2-0.2c0.2-0.1,0.4-0.1,0.6-0.2c0.3-0.1,0.6-0.2,0.8-0.3
		c0.2-0.1,0.4-0.2,0.6-0.3c0.4-0.2,0.8-0.4,1.2-0.7c0.1-0.1,0.3-0.2,0.4-0.3c0,0,0.1,0,0.1-0.1c0,0,0,0,0,0c0.2-0.1,0.3-0.3,0.5-0.4
		c0.1-0.1,0.3-0.2,0.4-0.4c0,0,0,0,0,0c0.2-0.2,0.4-0.4,0.6-0.6c0,0,0.1-0.1,0.1-0.1c0.1-0.1,0.1-0.2,0.2-0.2
		c0.1-0.2,0.3-0.3,0.4-0.5c0.5-0.6,0.9-1.3,1.3-2.1c0,0,0,0,0,0c0.1-0.3,0.3-0.6,0.4-1l0,0C260.2,75.3,260.6,73.2,260.4,70.9z
		 M178.8,109.2c-0.5-0.1-1,0.5-1.4,1.4c0,0,0,0,0,0c-0.1,0.3-0.3,0.6-0.4,0.9c-0.1,0.3-0.2,0.6-0.3,0.8c-0.1,0.2-0.1,0.3-0.2,0.4
		c-0.1,0.3-0.2,0.6-0.3,0.9c0,0,0,0,0,0c-0.1,0.2-0.1,0.4-0.2,0.7c0,0.2-0.1,0.4-0.1,0.7c0,0.2,0,0.3-0.1,0.5c0,0.3-0.1,0.5-0.1,0.8
		c0,0.4,0,0.8,0.1,1.1c0.2,0,0.4,0,0.5-0.1c0.1,0,0.1-0.1,0.2-0.1c0.1,0,0.1-0.1,0.2-0.1c0.1-0.1,0.2-0.2,0.3-0.3
		c0.1-0.1,0.2-0.2,0.3-0.3c0.1-0.1,0.2-0.2,0.3-0.3c0.4-0.4,1-0.9,1.3-1.5c0-0.1,0.1-0.2,0.1-0.3c0.1-0.2,0.1-0.5,0.2-0.8
		c0-0.3,0-0.6,0.1-0.9c0-0.3,0-0.5,0-0.7C179.3,110.9,179.4,109.4,178.8,109.2z M145.2,115.8L145.2,115.8c-0.1,0-0.2,0-0.3,0
		c-0.1,0-0.3,0-0.4,0c-0.2,0-0.3,0-0.4,0.1c-0.2,0-0.4,0.1-0.6,0.1c0,0,0,0,0,0c-1,0.2-1.8,0.6-1.8,1.5c0.1,0.2,0.3,0.3,0.5,0.4
		c0,0,0,0,0,0c0.5,0.2,1.2,0.2,1.8,0.2c0.1,0,0.2,0,0.3,0c0.1,0,0.2,0,0.3,0c0.1,0,0.3,0,0.4,0c0,0,0.1,0,0.1,0h0
		C145.2,117.2,145.2,116.6,145.2,115.8z M145.2,115.8L145.2,115.8c-0.1,0-0.2,0-0.3,0c-0.1,0-0.3,0-0.4,0c-0.2,0-0.3,0-0.4,0.1
		c-0.2,0-0.4,0.1-0.6,0.1c0,0,0,0,0,0c-1,0.2-1.8,0.6-1.8,1.5c0.1,0.2,0.3,0.3,0.5,0.4c0,0,0,0,0,0c0.5,0.2,1.2,0.2,1.8,0.2
		c0.1,0,0.2,0,0.3,0c0.1,0,0.2,0,0.3,0c0.1,0,0.3,0,0.4,0c0,0,0.1,0,0.1,0h0C145.2,117.2,145.2,116.6,145.2,115.8z M260.4,70.9
		c-0.2-3.5-1.6-6.4-3.5-8.4c-0.2-0.2-0.4-0.4-0.7-0.6c-0.2-0.2-0.5-0.4-0.7-0.6c-0.2-0.1-0.3-0.3-0.5-0.4c-0.2-0.1-0.3-0.2-0.5-0.3
		c-0.2-0.1-0.4-0.2-0.6-0.3c-0.5-0.3-1-0.4-1.5-0.6c-0.3-0.1-0.5-0.2-0.8-0.2c-1-0.2-2.1-0.3-3.3-0.2c-0.4,0-0.9,0.1-1.3,0.2
		c-0.4,0.1-0.8,0.2-1.2,0.3c-0.4,0.1-0.8,0.3-1.1,0.4c-0.4,0.2-0.7,0.3-1,0.5c-0.2,0.1-0.4,0.3-0.6,0.4c-0.4,0.3-0.8,0.6-1.1,0.9
		c-0.2,0.2-0.4,0.3-0.5,0.5c-0.5,0.5-1,1.2-1.4,1.8c-0.1,0.2-0.3,0.4-0.4,0.7c-0.1,0.2-0.2,0.4-0.3,0.6c-0.1,0.1-0.1,0.2-0.2,0.4
		c-0.1,0.2-0.2,0.4-0.2,0.6c-0.1,0.3-0.2,0.5-0.3,0.8c-0.1,0.3-0.2,0.5-0.2,0.8c-0.1,0.6-0.3,1.1-0.3,1.7c-0.1,0.9-0.1,1.9-0.1,2.9
		c0.1,2.1,0.6,3.9,1.3,5.4c0.1,0.2,0.2,0.3,0.2,0.5c0.1,0.2,0.2,0.3,0.3,0.5c0.2,0.3,0.3,0.6,0.6,0.9c0.3,0.4,0.6,0.8,1,1.3
		c0.8,0.9,1.9,1.7,3.2,2.3c0.4,0.2,0.9,0.3,1.3,0.5c0.6,0.2,1.3,0.3,1.9,0.4c0.7,0.1,1.4,0.1,2.2,0c0.2,0,0.4-0.1,0.7-0.1
		c0.4-0.1,0.8-0.1,1.2-0.2c0.2-0.1,0.4-0.1,0.6-0.2c0.3-0.1,0.6-0.2,0.8-0.3c0.2-0.1,0.4-0.2,0.6-0.3c0.4-0.2,0.8-0.4,1.2-0.7
		c0.1-0.1,0.3-0.2,0.4-0.3c0,0,0.1,0,0.1-0.1c0,0,0,0,0,0c0.2-0.1,0.3-0.3,0.5-0.4c0.1-0.1,0.3-0.2,0.4-0.4c0,0,0,0,0,0
		c0.2-0.2,0.4-0.4,0.6-0.6c0,0,0.1-0.1,0.1-0.1c0.1-0.1,0.1-0.2,0.2-0.2c0.1-0.2,0.3-0.3,0.4-0.5c0.5-0.6,0.9-1.3,1.3-2.1
		c0,0,0,0,0,0c0.1-0.3,0.3-0.6,0.4-1l0,0C260.2,75.3,260.6,73.2,260.4,70.9z M260.4,70.9c-0.2-3.5-1.6-6.4-3.5-8.4
		c-0.2-0.2-0.4-0.4-0.7-0.6c-0.2-0.2-0.5-0.4-0.7-0.6c-0.2-0.1-0.3-0.3-0.5-0.4c-0.2-0.1-0.3-0.2-0.5-0.3c-0.2-0.1-0.4-0.2-0.6-0.3
		c-0.5-0.3-1-0.4-1.5-0.6c-0.3-0.1-0.5-0.2-0.8-0.2c-1-0.2-2.1-0.3-3.3-0.2c-0.4,0-0.9,0.1-1.3,0.2c-0.4,0.1-0.8,0.2-1.2,0.3
		c-0.4,0.1-0.8,0.3-1.1,0.4c-0.4,0.2-0.7,0.3-1,0.5c-0.2,0.1-0.4,0.3-0.6,0.4c-0.4,0.3-0.8,0.6-1.1,0.9c-0.2,0.2-0.4,0.3-0.5,0.5
		c-0.5,0.5-1,1.2-1.4,1.8c-0.1,0.2-0.3,0.4-0.4,0.7c-0.1,0.2-0.2,0.4-0.3,0.6c-0.1,0.1-0.1,0.2-0.2,0.4c-0.1,0.2-0.2,0.4-0.2,0.6
		c-0.1,0.3-0.2,0.5-0.3,0.8c-0.1,0.3-0.2,0.5-0.2,0.8c-0.1,0.6-0.3,1.1-0.3,1.7c-0.1,0.9-0.1,1.9-0.1,2.9c0.1,2.1,0.6,3.9,1.3,5.4
		c0.1,0.2,0.2,0.3,0.2,0.5c0.1,0.2,0.2,0.3,0.3,0.5c0.2,0.3,0.3,0.6,0.6,0.9c0.3,0.4,0.6,0.8,1,1.3c0.8,0.9,1.9,1.7,3.2,2.3
		c0.4,0.2,0.9,0.3,1.3,0.5c0.6,0.2,1.3,0.3,1.9,0.4c0.7,0.1,1.4,0.1,2.2,0c0.2,0,0.4-0.1,0.7-0.1c0.4-0.1,0.8-0.1,1.2-0.2
		c0.2-0.1,0.4-0.1,0.6-0.2c0.3-0.1,0.6-0.2,0.8-0.3c0.2-0.1,0.4-0.2,0.6-0.3c0.4-0.2,0.8-0.4,1.2-0.7c0.1-0.1,0.3-0.2,0.4-0.3
		c0,0,0.1,0,0.1-0.1c0,0,0,0,0,0c0.2-0.1,0.3-0.3,0.5-0.4c0.1-0.1,0.3-0.2,0.4-0.4c0,0,0,0,0,0c0.2-0.2,0.4-0.4,0.6-0.6
		c0,0,0.1-0.1,0.1-0.1c0.1-0.1,0.1-0.2,0.2-0.2c0.1-0.2,0.3-0.3,0.4-0.5c0.5-0.6,0.9-1.3,1.3-2.1c0,0,0,0,0,0c0.1-0.3,0.3-0.6,0.4-1
		l0,0C260.2,75.3,260.6,73.2,260.4,70.9z M145.2,115.8L145.2,115.8c-0.1,0-0.2,0-0.3,0c-0.1,0-0.3,0-0.4,0c-0.2,0-0.3,0-0.4,0.1
		c-0.2,0-0.4,0.1-0.6,0.1c0,0,0,0,0,0c-1,0.2-1.8,0.6-1.8,1.5c0.1,0.2,0.3,0.3,0.5,0.4c0,0,0,0,0,0c0.5,0.2,1.2,0.2,1.8,0.2
		c0.1,0,0.2,0,0.3,0c0.1,0,0.2,0,0.3,0c0.1,0,0.3,0,0.4,0c0,0,0.1,0,0.1,0h0C145.2,117.2,145.2,116.6,145.2,115.8z M260.4,70.9
		c-0.2-3.5-1.6-6.4-3.5-8.4c-0.2-0.2-0.4-0.4-0.7-0.6c-0.2-0.2-0.5-0.4-0.7-0.6c-0.2-0.1-0.3-0.3-0.5-0.4c-0.2-0.1-0.3-0.2-0.5-0.3
		c-0.2-0.1-0.4-0.2-0.6-0.3c-0.5-0.3-1-0.4-1.5-0.6c-0.3-0.1-0.5-0.2-0.8-0.2c-1-0.2-2.1-0.3-3.3-0.2c-0.4,0-0.9,0.1-1.3,0.2
		c-0.4,0.1-0.8,0.2-1.2,0.3c-0.4,0.1-0.8,0.3-1.1,0.4c-0.4,0.2-0.7,0.3-1,0.5c-0.2,0.1-0.4,0.3-0.6,0.4c-0.4,0.3-0.8,0.6-1.1,0.9
		c-0.2,0.2-0.4,0.3-0.5,0.5c-0.5,0.5-1,1.2-1.4,1.8c-0.1,0.2-0.3,0.4-0.4,0.7c-0.1,0.2-0.2,0.4-0.3,0.6c-0.1,0.1-0.1,0.2-0.2,0.4
		c-0.1,0.2-0.2,0.4-0.2,0.6c-0.1,0.3-0.2,0.5-0.3,0.8c-0.1,0.3-0.2,0.5-0.2,0.8c-0.1,0.6-0.3,1.1-0.3,1.7c-0.1,0.9-0.1,1.9-0.1,2.9
		c0.1,2.1,0.6,3.9,1.3,5.4c0.1,0.2,0.2,0.3,0.2,0.5c0.1,0.2,0.2,0.3,0.3,0.5c0.2,0.3,0.3,0.6,0.6,0.9c0.3,0.4,0.6,0.8,1,1.3
		c0.8,0.9,1.9,1.7,3.2,2.3c0.4,0.2,0.9,0.3,1.3,0.5c0.6,0.2,1.3,0.3,1.9,0.4c0.7,0.1,1.4,0.1,2.2,0c0.2,0,0.4-0.1,0.7-0.1
		c0.4-0.1,0.8-0.1,1.2-0.2c0.2-0.1,0.4-0.1,0.6-0.2c0.3-0.1,0.6-0.2,0.8-0.3c0.2-0.1,0.4-0.2,0.6-0.3c0.4-0.2,0.8-0.4,1.2-0.7
		c0.1-0.1,0.3-0.2,0.4-0.3c0,0,0.1,0,0.1-0.1c0,0,0,0,0,0c0.2-0.1,0.3-0.3,0.5-0.4c0.1-0.1,0.3-0.2,0.4-0.4c0,0,0,0,0,0
		c0.2-0.2,0.4-0.4,0.6-0.6c0,0,0.1-0.1,0.1-0.1c0.1-0.1,0.1-0.2,0.2-0.2c0.1-0.2,0.3-0.3,0.4-0.5c0.5-0.6,0.9-1.3,1.3-2.1
		c0,0,0,0,0,0c0.1-0.3,0.3-0.6,0.4-1l0,0C260.2,75.3,260.6,73.2,260.4,70.9z M260.4,70.9c-0.2-3.5-1.6-6.4-3.5-8.4
		c-0.2-0.2-0.4-0.4-0.7-0.6c-0.2-0.2-0.5-0.4-0.7-0.6c-0.2-0.1-0.3-0.3-0.5-0.4c-0.2-0.1-0.3-0.2-0.5-0.3c-0.2-0.1-0.4-0.2-0.6-0.3
		c-0.5-0.3-1-0.4-1.5-0.6c-0.3-0.1-0.5-0.2-0.8-0.2c-1-0.2-2.1-0.3-3.3-0.2c-0.4,0-0.9,0.1-1.3,0.2c-0.4,0.1-0.8,0.2-1.2,0.3
		c-0.4,0.1-0.8,0.3-1.1,0.4c-0.4,0.2-0.7,0.3-1,0.5c-0.2,0.1-0.4,0.3-0.6,0.4c-0.4,0.3-0.8,0.6-1.1,0.9c-0.2,0.2-0.4,0.3-0.5,0.5
		c-0.5,0.5-1,1.2-1.4,1.8c-0.1,0.2-0.3,0.4-0.4,0.7c-0.1,0.2-0.2,0.4-0.3,0.6c-0.1,0.1-0.1,0.2-0.2,0.4c-0.1,0.2-0.2,0.4-0.2,0.6
		c-0.1,0.3-0.2,0.5-0.3,0.8c-0.1,0.3-0.2,0.5-0.2,0.8c-0.1,0.6-0.3,1.1-0.3,1.7c-0.1,0.9-0.1,1.9-0.1,2.9c0.1,2.1,0.6,3.9,1.3,5.4
		c0.1,0.2,0.2,0.3,0.2,0.5c0.1,0.2,0.2,0.3,0.3,0.5c0.2,0.3,0.3,0.6,0.6,0.9c0.3,0.4,0.6,0.8,1,1.3c0.8,0.9,1.9,1.7,3.2,2.3
		c0.4,0.2,0.9,0.3,1.3,0.5c0.6,0.2,1.3,0.3,1.9,0.4c0.7,0.1,1.4,0.1,2.2,0c0.2,0,0.4-0.1,0.7-0.1c0.4-0.1,0.8-0.1,1.2-0.2
		c0.2-0.1,0.4-0.1,0.6-0.2c0.3-0.1,0.6-0.2,0.8-0.3c0.2-0.1,0.4-0.2,0.6-0.3c0.4-0.2,0.8-0.4,1.2-0.7c0.1-0.1,0.3-0.2,0.4-0.3
		c0,0,0.1,0,0.1-0.1c0,0,0,0,0,0c0.2-0.1,0.3-0.3,0.5-0.4c0.1-0.1,0.3-0.2,0.4-0.4c0,0,0,0,0,0c0.2-0.2,0.4-0.4,0.6-0.6
		c0,0,0.1-0.1,0.1-0.1c0.1-0.1,0.1-0.2,0.2-0.2c0.1-0.2,0.3-0.3,0.4-0.5c0.5-0.6,0.9-1.3,1.3-2.1c0,0,0,0,0,0c0.1-0.3,0.3-0.6,0.4-1
		l0,0C260.2,75.3,260.6,73.2,260.4,70.9z M260.4,70.9c-0.2-3.5-1.6-6.4-3.5-8.4c-0.2-0.2-0.4-0.4-0.7-0.6c-0.2-0.2-0.5-0.4-0.7-0.6
		c-0.2-0.1-0.3-0.3-0.5-0.4c-0.2-0.1-0.3-0.2-0.5-0.3c-0.2-0.1-0.4-0.2-0.6-0.3c-0.5-0.3-1-0.4-1.5-0.6c-0.3-0.1-0.5-0.2-0.8-0.2
		c-1-0.2-2.1-0.3-3.3-0.2c-0.4,0-0.9,0.1-1.3,0.2c-0.4,0.1-0.8,0.2-1.2,0.3c-0.4,0.1-0.8,0.3-1.1,0.4c-0.4,0.2-0.7,0.3-1,0.5
		c-0.2,0.1-0.4,0.3-0.6,0.4c-0.4,0.3-0.8,0.6-1.1,0.9c-0.2,0.2-0.4,0.3-0.5,0.5c-0.5,0.5-1,1.2-1.4,1.8c-0.1,0.2-0.3,0.4-0.4,0.7
		c-0.1,0.2-0.2,0.4-0.3,0.6c-0.1,0.1-0.1,0.2-0.2,0.4c-0.1,0.2-0.2,0.4-0.2,0.6c-0.1,0.3-0.2,0.5-0.3,0.8c-0.1,0.3-0.2,0.5-0.2,0.8
		c-0.1,0.6-0.3,1.1-0.3,1.7c-0.1,0.9-0.1,1.9-0.1,2.9c0.1,2.1,0.6,3.9,1.3,5.4c0.1,0.2,0.2,0.3,0.2,0.5c0.1,0.2,0.2,0.3,0.3,0.5
		c0.2,0.3,0.3,0.6,0.6,0.9c0.3,0.4,0.6,0.8,1,1.3c0.8,0.9,1.9,1.7,3.2,2.3c0.4,0.2,0.9,0.3,1.3,0.5c0.6,0.2,1.3,0.3,1.9,0.4
		c0.7,0.1,1.4,0.1,2.2,0c0.2,0,0.4-0.1,0.7-0.1c0.4-0.1,0.8-0.1,1.2-0.2c0.2-0.1,0.4-0.1,0.6-0.2c0.3-0.1,0.6-0.2,0.8-0.3
		c0.2-0.1,0.4-0.2,0.6-0.3c0.4-0.2,0.8-0.4,1.2-0.7c0.1-0.1,0.3-0.2,0.4-0.3c0,0,0.1,0,0.1-0.1c0,0,0,0,0,0c0.2-0.1,0.3-0.3,0.5-0.4
		c0.1-0.1,0.3-0.2,0.4-0.4c0,0,0,0,0,0c0.2-0.2,0.4-0.4,0.6-0.6c0,0,0.1-0.1,0.1-0.1c0.1-0.1,0.1-0.2,0.2-0.2
		c0.1-0.2,0.3-0.3,0.4-0.5c0.5-0.6,0.9-1.3,1.3-2.1c0,0,0,0,0,0c0.1-0.3,0.3-0.6,0.4-1l0,0C260.2,75.3,260.6,73.2,260.4,70.9z
		 M260.4,70.9c-0.2-3.5-1.6-6.4-3.5-8.4c-0.2-0.2-0.4-0.4-0.7-0.6c-0.2-0.2-0.5-0.4-0.7-0.6c-0.2-0.1-0.3-0.3-0.5-0.4
		c-0.2-0.1-0.3-0.2-0.5-0.3c-0.2-0.1-0.4-0.2-0.6-0.3c-0.5-0.3-1-0.4-1.5-0.6c-0.3-0.1-0.5-0.2-0.8-0.2c-1-0.2-2.1-0.3-3.3-0.2
		c-0.4,0-0.9,0.1-1.3,0.2c-0.4,0.1-0.8,0.2-1.2,0.3c-0.4,0.1-0.8,0.3-1.1,0.4c-0.4,0.2-0.7,0.3-1,0.5c-0.2,0.1-0.4,0.3-0.6,0.4
		c-0.4,0.3-0.8,0.6-1.1,0.9c-0.2,0.2-0.4,0.3-0.5,0.5c-0.5,0.5-1,1.2-1.4,1.8c-0.1,0.2-0.3,0.4-0.4,0.7c-0.1,0.2-0.2,0.4-0.3,0.6
		c-0.1,0.1-0.1,0.2-0.2,0.4c-0.1,0.2-0.2,0.4-0.2,0.6c-0.1,0.3-0.2,0.5-0.3,0.8c-0.1,0.3-0.2,0.5-0.2,0.8c-0.1,0.6-0.3,1.1-0.3,1.7
		c-0.1,0.9-0.1,1.9-0.1,2.9c0.1,2.1,0.6,3.9,1.3,5.4c0.1,0.2,0.2,0.3,0.2,0.5c0.1,0.2,0.2,0.3,0.3,0.5c0.2,0.3,0.3,0.6,0.6,0.9
		c0.3,0.4,0.6,0.8,1,1.3c0.8,0.9,1.9,1.7,3.2,2.3c0.4,0.2,0.9,0.3,1.3,0.5c0.6,0.2,1.3,0.3,1.9,0.4c0.7,0.1,1.4,0.1,2.2,0
		c0.2,0,0.4-0.1,0.7-0.1c0.4-0.1,0.8-0.1,1.2-0.2c0.2-0.1,0.4-0.1,0.6-0.2c0.3-0.1,0.6-0.2,0.8-0.3c0.2-0.1,0.4-0.2,0.6-0.3
		c0.4-0.2,0.8-0.4,1.2-0.7c0.1-0.1,0.3-0.2,0.4-0.3c0,0,0.1,0,0.1-0.1c0,0,0,0,0,0c0.2-0.1,0.3-0.3,0.5-0.4c0.1-0.1,0.3-0.2,0.4-0.4
		c0,0,0,0,0,0c0.2-0.2,0.4-0.4,0.6-0.6c0,0,0.1-0.1,0.1-0.1c0.1-0.1,0.1-0.2,0.2-0.2c0.1-0.2,0.3-0.3,0.4-0.5
		c0.5-0.6,0.9-1.3,1.3-2.1c0,0,0,0,0,0c0.1-0.3,0.3-0.6,0.4-1l0,0C260.2,75.3,260.6,73.2,260.4,70.9z"/>
	<path class="st1" d="M121.2,36.5V182h162.3V36.5H121.2z M281.3,179.9H123.4V38.5h157.9V179.9z"/>
	<g>
		<path class="st1" d="M179.3,111.8c0,0.2,0,0.5,0,0.7c0,0.3,0,0.6-0.1,0.9c0,0.3-0.1,0.6-0.2,0.8c0,0.1-0.1,0.2-0.1,0.3
			c-0.3,0.6-0.9,1.1-1.3,1.5c-0.1,0.1-0.2,0.2-0.3,0.3c-0.1,0.1-0.2,0.2-0.3,0.3c-0.1,0.1-0.2,0.2-0.3,0.3c0,0-0.1,0.1-0.2,0.1
			c-0.1,0-0.1,0.1-0.2,0.1c-0.1,0.1-0.3,0.1-0.5,0.1c-0.1-0.3-0.1-0.7-0.1-1.1c0-0.3,0-0.5,0.1-0.8c0-0.2,0-0.3,0.1-0.5
			c0-0.2,0.1-0.4,0.1-0.7c0.1-0.2,0.1-0.4,0.2-0.7c0,0,0,0,0,0c0.1-0.3,0.2-0.6,0.3-0.9c0-0.1,0.1-0.3,0.2-0.4
			c0.1-0.2,0.2-0.5,0.3-0.8c0.1-0.3,0.3-0.6,0.4-0.9c0,0,0,0,0,0c0.4-0.8,0.9-1.5,1.4-1.4C179.4,109.4,179.3,110.9,179.3,111.8z"/>
		<path class="st1" d="M240.8,117.9c-0.2,0-0.4,0-0.6,0.1c-0.2,0-0.3,0-0.5,0.1c-0.4,0-0.8,0.1-1.1,0c-0.1,0-0.2,0-0.3,0
			c-0.1,0-0.2,0-0.3,0c0,0,0,0,0,0c-0.2,0-0.3-0.1-0.4-0.2c-0.1,0-0.1-0.1-0.2-0.1c-0.1-0.1-0.2-0.3-0.1-0.5c0-0.1,0-0.1,0-0.1
			c0,0,0-0.1,0.1-0.1v0c0-0.1,0.1-0.2,0.2-0.3c0.1-0.1,0.1-0.1,0.2-0.1c0.1,0,0.1-0.1,0.2-0.1c0.1-0.1,0.3-0.1,0.5-0.2
			c0.8-0.2,1.7-0.3,2.4-0.4C240.8,116.5,240.9,117.2,240.8,117.9z"/>
		<path class="st1" d="M259.5,77.1L259.5,77.1c-0.1,0.4-0.3,0.7-0.4,1c0,0,0,0,0,0c-0.4,0.8-0.8,1.5-1.3,2.1
			c-1.1,1.5-2.6,2.7-4.5,3.5c-0.3,0.1-0.5,0.2-0.8,0.3c-0.2,0.1-0.4,0.1-0.6,0.2c-0.4,0.1-0.8,0.2-1.2,0.2c-0.2,0-0.4,0-0.7,0.1
			c-0.8,0.1-1.5,0-2.2,0c-2.7-0.3-5-1.5-6.5-3.1c-0.4-0.4-0.7-0.8-1-1.3c-0.2-0.3-0.4-0.6-0.6-0.9c-0.1-0.2-0.2-0.3-0.3-0.5
			c-0.1-0.2-0.2-0.3-0.2-0.5c-0.7-1.5-1.1-3.3-1.3-5.4c-0.1-1.7,0-3.2,0.4-4.6c0.1-0.3,0.1-0.6,0.2-0.8c0.1-0.3,0.2-0.5,0.3-0.8
			c0.1-0.2,0.2-0.4,0.2-0.6c0.1-0.1,0.1-0.2,0.2-0.4c0.1-0.2,0.2-0.4,0.3-0.6c0.1-0.2,0.3-0.5,0.4-0.7c0.4-0.7,0.9-1.3,1.4-1.8
			c0.2-0.2,0.3-0.4,0.5-0.5c0.4-0.3,0.7-0.7,1.1-0.9c0.2-0.1,0.4-0.3,0.6-0.4c0.3-0.2,0.6-0.4,1-0.5c0.3-0.2,0.7-0.3,1.1-0.4
			c0.4-0.1,0.8-0.2,1.2-0.3c0.4-0.1,0.9-0.1,1.3-0.2c1.2-0.1,2.3,0,3.3,0.2c0.3,0.1,0.5,0.1,0.8,0.2c0.5,0.2,1,0.4,1.5,0.6
			c1.2,0.6,2.2,1.4,3,2.3c1.9,2,3.3,4.9,3.5,8.4C260.6,73.2,260.2,75.3,259.5,77.1z"/>
		<path class="st1" d="M145.1,117.9c0,0-0.1,0-0.1,0c-0.1,0-0.3,0-0.4,0c-0.1,0-0.2,0-0.3,0c-0.1,0-0.2,0-0.3,0
			c-0.7,0.1-1.4,0.1-1.8-0.2c0,0,0,0,0,0c-0.2-0.1-0.3-0.2-0.5-0.4c-0.1-0.9,0.8-1.3,1.8-1.5c0,0,0,0,0,0c0.2,0,0.4-0.1,0.6-0.1
			c0.2,0,0.3,0,0.4-0.1c0.2,0,0.3,0,0.4,0c0.1,0,0.2,0,0.3,0C145.2,116.6,145.2,117.2,145.1,117.9z"/>
		<path class="st1" d="M201.7,117.9c-0.6,0.1-1.4,0.2-2.2,0.2c-0.1,0-0.2,0-0.2,0h-0.1c0,0,0,0,0,0h-0.1c-0.1,0-0.1,0-0.2,0h0
			c0,0,0,0,0,0c0,0,0,0,0,0c0,0-0.1,0-0.1,0c-0.1,0-0.1,0-0.2-0.1c-0.1,0-0.1-0.1-0.2-0.1c0,0-0.1-0.1-0.1-0.1
			c-0.1-0.1-0.2-0.2-0.2-0.3c0-0.1,0-0.2,0-0.3c0-0.1,0.1-0.2,0.2-0.3c0,0,0.1-0.1,0.1-0.1c0,0,0.1-0.1,0.2-0.1
			c0.1-0.1,0.2-0.1,0.4-0.2c0.3-0.1,0.6-0.2,0.9-0.3c0,0,0.1,0,0.1,0c0.2,0,0.4-0.1,0.6-0.1c0.4-0.1,0.8-0.1,1.1-0.1
			C201.8,116.4,201.8,117.3,201.7,117.9z"/>
		<path class="st1" d="M260.4,70.9c-0.2-3.5-1.6-6.4-3.5-8.4c-0.2-0.2-0.4-0.4-0.7-0.6c-0.2-0.2-0.5-0.4-0.7-0.6
			c0.5,0.4,0.9,0.8,1.3,1.2C258.8,64.5,260.2,67.3,260.4,70.9c0.1,2.3-0.2,4.4-0.9,6.2C260.2,75.3,260.6,73.2,260.4,70.9z
			 M257.8,80.2c-0.7,0.8-1.4,1.6-2.3,2.3c0,0,0.1,0,0.1-0.1c0,0,0,0,0,0c0.2-0.1,0.3-0.3,0.5-0.4c0.1-0.1,0.3-0.2,0.4-0.4
			c0,0,0,0,0,0c0.2-0.2,0.4-0.4,0.6-0.6c0,0,0.1-0.1,0.1-0.1c0.1-0.1,0.1-0.2,0.2-0.2C257.6,80.5,257.7,80.3,257.8,80.2
			c0.5-0.6,0.9-1.3,1.3-2.1C258.7,78.8,258.3,79.5,257.8,80.2z M252.5,59.6c0.5,0.2,1,0.4,1.5,0.6C253.5,60,253,59.8,252.5,59.6z"/>
		<path class="st1" d="M199.1,116.3c0.3-0.1,0.6-0.2,0.9-0.3C199.7,116.1,199.4,116.2,199.1,116.3z M199,118
			C199,118,199,118,199,118C199,118,199,118,199,118C199,118,199,118,199,118z M199.3,118.1c-0.1,0-0.2,0-0.2,0
			C199.1,118,199.1,118,199.3,118.1C199.2,118.1,199.2,118.1,199.3,118.1L199.3,118.1C199.3,118.1,199.3,118.1,199.3,118.1z
			 M199.3,118.1c0.1,0,0.1,0,0.2,0c0.7,0.1,1.6-0.1,2.2-0.2C201.1,118,200.1,118.1,199.3,118.1z M201.8,115.8c0.1,0.7,0.1,1.5,0,2.1
			C201.8,117.3,201.8,116.4,201.8,115.8z"/>
		<path class="st1" d="M141.6,117.5c-0.1-0.9,0.8-1.3,1.8-1.5C142.4,116.2,141.6,116.6,141.6,117.5c0.1,0.2,0.2,0.3,0.4,0.4
			C141.9,117.8,141.7,117.7,141.6,117.5z"/>
	</g>
</g>
</svg>
