<?xml version="1.0" encoding="utf-8"?>
<!-- Generator: Adobe Illustrator 22.0.0, SVG Export Plug-In . SVG Version: 6.00 Build 0)  -->
<svg version="1.1" id="Layer_1" xmlns="http://www.w3.org/2000/svg" xmlns:xlink="http://www.w3.org/1999/xlink" x="0px" y="0px"
	 viewBox="0 0 404.7 218.4" style="enable-background:new 0 0 404.7 218.4;" xml:space="preserve">
<style type="text/css">
	.st0{fill:url(#SVGID_1_);}
	.st1{display:none;}
	.st2{display:inline;fill:#A8A9AC;}
	.st3{fill:#A8A9AC;}
</style>
<g>
	<linearGradient id="SVGID_1_" gradientUnits="userSpaceOnUse" x1="-0.3574" y1="108.3379" x2="404.3906" y2="108.3379">
		<stop  offset="0" style="stop-color:#393939"/>
		<stop  offset="0.739" style="stop-color:#101010"/>
	</linearGradient>
	<rect x="-0.4" y="-1.1" class="st0" width="404.7" height="218.8"/>
	<g>
		<g id="layer101_3_" class="st1">
			<path class="st2" d="M263.5,132.6c-0.2-0.9-0.5-2.6-0.8-4.6c-0.1-0.8-0.3-1.9-0.4-2.5c-0.1-0.6-0.2-1.3-0.2-1.5
				c0-0.6-0.2-0.6-0.9,0c-1.1,1-1.4,1.3-1.6,1.3c-0.1,0-0.1,0-0.1,0.1c0,0.3-3.6,2.4-5.2,3.1c-0.2,0.1-0.6,0.2-0.8,0.3
				c-1.4,0.6-4.1,1.3-6,1.6c-0.5,0.1-2,0.2-3.4,0.2c-3.3,0.1-6.2-0.2-9.1-0.9c-2.3-0.6-2.6-0.7-3-0.9c-0.2-0.1-0.6-0.2-0.7-0.2
				c-0.1,0-0.4-0.1-0.7-0.2c-0.2-0.1-0.8-0.3-1.1-0.4c-0.4-0.1-1-0.4-1.5-0.7l-0.9-0.4l-1.1,0.8c-1.4,1-2.3,1.6-3.3,2
				c-0.4,0.2-0.8,0.4-0.9,0.5c-0.1,0.1-0.3,0.1-0.4,0.1c-0.2,0-0.4,0-0.4,0.1c-0.1,0.1-0.5,0.2-1.1,0.4c-3.8,1-8.3,0.8-11.3-0.4
				c-0.9-0.4-1.6-0.7-1.6-0.8c0-0.1-0.3-0.2-0.6-0.4c-0.3-0.1-0.7-0.5-0.9-0.7l-0.4-0.4l-0.9,0.7c-0.5,0.4-1,0.7-1.1,0.8
				c-0.1,0-0.8,0.4-1.5,0.8c-1.3,0.7-3.2,1.2-3.8,1c-0.1,0-0.7-0.1-1.3-0.2c-0.6-0.1-1.4-0.4-1.9-0.6l-0.9-0.4l0-3l0-3l1.1,0.1
				l1.1,0.1v-1.5c0-1.3,0-1.4,0.2-1.3c0.1,0.1,0.6,0.1,1,0.2c0.9,0.1,0.9,0,0.5-1c-0.3-0.7-0.8-1.3-1.6-1.9l-0.6-0.5h-9.7h-9.7
				l-0.1,0.4c0,0.2-0.1,0.9-0.1,1.4c0,1,0,1.1,0.5,1.5c0.4,0.4,0.7,0.5,1.3,0.6c0.9,0.1,2.7-0.1,3.4-0.3c0.8-0.3,0.8-0.4,0.8,3.2
				v3.3l-1,0.3c-0.5,0.2-1.2,0.3-1.4,0.3h-0.5v0.8v0.8l-0.7,0.2c-2.3,0.6-5.2,0.8-6.6,0.4c-0.9-0.2-2.4-1-3.3-1.6
				c-0.4-0.3-0.8-0.6-0.9-0.6c-0.1-0.1-0.6,0.1-1.3,0.4c-1.1,0.5-1.6,0.7-2.5,1.1c-2.8,1.1-5.3,1.3-8,0.3c-0.7-0.2-2.9-1.3-3.7-1.8
				c-0.5-0.3-0.5-0.3-1.7,0.5c-1.7,1.1-4.2,1.9-5.8,1.9c-0.9,0-4.2-0.4-4.4-0.5c-0.1,0-0.1-1.4-0.1-3.1v-3.1l1.2,0.1l1.2,0.1v-1.4
				v-1.4l0.8,0.1l0.8,0.1l-0.2-1.3c-0.1-0.7-0.4-2.1-0.7-3.2c-0.3-1.1-0.6-2.3-0.6-2.6c-0.1-0.3-0.2-0.7-0.2-0.9
				c-0.1-0.2-0.2-0.8-0.4-1.3c-0.1-0.5-0.3-1.2-0.4-1.6c-0.1-0.4-0.3-1.1-0.4-1.6c-0.1-0.5-0.3-1.1-0.4-1.2c0-0.1-0.2-0.6-0.3-1.1
				c-0.1-0.4-0.2-0.9-0.3-1c-0.2-0.3-0.2-0.2-0.7,1.1c-0.1,0.4-0.3,0.8-0.4,1.1c-0.1,0.2-0.3,0.7-0.4,1.1c-0.1,0.4-0.3,0.8-0.4,1.1
				c-0.1,0.2-0.4,1-0.7,1.7c-0.3,0.7-0.6,1.4-0.6,1.6c-0.1,0.1-0.3,0.8-0.6,1.4c-0.2,0.6-0.5,1.3-0.6,1.4c0,0.1-0.2,0.6-0.4,1.1
				c-0.4,1.1-0.5,1.3-0.8,2c-0.1,0.4-0.4,0.9-0.5,1.3c-0.1,0.4-0.3,0.8-0.4,1.1c-0.1,0.2-0.3,0.7-0.4,1.1c-0.1,0.4-0.3,0.8-0.4,1.1
				c-0.1,0.2-0.3,0.7-0.4,1.1c-0.1,0.4-0.4,0.9-0.5,1.3c-0.4,0.9-0.5,1.2-0.6,1.5c0,0.2-0.2,0.2-1.1,0.2c-0.8,0-1,0-1,0.2
				c0,0.2-0.2,0.7-0.6,1.6l-0.1,0.3h-4h-4l-0.2-0.5c-0.1-0.3-0.3-0.7-0.3-0.8c-0.1-0.1-0.4-1-0.8-1.9c-0.4-0.9-0.7-1.8-0.9-2.1
				c-0.1-0.2-0.4-1-0.7-1.7c-0.3-0.7-0.6-1.4-0.7-1.6c-0.1-0.2-0.2-0.5-0.3-0.6c-0.5-1.3-1.2-3-1.4-3.5c-0.1-0.4-0.3-0.8-0.4-0.9
				c-0.5-1.2-1.5-3.6-1.6-4c-0.1-0.2-0.4-1-0.7-1.7c-0.3-0.7-0.6-1.4-0.7-1.6c-0.1-0.3-0.4-1-0.9-2.3c-0.2-0.6-0.4-0.9-0.5-0.7
				c0,0.1-0.1,0.6-0.2,1c-0.1,0.4-0.3,1.1-0.4,1.6c-0.7,2.5-1,3.7-1.3,4.7c-0.1,0.4-0.3,1.2-0.4,1.7c-0.1,0.5-0.3,1.2-0.4,1.7
				c-0.7,2.8-0.8,4.3-0.3,4.8c0.4,0.4,1.5,0.7,2.5,0.6c0.4-0.1,1.1-0.1,1.5-0.2l0.7-0.1v3v3l-0.6,0.2c-0.3,0.1-0.7,0.2-0.9,0.2
				c-0.2,0-0.6,0.1-0.9,0.1c-0.5,0.2-0.5,0.2-0.5,0.9c0,0.9,0.1,0.8-1.7,1.2c-2,0.4-3.7,0.2-5.2-0.4c-0.7-0.3-2-1.1-2.5-1.6
				l-0.5-0.4l-0.9,0.6c-0.5,0.3-1,0.6-1.1,0.6c-0.1,0-0.1,0-0.1,0.1c0,0.2-1.8,1-3,1.2c-1.4,0.4-4,0.2-5.2-0.4l-0.4-0.2v-2.9
				c0-1.6,0-2.9,0-2.9c0,0,0.2,0,0.5,0.1c0.2,0.1,0.7,0.2,1,0.2l0.6,0.1v-1.5v-1.5l0.4,0.1c1.6,0.3,3,0.5,3.3,0.5
				c0.3,0,0.3,0,0.8-1.4c0.4-1.2,1.2-4.2,1.7-6.4c0.2-1.1,0.5-2,0.8-3.4c0.1-0.4,0.2-1,0.3-1.3c0.1-0.6,0.4-1.8,0.7-3.1
				c0.5-1.9,0.6-2.4,0.8-3.4c0.1-0.6,0.3-1.4,0.4-1.9c0.3-1.2,0.6-2.6,0.9-3.9c0.2-1,0.2-1.2,0-2c-0.3-1.2-0.9-1.7-2.1-1.9
				c-0.5-0.1-1-0.1-1.1-0.1c-0.1,0-0.4,0.1-0.6,0.1l-0.4,0.1l0-2.8l0-2.8l0.6-0.3c0.3-0.2,0.8-0.4,1.1-0.5c0.5-0.1,0.5-0.1,0.5-0.9
				c0-0.8,0-0.7,1.1-1.3c1.5-0.7,2.1-0.9,4.3-0.9c2.2,0,2.6,0.1,4.2,0.7c1.1,0.5,2.9,1.4,3.1,1.7c0.2,0.3,0.3,0.2,1-0.2
				c1-0.7,2.6-1.5,3.6-1.9c0.7-0.3,1.2-0.3,2.9-0.3c2.1,0,2.6,0.1,4.2,0.8c1.2,0.5,1.2,0.4,1.2,3.7v2.9l-0.5-0.1
				c-1.2-0.3-1.6-0.3-1.9-0.2c-0.3,0.1-0.4,0.1-0.4,1.3c0,0.7,0,1.2-0.1,1.2c0,0-0.3-0.1-0.6-0.1c-0.2-0.1-0.5-0.1-0.5-0.1
				c-0.1,0.1,0.3,1.2,0.7,2.1c0.1,0.2,0.2,0.5,0.3,0.6c0.1,0.2,0.2,0.6,0.4,1c0.1,0.4,0.4,0.9,0.5,1.3c0.1,0.4,0.4,0.9,0.5,1.3
				c0.3,0.6,0.4,0.9,0.8,1.8c0.1,0.2,0.3,0.7,0.4,0.9c0.1,0.2,0.5,1.2,0.9,2.1c0.8,1.9,1,2.5,1.3,3c0.1,0.2,0.2,0.5,0.2,0.6
				c0,0.1,0.1,0.3,0.2,0.6l0.3,0.4l0.1-0.3c0.1-0.2,0.6-1.3,1-2.4c0.5-1.2,1-2.4,1.2-2.8c0.3-0.6,0.4-0.9,0.8-1.8
				c0.5-1.2,0.7-1.6,0.9-1.9c0.1-0.2,0.2-0.5,0.2-0.5c0-0.1,0.2-0.5,0.4-1c0.9-2,1.1-2.8,1-3.7c-0.1-0.6-0.5-1.1-1-1.2
				c-0.5-0.1-1.4,0-1.6,0.3c-0.1,0.1-0.2,0.1-0.3,0.1c0,0-0.1-1.2-0.1-2.8v-2.8l0.5-0.3c0.3-0.2,0.8-0.5,1.2-0.7
				c0.7-0.3,0.7-0.4,0.7-0.9c0-0.7,0.1-0.8,1.6-1.5c1.1-0.5,1.1-0.5,2.8-0.5c1.7,0,2.4,0.1,3.8,0.6c0.7,0.2,2.6,1.2,2.7,1.4
				c0.1,0.1,0.3,0.2,0.5,0.3c0.1,0,0.3,0.1,0.3,0.2c0,0.2,0.4,0.1,1-0.3c0.8-0.6,2.6-1.5,3.6-1.9c0.7-0.3,1.2-0.3,2.9-0.3
				c2.1,0,2.4,0.1,3.8,0.8c1.1,0.6,1.1,0.4,1.1,3.6v2.9l-0.5-0.1c-0.2,0-0.9-0.1-1.4-0.2l-1-0.1v1.3c0,1.2,0,1.3-0.3,1.2
				c-0.2-0.1-0.6-0.1-0.9-0.2l-0.6-0.1l0.1,0.4c0,0.2,0.1,0.7,0.2,1.1c0.4,1.7,0.8,3.5,1.2,5c0.4,1.5,0.6,2.3,0.8,3.2
				c0.1,0.5,0.3,1.3,0.5,1.7c0.1,0.4,0.3,1.1,0.4,1.5c0.1,0.4,0.3,1.1,0.4,1.5c0.1,0.4,0.3,1.2,0.4,1.7c0.2,1,0.5,1.8,0.9,3.2
				c0.1,0.5,0.3,1.2,0.4,1.6c0.4,1.6,0.7,2.5,1.2,3.4c0.6,1.3,0.7,1.4,1.6,2.4c1,1,1.6,1.3,2.7,1.2c0.7,0,0.9-0.1,1.2-0.5
				c0.2-0.2,1-1.8,1.9-3.6c1.9-3.8,4.1-8,4.4-8.5c0.3-0.6,1.1-1.9,2-3.6c0.5-0.9,1-1.9,1.2-2.2c1.4-2.6,2.8-5.4,3-6
				c0.4-1.5,0.2-2.7-0.6-3.4c-0.5-0.4-2-0.4-2.9-0.1l-0.6,0.2l0-2.8l0-2.8l0.8-0.4c0.4-0.2,0.9-0.4,1.1-0.4c0.3,0,0.3-0.1,0.4-0.8
				l0-0.8l0.8-0.4c1.6-0.8,2.8-1,5.7-1c2.8,0,3.2,0,5,0.7c0.7,0.2,2.4,1.1,2.5,1.2c0,0,0.2,0.2,0.4,0.3c0.3,0.2,0.4,0.2,1.8-0.5
				c2.8-1.4,4.9-1.9,8.3-1.7c2.3,0.1,4.2,0.5,5.9,1.3l0.4,0.2v2.8V92l-0.2,0c-0.2,0-0.6-0.2-0.8-0.3c-0.2-0.1-0.7-0.1-1-0.1h-0.6
				v1.3c0,0.7,0,1.3-0.1,1.3c-0.1,0-0.4-0.1-0.7-0.2c-0.3-0.1-0.5-0.1-0.5-0.1c0,0,0.2,0.4,0.3,0.8c0.2,0.6,0.5,1.2,1.2,2.5
				c0.1,0.1,0.4,0.7,0.6,1.3c0.5,1.1,1.3,2.9,2.7,5.8c5.6,11.6,7.1,14.5,8.6,16c1.1,1.1,1.7,1.3,3.8,1.3c1.2,0,2-0.1,2.6-0.2
				c1.3-0.4,1.9-0.7,2-0.9c0.1-0.5,0.4-4.5,0.3-5.2c0-0.4-0.1-4.5-0.2-9.1c-0.1-8.4-0.2-10-0.7-10.9c-0.5-1-1.6-1.4-2.9-1.1
				c-0.5,0.1-1,0.2-1.2,0.4l-0.4,0.2v-3.2v-3.2l0.9-0.2c0.5-0.1,1-0.2,1.1-0.2c0.2,0,0.3-0.1,0.3-1l0-1l0.7-0.2
				c1.3-0.4,3.1-0.5,5.3-0.4c2.8,0.1,4.6,0.5,6.2,1.4c0.8,0.4,1,0.5,1.3,0.2c0.4-0.4,3.2-1.6,4.3-1.9c0.2-0.1,0.6-0.2,0.8-0.3
				c0.4-0.2,2-0.5,3.8-0.8c1.8-0.3,7.6-0.3,9.2,0c2.1,0.4,3.6,0.8,5,1.3c1,0.4,4.3,2.1,4.3,2.2c0,0.1,0.1,0.1,0.1,0.1
				c0.1,0,0.9,0.5,1.1,0.7c0,0,0.5,0.4,1.1,0.9c2,1.5,4.9,4.8,4.9,5.5c0,0.1,0,0.2,0.1,0.2c0.1,0,0.2,0.3,0.4,0.6
				c0.1,0.3,0.4,0.9,0.5,1.2c0.3,0.7,1,2.8,1.3,3.8c0.2,1,0.7,4.2,0.7,4.9c0,0.5,0,0.6,0.4,0.6c0.2,0,0.8-0.1,1.4-0.2
				c0.5-0.1,1.6-0.3,2.4-0.4c0.8-0.1,1.9-0.3,2.5-0.4c0.6-0.1,1.7-0.3,2.5-0.4c0.8-0.1,1.9-0.3,2.5-0.4c0.6-0.1,1.7-0.3,2.4-0.4
				c0.7-0.1,1.9-0.3,2.6-0.4c2.3-0.4,3.5-0.6,4.9-0.8c0.8-0.1,1.9-0.3,2.5-0.4c0.6-0.1,1.6-0.3,2.4-0.4c2.6-0.4,4-0.7,5-0.9
				c0.6-0.1,1.7-0.3,2.5-0.4c0.8-0.1,1.7-0.3,2.1-0.4c1-0.2,1.1-0.2,1.1,0.6c0,0.4,0.1,1.1,0.2,1.5c0.3,1.4,0.5,2.9,0.8,4.3
				c0.1,0.7,0.3,1.8,0.4,2.3c0.2,0.9,0.4,2,0.9,5c0.1,0.7,0.3,1.7,0.4,2.3c0.1,0.6,0.3,1.6,0.4,2.4c0.4,2.3,0.7,3.7,0.9,4.8
				c0.1,0.6,0.2,1.3,0.2,1.6c0,0.5,0,0.6-0.5,0.6c-0.2,0-0.9,0.1-1.4,0.2c-1.3,0.3-2.6,0.5-3.5,0.7c-1,0.1-2.4,0.4-3.5,0.6
				c-0.5,0.1-1.1,0.2-1.2,0.2s-0.7,0.1-1.2,0.2c-0.4,0.1-1.4,0.3-2.2,0.4c-0.8,0.1-1.9,0.3-2.4,0.4c-0.5,0.1-1.6,0.3-2.3,0.4
				c-0.7,0.1-1.8,0.3-2.4,0.4c-0.6,0.1-1.6,0.3-2.4,0.4c-0.7,0.1-1.8,0.3-2.4,0.4c-0.6,0.1-1.6,0.3-2.4,0.4
				c-0.7,0.1-1.8,0.3-2.4,0.4c-2,0.4-3.2,0.6-4.6,0.8c-1.3,0.2-2.6,0.5-4.3,0.8c-0.5,0.1-1.2,0.2-1.6,0.3c-1.1,0.2-2.5,0.4-3.5,0.7
				c-0.5,0.1-1,0.2-1.3,0.2c-0.2,0-0.7,0.1-1.2,0.2c-0.4,0.1-1.1,0.2-1.5,0.2h-0.7L263.5,132.6z M246,120.6c0.6-0.1,1.3-0.3,1.4-0.4
				c0.1-0.1,0.4-0.1,0.5-0.1c0.3,0,2.8-1.2,3.2-1.5c0.3-0.2,0.6-0.6,0.9-0.9c0.2-0.3,1.5-2.9,1.5-3.2c0-0.1,0.1-0.4,0.2-0.7
				c0.9-2.1,1.1-8,0.3-11.1c-0.3-1.4-1-3.2-1.7-4.3c-0.4-0.7-1.7-2.2-2.3-2.7c-0.4-0.3-0.7-0.6-0.7-0.6c0-0.1-0.1-0.1-0.2-0.1
				c-0.1,0-0.2,0-0.2-0.1c0-0.1-1.6-1-2.4-1.3c-1.5-0.6-3.9-1-5.4-1c-1,0-3.3,0.3-4,0.6c-0.3,0.1-0.6,0.2-0.7,0.2
				c-0.1,0.1-0.2,2.7-0.1,12.9l0,12.9l1.1,0.5c0.6,0.3,1.2,0.6,1.4,0.6c0.2,0,0.8,0.2,1.3,0.3C242.3,121,243.6,121,246,120.6z
				 M191.9,109.1c0-0.1,0-0.1-0.1-0.2c-0.1,0-0.6-0.9-1.1-2c-0.6-1.1-1.4-2.8-2-3.8c-0.5-1-1.3-2.4-1.6-3.1
				c-0.4-0.7-0.7-1.3-0.8-1.3c0,0-0.2,0.2-0.3,0.4c-0.1,0.2-0.2,0.4-0.3,0.5c0,0-0.2,0.2-0.2,0.4c-0.2,0.5-0.6,1.2-0.7,1.3
				c0,0-0.2,0.4-0.4,0.7c-0.2,0.4-0.5,0.8-0.6,1.1c-0.1,0.2-0.4,0.6-0.5,0.9c-0.2,0.4-0.7,1.3-1.7,2.9c-0.4,0.8-0.6,1.1-0.6,1.7v0.7
				h5.4C189.7,109.3,191.9,109.2,191.9,109.1z"/>
			<path class="st2" d="M310.8,128v-1.1h-0.5c-0.5,0-0.5,0-0.5-0.4v-0.4h1.4h1.4v0.4c0,0.4,0,0.4-0.5,0.4h-0.5v1.1v1.1h-0.4h-0.5
				V128z"/>
			<path class="st2" d="M312.8,127.6v-1.5h0.5c0.4,0,0.5,0.1,0.7,0.5c0.1,0.3,0.3,0.5,0.3,0.5c0,0,0.2-0.2,0.3-0.5
				c0.2-0.3,0.3-0.5,0.7-0.5l0.5,0v1.5v1.5h-0.4c-0.4,0-0.4,0-0.4-0.5c0-0.5,0-0.5-0.2-0.3c-0.2,0.3-0.6,0.3-0.9-0.1
				c-0.2-0.3-0.2-0.3-0.2,0.3c0,0.6,0,0.6-0.4,0.6h-0.4L312.8,127.6L312.8,127.6z"/>
		</g>
		<g id="layer102_1_">
			<path class="st3" d="M270.7,128.9c0,0-0.5-3.1-1.1-6.8c-0.6-3.7-1.1-6.8-1.1-6.9c0-0.1-0.9,0-1.9,0.3c-1,0.2-2.1,0.4-2.4,0.5
				c-0.8,0.1-0.6,0.5-1.3-3.4c-0.3-1.5-0.5-2.9-0.6-3c0-0.2,0-0.2,0.4-0.3c0.2-0.1,2.9-0.5,5.8-0.9c5.8-0.9,7.9-1.3,15.8-2.6
				c2.9-0.5,5.3-0.8,5.4-0.8c0.2,0.1,0.6,0.8,4,7.5c1.1,2.2,2.1,4,2.1,4c0,0,0.2-1.2,0.3-2.6c0.8-8.3,1-10.4,1.2-10.6
				c0.1-0.1,1.6-0.4,3.4-0.6c1.8-0.2,3.8-0.5,4.6-0.7c0.7-0.1,1.4-0.2,1.5-0.2c0.1,0-0.3,1.7-0.9,4c-0.6,2.2-1.6,6.3-2.3,9
				c-0.7,2.7-1.5,5.9-1.8,6.9c-0.3,1.1-0.5,2-0.6,2c0,0-1.8,0.4-3.8,0.7l-3.7,0.6l-5.9-8.1c-3.2-4.4-5.9-8.1-6-8.1
				c0,0-0.1,0.3,0,0.6c0,0.3,0.1,1.2,0.1,2l0.1,1.3l-2,0.2c-2.5,0.3-2.5,0.3-2.5,0.7c0,0.2,0.5,3.4,1.1,7.1c0.6,3.7,1,6.8,1,6.8
				c0,0-1.2,0.2-2.7,0.4c-1.4,0.2-3.5,0.5-4.4,0.6C271.5,128.9,270.7,129,270.7,128.9z"/>
			<path class="st3" d="M91.9,128.5l-0.9-0.3v-2.6V123l0.4,0.1c0.2,0.1,1.1,0.1,1.9,0.2c1.3,0,1.6,0,2.1-0.2
				c1.4-0.7,2.7-4.1,4.4-11.9c0.1-0.6,0.3-1.3,0.4-1.6c0.1-0.3,0.3-1.1,0.4-1.9c0.1-0.7,0.4-1.7,0.5-2.1c2.4-10.1,2.6-11.2,1.9-12.5
				c-0.5-1-1.5-1.5-2.9-1.5h-1v-2.4v-2.4l0.5-0.3c1.2-0.7,3.8-1.3,5.1-1.1c2.4,0.3,4.2,1,6.2,2.4c0.8,0.5,0.8,0.6,1.1,0.3
				c2.4-1.7,5-2.8,6.8-2.8c0.9,0,3.2,0.5,4.1,0.9l1,0.4v2.4v2.5l-1.3,0c-1.5,0-1.9,0.2-2.4,1c-0.6,1-0.4,2,1.3,5.9
				c2.1,5,5.5,13.1,5.9,14c0.1,0.2,0.2,0.5,0.3,0.5c0,0,0.5-0.9,0.9-2c0.4-1.1,1.8-4.2,2.9-6.9c4.1-9.8,3.9-9.2,3.9-10.2
				c0.1-1.9-0.9-2.8-2.6-2.3l-0.5,0.1v-2.3c0-1.9,0-2.3,0.2-2.5c0.4-0.4,2-1.1,2.8-1.3c1.9-0.3,4.9,0.6,7.5,2.2l1,0.6l1.2-0.8
				c2.9-1.9,5.3-2.5,7.8-1.9c0.7,0.2,1.6,0.5,2.1,0.9l0.4,0.2v2.4v2.4l-1.5,0c-1.7,0-2.2,0.1-2.7,1c-0.2,0.4-0.3,0.7-0.2,1.8
				c0,1.7,0.5,3.6,4.8,19.7c1.4,5,2.5,7.2,4.4,8.2c0.6,0.3,0.9,0.4,1.8,0.4c0.8,0,1.2-0.1,1.6-0.3c1.7-0.9,2.2-1.6,6.4-10
				c1.1-2.2,2.4-4.6,2.8-5.3c0.7-1.3,1.2-2.2,3.2-6c2.8-5.2,3.2-6.2,2.8-7.7c-0.3-1.3-1-1.9-2.4-1.9c-0.4,0-1,0.1-1.3,0.1
				c-0.3,0.1-0.5,0.1-0.5,0.1c0,0,0-1.1,0-2.4v-2.4l0.4-0.2c1-0.5,3-1,5-1.1c2.5-0.2,5.9,0.7,8.1,2.2l0.8,0.6l0.5-0.4
				c1.3-0.9,3.6-1.8,5.5-2.2c2-0.4,5.7-0.1,8.1,0.7l1.2,0.4l0,2.3l0,2.3l-0.3-0.1c-0.2,0-0.8-0.1-1.3-0.2c-1.1-0.1-1.7,0.1-2.1,0.9
				c-0.6,1-0.3,2.2,1.1,5c0.5,0.9,1.1,2.2,1.3,2.8c0.6,1.3,1.5,3.1,2.7,5.8c0.5,1.1,1.2,2.5,1.4,3.1c1,2.2,4.2,8.4,4.7,9.3
				c1.3,2.3,2.2,3.2,3.6,3.8c0.9,0.4,1,0.4,2.5,0.4c3.2,0,6-1.2,7.1-3c0.5-0.9,0.7-2.1,0.7-5c0-4.3-0.3-18.7-0.5-19.8
				c-0.3-2.2-1.1-3-2.9-3c-0.5,0-1.2,0.1-1.5,0.2c-0.3,0.1-0.5,0.2-0.6,0.2c-0.1,0,0-5.5,0.1-5.6c0.4-0.3,2.7-0.6,4.4-0.6
				c3.3,0,6,0.7,7.4,1.8l0.4,0.3l0.8-0.5c4-2.6,10.6-3.8,16.6-3.1c5.5,0.7,9.9,2.7,14,6.4c2.2,2.1,3.4,3.7,4.4,6.1
				c1,2.3,1.6,5.3,1.8,7.9c0.1,1.6,0.4,1.4-2.6,1.9c-1.2,0.2-2.9,0.5-3.8,0.7c-1,0.2-2.3,0.4-2.9,0.5c-0.7,0.1-1.2,0.2-1.2,0.2
				c0,0,0,0.6,0.2,1.2c0.2,1.1,0.8,4.9,1.9,11.2c0.2,1.4,0.4,2.5,0.3,2.6c-0.5,0.4-2.8,1.9-4.2,2.5c-2.5,1.2-4.5,1.8-7.7,2.4
				c-2.1,0.3-7.4,0.2-9.8-0.2c-3.2-0.6-5.9-1.4-8.8-2.6l-1.6-0.7l-0.9,0.7c-2.2,1.8-5.1,3.1-8.1,3.6c-1.6,0.3-5.2,0.3-6.6,0
				c-2.1-0.4-4.2-1.3-5.6-2.4l-0.8-0.6l-1.1,0.8c-1.3,1-2.9,1.9-4,2.2c-0.6,0.2-1.1,0.2-2.3,0.2c-1.4,0-1.6-0.1-2.6-0.6l-1.1-0.5
				v-2.7v-2.5l1.1,0c1.5,0.1,2.3-0.2,2.8-1.1c0.6-0.9,0.6-2.1,0.1-3.1c-0.4-0.7-1.2-1.6-2-2.1l-0.4-0.3h-10.6h-10.6l-0.4,0.7
				c-1.2,1.9-1.6,4-0.9,5.2c0.6,1.2,2.3,1.6,4.5,1.2c0.6-0.1,1.1-0.2,1.2-0.2c0,0,0.1,1.3,0.1,2.8v2.8l-0.5,0.1
				c-2.1,0.6-5.4,0.8-6.9,0.3c-1.1-0.4-2.4-1.1-3.2-1.9l-0.7-0.6l-1.4,0.7c-3,1.5-4.7,2-6.8,2c-1,0-1.7-0.1-2.5-0.3
				c-1.4-0.4-3.3-1.2-4.3-1.9L154,126l-0.8,0.5c-1.1,0.7-2.6,1.4-3.7,1.8c-0.8,0.3-1.1,0.3-3.1,0.3c-1.4,0-2.5-0.1-2.9-0.2l-0.7-0.2
				l0-2.7l0-2.7l0.9,0.1c1.8,0.2,2.8-0.4,3.1-1.7c0.4-1.6-0.1-3.5-3.6-16.3c-0.1-0.4-0.4-1.5-0.7-2.6c-0.3-1.1-0.6-2-0.6-2
				c0,0-0.5,1-1,2.2c-0.5,1.2-1.4,3.5-2,5c-0.6,1.6-1.7,4.2-2.4,5.8c-0.7,1.6-1.6,3.9-2.1,5.2c-0.5,1.3-1.5,3.6-2.1,5.3
				c-0.7,1.6-1.3,3.3-1.5,3.7l-0.3,0.7l-3.7,0l-3.7,0l-0.7-1.6c-0.8-1.9-1.6-3.9-5.1-12.4c-0.6-1.4-1.3-3.2-1.6-4
				c-0.3-0.8-1-2.5-1.5-3.8c-0.5-1.3-1.3-3.2-1.7-4.2c-0.5-1.1-0.8-1.9-0.9-1.8c0,0.1-0.3,0.8-0.5,1.6c-0.2,0.8-0.5,1.7-0.6,2.1
				c-0.2,0.9-1,3.7-1.5,5.6c-0.2,0.8-0.5,2-0.7,2.6c-0.4,1.5-1.2,4.3-1.4,5.3c-0.3,1.3-0.6,3.6-0.5,4.2c0.2,0.9,0.3,1,0.9,1.4
				c0.5,0.2,0.8,0.3,2,0.3c0.8,0,1.5,0,1.7-0.1c0.3-0.1,0.3-0.1,0.3,2.4v2.5l-1.2,0.2c-0.8,0.2-1.6,0.2-2.7,0.2
				c-1.4,0-1.6-0.1-2.7-0.7c-0.7-0.3-1.6-0.9-2.1-1.3c-0.5-0.4-0.9-0.7-1-0.7c0,0-0.5,0.3-1,0.6c-1.3,0.8-2.3,1.3-3.5,1.7
				C95.5,128.9,93.3,128.9,91.9,128.5z M246.8,121c4-1,6.8-3.2,8.7-6.5c0.7-1.3,1.5-3.7,1.7-5.4c0.3-1.9,0.3-5.6,0-7.4
				c-0.9-5.7-4-9.5-8.8-11.1c-1.8-0.6-2.9-0.7-5.2-0.6c-2.6,0.1-3.7,0.3-6.1,1.4l-1.2,0.5l0,13.7l0,13.7l0.5,0.3
				c1.1,0.7,3.5,1.4,5.2,1.6C242.4,121.4,245.9,121.2,246.8,121z M195.2,108.6c0-1.1,0-1.1-0.9-2.8c-0.5-1-1.4-2.7-2-3.8
				c-0.6-1.2-1.4-2.6-1.7-3.3c-0.3-0.6-1-1.9-1.4-2.7c-0.5-0.9-0.9-1.6-0.9-1.6c-0.1,0-0.8,1.2-3.4,5.8c-0.5,0.9-1.7,2.9-2.6,4.6
				l-1.7,3v1v1h7.3h7.3L195.2,108.6L195.2,108.6z"/>
		</g>
		<g id="layer103_1_" class="st1">
			<path class="st2" d="M270.7,128.9c0,0-0.5-3.1-1.1-6.8c-0.6-3.7-1.1-6.8-1.1-6.9c0-0.1-0.9,0-1.9,0.3c-1,0.2-2.1,0.4-2.4,0.5
				c-0.8,0.1-0.6,0.5-1.3-3.4c-0.3-1.5-0.5-2.9-0.6-3c0-0.2,0-0.2,0.4-0.3c0.2-0.1,2.9-0.5,5.8-0.9c5.8-0.9,7.9-1.3,15.8-2.6
				c2.9-0.5,5.3-0.8,5.4-0.8c0.2,0.1,0.6,0.8,4,7.5c1.1,2.2,2.1,4,2.1,4c0,0,0.2-1.2,0.3-2.6c0.8-8.3,1-10.4,1.2-10.6
				c0.1-0.1,1.6-0.4,3.4-0.6c1.8-0.2,3.8-0.5,4.6-0.7c0.7-0.1,1.4-0.2,1.5-0.2c0.1,0-0.3,1.7-0.9,4c-0.6,2.2-1.6,6.3-2.3,9
				c-0.7,2.7-1.5,5.9-1.8,6.9c-0.3,1.1-0.5,2-0.6,2c0,0-1.8,0.4-3.8,0.7l-3.7,0.6l-5.9-8.1c-3.2-4.4-5.9-8.1-6-8.1
				c0,0-0.1,0.3,0,0.6c0,0.3,0.1,1.2,0.1,2l0.1,1.3l-2,0.2c-2.5,0.3-2.5,0.3-2.5,0.7c0,0.2,0.5,3.4,1.1,7.1c0.6,3.7,1,6.8,1,6.8
				c0,0-1.2,0.2-2.7,0.4c-1.4,0.2-3.5,0.5-4.4,0.6C271.5,128.9,270.7,129,270.7,128.9z"/>
		</g>
	</g>
</g>
</svg>
