<?xml version="1.0" encoding="utf-8"?>
<!-- Generator: Adobe Illustrator 22.0.0, SVG Export Plug-In . SVG Version: 6.00 Build 0)  -->
<svg version="1.1" id="Layer_1" xmlns="http://www.w3.org/2000/svg" xmlns:xlink="http://www.w3.org/1999/xlink" x="0px" y="0px"
	 viewBox="0 0 404.7 218.4" style="enable-background:new 0 0 404.7 218.4;" xml:space="preserve">
<style type="text/css">
	.st0{fill:url(#SVGID_1_);}
	.st1{fill:#A8A9AC;}
</style>
<g>
	<g id="Layer_2-2_23_">
		<linearGradient id="SVGID_1_" gradientUnits="userSpaceOnUse" x1="-0.5918" y1="108.5703" x2="404.1572" y2="108.5703">
			<stop  offset="0" style="stop-color:#393939"/>
			<stop  offset="0.739" style="stop-color:#101010"/>
		</linearGradient>
		<rect x="-0.6" y="-0.6" class="st0" width="404.7" height="218.4"/>
	</g>
	<g id="JerrySpringer_1_">
		<g>
			<g>
				<g>
					<path class="st1" d="M101.1,96.7C97.5,96.3,94,94,94,90c0-2.5,1.9-4.6,4.4-4.6c2.2,0,4.2,1.8,4.2,4.1c0,1.7-1,3.2-2.6,3.8
						c-0.1,0.1-0.4,0.2-0.4,0.3c0,0.4,1.2,0.8,1.6,0.9V96.7z M113.6,88.5c0,2.4-0.4,4.5-2.3,6.1c-1.8,1.6-4.8,2.2-7.2,2.2l-1.4-0.1
						v-2.2c1.5-0.7,1.5-2.2,1.5-3.5V72.1c0-1.4,0.1-1.6-1.3-2.1c-0.5-0.1-0.9-0.5-0.9-1c0-1.1,1.2-1.2,1.4-1.2h10.8
						c0.1,0,1.4,0.1,1.4,1.2c0,0.5-0.4,0.9-0.9,1c-1.4,0.4-1.3,0.6-1.3,2.1C113.6,72,113.6,88.5,113.6,88.5z"/>
					<path class="st1" d="M119.7,67.8h10v28.4h-10c-0.1,0-1.4-0.1-1.4-1.2c0-0.5,0.4-0.9,0.9-1c1.4-0.4,1.3-0.6,1.3-2.1V72
						c0-1.4,0.1-1.6-1.3-2.1c-0.5-0.1-0.9-0.5-0.9-1C118.2,67.9,119.5,67.8,119.7,67.8z M131.4,67.8h8.4v7.7c0,0.2-0.1,0.9-1.2,0.9
						c-0.6,0-0.9-0.4-1-0.9c-1-3.1-2.9-4.9-6.2-5.4L131.4,67.8L131.4,67.8z M131.4,80.5c1.6-0.4,2.3-1.9,2.6-3.4
						c0.2-0.6,0.4-1.2,1.2-1.2c1.2,0,1,1.4,1,1.6v8.2c0,0.3,0.2,1.6-1,1.6c-0.8,0-1-0.6-1.2-1.2c-0.4-1.4-1.1-2.9-2.6-3.4V80.5z
						 M131.4,94c3.1-0.4,5.4-2.4,6.4-5.5c0.3-0.6,0.5-1.2,1.2-1.2c1.2,0,1.1,1.2,1.1,1.3v7.6h-8.7V94z"/>
					<path class="st1" d="M145.8,72c0-1.4,0.1-1.6-1.3-2.1c-0.5-0.1-0.9-0.5-0.9-1c0-1.1,1.2-1.2,1.4-1.2h10V92
						c0,1.4-0.1,1.6,1.3,2.1c0.5,0.1,0.9,0.5,0.9,1c0,1.1-1.2,1.2-1.4,1.2h-10.8c-0.1,0-1.4-0.1-1.4-1.2c0-0.5,0.4-0.9,0.9-1
						c1.4-0.4,1.3-0.6,1.3-2.1V72z M156.9,67.8h0.2c2.4,0,5-0.1,7.3,1c2.6,1.2,3.9,3.4,3.9,6.2c0.1,4.4-2.8,6.2-6.7,7.2v0.1
						c3.4,0.5,6.6,1.5,6.7,5.5v3.4c0,0.4-0.1,1.1,0.4,1.1c0.6,0,0.7-1.1,1.6-1.1c0.5,0,1.1,0.6,1.1,1.1c0,1.1-1.2,2.5-2.1,3.2
						c-1.3,1.1-2.6,1.4-4.3,1.4c-1.6,0-3.1-0.4-4.3-1.6c-1.4-1.4-1.5-3-1.5-4.8v-2.6c0-1.7-0.1-3.9-2.3-4.1v-2.2
						c2.1-0.2,2.3-1.4,2.3-3.3v-4.6c0-1.9-0.4-2.8-2.3-3.5C156.9,70.1,156.9,67.8,156.9,67.8z"/>
					<path class="st1" d="M175.6,72c0-1.4,0.1-1.6-1.3-2.1c-0.5-0.1-0.9-0.5-0.9-1c0-1.1,1.2-1.2,1.4-1.2h10V92
						c0,1.4-0.1,1.6,1.3,2.1c0.5,0.1,0.9,0.5,0.9,1c0,1.1-1.2,1.2-1.4,1.2h-10.8c-0.1,0-1.4-0.1-1.4-1.2c0-0.5,0.4-0.9,0.9-1
						c1.3-0.4,1.3-0.6,1.3-2.1V72z M186.7,67.8h0.2c2.4,0,5-0.1,7.3,1c2.6,1.2,3.9,3.4,3.9,6.2c0.1,4.4-2.8,6.2-6.7,7.2v0.1
						c3.4,0.5,6.6,1.5,6.7,5.5v3.4c0,0.4-0.1,1.1,0.4,1.1c0.6,0,0.7-1.1,1.6-1.1c0.5,0,1.1,0.6,1.1,1.1c0,1.1-1.2,2.5-2.1,3.2
						c-1.3,1.1-2.6,1.4-4.3,1.4c-1.6,0-3.1-0.4-4.3-1.6c-1.4-1.4-1.5-3-1.5-4.8v-2.6c0-1.7-0.1-3.9-2.3-4.1v-2.2
						c2.1-0.2,2.3-1.4,2.3-3.3v-4.6c0-1.9-0.4-2.8-2.3-3.5L186.7,67.8L186.7,67.8z"/>
					<path class="st1" d="M208.1,85.2l-5.7-13.6c-0.3-0.7-0.4-1.2-1.1-1.6c-0.5-0.3-0.9-0.4-0.9-1.1c0-1.2,1.2-1.1,2-1.1h9.4
						c0.9,0,2.1-0.1,2.1,1.2c0,0.6-0.4,0.9-0.9,1.2c-0.4,0.2-0.7,0.4-0.7,0.9c0,0.5,0.2,1,0.4,1.4l4.7,10.8V92
						c0,1.4-0.1,1.6,1.3,2.1c0.5,0.1,0.9,0.5,0.9,1c0,1.1-1.2,1.2-1.4,1.2h-10.8c-0.1,0-1.4-0.1-1.4-1.2c0-0.5,0.4-0.9,0.9-1
						c1.4-0.4,1.3-0.6,1.3-2.1L208.1,85.2L208.1,85.2z M217,78.4l2-4.4c0.3-0.6,0.6-1.2,0.6-2c0-2.3-2.6-1.4-2.6-3
						c0-1.4,1.6-1.2,2.4-1.2h4.2c0.9,0,1.9,0.1,1.9,1.2c0,0.6-0.4,0.9-0.9,1.2c-1.6,0.6-2,1.2-2.7,2.8l-3.7,8.2L217,78.4z"/>
				</g>
				<g>
					<path class="st1" d="M106.9,121c-1.4,0.7-2.4,2-2.2,3.5c0.3,1.9,1.5,2.8,6.3,3.7c7.1,1.4,9.2,4.7,9.7,8.1
						c1,5.8-3.2,10.4-8.7,11.5l-0.4-2.2c1.7-0.9,3.1-1.9,2.8-4c-0.4-2.4-3.3-2.9-5.2-3.4c-5.1-1.2-9.8-2.5-10.8-8.4
						c-1-5.7,2.5-9.9,8-11L106.9,121z M100.5,140.7c-0.1-0.8-0.1-1.9,0.9-2c0.7-0.1,1.4,0.4,1.6,1c1.1,2.9,3.8,6.2,7.2,6.4l0.4,2.2
						c-3.3,0.5-4.2-0.7-5.6-0.4c-1.2,0.2-0.9,1.4-1.8,1.6c-1.2,0.2-1.4-1.2-1.4-1.4L100.5,140.7z M117.9,125.2
						c0.1,0.9,0.1,1.8-0.9,2c-0.9,0.1-1.4-0.5-1.6-1.2c-0.9-2.7-3.7-5.2-6.7-5.2l-0.4-2.2c2.4-0.4,5.1,0.6,5.5,0.6
						c1-0.1,0.6-1.5,1.6-1.6c1.2-0.2,1.3,1.1,1.4,1.4L117.9,125.2z"/>
					<path class="st1" d="M123.1,120.8c-0.2-1.4-0.2-1.6-1.6-1.8c-0.5-0.1-0.9-0.4-1-0.9c-0.2-1.1,1-1.4,1.2-1.4l9.9-1.7l4.2,23.8
						c0.2,1.4,0.2,1.6,1.6,1.8c0.5,0.1,0.9,0.4,1,0.9c0.2,1.1-1,1.4-1.2,1.4l-10.6,1.9c-0.1,0-1.4,0.1-1.6-0.9
						c-0.1-0.5,0.2-0.9,0.6-1.2c1.2-0.6,1.2-0.9,0.9-2.2L123.1,120.8z M133.3,114.7c3.6-0.6,5.7-0.6,7.7,0.1
						c3.1,1.2,4.6,3.4,5.1,6.6c0.6,3.2-0.1,5.8-2.6,8c-1.6,1.3-3.6,2.1-7.2,2.6l-0.4-2.2c2.2-0.8,2-2.4,1.6-4.2l-1-5.7
						c-0.3-1.6-0.9-3.2-2.9-3.1L133.3,114.7z"/>
					<path class="st1" d="M150.6,116.1c-0.2-1.4-0.2-1.6-1.6-1.8c-0.5-0.1-0.9-0.4-1-0.9c-0.2-1.1,1-1.4,1.2-1.4l9.9-1.7l4.2,23.8
						c0.2,1.4,0.2,1.6,1.6,1.8c0.5,0.1,0.9,0.4,1,0.9c0.2,1.1-1,1.4-1.2,1.4L154,140c-0.1,0-1.4,0.1-1.6-0.9
						c-0.1-0.5,0.2-0.9,0.6-1.2c1.2-0.6,1.2-0.9,0.9-2.2L150.6,116.1z M160.7,110h0.2c2.4-0.4,4.9-0.9,7.4-0.2
						c2.7,0.8,4.4,2.6,4.9,5.4c0.8,4.3-1.7,6.7-5.4,8.2v0.1c3.4-0.1,6.7,0.4,7.5,4.3l0.6,3.3c0.1,0.4,0.1,1.1,0.6,1
						c0.6-0.1,0.5-1.2,1.4-1.4c0.5-0.1,1.2,0.4,1.3,0.9c0.2,1.1-0.8,2.6-1.5,3.4c-1.1,1.3-2.4,1.8-4,2.1c-1.6,0.3-3.2,0.1-4.5-0.9
						c-1.6-1.2-2-2.7-2.3-4.5l-0.4-2.6c-0.3-1.7-0.7-3.8-3-3.6l-0.4-2.2c2-0.6,2-1.8,1.7-3.6l-0.8-4.5c-0.4-1.9-0.9-2.7-2.9-3
						L160.7,110z"/>
					<path class="st1" d="M192.3,129c0.2,1.4,0.2,1.6,1.6,1.8c0.5,0.1,0.9,0.4,1,0.9c0.2,1.1-1,1.4-1.2,1.4l-10.6,1.9
						c-0.1,0-1.4,0.1-1.6-0.9c-0.1-0.5,0.2-0.9,0.6-1.2c1.2-0.6,1.2-0.9,0.9-2.2l-3.4-19.6c-0.2-1.4-0.2-1.6-1.6-1.8
						c-0.5-0.1-0.9-0.4-1-0.9c-0.2-1.1,1-1.4,1.2-1.4l10.6-1.9c0.1,0,1.4-0.1,1.6,0.9c0.1,0.5-0.2,0.9-0.6,1.2
						c-1.2,0.6-1.2,0.9-0.9,2.2L192.3,129z"/>
					<path class="st1" d="M219,119.3l1.6,9l-5.6,1l-17.8-21.2c-0.8-0.9-1.1-1.5-2.4-1.6c-0.6-0.1-1.2-0.1-1.4-1
						c-0.2-1.2,0.9-1.3,1.7-1.5l9.6-1.6L219,119.3z M197.4,110.9L197.4,110.9l2.8,3.4l1.9,11.3c1.4,4.6,3.6,2.7,3.8,4.3
						c0.2,1.2-1.4,1.4-1.8,1.4l-4.3,0.7c-0.4,0.1-1.9,0.4-2.2-0.7c-0.3-1.6,2.4-0.6,2.2-5.4L197.4,110.9z M214.7,107.6
						c-0.9-5.4-3.7-3.4-4.1-5.1c-0.2-1.1,1.1-1.4,1.4-1.4l5.1-0.9c0.4-0.1,1.6-0.2,1.8,0.9c0.3,1.7-3,0.9-2.1,6.2l1.6,9.1h-0.1
						l-2.7-3.4L214.7,107.6z"/>
					<path class="st1" d="M234.6,120.8c0.2,1.4,0.8,2.9,2.4,3.2l0.4,2.2c-6.5,0.9-12.7-4.5-14-12.5c-1.4-8,2.5-15.3,9-16.6l0.4,2.2
						c-1.4,0.8-1.4,2.4-1.2,3.7L234.6,120.8z M233.9,96.7c4-0.4,6.2,0.4,6.6,0.3c1.2-0.2,0.8-1.6,1.9-1.8c1.2-0.2,1.2,0.9,1.3,1
						l1.4,8.3c0,0.2,0.2,1.4-0.9,1.6c-1,0.1-1.4-0.5-1.6-1.2c-2-4.6-5.2-6.4-8.3-6L233.9,96.7z M238.7,123.6
						c1.6-0.8,1.4-2.1,1.3-2.7l-1.2-6.7c-0.1-0.8-0.2-1-1.8-1c-0.6-0.1-1.1-0.3-1.2-0.9c-0.1-1,1.2-1.3,1.3-1.3l9-1.6
						c0.2,0,1.3-0.4,1.5,0.9c0.1,0.6-0.2,0.9-0.5,1.2c-0.7,0.6-0.5,1.1-0.5,1.2l1.3,7.4c-2.2,2.8-5.4,4.9-9,5.7L238.7,123.6z"/>
					<path class="st1" d="M248.8,94.7l9.9-1.7l4.9,28l-9.9,1.7c-0.1,0-1.4,0.1-1.6-0.9c-0.1-0.5,0.2-0.9,0.6-1.2
						c1.2-0.6,1.2-0.9,0.9-2.2l-3.4-19.6c-0.2-1.4-0.2-1.6-1.6-1.8c-0.5-0.1-0.9-0.4-1-0.9C247.4,95,248.6,94.7,248.8,94.7z
						 M260.4,92.7l8.3-1.4l1.3,7.6c0,0.2,0.1,0.9-1,1.1c-0.6,0.1-0.9-0.2-1.2-0.8c-1.5-2.9-3.7-4.4-7.1-4.3L260.4,92.7z
						 M262.5,105.2c1.5-0.7,1.9-2.3,2.1-3.7c0.1-0.6,0.2-1.3,1-1.4c1.2-0.2,1.2,1.2,1.3,1.5l1.4,8.1c0.1,0.3,0.5,1.6-0.7,1.8
						c-0.8,0.1-1.2-0.4-1.4-1c-0.6-1.4-1.6-2.7-3.2-2.9L262.5,105.2z M264.9,118.5c2.9-0.9,4.9-3.4,5.4-6.5c0.1-0.6,0.3-1.2,0.9-1.4
						c1.2-0.2,1.3,0.9,1.3,1.1l1.3,7.4l-8.6,1.5L264.9,118.5z"/>
					<path class="st1" d="M275.3,94.4c-0.2-1.4-0.2-1.6-1.6-1.8c-0.5-0.1-0.9-0.4-1-0.9c-0.2-1.1,1-1.4,1.2-1.4l9.9-1.7l4.2,23.8
						c0.2,1.4,0.2,1.6,1.6,1.8c0.5,0.1,0.9,0.4,1,0.9c0.2,1.1-1,1.4-1.2,1.4l-10.6,1.9c-0.2,0-1.4,0.1-1.6-0.9
						c-0.1-0.5,0.2-0.9,0.6-1.1c1.2-0.6,1.2-0.9,0.9-2.2L275.3,94.4z M285.5,88.3h0.2c2.4-0.4,4.9-0.9,7.4-0.2
						c2.7,0.8,4.4,2.6,4.9,5.4c0.8,4.3-1.7,6.7-5.4,8.2v0.1c3.4-0.1,6.7,0.4,7.5,4.3l0.6,3.3c0.1,0.4,0.1,1.1,0.6,1
						c0.6-0.1,0.5-1.2,1.4-1.4c0.5-0.1,1.2,0.4,1.3,0.9c0.2,1.1-0.8,2.6-1.5,3.4c-1.1,1.3-2.4,1.8-4,2.1c-1.6,0.3-3.2,0.1-4.5-0.9
						c-1.6-1.2-2-2.7-2.3-4.5l-0.4-2.6c-0.3-1.7-0.7-3.8-3-3.6l-0.4-2.2c2-0.6,2-1.8,1.7-3.7l-0.8-4.5c-0.4-1.9-0.9-2.7-2.9-3
						L285.5,88.3z"/>
				</g>
			</g>
			<path class="st1" d="M308.2,112.5l0.4-1.9l0.6-0.1l0.4,2.4l-0.4,0.1l-0.4-1.9l0,0l-0.4,2.1l-0.3,0.1l-1.1-1.8l0,0l0.4,1.9
				l-0.4,0.1l-0.4-2.4l0.6-0.1L308.2,112.5z M306.1,111.4l-0.7,0.1l0.4,2l-0.4,0.1l-0.4-2l-0.7,0.1l-0.1-0.4l1.9-0.4L306.1,111.4z"
				/>
		</g>
	</g>
</g>
</svg>
