<?xml version="1.0" encoding="utf-8"?>
<!-- Generator: Adobe Illustrator 22.0.0, SVG Export Plug-In . SVG Version: 6.00 Build 0)  -->
<svg version="1.1" id="Layer_1" xmlns="http://www.w3.org/2000/svg" xmlns:xlink="http://www.w3.org/1999/xlink" x="0px" y="0px"
	 viewBox="0 0 404.7 218.4" style="enable-background:new 0 0 404.7 218.4;" xml:space="preserve">
<style type="text/css">
	.st0{fill:url(#SVGID_1_);}
	.st1{fill:#A8A9AC;}
</style>
<g>
	<linearGradient id="SVGID_1_" gradientUnits="userSpaceOnUse" x1="-0.5918" y1="108.5361" x2="404.1572" y2="108.5361">
		<stop  offset="0" style="stop-color:#393939"/>
		<stop  offset="0.739" style="stop-color:#101010"/>
	</linearGradient>
	<rect x="-0.6" y="-0.7" class="st0" width="404.7" height="218.4"/>
	<g>
		<path class="st1" d="M109.3,93.3L109.3,93.3c0.1,0.8-0.2,1.6-0.7,2.2c-0.3,0.4-1,0.4-1.6,0.5c0-0.2-0.5,0.1-0.7,0
			c-1.1,0-2,0.5-2.8,0.7l-0.1-0.1c0,0.3-0.2,0.2-0.4,0.3c-0.7,0.3-1.3,0.7-2.1,0.9c-0.7,0.6-1.2,1.5-1.6,2.5c-0.2,0,0,0.3-0.1,0.3
			c-0.6,0.5-0.7,1.7-0.5,2.5c0.6,0.7,1.8,0.8,2.7,0.5c0.7-0.2,1.5-0.3,2.2-0.1c1.5-0.2,3.2-0.4,4.6-0.7c1.3,0,2.5-0.5,3.7-0.2
			c0.2,0.7-0.7,0.9-1,1.3l-0.4,0.1l0,0c-1.1,0-2,0.4-2.8,0.7c-0.3,0.3-0.7,0.3-1,0.5c-0.4,0.1-0.9,0.1-1.3,0c-0.4,0-0.6,0.3-0.9,0.3
			c-0.2,0.3-0.5,0.4-0.8,0.5l-0.2,0c0,0.1,0,0.2-0.1,0.2c-0.2-0.2-0.3,0.3-0.6,0l-0.8,0.1l0,0l-1.1,0.1v0c-1.4,0.3-2.8,0.8-3.8,1.8
			c-0.3,1,0,2.5-0.3,3.6c0,0.2-0.1,0.4,0,0.7c-0.4,2.6-1,5.1-1.2,8c0.1,0.8,0,1.9-0.4,2.6c-0.1,0.1-0.1,0.3-0.2,0.4
			c-0.5,0.5-0.8,1.3-1.8,1c-0.4,0-0.4-0.6-0.5-0.8c-0.2-1.8,0.5-3.3,0.7-4.9c0.3-1.2,0.5-2.1,1-3.1c0.1-0.9-0.2-1.7-0.1-2.6
			c0.2-0.4,0.1-1,0.3-1.3l-0.1-0.1l0.1,0c-0.1-0.1,0-0.3,0.1-0.4l0.3-1.9c-0.1-0.4-0.1-0.8,0-1.1l-0.1-0.1h0c0-0.9-0.5-1.4-0.7-2.2
			c0.1-0.2,0-0.7,0.3-0.9c0.4-0.9,1.4-1.4,1.6-2.5c0.4-1.3,0.5-2.9,1-4.2c0.1-0.7,0.4-1.3,0.7-1.9c0.2-0.4,0.4-0.8,0.7-1.1
			c0.3-0.7,1.3-0.5,1.7-1c0.3,0,0.5-0.1,0.7-0.1v0c1.6-0.4,3.3-0.8,4.8-1.3c0.8-0.6,2.2-0.5,3,0.1C109,92.9,109.2,93.1,109.3,93.3z"
			/>
		<path class="st1" d="M239.9,94c0.5,1.8-1.4,1.9-1.6,3.2c-0.2,2.3-1.7,3.7-2.1,5.8c-0.2,0.8,0,1.9-0.5,2.5
			c-0.8,0.7-0.7,2.4-0.8,3.6c-0.1,2.1-0.1,4.5-2,5.3c-0.4,0.3-0.8,0-1.2-0.2c-0.3-0.5-0.9-0.7-1.2-1.2c-0.6-0.4-1.3-0.6-1.9-1
			c-0.7-0.3-1.2-0.7-1.7-1.2c0-0.3-0.4-0.1-0.3-0.4c-0.4-0.3-0.8-0.7-1.1-1.1c-0.6-0.3-0.8-0.8-1.4-1.1c-0.5-0.3-0.8-0.6-1.3-0.8
			c-0.2-0.1-0.4-0.4-0.7-0.5c-1,0.3-1.2,1.4-1.3,2.3c-0.2,1.1,0,2.6-0.8,3.2c-0.2,0.8-0.1,1.9-0.1,2.6c-0.2,0.4-0.5,0.7-0.8,0.8
			c-0.4,0-0.8,0-1.2-0.1l-0.1,0c-0.2,0-0.4-0.1-0.5-0.3c-0.1-1-0.3-2,0-3c-0.1-0.7,0.1-1.2,0.1-2.1c0.1-0.8,0.5-1.4,0.5-2.4
			c0.1-0.3,0.2-0.6,0.3-0.9c0.3-1.2,0.7-2.3,0.9-3.5c0.1-0.7,0.1-1.3,0.4-1.9c0-0.2,0.1-0.4,0.2-0.7c0.3-0.6,1.1-0.6,1.8-0.6
			c0.3,0.1,0.6,0.3,0.8,0.5c1,0.8,1.4,2.1,2.2,3.2c0.1,0.3,0.5,0.4,0.6,0.6c1,0.3,1,1.4,1.9,1.9c0.1,0.2,0.4,0.3,0.6,0.5
			c0.6,0.4,1,0.8,1.6,1.1c0.2,0.2,0.6,0.4,0.8,0.6c0.5,0.2,1.2,0.8,1.6,0c1.8-1.9,2.1-4.9,3.6-7c0.5-0.7,0.5-1.6,0.7-2.5
			c0.4-0.9,0.9-1.7,1.3-2.7c0.5-1.1,1.1-2.1,1.7-3C239.2,93.6,239.7,93.6,239.9,94z"/>
		<path class="st1" d="M167.3,97.9c0.4,1.4,0,3.1-0.3,4.5c-0.4,1.3-0.7,2.9-1.5,4c-0.6,0.5,0.1,1.6-0.4,2.1c-1.2,1.1-0.9,3.7-1,5.3
			c0.1,0.3,0.1,0.7,0.1,1c-0.3,0.5-0.9,0.1-1.5,0.1c-0.7-0.1-0.9-0.7-1-1.3c0.1,0,0-0.3,0-0.3c0.2-1.4,0.8-2.7,1.2-4
			c0.4-0.8,0-1.8,0.3-2.6c0.2-0.7,0.4-1.5,0.7-2.2c0.2-0.7,0.2-1.1,0.4-1.8c0.1-0.6,0.3-1.2,0.4-1.9c0.3-0.7,0.3-1.7,0.7-2.3
			c-0.1-0.4,0.2-0.7,0.3-1C166.4,97.5,167,97.5,167.3,97.9z"/>
		<path class="st1" d="M198.6,99.5c0,0.5,0.1,1-0.3,1.3c-1.3,0.5-2.7,0.9-4,1c-1.6,0.3-3.6,0.5-4.6,2c0.1,0.3-0.3,0.8,0.1,1l0.3,0.3
			c1.5-0.3,2.9-0.7,4.6-0.9c0.4,0.1,0.7-0.1,1.1,0c2.3,0.4,4.4,0.2,6.9,0.1c0.1,0.2,0.3,0.4,0.1,0.6c0,0.1,0,0.4,0,0.5
			c-0.4,0.3-0.9,0.6-1.4,0.4c-0.4,0.1-0.9,0.1-1.3,0c-0.4,0-0.8,0-1.2,0.2c-0.2,0.2-0.6,0.3-0.8,0.4l0,0c-1,0-1.8,0.4-2.6,0.7
			c-0.7,0.6-1.9,0-2.8,0.4c-1.1,0.7-2.6,0.7-3.7,1.5c-1,0.7-1.1,2.1-1.2,3.5c0.5,0.2,0.9,0.6,1.6,0.4c0.7-0.4,1.4-1,2.3-1
			c0.5,0.1,0.8-0.1,1.3-0.2c1.1-0.5,2.5-0.6,3.8-0.9c0.1,0.1,0.2,0,0.3,0c0.9-0.1,1.7-0.2,2.3-0.7c0.3,0,0.7,0,0.6,0.4
			c0.2,1.3-0.9,1.6-1.6,2.1c-1.3,0.7-2.4,1.4-3.9,1.7c-0.4,0.2-0.9,0.3-1.3,0.5c-0.1-0.2-0.2,0.1-0.4,0.1c-0.3,0-0.6,0.2-0.8,0.3
			c-0.6,0.2-1.3,0.4-2,0.5v0l-0.8,0.2l0,0c-0.7,0.1-1.3,0.2-2,0.5c-0.6,0.1-1.3,0.1-2,0.1l0,0c-0.3,0-0.7-0.1-0.9-0.3
			c-0.3-0.7-0.4-1.5-0.4-2.3c-0.2,0,0.1-0.1,0-0.2c0.1-0.3-0.1-0.5,0.2-0.7c-0.2-0.6,0.2-0.9,0.4-1.4c0.4-0.3,0.7-0.7,0.6-1.2
			c-0.1-1.1-1.1-2.4,0-3.2c0.6-0.1,0.7-0.7,0.8-1.2c0-0.5,0.1-1,0.3-1.5c0-0.8,0.6-1.3,0.8-2c0.8-1.5,1.9-2.8,3.7-3.2
			c0.9-0.1,1.5-0.2,2.5-0.2c0.2,0.1,0.5-0.2,0.8,0c0.7-0.2,1.5-0.3,2.1-0.6c0.2-0.1,0.3-0.4,0.6-0.3
			C197.6,98.1,198.3,98.6,198.6,99.5z"/>
		<path class="st1" d="M308.1,99.2c0.3,0.6,0.5,1.6,0,2.1c-1.1,0.7-2.7,0.8-3.7,1.7c-2,1-3.9,2.2-5.8,3.6c-0.2,0.7,0.4,0.6,0.6,0.9
			c1,0.3,2.2-0.1,3.2-0.3c2.3,0,4.6,0.3,6.8,0.8c0.4,0.1,0.8,0.2,1.2,0.4c0.1,0,0.3,0.1,0.4,0.2c0.2,1.2-0.1,2.6-0.9,3.2
			c-0.4,0.4-1,0.7-1.5,0.9c-2.6,1.4-5.6,2.1-8.3,3.5c-0.8,0.1-1.5,0.4-2.1,0.9c-0.7,0-1.4,0.1-1.9-0.3c0-0.9,0.1-1.9,1-2.1
			c1.4-0.6,3.6,0,4.6-1.3c1.3-1.6,4.8-0.7,5-3.5c-0.3-0.1-0.5-0.3-0.7-0.5c-0.6,0-1.2-0.1-1.6,0.1c-0.5,0-1.1,0.1-1.6,0.1
			c-1.1-0.2-2.7,0-3.8-0.1c-1,0.1-2.3,0.3-3.2,0l-1.8-1.3c-0.2-1.4,0.7-2.1,1.5-2.7c0.8-0.6,1.5-1.2,2.4-1.6
			c0.5-0.6,1.2-0.9,1.9-1.4c0.4-0.3,0.8-0.5,1.3-0.7c1.6-0.8,3.3-1.3,4.6-2.5C306.2,98.8,307.5,98.4,308.1,99.2z"/>
		<path class="st1" d="M144.8,110.9c-1.2-0.2-2.6-0.5-3.8-0.7c-0.5-0.1-0.8,0-1.3-0.1c-0.6,0.1-0.8-0.5-1.2-0.6
			c-0.4-0.1-0.9-0.4-1.3-0.3c-1-0.4-2.3-0.5-3.1-1.1c-0.3-0.1-0.2-0.5-0.1-0.7c0.2-0.1,0.3-0.4,0.6-0.5c0.6-0.6,1.3-1.1,2.1-1.5
			c0.6-0.3,1.2-0.7,1.8-0.9c0.1-0.4,0.7-0.2,0.7-0.6c0.4-0.2,0.8-0.4,1.1-0.7c0.6-0.2,0.8-0.7,0.9-1.4c0.3-0.7,1-0.9,1.2-1.5
			c0.1-0.3,0-0.6,0-0.8c-0.3-0.8-1-1.4-1.8-1.8c-0.6-0.2-1.3-0.3-2-0.4c-1.3-0.1-2.9-0.3-4.3,0.2c-0.3,0.2-0.6,0.3-0.9,0.4
			c-0.3,0.2-0.5,0.5-0.9,0.5c-0.5,0.3-1.2,0.5-1.8,0.5c-0.3,0-1.1,0-1.3-0.4c-0.5-0.4-1.3-0.3-1.9-0.1c0,0.1,0,0.3-0.2,0.3
			c-0.5,1.3-0.5,3.2-0.9,4.6c0,0.2-0.2,0.4,0,0.6c-0.4,1-0.5,2.3-0.9,3.3l0,0.1c-0.2,0.5-0.2,1.2-0.4,1.7c-0.1,0.2,0,0.6-0.1,0.7
			c-0.1,0.4-0.3,0.8-0.2,1.2c-0.3,0.1,0,0.5-0.2,0.6c-0.2,0.7-0.3,1.4-0.6,2c-0.1,0.3,0,0.8-0.3,1l-0.1,0.5
			c-0.3,0.5-0.4,1.2-0.6,1.8c-0.2,1.1-0.5,2.2-0.6,3.2c-0.3,0.1-0.1,0.7-0.2,0.9c0,0.4,0,1.4,0,1.9h0c0.2,0.7,0.1,1.8,0.5,2.4l0.6,0
			c0.2,0,0.6,0.3,0.7-0.1l0.3-2.4c0-1-0.2-1.3,0-2.3c0.6-0.5,0.6-1.5,0.8-2.2l0-0.1c0.5-1.9,0.6-4.3,1.4-6.1c0.2-0.5,0.4-1,0.9-1.3
			c0.2,0.1,0.3,0,0.5,0.1c1.1,0,2.2,0.2,3.3,0.4c0.3-0.2,0.5,0.2,0.8,0v0.1c1.1,0.2,2.2,0.4,2.9,1.1c1,0.2,1.8,0,2.7,0.2
			c1.6,0.1,3,0.8,4.7,0.7c0.7,0.2,1.3-0.1,2.1-0.2c0.2-0.2,0.5-0.3,0.7-0.4C145,111.7,145,111.3,144.8,110.9z M130.4,106.3
			c-0.3,0.1-0.5,0.3-0.8,0.3c-0.3-0.2-0.8-0.2-0.8-0.6c0.3-0.2-0.2-0.6,0.1-0.8c0-0.4,0.2-0.8,0.1-1.2c0.2-0.3,0-0.7,0.3-1
			c0.4-1,1.8-0.9,2.6-1.4c0.9-0.3,1.5-1,2.5-1.2c0.7-0.3,1.6-0.5,2.4-0.5c0.1-0.2,0.3,0.1,0.4-0.1c0.5,0.1,1,0.2,1.5,0.3
			c0.1,0.1,0.1,0.4,0.2,0.5c-1,1.1-2.4,1.8-3.5,2.7C133.9,104.5,132.3,105.7,130.4,106.3L130.4,106.3z"/>
		<path class="st1" d="M276,104.7c0-0.7-0.2-1.2-0.4-1.8c-0.6-0.7-1.2-1.5-2-2.1c-1.4-1.3-3.8-1.5-5.5-2.5c-1.4-0.3-3.1-0.1-4.5,0
			c-1.5,0-2.9-0.3-4-1c-0.3,0.3-0.5,0.7-0.8,1.1l-0.1,1.7c0.1,0.9-0.4,1.4-0.8,2c-0.7,0.7,0.4,2-0.6,2.5c-0.9,1.7-1.4,3.7-2,5.6
			l0,0.7c-0.3,0.6-0.7,0.9-1.2,1.3l-0.1,1.1c0.1,0.7,0.4,1.3,0.6,1.9c0.5,0.5,0.4,1.3,0.6,2.1c0.7,0.1,1.3,0.2,1.9,0.1
			c0.5-0.2,0.7-0.9,0.7-1.6c0.1-0.5-0.2-0.7-0.5-1c0.5-0.5,1.1-1,1.8-1.2c1.3-0.2,3-0.4,4.5-0.7c3.5-0.7,7.1-1.6,10.1-3.2
			c0.6-0.5,1-1,1.6-1.4C276.9,108,275.7,106,276,104.7z M274.4,106.1c-0.3,0.6-0.7,1.2-1.2,1.7c-0.6,0.7-1.9,0.4-2.6,0.9
			c-2.2,0.8-4.8,2.3-7.3,1.5c-0.3-0.3-0.2-0.8-0.7-1c-1.3-0.4-2.7,1.4-3.7,0c0-0.6,0.1-1.2,0.3-1.7l0,0c0.5-1.4,1.4-2.6,1.8-4.2
			c0.5-0.6-0.1-2.1,0.8-2.3c1.7,0.5,3.5,0.9,5.5,0.7c1.1-0.1,1.9,0.1,2.8,0.3c1.6,0.2,3,1.1,3.6,2.4
			C273.9,105,274.8,105.2,274.4,106.1z"/>
		<path class="st1" d="M117.4,107.1c0.1,0.2,0.4,0.3,0.5,0.6c0.4,0.2,0.2,0.7,0.4,1.1c-0.2,0,0,0.4-0.2,0.6c-0.2,0.4-0.5,0.8-0.9,1
			c-0.4,0-0.9,0.3-1.3,0l-0.1,0.1c-0.1-0.4-0.4,0.1-0.7-0.2c-0.7-0.4-1.8-0.6-1.6-1.8c0-1.2,0.7-2.1,1.8-2.5
			C116.2,106,116.7,106.7,117.4,107.1z"/>
		<path class="st1" d="M154.6,106.3c0.2-0.1,0.2,0.2,0.3,0.3c0.2,0.5,0.2,1.3,0.2,1.7c0.1,0.3,0.3,0.8,0.1,1.1
			c-0.3,0.2-0.4,0.4-0.8,0.4c-0.8-0.1-1.2,0-2-0.1c-0.6-0.4-0.6-1.4-0.6-2.3c0.1-0.7,0.5-1.3,1.3-1.5
			C153.6,106.1,154.4,105.8,154.6,106.3z"/>
		<path class="st1" d="M246.7,106.8c0.3,0.7,0.3,2.2,0,2.8c-0.4,0.3-0.6,0.7-1,0.9c-0.7-0.2-1.5-0.4-2-0.9c-0.4-0.6-1-1.5-0.6-2.4
			c0.3,0,0.3-0.5,0.7-0.4c0.7,0.1,1.1-0.8,2-0.3C246,106.7,246.4,106.7,246.7,106.8z"/>
		<path class="st1" d="M177.9,107.4c0.2,0.3,0.1,0.8,0.1,1.1c0,0.6-0.2,1.3-0.3,1.9c-0.5,0.4-1.3,0.6-1.9,0.4
			c-1.1-0.5-1.7-1.5-2.2-2.4c-0.1-0.6,0.7-0.7,0.8-1.2c0.7-0.5,1.8-0.8,2.7-0.4C177.4,106.9,177.7,107.1,177.9,107.4z"/>
		<path class="st1" d="M287.3,107.8c0.3,0.6,0.1,1.4,0,2.1c-0.2,0.3-0.6,0.2-0.9,0.3c-0.6,0.2-1.3,0-1.7-0.3
			c-0.1-0.1-0.2-0.3-0.3-0.5c-0.4-0.9-0.7-1.9-0.6-3C285.3,106.5,286.8,106.6,287.3,107.8z"/>
		<path class="st1" d="M211.1,107.5c0.2,0.1,0.3,0.4,0.4,0.6c0.4,0.8,0,1.8-0.2,2.6c-0.9,0.1-1.7,0-2.6-0.1c-0.1-1-0.8-1.9-0.6-3
			c0.2-0.4,0.6-0.8,1.1-0.8C209.8,106.7,210.7,106.9,211.1,107.5z"/>
	</g>
</g>
</svg>
