<?xml version="1.0" encoding="utf-8"?>
<!-- Generator: Adobe Illustrator 22.1.0, SVG Export Plug-In . SVG Version: 6.00 Build 0)  -->
<svg version="1.1" xmlns="http://www.w3.org/2000/svg" xmlns:xlink="http://www.w3.org/1999/xlink" x="0px" y="0px"
	 viewBox="0 0 1000 1000" style="enable-background:new 0 0 1000 1000;" xml:space="preserve">
<style type="text/css">
	.st0{fill:#1A1A1A;}
	.st1{display:none;}
	.st2{display:inline;}
	.st3{fill:#FFFFFF;}
	.st4{fill:#FCFCFC;}
	.st5{display:inline;fill:#FFFFFF;}
</style>
<g id="Base">
	<rect class="st0" width="1000" height="1000"/>
</g>
<g id="Two_and_a_half_men" class="st1">
	<g class="st2">
		<rect x="191.4" y="223.3" class="st3" width="628.3" height="561.2"/>
		<path class="st3" d="M174.3,207v594H837V207H174.3z M827.8,792.6H183.3V215.1h644.6V792.6z"/>
	</g>
	<g class="st2">
		<path class="st0" d="M409.4,504c-3.9-0.9-7.6,10-9.2,14.3c-2.2,6.2-3.9,13.4-2.4,18.4c3.2-0.1,4.9-2.6,6.9-4.7
			c1.8-1.8,4.2-3.7,5.3-6.3c1.1-2.6,1.4-7.3,1.4-11.1C411.5,510.7,411.9,504.6,409.4,504z"/>
		<path class="st0" d="M648.2,536.2c-0.9,5.6,10,3.7,14.1,3.3c0.4-2.9,0.3-5.7,0.2-8.7C657.6,531.3,648.9,531.8,648.2,536.2z"/>
		<path class="st3" d="M665.3,389.6c7.6,8.3,20.3,14.1,35.3,12.9c14-1.2,24.4-7.9,31.5-17.2c6.8-8.9,11.7-22.2,10.6-37.9
			c-0.9-14.4-6.6-26.2-14.3-34.3c-7.9-8.3-19.2-14.8-35.1-13.5c-7.2,0.5-13.8,2.8-18.8,5.9c-14.4,9-24.3,26.4-22.9,49.2
			C652.6,370.2,657.4,380.9,665.3,389.6z"/>
		<path class="st0" d="M257.6,537.9c2.2,3.4,9.7,2.2,14.1,1.6c0.3-3.1,0.3-5.5,0.2-8.7C266,531.2,257.2,532,257.6,537.9z"/>
		<path class="st0" d="M488.8,537.3c0.6,4.3,9.8,2.8,14.1,2.2c0.5-2.5,0.5-6,0.2-8.7C497.9,531,488.2,532.4,488.8,537.3z"/>
		<path class="st0" d="M593.1,352.5c0.5,32.8,13.9,55,31.5,71.7c17.5,16.6,41.7,29,74.1,29c16,0,30.2-4,42-9.4
			c12.1-5.5,22-12.4,30.7-21c17.2-17.2,30-40.6,29.8-72.9c-0.2-32.8-14.2-54.8-31.1-71.7c-8.2-8.2-18.9-15.7-30.9-20.6
			c-11.9-4.9-27.3-8.9-43.1-8.5c-16.8,0.3-30.5,3.9-42.5,9.4c-12,5.5-22.1,12.5-30.7,21C606.2,296.2,592.5,319.3,593.1,352.5z
			 M674.4,305.5c5-3.1,11.6-5.4,18.8-5.9c15.9-1.3,27.2,5.2,35.1,13.5c7.7,8.1,13.4,19.9,14.3,34.3c1.1,15.7-3.7,29-10.6,37.9
			c-7.1,9.2-17.5,16-31.5,17.2c-15,1.2-27.7-4.5-35.3-12.9c-7.9-8.7-12.7-19.4-13.7-34.9C650.2,332,660,314.5,674.4,305.5z"/>
		<path class="st0" d="M251.7,304.8v143.5h58.4c0.1-47.8-0.3-96.2,0.2-143.7c15.8,0,32.8,0.1,47.5-0.2
			c13.6,47.9,27.2,95.8,40.6,143.9h53.1c8.8-31.2,17.8-62.2,26.5-93.5c8.5,31.5,17.8,62.3,26.7,93.5h52.9
			c18.4-65,36.8-130,55.1-195.2h-59.2c-8.4,34.1-17,67.9-25.1,102.3c-8.8-34.2-18-68.2-26.9-102.3h-46.7
			c-9.2,34.5-18.2,69.2-27.3,103.7c-8-34.8-16.5-69.1-24.7-103.7H210.3c-0.3,0.1-0.2,0.3-0.2,0.6v50.9
			C223.9,304.7,238.3,304.3,251.7,304.8z"/>
		<path class="st0" d="M600.1,507.3c2.1,0.5,1.6,5.4,1.6,9.2c0,8.3-0.4,13.9-0.8,20.8c-0.2,2.9-1.2,7.8-0.2,10.4
			c0.9,2.3,6.6,4.3,10.2,4.7c2,0.2,4.7-0.1,7.3-0.4c2.2-0.2,5.4-0.3,6.5-1.2c2-1.7,1.2-9.6,1.2-14.1c0-4.5-0.1-10.6,0-14.9
			c0.3-10.6,0-21.4-5.1-25.5c-1.4-1.2-4.5-1.8-7.5-3.3c-4.1-1.9-7.5-4-12.9-3.3c-4.7,0.7-5.4,3.6-9.4,4.9c-1.4-5.2-0.9-9.8-0.6-15.1
			c0.3-4.1,2.1-11.3,0.8-15.1c-0.7-2-3.2-3-5.9-4.3c-2.3-1.1-4.7-2.6-7.1-3.1c-4.7-0.9-11.8,0.1-13.1,3.1c-0.8,2,0.2,7.1,0.4,10.6
			c1.4,20.3,0.3,39.3-0.6,58.4c-0.3,6.6-0.9,18.2,2.4,21.2c0.7,0.6,3.2,1.3,4.7,1.8c3.4,1.3,12.2,3.5,15.3,0.6
			c2.5-2.3,1.4-10.2,1.6-15.5c0.2-5.2,0.3-11.5,1.6-15.7c0.8-2.6,2.4-5.4,3.7-8.1C595.2,511.5,596.6,506.4,600.1,507.3z"/>
		<path class="st0" d="M705.8,456.8c-5.2,0.6-4.5,5.8-5.1,11.7c-2.2,22.2-2.8,48.7-1.2,72.5c0.3,4.2,0.5,9,2.2,10.4
			c2,1.7,7.8,1.6,11.1,2c3.9,0.5,8.5,1.3,11.7-0.2c1.4-30.3-0.4-63.7,4.1-90.6c-1.8-2-5-3.7-8.3-4.5
			C715.9,457,710.3,456.3,705.8,456.8z"/>
		<path class="st0" d="M686.4,502.1c-2.2-6.2-9.5-8-16.8-9.8c-4.9-1.2-9.8-2.4-14.1-2.6c-0.9-0.1-2.8-0.1-3.5,0
			c-6.2,0.9-11.3,7.2-14.7,12.1c-1.8,2.6-6,8.5-4.9,11.7c1.2,3.1,10.9,3.8,14.9,2.6c3.2-0.9,5.4-5.4,8.1-7.7
			c1.3-1.2,4.3-3.5,5.7-2.8c2.6,1.2,0.9,8.3,1.4,11.3c-10,1.4-18.2,2.8-24.3,6.3c-3.4,2-6.9,4.9-7.7,9c-1.4,6.9,3.6,11.9,6.7,14.5
			c3.5,2.9,9.3,5.8,14.3,5.7c3.5-0.1,7.5-2.2,11.3-1.6c2.2,0.3,3.2,2.9,5.7,3.5c2.5,0.5,6.4,0,9.4,0c2.8,0,6.4,0.3,7.9-1.4
			c2-2.2,0.5-6.3,0.4-9.2c-0.1-3.1,0.4-6.7,0.4-10.2c0-3.6-0.1-7.3,0-10.6C687.1,516.5,688.1,507,686.4,502.1z M662.3,539.5
			c-4.1,0.4-15,2.4-14.1-3.3c0.7-4.5,9.4-5,14.3-5.5C662.6,533.8,662.7,536.6,662.3,539.5z"/>
		<path class="st0" d="M786.7,466.2c-3.1-3.7-13.2-8.8-19-9.4c-11.3-1.1-20.2,6.3-22.7,13.9c-1.3,3.9-1.4,9-2,14.1
			c-0.5,4.8-0.9,10-1,15.3c-4,0.6-9.1,0.2-10.9,3.1c-0.3,6.8,2,13.6,10.6,11.3c0.2,6.2,0.4,11.9,0.4,19c0,5.6-1.2,15.3,1.6,18
			c1.4,1.4,4.8,1.6,7.5,2c6,0.9,13.9,1.5,15.7-3.1c1-2.6,0.4-10.9,0.4-15.7c0-8.2,0.1-14.6-0.4-20.6c4.4-2.6,12.8-1,15.9-4.9
			c-0.1-3.5,0.9-8.8-1.6-10.4c-1.6-1-5.1-0.7-7.5-1c-2.6-0.3-5.2-0.2-6.7-1.8c-0.3-2.9-0.2-6.4-0.2-10.2c0-3.3-0.4-8.1,2.2-8.2
			c2.8-0.1,2.6,3.7,3.1,5.7c0.6,2.6,1.6,5,3.1,5.7c1.8,0.8,5.4,0.3,7.3,0.2c2.6-0.1,5.4,0,6.7-1.4c1.6-1.7,1.2-5.9,1-8.5
			C790.2,473.5,789.1,469,786.7,466.2z"/>
		<path class="st0" d="M342.8,546.6c1.2,3.5,8.6,5.4,13.9,5.5c2.7,0.1,6.6-0.1,7.9-1.4c2-2,1.8-10.1,2-13.3
			c0.4-5.3,0.6-9.6,0.6-14.9c0-10.3,1.1-21.7-4.3-26.3c-2.8-2.4-7.1-2.3-11.6-3.9c-3.2-1.1-6-2.4-8.5-2.6c-9.7-1-12.1,6-18.2,9.4
			c-3.2-3.5-15.8-5.1-18,0.4c0.6,10.4-0.2,25-0.2,37.2c0,3.6-0.7,8.4,0.2,10.9c0.5,1.5,2.9,2.6,4.7,3.5c5,2.3,14.8,5,19.6,1.2
			c0.8-8.2-1.2-18.5,0-27.7c0.5-3.6,1.5-7.8,3.1-11.5c1.1-2.4,3.7-8.1,7.1-7.3c2,0.5,2,5.4,2,8.7c0,8.1-0.3,14.6-0.4,21.6
			C342.8,539.1,341.9,544,342.8,546.6z"/>
		<path class="st0" d="M427.7,457.9c-5.2-1.1-12.5-2-15.9,0.2c-0.2,10.4,0.3,23-0.2,33.7c-4.5,0.1-7.4-1.7-11.5-2
			c-7.5-0.6-12.3,3.7-15.3,7.9c-6.9,9.6-14.6,28.6-8.1,41.2c2.7,5.4,8.2,7.5,14.1,9.8c2.4,0.9,5.4,2,7.7,2.2
			c7.3,0.5,8.5-4.3,14.1-5.7c-0.3,7.1,5.5,7.5,12.3,8.3c3.7,0.5,10.6,1.2,12.1-1.4c1.1-2,0.2-7.2,0.2-11.1c0-4.3-0.2-8-0.2-11.5
			c0-24.3,1.2-46.9,1.2-68.4C435.7,459.8,431.8,458.7,427.7,457.9z M411.4,514.6c-0.1,3.8-0.3,8.4-1.4,11.1
			c-1.1,2.6-3.5,4.5-5.3,6.3c-2,2-3.7,4.6-6.9,4.7c-1.5-5,0.3-12.2,2.4-18.4c1.6-4.3,5.3-15.3,9.2-14.3
			C411.9,504.6,411.5,510.7,411.4,514.6z"/>
		<path class="st0" d="M527.2,503.5c-1.5-7.5-9-9-16.6-11c-5.1-1.3-10-2.6-14.7-2.8c-1.6-0.1-3.2,0-3.9,0.2
			c-6.9,1.9-10.6,7.2-14.5,12.9c-1.8,2.6-5.4,7.7-4.5,10.4c1,3.3,10.8,4,14.9,2.8c2.8-0.7,4.4-4.2,6.3-6.1c1.6-1.6,5.7-5.3,7.5-4.5
			c2.6,1.1,0.9,8.2,1.4,11.3c-8.3,0.9-13.8,2.2-19.2,4.3c-6.8,2.6-16.5,8.3-12.1,18.2c2.8,6.2,11.8,13.2,20.4,13.1
			c3.4-0.1,7.4-2.2,11.1-1.6c2.2,0.3,3.3,2.9,5.7,3.5c2.6,0.5,6.6,0,9.6,0c3,0,6.5,0.3,7.9-1.6c1.5-1.9,0.3-6.4,0.2-9.2
			c-0.1-5.9,0.6-12.4,0.6-19.6C527.4,517.5,528.4,508.8,527.2,503.5z M502.9,539.5c-4.3,0.5-13.5,2-14.1-2.2
			c-0.6-4.8,9.1-6.3,14.3-6.5C503.3,533.5,503.4,537,502.9,539.5z"/>
		<path class="st0" d="M296.2,513.2L296.2,513.2c0.1-3.6,0.5-7.6-0.1-10.2c-1.8-6.9-9.6-8.8-16.8-10.6c-5-1.3-10-2.4-14.5-2.6
			c-8.1-0.5-13.2,5.5-17,10.6c-2,2.7-7.1,9.7-5.9,13.1c1.1,3.1,11,3.8,14.9,2.6c3.3-0.9,5.6-5.6,8.3-7.9c1.3-1.1,4.1-3.3,5.5-2.6
			c2.4,1.2,1.1,8.7,1.2,11.3c-12.5,1.8-23.9,4-29.4,10.4c-4.5,5.2-2.4,12,1.2,16.3c3.6,4.3,10.2,8.9,17.4,8.7
			c3.4-0.1,7.3-2.3,11.3-1.6c2.2,0.4,3.3,3,5.7,3.5c2.8,0.5,6.6,0,9.8,0c3.5,0,6.8,0.2,7.9-2c1-1.9,0.1-5.8,0-8.3
			c-0.3-6.1,0.4-12.8,0.4-20.2V513.2z M271.8,539.5c-4.4,0.5-11.9,1.8-14.1-1.6c-0.4-5.8,8.3-6.7,14.3-7.1
			C272,534,272.1,536.4,271.8,539.5z"/>
		<path class="st0" d="M372.4,563.6c-11.1,35.7-21.2,72.2-32.3,107.8c-10.5-35.9-20.9-72.1-31.7-107.8h-55.9
			c-0.3,0.1-0.4,0.3-0.4,0.6C242,629,232.1,694,222.1,758.8H277c4.6-34.2,9.3-68.4,13.9-102.7c10,34.2,19.5,68.9,30,102.7h39.3
			c10.2-34,19.6-68.7,30-102.5c3.7,35,9,68.3,13.5,102.5h55.1c-10.2-65-19.9-130.3-30.2-195.2H372.4z"/>
		<path class="st0" d="M733.5,676.9c-4.7-11-12.3-19.9-19.2-29.4c-18.6-25.8-37.5-51.2-56.4-77.2c-1.4-2-4.1-6.3-5.5-6.7
			c-1.6-0.5-4.5,0-6.7,0h-47.1c-0.3,0.1-0.4,0.3-0.4,0.6v194.6h56.6c-0.3-37.4,0.7-77.3-0.6-113.1c5,10.8,12.3,19.7,19.2,29.2
			c18.7,25.6,37.4,51.2,56.2,77.2c1.4,1.8,4.2,6.3,5.5,6.7c1.6,0.5,4.5,0,6.7,0h47.3V563.6h-56.2
			C733.2,601.2,732.2,640.3,733.5,676.9z"/>
		<path class="st0" d="M467.7,564.2v194.6H590v-49.2c-21.6-0.1-43.8,0.3-65.1-0.2v-24.5h61.4v-47.4c-20.3,0-41.8,0-61.4,0
			c0.1-8.3-0.3-17.3,0.2-25.3H590v-48.6H468.1C467.9,563.6,467.7,563.8,467.7,564.2z"/>
	</g>
</g>
<g id="MOM" class="st1">
	<g class="st2">
		<path class="st4" d="M734,345.6l1-1c-1.2-0.8-2.5-1.1-3.9-1v2C731.9,346.2,733.1,346.2,734,345.6z"/>
		<path class="st4" d="M726.9,345.5c1.7,0.1,1.8-0.7,1.2-2h-2C725.8,344.4,725.2,345.4,726.9,345.5z"/>
		<path class="st4" d="M811.7,344.6c0.5-0.8,2.5-0.1,1.9-2h-1c-1.8-0.4-3.8-1.6-4.9,1c0,0.3,0,0.6,0.1,1L811.7,344.6z"/>
		<path class="st4" d="M561.8,348.5c0.6-1.4,3.1-0.5,3.3-3.5c-1.7,1.5-5.2-1.2-4.2,3.5L561.8,348.5L561.8,348.5z"/>
		<path class="st4" d="M607.1,345.5l3.1-1.6c-2.6-1.4-5.3-1.4-8-1.3c-2.3,2.3-6.5-0.6-8.9,3.9h8.9
			C603.9,347.3,605.8,346.9,607.1,345.5z"/>
		<path class="st4" d="M871.3,350.9c-1.3-1-3-1.6-4.5-2.3l-8.3-0.1c-3.7,0-7.5,0.8-11.1-0.3c-5.8-1.8-11.6-4.4-16.2,2.4
			c-0.3,0.4-0.7,0.6-1.2,0.6c-4-1.7-8.5,0.5-12.3-1.7c-4.2,0.1-8-1.4-11.8-3c-2.6-0.1-5.1-1.6-7.8-1.1c0-0.1,0-0.1-0.1-0.2
			c-6,0.4-11.5,3.8-17.7,3.1h-3.9c-9.8-0.2-19.7,0.1-29.5,1h-1c0-0.3,0-0.6-0.1-0.9c-1.2-0.3-2.5-0.6-3.8-0.8
			c-1.1-0.3-2.3-0.4-3.5-0.2c-1.5,0-3.1,0.4-4.5,0.9l-2.9-0.1c-0.1-0.3-0.5-0.4-0.7-0.2c-0.1,0.1-0.2,0.2-0.2,0.3l-0.1,0.1l0,0
			c-2.4-0.1-4.8,0-7.1-1c-2.3-1.2-5.1-1-7.1,0.5c-0.2-0.1-0.4-0.2-0.6-0.3c-4.2-0.5-8.3-1.8-12.7-1.3c-8.4,0.3-16.7-1.6-25.1,0.7
			c-4.6,1.3-9.3,3-14.2,3.1c-5.2-1.4-10.5-1.7-15.7-2.2c-0.5-0.1-1.1-0.2-1.6-0.2c-2.4,0.1-4.7-0.1-7.1-0.5c-1.7-0.3-3.8-0.7-4.2,2
			h0c-8.2,0.7-16.4,5.5-24.6,0l-23.4,0.7l0,0l-0.2-1.7c-4.4-1.7-8.8-3.7-13.8-2.9c-1.8,1-5.1,0.8-3.6,4.4l-1.3,0.4
			c-2.1-1.3-4.8-1.3-6.8,0.1h-2c-1.3-0.1-3.6,0.1-3.7-0.3c-1.3-5.7-5.4-2-8.1-2.7l-3.1-0.2l-1.9,0.2h-23.6l-1,0
			c-1.8-1.7-4.2-1.4-5.9-0.6c-2.3,1-4.4,2-6.9,1.6c0,0.2,0,0.5,0,0.7c-0.8,0-1.6-0.1-2.3-0.3c-8.7-0.6-17.6,1.6-26.1-1.7
			c-1.1-0.3-2.3-0.3-3.4,0.2c-6.4,2-12.9,1.4-19.4,1.6c-2.5,0.1-5.1-0.5-7.6,0.4c0.1-0.3,0.1-0.6,0-0.9c-0.9-0.7-2.2-0.7-3.1-0.1
			h-2.9c-6.3,1.8-12.9,1.7-19.2,1c-7.8-1-15.5-1.3-23.2-0.1l0.2,0.2l0,0l-0.2-0.2c-5,1.4-9.6-2.2-14.6-1c-4.9,0.6-10-0.9-14.9,1.1
			c-4.7,2.3-10-0.3-14.8,1.9c-7,2-13.2-1.4-19.6-2.9l0,0c-4.9-2.4-10.6-2.7-15.8-1l0,0c-1.7-0.1-3.5-0.2-5.2-0.5
			c-5.8-0.6-11.8-1.8-17.4,1.5c-2,0.3-4.2-0.8-5.9,1l0,0c-0.8,0-1.6,0.2-2,1h-1c-2.5-2-5.3-0.6-8-1l0,0l-2-0.5c-0.2,0-0.4,0-0.5,0.1
			c-1.4-1.6-3.5-1.7-5.3-2c-4.9-0.7-9.9-0.5-14.6-2.5l0,0c0-0.3-0.1-0.6-0.2-0.9l-10.6,1c-1.4-0.1-2.8-0.2-4.1,0.4l-5.7,0.5
			c-0.7,0-1.4,0-2.1,0.2l-13.8,1.3c-6.3,1.1-12.7,1.4-19.1,2l-0.2,0.1c-0.2,0.5-0.4,0.9-0.6,1.4l0,0l-2.8,0.1
			c-0.7,1.5-3.2,0.2-3.5,2c-0.2,1.4,1.3,1.7,2.3,2l0.3-0.2l0.1,0l-0.3,0.2c-0.4,1.7,2.5,3.9-0.5,4.9c-4.8,1.7-4.9,5.6-5.3,9.6
			c0.3,0,0.6,0.1,0.9,0.1c0.1,2-0.5,3.5-2.8,3.9c-2.7,1.7-0.3,4.9-2.1,6.9l0,0l1,1.9l0,0v3c0.5,1.9,2.8,3.9,0.2,5.8l-0.2-0.1
			c-0.3,0.1-0.6,0.2-0.9,0.2c-0.4,0.3-0.7,0.6-1.1,0.8c-2.7,1.3-5.9,2.6-5.6,6c0.6,6.8-1.7,14,2.2,20.4c0.2,0.3-0.2,0.9-0.7,1.2
			l-2.8,2.2c-1.6,0.7-3.6,1-3.8,3.3c-0.2,4.1-2.7,8.5,0.9,12.3c0,0.1,0,0.1,0.1,0.1c-2.7,0.8-3.6,3.2-4.3,5.7l0.2,0.2l0,0l-0.2-0.2
			l-0.9,0.1l0,0c-0.3,0-0.6,0-1,0l-1.1,1.9c0.3,3.1,1.9,7,0.6,9.3c-2.7,4.8-0.6,9.6-1.6,14.3c-0.3,1-1,2.2,0.1,2.7
			c0.2,2.1-0.4,3.8-2.2,5.1l-1.9,0c-1.9,0.2-3,1-1.9,3.1l2,2.9c0.3,0.1,0.6,0.1,0.9,0.2l0,0c1.4,3.1-0.8,5.3-1.9,7.8l0,0
			c-2.3,2.2-2.1,3.8,0.8,5.5c2.4,1.4,3.2,3.5-0.6,4.5c-0.1,0.3-0.2,0.5-0.2,0.8l0,0l-1.7,0.2c-2,2,0.1,3.3,0.7,4.8l-1.2,3.7l0,0
			c-2.7,0.2-3.1,1.4-1.6,3.5c1,1.4,2.6,2.7,0.8,4.6l0,0c-0.3,0-0.6,0-0.9,0c-1.9,0.9-1.2,3.3-2.7,4.5c-4.5,3.5-4.5,9.2-4.8,13.9
			c-0.5,6.6-2,12.5-5.5,18c-0.6,1.5,0.1,2.3,1.4,3c1.5,1.1,3,2.1,0.9,4c-0.3,0.4-0.6,0.8-0.7,1.3c0,0.4,0,0.8,0.2,1.2
			c-3.3,2.8-4.1,5.6-2.4,8.8c0.8,1.4,0.8,3.1,0,4.5l0,0c-1.3,1.6-6,0.5-3.8,4.8l0.9,1.1c0.7,0.8,1,1.8,0.9,2.9c0,0.2,0,0.5,0,0.7
			c-0.3,1.6,0.7,3.2,0.9,4.7c-0.1,0.3-0.3,0.5-0.4,0.8c-0.5,0.4-0.9,0.9-1.2,1.5c0.1,1-1,1.5-1.3,2.3c-0.3,0.1-0.7,0.2-1,0.4
			c-0.7,1.1-1.5,2.2-2.2,3.3c-1.7,2-2.9,4.2-2.7,7.2c0,0.3,0,0.6,0.1,0.8c1.4,0.5,2,1.7,2.1,3c-0.1,0.3-0.1,0.6-0.2,0.9
			c-1.3,1.8-1,4.4-2.9,5.8c-3,1.9-1.5,3.6,0.4,4.8c3.4,2.1,2.3,3.6-0.3,5.1c-0.9,1.8,0.2,4.1-1.3,5.8c-7.4,0.3-7.6,0.6-5.6,7.8
			c0.1,0.3,0.1,0.6,0.1,0.9l1.8,0.2l0,0c-0.2,1.7,0.7,3.2,1.3,4.8c4.2,0.9,1,3.1,0.5,4.3c-0.7,1.7-2.7,3.2,0.2,4.7l0,0
			c2.6,4.8,7.7,6.3,11.9,8.9l0,0c0,0.3,0,0.6,0.1,0.9h1.9c2.5-0.9,4.9-2.4,7.5-3c-0.6,1-1.4,2,0.4,3h2.9c1.4,0.2,2.7-0.3,3.9-0.9
			l0,0c0.4,0.7,1.2,1,2,0.9l7.8,0.1c1.8,0,3.8,0.3,5.4-0.2c2.2-0.8,0.9-1.4-0.4-1.8c-1.3-0.8-2.8-0.5-4.1-0.9
			c-1-0.2-2.1-0.2-3.1-0.1c0.2-0.2,0.3-0.4,0.4-0.6c1.4-0.1,2.9,0,4.3,0.2c0.5,0.1,1,0.1,1.4,0c1.1-0.2,2.3-0.3,3.4-0.4
			c0.9,1.5,2.8,1.1,4.2,1.3c2.7,0.3,5.5-0.1,8.3,0.2c2,0.8,4,0.7,6.1,0.5l0.8-0.1c3.3,0.5,6.4,0.5,9.8-0.7c2.7-1,5.5-3.2,8.8-2.2
			l0,0c0.2,0.8,0.6,2,1.3,1.7c4.4-1.5,9.2,0.2,13.6-1.7l0,0c1.6,0.2,3.5-0.8,4.9,0.9l1.9,0.1c3,1.4,6.3,1.5,9.4,2.2
			c2.3,0.5,3-0.7,3.8-2.2c5.4,2.9,10.5,0.6,15.7-0.8l0.3,0c0.1,0,0.3,0.1,0.5,0.1c0,0.1,0,0.2,0.1,0.3h0c-0.2,1.8,0.6,1.9,1.9,1.2
			c9.8-1,19.6,2.3,29.4,0.1h8.9l3.9-0.1c0-0.3,0-0.6,0.1-0.9l0,0l6.8,0l0,0c1.3,1.6,2.6,0.5,3.9,0l0,0c3.8-0.5,6.8,3.3,10.8,1.8
			c0-0.3,0.1-0.6,0.1-0.9l0,0c0.3,0,0.6-0.1,0.9-0.1c7,0.7,13.7-2.6,20.7-1.9l0,0c0.7,0.4,1.4,0.7,2.1,1c8.4,1.3,16.9,1.1,25.4,1h1
			c2-3.6,4.8-1.3,7.2-0.9c2.9,0.5,0.2,2.6,0.8,3.8c4.8,1.5,8.1-3.6,12.7-3l0,0c0.3,0,0.6,0.1,0.9,0.1l0,0c0,0.3,0,0.6,0.1,0.9h8.8
			c0.2-0.3,0.3-0.6,0.2-0.9l2.7,0c0.1-0.3,0.1-0.6,0.2-0.8l0,0c5.6-0.6,11.3,0.8,16.9-0.9c1.5-0.4,3.2-0.6,4.6,0.8l0,0
			c2.3,1.5,4.6,1.4,6.9,0h3.9c5.6,1.9,11.1-1,16.7,0l0,0c4.9,3.1,10.4,2.7,15.8,3c0.3-0.1,0.6-0.1,0.9-0.1c4-1.6,8.4-0.1,12.4-1.7
			c3.2-1.3,6.9-1.2,10,0.3c5.1,2.5,10,1.9,15,0.4l0.1-0.1c1.9,1.3,4,0.2,6,0.6c1.6,0,3.1-0.1,4.7,0.5c4.4,0.1,8.8,0.5,12.8-1.9h17.6
			c2.9,2.3,5.6,5.2,9.8,3c2,0.2,4.4,2.3,5.9-1l0,0c3.1-0.3,6.2-1.3,8.8-3l0,0l6.8,0.1l0,0c2,2,4-0.1,6-0.1l0,0h7.9
			c4.1-1.3,8.1-0.8,12.2-0.1c0,0.2,0.2,0.2,0.5,0.1l0,0l5.9,1c2.8,0.8,5.8,1.7,8.5,0.9c4.3-1.4,8.2-0.2,12.1,1.1l0,0
			c0.8,1.1,1.9,0.9,3,1l2.9-0.1c0-0.3,0-0.6,0-0.9h1c2.8-1.2,5.7-1.9,8.8-1.9c0,0.1,0.1,0.2,0.2,0.3c5.7,1.9,11.3,1.6,16.6-1.3
			l13.6,0.1c3.5,3.9,8,4.2,12.8,3.8c3.5-2.3,7.4-3.2,11.4-3.5c2.2,0,4.3,0,6.5-0.1c1.8,0,3.7-0.3,5.2,1c0.4,0.2,0.8,0.5,1.3,0.6
			c1.6,0.7,3.3,1,5.1,1c1.8,0,3.6,0.1,5.3-0.8l1.8-0.1c0.5-0.5,1.4-0.7,1.3-1.7c0-0.1-0.1-0.2-0.1-0.3c1.9,0,3.8,0.1,5.8-0.1
			c0.7-0.1,1.5-0.1,2.2-0.1c3.5,0.7,7,0.7,10.6,0.6c5.1,0.6,10.1,1.6,15.2,2.1c0.4,0.2,0.9,0.2,1.3,0.1c0.7,0.1,1.4,0.1,2.1,0.2
			c1.1-0.8,2.4-0.2,3.6-0.5c2.6-0.6,1-1.5,0.1-2.4c0.6-1.7,1.9-0.4,2.8-0.7c1.7-0.2,2.4,2.2,4.3,1.7c1.5-0.3,4.4,0.6,4.3-0.9
			c-0.3-3.9,2.6-3.3,4.6-4.1l0,0l0.1,0.2c1.9-0.4,4.1,0.5,5.8-1l3.8-1.2c3.8-3,2-8,4.1-11.6l0,0c1.2-0.6,1.7-1.4,1-2.7
			c-1.5-2.8-0.3-5.6-0.4-8.4c-0.2-5.9,4.1-10.7,3.3-16.5c-0.1-0.3-0.1-0.7,0-1c0.7-2.2,3.3-2.2,4.5-3.9c0.6-0.9,3.2-0.9,1.5-3l0,0
			c-0.3-2.3-2.3-4.3-1-6.8c0-2.3,0-4.6,0-6.9l0,0c0-0.6,0.1-1.3,0.1-1.9l0,0c0.3,0,0.6-0.1,0.9-0.1c3-1.3,0-4.4,1.9-6l0,0
			c-2.2-4.2,0.1-7.1,3-9.8c2.8-2.7,3.5-6.5,5-9.8c-1.9-2.7-4.5-5-0.7-8.7c1.1-1.1,3.9-5.1-0.3-6.8l-0.1-0.1c-0.3-0.3-0.6-0.6-1-0.9
			l-0.4-0.2c-0.6-1.3-0.2-2.3,1.3-3.1l1.3-3.6h0.8c1.9-0.1,1.2-1.8,1-2.4c-1.3-3.7,0.4-6.6,2-9.6c1.4-2.8,1.4-5.7,1.1-8.7l0,0
			l2.8-1.2c0.3-4.3,2.3-8.6,0.9-12.9c-0.7-2.2-0.8-3.5,1.3-4.9c1.3-0.9,2-2.5,3-3.8c0.1-0.1,0.2-0.3,0.2-0.4c0-0.3-0.1-0.6-0.3-0.8
			l-0.3,0c-0.5-1.5,0.5-2.9,0.2-4.4c-1.6-0.9-1.9-2.4-1.8-4l1-2.9l0,0l1.7-1.1l1.4-2.8l0.8-2.1l0,0c0.1-0.3,0.1-0.5,0.2-0.8l0,0
			c0.3,0,0.6-0.1,0.9-0.1l0,0c5-1.1,5.5-2,4-8.9v-1l0,0c0.9-0.5,2.2-1.3,1.6-2.1c-3-4,0.6-7.7,0.4-11.5c0.3,0.2,0.8,0.1,1-0.2
			c1.5-1.3,0.8-2.5-0.2-3.8c-0.6-0.8-1.4-2.3-1.2-2.5c3.6-3.5,1.6-9.3,5.4-12.5c-0.1-0.3-0.2-0.6-0.2-0.8l-0.1,0.1
			c-2.7-2.8-1-4.1,1.7-5c2.1-1,5.1-1.4,3.7-5c0.2,0,0.4,0,0.7,0c0.1-1.7,1.3-3.1-0.4-5c-1.6-1.8-1.9-5.9-1.4-6.8
			c1.9-3.6,0.9-6-1.3-8.6c-1.2-1.3-1.3-2.7,0.9-3.3c0.2-0.3,0.3-0.6,0.3-0.9c0.3,0,0.6,0,0.9-0.1l0,0c2-1.1,0.1-3.8,1.9-4.9
			c0-0.3,0.1-0.6,0.1-0.9l0,0l3.8-1.1c2.4-4.4,2.3-9.1,1-13.8c0-0.3,0-0.6,0-1l0,0c0.1-4.1-0.7-7.3-5.9-6.8c2.8-2.7,5.1-5.6,3.9-9.9
			c-1.7-2,2.2-3,1-4.9c0-2,0.3-3.8,2.9-4c0.1-0.3,0.1-0.6,0.1-1C874.5,352.3,872.3,351.6,871.3,350.9z M379.1,584.5H330
			c0,0,18.9-93.5,19.7-98.8l-46.3,98.8h-37.6l-11.4-100.6c0.8,5.3-15.3,100.6-15.3,100.6h-48.7l29.3-166h64.9l11.4,101.9l47-101.9
			h65.5L379.1,584.5z M538.2,572.4c-16.2,9.2-33.8,13.5-52.4,13.5c-21.9-0.4-42.5-4.8-57.9-22.3c-8.7-9.9-13.2-21.8-14.3-34.8
			c-2-24.3,2.4-47.3,15-68.4c14.6-24.3,36.1-39.3,63.6-45.6c17.1-3.9,34.3-4,51.1,1c24.3,7.2,39.4,23.4,44.3,48.5
			C595.5,504.1,575.4,551.4,538.2,572.4L538.2,572.4z M783,583.1h-49.1c0,0,18.9-93.5,19.7-98.8l-46.3,98.8h-37.6l-11.4-100.6
			c0.8,5.3-15.3,100.6-15.3,100.6h-48.7l29.3-166h65L699.8,519l47-101.9h65.5L783,583.1z"/>
		<path class="st4" d="M505.3,453.1c-10.7,1.1-18.8,6.8-24.8,15.5c-2.3,3.8-4.6,7.5-6.3,11.6c-5.4,13.1-7.5,27.3-6.2,41.4
			c1.3,14,9.3,22.6,21.7,23.6c12.9,1.1,23.4-3.5,30.8-14.1c11.7-16.8,15.8-35.7,13.4-55.8C532.1,459.5,521.1,451.4,505.3,453.1z"/>
		<path class="st4" d="M817.6,345.6l3.9-0.1c1.3-1.5,3.1-0.8,4.7-1h0.2c0.5-0.3,1.3-0.5,1.4-0.9c0.2-0.6-0.5-1-1.2-1h-3.2v0.9l0,0
			c-2.1,0-4.4-0.4-6.3,0.2C815,344.4,816.3,345.2,817.6,345.6z"/>
	</g>
</g>
<g id="The_Outpost" class="st1">
	<g class="st2">
		<path class="st3" d="M153.6,450.9c-39.6,0-69.5,29.6-69.5,68.9s29.8,68.9,69.5,68.9s69.5-29.6,69.5-68.9S193.2,450.9,153.6,450.9z
			 M153.6,579.1c-33.9,0-59.5-25.5-59.5-59.3s25.6-59.3,59.5-59.3s59.5,25.5,59.5,59.3S187.6,579.1,153.6,579.1z"/>
		<path class="st3" d="M329.4,545.7c0,18.5-15.4,33.1-34.9,33.1s-34.9-14.5-34.9-33.1v-92.2h-9.9v92.2c0,24.1,19.7,43,44.9,43
			s44.9-18.9,44.9-43v-92.2h-9.9L329.4,545.7L329.4,545.7z"/>
		<polygon class="st3" points="446.4,453.5 360.4,453.5 360.4,463.4 398.4,463.4 398.4,586.1 408.4,586.1 408.4,463.4 446.4,463.4 
					"/>
		<path class="st3" d="M645.3,450.9c-39.6,0-69.5,29.6-69.5,68.9s29.8,68.9,69.5,68.9s69.5-29.6,69.5-68.9S684.9,450.9,645.3,450.9z
			 M645.3,579.1c-33.9,0-59.5-25.5-59.5-59.3s25.6-59.3,59.5-59.3c33.9,0,59.5,25.5,59.5,59.3S679.2,579.1,645.3,579.1z"/>
		<path class="st3" d="M799.3,511.8c-3.9-1.5-7.8-2.8-11.7-4.1c-18.1-6.2-34-11.6-34-25.7c0-14.9,14.3-21.6,27.5-21.6
			c13.3,0,27.7,6.8,27.7,21.6v1.7h9.9v-1.6c0-21.3-19.1-31-36.9-31c-19,0-38.2,10.7-38.2,31c0,20.9,20.5,27.8,40.4,34.5
			c4.1,1.4,8.2,2.8,12.2,4.3c16.1,6.2,23.9,15.8,23.9,29.3c0,21.1-19.8,28.7-38.2,28.7c-18.5,0-38.1-9.6-38.1-30.7v-1.7h-9.9v1.7
			c0,27.9,24.9,40.6,48,40.6c29.7,0,48.2-14.9,48.2-38.8C830.1,531.9,820.3,519.8,799.3,511.8z"/>
		<polygon class="st3" points="840.9,453.5 840.9,463.4 879,463.4 879,586.1 888.9,586.1 888.9,463.4 927,463.4 927,453.5 		"/>
		<polygon class="st3" points="420.9,356.7 438,356.7 438,412.1 443.7,412.1 443.7,356.7 460.9,356.7 460.9,351 420.9,351 		"/>
		<polygon class="st3" points="517.5,369.5 488.8,369.5 488.8,351 483.1,351 483.1,375.1 523.2,375.1 523.2,351 517.5,351 		"/>
		<polygon class="st3" points="483.1,412.1 488.8,412.1 488.8,393.7 517.5,393.7 517.5,412.1 523.2,412.1 523.2,388 483.1,388 		"/>
		<polygon class="st3" points="550.3,351 550.3,375.1 577.9,375.1 577.9,369.5 556,369.5 556,356.7 589.5,356.7 589.5,351 		"/>
		<polygon class="st3" points="556,393.7 577.9,393.7 577.9,388 550.3,388 550.3,412.1 589.5,412.1 589.5,406.4 556,406.4 		"/>
		<path class="st3" d="M533,453.4h-59.3v83.8l-28.7,7.2v10l28.7-7.2v17.2l-28.7,7.2v10l28.7-7.2v82.7l9.9-2.5V572l28.7-7.2v-10
			l-28.7,7.2v-17.2l28.7-7.2v-10l-28.7,7.2v-17.6l55.2-13.6c13.6-3.3,22-17,18.7-30.6C554.9,461.5,544.7,453.5,533,453.4z
			 M536.4,493.8c-1.1,0.3-52.6,13.4-52.6,13.4v-43.7H533c8.5-0.1,15.4,6.8,15.5,15.2C548.6,486,543.5,492.3,536.4,493.8L536.4,493.8
			z"/>
	</g>
</g>
<g id="HowIMetYourMother" class="st1">
	<g id="layer101" class="st2">
		<path class="st3" d="M397.1,728.4c-0.9-0.3-3.3-1-5.4-1.7c-14.5-4.2-25.4-15.5-32.4-33.2c-4.2-10.7-6.3-26.1-5.8-42.5
			c0.5-14,0.9-17.1,3.8-28.7c2-8,7.6-19.1,12.6-24.9c10.1-11.7,22.3-17,39.5-17c11.1,0,17.6,1.4,25.9,5.6c4,2,6.7,4,10.7,8
			c7.4,7.4,11.2,13.6,14.7,23.9c2.1,6.3,2.5,8.4,4.6,22.4c1.1,6.8,0.9,20.3-0.3,29.3c-0.7,4.8-1.2,9.9-1.2,11.4s-0.3,2.6-0.5,2.5
			c-0.3-0.1-0.6,0.7-0.9,1.9c-1.7,8.2-7.7,20.8-12.7,26.3c-1.1,1.3-1.9,2.5-1.7,2.9c0.1,0.3-0.1,0.5-0.4,0.3
			c-0.3-0.2-1.5,0.6-2.5,1.7c-3.5,3.7-11.1,8.4-16.5,10c-7.4,2.3-9.5,2.5-19.5,2.5C403.5,729,398.1,728.7,397.1,728.4z M419,710.9
			c10.1-3.6,16.6-12.3,19.8-26.3c2.3-9.8,2.5-12.1,2.5-29.5c0-12.4-0.3-19.4-0.9-22.9c-2.7-14.5-6-22.6-11.5-28
			c-4.8-4.7-6-5.5-11.1-7.1c-2.9-0.9-13.1-0.9-16.1,0c-7,2.3-12.5,7-16.1,13.7c-4.7,9-6.5,17-7.8,34.2c-1.3,17.8,0.9,36.8,5.5,48.1
			c4.2,10.3,11.9,17.3,20.6,18.8C407.6,712.5,416.1,712,419,710.9z"/>
		<path class="st3" d="M719.9,728.4c-0.7-0.5-1.6-0.8-2.5-0.9c-4.6-0.7-6.4-1.4-12.1-4.1c-13.7-6.4-22.7-16.3-28.9-31.8
			c-8.8-22-7.8-58.4,2.2-79.9c3.4-7.4,10-15.7,16.7-21.1c4-3.2,12.5-7.1,19-8.7c4.2-1.1,7.9-1.4,13.9-1.4c16.5,0,27.5,3.9,36.8,12.9
			c4.9,4.8,6.2,6.6,9.1,11.7c5.5,9.9,9.1,25.5,9.1,39.7c0,4.9-0.2,6.7-0.8,6.7c-0.5,0.1-2.9,0.3-5.5,0.7c-2.6,0.4-6.6,0.9-9.1,1.3
			c-2.5,0.3-6.5,0.9-9,1.3s-6.4,0.9-8.8,1.3c-2.4,0.3-6.7,1-9.6,1.4s-7.1,1-9.3,1.3c-2.2,0.3-6.2,0.9-9,1.3l-13.9,2.1
			c-4.9,0.7-10.3,1.5-11.9,1.8l-2.9,0.4l0.5,4.4c1.3,13.1,7,26.1,14.3,32.8c3.3,3.1,9.3,6.8,12.5,7.8c8.6,2.6,16.8,3.1,26.6,1.7
			c9.6-1.5,15.2-3.1,21.3-6.1l3.1-1.6l1,2.1c0.5,0.8,0.8,1.7,1.1,2.7c0.3,1.2,0.7,2.3,1.3,3.4c2.3,5.2,2.9,7.1,2.5,8.1
			c-0.4,1.1-5,3.3-11.3,5.4c-3.7,1.3-5.9,1.8-14.9,3.5C747.3,729.2,720.3,729.2,719.9,728.4z M701.3,649.4
			c5.7-0.9,11.1-1.7,17.2-2.6c2.6-0.3,6.4-0.9,8.6-1.3c2.2-0.3,6.2-1,9-1.4s6.8-1.1,9-1.4c2.2-0.3,6.2-0.9,8.8-1.3
			c1.9-0.2,3.7-0.6,5.6-1.1c1.5-0.9-0.1-15.4-2.5-22.8c-2.1-6.2-6.7-14-7.8-12.9c-0.2,0.2-0.4,0-0.4-0.5c0-1.3-5.4-4.8-9.6-6.2
			c-1.9-0.7-6-1.3-9.8-1.5c-5.3-0.2-7.2-0.1-10.9,1.2c-4.7,1.5-11,5.2-10.5,6.1c0.2,0.3-0.1,0.5-0.6,0.5c-1.1,0-2.7,1.8-5.5,6
			c-5.4,8-8.6,19.8-9.1,34l-0.3,6.6l2.1-0.4C695.7,650.2,698.8,649.8,701.3,649.4z"/>
		<path class="st3" d="M506.6,726.2c-5-1.7-8.6-3.7-11.9-6.7c-2.6-2.5-7.4-9.2-7.4-10.5c0-0.5-0.2-1-0.5-1.4c-0.6-1-1.1-2.1-1.5-3.3
			c-0.9-2.3-1.1-11.1-1.2-54.3l-0.3-51.6h-16.5v-15.3H484V550l6.8-2.1c3.7-1.2,7.7-2.4,8.8-2.7c1.1-0.3,3.3-1,5-1.5s3.2-0.8,3.5-0.6
			c0.3,0.2,0.5,9.2,0.5,20.2v19.8h24.5v15.3h-24.5v99.4l1.6,3.5c1.9,4.2,3.3,5.9,6.7,7.9c2.3,1.3,3.5,1.6,9.5,1.6h6.8v15.3l-3,0.8
			c-1.7,0.5-6.6,0.8-11.1,0.7C512.6,727.6,510,727.3,506.6,726.2z"/>
		<path class="st3" d="M153,658.3v-68l3.8-1.7c7.6-3.4,17-5.9,27.8-7.5c7.1-1,27.5-0.9,33.4,0.3c11.5,2.3,20.7,6.8,26.8,13.4
			l2.1,2.2l2.3-2.2c2.5-2.3,9.3-7,11.9-8.2c6.5-2.9,8.6-3.6,16.6-5.2c5.1-1.1,20.6-1.3,25.1-0.2c6.4,1.4,9.2,2.2,10.7,3.1
			c0.7,0.4,1.4,0.7,2.2,0.9c1.3,0,8,4.9,11.3,8.4c3.8,3.9,7.8,10.9,9.2,15.9c1.6,6.1,1.7,12.5,1.8,63.5l0.1,53.5h-24.5v-54.6
			c0-53.7,0-54.7-1.4-58.9c-2.8-8.6-8.6-13.5-18.1-15.6c-8.2-1.8-16.7-0.7-24.9,3.3c-1.3,0.6-2.6,1.4-3.8,2.3
			c-0.4,0.4-0.8,0.7-1.3,0.9c-0.3,0-1.7,1.1-3.3,2.6l-2.8,2.6v117.6h-24.5l-0.2-55.9l-0.2-55.9l-1.7-3.3c-1.9-3.9-7.4-9.7-10.6-11.1
			c-5.8-2.7-9.2-3.4-16.8-3.6c-8.9-0.3-15.7,0.6-22.2,3c-2.3,0.9-4.4,1.5-4.4,1.5s-0.3,28.2-0.3,62.7v62.7H153V658.3L153,658.3z"/>
		<path class="st3" d="M550.4,625.6V524.7h24.5v32.5c0,17.9,0.1,32.5,0.2,32.5c0.8-0.2,1.5-0.6,2.2-0.9c10.9-5.2,18.8-7,31-7
			c8,0,10,0.3,17.7,2.1c10.6,2.8,19.5,9.8,24.5,19.5c4.4,8.9,4.2,5.5,4.4,67.1l0.3,55.9h-24.6v-53.8c0-55.8,0-56.3-2.8-62.1
			c-1.8-3.6-5.6-7.8-6.6-7.1c-0.5,0.3-0.6,0.2-0.4-0.2c0.6-1-1.9-2.5-6.8-4.1c-3.4-1.1-5.9-1.4-12.7-1.4c-10.3,0-17.2,1.5-24.1,5.3
			l-2,1.1l-0.2,61.1l-0.1,61.2h-24.5V625.6z"/>
		<path class="st3" d="M798.5,658.4v-68l1.7-0.7c0.9-0.3,3-1.3,4.6-1.9c4.3-2,7.5-3,16.3-5c9.4-2.1,39.8-3.3,39.8-1.4
			c0,0.7-1.2,4.7-5,16.9c-0.2,0.6-0.9,0.7-2.5,0.5c-6-1.1-12.5-1.7-16.1-1.3c-4.2,0.4-12,2.6-13.4,3.7c-0.7,0.5-0.9,13.9-0.9,63
			v62.3h-24.5L798.5,658.4L798.5,658.4z"/>
		<path class="st3" d="M595.1,571.4c0.3-0.7,0.5-1.4,0.6-2.2c0.1-0.6,0.4-1.2,0.9-1.5c0.4-0.3,0.7-0.8,0.8-1.4
			c0.3-1.3,0.7-2.5,1.4-3.6c0.6-1.3,1.1-2.7,1.5-4.1c0.1-0.7,0.3-1.3,0.6-1.3c0.3-0.1,0.5-0.3,0.5-0.7c0.3-1.3,0.8-2.5,1.3-3.6
			c3.3-7.4,3.9-8.8,5-11.9l1.1-3.3l-13.9-41.8c-7.7-23-14.2-42.3-14.4-42.9c-0.5-1.1,0.2-1.2,7.5-1.2h8l0.7,1.9
			c0.4,1,3.9,12.9,7.8,26.3c3.8,13.5,7.6,26.7,8.4,29.2c0.7,2.5,1.7,6.3,2.1,8.3l0.7,3.6l0.8-2.7c0.5-1.5,1.2-4,1.7-5.6
			c0.5-1.7,1.3-4.6,2-6.6c0.7-2,1.5-4.8,1.9-6.3c0.5-1.5,1.6-5.5,2.7-9c1.1-3.4,2.9-9.4,4-13.3c1.1-3.8,2.3-7.7,2.7-8.6
			s1.2-3.9,2-6.6c0.6-2.2,1.3-4.4,2.1-6.5c0.3-0.9,0.5-1.8,0.6-2.8c0-1.3,0.5-1.3,7.3-1.3c4,0,7.3,0.1,7.3,0.2s-2.4,7.5-5.3,16.3
			c-2.9,8.8-5.2,16.4-5,16.7c0.2,0.3,0.1,0.6-0.1,0.6c-0.3,0-1.1,1.6-1.7,3.5s-1.9,5.8-2.9,8.8c-0.7,2.1-1.4,4.2-1.9,6.3
			c-0.1,0.6-0.3,1.2-0.6,1.8c-0.5,0.7-2.7,7.2-3.5,10.1c-0.1,0.5-3.3,10-6.9,20.9c-3.6,10.9-7.8,23.4-9.1,27.5l-2.5,7.6l-8.2,0.2
			C595.2,572.5,594.7,572.4,595.1,571.4z"/>
		<path class="st3" d="M753.8,540.6c0.1-0.3-1.5-0.7-3.6-0.9c-4.8-0.6-11.5-3.7-14.7-7s-5.9-8.8-6.6-14c-0.3-2.3-0.7-18.4-0.7-35.6
			v-31.4h15.3v32.8c0,34.6-0.1,33.9,3.1,38.9c4,6.3,16,8.1,25.9,3.8l2.9-1.2v-74.4h14.6v81.9l-3.3,1.5c-5.4,2.4-11.9,4-19,4.8
			C759.3,540.9,753.4,541.1,753.8,540.6z"/>
		<path class="st3" d="M453.8,539.7c-7-1.1-9.3-1.9-13.7-4.6c-7.1-4.2-12.7-11.5-15.3-19.9c-3.4-11.2-3.4-29.6,0-40.6
			c2.6-8.2,8.5-16.1,14.9-19.8c9.4-5.4,23-5.9,32.7-1.3c6.8,3.2,12.5,10.1,15,18.3c2.5,7.8,3.6,21.8,1.8,21.8
			c-1.1,0.1-10.9,1.4-26.1,3.6c-4,0.6-9.7,1.4-12.6,1.8s-6.6,1-8.1,1.3c-1.5,0.3-3,0.5-4.5,0.6c-1.7,0-1.7,0.1-1.3,3.2
			c1,7.5,4,14.5,8.1,18.5c4.6,4.7,9.3,6.3,18.3,6.2c7.1,0,12.1-1,17.1-3.3c2.7-1.3,2.9-1.3,3.7-0.3c0.4,0.6,0.7,1.3,0.9,2
			c0.3,1.3,0.7,2.5,1.3,3.6l1.4,2.8l-1.4,1.1c-2.1,1.7-11.7,4.3-18.7,5.1C460,540.7,460.9,540.8,453.8,539.7z M442.6,491.5
			c2.5-0.3,6.5-0.9,8.8-1.3c3.9-0.7,5.7-0.9,17.4-2.6c7.5-1.1,7.1-0.9,6.8-5.2c-0.7-10.3-4-16.8-10.5-20.2c-3.8-2-12.8-2-16.6,0
			c-4.6,2.5-8.1,6.6-9.9,11.5c-1.4,3.6-3.1,12.5-3.1,16.5c0,2.5,0.2,2.8,1.1,2.5C438.6,492.1,440.6,491.7,442.6,491.5z"/>
		<path class="st3" d="M679.4,539.7c-14-2.3-22.9-12.2-26.6-29.6c-1.5-7-1.3-24.7,0.5-31.7c1.4-5.7,4.4-12.9,6.5-15.7
			c6.4-8.4,14.6-12.3,25.6-12.3c14.3,0,24.5,6.8,29.8,19.9c5.1,12.5,5.7,32.9,1.4,46.1c-4.6,14.2-12.5,21.3-26.3,23.5
			C685.3,540.8,685.6,540.8,679.4,539.7z M688.5,529.3c3.4-0.7,7.4-2.9,9-4.6c1.8-2.3,4.7-8.6,5.4-11.9c2.4-11.1,2.1-28.3-0.8-37.5
			c-2.9-9.6-6-12.9-13.3-14.6c-6.8-1.5-13.3,1.3-17,7.6c-6.7,11.1-7.2,39.5-0.8,51.8c2.7,5.1,5.4,7.4,10.6,8.9
			c1.7,0.5,3.3,0.9,3.3,0.9C686.1,529.8,687.3,529.6,688.5,529.3L688.5,529.3z"/>
		<path class="st3" d="M516.3,537.9c-4-1.5-7.9-5.1-10.2-9.6l-1.8-3.3l-0.2-31.6l-0.2-31.7H494v-10h10v-19.6l5.2-1.5
			c2.8-0.9,5.8-1.9,6.6-2.2c0.7-0.3,1.4-0.5,2.1-0.6c0.4,0,0.7,4.8,0.7,11.9v11.9h15.6l-0.2,5l-0.3,5h-15.2l0.2,30.1l0.2,30l1.6,2.5
			c2.1,3.3,4.4,4.4,9.4,4.4h4v4.5c0,4.2-0.1,4.6-1.7,5.3C529.5,539.7,520,539.4,516.3,537.9z"/>
		<path class="st3" d="M301.6,497.5v-41.1l2.4-1c8.5-3.5,16.4-5,27.1-5c11.5,0.1,19.7,2.5,24.7,7.3c1.2,1.1,2.3,2,2.6,2
			c0.3,0,1.5-0.9,2.8-1.9c9.1-7.8,27.3-9.8,38.9-4.3c3.3,1.5,9.1,7.2,10.5,10.2c2.4,5.4,2.5,6.6,2.5,40.9v34.1h-14.6v-32.2
			c0-33.7-0.1-35.6-2.9-39.7c-3-4.4-6.2-5.8-13.3-5.8c-6.8,0-10.6,1.3-14.6,4.9l-2.3,2.1v70.8h-15.2l-0.2-34
			c-0.2-37.6-0.1-36.2-4.6-39.9c-4-3.4-6.2-4-14.9-3.9c-5.4,0.1-8.8,0.4-10.6,1.1l-2.7,1l-0.2,37.9l-0.1,37.9h-15.3V497.5z"/>
		<path class="st3" d="M801.8,497.6v-41.1l3.5-1.5c7.3-3.2,15.6-4.6,26.5-4.6h7.9l-0.5,2.2c-0.6,2.9-2.3,7.9-2.9,9
			c-0.5,0.7-0.9,0.7-2.1,0.1c-2-1.1-12.3-0.6-14.9,0.7l-2,1l-0.2,37.7l-0.1,37.6h-15.3V497.6z"/>
		<path class="st3" d="M297.6,428.1c-8-1.5-14.1-4.5-19.6-9.8c-8-7.9-11.3-15.5-14.3-31.8c-1.5-8.7-0.6-26.8,1.9-37.2
			c1.8-7.7,6.2-16.3,11.3-21.8c6.1-6.6,17.4-11,28.6-11c17.1,0.1,30.3,9,36.9,24.9c1.2,3,1.7,4.8,3.6,12.3c0.3,1.3,0.9,6.4,1.3,11.3
			c0.6,7.4,0.6,10.4-0.3,17.6c-0.5,4.8-1.3,9.8-1.7,11.3c-0.3,1.5-0.9,3.6-1.1,4.6c-1.3,5.8-8,17.1-12.2,20.8
			c-7.6,6.4-13.9,8.8-24.9,9.1C302.9,428.3,298.5,428.3,297.6,428.1z M312.3,414.6c6.1-1.8,11.5-8.6,14.1-17.6
			c5.5-19,2.7-51.6-5.1-60.3c-0.5-0.5-0.9-1.1-1.2-1.8c0-1-5.1-4.2-8.5-5.4c-5.6-1.9-10.7-1.3-16.6,1.7c-4.7,2.5-9.8,10.8-11.7,19.6
			c-1.5,6.6-2.1,30-1,37.1c1.7,10.3,5.2,18.5,9.6,22.5C297.6,415.4,304.7,416.9,312.3,414.6z"/>
		<path class="st3" d="M172.9,348.3V270h18.6l0.1,26.9l0.2,26.9l1.9-1c2.3-1.2,6.8-2.8,11.5-4c4.6-1.2,17.8-1.2,23,0.1
			c5.4,1.3,11.8,4.6,15.2,8c3.4,3.4,6.8,9.9,7.7,14.8c0.4,2.1,0.7,19.9,0.7,44.2v40.7h-17.9v-38.8c0-24.7-0.3-40-0.7-42.3
			c-1.5-7.6-5-11.9-11.9-14.5c-6.6-2.5-20.4-1.1-27.5,2.7l-2,1.1l-0.2,45.8l-0.1,45.9h-18.6V348.3z"/>
		<path class="st3" d="M377.6,424.4c-0.3-1.2-1.1-4.1-1.7-6.5c-0.7-2.4-1.7-5.5-2.1-7s-0.9-3.4-1.2-4.3c-0.3-0.9-0.9-3-1.3-4.6
			c-0.5-1.7-1.1-3.7-1.3-4.6c-0.3-0.9-0.9-3-1.3-4.6c-0.5-1.7-1.1-3.7-1.3-4.6c-0.3-0.9-0.9-3-1.3-4.6c-0.5-1.7-1.1-3.7-1.3-4.6
			c-0.3-0.9-0.9-3-1.3-4.6c-0.5-1.7-1.1-3.7-1.3-4.6c-0.3-0.9-0.9-2.9-1.2-4.3c-0.3-1.5-1.3-4.7-2.1-7.3c-0.7-2.6-2.6-9-4-14.3
			c-3.3-11.9-5.1-18.3-6-21c-1.4-4.4-1.6-4.2,8.6-4.2c5.1,0,9.3,0.1,9.3,0.3s0.6,2.6,1.3,5.4c0.7,2.9,2.5,10.3,4,16.5
			s3,12.3,3.3,13.6c0.3,1.3,1.7,6.7,3,12.1c1.3,5.4,3.4,14.1,4.7,19.6s2.6,11.1,2.9,12.7c1.5,7.5,1.4,7.4,2.7,1.7
			c0.7-2.9,1.5-6.4,1.9-7.6c0.3-1.3,1.3-4.6,2.1-7.3s1.9-6.6,2.5-8.6c1.7-6,2.8-10,4.3-15.3c0.7-2.7,1.7-6,2-7.3
			c0.3-1.3,0.9-3.2,1.3-4.3c2.3-8.2,4.9-17.5,7.3-26l1.5-5.5h16.3l0.3,1.9c0.1,1,0.8,3.5,1.4,5.6c0.6,2.1,1.5,5.5,2.1,7.6
			c0.6,2.1,1.3,4.7,1.6,5.8c0.3,1.1,1.2,4.2,1.9,7c0.7,2.7,2,7.2,2.8,10c0.8,2.7,1.7,6,2,7.3c0.3,1.3,1.2,4.6,2,7.3
			c0.8,2.7,2.1,7.2,2.8,10s1.5,5.9,1.9,7c0.7,2.7,2.3,9,3.5,13.9l0.9,4l0.5-3.6c0.4-2.5,0.8-4.9,1.5-7.3c0.5-2,1.3-4.8,1.6-6.3
			c0.3-1.5,0.9-3.8,1.3-5.1s0.9-3.6,1.3-5s3.1-12.1,6-23.7c3-11.7,6.2-24.5,7.2-28.5l1.9-7.3l8.4-0.2c6.4-0.1,8.4,0,8.4,0.7
			c-0.3,1.8-0.8,3.5-1.3,5.2c-0.7,2.4-1.9,6.4-2.6,9c-0.7,2.5-2,6.9-2.8,9.6c-0.8,2.7-2,7.1-2.7,9.6c-1.7,6.2-3.4,12.2-5.1,17.9
			c-0.8,2.6-4.1,14.2-7.4,25.9s-6.6,23.2-7.4,25.7l-1.3,4.4h-15.7l-0.7-1.8c-0.3-1.1-1-3.2-1.5-4.8c-0.5-1.7-1.1-3.7-1.3-4.6
			c-0.3-0.9-0.9-3-1.3-4.6c-0.5-1.7-1.1-3.7-1.3-4.6c-0.3-0.9-0.9-3-1.3-4.6c-0.5-1.7-1.1-3.7-1.3-4.6c-0.3-0.9-0.9-2.9-1.3-4.3
			c-0.4-1.5-1.5-5.3-2.5-8.6s-2.1-7.6-2.7-9.4c-0.5-1.9-1.4-5.1-1.9-7s-1.5-5.7-2.3-8.4c-0.5-1.9-1.1-3.8-1.9-5.6
			c-0.3-0.6-0.5-1.2-0.6-1.8c-0.5-3.6-1.8-9.3-2.1-9c-0.3,0.3-1.1,3-2,6.2c-1.5,5.4-3.4,12.4-4.8,17.1c-0.3,1.1-0.9,3.2-1.3,4.6
			c-0.9,3.4-1.9,6.8-2.7,9.3c-0.3,1.1-0.9,3.1-1.3,4.3c-0.4,1.3-0.9,3.4-1.3,4.6c-0.4,1.3-1,3.4-1.3,4.8c-0.3,1.4-1,3.4-1.3,4.6
			c-0.3,1.2-1.3,4.2-2,6.8c-0.7,2.5-2.3,7.8-3.4,11.6c-1.1,3.8-2.3,7.6-2.5,8.5c-0.3,1.4-0.6,1.5-8.5,1.5H378L377.6,424.4z"/>
		<path class="st3" d="M552.4,372.5v-54.1h18.6v108.1h-18.6V372.5z"/>
		<path class="st3" d="M556.3,297.3c-6.4-3.4-7.2-12.5-1.3-16.7c1.6-1.1,11.3-3.1,10.3-2.1c-0.1,0.2,0.7,0.9,1.9,1.5
			c6.9,3.6,6.8,13.9-0.2,17.4C564,298.9,559.3,298.9,556.3,297.3z"/>
	</g>
</g>
<g id="Friends" class="st1">
	<g class="st2">
		<path class="st3" d="M130.6,438.7l-0.4,0.2c1,3-0.4,6.5-2.3,8.6c-1.3,1.7-4.2,1.7-6.5,2.1c-0.2-0.8-1.9,0.4-2.7-0.2
			c-4.4,0.2-8.2,1.9-11.6,3l-0.6-0.4c0.2,1.1-1,0.8-1.5,1.1c-2.9,1.3-5.3,2.9-8.4,3.8c-3,2.5-4.9,6.3-6.5,10.1c-0.8,0,0,1.1-0.6,1.3
			c-2.5,2.1-2.7,6.8-1.9,10.3c2.3,2.9,7.4,3.2,11.2,2.1c2.9-1,6.1-1.1,9.1-0.6c6.1-1,12.9-1.5,18.8-2.7c5.3,0,10.1-1.9,15.2-1
			c1,3-2.9,3.6-4.2,5.3L136,482l0,0c-4.4,0.2-8,1.7-11.6,3c-1.1,1.1-3,1.1-4.2,2.1c-1.7,0.4-3.6,0.5-5.3,0.2
			c-1.7,0.2-2.3,1.1-3.8,1.3c-0.8,1.1-1.9,1.8-3.2,2.1l-1-0.2c0,0.4-0.2,0.7-0.6,1c-0.8-0.8-1.1,1.1-2.3,0.2l-3.2,0.6l0,0l-4.6,0.6
			v-0.2c-5.9,1.1-11.6,3.2-15.4,7.4c-1.3,4,0,10.1-1.1,14.5c0.2,0.8-0.6,1.7-0.2,2.9c-1.7,10.8-4.2,20.9-4.8,32.5
			c0.6,3.2,0,7.6-1.5,10.5c-0.6,0.4-0.6,1.1-0.8,1.5c-1.9,2.1-3.4,5.1-7.2,4c-1.7-0.2-1.5-2.3-2.1-3.4c-0.8-7.4,2.1-13.3,2.7-20.2
			c1.1-4.8,2.1-8.4,4-12.5c0.6-3.6-1-6.8-0.6-10.8c0.8-1.7,0.6-4,1.1-5.5l-0.2-0.6l0.2-0.2c-0.6-0.6,0.2-1.1,0.4-1.7l1.1-7.8
			c-0.4-1.5-0.4-3.1,0-4.6l-0.4-0.6h0.2c0-3.6-2.1-5.9-3-8.9c0.4-0.8,0-2.9,1.3-3.6c1.7-3.6,5.7-5.7,6.5-10.1c1.7-5.5,1.9-12,4-17.1
			c0.5-2.7,1.5-5.3,3-7.6c1-1.5,1.5-3.4,3-4.6c1.3-2.7,5.1-1.9,7-4c1.1-0.2,2.1-0.6,3-0.6v0.2c6.5-1.7,13.5-3.4,19.8-5.5
			c3.4-2.3,9.1-1.9,12.4,0.4C129.5,437.2,130.1,437.9,130.6,438.7z"/>
		<path class="st3" d="M664,441.5c1.9,7.2-5.7,7.6-6.7,12.9c-1,9.3-6.8,15-8.6,23.8c-0.8,3.2,0,7.6-1.9,10.1c-3.4,3-3,9.7-3.4,14.6
			c-0.6,8.7-0.4,18.4-8.2,21.7c-1.7,1.1-3.4-0.2-4.9-0.8c-1.3-1.9-3.6-3-4.9-4.9c-2.5-1.7-5.5-2.3-7.8-4.2c-2.7-1.1-4.8-3-7-4.8
			c0-1.1-1.5-0.6-1.3-1.5c-1.7-1.3-3.2-2.8-4.6-4.4c-2.3-1.1-3.4-3.4-5.7-4.6c-1.9-1.1-3.2-2.5-5.3-3.2c-1-0.6-1.7-1.7-3-1.9
			c-4,1.1-4.9,5.9-5.3,9.5c-0.8,4.6,0.2,10.5-3.4,12.9c-0.8,3.2-0.4,7.6-0.6,10.6c-0.7,1.5-1.9,2.7-3.4,3.4c-1.7,0.2-3.4,0-4.9-0.6
			l-0.2,0.2c-0.8-0.1-1.5-0.5-2.1-1.1c-0.4-4.2-1.1-8-0.2-12.2c-0.4-3,0.6-4.9,0.6-8.4c0.4-3.4,2.1-5.9,2.1-9.7
			c0.5-1.2,0.9-2.4,1.1-3.6c1.3-4.8,2.9-9.3,3.8-14.2c0.4-2.7,0.6-5.5,1.5-7.8c-0.2-0.8,0.6-1.7,0.8-2.7c1.3-2.3,4.4-2.5,7.2-2.5
			c1.2,0.5,2.4,1.2,3.4,2.1c4.2,3.2,5.9,8.7,8.9,13.1c0.6,1.1,1.9,1.5,2.5,2.5c4,1.3,4.2,5.9,7.8,7.6c0.6,0.8,1.5,1.3,2.3,2.1
			c2.3,1.5,4,3.4,6.7,4.4c1,1,2.3,1.5,3.4,2.3c2.1,0.8,5.1,3.2,6.7-0.2c7.2-7.8,8.7-20,14.6-28.7c1.9-2.9,2.1-6.7,3-10.3
			c1.7-3.6,3.8-7,5.3-11c2-4.3,4.3-8.4,6.8-12.4C660.9,440,663.2,440,664,441.5z"/>
		<path class="st3" d="M367.5,457.5c1.7,5.7,0,12.7-1.1,18.4c-1.7,5.5-2.7,11.8-6.1,16.2c-2.3,2.1,0.6,6.5-1.5,8.6
			c-5.1,4.6-3.6,15.2-4,21.7c0.3,1.3,0.4,2.7,0.2,4c-1.3,2.1-3.8,0.4-6.3,0.2c-2.7-0.4-3.6-3-4.2-5.5c0.4-0.2,0.2-1.1,0-1.3
			c1-5.9,3.2-11,5.1-16.2c1.5-3.4,0-7.2,1.1-10.8c1-3,1.7-6.3,3-9.1c0.8-2.7,1-4.4,1.5-7.2c0.6-2.5,1.1-5.1,1.7-7.6
			c1.1-2.7,1.1-6.8,2.7-9.5c-0.6-1.7,1-2.9,1.3-4.2C363.6,455.6,366.2,455.6,367.5,457.5z"/>
		<path class="st3" d="M495.1,463.8c0,2.1,0.4,4-1.1,5.5c-5.3,2.2-10.9,3.6-16.5,4.2c-6.7,1.3-14.6,2.1-18.6,8
			c0.2,1.3-1.1,3.2,0.4,4.2l1.1,1.1c6.3-1.1,12-3,18.6-3.6c1.5,0.6,2.9-0.4,4.6,0c9.5,1.5,18.1,0.8,28.3,0.6
			c0.6,0.8,1.3,1.5,0.6,2.5c0,0.2,0.2,1.5-0.2,2.1c-1.5,1.3-3.6,2.3-5.9,1.7c-1.8,0.4-3.6,0.4-5.3,0c-1.6,0-3.2,0.2-4.8,0.8
			c-1,1-2.3,1.1-3.2,1.5l-0.2-0.2c-4.2,0-7.2,1.7-10.5,3c-3,2.3-7.8-0.2-11.6,1.5c-4.4,3-10.8,3-15.2,6.3c-4.2,2.7-4.4,8.6-4.8,14.1
			c1.9,1,3.8,2.3,6.5,1.5c3-1.5,5.9-4,9.5-4c1.9,0.6,3.4-0.6,5.3-0.8c4.6-2.1,10.3-2.5,15.4-3.8c0.4,0.6,0.8,0,1.3-0.2
			c3.6-0.2,7-1,9.3-2.9c1.1,0.2,2.9,0.2,2.5,1.7c1,5.3-3.8,6.5-6.7,8.4c-5.1,2.7-9.9,5.7-15.8,7c-1.7,1-3.6,1.3-5.3,2.1
			c-0.6-0.8-1,0.4-1.5,0.4c-1.3,0.2-2.3,0.8-3.4,1.1c-2.6,0.9-5.3,1.6-8,2.1v0.2l-3.2,1l0,0c-2.8,0.4-5.5,1-8.2,1.9
			c-2.3,0.2-5.3,0.4-8,0.6l0,0c-1.1,0-2.9-0.4-3.6-1.3c-1.2-3-1.7-6.3-1.7-9.5c-0.8-0.2,0.6-0.6-0.2-1c0.4-1.1-0.2-2.1,0.8-3
			c-0.8-2.3,1-3.8,1.5-5.7c1.5-1.1,2.7-2.7,2.5-5.1c-0.4-4.6-4.6-9.9,0.2-13.1c2.5-0.6,3-2.9,3.4-4.8c0-2.1,0.4-4.1,1.1-6.1
			c0.2-3.4,2.5-5.3,3.2-8.2c3.2-6.3,7.8-11.4,15-12.9c3.8-0.4,6.3-0.8,10.3-1c0.8,0.4,2.1-0.8,3.2,0c3-0.8,6.1-1.1,8.7-2.3
			c1-0.4,1.3-1.5,2.5-1.3C491.1,458.4,494.2,460.3,495.1,463.8z"/>
		<path class="st3" d="M942.3,462.8c1.1,2.3,1.9,6.7,0,8.7c-4.6,3-11,3.2-15,6.8c-8.2,4.2-16.1,9-23.6,14.5c-1,2.7,1.7,2.5,2.5,3.8
			c4.2,1.3,8.9-0.6,13.1-1.1c9.3-0.1,18.6,1.1,27.6,3.4c1.5,0.6,3.4,0.8,4.8,1.7c0.6,0,1.1,0.6,1.5,0.8c0.8,4.9-0.2,10.5-3.6,13.1
			c-1.7,1.7-4.2,2.7-6.3,3.8c-10.5,5.7-23,8.7-33.7,14.5c-3.2,0.4-6.2,1.7-8.7,3.8c-2.7,0-5.9,0.4-7.6-1.1c0.2-3.6,0.6-7.6,4-8.7
			c5.7-2.5,14.8-0.2,18.6-5.5c5.5-6.5,19.8-3,20.3-14.2c-1.1-0.6-2.1-1.3-3-2.1c-2.3,0.2-4.8-0.4-6.5,0.6c-1.9-0.2-4.4,0.4-6.5,0.4
			c-4.4-0.8-11-0.2-15.6-0.6c-4.2,0.4-9.5,1.1-13.1,0.2l-7.4-5.5c-1-5.9,2.9-8.6,6.1-11.2c3.2-2.3,6.3-4.8,9.7-6.7
			c2.1-2.3,4.9-3.8,7.6-5.7c1.5-1.3,3.4-2.1,5.3-3c6.5-3.2,13.5-5.5,18.8-10.1C934.4,461.1,939.9,459.6,942.3,462.8z"/>
		<path class="st3" d="M275.5,510.3c-4.8-1-10.6-2.1-15.4-2.7c-2.1-0.4-3.2,0.2-5.1-0.4c-2.3,0.4-3.2-1.9-5.1-2.3
			c-1.7-0.6-3.6-1.5-5.3-1.3c-4.2-1.7-9.3-1.9-12.7-4.6c-1.3-0.6-1-2.1-0.2-3c1-0.6,1.1-1.7,2.3-2.1c2.5-2.5,5.5-4.4,8.6-6.3
			c2.5-1.1,4.8-2.9,7.4-3.8c0.6-1.5,2.7-0.8,3-2.3c1.6-0.7,3.1-1.8,4.4-3c2.3-1,3.4-3,3.6-5.9c1.1-2.7,4-3.6,4.8-6.3
			c0.6-1.1,0-2.5,0-3.2c-1.1-3.4-4-5.9-7.2-7.4c-2.5-0.8-5.3-1.1-8-1.7c-5.3-0.4-12-1.1-17.5,0.8c-1.1,0.7-2.3,1.2-3.6,1.5
			c-1.1,1-1.9,1.9-3.8,1.9c-2.2,1.4-4.7,2.1-7.2,2.1c-1.3,0.2-4.6,0-5.5-1.7c-2.1-1.7-5.1-1.1-7.8-0.6c-0.2,0.4-0.2,1.1-0.8,1.1
			c-1.9,5.3-1.9,12.9-3.8,18.6c0,0.8-0.8,1.5-0.2,2.5c-1.7,4-1.9,9.3-3.6,13.3l0.2,0.4c-1,2.1-0.8,4.8-1.7,6.8
			c-0.6,0.8-0.2,2.5-0.4,2.9c-0.2,1.5-1.1,3.2-1,4.8c-1.1,0.2-0.2,1.9-0.8,2.5c-0.8,2.9-1.3,5.7-2.5,8c-0.4,1.3-0.2,3.2-1.1,4
			l-0.4,1.9c-1.3,2.1-1.5,4.9-2.5,7.4c-0.8,4.4-2.1,8.9-2.3,13.1c-1.1,0.6-0.2,2.7-1,3.6c0.2,1.5,0,5.9,0.2,7.6h-0.2
			c0.8,2.9,0.6,7.2,1.9,9.9l2.5,0.2c0.8-0.2,2.5,1.1,2.9-0.4l1.1-9.7c0-4-1-5.3,0-9.5c2.3-2.1,2.3-6.1,3.4-9.1l-0.2-0.4
			c1.9-7.8,2.5-17.7,5.7-25.1c1-1.9,1.7-4.2,3.6-5.3c1,0.6,1.1,0,1.9,0.6c4.6-0.2,9.1,1,13.5,1.5c1.3-0.8,2.1,0.8,3.2,0.2v0.4
			c4.4,0.8,8.9,1.5,11.8,4.6c4.2,1,7.2,0,11.2,0.8c6.5,0.4,12.2,3.2,19,2.9c3,0.8,5.5-0.6,8.4-0.8c0.8-0.8,2.1-1.1,3-1.5
			C276.5,513.6,276.5,512.1,275.5,510.3z M216.7,491.7c-1.1,0.6-1.9,1.3-3.4,1.3c-1.1-0.8-3.2-0.8-3.2-2.5c1.1-1-0.6-2.5,0.6-3.4
			c0.2-1.5,0.8-3.4,0.6-4.8c1-1.1,0.2-3,1.3-4c1.7-4,7.2-3.6,10.5-5.7c3.8-1.1,6.3-4,10.3-4.9c2.9-1.1,6.5-2.1,9.7-1.9
			c0.4-1,1.1,0.6,1.5-0.6c2.1,0.6,4.2,1,6.3,1.3c0.4,0.6,0.4,1.5,0.8,2.1c-4,4.6-9.7,7.2-14.1,11
			C231.2,484.5,224.6,489.1,216.7,491.7L216.7,491.7z"/>
		<path class="st3" d="M811.3,485.2c0.2-2.9-0.8-4.9-1.7-7.2c-2.3-2.9-4.9-6.1-8-8.4c-5.9-5.3-15.6-6.1-22.6-10.1
			c-5.7-1.3-12.7-0.6-18.4,0.2c-6.1,0-12-1.3-16.5-4c-1.3,1.1-2.1,3-3.2,4.4l-0.2,7c0.4,3.6-1.7,5.7-3.2,8c-3,2.7,1.5,8-2.3,10.3
			c-3.6,6.8-5.7,15-8,23l0.2,3c-1.1,2.3-2.9,3.6-4.8,5.3l-0.4,4.6c0.4,2.9,1.5,5.3,2.5,7.8c2.1,1.9,1.5,5.5,2.3,8.4
			c2.9,0.6,5.1,1,7.8,0.4c2.1-1,2.9-3.6,2.9-6.5c0.6-1.9-1-2.9-1.9-4.2c1.9-2.2,4.4-3.9,7.2-4.8c5.5-1,12.4-1.7,18.3-2.9
			c14.1-3,29.1-6.5,41.1-13.1c2.3-1.9,4-4.2,6.5-5.7C814.8,498.6,810,490.6,811.3,485.2z M804.9,490.9c-1.2,2.6-3,4.9-5.1,6.8
			c-2.5,2.7-7.6,1.5-10.6,3.6c-8.9,3.2-19.6,9.3-29.7,6.3c-1.1-1.1-1-3.4-2.9-4c-5.3-1.7-11,5.7-15-0.2c0-2.3,0.5-4.7,1.3-6.8
			l-0.2-0.2c2.1-5.9,5.9-10.8,7.2-17.3c2.1-2.5-0.6-8.6,3.2-9.5c6.8,2.1,14.1,3.6,22.6,3c4.4-0.2,7.6,0.6,11.6,1.1
			c6.5,1,12.2,4.4,14.8,9.9C802.6,486.6,806.4,487.3,804.9,490.9z"/>
		<path class="st3" d="M163.7,494.9c0.6,0.8,1.7,1.1,1.9,2.3c1.5,0.8,1,3,1.5,4.6c-1,0.2-0.2,1.7-0.8,2.3c-0.7,1.8-2,3.2-3.6,4.2
			c-1.7,0-3.8,1.1-5.5,0l-0.4,0.4c-0.4-1.7-1.7,0.2-2.7-0.8c-2.7-1.7-7.4-2.5-6.7-7.2c0.2-5.1,3-8.7,7.2-10.3
			C158.8,490.6,160.9,493.4,163.7,494.9z"/>
		<path class="st3" d="M315.4,491.9c1-0.2,0.8,1,1.1,1.3c1,1.9,1,5.5,0.8,7c0.6,1.3,1.3,3.4,0.4,4.6c-1.1,0.8-1.5,1.7-3.2,1.7
			c-3.4-0.6-5.1,0-8-0.6c-2.5-1.7-2.5-5.7-2.5-9.3c0.6-3,2.1-5.5,5.3-6.1C311.5,490.9,314.7,489.8,315.4,491.9z"/>
		<path class="st3" d="M691.5,493.8c1.1,3,1.3,8.9-0.2,11.6c-1.5,1.3-2.5,2.9-4,3.8c-3-0.8-6.1-1.5-8-3.8c-1.7-2.5-4.2-6.1-2.3-9.9
			c1.1-0.2,1.1-2.1,2.7-1.5c3,0.4,4.6-3.2,8-1.3C688.9,493.2,690.4,493.4,691.5,493.8z"/>
		<path class="st3" d="M410.5,496.3c0.8,1.1,0.6,3.2,0.4,4.4c0,2.3-0.8,5.1-1.1,7.6c-2.2,1.7-5.1,2.3-7.8,1.7
			c-4.4-1.9-6.8-6.1-8.9-9.9c-0.6-2.3,2.7-2.9,3.4-4.9c2.7-2.1,7.4-3.2,11-1.7C408.8,494,409.8,495,410.5,496.3z"/>
		<path class="st3" d="M857.5,498c1.3,2.5,0.4,5.9,0,8.6c-0.8,1.1-2.3,1-3.6,1.3c-2.3,1-5.3,0.2-7-1.1c-0.5-0.6-1-1.2-1.3-1.9
			c-1.5-3.6-2.9-7.6-2.3-12.2C849,492.7,855.3,493,857.5,498z"/>
		<path class="st3" d="M546.1,496.8c0.8,0.6,1.3,1.5,1.5,2.5c1.7,3.4-0.2,7.2-1,10.5c-3.6,0.4-6.8,0-10.8-0.6
			c-0.6-4.2-3.4-7.6-2.5-12.4c0.8-1.8,2.4-3.1,4.4-3.4C541,493.2,544.6,494.2,546.1,496.8z"/>
	</g>
</g>
<g id="Riverdale" class="st1">
	<g class="st2">
		<path class="st3" d="M853.5,575.9c-0.2-0.5-0.3-1-0.4-1.5c0-5,0-9.9,0-14.9c0-1.4,0.2-1.6,1.6-1.6h4.7v-98.7h-4.5
			c-1.6,0-1.8-0.2-1.8-1.8c0-4.9,0-9.7,0-14.6c0-1.5,0.2-1.7,1.6-1.7h74.1c1.5,0,1.6,0.2,1.7,1.7c0.5,6.7,1,13.3,1.6,20
			c0.5,6.4,1,12.8,1.6,19.1c0.1,0.6-0.2,1.1-0.8,1.3c-0.1,0-0.2,0-0.4,0h-15.2c-0.6,0-1.1-0.4-1.2-1c0,0,0,0,0-0.1
			c-0.8-5.2-1.5-10.4-2.3-15.5c-0.3-1.7-0.7-3.4-1.1-5.2c-0.2-1.1-1.2-2-2.4-2c-1.2-0.1-2.4-0.3-3.6-0.3c-8.2,0-16.4,0-24.6,0
			c-0.3,0-0.6,0-0.9,0v37.6h31.2c1.7,0,1.9,0.2,1.9,1.8c0,4.7,0,9.4,0,14.1c0,1.5-0.2,1.7-1.7,1.7h-31.4V558h1c8.6,0,17.3,0,25.9,0
			c1.2,0,2.4-0.1,3.7-0.3c1.6-0.1,2.9-1.3,3.2-2.9c0.6-2.6,1.2-5.2,1.7-7.8c0.9-4.7,1.8-9.4,2.6-14.1c0-0.7,0.6-1.2,1.3-1.2
			c0,0,0.1,0,0.1,0c4.5,0,9,0,13.5,0c1,0,1.3,0.4,1.3,1.3c-0.6,12.9-1.3,25.9-1.9,38.8c0,0.8,0,1.7-0.1,2.5c-0.1,0.5-0.3,1-0.5,1.4
			L853.5,575.9L853.5,575.9z"/>
		<path class="st3" d="M757.4,575.9c-0.3-0.4-0.4-0.8-0.5-1.3c0-5.1,0-10.2,0-15.3c0-1.1,0.3-1.4,1.3-1.4c1.7,0,3.3,0,5,0v-98.8
			h-4.6c-1.5,0-1.7-0.2-1.7-1.7c0-4.9,0-9.8,0-14.7c0-1.3,0.2-1.6,1.6-1.6h31.4c1.4,0,1.6,0.3,1.6,1.6c0,4.9,0,9.9,0,14.8
			c0,1.4-0.3,1.6-1.7,1.6H785V558h1c8.1,0,16.2,0,24.3,0c0.8,0,1.6-0.1,2.4-0.1c2.1-0.2,3.1-0.9,3.6-3c0.5-2,1-4.3,1.3-6.4
			c0.8-5.2,1.6-10.4,2.3-15.6c0-0.7,0.6-1.2,1.2-1.2c0.1,0,0.1,0,0.2,0c4.7,0,9.4,0,14.1,0c1.1,0,1.5,0.3,1.4,1.5
			c-0.6,7.8-1.2,15.6-1.8,23.5c-0.5,6-0.9,12-1.4,18.1c-0.1,0.5-0.3,0.9-0.6,1.3L757.4,575.9L757.4,575.9z"/>
		<path class="st3" d="M740.8,559.3c0-1-0.3-1.3-1.3-1.3c-1.6,0-3.1,0-4.6,0c-0.6,0.1-1.2-0.2-1.3-0.8c0-0.1,0-0.1,0-0.2
			c-4.6-20.2-9.3-40.4-14-60.6c-4.2-18.1-8.4-36.2-12.6-54.2c-0.1-0.7-0.7-1.3-1.4-1.2c0,0-0.1,0-0.1,0c-9.5,0-19,0-28.5,0
			c-0.8-0.1-1.5,0.4-1.6,1.2c0,0,0,0.1,0,0.1c-4,17.6-8.1,35.2-12.1,52.8l-12.9,56.3c-0.5,2.2-1,4.4-1.6,6.6h-6.2
			c-1.3,0-1.5,0.2-1.5,1.5c0,5,0,10,0,15c0.1,0.5,0.2,1,0.4,1.5h24.9c0.2-0.4,0.4-0.8,0.5-1.3c2.2-10.5,4.5-21,6.7-31.5
			c0-0.5,0.4-0.9,0.9-0.9c0.1,0,0.1,0,0.2,0c11.1,0,22.3,0,33.4,0c0.5-0.1,1,0.2,1.1,0.8c0,0.1,0,0.1,0,0.2
			c2.2,10.4,4.5,20.7,6.8,31.1c0.2,0.6,0.4,1.1,0.7,1.7h23.7c0.2-0.4,0.4-0.8,0.4-1.3C740.9,569.6,740.9,564.5,740.8,559.3z
			 M705.6,527.9h-29.5c-1.5,0-1.8-0.4-1.5-1.8l12-56.8l3-14.3c0.1-0.7,0.1-1.6,1.2-1.6c1,0,1,0.9,1.1,1.6
			c2.4,11.2,4.9,22.5,7.3,33.8c2.7,12.4,5.3,24.8,8,37.1C707.6,527.5,707.3,527.9,705.6,527.9z"/>
		<path class="st3" d="M625.7,473.2c0-1.9-0.1-3.9-0.1-5.8c0-4.3-1.7-8.4-4.8-11.3c-3.4-3.1-6.8-6.3-10.3-9.3
			c-2.9-2.7-6.6-4.4-10.5-5c-3.1-0.4-6.3-0.6-9.5-0.6c-16.6-0.1-33.2,0-49.8,0c-1.5,0-1.7,0.2-1.7,1.7c0,4.8,0,9.6,0,14.4
			c0,1.8,0.1,1.9,1.9,1.9h4.4V558h-4.9c-1.2,0-1.5,0.2-1.5,1.5c0,5,0,10,0,15c0.1,0.5,0.2,1,0.4,1.5h56.9c0.3-0.1,0.7-0.2,1-0.2
			c3.6-0.2,7-1.2,10.2-2.9c7.5-4.2,12.5-10.6,16.1-18.3c1.8-3.9,2-8.1,2-12.3C625.7,519.2,625.8,496.2,625.7,473.2z M604,540.5
			c0,2.4-0.2,4.7-0.5,7c-0.9,5.6-3.9,8.7-9.5,9.7c-2.3,0.4-4.6,0.7-6.9,0.7c-6.3,0.1-12.6,0-18.9,0c-0.2,0-0.4,0-0.6,0v-98.7
			c0.4,0,0.7,0,1,0c7.2,0,14.4,0,21.7,0c1.7,0,3.3,0.1,5,0.4c4.9,0.9,7.2,3.1,8.1,8c0.5,2.8,0.7,5.6,0.7,8.4
			C604,497.5,604,519,604,540.5L604,540.5z"/>
		<path class="st3" d="M522.9,559.3c0-1.1-0.3-1.4-1.4-1.4h-5v-1.3c0-8.4,0-16.8,0-25.1c0-2.7-0.1-5.5-0.3-8.2
			c-0.1-4.2-2.1-8.2-5.5-10.7c-2.4-1.8-5-3.4-7.8-4.6c-1.3-0.5-2.6-1.1-3.9-1.6c0.4-0.2,0.8-0.4,1.1-0.6c2.7-1.9,5.5-3.6,8.1-5.6
			c4-3.2,6.6-7.4,6.6-12.7c0.1-7,0-13.9-0.2-20.9c-0.1-4-1.6-7.9-4.3-10.9c-3.2-3.8-6.9-7.2-10.8-10.2c-2.9-2.3-6.3-3.6-9.9-4
			c-2.7-0.2-5.5-0.4-8.3-0.4c-15.6,0-31.2,0-46.8,0c-1.3,0-1.5,0.2-1.5,1.5c0,4.7,0,9.4,0,14c0,2.5,0,2.5,2.6,2.5h3.7V558h-4.9
			c-1.2,0-1.4,0.2-1.4,1.4c0,5.1,0,10.1,0,15.2c0.1,0.5,0.2,0.9,0.4,1.4h27.3c0.2-0.5,0.3-1,0.4-1.6c0-19.2,0-38.4,0-57.7v-1.3
			c0.4,0,0.6,0,0.8,0c5.2,0,10.4-0.1,15.6,0c3,0.1,5.9,0.4,8.9,1c4.4,0.8,6.8,3.7,7.4,8c0.4,2.3,0.5,4.7,0.6,7c0,14.3,0,28.6,0,42.9
			c0.1,0.5,0.3,1.1,0.5,1.6h27.3c0.2-0.4,0.4-0.9,0.5-1.4C522.9,569.5,522.9,564.4,522.9,559.3z M492.8,487.9
			c-0.7,4.4-2.8,7.6-7.3,8.8c-1.4,0.4-2.9,0.7-4.3,0.8c-5.7,0.2-11.4,0.2-17,0.2c-1,0-1.9,0-3,0v-38.5c0.2,0,0.4,0,0.5,0
			c6,0,12.1,0,18.1,0.1c1.6,0.1,3.3,0.3,4.8,0.6c4.4,0.9,7.1,3.7,7.9,8c0.4,2,0.7,4.1,0.7,6.1C493.6,478.7,493.4,483.3,492.8,487.9
			L492.8,487.9z"/>
		<path class="st3" d="M340.3,575.9c-0.2-0.4-0.4-0.9-0.5-1.3c0-5.1,0-10.2,0-15.3c0-1.1,0.3-1.3,1.3-1.3h5v-98.8
			c-1.6,0-3.1,0-4.7,0c-1.3,0-1.6-0.3-1.6-1.6c0-5,0-9.9,0-14.9c0-1.3,0.2-1.6,1.6-1.6h74.3c1.3,0,1.5,0.2,1.6,1.5
			c0.9,11.8,1.9,23.5,2.8,35.3c0.1,1.3,0.2,2.6,0.3,3.9c0.1,1-0.3,1.3-1.3,1.3c-5,0-9.9,0-14.9,0c-0.7,0.1-1.3-0.4-1.3-1.1
			c0-0.1,0-0.1,0-0.2c-0.8-5.2-1.5-10.5-2.4-15.7c-0.3-1.6-0.7-3.3-1-4.9c-0.2-1.1-1.1-1.9-2.3-1.9c-1.2-0.1-2.4-0.3-3.6-0.3
			c-8.2,0-16.5,0-24.7,0c-0.3,0-0.5,0-0.8,0v37.6h31.2c1.6,0,1.8,0.2,1.8,1.8c0,4.7,0,9.5,0,14.2c0,1.4-0.2,1.6-1.6,1.6h-31.4V558h1
			c8.6,0,17.3,0,25.9,0c1,0,2-0.1,3-0.2c1.9,0,3.6-1.4,4-3.3c0.5-2.1,0.9-4.2,1.4-6.3c1-5.1,1.9-10.2,2.8-15.3
			c0-0.7,0.6-1.2,1.3-1.2c0,0,0.1,0,0.1,0c4.4,0,8.9,0,13.3,0c1.2,0,1.5,0.3,1.4,1.5c-0.4,8.6-0.9,17.2-1.3,25.8
			c-0.3,5.1-0.5,10.3-0.8,15.4c-0.1,0.4-0.2,0.9-0.4,1.3L340.3,575.9L340.3,575.9z"/>
		<path class="st3" d="M262.2,575.9c-0.2-0.4-0.4-0.7-0.6-1.1c-6.5-28.5-13-57-19.4-85.6c-2.2-9.7-4.4-19.4-6.6-29
			c0-0.6-0.5-1-1.1-1c-0.1,0-0.1,0-0.2,0c-1.4,0.1-2.8,0-4.2,0c-1.1,0-1.4-0.3-1.4-1.4c0-5.1,0-10.2,0-15.3c0-1.1,0.3-1.4,1.4-1.4
			c7.4,0,14.9,0,22.3,0c1,0,1.3,0.5,1.5,1.4c2,9.8,3.9,19.5,5.9,29.3c2.3,11.2,4.6,22.4,6.8,33.6l8.6,42.2c0.3,1.6,0.6,3.1,1.1,4.7
			c0.5-2.4,1-4.9,1.5-7.3c3.3-15.9,6.5-31.7,9.8-47.6c3.6-17.6,7.2-35.3,10.8-52.9c0.2-0.8,0.4-1.6,0.5-2.4c0-0.6,0.6-1.1,1.2-1.1
			c0,0,0.1,0,0.1,0c2.4,0,4.9,0,7.3,0h14.4c1.5,0,1.6,0.2,1.6,1.6c0,5,0,9.9,0,14.9c0,1.3-0.2,1.5-1.6,1.6c-1.3,0-2.8,0-4.2,0
			c-0.5-0.1-0.9,0.2-1,0.7c0,0,0,0.1,0,0.1c-2.1,9.3-4.3,18.5-6.4,27.8c-4.2,18.3-8.5,36.6-12.7,55c-2.5,10.7-4.9,21.3-7.4,32
			c-0.1,0.4-0.3,0.9-0.6,1.2L262.2,575.9L262.2,575.9z"/>
		<path class="st3" d="M178,575.9c-0.2-0.5-0.4-1-0.4-1.5c0-5,0-10,0-15c0-1.2,0.3-1.5,1.5-1.5h4.8v-98.8h-4.5
			c-1.6,0-1.8-0.2-1.8-1.8c0-4.8,0-9.7,0-14.5c0-1.6,0.2-1.7,1.7-1.7h30.9c1.6,0,1.8,0.2,1.8,1.8c0,4.8,0,9.7,0,14.5
			c0,1.5-0.2,1.7-1.8,1.7h-4.6V558h4c2.4,0,2.4,0,2.4,2.4c0,4.7,0,9.4,0,14c-0.1,0.5-0.3,1-0.5,1.5L178,575.9L178,575.9z"/>
		<path class="st3" d="M161.8,559.5c0-1.4-0.2-1.6-1.7-1.6h-4.7v-1.3c0-8.3,0-16.5,0-24.8c0-3-0.2-6-0.3-9c-0.1-4-2-7.7-5.3-10.1
			c-1.8-1.3-3.6-2.5-5.6-3.6c-2-1.1-4.1-1.9-6.2-2.8l0.8-0.4c3.1-1.7,6-3.7,8.7-6.1c3.9-3.4,6.2-7.6,6.3-12.9c0.1-7,0.3-14-0.3-21
			c-0.3-3.8-1.5-7.3-4.1-10.1c-2.9-3.1-6-6.1-9.2-9c-1.7-1.4-3.6-2.7-5.5-3.7c-3.2-1.7-6.8-2.1-10.4-2.1c-16.9,0-33.8,0-50.7,0
			c-0.6,0.1-1.1,0.3-1.6,0.6v17c0.5,0.2,1.1,0.4,1.7,0.4c1.5,0.1,3.1,0,4.7,0V558c-1.4,0-2.8,0-4.3,0c-0.7,0.1-1.4,0.2-2,0.4v17.5
			h27.7c0.2-0.5,0.3-1.1,0.4-1.7c0-19.2,0-38.4,0-57.5v-1.2c0.3,0,0.5-0.1,0.8-0.1c5.3,0,10.6,0,15.9,0c3,0,6.1,0.4,9,1.1
			c4.1,1,6.4,3.7,7,7.7c0.4,2.7,0.6,5.5,0.6,8.2c0.1,14,0,27.9,0,41.9c0.1,0.6,0.3,1.1,0.5,1.6h27.3c0.3-0.5,0.4-1,0.5-1.6
			C161.8,569.4,161.8,564.5,161.8,559.5z M131.7,487.9c-0.9,5.4-3.5,8.1-8.9,9.1c-2.1,0.4-4.3,0.6-6.4,0.6c-5,0.1-10,0-15.1,0h-1.2
			c0-0.4,0-0.7,0-1c0-12.2,0-24.3,0-36.5c0-0.9,0.2-1.1,1.1-1.1c5.9,0.1,11.8,0,17.6,0.1c1.6,0.1,3.3,0.3,4.8,0.6
			c4.3,0.8,7,3.6,7.9,7.9c0.5,2.2,0.7,4.4,0.8,6.6C132.5,478.8,132.3,483.4,131.7,487.9L131.7,487.9z"/>
	</g>
</g>
<g id="MadTV">
	<g>
		<g id="layer101_1_" class="st1">
			<path class="st5" d="M751.7,600c-0.7-3.6-1.9-10.6-3.3-18.8c-0.5-3.2-1.3-7.7-1.8-10c-0.5-2.3-0.8-5.1-0.8-6.2
				c0-2.5-0.7-2.6-3.5-0.1c-4.5,3.9-5.9,5.1-6.4,5.1c-0.3,0-0.5,0.2-0.5,0.5c0,1.1-14.5,9.8-21.2,12.5c-0.9,0.4-2.4,1-3.2,1.4
				c-5.8,2.5-16.7,5.4-24.4,6.5c-2.1,0.3-8.2,0.7-13.7,0.9c-13.5,0.5-25.2-0.7-37.2-3.7c-9.2-2.3-10.6-2.7-12.4-3.5
				c-1-0.5-2.3-0.8-2.7-0.8s-1.7-0.3-2.7-0.8c-1-0.5-3.1-1.3-4.5-1.8c-1.5-0.6-4.2-1.8-6.2-2.7l-3.5-1.7l-4.6,3.4
				c-5.6,4.1-9.4,6.4-13.6,8.2c-1.7,0.8-3.4,1.6-3.7,1.9c-0.3,0.3-1.1,0.5-1.8,0.5s-1.5,0.2-1.8,0.5c-0.3,0.3-2.2,1-4.3,1.5
				c-15.6,3.9-34,3.3-46.2-1.7c-3.8-1.6-6.4-2.8-6.7-3.1c-0.2-0.2-1.3-0.9-2.5-1.5c-1.2-0.6-2.9-1.9-3.8-2.7l-1.5-1.6l-3.8,2.8
				c-2.1,1.6-4,3-4.4,3.3c-0.3,0.2-3.1,1.7-6.1,3.1c-5.3,2.7-13,4.8-15.4,4.2c-0.6-0.1-3-0.5-5.3-0.9c-2.3-0.3-5.8-1.5-7.8-2.5
				l-3.7-1.8l-0.2-12.3l-0.1-12.3l4.6,0.3l4.6,0.3v-6c0-5.4,0.1-5.9,1-5.5c0.5,0.2,2.4,0.6,4.1,0.8c3.5,0.3,3.7-0.1,1.9-4.1
				c-1.4-2.9-3.4-5.3-6.7-7.8l-2.4-1.9h-39.8h-39.8l-0.4,1.6c-0.2,0.9-0.5,3.5-0.4,5.9c0,4.2,0,4.4,2.1,6.2c1.7,1.5,2.9,2,5.5,2.3
				c3.5,0.4,11-0.3,13.7-1.4c3.4-1.3,3.3-1.7,3.3,13v13.6l-4,1.2c-2.2,0.7-4.8,1.2-5.8,1.2H406v3.4v3.3l-3,0.8
				c-9.4,2.3-21.4,3.1-27,1.6c-3.8-1-9.6-3.9-13.3-6.7c-1.6-1.2-3.3-2.4-3.7-2.6c-0.5-0.3-2.6,0.4-5.2,1.7c-4.4,2.1-6.4,3-10.1,4.5
				c-11.3,4.6-21.6,5.1-32.7,1.3c-2.9-1-11.8-5.3-15.1-7.3c-1.9-1.1-1.9-1.1-7,2.1c-6.9,4.4-17.3,7.7-23.7,7.7
				c-3.6,0-17.1-1.6-17.9-2c-0.3-0.2-0.5-5.7-0.5-12.8V568l4.9,0.4l4.9,0.4v-5.6v-5.7l3.4,0.3l3.4,0.3l-0.7-5.1
				c-0.4-2.8-1.7-8.7-2.9-13.2c-1.2-4.5-2.3-9.2-2.6-10.5c-0.3-1.3-0.8-3-1-3.8c-0.3-0.8-1-3.1-1.6-5.2c-0.6-2.1-1.3-4.9-1.7-6.4
				c-0.4-1.5-1.2-4.3-1.7-6.4c-0.5-2.1-1.2-4.3-1.5-5c-0.2-0.6-0.8-2.6-1.1-4.4c-0.4-1.7-1-3.7-1.4-4.2c-0.8-1.2-1-0.9-3,4.3
				c-0.6,1.5-1.3,3.4-1.7,4.4c-0.4,1-1.2,2.9-1.7,4.4c-0.6,1.5-1.3,3.4-1.8,4.4c-0.4,1-1.7,4.1-2.8,7c-1.2,2.9-2.3,5.8-2.6,6.4
				c-0.3,0.6-1.3,3.3-2.4,5.8c-1,2.6-2.1,5.2-2.4,5.8c-0.2,0.6-1,2.6-1.7,4.4c-1.7,4.4-2,5.2-3.4,8.1c-0.6,1.5-1.6,3.8-2.1,5.2
				c-0.6,1.5-1.4,3.4-1.8,4.4c-0.4,1-1.2,2.9-1.7,4.4c-0.6,1.5-1.3,3.4-1.7,4.4c-0.4,1-1.2,2.9-1.8,4.4c-0.5,1.5-1.5,3.8-2.1,5.2
				c-1.6,3.6-2,4.8-2.4,6c-0.2,0.8-1,1-4.4,1c-3.2,0-4.1,0.2-4.1,0.9c0,0.8-0.8,2.7-2.5,6.6l-0.6,1.3h-16.2h-16.2l-0.9-2.1
				c-0.5-1.2-1.1-2.7-1.3-3.4c-0.3-0.6-1.7-4.2-3.3-7.8c-1.5-3.7-3-7.4-3.5-8.4c-0.4-0.9-1.7-4.1-2.8-7c-1.2-2.8-2.4-5.9-2.8-6.7
				c-0.3-0.8-0.8-2-1.1-2.6c-2.1-5.1-4.9-12.1-5.9-14.2c-0.6-1.5-1.3-3.1-1.6-3.8c-2-4.9-6-14.9-6.7-16.3c-0.4-0.9-1.7-4.1-2.8-7
				c-1.2-2.8-2.4-5.8-2.7-6.4c-0.6-1.4-1.6-3.9-3.8-9.3c-1-2.5-1.7-3.6-1.9-2.9c-0.1,0.6-0.5,2.5-1,4.1c-0.4,1.6-1.2,4.6-1.8,6.7
				c-2.7,10.2-3.9,15.2-5.1,19.2c-0.5,1.7-1.3,4.8-1.8,6.9c-0.5,2-1.3,5.1-1.8,7c-3,11.5-3.3,17.4-1.1,19.7c1.7,1.7,6.1,2.7,10,2.3
				c1.8-0.2,4.5-0.6,6.1-0.8l2.7-0.3v12.3v12.2l-2.3,0.9c-1.3,0.5-2.9,0.9-3.7,0.9c-0.7,0-2.3,0.3-3.5,0.6c-2.1,0.6-2.1,0.6-2.1,3.7
				c0,3.5,0.3,3.4-7,4.7c-8.1,1.6-15.2,1-21.1-1.7c-3-1.3-8-4.6-10.3-6.7l-1.9-1.7l-3.6,2.3c-2,1.2-3.9,2.3-4.3,2.3
				c-0.3,0-0.6,0.2-0.6,0.5c0,0.7-7.5,3.9-12.1,5.1c-5.7,1.5-16.4,0.7-21.1-1.6l-1.6-0.8v-11.7c0-6.5,0.1-11.8,0.2-11.8
				c0.1,0,0.9,0.2,1.9,0.5c0.9,0.3,2.8,0.7,4.2,0.9l2.4,0.3v-6.2v-6.2l1.6,0.3c6.5,1.2,12.3,2.1,13.3,2.1c1.3,0,1.3-0.2,3.4-5.8
				c1.7-4.7,5-17,7-26.1c1-4.4,1.9-8.2,3.2-13.7c0.4-1.6,0.9-3.9,1.2-5.2c0.5-2.3,1.6-7.4,2.9-12.8c1.9-7.7,2.3-9.6,3.2-13.7
				c0.5-2.4,1.3-5.8,1.7-7.6c1.2-4.8,2.5-10.8,3.5-15.9c0.8-4.1,0.8-4.9,0-8.1c-1.2-4.7-3.6-6.9-8.6-7.9c-2-0.4-4-0.6-4.5-0.4
				c-0.5,0.1-1.6,0.4-2.5,0.6l-1.6,0.3l0.1-11.4l0.2-11.5l2.3-1.3c1.3-0.7,3.3-1.6,4.5-1.9c2.1-0.6,2.1-0.6,2.1-3.7
				c0-3.3-0.2-3,4.6-5.3c6.3-3,8.7-3.5,17.7-3.5c8.9,0,10.8,0.3,17.1,3c4.6,1.9,11.7,5.9,12.5,6.9c0.9,1.1,1.2,1,4.2-1
				c3.9-2.7,10.7-6.2,14.8-7.7c3-1.1,4.7-1.3,12-1.3c8.6,0.1,10.8,0.4,17.1,3.1c5.1,2.1,4.9,1.7,4.9,15.1v11.9l-1.9-0.5
				c-4.9-1.1-6.4-1.3-7.7-1c-1.4,0.2-1.5,0.4-1.5,5.1c0,2.7-0.2,4.9-0.5,4.9c-0.2,0-1.3-0.3-2.3-0.6c-1-0.3-2-0.5-2.1-0.3
				c-0.3,0.3,1.2,4.9,2.7,8.4c0.3,0.7,0.8,1.9,1.1,2.6c0.3,0.7,1,2.4,1.7,3.9c0.6,1.5,1.6,3.8,2.1,5.2c0.6,1.5,1.6,3.8,2.1,5.2
				c1.1,2.6,1.6,3.6,3.1,7.4c0.5,1,1.2,2.7,1.6,3.8c0.5,1,2,4.9,3.5,8.5c3.2,7.8,4.2,10.2,5.3,12.4c0.5,0.9,0.8,2,0.8,2.3
				c0,0.4,0.5,1.4,1,2.3l1.1,1.6l0.6-1.3c0.3-0.8,2.3-5.2,4.2-10c2-4.8,4.1-9.9,4.8-11.3c1.1-2.6,1.5-3.5,3.1-7.4
				c2-4.8,2.7-6.4,3.5-7.9c0.5-0.9,0.8-1.9,0.8-2.2s0.8-2.1,1.6-4.1c3.8-8.3,4.6-11.4,3.9-15.2c-0.5-2.6-2-4.4-4.2-5.1
				c-1.9-0.5-5.7,0.1-6.7,1.1c-0.3,0.3-0.9,0.6-1.1,0.6s-0.5-5.1-0.5-11.3v-11.3l2.1-1.3c1.1-0.8,3.3-1.9,4.9-2.7
				c2.7-1.3,2.8-1.5,2.8-3.8c0-2.8,0.3-3.2,6.4-6.2c4.3-2.1,4.4-2.1,11.6-2.2c7,0,9.6,0.5,15.4,2.6c2.7,1,10.5,4.9,11.2,5.6
				c0.3,0.4,1.2,0.9,1.9,1.1c0.6,0.2,1.2,0.6,1.2,0.9c0,1,1.6,0.5,4-1.3c3.4-2.4,10.5-6.1,14.8-7.7c3-1.1,4.8-1.3,11.7-1.3
				c8.5,0,9.6,0.3,15.6,3.4c4.6,2.4,4.4,1.6,4.4,14.8v11.8l-1.9-0.3c-1-0.2-3.6-0.5-5.8-0.7l-3.9-0.4v5.1c0,5,0,5.1-1.3,4.7
				c-0.7-0.2-2.4-0.5-3.8-0.8l-2.5-0.3l0.3,1.7c0.2,0.9,0.6,3,1,4.6c1.5,7,3.1,14.2,4.9,20.4c1.7,6.1,2.5,9.2,3.4,13
				c0.5,2.1,1.3,5.2,1.9,7c0.5,1.7,1.2,4.5,1.6,6.1c0.5,1.6,1.2,4.4,1.7,6.1c0.5,1.7,1.3,4.9,1.8,7c1,3.9,1.9,7.3,3.5,13.1
				c0.6,1.9,1.3,4.8,1.7,6.4c1.7,6.5,2.9,10,4.8,13.9c2.6,5.5,2.9,5.9,6.7,9.7c4.2,4.2,6.6,5.3,11.2,5c2.9-0.2,3.6-0.5,4.7-1.9
				c0.7-0.9,4.2-7.4,7.8-14.5c7.8-15.5,16.7-32.6,17.8-34.7c1.3-2.3,4.3-7.9,8-14.8c1.9-3.5,4-7.6,4.8-9
				c5.9-10.7,11.4-22.1,12.1-24.6c1.6-6,0.7-11.2-2.4-13.7c-1.9-1.5-8.1-1.7-11.8-0.3l-2.4,0.8l0.1-11.4l0.2-11.4l3.2-1.6
				c1.7-0.9,3.8-1.6,4.5-1.6c1.2-0.1,1.3-0.4,1.5-3.4l0.2-3.4l3.3-1.6c6.6-3.3,11.3-4.1,23.4-4.1c11.4-0.1,13.1,0.2,20.3,3
				c2.7,1,9.8,4.4,10.2,4.8c0.2,0.2,0.9,0.8,1.7,1.2c1.4,0.9,1.7,0.8,7.3-2c11.4-5.9,19.9-7.7,33.7-7.1c9.3,0.4,17,2,24.2,5.2
				l1.6,0.7v11.4v11.4L509,434c-0.9-0.2-2.4-0.8-3.3-1.1c-0.9-0.3-2.7-0.6-3.9-0.6h-2.3v5.2c0,2.9-0.2,5.2-0.5,5.2
				c-0.3,0-1.5-0.4-2.7-0.9c-1.2-0.5-2-0.6-2-0.4c0.1,0.2,0.8,1.8,1.3,3.4c1,2.5,2.2,5,4.9,10c0.3,0.6,1.5,3,2.6,5.4
				c2.1,4.5,5.5,11.8,11.2,23.5c22.7,47.5,29,59.2,35.1,65.3c4.6,4.6,7.1,5.5,15.4,5.4c4.9,0,8-0.3,10.5-1c5.2-1.6,7.8-2.7,8.1-3.8
				c0.6-2,1.6-18.5,1.2-21.3c-0.2-1.6-0.6-18.4-0.9-37.2c-0.6-34.2-1-40.8-2.9-44.4c-2-3.9-6.4-5.6-11.8-4.6c-2,0.4-4.2,1-5.1,1.5
				l-1.6,0.8v-13v-13l3.5-1c1.9-0.6,3.9-1,4.6-1c1,0,1.2-0.5,1.3-4.1l0.2-4.2l2.9-0.8c5.4-1.5,12.6-2,21.8-1.7
				c11.6,0.4,18.6,2,25.2,5.8c3.1,1.7,4,1.9,5.1,0.8c1.7-1.6,12.9-6.7,17.6-7.9c1-0.3,2.4-0.8,3.2-1.1c1.7-0.7,8.3-2.1,15.4-3.3
				c7.3-1.2,31-1.2,37.6,0c8.4,1.6,14.8,3.3,20.5,5.3c3.9,1.5,17.7,8.4,17.7,8.9c0,0.3,0.3,0.5,0.6,0.5c0.5,0,3.8,2.1,4.6,2.9
				c0.2,0.2,2.1,1.7,4.4,3.5c8.2,6.3,20,19.6,20,22.5c0,0.4,0.2,0.8,0.5,0.8c0.3,0,0.9,1.1,1.5,2.4c0.6,1.4,1.5,3.5,2.1,4.8
				c1.2,2.7,4.1,11.4,5.2,15.7c1,4,3,17.3,3,20.1c0,2.1,0.1,2.3,1.7,2.3c0.9,0,3.4-0.3,5.6-0.8c2.2-0.5,6.6-1.3,9.8-1.8
				c3.2-0.5,7.8-1.3,10.2-1.7c2.4-0.5,7-1.2,10.2-1.7s7.8-1.3,10.2-1.7c2.4-0.5,6.9-1.2,9.9-1.7c3-0.5,7.7-1.3,10.5-1.8
				c9.2-1.6,14.2-2.5,20-3.4c3.2-0.5,7.8-1.3,10.2-1.7c2.4-0.5,6.7-1.2,9.6-1.7c10.6-1.7,16.4-2.8,20.6-3.5c2.4-0.4,7-1.2,10.2-1.7
				s7.1-1.2,8.6-1.5c4.2-0.8,4.3-0.8,4.6,2.3c0.2,1.5,0.6,4.3,1,6.2c1.1,5.6,2.2,11.8,3.2,17.7c0.5,3,1.3,7.4,1.7,9.6
				c0.7,3.8,1.5,8.2,3.5,20.3c0.5,2.9,1.2,7.1,1.7,9.3c0.4,2.3,1.2,6.6,1.7,9.6c1.7,9.5,2.7,15.2,3.6,19.6c0.4,2.3,0.8,5.2,0.8,6.5
				c0,2.2-0.1,2.3-1.9,2.3c-1,0-3.6,0.3-5.7,0.8c-5.3,1.2-10.8,2.2-14.2,2.7c-4.2,0.6-9.9,1.7-14.1,2.6c-2,0.5-4.3,0.8-5.1,0.8
				c-0.8,0-3,0.3-4.8,0.8c-1.8,0.5-5.9,1.3-9.1,1.8c-3.2,0.5-7.6,1.3-9.9,1.8c-2.2,0.4-6.4,1.2-9.3,1.7c-2.8,0.5-7.2,1.3-9.6,1.7
				s-6.7,1.2-9.6,1.7c-2.8,0.5-7.2,1.3-9.6,1.7s-6.7,1.2-9.6,1.7c-2.8,0.5-7.3,1.3-9.9,1.8c-8.3,1.6-13.2,2.5-18.6,3.4
				c-5.2,0.9-10.6,1.9-17.4,3.3c-1.9,0.3-4.8,0.9-6.4,1.1c-4.5,0.7-10.1,1.7-14.1,2.7c-2,0.5-4.2,0.8-5.1,0.8c-0.8,0-3,0.4-4.8,0.9
				c-1.8,0.5-4.5,0.9-6,0.9h-2.8L751.7,600z M680.1,551c2.6-0.5,5.3-1.1,5.9-1.5c0.6-0.3,1.5-0.6,2-0.6c1.2,0,11.6-5,13.2-6.3
				c1.2-1,2.6-2.4,3.7-3.7c1-1.3,6-12,6-12.9c0-0.5,0.3-1.7,0.8-2.8c3.6-8.5,4.3-32.7,1.3-45.5c-1.4-5.8-4.2-12.9-6.9-17.4
				c-1.8-3-7-9.1-9.5-11.2c-1.5-1.2-2.8-2.4-3-2.6c-0.1-0.3-0.6-0.5-1-0.5c-0.5,0-0.8-0.2-0.8-0.5c0-0.5-6.5-3.9-9.9-5.2
				c-6-2.3-16.1-4.2-22.1-4.2c-3.9,0-13.4,1.4-16.3,2.4c-1.1,0.4-2.4,0.8-2.8,0.9c-0.6,0.2-0.7,11-0.6,52.6l0.2,52.5l4.4,2.1
				c2.4,1.2,5,2.3,5.8,2.4c0.8,0.2,3.2,0.7,5.3,1.2C665.2,552.5,670.3,552.7,680.1,551z M459.4,504.3c0-0.3-0.2-0.6-0.4-0.8
				c-0.3-0.1-2.3-3.8-4.6-8.3c-2.3-4.5-5.9-11.4-8-15.4c-2.1-4-5.1-9.7-6.5-12.6c-1.5-3-3-5.4-3.3-5.4c-0.2,0-0.8,0.7-1.2,1.6
				c-0.3,0.9-0.9,1.7-1.1,1.9s-0.7,1-1,1.7c-1,2.1-2.4,4.9-2.8,5.2c-0.2,0.2-0.9,1.5-1.7,2.9c-0.8,1.5-1.9,3.4-2.4,4.4
				c-0.6,1-1.5,2.6-2,3.5c-0.9,1.8-2.8,5.1-6.8,12c-1.8,3.1-2.3,4.4-2.3,6.8v3h22.1C450.4,504.8,459.4,504.6,459.4,504.3z"/>
			<path class="st5" d="M945,581.2v-4.4h-2c-1.9,0-2-0.1-2-1.7v-1.7h5.8h5.8v1.7c0,1.6-0.2,1.7-2,1.7h-2v4.4v4.4h-1.7H945V581.2z"/>
			<path class="st5" d="M953.2,579.5v-6.1h2c1.7,0,2.1,0.3,2.9,2c0.5,1.1,1.2,2,1.4,2s0.8-0.9,1.3-1.9c0.7-1.4,1.3-1.9,2.7-2
				l1.9-0.2v6.1v6.2h-1.7c-1.6,0-1.7-0.2-1.7-2.1c-0.1-2-0.1-2.1-0.8-1.2c-1,1.3-2.4,1.2-3.5-0.3c-0.9-1.3-0.9-1.2-0.9,1.2
				c0,2.3-0.1,2.4-1.7,2.4h-1.7V579.5z"/>
		</g>
		<g id="layer102">
			<path class="st3" d="M781,585.1c-0.1-0.2-2.1-12.7-4.5-27.8c-2.4-15.2-4.4-27.7-4.6-28c-0.2-0.3-3.6,0.2-7.7,1.2
				c-4,0.9-8.5,1.8-9.9,2c-3.1,0.5-2.5,1.9-5.3-13.7c-1.2-6.2-2.2-11.7-2.4-12.3c-0.2-0.8,0.2-1,1.6-1.3c1-0.2,11.7-1.9,23.7-3.8
				c23.6-3.8,32.2-5.2,64.7-10.5c11.8-1.9,21.8-3.4,22.2-3.3c0.9,0.2,2.4,3.1,16.4,30.5c4.6,9.1,8.5,16.4,8.7,16.4
				c0.2,0,0.8-4.8,1.3-10.6c3.2-34,4.1-42.6,4.7-43.2c0.3-0.4,6.5-1.5,13.7-2.5c7.2-1,15.6-2.2,18.6-2.7c3-0.5,5.8-0.9,6.2-0.9
				c0.3,0-1.2,6.9-3.7,16.4c-2.3,9-6.6,25.6-9.5,36.7c-2.9,11.2-6.2,23.9-7.3,28.2c-1.1,4.3-2.2,8-2.4,8.2c-0.2,0.2-7.3,1.6-15.6,3
				l-15.2,2.6l-24-33.1c-13.2-18.1-24.2-33-24.5-33c-0.2,0-0.3,1.1-0.2,2.5c0.2,1.3,0.5,4.9,0.6,8l0.3,5.5l-8,1
				c-10,1.3-10,1.3-10,2.8c0,0.8,2,13.7,4.4,28.9c2.4,15.1,4.2,27.6,4.2,27.7c-0.1,0.1-5,0.8-10.9,1.6c-5.9,0.8-14.1,2-18.1,2.6
				S781.1,585.2,781,585.1z"/>
			<path class="st3" d="M51.3,583.2l-3.7-1.2v-10.5v-10.5l1.6,0.4c0.9,0.2,4.4,0.5,7.7,0.7c5.2,0.2,6.6,0.1,8.4-0.8
				c5.8-2.7,11-16.8,17.9-48.4c0.5-2.4,1.2-5.4,1.5-6.7c0.3-1.3,1.1-4.6,1.7-7.6c0.6-2.8,1.6-6.8,2-8.7c9.8-41.1,10.5-45.7,7.8-51.1
				c-2-4.1-6-6.1-12-6.1h-4.2V423v-9.8l1.9-1.2c4.9-2.8,15.6-5.2,20.7-4.5c9.7,1.3,17,4.2,25.2,9.8c3.2,2.2,3.4,2.3,4.6,1.3
				c9.7-7,20.4-11.4,27.6-11.4c3.8,0,12.9,2,16.6,3.7l3.9,1.7v9.9v10l-5.4-0.1c-6,0-7.7,0.7-9.7,3.9c-2.4,3.9-1.5,8.2,5.2,23.9
				c8.6,20.4,22.4,53.3,23.9,57.1c0.4,1,0.9,1.9,1.2,1.9c0.2,0,1.9-3.6,3.8-8c1.8-4.4,7.2-17.1,11.9-28.3
				c16.9-40,15.9-37.4,16.1-41.6c0.5-7.8-3.5-11.3-10.7-9.6l-1.9,0.5v-9.4c0-7.6,0.2-9.5,0.9-10.2c1.6-1.6,8.1-4.4,11.5-5.1
				c7.8-1.4,20.2,2.3,30.7,9.1l4,2.6l5-3.3c12-7.9,21.6-10.2,31.8-7.7c3,0.8,6.6,2.2,8.6,3.6l1.6,1v9.8v9.8l-6.2-0.1
				c-7-0.1-9,0.6-11,3.9c-0.9,1.5-1.1,2.8-1,7.3c0.1,6.9,2,14.5,19.7,80.4c5.6,20.6,10.2,29.3,17.9,33.3c2.4,1.3,3.7,1.6,7.3,1.5
				c3.1,0,4.9-0.3,6.4-1.1c6.9-3.6,8.8-6.5,26.3-41c4.6-9.1,9.8-18.9,11.3-21.8c3-5.4,4.8-8.8,13.1-24.4
				c11.3-21.3,12.9-25.4,11.6-31.4c-1.2-5.5-4.2-7.9-9.9-7.8c-1.8,0-4.2,0.3-5.3,0.6c-1.1,0.3-2.1,0.6-2.1,0.6
				c-0.1,0-0.2-4.4-0.2-9.9v-9.8l1.8-1c3.9-2,12.3-3.9,20.3-4.6c10.3-0.9,23.9,2.8,33.1,8.9l3.4,2.3l2.1-1.5
				c5.1-3.5,14.5-7.2,22.6-8.9c8-1.7,23.1-0.5,33,2.8l4.8,1.6l0.2,9.2l0.2,9.2l-1.3-0.3c-0.8-0.2-3.1-0.6-5.2-0.8
				c-4.5-0.3-6.9,0.6-8.7,3.5c-2.4,3.9-1.3,8.8,4.5,20.4c1.9,3.8,4.4,8.9,5.5,11.3c2.4,5.3,6,12.8,11.2,23.5
				c2.1,4.5,4.8,10.1,5.9,12.5c4.2,8.9,17.1,34.5,19.2,37.9c5.5,9.2,9.1,13,14.7,15.7c3.5,1.7,4.2,1.8,10.2,1.8
				c13.2-0.1,24.7-4.8,28.9-12.1c2.2-3.8,2.9-8.4,3-20.4c0.1-17.7-1.4-76.3-2-81c-1.2-8.9-4.5-12.2-11.8-12.2c-2.1,0-4.8,0.4-6,0.9
				c-1.1,0.5-2.1,0.9-2.3,0.9c-0.5,0-0.2-22.6,0.3-22.9c1.8-1.2,11-2.3,18.1-2.3c13.4,0.1,24.7,2.8,30.4,7.4l1.7,1.3l3.1-2
				c16.3-10.5,43.3-15.5,67.8-12.7c22.4,2.7,40.5,11,57,26.1c9.1,8.5,13.8,14.9,18,25.1c3.9,9.5,6.7,21.5,7.5,32.2
				c0.5,6.6,1.7,5.7-10.5,7.7c-4.8,0.8-11.8,2-15.7,2.7s-9.2,1.6-11.8,2c-2.7,0.5-4.9,0.9-5.1,1c-0.1,0.1,0.2,2.4,0.7,5.1
				c0.8,4.5,3.4,20,7.8,45.8c0.9,5.6,1.5,10.3,1.3,10.6c-1.9,1.8-11.6,7.6-17.3,10.4c-10.1,4.9-18.4,7.4-31.5,9.6
				c-8.5,1.4-30.1,1-40-0.8c-13.1-2.3-24-5.6-36.1-10.7l-6.5-2.8l-3.7,3c-9.1,7.4-20.7,12.6-33,14.9c-6.6,1.2-21.1,1.2-27.1-0.1
				c-8.7-1.7-17-5.3-23-9.9l-3.3-2.5l-4.6,3.4c-5.2,3.9-11.8,7.6-16.3,9c-2.4,0.8-4.6,0.9-9.4,0.8c-5.9-0.2-6.5-0.3-10.7-2.4
				l-4.5-2.2v-10.9V558l4.3,0.2c6,0.3,9.2-0.9,11.4-4.5c2.3-3.5,2.4-8.7,0.3-12.7c-1.5-2.7-4.9-6.4-8.3-8.7L484,531h-43.3h-43.3
				l-1.8,2.8c-4.9,7.6-6.4,16.3-3.8,21.3c2.4,4.8,9.5,6.6,18.2,4.7c2.4-0.5,4.5-0.9,4.8-0.9c0.2,0,0.4,5.1,0.4,11.3v11.3l-1.9,0.6
				c-8.4,2.6-22.2,3.3-28.1,1.2c-4.5-1.6-9.9-4.6-13.2-7.6l-2.7-2.4l-5.7,2.8c-12.4,6.2-19.2,8.2-27.7,8.2c-4.1,0-7-0.3-10.2-1.2
				c-5.6-1.6-13.4-5-17.7-7.7l-3.4-2.1l-3.3,2c-4.5,2.8-10.6,5.8-15.2,7.4c-3.4,1.3-4.6,1.4-12.8,1.3c-5.6-0.1-10.1-0.4-11.9-0.9
				l-2.9-0.8l-0.2-11.2l-0.1-11.2l3.7,0.3c7.5,0.7,11.3-1.5,12.6-7.1c1.5-6.5-0.3-14.2-14.8-66.4c-0.4-1.5-1.7-6.2-3-10.6
				c-1.2-4.4-2.4-8-2.6-8c-0.2,0-2,4-3.9,8.9c-2,4.8-5.7,14.1-8.2,20.4c-2.6,6.4-6.9,17-9.6,23.5c-2.7,6.6-6.5,16.1-8.6,21.2
				c-2.1,5.1-6,14.8-8.7,21.5c-2.7,6.7-5.5,13.6-6.3,15.3l-1.3,3l-15.1-0.1l-15.2-0.2l-2.7-6.7c-3.2-7.7-6.6-15.9-20.9-50.5
				c-2.3-5.6-5.3-12.9-6.7-16.3c-1.3-3.4-4.2-10.3-6.3-15.4c-2.1-5.1-5.3-12.9-7.1-17.3c-1.9-4.5-3.4-7.7-3.7-7.3
				c-0.2,0.4-1.1,3.4-1.9,6.6c-0.9,3.2-1.9,7.1-2.3,8.7c-1,3.7-4.1,15.1-6.2,22.9c-0.9,3.4-2.1,8.1-2.8,10.5
				c-1.6,6-4.7,17.6-5.7,21.5c-1.4,5.5-2.5,14.7-2,17.2c0.7,3.6,1.2,4.2,3.7,5.6c1.9,1,3.4,1.2,8,1.2c3.1,0,6.2-0.2,6.9-0.4
				c1.2-0.3,1.2-0.2,1.2,10v10.4l-4.8,1c-3.4,0.7-6.7,0.9-11,0.8c-5.9-0.2-6.4-0.3-11-2.7c-2.7-1.3-6.5-3.8-8.5-5.3
				c-2-1.6-3.7-3-3.9-3c-0.1,0-2,1.2-4.2,2.6c-5.2,3.3-9.5,5.5-14.3,7.1C65.9,584.9,56.7,584.9,51.3,583.2z M683.4,552.8
				c16.3-4.2,27.9-13,35.4-26.5c2.8-5.2,6-15,7.1-22.1c1.2-7.8,1.3-22.7,0.1-30.4c-3.6-23.1-16.3-38.9-36.1-45.2
				c-7.4-2.3-11.7-2.8-21.4-2.6c-10.5,0.3-15.1,1.3-24.8,5.6l-4.9,2.2l-0.2,56.1l-0.1,56.1l1.9,1.2c4.5,2.8,14.3,5.9,21.4,6.7
				C665.7,554.4,679.9,553.6,683.4,552.8z M472.8,502.2c0-4.4-0.1-4.6-3.7-11.5c-2-3.9-5.7-10.9-8.2-15.7c-2.5-4.8-5.6-10.8-7-13.4
				s-3.9-7.6-5.8-11.2c-1.9-3.6-3.6-6.6-3.8-6.6c-0.3,0-3.3,5-13.7,23.5c-2,3.5-6.8,12-10.7,18.8l-7,12.4v4v3.9h29.9h29.9V502.2z"/>
		</g>
		<g id="layer103" class="st1">
			<path class="st5" d="M781,585.1c-0.1-0.2-2.1-12.7-4.5-27.8c-2.4-15.2-4.4-27.7-4.6-28c-0.2-0.3-3.6,0.2-7.7,1.2
				c-4,0.9-8.5,1.8-9.9,2c-3.1,0.5-2.5,1.9-5.3-13.7c-1.2-6.2-2.2-11.7-2.4-12.3c-0.2-0.8,0.2-1,1.6-1.3c1-0.2,11.7-1.9,23.7-3.8
				c23.6-3.8,32.2-5.2,64.7-10.5c11.8-1.9,21.8-3.4,22.2-3.3c0.9,0.2,2.4,3.1,16.4,30.5c4.6,9.1,8.5,16.4,8.7,16.4
				c0.2,0,0.8-4.8,1.3-10.6c3.2-34,4.1-42.6,4.7-43.2c0.3-0.4,6.5-1.5,13.7-2.5c7.2-1,15.6-2.2,18.6-2.7c3-0.5,5.8-0.9,6.2-0.9
				c0.3,0-1.2,6.9-3.7,16.4c-2.3,9-6.6,25.6-9.5,36.7c-2.9,11.2-6.2,23.9-7.3,28.2c-1.1,4.3-2.2,8-2.4,8.2c-0.2,0.2-7.3,1.6-15.6,3
				l-15.2,2.6l-24-33.1c-13.2-18.1-24.2-33-24.5-33c-0.2,0-0.3,1.1-0.2,2.5c0.2,1.3,0.5,4.9,0.6,8l0.3,5.5l-8,1
				c-10,1.3-10,1.3-10,2.8c0,0.8,2,13.7,4.4,28.9c2.4,15.1,4.2,27.6,4.2,27.7c-0.1,0.1-5,0.8-10.9,1.6c-5.9,0.8-14.1,2-18.1,2.6
				S781.1,585.2,781,585.1z"/>
		</g>
	</g>
</g>
<g id="TheVampireDiaries" class="st1">
	<g class="st2">
		<rect x="467.1" y="485.3" class="st3" width="6.5" height="68"/>
		<rect x="699.3" y="485.3" class="st3" width="6.5" height="68"/>
		<rect x="823.2" y="485.3" class="st3" width="6.5" height="68"/>
		<path class="st3" d="M196.1,492c2.6-12.3-5.7-24.5-17.3-34.7c-26.8,7.9-47.6,18.7-87.9,17.1c-36.5-1.5-46-13.3-45.2-23.2
			c1.1-13.2,24.7-25.9,64.7-22.5c25.8,2.2,51.2,12.3,67.9,26.5c16.7-6.3,33.7-11.3,56.1-9.4c6.8,0.5,13.5,1.6,20.1,3.4
			c3.3-11.2,16-21.8,43.1-19.5c45.9,3.9,119.9,35.8,166.4,39.8c36.8,3.1,96-5.5,135-39l0.3,0.7c-39.2,33.6-103.2,47.6-140,44.4
			c-51-4.3-121.7-41.5-160.8-44.8c-27.1-2.3-39.4,8-42.8,18.7c14.5,4.2,18.9,10.5,18.5,15.3c-0.4,4.2-4.1,7.3-8.3,7
			c-7.4-0.6-12.3-8.1-12.3-16.5c-7.7-1.9-15.5-3.2-23.4-3.8c-20.2-1.7-35.6,1.1-49.9,5.1c11.5,10.3,20.5,24.1,18.8,36.8
			c-1.6,12.3-11.2,18.9-5.1,39.7C184,508.6,193,507,196.1,492 M254.7,455.8c-0.1,7.8,4.3,14.6,10.7,15.2c3,0.3,5.6-1.3,5.8-3.7
			C271.5,464,267.4,459.3,254.7,455.8 M177.1,455.7c-16.7-13.9-42.3-23.9-67.9-26.1c-37.3-3.2-58,8.5-59.1,21.3
			c-0.8,9.3,5.5,21.2,40.5,22.6C128.8,475,152.7,465,177.1,455.7"/>
		<polygon class="st3" points="139.7,419.6 147.3,419.6 193.2,545.8 224.8,459.5 232.1,459.5 193.1,563.5 		"/>
		<path class="st3" d="M374.4,553.4v-46.3c0-15.8-10.6-17.9-15.2-17.9c-12.4,0-20.1,9.5-20.1,24.1v40.1h-6.5v-46.3
			c0-15.8-10.4-17.9-14.9-17.9c-8.2,0-20.3,6.8-20.3,24.1v40.1h-6.5v-68.1h6.5V496c3.5-7.2,11.6-12.3,20.3-12.3
			c12,0,18.3,6.4,20.3,13c4.3-8.7,11.2-13,21.1-13c13.7,0,21.6,8.5,21.6,23.4v46.2L374.4,553.4L374.4,553.4z"/>
		<path class="st3" d="M395.1,577.2v-91.8h6.5v12.8c3.1-6.3,10.5-14.3,23.7-14.3c9.8,0,17.8,3.7,23.2,10.7c4.9,6.3,7.4,15,7.4,25
			c0,22.2-11.5,35.4-30.7,35.4c-11.2,0-19.4-4.6-23.7-13v35.3L395.1,577.2L395.1,577.2z M425.3,489c-21.9,0-23.6,23.4-23.6,30.4
			c0,13.5,4.1,30.2,23.6,30.2c17.8,0,24.2-15.8,24.2-30.2C449.5,505.7,443.2,489,425.3,489"/>
		<path class="st3" d="M487.7,553.4v-68h6.5v14.1c3.7-8.9,13.5-14.5,23.9-14.5c0.4,0,0.9,0,1.3,0h0.8v6.5l-0.9-0.1
			c-0.8-0.1-1.6-0.1-2.4-0.1c-5.8,0-11.3,2.3-15.3,6.4c-4.6,4.7-6.8,8.5-7.3,18.6v37.1L487.7,553.4L487.7,553.4z"/>
		<path class="st3" d="M784.3,553.4v-68h6.5v14.1c3.7-8.9,13.5-14.5,23.9-14.5c0.4,0,0.9,0,1.3,0h0.8v6.5l-0.9-0.1
			c-0.8-0.1-1.6-0.1-2.4-0.1c-5.8,0-11.3,2.3-15.3,6.4c-4.6,4.7-6.8,8.5-7.3,18.6v37.1L784.3,553.4L784.3,553.4z"/>
		<path class="st3" d="M550.8,554.9c-8.4,0-15.6-2.8-20.8-8.2c-6.1-6.2-9.4-15.6-9.3-26.2c-0.2-11.5,3.5-22,10.1-28.7
			c5.2-5.3,12.1-8.1,20-8.1c8.7,0,16,2.9,21.3,8.4c6.2,6.5,9.3,16.4,8.8,27.9v0.8h-53.7c0,8.9,2.9,16.9,7.9,22
			c4.1,4.3,9.8,6.8,15.8,6.8c12.2,0,20.8-7.6,23.1-19.6l0.1-0.6h6.5l-0.1,0.9C577.6,546.2,567.2,555,550.8,554.9 M574.3,515
			c-0.5-12.7-8.7-25.8-23.5-25.8c-13.9,0-22.3,13.1-23.6,25.8H574.3z"/>
		<path class="st3" d="M869.9,554.9c-8.4,0-15.6-2.8-20.8-8.2c-6.1-6.2-9.4-15.6-9.3-26.2c-0.2-11.5,3.5-22,10.1-28.7
			c5.2-5.3,12.1-8.1,20-8.1c8.7,0,16,2.9,21.3,8.4c6.2,6.5,9.3,16.4,8.8,27.9v0.8h-53.7c0,8.9,2.9,16.9,7.9,22
			c4.1,4.3,9.8,6.8,15.8,6.8c12.2,0,20.8-7.6,23.1-19.6l0.1-0.6h6.5l-0.1,0.9C896.8,546.2,886.3,555,869.9,554.9 M893.5,515
			c-0.5-12.7-8.7-25.8-23.5-25.8c-13.9,0-22.3,13.1-23.6,25.8H893.5L893.5,515z"/>
		<path class="st3" d="M612.4,552.5v-93.9h31c37.8,0,43.5,29.3,43.5,46.8c0,29.5-16.3,47.1-43.7,47.1L612.4,552.5L612.4,552.5z
			 M643.7,546c8.4,0,36-2.9,36-40.7c0-27.2-12.2-40.4-37.1-40.4h-22.9v81L643.7,546L643.7,546z"/>
		<path class="st3" d="M936.3,554.9c-16.7,0-27.3-9.4-27.7-24.4v-0.8h6.4l0,0.7c0.7,11.4,9.1,19.2,21.2,19.2
			c6.1,0,20.3-1.8,20.3-13.8c0-10-9.9-12-20.4-14.2l-1.8-0.4c-9.9-2-23.5-4.8-23.5-19.6c0-11.2,9.3-17.8,24.8-17.8
			c16.3,0,25.3,7.8,25.3,22v0.8h-6.4v-0.8c-0.1-14.1-11.9-16.6-18.9-16.6c-8.9,0-18.4,3.6-18.4,12.5c0,9.3,9.4,11.3,19.4,13.4
			l2.1,0.4c13.2,2.5,24.2,5.7,24.2,20.3C963,553.5,942.5,554.9,936.3,554.9"/>
		<path class="st3" d="M193.3,594c2.6,0,3.7-3.8,3.7-8.6s-3.8-12.2-3.8-18.7c0,6.5-3.8,13.9-3.8,18.7
			C189.5,590.2,190.7,594,193.3,594"/>
		<path class="st3" d="M283.3,547.3c-0.9,0.2-1.9,0.3-2.8,0.3c-3.4,0-3.6-2.7-3.6-7.3v-38.4c0-11.8-8.3-18.1-24.1-18.1
			c-16.4,0-25.5,7.9-26.1,22.7v0.8h6.4l0-0.7c0.6-10.8,7.8-17.5,19.7-17.5c14.7,0,17.7,10.2,17.7,12.8c0,10,0,11.5-22.2,13
			c-10.8,0.9-25.2,4-25.2,20.4c0,12.8,8,19.5,23,19.5c12.6,0,20.6-6.7,24.2-14v2c0,5.4,1.2,10.5,9.7,10.5c1.1,0,2.2-0.1,3.2-0.4
			L283.3,547.3L283.3,547.3z M270.4,527.2c0,0.2-0.7,21.9-24.1,21.9c-10.3,0-16.7-5.3-16.7-13.7c0-8.9,5.3-13.3,17.6-14.6
			c2.4-0.3,5-0.5,7.4-0.8c6.3-0.5,12.1-1.4,15.8-4.4L270.4,527.2L270.4,527.2z"/>
		<path class="st3" d="M775.9,547.3c-0.9,0.2-1.9,0.3-2.8,0.3c-3.4,0-3.6-2.7-3.6-7.3v-38.4c0-11.8-8.3-18.1-24.1-18.1
			c-16.4,0-25.5,7.9-26.1,22.7v0.8h6.4l0-0.7c0.6-10.8,7.8-17.5,19.7-17.5c14.7,0,17.7,10.2,17.7,12.8c0,10,0,11.5-22.2,13
			c-10.8,0.9-25.2,4-25.2,20.4c0,12.8,8,19.5,23,19.5c12.6,0,20.6-6.7,24.2-14v2c0,5.4,1.2,10.5,9.7,10.5c1.1,0,2.2-0.1,3.2-0.4
			L775.9,547.3L775.9,547.3z M763,527.2c0,0.2-0.7,21.9-24.1,21.9c-10.3,0-16.7-5.3-16.7-13.7c0-8.9,5.3-13.3,17.6-14.6
			c2.4-0.3,5-0.5,7.4-0.8c6.3-0.5,12.1-1.4,15.8-4.4L763,527.2L763,527.2z"/>
		<path class="st3" d="M100.2,499.4h5.4v2.7h-5.4v17.9c0,2.1,0.3,3.3,2.6,3.5c0.9,0,1.9-0.1,2.8-0.2v2.8c-1,0-1.9,0.1-2.9,0.1
			c-4.3,0-5.8-1.4-5.8-6v-18.2h-5.4v-2.7H97v-8h3.2V499.4z"/>
		<path class="st3" d="M109.6,489.2h3.2V504h0.1c1.2-3.2,4.7-5.4,8.5-5.4c7.5,0,9.7,3.9,9.7,10.2v17.1h-3.2v-16.5c0-4.6-1.5-8-6.7-8
			s-8.2,3.9-8.3,9.1V526h-3.3V489.2z"/>
		<path class="st3" d="M137.9,513.5c0.1,4.7,2.5,10.4,8.8,10.4c4.7,0,7.3-2.8,8.3-6.8h3.2c-1.4,6-4.9,9.5-11.6,9.5
			c-8.4,0-12-6.5-12-14.1c0-7,3.6-14.1,12-14.1c8.4,0,11.9,7.5,11.7,14.9L137.9,513.5L137.9,513.5z M155.1,510.8
			c-0.2-4.9-3.2-9.5-8.4-9.5c-5.2,0-8.2,4.6-8.8,9.5H155.1z"/>
	</g>
</g>
<g id="Supernatural" class="st1">
	<title>Supernatural_Logo</title>
	<g class="st2">
		<path class="st3" d="M21,546.7c-1.8-0.9-1.9-1.4-1.9-4.8c0-6.4,0.5-11.5,0.6-13.5c0.1-1.4,0.4-2,1-2c0.6,0,0.9,0.4,0.9,1.4
			c0,1.6,0.1,3.2,0.4,4.7c1.9,9.4,10.4,13,18.9,13c12.3,0,18.3-8.8,18.3-17c0-8.8-3.7-13.9-14.7-23l-5.8-4.7
			c-13.5-11.1-16.6-19-16.6-27.7c0-13.7,10.2-23,26.4-23c4-0.1,8,0.4,11.9,1.3c1.5,0.4,3,0.6,4.5,0.6c1,0,1.3,0.3,1.3,0.9
			c0,0.6-0.5,4.8-0.5,13.5c0,2-0.3,2.9-0.9,2.9c-0.6,0-0.9-0.6-1-1.6c-0.2-2.2-0.8-4.4-1.6-6.4c-0.8-1.4-4.2-6.8-16-6.8
			c-8.8,0-15.7,5.5-15.7,14.8c0,7.3,3.3,11.9,15.6,21.5l3.6,2.8c15.1,11.9,18.7,19.8,18.7,30c-0.1,8.4-4.1,16.3-10.9,21.2
			c-5.8,3.7-12.5,5.6-19.3,5.4C32.3,550.3,26.4,549.1,21,546.7z"/>
		<path class="st3" d="M93.3,497.6c0-16.9,0-19.9-0.3-23.4s-0.9-5.5-4.6-6c-1.3-0.1-2.5-0.2-3.8-0.2c-0.5-0.1-0.8-0.4-0.9-0.9
			c0-0.6,0.5-0.9,1.8-0.9c5.1,0,11.9,0.3,12.9,0.3s8.1-0.3,11.4-0.3c1.3,0,1.9,0.3,1.9,0.9c-0.1,0.5-0.5,0.9-1,0.9
			c-0.9,0-1.9,0.1-2.8,0.3c-2.9,0.5-3.6,2.4-3.8,6c-0.3,3.6-0.3,6.4-0.3,23.4v15.2c0,15.7,3.5,22.2,8.3,26.6
			c5.5,5,10.4,5.9,16.7,5.9c6.6,0.1,13-2.7,17.4-7.7c5.2-6.3,6.4-15.2,6.4-26.3v-13.7c0-16.9-0.1-19.9-0.3-23.4s-0.8-5.5-4.5-6
			c-1.3-0.2-2.6-0.2-3.8-0.3c-0.5,0-0.8-0.4-0.9-0.9c0-0.6,0.5-0.9,1.8-0.9c5,0,11.5,0.3,12.1,0.3c0.6,0,6.1-0.3,9.4-0.3
			c1.3,0,1.8,0.3,1.8,0.9c0,0.5-0.4,0.8-0.9,0.9c-0.9,0-1.9,0.1-2.8,0.3c-3.1,0.6-3.7,2.4-4,6c-0.3,3.6-0.1,6.4-0.1,23.4v11.6
			c0,11.8-1.6,24.9-10.5,32.6c-8.2,7-16.9,7.9-23.5,7.9c-3.7,0-15.5-0.3-23.4-7.7c-5.5-5.1-9.8-12.6-9.8-28.5L93.3,497.6L93.3,497.6
			z"/>
		<path class="st3" d="M192.6,497.6c0-16.9,0-19.9-0.3-23.4c-0.3-3.7-0.9-5.5-4.6-6c-1.3-0.2-2.6-0.2-3.8-0.3
			c-0.5-0.1-0.8-0.4-0.9-0.9c0-0.6,0.5-0.9,1.8-0.9c5.1,0,12.1,0.3,13,0.3c2.4,0,10.9-0.3,16-0.3c14.5,0,19.5,4.5,21.5,6.1
			c3.5,3.4,5.6,8.1,5.6,13c0,15.6-11.8,25.9-29,25.9c-1.1,0-2.2,0-3.2-0.1c-0.6,0-1-0.5-1.1-1c0-0.9,0.6-1.1,2.9-1.1
			c12.1,0,20.8-7.7,20.8-17.5c0.2-6.2-2.1-12.1-6.4-16.5c-4.1-3.9-9.6-5.8-15.2-5.2c-2.1,0.1-4.2,0.3-6.3,0.8
			c-0.6,0.1-0.9,0.9-0.9,2v44.2c0,10.5,0,19,0.5,23.5c0.4,3.2,1,5.2,4.5,5.8c1.6,0.3,3.3,0.4,5,0.5c0.5,0,0.9,0.4,0.9,0.9
			c0,0,0,0,0,0c0,0.5-0.5,0.9-1.8,0.9c-6.1,0-13.5-0.4-14.1-0.4c-0.5,0-7.7,0.4-11.1,0.4c-1.1,0-1.8-0.3-1.8-0.9
			c0-0.5,0.4-0.9,0.9-0.9c0,0,0,0,0,0c1.2,0,2.3-0.2,3.5-0.5c2.2-0.5,2.4-2.5,2.9-5.8c0.6-7.8,0.8-15.7,0.6-23.5v-19.2H192.6z"/>
		<path class="st3" d="M265.7,497.6c0-16.9,0-19.9-0.3-23.4c-0.3-3.7-0.9-5.5-4.6-6c-1.3-0.2-2.6-0.2-3.8-0.3
			c-0.5-0.1-0.8-0.4-0.9-0.9c0-0.6,0.5-0.9,1.8-0.9c5.1,0,12.4,0.3,13,0.3s24.3,0.1,26.8,0c2.2-0.1,4.2-0.5,5.1-0.6
			c0.5-0.2,1.1-0.4,1.6-0.5c0.4,0,0.5,0.5,0.5,1c0,0.8-0.6,2-0.9,5.1c-0.1,1-0.4,5.9-0.6,7.2c-0.1,0.6-0.5,1-1,1.1
			c-0.6,0-0.9-0.5-0.9-1.4c-0.1-1.3-0.3-2.6-0.8-3.8c-0.8-1.8-1.9-2.5-8.1-3.3c-1.9-0.3-14.9-0.4-16.2-0.4c-0.5,0-0.6,0.4-0.6,1.1
			v29.5c0,0.8,0,1.1,0.6,1.1c1.4,0,16.2,0,18.8-0.3s4.3-0.4,5.5-1.6c0.4-0.6,1-1.1,1.6-1.4c0.4,0,0.6,0.3,0.6,0.9
			c-0.4,2-0.7,4-0.9,6c-0.3,2.2-0.5,6.3-0.5,7s-0.3,2-1,2c-0.5,0-0.8-0.4-0.8-0.8c0-0.1,0-0.1,0-0.2c0.1-1.2-0.1-2.4-0.5-3.6
			c-0.4-1.6-1.4-2.8-5.8-3.3c-3.1-0.4-15.1-0.5-17-0.5c-0.4-0.1-0.7,0.2-0.8,0.6c0,0.1,0,0.1,0,0.2v9.1c0,3.7-0.1,16.3,0,18.5
			c0.3,7.3,2.3,8.7,13.4,8.7c2.9,0,8.3,0,11.3-1.1c3-1.1,4.5-3.2,5.1-7.5c0.3-1.3,0.5-1.6,1.1-1.6s0.8,0.9,0.8,1.6
			c-0.3,3.5-0.9,7-1.6,10.5c-0.8,2.8-1.9,2.8-6.3,2.8c-8.4,0-14.9-0.3-19.5-0.4c-4.6-0.1-7.7-0.3-9.3-0.3c-0.3,0-2.4,0-4.8,0.1
			c-2.2,0.1-4.7,0.3-6.4,0.3c-1.1,0-1.8-0.3-1.8-0.9c0-0.5,0.4-0.9,0.9-0.9c0,0,0,0,0,0c1.2-0.1,2.3-0.3,3.5-0.5
			c2.2-0.4,2.4-2.5,2.9-5.8c0.6-7.8,0.8-15.7,0.6-23.5L265.7,497.6L265.7,497.6z"/>
		<path class="st3" d="M336.1,497.6c0-16.9,0-19.9-0.3-23.4c-0.3-3.7-0.9-5.5-4.6-6c-1.3-0.2-2.6-0.2-3.8-0.3
			c-0.5-0.1-0.8-0.4-0.9-0.9c0-0.6,0.5-0.9,1.8-0.9c5.1,0,12.6,0.3,13.3,0.3c1.1,0,10.6-0.3,14.1-0.3c7.2,0,15.1,0.6,21,4.7
			c4.7,3.5,7.6,8.9,7.8,14.8c0,8.1-3.3,15.8-13.8,24.8c9.2,11.5,17,21.3,23.5,28.1c6,6.1,9.7,7.2,12.5,7.5c1.3,0.3,2.6,0.4,4,0.4
			c0.5,0,1,0.4,1,0.9c0,0.6-0.6,0.9-2.7,0.9h-7c-6.4,0-9.2-0.6-12-2.2c-4.8-2.5-8.9-7.8-15.3-16c-4.7-5.9-9.7-12.9-12.1-15.8
			c-0.4-0.5-1-0.7-1.6-0.6l-14.3-0.3c-0.4,0-0.8,0.3-0.8,0.7c0,0.1,0,0.2,0,0.2v2.5c0,10.5,0,18.9,0.5,23.4c0.4,3.2,1,5.2,4.5,5.8
			c1.6,0.3,3.3,0.4,5,0.5c0.4-0.1,0.8,0.2,0.9,0.7c0,0.1,0,0.1,0,0.2c0,0.5-0.5,0.9-1.8,0.9c-6.1,0-13.3-0.4-13.8-0.4
			c-0.1,0-7.7,0.4-11.1,0.4c-1.1,0-1.8-0.3-1.8-0.9c0-0.5,0.4-0.9,0.9-0.9c0,0,0,0,0,0c1.2,0,2.3-0.2,3.5-0.5
			c2.2-0.5,2.4-2.5,2.9-5.8c0.6-7.8,0.8-15.7,0.6-23.5L336.1,497.6L336.1,497.6z M345.7,506.8c0,0.6,0.3,1.1,0.8,1.4
			c1.6,0.9,7.4,1.6,12.4,1.6c2.9,0.2,5.9-0.4,8.4-1.9c3.8-2.5,6.8-8.3,6.8-16.6c0-13.5-7.4-21.3-19.3-21.3c-2.7,0-5.4,0.2-8.1,0.6
			c-0.5,0.2-0.9,0.7-0.9,1.3L345.7,506.8L345.7,506.8z"/>
		<path class="st3" d="M426.6,533.5c0.3,8.9,1.3,11.6,4.3,12.4c1.8,0.4,3.7,0.6,5.6,0.6c0.5,0,0.9,0.4,0.9,0.9c0,0,0,0,0,0
			c0,0.6-0.8,0.9-2,0.9c-6.4,0-10.9-0.4-11.9-0.4c-1,0-5.8,0.4-10.9,0.4c-1.1,0-1.8-0.1-1.8-0.9c0-0.5,0.4-0.9,0.9-0.9c0,0,0,0,0,0
			c1.6,0,3.1-0.2,4.6-0.6c2.8-0.8,3.2-3.7,3.2-13.5v-62.2c0-4.3,0.6-5.5,1.6-5.5c1.3,0,3.2,2.2,4.3,3.3c1.8,1.8,18.1,19.2,35.5,37.1
			c11.1,11.5,23.1,24.4,26.6,28l-1.1-54.4c-0.1-7-0.8-9.4-4.2-10.1c-1.8-0.3-3.7-0.5-5.5-0.5c-0.5,0-0.9-0.4-0.9-0.9
			c0,0,0-0.1,0-0.1c0-0.6,0.9-0.8,2.2-0.8c5.1,0,10.5,0.3,11.8,0.3c1.3,0,5-0.3,9.6-0.3c1.1,0,2,0.1,2,0.8c-0.1,0.6-0.7,1-1.3,1
			c-0.9,0-1.8,0.1-2.7,0.3c-3.7,0.8-4,2.9-4,9.4l-0.3,63.6c0,7.2-0.1,7.8-0.9,7.8c-1.1,0-2.3-0.9-8.6-6.6c-1.1-1-17.4-17-29.2-29.4
			c-13-13.7-25.7-27-29.1-30.8L426.6,533.5z"/>
		<path class="st3" d="M545.4,468.4c1.4-3.6,1.9-4.2,2.7-4.2c1.1,0,1.6,1.6,2.7,4c2,4.6,20.1,49.4,27,65.9
			c4.1,9.7,7.2,11.1,9.6,11.9c1.4,0.4,3,0.6,4.5,0.6c0.6-0.1,1.2,0.3,1.4,0.9c0,0.6-1.3,0.9-2.5,0.9c-1.6,0-10,0-17.7-0.3
			c-2.2-0.1-4-0.1-4-0.8c0-0.6,0.3-0.5,0.8-0.8c1.1-0.4,1.6-1.6,1.2-2.7c0-0.1-0.1-0.2-0.1-0.3l-10.1-24.9c-0.1-0.5-0.6-0.7-1-0.6
			h-25.9c-0.5,0-1,0.4-1.1,0.9l-6.4,17.4c-0.9,2.3-1.5,4.8-1.6,7.3c0,2.2,1.9,2.9,3.8,2.9h1c0.9,0,1.1,0.4,1.1,0.9
			c0,0.5-0.6,0.9-1.6,0.9c-2.7,0-8.8-0.4-10.1-0.4s-6.8,0.4-11.4,0.4c-1.4,0-2.2-0.3-2.2-0.9c0.1-0.5,0.5-0.9,1-0.9
			c1.1,0,2.2-0.1,3.3-0.3c5.1-0.6,7.3-4.5,9.4-10L545.4,468.4z M557.9,513.5c0.5,0,0.5-0.3,0.4-0.8L547.2,483
			c-0.6-1.7-1.3-1.7-1.9,0l-10.5,29.8c-0.1,0.5,0,0.8,0.4,0.8H557.9L557.9,513.5z"/>
		<path class="st3" d="M622.3,516.8c0,10.5,0,19,0.5,23.5c0.4,3.2,0.9,5.2,4.3,5.8c1.7,0.3,3.4,0.4,5.1,0.5c0.4-0.1,0.8,0.2,0.9,0.7
			c0,0.1,0,0.1,0,0.2c0,0.5-0.5,0.9-1.8,0.9c-6.1,0-13.3-0.4-13.9-0.4s-8.3,0.4-11.6,0.4c-1.3,0-1.8-0.3-1.8-0.9
			c0-0.4,0.4-0.8,0.8-0.8c0,0,0.1,0,0.1,0c1.1,0,2.2-0.2,3.3-0.5c2.3-0.5,2.9-2.7,3.3-5.9c0.5-4.5,0.5-13,0.5-23.5v-45.6l-16.2,0.3
			c-7,0.1-9.7,0.9-11.4,3.5c-0.7,1.1-1.3,2.2-1.8,3.5c0,0.6-0.5,1.1-1.1,1c0,0,0,0,0,0c-0.5,0-0.8-0.4-0.8-0.9
			c0-1.1,2.3-10.9,2.4-11.8c0.2-0.8,0.6-1.5,1.1-2c1.6,0.5,3.3,1,5,1.3c3.2,0.4,7.5,0.5,8.8,0.5h42.4c2.7,0,5.4-0.1,8.1-0.5
			c1.6-0.3,2.7-0.5,3.2-0.5s0.5,0.6,0.5,1.3c0,3.3-0.4,11.1-0.4,12.4c0.1,0.7-0.3,1.3-1,1.4c-0.5,0-0.8-0.4-0.9-1.9l-0.1-1.1
			c-0.4-3.3-2.8-5.8-13.5-6l-14.1-0.3L622.3,516.8L622.3,516.8z"/>
		<path class="st3" d="M669.9,497.6c0-16.9,0-19.9-0.3-23.4c-0.3-3.5-0.9-5.5-4.6-6c-1.3-0.2-2.6-0.2-3.8-0.3
			c-0.5-0.1-0.8-0.4-0.9-0.9c0-0.6,0.5-0.9,1.8-0.9c5.1,0,11.9,0.3,12.9,0.3s8.1-0.3,11.4-0.3c1.3,0,1.9,0.3,1.9,0.9
			c-0.1,0.5-0.5,0.9-1,0.9c-0.9,0-1.9,0.1-2.8,0.3c-2.9,0.5-3.6,2.4-3.8,6c-0.3,3.6-0.3,6.4-0.3,23.4v15.2c0,15.7,3.5,22.2,8.3,26.6
			c5.5,5,10.4,5.9,16.7,5.9c6.6,0.1,13-2.7,17.4-7.7c5.2-6.3,6.4-15.2,6.4-26.3v-13.7c0-16.9-0.1-19.9-0.3-23.4
			c-0.1-3.5-0.8-5.5-4.5-6c-1.3-0.2-2.6-0.2-3.8-0.3c-0.5,0-0.8-0.4-0.9-0.9c0-0.6,0.5-0.9,1.8-0.9c5,0,11.5,0.3,12.1,0.3
			s6.1-0.3,9.4-0.3c1.3,0,1.8,0.3,1.8,0.9c0,0.5-0.4,0.8-0.9,0.9c-0.9,0-1.9,0.1-2.8,0.3c-3.1,0.6-3.7,2.4-4,6
			c-0.3,3.6-0.1,6.4-0.1,23.4v11.6c0,11.8-1.6,24.9-10.5,32.6c-8.2,7-16.9,7.9-23.5,7.9c-3.7,0-15.5-0.3-23.4-7.7
			c-5.5-5.1-9.8-12.6-9.8-28.5L669.9,497.6L669.9,497.6z"/>
		<path class="st3" d="M769.2,497.6c0-16.9,0-19.9-0.3-23.4c-0.3-3.7-0.9-5.5-4.6-6c-1.3-0.2-2.6-0.2-3.8-0.3
			c-0.5-0.1-0.8-0.4-0.9-0.9c0-0.6,0.5-0.9,1.8-0.9c5.1,0,12.6,0.3,13.3,0.3c1.1,0,10.6-0.3,14.1-0.3c7.2,0,15.1,0.6,21,4.7
			c4.7,3.5,7.6,8.9,7.8,14.8c0,8.1-3.3,15.8-13.8,24.8c9.2,11.5,17,21.3,23.5,28.1c6,6.1,9.7,7.2,12.5,7.5c1.3,0.3,2.6,0.4,4,0.4
			c0.5,0,1,0.4,1,0.9c0,0.6-0.6,0.9-2.7,0.9h-7c-6.4,0-9.2-0.6-12-2.2c-4.8-2.5-8.9-7.8-15.3-16c-4.7-5.9-9.7-12.9-12.1-15.8
			c-0.4-0.5-1-0.7-1.6-0.6l-14.3-0.3c-0.4,0-0.7,0.3-0.8,0.7c0,0.1,0,0.1,0,0.2v2.5c0,10.5,0,18.9,0.5,23.4c0.4,3.2,1,5.2,4.5,5.8
			c1.6,0.3,3.3,0.4,5,0.5c0.4-0.1,0.8,0.2,0.9,0.7c0,0.1,0,0.1,0,0.2c0,0.5-0.5,0.9-1.8,0.9c-6.1,0-13.3-0.4-13.8-0.4
			c-0.1,0-7.7,0.4-11.1,0.4c-1.1,0-1.8-0.3-1.8-0.9c0-0.5,0.4-0.9,0.9-0.9c0,0,0,0,0,0c1.2,0,2.3-0.2,3.5-0.5
			c2.2-0.5,2.4-2.5,2.9-5.8c0.6-7.8,0.8-15.7,0.6-23.5L769.2,497.6L769.2,497.6z M778.9,506.8c0,0.6,0.3,1.1,0.8,1.4
			c1.6,0.9,7.4,1.6,12.4,1.6c2.9,0.2,5.9-0.4,8.4-1.9c3.8-2.5,6.8-8.3,6.8-16.6c0-13.5-7.4-21.3-19.3-21.3c-2.7,0-5.4,0.2-8.1,0.6
			c-0.5,0.2-0.9,0.7-0.9,1.3L778.9,506.8L778.9,506.8z"/>
		<path class="st3" d="M872.8,468.4c1.4-3.6,1.9-4.2,2.7-4.2c1.1,0,1.6,1.6,2.7,4c2,4.6,20.1,49.4,27,65.9
			c4.1,9.7,7.2,11.1,9.6,11.9c1.4,0.4,3,0.6,4.5,0.6c0.6-0.1,1.2,0.3,1.4,0.9c0,0.6-1.3,0.9-2.6,0.9c-1.6,0-10,0-17.7-0.3
			c-2.2-0.1-4-0.1-4-0.8c0-0.6,0.3-0.5,0.8-0.8c1.1-0.4,1.6-1.6,1.2-2.7c0-0.1-0.1-0.2-0.1-0.3L888,518.7c-0.1-0.5-0.6-0.7-1-0.6
			H861c-0.5,0-1,0.4-1.1,0.9l-6.4,17.4c-0.9,2.3-1.5,4.8-1.6,7.3c0,2.2,1.9,2.9,3.8,2.9h1c0.9,0,1.1,0.4,1.1,0.9
			c0,0.5-0.6,0.9-1.6,0.9c-2.7,0-8.8-0.4-10.1-0.4s-6.8,0.4-11.4,0.4c-1.4,0-2.2-0.3-2.2-0.9c0.1-0.5,0.5-0.9,1-0.9
			c1.1,0,2.2-0.1,3.3-0.3c5.1-0.6,7.3-4.5,9.4-10L872.8,468.4z M885.3,513.5c0.5,0,0.5-0.3,0.4-0.8l-11-29.7c-0.6-1.7-1.3-1.7-1.9,0
			l-10.5,29.8c-0.1,0.5,0,0.8,0.4,0.8L885.3,513.5L885.3,513.5z"/>
		<path class="st3" d="M945.6,517.1c0,16,0.3,22.5,2.3,24.4c1.8,1.8,6.1,2.5,14.9,2.5c5.9,0,10.9-0.1,13.5-3.3
			c1.4-1.8,2.3-3.9,2.7-6.1c0-0.7,0.5-1.3,1.1-1.4c0.5,0,0.8,0.5,0.8,1.6c-0.2,3.7-0.8,7.3-1.6,10.9c-0.8,2.5-1.1,2.9-7.2,2.9
			c-8.1,0-14.3-0.1-19.5-0.4c-5.2-0.3-8.9-0.3-12.3-0.3c-0.5,0-2.4,0-4.6,0.1c-2.2,0.1-4.7,0.3-6.4,0.3c-1.1,0-1.8-0.3-1.8-0.9
			c0-0.5,0.4-0.9,0.9-0.9c0,0,0,0,0,0c1.2,0,2.3-0.2,3.5-0.5c2.2-0.5,2.4-2.5,2.9-5.8c0.6-7.8,0.8-15.7,0.6-23.5v-19.1
			c0-16.9,0-19.9-0.3-23.4c-0.3-3.7-0.9-5.5-4.6-6c-1.3-0.2-2.6-0.2-3.8-0.3c-0.5-0.1-0.8-0.4-0.9-0.9c0-0.6,0.5-0.9,1.8-0.9
			c5.1,0,12.1,0.3,12.8,0.3s8.9-0.3,12.4-0.3c1.1,0,1.8,0.3,1.8,0.9c-0.1,0.4-0.4,0.8-0.9,0.8c-0.8,0-2.4,0.1-3.7,0.3
			c-3.3,0.6-4,2.3-4.2,6.1c-0.1,3.5-0.1,6.4-0.1,23.4V517L945.6,517.1z"/>
	</g>
</g>
<g id="_x32_BrokeGirls" class="st1">
	<g class="st2">
		<path class="st3" d="M267.3,445.2v8.8h-90l54.4-59.8c11-12.2,26.9-28.8,26.9-45.9c-0.2-18.7-15.5-33.7-34.2-33.5
			c-0.1,0-0.1,0-0.2,0c-19.9,0-35,14.5-34.4,34.4h-9.4c0.4-10.3,1.9-19.3,9.1-27.7c9-9.7,21.5-15.2,34.6-15.5
			c23.6-0.5,43.2,18.2,43.7,41.8c0,0.3,0,0.6,0,1c0,19.5-14.9,35.4-27.5,49.2l-42.5,47.3H267.3z"/>
		<path class="st3" d="M348.1,454V308h29.2c11,0,21.5,0.8,30.2,8.5s12.2,18.6,12.2,30.2c0.7,12.4-5.9,24.1-16.8,29.8
			c17.7,3.2,30.5,18.8,30.2,36.8c0.3,11.6-4.7,22.7-13.5,30.2c-10.3,8.7-21.1,10.3-34.1,10.3h-37.4V454z M357.4,374.3h16
			c9.9,0,17.8,0.6,26.1-5.4c8.3-6,10.8-13.4,10.8-23.4c0.5-9.6-4.1-18.7-12-24c-7.4-4.6-16.5-4.6-25-4.6h-16L357.4,374.3
			L357.4,374.3z M357.4,445.3h22.3c10.3,0,20.9,0.4,29.8-5.6c8.9-5.6,14.3-15.4,14.3-25.9c0.3-10.9-5.5-21-15.1-26.1
			c-8.9-4.5-21.1-4.6-30.9-4.6h-20.6v62.3L357.4,445.3z"/>
		<path class="st3" d="M512.9,454h-10.7l-47.6-69.1H450V454h-9.3V308h18.2c11.8,0,23.4,0.2,33.3,7.4c10.3,7.4,14.7,19,14.7,31.4
			c0,25.4-17.6,38.5-41.8,38.1L512.9,454z M461.8,376.2c9.1,0,18.2-0.4,25.6-6.9c6.7-5.7,10.5-14.2,10.3-23.1
			c0.5-11.1-5.6-21.4-15.5-26.3c-7.8-3.7-17.6-3.4-26.1-3.4h-6v59.4h11.8L461.8,376.2z"/>
		<path class="st3" d="M659.7,380.9c0.4,41.7-33.2,75.9-74.9,76.3c-41.7,0.4-75.9-33.2-76.3-74.9c-0.4-41.7,33.2-75.9,74.9-76.3
			c0.2,0,0.5,0,0.7,0C625.5,306.3,659.1,339.6,659.7,380.9z M517.6,380.9c-0.1,36.7,29.5,66.5,66.2,66.5
			c36.7,0.1,66.5-29.5,66.5-66.2c0.1-36.7-29.5-66.5-66.2-66.5c-0.1,0-0.1,0-0.2,0c-36.6,0.1-66.2,29.6-66.5,66.2H517.6z"/>
		<path class="st3" d="M745.4,308h12.5l-71.4,70.3l75.9,75.6h-12.2l-70.1-69.7l-3.9,3.9v66H667V308h9.3v68.1L745.4,308z"/>
		<path class="st3" d="M774.6,316.6v53h58.9v8.8h-58.9v66.8H835v8.8h-69.7V308H835v8.6H774.6z"/>
		<path class="st3" d="M363.6,572c-0.5,29.9-2.7,55.3-20.9,80.8c-20.1,27.9-50.2,40.2-84.3,40.2c-64.3,0-109-43.7-109-107.9
			c0-66.4,45-110.1,110.9-110.1c42.1,0,74.6,19,92.2,57.2L302,553.3c-7.3-19.5-22.8-32.5-44.2-32.5c-35,0-53.2,33.4-53.2,64.6
			c0,31.7,19,64,54,64c23.1,0,40.7-11.9,42.8-35.5h-43.4V572H363.6L363.6,572z"/>
		<path class="st3" d="M422.6,686.2h-53.1V481.5h53.1V686V686.2z"/>
		<path class="st3" d="M602.5,686.2h-66.2l-50.2-78.7h-0.5v78.6h-53.1V481.5H512c40.4,0,71.1,19.3,71.1,62.9
			c0,28.2-15.7,52.6-44.7,57.8L602.5,686.2z M485.7,573.4h5.2c17.4,0,36.9-3.3,36.9-25.5s-19.5-25.5-36.9-25.5h-5.2V573.4z"/>
		<path class="st3" d="M648.4,641.2h63.8v45H595.4V481.5h53.2V641L648.4,641.2z"/>
		<path class="st3" d="M834.5,533.6c-9.8-8.5-22.3-13.3-35.3-13.5c-9.8,0-22.8,5.7-22.8,17.2c0,11.9,14.4,16.6,23.6,19.5l13.6,4.1
			c28.5,8.4,50.4,22.8,50.4,55.9c0,20.3-4.9,41.2-21.2,55c-16.3,13.7-37.4,19.3-58.1,19.3c-25.8-0.2-50.9-8.4-71.9-23.3l22.8-42.8
			c13.3,11.6,29,21.2,47.2,21.2c12.5,0,25.8-6.3,25.8-20.6c0-14.9-20.9-20.1-32.3-23.3c-33.4-9.5-55.3-18.2-55.3-57.8
			c0-41.5,29.6-68.7,70.5-68.7c22.4,0.4,44.3,6.2,64,16.8L834.5,533.6z"/>
	</g>
</g>
<g id="JerrySpringer" class="st1">
	<g class="st2">
		<g>
			<g>
				<path class="st3" d="M69.9,451.5c-15.8-1.6-31.6-12-31.6-29.4c0-11.1,8.5-20.2,19.6-20.2c9.8,0,18.3,7.9,18.3,18
					c0,7.6-4.4,13.9-11.7,16.8c-0.3,0.3-1.6,0.9-1.6,1.3c0,1.6,5.4,3.5,7,3.8V451.5z M124.9,415.5c0,10.4-1.9,19.9-10.1,26.9
					c-7.9,7-21.2,9.5-31.6,9.5l-6-0.3v-9.8c6.6-3.2,6.6-9.5,6.6-15.5v-83.5c0-6.3,0.3-7.3-5.7-9.2c-2.2-0.6-3.8-2.2-3.8-4.4
					c0-4.7,5.4-5.1,6.3-5.1h47.4c0.6,0,6.3,0.3,6.3,5.1c0,2.2-1.6,3.8-3.8,4.4c-6,1.9-5.7,2.8-5.7,9.2
					C124.9,342.7,124.9,415.5,124.9,415.5z"/>
				<path class="st3" d="M151.8,324.1H196v125.5h-44.3c-0.6,0-6.3-0.3-6.3-5.1c0-2.2,1.6-3.8,3.8-4.4c6-1.9,5.7-2.8,5.7-9.2v-88.2
					c0-6.3,0.3-7.3-5.7-9.2c-2.2-0.6-3.8-2.2-3.8-4.4C145.4,324.4,151.1,324.1,151.8,324.1z M203.6,324.1h37.3v34.1
					c0,0.9-0.3,4.1-5.1,4.1c-2.8,0-3.8-1.6-4.4-4.1c-4.4-13.6-13-21.8-27.5-24v-10.1H203.6z M203.6,380c7-1.9,10.1-8.2,11.7-14.9
					c0.9-2.8,1.9-5.4,5.4-5.4c5.1,0,4.4,6,4.4,7.3v36c0,1.3,0.9,7.3-4.4,7.3c-3.5,0-4.4-2.5-5.4-5.4c-1.6-6.3-4.7-13-11.7-14.9V380z
					 M203.6,439.8c13.6-1.6,24-10.8,28.5-24.3c1.3-2.5,2.2-5.1,5.1-5.1c5.4,0,4.7,5.1,4.7,5.7v33.5h-38.3V439.8z"/>
				<path class="st3" d="M267.2,342.7c0-6.3,0.3-7.3-5.7-9.2c-2.2-0.6-3.8-2.2-3.8-4.4c0-4.7,5.4-5.1,6.3-5.1h44.3v106.6
					c0,6.3-0.3,7.3,5.7,9.2c2.2,0.6,3.8,2.2,3.8,4.4c0,4.7-5.4,5.1-6.3,5.1H264c-0.6,0-6.3-0.3-6.3-5.1c0-2.2,1.6-3.8,3.8-4.4
					c6-1.9,5.7-2.8,5.7-9.2V342.7z M315.9,324.1h0.9c10.8,0,22.1-0.3,32.3,4.4c11.4,5.4,17.1,14.9,17.1,27.5
					c0.3,19.3-12.3,27.5-29.4,31.6v0.3c14.9,2.2,29.1,6.6,29.4,24.3v14.9c0,1.6-0.6,4.7,1.6,4.7c2.5,0,3.2-4.7,7.3-4.7
					c2.2,0,4.7,2.5,4.7,4.7c0,4.7-5.4,11.1-9.2,13.9c-5.7,4.7-11.7,6-19,6s-13.6-1.9-19-7c-6-6-6.6-13.3-6.6-21.2v-11.4
					c0-7.6-0.3-17.1-10.1-18v-9.8c9.2-0.9,10.1-6.3,10.1-14.5v-20.2c0-8.5-1.9-12.3-10.1-15.5C315.9,334.2,315.9,324.1,315.9,324.1z
					"/>
				<path class="st3" d="M398.7,342.7c0-6.3,0.3-7.3-5.7-9.2c-2.2-0.6-3.8-2.2-3.8-4.4c0-4.7,5.4-5.1,6.3-5.1h44.3v106.6
					c0,6.3-0.3,7.3,5.7,9.2c2.2,0.6,3.8,2.2,3.8,4.4c0,4.7-5.4,5.1-6.3,5.1h-47.4c-0.6,0-6.3-0.3-6.3-5.1c0-2.2,1.6-3.8,3.8-4.4
					c5.7-1.9,5.7-2.8,5.7-9.2V342.7z M447.4,324.1h0.9c10.8,0,22.1-0.3,32.3,4.4c11.4,5.4,17.1,14.9,17.1,27.5
					c0.3,19.3-12.3,27.5-29.4,31.6v0.3c14.9,2.2,29.1,6.6,29.4,24.3v14.9c0,1.6-0.6,4.7,1.6,4.7c2.5,0,3.2-4.7,7.3-4.7
					c2.2,0,4.7,2.5,4.7,4.7c0,4.7-5.4,11.1-9.2,13.9c-5.7,4.7-11.7,6-19,6s-13.6-1.9-19-7c-6-6-6.6-13.3-6.6-21.2v-11.4
					c0-7.6-0.3-17.1-10.1-18v-9.8c9.2-0.9,10.1-6.3,10.1-14.5v-20.2c0-8.5-1.9-12.3-10.1-15.5V324.1z"/>
				<path class="st3" d="M542,400.9l-25.3-60.1c-1.3-3.2-1.9-5.1-4.7-7c-2.2-1.3-3.8-1.9-3.8-4.7c0-5.1,5.4-4.7,8.9-4.7h41.4
					c3.8,0,9.2-0.3,9.2,5.1c0,2.5-1.9,3.8-3.8,5.1c-1.9,0.9-3.2,1.6-3.2,4.1c0,2.2,0.9,4.4,1.6,6.3l20.9,47.4v38.3
					c0,6.3-0.3,7.3,5.7,9.2c2.2,0.6,3.8,2.2,3.8,4.4c0,4.7-5.4,5.1-6.3,5.1h-47.4c-0.6,0-6.3-0.3-6.3-5.1c0-2.2,1.6-3.8,3.8-4.4
					c6-1.9,5.7-2.8,5.7-9.2L542,400.9L542,400.9z M581.2,370.9l8.9-19.3c1.3-2.8,2.5-5.4,2.5-8.9c0-10.1-11.4-6.3-11.4-13.3
					c0-6,7-5.1,10.8-5.1h18.7c3.8,0,8.5,0.3,8.5,5.4c0,2.8-1.9,4.1-4.1,5.1c-7,2.8-8.9,5.4-12,12.3l-16.4,36L581.2,370.9z"/>
			</g>
			<g>
				<path class="st3" d="M95.5,558.7c-6,3.2-10.4,8.9-9.5,15.5c1.3,8.2,6.6,12.3,27.8,16.4c31.3,6,40.5,20.6,43,35.7
					c4.4,25.6-13.9,45.8-38.3,50.6l-1.6-9.5c7.6-3.8,13.6-8.5,12.3-17.7c-1.6-10.4-14.5-12.6-23.1-14.9c-22.4-5.1-43.3-11.1-47.7-37
					c-4.4-25,11.1-43.6,35.1-48.7L95.5,558.7z M67,645.6c-0.6-3.5-0.6-8.2,3.8-8.9c3.2-0.6,6,1.6,7,4.4
					c4.7,12.6,16.8,27.5,31.6,28.1l1.6,9.5c-14.5,2.2-18.7-3.2-24.7-1.9c-5.4,0.9-3.8,6.3-7.9,7c-5.1,0.9-6.3-5.4-6.3-6L67,645.6z
					 M143.9,577.3c0.6,3.8,0.6,7.9-4.1,8.9c-4.1,0.6-6-2.2-7-5.4c-3.8-12-16.4-22.8-29.7-23.1l-1.6-9.5c10.4-1.6,22.4,2.8,24.3,2.5
					c4.4-0.6,2.8-6.6,7.3-7.3c5.1-0.9,5.7,4.7,6,6L143.9,577.3z"/>
				<path class="st3" d="M166.9,558.1c-0.9-6-0.9-7.3-7.3-7.9c-2.2-0.3-4.1-1.6-4.4-3.8c-0.9-4.7,4.4-6,5.4-6.3l43.6-7.6l18.3,105
					c0.9,6,0.9,7.3,7.3,7.9c2.2,0.3,4.1,1.6,4.4,3.8c0.9,4.7-4.4,6-5.4,6.3l-46.8,8.2c-0.6,0-6.3,0.6-7-4.1
					c-0.3-2.2,0.9-4.1,2.8-5.1c5.4-2.8,5.1-3.8,4.1-9.8L166.9,558.1z M211.8,531.2c15.8-2.8,25.3-2.5,33.8,0.3
					c13.6,5.1,20.2,15.2,22.4,29.1c2.5,13.9-0.6,25.6-11.4,35.1c-7,5.7-15.8,9.2-31.6,11.7l-1.6-9.5c9.5-3.5,8.9-10.4,7.3-18.3
					l-4.4-25c-1.3-7.3-4.1-13.9-13-13.6L211.8,531.2z"/>
				<path class="st3" d="M288,537.2c-0.9-6-0.9-7.3-7.3-7.9c-2.2-0.3-4.1-1.6-4.4-3.8c-0.9-4.7,4.4-6,5.4-6.3l43.6-7.6l18.3,105
					c0.9,6,0.9,7.3,7.3,7.9c2.2,0.3,4.1,1.6,4.4,3.8c0.9,4.7-4.4,6-5.4,6.3l-46.8,8.2c-0.6,0-6.3,0.6-7-4.1
					c-0.3-2.2,0.9-4.1,2.8-5.1c5.4-2.8,5.1-3.8,4.1-9.8L288,537.2z M332.6,510.3h0.9c10.8-1.9,21.8-4.1,32.6-0.9
					c12,3.5,19.3,11.7,21.5,24c3.5,19-7.6,29.4-23.7,36.4v0.3c15.2-0.3,29.7,1.6,33.2,19l2.5,14.5c0.3,1.6,0.3,4.7,2.5,4.4
					c2.5-0.3,2.2-5.4,6.3-6c2.2-0.3,5.4,1.6,5.7,4.1c0.9,4.7-3.5,11.7-6.6,15.2c-4.7,5.7-10.4,7.9-17.7,9.2
					c-7,1.3-13.9,0.6-19.9-3.8c-7-5.1-8.9-12-10.1-19.9l-1.9-11.4c-1.3-7.6-3.2-16.8-13.3-16.1l-1.6-9.8c8.9-2.5,8.9-7.9,7.6-16.1
					l-3.5-19.9c-1.6-8.2-3.8-12-12.6-13.3L332.6,510.3z"/>
				<path class="st3" d="M472.1,594.1c0.9,6,0.9,7.3,7.3,7.9c2.2,0.3,4.1,1.6,4.4,3.8c0.9,4.7-4.4,6-5.4,6.3l-46.8,8.2
					c-0.6,0-6.3,0.6-7-4.1c-0.3-2.2,0.9-4.1,2.8-5.1c5.4-2.8,5.1-3.8,4.1-9.8l-15.2-86.6c-0.9-6-0.9-7.3-7.3-7.9
					c-2.2-0.3-4.1-1.6-4.4-3.8c-0.9-4.7,4.4-6,5.4-6.3l46.8-8.2c0.6,0,6.3-0.6,7,4.1c0.3,2.2-0.9,4.1-2.8,5.1
					c-5.4,2.8-5.1,3.8-4.1,9.8L472.1,594.1z"/>
				<path class="st3" d="M590,551.4l7,39.8l-24.7,4.4l-78.4-93.6c-3.5-4.1-4.7-6.6-10.4-7.3c-2.8-0.6-5.4-0.6-6-4.4
					c-0.9-5.1,4.1-5.7,7.6-6.6l42.4-7.3L590,551.4z M494.8,514.1h0.3l12,14.9l8.5,50c6.3,20.2,15.8,12,16.8,19c0.9,5.1-6,6-7.9,6.3
					l-19,3.2c-1.9,0.3-8.5,1.9-9.5-3.2c-1.3-7,10.4-2.5,9.5-23.7L494.8,514.1z M571,499.6c-4.1-23.7-16.4-14.9-18-22.4
					c-0.9-4.7,4.7-6,6.3-6.3l22.4-3.8c1.6-0.3,7.3-0.9,7.9,3.8c1.3,7.6-13.3,3.8-9.2,27.2l7,40.2h-0.3l-12-15.2L571,499.6z"/>
				<path class="st3" d="M658.9,557.7c0.9,6,3.5,12.6,10.4,13.9l1.6,9.5c-28.8,4.1-56-19.9-62-55.3c-6.3-35.4,11.1-67.3,39.5-73
					l1.6,9.5c-6.3,3.5-6.3,10.4-5.4,16.4L658.9,557.7z M656.1,451.5c17.7-1.6,27.2,1.6,29.1,1.3c5.1-0.9,3.5-7,8.5-7.9
					c5.1-0.9,5.4,3.8,5.7,4.4l6.3,36.7c0,0.9,0.9,6-4.1,7c-4.4,0.6-6-2.2-7.3-5.4c-8.9-20.2-23.1-28.1-36.7-26.6L656.1,451.5z
					 M677,570.4c7-3.5,6.3-9.2,5.7-12l-5.1-29.7c-0.6-3.5-0.9-4.4-7.9-4.4c-2.8-0.3-4.7-1.3-5.1-4.1c-0.6-4.4,5.1-5.7,5.7-5.7
					l39.5-7c0.9,0,5.7-1.6,6.6,3.8c0.6,2.8-0.9,4.1-2.2,5.4c-3.2,2.8-2.2,4.7-2.2,5.4l5.7,32.6c-9.8,12.3-23.7,21.8-39.5,25
					L677,570.4z"/>
				<path class="st3" d="M721.9,442.6l43.6-7.6L787,558.7l-43.6,7.6c-0.6,0-6.3,0.6-7-4.1c-0.3-2.2,0.9-4.1,2.8-5.1
					c5.4-2.8,5.1-3.8,4.1-9.8l-15.2-86.6c-0.9-6-0.9-7.3-7.3-7.9c-2.2-0.3-4.1-1.6-4.4-3.8C715.5,443.9,720.9,442.6,721.9,442.6z
					 M772.8,433.8l36.7-6.3l5.7,33.5c0,0.9,0.6,4.1-4.4,4.7c-2.8,0.6-3.8-0.9-5.1-3.5c-6.6-12.6-16.4-19.3-31.3-19L772.8,433.8z
					 M782.3,488.8c6.6-3.2,8.5-10.1,9.2-16.4c0.3-2.8,0.9-5.7,4.4-6.3c5.1-0.9,5.4,5.1,5.7,6.6l6.3,35.7c0.3,1.3,2.2,7.3-3.2,7.9
					c-3.5,0.6-5.1-1.9-6.3-4.4c-2.5-6-7-12-14.2-12.6L782.3,488.8z M792.7,547.6c13-4.1,21.8-14.9,24-28.8c0.6-2.5,1.3-5.4,4.1-6
					c5.4-0.9,5.7,4.1,5.7,4.7l5.7,32.9l-37.9,6.6L792.7,547.6z"/>
				<path class="st3" d="M838.9,441.4c-0.9-6-0.9-7.3-7.3-7.9c-2.2-0.3-4.1-1.6-4.4-3.8c-0.9-4.7,4.4-6,5.4-6.3l43.6-7.6l18.3,105
					c0.9,6,0.9,7.3,7.3,7.9c2.2,0.3,4.1,1.6,4.4,3.8c0.9,4.7-4.4,6-5.4,6.3L854,547c-0.6,0-6.3,0.6-7-4.1c-0.3-2.2,0.9-4.1,2.8-5.1
					c5.4-2.8,5.1-3.8,4.1-9.8L838.9,441.4z M883.4,414.5h0.9c10.8-1.9,21.8-4.1,32.6-0.9c12,3.5,19.3,11.7,21.5,24
					c3.5,19-7.6,29.4-23.7,36.4v0.3c15.2-0.3,29.7,1.6,33.2,19l2.5,14.5c0.3,1.6,0.3,4.7,2.5,4.4c2.5-0.3,2.2-5.4,6.3-6
					c2.2-0.3,5.4,1.6,5.7,4.1c0.9,4.7-3.5,11.7-6.6,15.2c-4.7,5.7-10.4,7.9-17.7,9.2c-7,1.3-13.9,0.6-19.9-3.8
					c-7-5.1-8.9-12-10.1-19.9l-1.9-11.4c-1.3-7.6-3.2-16.8-13.3-16.1l-1.6-9.8c8.9-2.5,8.9-7.9,7.6-16.1l-3.5-19.9
					c-1.6-8.2-3.8-12-12.6-13.3L883.4,414.5z"/>
			</g>
		</g>
		<path class="st3" d="M983.7,521.4l1.6-8.2l2.8-0.6L990,523l-1.9,0.3l-1.6-8.5l0,0l-1.9,9.2l-1.3,0.3l-4.7-7.9l0,0l1.6,8.5
			l-1.9,0.3l-1.9-10.4l2.8-0.6L983.7,521.4z M974.8,516.3l-3.2,0.6l1.6,8.9l-1.9,0.3l-1.6-8.9l-3.2,0.6l-0.3-1.6l8.2-1.6
			L974.8,516.3z"/>
	</g>
</g>
<g id="CrazyEXGirlfriend" class="st1">
	<g class="st2">
		<path class="st3" d="M153.5,487.6l25.3,29.8l-2.3,3.4c-0.9,1.1-19.6,26.1-57.6,28.7c-44.8,3.1-79.5-26.4-82.6-70.1
			c-3.1-42.9,28.1-77.5,72.1-80.3c36-2.6,55.9,16.2,56.8,17l2.6,2.3l-18.2,34.3l-4.3-3.4c-0.3,0-15.3-11.9-32.6-10.5
			c-23.8,1.7-33.5,19.9-32.4,36.9c1.1,18.2,14.5,35.8,37.2,34.3c18.7-1.4,32.4-17.6,32.6-17.9L153.5,487.6z M910.2,418.6l40.3-76.6
			l-49.4,3.4l-14.5,31.8c-1.7,3.4-2.8,6.8-4.3,9.7c-1.4-2.8-3.4-6-5.4-9.1l-18.4-29.5l-49.7,3.7l50.2,70.4l-38.6,73.2l-2.6-35.5
			l-55.6,4l-1.1-16.7l42.3-2.8l-2.6-37.7l-42.3,2.8l-1.1-15.9l53.1-3.7l-2.6-37.7l-96.2,6.8L722,505.2l97.4-6.8h1.4l47.1-3.4
			l15-32.4c1.7-3.4,3.1-6.5,4.3-9.4c1.4,2.6,3.4,5.7,5.4,8.8l19.3,29.8l48.8-3.4L910.2,418.6z M679.5,361l-43.1,90l4.3,59.6
			l-43.1,3.1l-4.3-59.6l-50.5-76.3l1.4,19.6l-49.4,80.3c-1.1,2-2.3,3.7-3.4,5.4c0,0,0,0,0.3,0l59.3-4.3l2.6,37.7l-113.2,7.9
			l-4.3,0.3l-40.3,2.8l-10.5-28.1l-36.6,2.6l-6.2,29.2l-34.1,2.3l-10.8,0.9l-37.7,2.6l-27.8-44.6l-8.8,0.6l3.1,46.3l-43.1,3.1
			l-10.2-146.2l52.8-3.7c14.2-1.1,21.9-0.6,28.9,1.4c18.7,5.7,30.1,21,31.8,42c1.1,16.2-5.1,31.5-16.2,40.3c0.9,1.1,2,2.8,3.1,4.5
			l27.2,41.2l36.9-137.7l42.3-2.8l55.3,130.3l-1.1-14.5l49.1-80c1.1-2,2.3-3.7,3.4-5.4c0,0,0,0-0.3,0l-55.6,4L428,378l110.1-7.7
			l4-0.3l45.4-3.1l19.6,34.3c2,3.4,3.7,6.5,5.1,9.7c1.1-3.1,2.3-6.8,3.7-10.2l14.2-36.6L679.5,361z M242.9,441.6
			c-0.6-7.1-2-11.9-17.3-10.8l-6.8,0.6l1.7,24.1l10.2-0.9C239.2,454.1,243.5,449.9,242.9,441.6z M371.8,464.3l-7.7-20.4
			c-0.6-1.7-1.1-3.4-2-5.4c-0.3,2-0.9,4-1.1,5.4l-4.8,21.3L371.8,464.3z"/>
		<path class="st3" d="M97.9,539.3c27.2,0,41.7,13.6,41.7,13.6l-6.2,8.5c0,0-13.6-11.6-34.9-11.6c-28.4,0-47.4,21.6-47.4,49.1
			c0,28.4,19.9,49.4,46.5,49.4c22.7,0,36.9-17,36.9-17v-19.6h-19.9v-10.2h30.9v55.3h-10.8V648c0-2.6,0.3-4.8,0.3-4.8h-0.3
			c0,0-13.6,15.6-38.3,15.6c-32.1,0-57.3-25.5-57.3-59.9C38.9,565.7,64.4,539.3,97.9,539.3z M173.1,541.2h11.6v115.5h-11.6V541.2z
			 M218.8,541.2h34.6c11.9,0,17.3,1.1,22.1,3.1c11.1,4.8,17.6,15.9,17.6,29.8c0,15.6-9.1,27.5-22.1,31.2v0.3c0,0,1.1,1.4,3.1,4.5
			l25.5,46.5h-13.1l-26.4-48.5h-29.5v48.5h-11.6V541.2H218.8z M258,598c14.2,0,23.3-9.1,23.3-23.6c0-9.7-4-16.7-10.8-20.2
			c-3.4-1.7-7.7-2.8-16.7-2.8h-23.6V598H258z M323.5,541.2h11.6v105.3h54.5v10.2h-66.1V541.2z M409.8,541.2h61.6v10.2h-50.2v43.4
			h43.1v10.2h-43.1V657h-11.6V541.2H409.8z M495.5,541.2h34.6c11.9,0,17.3,1.1,22.1,3.1c11.1,4.8,17.6,15.9,17.6,29.8
			c0,15.6-9.1,27.5-22.1,31.2v0.3c0,0,1.1,1.4,3.1,4.5l25.5,46.5h-13.1L537,608.2h-29.5v48.5h-11.6V541.2H495.5z M534.7,598
			c14.2,0,23.3-9.1,23.3-23.6c0-9.7-4-16.7-10.8-20.2c-3.4-1.7-7.7-2.8-16.7-2.8h-23.6V598H534.7z M600.3,541.2h11.6v115.5h-11.6
			V541.2z M645.7,541.2h66.1v10.2h-54.5v42h44.6v10.2h-44.6v42.9h57.6v10.2h-69V541.2H645.7z M741,541.2h11.1l59.9,83.2
			c4,5.7,9.6,15.6,9.6,15.6h0.3c0,0-1.1-9.6-1.1-15.6v-83.2h11.6v115.5h-11.1l-59.9-83.2c-4-5.7-9.6-15.6-9.6-15.6h-0.3
			c0,0,1.1,9.7,1.1,15.6v83.2H741L741,541.2L741,541.2z M866.5,541.2h37.7c35.2,0,58.8,21.3,58.8,57.6c0,36.9-23.6,57.9-58.8,57.9
			h-37.7V541.2z M903.1,646.5c29,0,48-16.7,48-47.7c0-30.7-19.3-47.4-48-47.4h-25.3v95.1H903.1z"/>
	</g>
</g>
<g id="EFFECT" class="st1">
</g>
<g id="Layer_13">
</g>
</svg>
