<svg xmlns="http://www.w3.org/2000/svg" viewBox="0 0 300 170"><defs><style>.cls-1{fill:#111;}.cls-2{fill:#c30;}</style></defs><title>COMCAST_1</title><g id="Layer_2" data-name="Layer 2"><g id="Layer_2-2" data-name="Layer 2"><rect class="cls-1" width="300" height="170"/></g><g id="Layer_6" data-name="Layer 6"><path class="cls-2" d="M87.87,104.51a31.94,31.94,0,1,1,0-39.89l-1,.63a28.05,28.05,0,1,0,0,38.62l1,.64"/><path class="cls-2" d="M97.44,69.3c-10,0-15.78,6.73-15.78,15.26s5.71,15.26,15.78,15.26c9.58,0,15.46-6.65,15.46-15.26S107,69.3,97.44,69.3m0,24.94a9.7,9.7,0,1,1,9.14-9.67A9.33,9.33,0,0,1,97.44,94.24Z"/><path class="cls-2" d="M185,90.32a9.17,9.17,0,0,1-7.9,3.92A9.69,9.69,0,1,1,185,78.74l4.7-2.88c-.38-.65-3.68-6.56-12.56-6.56-9.6,0-15.78,6.28-15.78,15.26s6.14,15.27,15.77,15.27c8.78,0,12.08-5.73,12.61-6.59L185,90.32"/><path class="cls-2" d="M75.11,90.61a9.65,9.65,0,0,1-8.29,4.12,10.17,10.17,0,1,1,8.25-16.28l4.94-3c-.4-.68-3.86-6.88-13.19-6.88-10.08,0-16.57,6.59-16.57,16s6.46,16,16.57,16c9.21,0,12.67-6,13.23-6.92l-4.94-3.06"/><path class="cls-2" d="M261.93,69.83l.19-8.19-6.31,3.2-.19,5h-4.7v4.9h4.7V91.27c0,5.9,3.36,8.55,7.81,8.55a15.24,15.24,0,0,0,4.42-.58l.76-5a11.78,11.78,0,0,1-2.85.41c-2.46,0-3.83-.93-3.83-3.82V74.73H268v-4.9h-6.1"/><path class="cls-2" d="M216.62,69.83s-.06,2.93-.07,3.4h-.08a12.37,12.37,0,0,0-9.41-3.93c-8.87,0-15.38,6-15.38,15.27,0,8.77,6.1,15.25,15.41,15.25a12.66,12.66,0,0,0,9.38-3.92h.08s.07,3.39.07,3.39H223V69.83h-6.39m-8.89,24.41a9.69,9.69,0,1,1,9.74-9.67A9.32,9.32,0,0,1,207.73,94.24Z"/><path class="cls-2" d="M151.17,99.3V80.84c0-3.87-2-6.11-5.46-6.11s-5.4,2.34-5.4,6.11V99.3H134V80.84c0-3.88-2-6.11-5.43-6.11s-5.44,2.34-5.44,6.11V99.3h-6.3V69.83h6l0,2.81H123a9.43,9.43,0,0,1,7.34-3.34A8.38,8.38,0,0,1,138,73.53a10.49,10.49,0,0,1,8.69-4.23c6.71,0,10.76,4.18,10.76,10.2V99.3h-6.24"/><path class="cls-2" d="M241.07,81.87c5,1.7,8.13,4.26,8.13,8.76,0,6.15-5.27,9.19-12.12,9.19-6.21,0-9.58-2-10.63-2.6l2.45-4.81a17.53,17.53,0,0,0,8.44,2.27c3.21,0,5.53-1.37,5.53-3.43,0-1.84-1.23-3-4.44-4l-3.35-1.16c-3.93-1.34-7.26-3.88-7.26-8.41,0-5.15,4.52-8.33,10.75-8.33a17.16,17.16,0,0,1,9.52,2.45l-2.42,4.55a15.47,15.47,0,0,0-7.26-1.86c-3,0-4.28,1.46-4.28,2.83s1,2.56,3.78,3.51l3.16,1.08"/><path class="cls-2" d="M272.93,98.09h1.31c.83,0,1.25.41,1.25,1a1,1,0,0,1-.9,1l1,1.55H275l-1-1.51h-.64v1.51h-.49V98.09m.49,1.59h.82c.44,0,.74-.2.74-.61s-.31-.56-.74-.56h-.82Z"/><path class="cls-2" d="M276.68,99.86a2.6,2.6,0,1,1-2.59-2.6,2.59,2.59,0,0,1,2.59,2.6m-2.58-3a3,3,0,1,0,3,3A3,3,0,0,0,274.1,96.85Z"/></g></g></svg>