<?xml version="1.0" encoding="utf-8"?>
<!-- Generator: Adobe Illustrator 22.0.0, SVG Export Plug-In . SVG Version: 6.00 Build 0)  -->
<svg version="1.1" id="Layer_1" xmlns="http://www.w3.org/2000/svg" xmlns:xlink="http://www.w3.org/1999/xlink" x="0px" y="0px"
	 viewBox="0 0 404.7 218.8" style="enable-background:new 0 0 404.7 218.8;" xml:space="preserve">
<style type="text/css">
	.st0{fill:url(#SVGID_1_);}
	.st1{fill:#A8A9AC;}
</style>
<g>
	<g id="Layer_2-2_13_">
		<linearGradient id="SVGID_1_" gradientUnits="userSpaceOnUse" x1="5.5762" y1="210.8458" x2="393.5762" y2="10.8456">
			<stop  offset="0" style="stop-color:#393939"/>
			<stop  offset="0.739" style="stop-color:#101010"/>
		</linearGradient>
		<rect class="st0" width="404.7" height="218.8"/>
	</g>
	<g id="Layer_6_1_">
		<path class="st1" d="M113.1,136.3c-14.9,18.6-42,21.6-60.6,6.7c-18.6-14.9-21.6-42-6.7-60.6c14.9-18.6,42-21.6,60.6-6.7
			c2.5,2,4.8,4.3,6.7,6.7l-1.4,0.8c-14.4-15.2-38.3-15.8-53.5-1.4c-15.2,14.4-15.8,38.3-1.4,53.5c14.4,15.2,38.3,15.8,53.5,1.4
			c0.5-0.5,0.9-0.9,1.4-1.4L113.1,136.3"/>
		<path class="st1" d="M126,88.8c-13.5,0-21.3,9.1-21.3,20.6c0,11.5,7.7,20.6,21.3,20.6c12.9,0,20.9-9,20.9-20.6
			S138.9,88.8,126,88.8 M126,122.5c-7.2,0.4-13.4-5.1-13.8-12.3c-0.4-7.2,5.1-13.4,12.3-13.8c7.2-0.4,13.4,5.1,13.8,12.3
			c0,0.3,0,0.5,0,0.8c0.3,6.9-5.2,12.8-12.1,13C126.2,122.5,126.1,122.5,126,122.5L126,122.5z"/>
		<path class="st1" d="M244.1,117.2c-2.4,3.5-6.4,5.5-10.7,5.3c-7.2-0.1-13-6-12.9-13.3c0.1-7.2,6-13,13.3-12.9
			c4,0.1,7.8,2,10.3,5.2l6.3-3.9c-0.5-0.9-5-8.9-16.9-8.9c-13,0-21.3,8.5-21.3,20.6c0,12.1,8.3,20.6,21.3,20.6
			c11.8,0,16.3-7.7,17-8.9L244.1,117.2"/>
		<path class="st1" d="M95.9,117.6c-2.5,3.6-6.8,5.7-11.2,5.6c-7.6-0.1-13.6-6.3-13.6-13.9c0.1-7.6,6.3-13.6,13.9-13.6
			c4.3,0.1,8.2,2.1,10.8,5.5l6.7-4c-0.5-0.9-5.2-9.3-17.8-9.3c-13.6,0-22.4,8.9-22.4,21.6S71.1,131,84.7,131
			c12.4,0,17.1-8.1,17.8-9.3L95.9,117.6"/>
		<path class="st1" d="M347.9,89.5l0.3-11l-8.5,4.3l-0.3,6.7h-6.3v6.6h6.3v22.3c0,8,4.5,11.5,10.5,11.5c2,0,4-0.2,6-0.8l1-6.7
			c-1.3,0.3-2.5,0.5-3.8,0.6c-3.3,0-5.2-1.3-5.2-5.2V96.1h8.2v-6.6H347.9"/>
		<path class="st1" d="M286.8,89.5c0,0-0.1,4-0.1,4.6h-0.1c-3.3-3.5-7.9-5.4-12.7-5.3c-12,0-20.8,8.1-20.8,20.6
			c0,11.8,8.2,20.6,20.8,20.6c4.8,0.1,9.4-1.8,12.7-5.3h0.1l0.1,4.6h8.6V89.5H286.8 M274.8,122.5c-7.2,0-13-5.9-13-13.1
			c0-7.2,5.9-13,13.1-13c7.2,0,13,5.9,13,13.1c0.3,6.9-5.1,12.8-12.1,13C275.5,122.5,275.2,122.5,274.8,122.5L274.8,122.5z"/>
		<path class="st1" d="M198.5,129.3v-24.9c0-5.2-2.7-8.2-7.4-8.2c-4.7,0-7.3,3.2-7.3,8.2v24.9h-8.5v-24.9c0-5.2-2.7-8.2-7.3-8.2
			s-7.3,3.2-7.3,8.2v24.9h-8.5V89.5h8.1v3.8h0.2c2.5-2.9,6.1-4.6,9.9-4.5c4.2-0.2,8.2,2,10.3,5.7c2.7-3.7,7.1-5.8,11.7-5.7
			c9.1,0,14.5,5.6,14.5,13.8v26.7H198.5"/>
		<path class="st1" d="M319.8,105.8c6.7,2.3,11,5.7,11,11.8c0,8.3-7.1,12.4-16.4,12.4c-8.4,0-12.9-2.7-14.3-3.5l3.3-6.5
			c3.5,2,7.4,3,11.4,3.1c4.3,0,7.5-1.8,7.5-4.6c0-2.5-1.7-4-6-5.4l-4.5-1.6c-5.3-1.8-9.8-5.2-9.8-11.3c0-6.9,6.1-11.2,14.5-11.2
			c4.5-0.2,9,1,12.8,3.3l-3.3,6.1c-3-1.6-6.4-2.5-9.8-2.5c-4,0-5.8,2-5.8,3.8c0,1.8,1.3,3.5,5.1,4.7L319.8,105.8"/>
		<path class="st1" d="M362.8,127.7h1.8c1.1,0,1.7,0.6,1.7,1.3c0,0.7-0.5,1.3-1.2,1.3l1.3,2.1h-0.8l-1.3-2h-0.9v2h-0.7L362.8,127.7
			 M363.4,129.8h1.1c0.6,0,1-0.3,1-0.8c0-0.6-0.4-0.8-1-0.8h-1.1V129.8z"/>
		<path class="st1" d="M367.8,130c0,1.9-1.6,3.5-3.5,3.5c-1.9,0-3.5-1.6-3.5-3.5c0-1.9,1.6-3.5,3.5-3.5c0,0,0,0,0,0
			C366.3,126.5,367.8,128.1,367.8,130C367.8,130,367.8,130,367.8,130 M364.4,126c-2.2,0-4,1.8-4,4c0,2.2,1.8,4,4,4c2.2,0,4-1.8,4-4
			C368.4,127.8,366.6,126,364.4,126C364.4,126,364.4,126,364.4,126L364.4,126z"/>
	</g>
</g>
</svg>
