<?xml version="1.0" encoding="utf-8"?>
<!-- Generator: Adobe Illustrator 22.0.0, SVG Export Plug-In . SVG Version: 6.00 Build 0)  -->
<svg version="1.1" id="Layer_1" xmlns="http://www.w3.org/2000/svg" xmlns:xlink="http://www.w3.org/1999/xlink" x="0px" y="0px"
	 viewBox="0 0 404.7 218.4" style="enable-background:new 0 0 404.7 218.4;" xml:space="preserve">
<style type="text/css">
	.st0{fill:url(#SVGID_1_);}
	.st1{fill:#A8A9AC;}
</style>
<g>
	<g id="Layer_2-2_11_">
		<linearGradient id="SVGID_1_" gradientUnits="userSpaceOnUse" x1="0" y1="109.2053" x2="404.7481" y2="109.2053">
			<stop  offset="0" style="stop-color:#393939"/>
			<stop  offset="0.739" style="stop-color:#101010"/>
		</linearGradient>
		<rect class="st0" width="404.7" height="218.4"/>
	</g>
	<g id="DISNEY_1_">
		<g id="layer1_1_">
			<path id="path2665_1_" class="st1" d="M282.7,134.6c-0.4-0.4-0.8-0.8-1.2-1.2c-0.5-0.7-0.9-1.4-1.4-2.2c-0.2-0.4-0.3-0.7-0.5-1.1
				c-0.9-2.5-1-5.2-0.4-7.7c0.5-2.5,1-2.7,2.3-6.1c0.1-0.2,0.1-0.4,0.1-0.6c0-0.5-0.7-3.7-0.8-4.7c0-1.6,1.2-2.7,3.2-2.9
				c0.2,0,0.3,0,0.5,0c0.8-0.2,1.3-1.8,1.8-3c0.6-1.8,1.6-4.4,1.6-4.4s-2.6-0.6-3.9-1.1c-1.4-0.4-2.7-1.4-3.4-2.7
				c-0.8-1.6-0.3-2.6,1.4-3.1c0.6-0.2,5.6-1.2,7.2-1.3c2-0.3,3.8-0.5,5.7-0.8c1.6-0.2,9.1-1.1,11.5-1c3.3,0,6.4,1.8,8.1,4.7
				c1.1,1.6,1.9,3.6,0.2,4.6c-2.7,1.6-11.2,1.7-12.7,1.7c-2.5,0-5.9,0-5.9,0l-1.8,5.7l9.6-0.1c0.7,0,1.4,0,2.1,0.1
				c1.8,0.4,2.4,1.7,2.4,3.7c0.1,2.3-0.3,3.3-2.1,3.6c-0.9,0.2-11.4,0.2-12.9,0.4c-0.9,0.1-1.8,0.2-1.8,0.2s-0.8,2-1.3,4
				c-0.6,2.1-1.2,4.2-1.2,4.2h1c0.7,0,1.4-0.1,2.1-0.2c3.2-0.6,8-1.3,11.9-1.9c2.1-0.3,3.2-0.5,4.3,0.9c0.9,1,1.5,2.4,1.5,3.8
				c0,1.3-1,2.3-2.3,3.3c-4.1,3.2-11.2,6.6-16.5,7.2c-1.7,0.3-3.5,0.1-5.2-0.6c-0.7-0.2-1.3-0.5-1.9-0.9
				C283.8,135.4,283,134.9,282.7,134.6L282.7,134.6z"/>
			<path id="path2671_1_" class="st1" d="M94.5,102.4c0,0-4.2,0.3-7.1,0.6c-4.9,0.6-9.8,1.6-14.6,3.1c-1.2,0.4-3.6,1.4-3.8,2.7
				c0,1.3,0.5,2.5,1.4,3.3c0.5,0.6,3.4,3.4,4.2,4c4.7,3.7,9.8,6.8,15.3,9.3c1.7,0.7,4.6,1.7,4.6,1.7s-0.2-8.2-0.2-16.2
				c0-4.3,0.1-8.5,0.1-8.5 M171.4,105.9c0.1,2.3-0.1,4.6-0.4,6.9c-0.3,1.5-0.8,3.1-1.3,4.5c-0.7,1.6-1.5,3.2-2.3,4.7
				c-1.8,3-4,5.7-6.6,8.1c-7.2,6.2-18.4,9.8-28,11c-6.9,0.8-14,0.6-20.9-0.6c-2.4-0.4-5.9-1.3-5.9-1.3c0,0.8,0,1.6-0.1,2.4
				c-0.1,0.7-0.3,1.4-0.6,2c-0.5,0.9-1.4,1.5-2.5,1.7c-1.4,0.4-2.9,0.3-4.3-0.2c-2.2-0.9-3-3-3.4-5.4c-0.3-1.9-0.6-5.2-0.6-5.2
				s-1.6-0.8-3-1.5c-4.1-2-8-4.4-11.7-7.2c-1-0.7-5.1-4.2-6-5.1c-2.6-2.3-4.8-4.9-6.6-7.9c-1.4-2.1-1.7-4.8-0.7-7.2
				c1.4-3.6,6.6-6.3,10.1-7.9c4.5-1.8,9.2-3.2,14-4.3c1.4-0.2,2.8-0.4,4.2-0.8c0.1,0,0.1-0.1,0.1-0.1c0.1-0.1,0.2-3.7,0.2-5
				c0-1.3,0.9-9.7,1.3-11.5c0.2-1,0.9-4.7,1.6-5.6c0.5-0.6,1.4-0.7,2-0.2c3.8,2.4,5,10.7,5.3,14.8c0.2,2.6,0.3,6.4,0.3,6.4
				s4.4-0.1,7.1,0c2.8,0.1,5.5,0.4,8.3,0.9c4.9,0.7,9.7,2.1,14.2,4c3.2,1.6,6.2,4.4,7.2,7.3c1,2.3,0.7,4.8-0.6,6.9
				c-1.5,2.8-4.3,4.6-7.5,4.9c-1.8,0-3.6-0.4-5.2-1.2c-0.4-0.3-0.4-0.9-0.1-1.3c0.1-0.1,1.7-1,2.6-1.5c0.4-0.2,0.8-0.5,1.2-0.8
				c0.8-0.7,1.5-1.4,1.4-2.3c-0.1-1.1-1.4-1.8-2.4-2.3c-5.4-2.1-16-3.9-21.1-4.2c-2-0.1-4.9-0.2-4.9-0.2l0.6,28.4
				c0,0,2.4,0.5,4.2,0.8c1.1,0.2,5.6,0.6,6.8,0.6c9.2,0.2,19.4-0.6,27.9-4.6c3.7-1.6,6.9-3.9,9.6-6.9c3.5-4.1,5.2-9.4,4.7-14.8
				c-0.5-6.1-4.8-13.3-8.2-17.7c-9-11.6-24.4-21.1-38-26.7c-13.4-5.7-27.7-8.9-42.3-9.5c-3.8-0.1-12.1,0-16.2,1.2
				c-0.6,0.2-1.2,0.4-1.8,0.5c-0.5,0.1-0.9,0.3-1.4,0.6l-0.2,0.2c0,0,0.3,0.1,0.5,0.3c0.2,0.1,2.3,0.3,3.3,0.5
				c0.8,0.1,1.6,0.6,2.1,1.3c0.4,0.5,0.4,1.1,0,1.6c-1,1.2-4.5,1-6.1,0.7c-1.6-0.2-3.7-0.8-4-2.2c-0.2-1.7,0.2-3.4,1.2-4.8
				c1.7-2.9,4.5-5,7.8-5.6c5.4-1.4,10.9-2.3,16.5-2.6c10.9-0.2,21.7,1.4,32,4.7c6.8,2.1,13.4,4.7,19.9,7.8c5,2.5,9.8,5.2,14.5,8.2
				c1.2,0.8,8,5.8,9.1,6.7c2.2,1.8,5.1,4.4,7.2,6.5c4.5,4.5,8.4,9.6,11.6,15.1c0.6,1.2,1.1,2.3,1.8,3.7c0.6,1.3,1.1,2.7,1.6,4
				c0.2,0.8,0.5,2,0.5,2c0.3,1.2,0.4,2.5,0.5,3.7L171.4,105.9z"/>
			<path id="path2673_1_" class="st1" d="M173.4,73.7c0,0,1.2-1.8,2.2-3.2c2.3-2.9,4.8-5.7,7.6-8.1l1.7-1.3c0,0-1.3,0.1-2.2,0.3
				c-2.2,0.7-4.3,1.9-6.1,3.4c-2.3,2-4.8,5.1-3.7,8C173.1,73.2,173.4,73.7,173.4,73.7 M186.1,77.1c3.6-0.2,7-1.3,10.1-3
				c3.1-1.7,7.6-5.1,7.2-9.1c-0.1-1.2-0.9-2.2-2-2.7c-1.2-0.6-2.6-0.6-3.9,0c-1.1,0.3-2.1,0.8-3.1,1.3c-4.3,2.7-8.1,6.1-11.3,10
				c-0.6,0.8-1.3,1.8-1.8,2.4c-0.2,0.2-0.4,0.5-0.5,0.8C181,77.3,184.7,77.2,186.1,77.1 M176.9,83.9c-0.4,0.7-0.8,1.3-1.2,2
				c-0.2,0.4-0.5,0.7-0.9,1c-0.7,0.7-1.8,0.8-2.6,0.1c0,0-0.1-0.1-0.1-0.1c-1.3-1.2-2-2.8-2.1-4.6c0.1-0.7,0.1-1.5,0-2.2
				c-0.5-1.1-1.1-2.2-1.8-3.1c-0.7-1.4-1.2-3-1.3-4.6c-0.2-4.2,2-8,4.8-11c3-3.2,6.7-5.7,10.7-7.3c3.8-1.6,9.4-2.7,13.7-1.3
				c1.6,0.6,3,1.5,4.2,2.8c0.2,0.3,0.3,0.5,0.6,0.7c0.3,0.1,0.7,0.2,1.1,0.2c1.5,0.3,2.9,1,4,1.9c1.5,1.2,2.5,2.8,2.9,4.6
				c0.8,3.8-1.3,8.1-3.9,10.6c-3.9,4.2-8.7,7.6-14.1,9.7c-2.8,1.1-5.9,1.7-8.9,1.6c-0.8,0-1.7-0.3-2.6-0.4c-0.7-0.1-1.4-0.3-2.1-0.6
				c-0.2-0.2-0.5-0.3-0.5-0.2 M181.7,92.4c0.2,0.1,0.4,0.1,0.6,0.2c1.9,0.7,2.7,2.5,3.2,4.5c1.1,4.6,1.6,14.7,1.8,18.7
				c0.1,3,0.2,5.9,0.3,8.8c0.2,2.7,0.2,5.4-0.2,8.1c-0.2,0.9-0.8,1.8-1.6,2.3c-1.3,0.5-2.8,0.7-4.2,0.4c-2.8-0.6-3.8-2.4-4.2-5.2
				c-1-6.7-0.5-19.8,0.1-25.4c0.3-3.4,0.9-6.8,1.8-10.1C179.8,93.8,180.5,92.1,181.7,92.4"/>
			<path id="path2675_1_" class="st1" d="M218.7,107.8h0.4c3.1,0.3,6.2,1.1,9.2,2.2c2.2,0.9,3.9,2.6,5,4.7c3.5,6.4,1.2,14.5-5.2,18
				c-0.4,0.2-0.8,0.4-1.2,0.6c-2.6,1.2-5.4,2-8.3,2.3c-5.4,0.5-10.9-0.5-15.7-2.8c-3.2-1.5-6-3.8-8-6.7c-1.3-2.3-1.2-5.1,0.3-7.3
				c2.5-3.4,7.8-4.1,11.8-4c3.9,0.2,7.7,0.9,11.4,2.1c1.5,0.5,2.9,1.2,4.3,2c0.4,0.3,0.5,0.9,0.4,1.4c-0.7,2-5.6,3.1-7,3.3
				c-3.8,0.6-5.7-0.8-10.1-2.5c-1.2-0.5-2.4-0.8-3.6-1c-2-0.2-4.3,0.4-4.7,2.5c-0.2,1.1,1.1,2.1,2.1,2.6c2,0.9,4.2,1.4,6.5,1.3
				c6.7,0.1,14.2-1,19.7-4.9c0.8-0.5,1.4-1.4,1.5-2.3c0-0.1-0.2-1.2-0.5-1.3c0,0-0.1,0-0.1,0c0,0-0.3-0.4-0.5-0.6
				c-0.7-0.6-1.5-1-2.3-1.3c-3.7-1.6-10.5-2.3-14.1-2.6c-3.5-0.3-9.5-0.8-10.9-1c-1.5-0.2-2.9-0.5-4.3-1.1c-1.4-0.6-2.4-1.8-2.8-3.2
				c-0.5-2.7,0-5.4,1.6-7.6c3.7-5.3,12.3-7.3,18.7-8.1c6.2-0.8,16.3-0.8,22.4,2.5c0.9,0.5,1.4,1,1.2,2c-0.4,1.8-1.8,3.2-3.5,3.7
				c-2.4,0.5-4.8,0.8-7.2,0.9c-7.4,0.4-16.2,0.2-23.3,2.1c-0.6,0.1-1.3,0.4-1.8,0.8c-1.1,1.2,2,1.5,2.7,1.7c0.1,0,0.3,0,0.4,0
				l15.5,1.8"/>
			<path id="path2677_1_" class="st1" d="M241.7,135.3c-3-1.1-3.7-5.9-3.8-8.3c-0.5-7.9,1.6-18.9,4.3-26.4c0.8-2.1,1.8-5.6,4.2-5.4
				c1.6,0.3,2.9,1.3,3.7,2.7c2.3,3.3,5.4,7.8,7.4,10.8c2.3,3.5,4.4,7,6.6,10.2c0.2,0.4,0.5,0.7,0.8,1c0.4,0.3,0.7,0.3,0.9,0
				c0.1-0.3,0-4-0.2-4.9c-0.2-1.3-0.2-2.3-0.4-3.4c-0.5-3.6-1.3-7.2-2.2-10.8c-0.9-3.4-1.9-7-2.7-10.3c-0.3-1-0.5-2-0.5-3
				c-0.2-0.9,0.5-1.8,1.4-1.9c0.4-0.1,0.8,0,1.1,0.2c3,1.1,7,7.6,8.2,9.9c0.4,0.8,2,4.7,2.3,5.8c1.2,3.7,2,7.5,2.4,11.4
				c0.3,4,0,9.8-1.6,13.7c-0.7,1.6-1.7,3.1-2.9,4.4c-1.6,1.5-5,2.7-7.2,1.4c-2.3-1.3-6.6-8.5-7.3-9.7c-2.4-4.2-6.5-12.3-7.1-13.2
				c-0.1-0.2-0.4-0.4-0.6-0.5c-0.2,0-0.3,0.4-0.4,0.8c-0.4,2.4-0.7,13.4-0.7,13.7c0,2.9-0.2,5.8-0.7,8.7c-0.4,1.5-0.7,2.7-2.1,3.3
				C243.6,135.8,242.5,135.8,241.7,135.3"/>
			<path id="path2679_1_" class="st1" d="M349,105.4c-3,2.8-5.6,5.9-7.9,9.3c-2.2,3.2-4.3,6.8-6.3,9.7c-0.6,1-1.2,2-1.7,3
				c0.9,0.1,1.8,0.1,2.7-0.1c3.2-0.7,6.2-2.1,8.8-4.1c3.2-2.6,5.4-6.1,6.4-10.1c0.5-1.8,0.7-5.7-0.6-7.5
				C350.1,105.1,349.4,105.1,349,105.4 M327.5,138.7c0,0-0.9,2.5-1.5,4.5c-1.1,3.4-3.5,12.6-4,15.5c-0.8,4.2-3.2,15.3-3.3,15.6
				c-0.1,0.3-0.4,0.5-0.7,0.7c-1,0.6-1.3,0.4-2.5-0.2c-1.6-0.7-3-1.8-4-3.2c-2.3-3-1.8-8.7-1.3-12c1.6-11.6,3.2-16.7,7.6-28.3
				c0.1-0.1,0.1-0.3,0-0.4c-1.3-2.9-2.1-6.1-2.1-9.4c0-9.1,5.2-18,11-25.2c0.4-0.6,3.3-4,4.6-3.9c1.3,0.1,1.5,1.6,1.4,2.9
				c-0.6,4.2-3.6,8.4-5.6,12c-1.7,2.9-3,6-3.8,9.2c-0.3,1.2-0.5,2.4-0.6,3.5c0,0.7,0.1,1.5,0.3,2.2c0,0,3.7-5.2,6.1-8.4
				c1.3-1.7,2.3-2.9,3.4-4.1c1.1-1.2,5.4-5.8,6.7-6.9c1.9-2,4.1-3.7,6.6-5c2.2-1.2,4.3-1.4,6.4,0c3.5,2.3,5,7.1,5.4,11
				c0.4,4.8-0.4,9.6-2.6,13.9c-2.4,4.6-5.9,8.4-10.3,11.2c-4.5,3.2-9.9,5-15.4,5h-1.6"/>
		</g>
	</g>
</g>
</svg>
