<?xml version="1.0" encoding="utf-8"?>
<!-- Generator: Adobe Illustrator 22.0.0, SVG Export Plug-In . SVG Version: 6.00 Build 0)  -->
<svg version="1.1" id="Layer_1" xmlns="http://www.w3.org/2000/svg" xmlns:xlink="http://www.w3.org/1999/xlink" x="0px" y="0px"
	 viewBox="0 0 404.7 218.8" style="enable-background:new 0 0 404.7 218.8;" xml:space="preserve">
<style type="text/css">
	.st0{fill:url(#SVGID_1_);}
	.st1{fill:#A8A9AC;}
</style>
<g>
	<g id="Layer_2-2_9_">
		<linearGradient id="SVGID_1_" gradientUnits="userSpaceOnUse" x1="3.6691" y1="217.2365" x2="407.1498" y2="-1.7527">
			<stop  offset="0" style="stop-color:#393939"/>
			<stop  offset="0.739" style="stop-color:#101010"/>
		</linearGradient>
		<rect class="st0" width="404.7" height="218.8"/>
	</g>
	<g id="FIOS_1_">
		<path class="st1" d="M88.7,174.4h-0.1v3.1h-3.8v-30.3h3.8v7.7c0,1.7-0.1,3.2-0.1,4.2h0.1c1.5-2.5,4.1-4.1,7-4
			c5.5,0,9.3,4.3,9.3,11.5c0,7.2-3.5,11.5-9.4,11.5C92.8,178.2,90.1,176.8,88.7,174.4z M101.1,166.7c0-4.8-2-8.4-6-8.4
			c-4.6,0-6.7,3.8-6.7,8.4c0,4.6,2.2,8.4,6.7,8.4C99.2,175,101.1,171.5,101.1,166.7z"/>
		<path class="st1" d="M108.2,184.7v-3.3h0.2c0.7,0.3,1.5,0.4,2.3,0.4c1.5,0,2.5-0.6,3.3-2.7c0.3-0.9,0.6-1.8,0.8-2.8l-8.4-20.7h4
			l4.5,12.1c0.9,2.5,1.8,5.9,1.8,5.9h0.1c0,0,1-3.5,1.9-5.9l4.4-12.1h4l-9.3,23.9c-1.8,4.6-3.5,5.6-6.4,5.6
			C110.3,185.1,109.2,185,108.2,184.7z"/>
		<path class="st1" d="M137.5,155.7h4l3.8,11.8c0.9,2.9,2,7,2,7h0.1c0,0,0.9-4,1.9-7l3.9-11.8h3.9l-7.9,21.9h-4.2L137.5,155.7z"/>
		<path class="st1" d="M158.6,166.6c0-6.4,4.2-11.5,10.5-11.5c2.9-0.1,5.6,1.2,7.5,3.4c1.9,2.6,2.9,5.8,2.7,9h-16.8
			c0.3,4.3,2.6,7.5,6.8,7.5c3,0,5.1-1.4,5.8-3.7h3.7c-1,4-4.5,6.8-9.5,6.8C162.5,178.1,158.6,173,158.6,166.6z M162.5,164.8h12.6
			c-0.2-4.2-2.4-6.7-6.2-6.7C165.2,158,163,160.9,162.5,164.8L162.5,164.8z"/>
		<path class="st1" d="M187.1,159.6h0.2c1.2-2.5,3.7-4.2,6.5-4.2c0.5,0,0.9,0.1,1.3,0.2v3.6H195c-0.5-0.2-1-0.2-1.6-0.2
			c-3.4,0-6.3,2.8-6.3,6.2c0,0.1,0,0.3,0,0.4v11.9h-3.8v-21.9h3.8L187.1,159.6z"/>
		<path class="st1" d="M198.8,147.2h3.9v4.4h-3.9V147.2z M198.9,155.7h3.8v21.9h-3.8V155.7z"/>
		<path class="st1" d="M207.2,174.6l9.8-12.7c0.9-1.1,2.6-3,2.6-3v-0.1c0,0-2.6,0.1-4.1,0.1H208v-3.2h16.4v2.4l-9.9,13
			c-0.9,1.2-2.7,3.2-2.7,3.2v0.1c0,0,2.7-0.1,4.3-0.1h8.8v3.3h-17.7V174.6z"/>
		<path class="st1" d="M227,166.6c0-6.4,4-11.5,10.7-11.5c6.7,0,10.6,5.1,10.6,11.5c0,6.4-4,11.5-10.6,11.5
			C231.2,178.1,227,173,227,166.6z M244.5,166.6c0-4.7-2.3-8.5-6.7-8.5c-4.4,0-6.8,3.8-6.8,8.5c0,4.7,2.3,8.4,6.8,8.4
			S244.5,171.3,244.5,166.6z"/>
		<path class="st1" d="M256.3,158.7h0.1c1.5-2.3,4.1-3.7,6.9-3.6c4.6,0,7.4,2.6,7.4,7.1v15.3h-3.8v-14.8c0-2.8-1.8-4.4-4.8-4.4
			c-3.1-0.1-5.7,2.3-5.8,5.4c0,0.2,0,0.3,0,0.5v13.3h-3.8v-21.9h3.7L256.3,158.7z"/>
		<path class="st1" d="M248.9,132.1c16.7,0,29-7.4,29-21.3c0-16.3-13-19.2-24.5-21.2c-8.1-1.3-15.6-2-15.6-6.6c0-4,3.9-6,9-6
			c5.9,0,9.8,1.9,10.5,7.8h18.4C274.9,71.9,265.1,64,247,64c-15.1,0-27.5,7-27.5,20.6c0,14.9,11.5,18.1,22.9,20.1
			c8.7,1.5,16.4,2,16.4,7.8c0,4.1-3.9,6.5-10.3,6.5c-6.7,0-11.2-3.1-11.9-9.7h-19.1C218.4,123.4,230.1,132.1,248.9,132.1z
			 M122.8,60.4h19.7V42.9h-19.7V60.4z M181.4,117.7c-9.3,0-14.2-7.8-14.2-19.6s4.9-19.6,14.2-19.6c9.3,0,14.4,7.7,14.4,19.6
			C195.8,110,190.7,117.7,181.4,117.7z M181.5,132.1c20.5,0,34.1-14.8,34.1-34c0-19.1-13.7-34-34.1-34c-20.5,0-34.1,14.7-34.1,34
			C147.4,117.4,161.1,132.1,181.5,132.1L181.5,132.1z M122.8,130.2h19.7V65.9h-19.7V130.2z M84.8,130.2h19.6V79.9h12.9v-14h-12.9
			v-1.8c0-5.7,4.8-6.4,12.9-6v-15c-10.8-1.1-21.9,0-27.3,5.5c-3.5,3.7-5.3,8.7-5.1,13.8v3.5h-7.7v14h7.7V130.2z"/>
		<polygon class="st1" points="317.8,33.6 293.5,85.6 284.4,65.9 274.5,65.9 289.5,98.1 297.5,98.1 327.6,33.6 		"/>
	</g>
</g>
</svg>
