<svg xmlns="http://www.w3.org/2000/svg" viewBox="0 0 300 170"><defs><style>.cls-1{fill:#111;}.cls-2{fill:#c30;}</style></defs><title>FIOS NEW</title><g id="Layer_2" data-name="Layer 2"><g id="Layer_2-2" data-name="Layer 2"><rect class="cls-1" width="300" height="170"/></g><g id="FIOS"><path class="cls-2" d="M65.94,132.8h-.09v2.3H63.07V112.64h2.81v5.73c0,1.24-.06,2.39-.09,3.08h.09a6,6,0,0,1,5.22-3c4.11,0,6.91,3.21,6.91,8.55s-2.62,8.54-7,8.54A5.62,5.62,0,0,1,65.94,132.8Zm9.21-5.73c0-3.56-1.45-6.22-4.41-6.22-3.44,0-5,2.78-5,6.22s1.66,6.19,5,6.19C73.7,133.26,75.15,130.63,75.15,127.07Z"/><path class="cls-2" d="M80.4,140.41V138h.12a4,4,0,0,0,1.69.3c1.12,0,1.84-.42,2.41-2a16.91,16.91,0,0,0,.58-2.06L79,118.89h3l3.35,9c.66,1.84,1.36,4.38,1.36,4.38h.06s.75-2.56,1.39-4.38l3.23-9h2.93l-6.89,17.69c-1.33,3.41-2.62,4.16-4.71,4.16A7.92,7.92,0,0,1,80.4,140.41Z"/><path class="cls-2" d="M102.13,118.89h3l2.84,8.75c.69,2.18,1.48,5.16,1.48,5.16h.06s.69-3,1.42-5.16l2.9-8.75h2.89l-5.82,16.21h-3.11Z"/><path class="cls-2" d="M117.71,127c0-4.71,3.11-8.52,7.76-8.52A6.84,6.84,0,0,1,131,121a10.34,10.34,0,0,1,2,6.67H120.58c.21,3.17,1.93,5.59,5.07,5.59,2.23,0,3.77-1.06,4.29-2.78h2.74c-.72,3-3.32,5.07-7.06,5.07C120.64,135.55,117.71,131.75,117.71,127Zm2.93-1.36H130c-.15-3.11-1.75-5-4.56-5S121,122.78,120.64,125.65Z"/><path class="cls-2" d="M138.87,121.82H139a5.4,5.4,0,0,1,4.8-3.14,2.54,2.54,0,0,1,1,.18v2.65h-.09a3.45,3.45,0,0,0-1.15-.15,4.63,4.63,0,0,0-4.65,4.92v8.82h-2.81V118.89h2.78Z"/><path class="cls-2" d="M147.57,112.64h2.92v3.26h-2.92Zm.06,6.25h2.8V135.1h-2.8Z"/><path class="cls-2" d="M153.79,132.93l7.24-9.45c.66-.85,1.93-2.21,1.93-2.21v-.09s-1.93.09-3.05.09h-5.58v-2.38h12.16v1.75l-7.36,9.63c-.7.87-2,2.35-2,2.35v.09s2-.09,3.22-.09h6.56v2.48H153.79Z"/><path class="cls-2" d="M168.46,127c0-4.71,3-8.52,7.94-8.52s7.87,3.81,7.87,8.52-3,8.54-7.87,8.54S168.46,131.75,168.46,127Zm12.95,0c0-3.5-1.72-6.28-5-6.28s-5.05,2.78-5.05,6.28,1.72,6.25,5.05,6.25S181.41,130.51,181.41,127Z"/><path class="cls-2" d="M190.13,121.18h.09a6,6,0,0,1,5.13-2.69c3.38,0,5.47,1.91,5.47,5.29V135.1H198v-11c0-2.08-1.36-3.26-3.56-3.26a4.17,4.17,0,0,0-4.32,4.38v9.87h-2.81V118.89h2.78Z"/><path class="cls-2" d="M184.67,101.44c12.37,0,21.48-5.48,21.48-15.8,0-12.09-9.67-14.23-18.13-15.72-6-1-11.53-1.48-11.53-4.92,0-3,2.88-4.47,6.7-4.47,4.37,0,7.25,1.4,7.81,5.77h13.67c-.75-9.48-8-15.34-21.39-15.34-11.16,0-20.36,5.2-20.36,15.25,0,11.06,8.55,13.38,17,14.87,6.42,1.12,12.18,1.49,12.18,5.77,0,3.06-2.88,4.83-7.62,4.83-5,0-8.28-2.32-8.83-7.16H161.52C162.08,95,170.73,101.44,184.67,101.44ZM91.23,48.26h14.6V35.34H91.23Zm43.42,42.49c-6.88,0-10.51-5.76-10.51-14.5s3.63-14.51,10.51-14.51,10.69,5.67,10.69,14.51S141.53,90.75,134.65,90.75Zm.09,10.69c15.16,0,25.3-11,25.3-25.19s-10.14-25.2-25.3-25.2-25.29,10.88-25.29,25.2S119.59,101.44,134.74,101.44ZM91.23,100h14.6V52.35H91.23Zm-28.17,0h14.5V62.76h9.58V52.35H77.56V51c0-4.19,3.53-4.74,9.58-4.46V35.43c-8-.84-16.27,0-20.27,4.09a14.27,14.27,0,0,0-3.81,10.23v2.6H57.38V62.76h5.68Z"/><polygon class="cls-2" points="235.72 28.46 217.76 66.97 210.98 52.35 203.64 52.35 214.78 76.25 220.72 76.25 243 28.46 235.72 28.46"/></g></g></svg>