<svg xmlns="http://www.w3.org/2000/svg" viewBox="0 0 300 170"><defs><style>.cls-1,.cls-3{fill:#c30;}.cls-2{fill:#111;}.cls-3{fill-rule:evenodd;}</style></defs><title>HONDA_300x170</title><g id="Layer_2" data-name="Layer 2"><g id="Layer_2-2" data-name="Layer 2"><rect class="cls-2" width="300" height="170"/></g><g id="HONDA"><path class="cls-3" d="M82.59,55.5a197.76,197.76,0,0,0,0,26c2,29,7,43.31,13,47.6,12.56,8.89,36,7.76,54.45,7.76v3.3c-28.06-1-49.12.05-58.6-11.29-5.74-6.86-9.1-29.7-9.75-47.81a199.36,199.36,0,0,1,.62-25.63l.17,0,.15,0Z"/><path class="cls-3" d="M96.32,43a10.57,10.57,0,0,0-1.21,1.36c-5.32,7.09-4.7,17.75-4.79,26.14a218.42,218.42,0,0,0,1.83,32.23c.8,5.76,1.4,13,4.19,18.48l-2.69,1s-6.8-13.21-6.8-51.41C86.85,43.48,96.32,43,96.32,43Z"/><path class="cls-3" d="M96.18,120.89a59.89,59.89,0,0,1-1.91-6.28c-.13-.56-1.15-6.13-1.33-7.17a130.68,130.68,0,0,1-2-13.77C89.88,82.23,89.2,69.31,89.2,65.23c-.15.56-.23,6.87-.3,7.71,0,.53-.06,3.91-.06,4.56,0,16.39,3.53,41.69,7.34,43.39Z"/><path class="cls-3" d="M92.29,43.42C87.41,50.33,86.83,59.06,86.83,73c0,7.52,1,31.86,5,44.63.16.52,1.48,2.92,1.94,2.47s.16-1.37-.15-2.1S89,98,89,73.06c0-2.24-.19-16.68,1.43-20.78a26.79,26.79,0,0,1,5.38-8.77c2.83-3.49,11-5.38,11-5.38a1.9,1.9,0,0,1,.53,0,.85.85,0,0,1,.49.31,6.92,6.92,0,0,1,3.4-2.21,23.92,23.92,0,0,1,5.79-1.33l3.15,1.83a.61.61,0,0,1,.14-.1c.75-.34,13.15-1.66,29.65-1.45V33c-31.25,0-50.93.87-57.71,10.46Z"/><path class="cls-3" d="M89,67.86a106.9,106.9,0,0,1,.26-11.63,17.32,17.32,0,0,1,.78-4.18,24.64,24.64,0,0,1,3-5.72,15.89,15.89,0,0,1,1.41-1.71A8.51,8.51,0,0,1,96,43.35a22.75,22.75,0,0,0-5,9.24c-.08.31-.15.64-.21,1-.66,3.51-1.46,10.34-1.64,13.27,0,.39,0,.79-.08.93s0,.1,0,.1Z"/><path class="cls-3" d="M217.41,55.5s-1.61-15.61-13.67-19.74c-16.23-5.56-35.33-4.95-53.74-4.95V28.86c5.91,0,40.94.08,54.9,5.94,12.44,5.22,12.83,20.63,12.83,20.63l-.32.07Z"/><path class="cls-3" d="M217.41,55.5a197.76,197.76,0,0,1,0,26c-2,29-6.95,43.31-13,47.6-12.56,8.89-36,7.76-54.45,7.76v3.3c28.06-1,49.12.05,58.6-11.29,5.73-6.86,9.1-29.7,9.75-47.81a199.36,199.36,0,0,0-.62-25.63l-.17,0-.15,0Z"/><path class="cls-3" d="M213.19,70.84c0,38.2-6.8,51.41-6.8,51.41l-2.69-1c2.79-5.47,3.39-12.72,4.19-18.48a218.43,218.43,0,0,0,1.84-32.23c-.1-8.39.52-19-4.8-26.14A11.38,11.38,0,0,0,203.72,43s9.47.48,9.47,27.84Z"/><path class="cls-3" d="M207.71,43.42c4.88,6.91,5.46,15.64,5.46,29.57,0,7.52-1,31.86-5,44.63-.16.52-1.48,2.92-1.94,2.47s-.16-1.37.15-2.1S211,98,211,73.06c0-2.24.19-16.68-1.43-20.78a26.62,26.62,0,0,0-5.39-8.77c-2.82-3.49-11-5.38-11-5.38a1.9,1.9,0,0,0-.53,0,.85.85,0,0,0-.49.31,7,7,0,0,0-3.4-2.21,23.92,23.92,0,0,0-5.79-1.33l-3.15,1.83a.61.61,0,0,0-.14-.1c-.75-.34-13.15-1.66-29.65-1.45V33c31.25,0,50.94.87,57.71,10.46Z"/><path class="cls-3" d="M211,67.86a108.53,108.53,0,0,0-.25-11.63,17.75,17.75,0,0,0-.79-4.18,24.66,24.66,0,0,0-3-5.72,17.11,17.11,0,0,0-1.42-1.71,8.28,8.28,0,0,0-1.46-1.27,22.8,22.8,0,0,1,5,9.24c.08.31.15.64.21,1,.67,3.51,1.46,10.34,1.65,13.27.05.39.05.79.07.93s.06.1,0,.1Z"/><path class="cls-3" d="M208.05,45.11C208,45,204,40.46,199.7,39c-1.42-.48-6.13-1.71-7.52-1.4-.4.09-.35.25-.35.4a14,14,0,0,0-2.12-1.43c-1.35-.56-1.62-.78-6.1-1.67.2,0,.84.05,1.11.07A56.32,56.32,0,0,1,200,38.35a18.78,18.78,0,0,1,8.2,6.66l-.06,0-.08.06Z"/><path class="cls-3" d="M207.89,102.73c-1,7.32-1.71,16.91-7,22.59-1.86,2-16.21,10.36-15.53,3.92C188,109.13,189.47,89,190.72,68.7c.37-8.49.85-17,1-25.51.12-1.43-.77-5,1.48-5.06,4.27,1.24,9,2.48,11.76,6.23,5.32,7.09,4.7,17.75,4.8,26.14a218.43,218.43,0,0,1-1.84,32.23ZM179.76,38c-2.92,10.61-6.29,24.7-9.29,35.36-2.4,8.54-5.16,19.53-15.57,20.62-1.56.16-3.21.3-4.88.32s-3.32-.16-4.88-.32C134.72,92.85,132,81.86,129.57,73.32c-3-10.66-6.37-24.75-9.29-35.36-.5-1.84.25-1.42,4-1.93,6.78-.91,16.89-1.05,25.72-1,8.83-.09,18.94,0,25.72,1,3.77.51,4.53.09,4,1.93Zm-11.12,95.25c-.84.15-3.67.14-6.79.22-3.95.09-7.89.1-11.83.1s-7.88,0-11.83-.1c-3.12-.08-5.95-.07-6.79-.22s-1.7-.2-1.45-1.13,4-13.16,4-13.16c2.49-8.12,2.66-8.65,9-9.9a35.2,35.2,0,0,1,14,0c6.38,1.25,6.55,1.78,9,9.9,0,0,3.79,12.22,4,13.16s-.61,1-1.45,1.13Zm-69.51-7.89c-5.27-5.68-6-15.27-7-22.59A218.42,218.42,0,0,1,90.32,70.5c.09-8.39-.53-19,4.79-26.14,2.81-3.75,7.49-5,11.76-6.23,2.25.09,1.36,3.63,1.48,5.06.12,8.51.6,17,1,25.51,1.25,20.25,2.71,40.43,5.34,60.54.68,6.44-13.67-1.92-15.53-3.92ZM218.41,61.44c-.47-7.93-1.65-16.59-7.52-22.45-5.36-5.35-13.1-6.85-20.3-7.81A305.28,305.28,0,0,0,150,28.86a305.28,305.28,0,0,0-40.57,2.32c-7.2,1-14.94,2.46-20.3,7.81-5.87,5.86-7,14.52-7.52,22.45A225.81,225.81,0,0,0,82.12,89a150.05,150.05,0,0,0,3.79,26.94,36.83,36.83,0,0,0,4.78,11.68A21.69,21.69,0,0,0,99.91,135c7.8,3.57,16.79,3.87,25.21,4.39,8.26.51,16.58.82,24.9.86s16.64-.35,24.9-.86c8.42-.52,17.41-.82,25.21-4.39a21.69,21.69,0,0,0,9.22-7.42,36.83,36.83,0,0,0,4.78-11.68A150.05,150.05,0,0,0,217.92,89a227.84,227.84,0,0,0,.49-27.53Z"/><path class="cls-3" d="M125.89,134.26a1.13,1.13,0,0,0,0-.15c1-4.21,1.48-6.47,2.53-10.24A106.78,106.78,0,0,1,132,113.24c.92-2.43,3-5.66,6.14-6.81s5.41-1.71,11.86-1.71v3.75c-5.17,0-8.31.33-10.82,2a10.81,10.81,0,0,0-3.89,4.91c-1.42,3.53-2.12,6-3.15,9.27-1.09,3.53-1.59,5.32-2.15,7.37a1.65,1.65,0,0,0-.09.49.32.32,0,0,0,.06.23c-1.25.58-1.6.7-1.79.77s-.75.28-1.29.47c-.29.11-.54.18-1,.32Z"/><path class="cls-3" d="M116.78,35.13c1.63,8.1,5.76,27,6.61,30.8s5.35,20.79,7.89,25.08A14.3,14.3,0,0,0,135.82,96c3.34,2.14,7.73,2.57,14.18,2.57V94c-5.17,0-8.31-.18-10.82-1.81a12.51,12.51,0,0,1-3.64-3.91c-3.71-5.7-6.68-17.4-8.27-23.19-1-3.78-6-23.32-7.15-27.92a18.07,18.07,0,0,1-1.67-1,13.48,13.48,0,0,0-1.67-1Z"/><path class="cls-3" d="M150,98.72c-15.53,0-19.57-2.82-25.7-29s-7.48-34.56-7.48-34.56a29.29,29.29,0,0,0-5.39,1.34c-2.7,1-3.39,2.21-3.39,2.21s-.56,18.53,2.73,52.33,4,39.55,4,39.55,5.28,3.12,7.83,3.48a18.57,18.57,0,0,0,3.31.24s1.53-7.42,3.82-14.41c3.36-10.27,4.15-15.13,20.29-15.13v-6Z"/><path class="cls-3" d="M150,104.72c-9.77,0-14.23,2-16.61,5.77-1.51,2.39-2.44,5.57-3.75,9.56s-1.36,4.86-2,6.8-1.79,7.41-1.79,7.41a24.74,24.74,0,0,1-5.35-.61,30.79,30.79,0,0,1-6.1-2.49,1.1,1.1,0,0,0,.29-.75c-.29-3.06-2.77-27.36-3-30-.5-5-.17-1.75-.92-9.4-1.05-10.78-1.7-20-2.11-27.58-.88-16.16-.62-24.75-.62-24.75a6,6,0,0,1,2.89-2c.41-.16,3.75-1.61,3.83-.88s.26,2.29.8,5.52c.84,5,2.5,13.61,5.73,27.5l.21.89c3.07,13.26,3.21,20.54,6.72,25.43a18,18,0,0,0,4.29,4.48c3.62,2.52,8.29,4.15,17.49,5.14Z"/><path class="cls-3" d="M82.59,55.5S84.2,39.89,96.26,35.76c16.23-5.56,35.33-4.95,53.74-4.95V28.86c-5.91,0-40.94.08-54.9,5.94C82.66,40,82.27,55.43,82.27,55.43l.32.07Z"/><polyline class="cls-1" points="126 133 126 135 150 135 150 133 126 133"/><path class="cls-3" d="M126.2,134.31c.66-.22,1.61-.49,2.2-.71s1.12-.5,1.7-.76a2.08,2.08,0,0,0,1,.26c.9.09,3.11.23,8,.34,6.61.14,10.91.14,10.91.14v1.57s-5.25.07-12.44-.18c-5.07-.19-5.64-.22-7-.29-.57,0-4.33-.37-4.33-.37Z"/><path class="cls-3" d="M93.64,122.24A21.92,21.92,0,0,0,98.86,129c5.34,4.32,17,6.44,21.85,6,.59-.06,3.32.05,3.76-.08a26.57,26.57,0,0,1-7.46-2.29c-.78-.36-1.91-.9-2.65-1.33a1.31,1.31,0,0,1-.78.3c-1.34.17-10-1.33-13.35-5.15a21.22,21.22,0,0,1-3.9-5.25l-1.34.52-1.35.52Z"/><path class="cls-3" d="M120.15,36.94a.38.38,0,0,1,.26-.37,14.37,14.37,0,0,1,2.1-.37c1.64-.22,4.43-.47,9.19-.63,10.57-.35,17.91-.42,18.3-.42V33.94s-11.08-.22-19.06.12c-7.33.31-12,.53-13.76.79-.33,0-.35.14-.35.14.81.47.83.46,1.06.59s1.23.76,2.26,1.36Z"/><path class="cls-3" d="M92,45.11c.09-.15,4.07-4.65,8.35-6.07,1.43-.48,6.13-1.71,7.52-1.4.4.09.35.25.35.4a14.52,14.52,0,0,1,2.12-1.43c1.35-.56,1.62-.78,6.1-1.67-.2,0-.84.05-1.11.07a56.32,56.32,0,0,0-15.27,3.34A18.85,18.85,0,0,0,91.85,45l.06,0,.08.06Z"/><path class="cls-3" d="M174.11,134.26l0-.15c-1-4.21-1.48-6.47-2.52-10.24A109.46,109.46,0,0,0,168,113.24c-.92-2.43-3-5.66-6.14-6.81s-5.4-1.71-11.86-1.71v3.75c5.17,0,8.31.33,10.82,2a10.81,10.81,0,0,1,3.89,4.91c1.41,3.53,2.12,6,3.15,9.27,1.09,3.53,1.59,5.32,2.16,7.37a2.15,2.15,0,0,1,.08.49.32.32,0,0,1-.06.23c1.25.58,1.6.7,1.79.77s.75.28,1.29.47c.29.11.54.18,1,.32Z"/><path class="cls-3" d="M183.22,35.13c-1.62,8.1-5.76,27-6.61,30.8S171.26,86.72,168.72,91A14.3,14.3,0,0,1,164.18,96c-3.34,2.14-7.72,2.57-14.18,2.57V94c5.17,0,8.31-.18,10.82-1.81a12.53,12.53,0,0,0,3.65-3.91c3.7-5.7,6.67-17.4,8.26-23.19,1-3.78,6-23.32,7.15-27.92a18.07,18.07,0,0,0,1.67-1,14.36,14.36,0,0,1,1.67-1Z"/><path class="cls-3" d="M150,98.72c15.52,0,19.57-2.82,25.7-29s7.48-34.56,7.48-34.56a29.29,29.29,0,0,1,5.39,1.34c2.7,1,3.39,2.21,3.39,2.21s.56,18.53-2.73,52.33-4,39.55-4,39.55-5.28,3.12-7.83,3.48a18.57,18.57,0,0,1-3.31.24s-1.53-7.42-3.82-14.41c-3.36-10.27-4.15-15.13-20.29-15.13v-6Z"/><path class="cls-3" d="M150,104.72c9.77,0,14.23,2,16.61,5.77,1.52,2.39,2.44,5.57,3.75,9.56s1.36,4.86,2,6.8,1.79,7.41,1.79,7.41a24.74,24.74,0,0,0,5.35-.61,30.79,30.79,0,0,0,6.1-2.49,1.1,1.1,0,0,1-.29-.75c.29-3.06,2.77-27.36,3-30,.5-5,.17-1.75.92-9.4,1.05-10.78,1.71-20,2.12-27.58.87-16.16.61-24.75.61-24.75a6,6,0,0,0-2.89-2c-.41-.16-3.75-1.61-3.82-.88s-.27,2.29-.81,5.52c-.84,5-2.5,13.61-5.73,27.5l-.21.89c-3.06,13.26-3.21,20.54-6.71,25.43a18.16,18.16,0,0,1-4.3,4.48c-3.62,2.52-8.29,4.15-17.49,5.14Z"/><polyline class="cls-1" points="150 133 150 135 174 135 174 133 150 133"/><path class="cls-3" d="M173.8,134.31c-.66-.22-1.61-.49-2.2-.71s-1.12-.5-1.7-.76a2.07,2.07,0,0,1-1,.26c-.91.09-3.12.23-8,.34-6.61.14-10.91.14-10.91.14v1.57s5.25.07,12.44-.18c5.07-.19,5.65-.22,7-.29.57,0,4.33-.37,4.33-.37Z"/><path class="cls-3" d="M206.4,122.24a21.76,21.76,0,0,1-5.22,6.73c-5.33,4.32-17,6.44-21.85,6-.59-.06-3.32.05-3.76-.08a26.71,26.71,0,0,0,7.47-2.29c.77-.36,1.9-.9,2.64-1.33a1.31,1.31,0,0,0,.78.3c1.34.17,9.95-1.33,13.35-5.15a21.22,21.22,0,0,0,3.9-5.25l1.34.52,1.35.52Z"/><path class="cls-3" d="M203.86,120.89a59.89,59.89,0,0,0,1.91-6.28c.13-.56,1.15-6.13,1.33-7.17a125.55,125.55,0,0,0,2-13.77c1.08-11.44,1.77-24.36,1.77-28.44.14.56.22,6.87.29,7.71,0,.53.06,3.91.06,4.56,0,16.39-3.53,41.69-7.34,43.39Z"/><path class="cls-3" d="M179.85,36.94a.38.38,0,0,0-.26-.37,14.37,14.37,0,0,0-2.1-.37c-1.63-.22-4.43-.47-9.18-.63-10.58-.35-17.92-.42-18.31-.42V33.94s11.09-.22,19.06.12c7.33.31,11.95.53,13.76.79.33,0,.35.14.35.14-.81.47-.83.46-1,.59s-1.24.76-2.27,1.36Z"/></g></g></svg>