<?xml version="1.0" encoding="utf-8"?>
<!-- Generator: Adobe Illustrator 22.0.0, SVG Export Plug-In . SVG Version: 6.00 Build 0)  -->
<svg version="1.1" id="Layer_1" xmlns="http://www.w3.org/2000/svg" xmlns:xlink="http://www.w3.org/1999/xlink" x="0px" y="0px"
	 viewBox="0 0 404.7 218.8" style="enable-background:new 0 0 404.7 218.8;" xml:space="preserve">
<style type="text/css">
	.st0{fill:url(#SVGID_1_);}
	.st1{fill:#A8A9AC;}
</style>
<g>
	<g id="Layer_2-2_3_">
		<linearGradient id="SVGID_1_" gradientUnits="userSpaceOnUse" x1="0" y1="109.4034" x2="404.7481" y2="109.4034">
			<stop  offset="0" style="stop-color:#393939"/>
			<stop  offset="0.739" style="stop-color:#101010"/>
		</linearGradient>
		<rect class="st0" width="404.7" height="218.8"/>
	</g>
	<path class="st1" d="M294.7,78.3L294.7,78.3c-0.2-3.7-0.6-7.6-1.2-11.3c-0.9-6.1-4.3-19.3-17-24.7c-0.3-0.1-0.5-0.2-0.8-0.3
		c-5.8-2.6-12.3-3.7-18.5-4.6c-18.2-2.3-36.5-3.3-54.8-3.1c-18.3-0.2-36.6,0.9-54.7,3.1c-6.1,0.8-12.5,1.9-18.2,4.4
		c-0.4,0.1-0.7,0.3-1.1,0.4c-13.7,5.7-16.6,20.7-17.2,26c-0.5,3.3-0.8,6.7-1,10c-0.5,12.4-0.3,24.8,0.7,37.2
		c0.6,12.2,2.3,24.4,5.1,36.3c0.8,3.7,2,7.3,3.7,10.7c1.2,2.8,2.4,5.1,3.8,6.8c2.1,2.5,4.6,4.5,7.5,6.2c1.3,0.8,2.6,1.5,4,2
		c10.5,4.8,22.7,5.2,34,5.9c11.1,0.7,22.4,1.1,33.6,1.2c11.2,0.1,22.4-0.5,33.6-1.2c11.4-0.7,23.5-1.1,34-5.9
		c1.5-0.6,2.9-1.4,4.2-2.2c2.8-1.7,5.2-3.7,7.2-6.1c1.3-1.5,2.5-3.7,3.6-6.3c1.7-3.6,3.1-7.3,3.9-11.2c2.8-11.9,4.5-24.1,5.1-36.3
		C295,103.1,295.2,90.6,294.7,78.3z M270.5,164.9c-2,1.7-7.7,5.2-12.6,7c-2.5,0.7-4.7,1-5.8,1c-1.2-0.2-2-0.9-2.1-2.2
		c0.1-1,0.2-2.5,0.4-4.5c1.9-15.3,3.4-30.7,4.6-46.1c0.1-0.6,0.1-1.3,0.2-1.9c0.6-6.1,1.1-11.8,1.5-17.1c0.1-0.7,0.1-1.3,0.2-2
		c0-0.3,0.1-0.7,0.1-1c0.1-1.1,0.2-2.2,0.2-3.2c0-0.1,0-0.2,0-0.3c0.4-4.9,0.6-9.5,0.9-13.6c0.4-7.7,0.6-14.2,0.8-19.3
		c0-0.1,0-0.1,0-0.2c0-1.2,0-2.4,0.1-3.5c0-0.1,0-0.1,0-0.2c0-0.5,0-1,0-1.4c0,0,0-0.1,0-0.1c0-0.5,0-1,0-1.4c0,0,0-0.1,0-0.1
		c0-0.4,0-0.8,0-1.2c0,0,0-0.1,0-0.1c0-3,0-4.9,0-5.6c0.3-0.6,0.8-1,1.6-1c0,0,0.1,0,0.2,0c1.6,0.5,3.3,0.9,5,1.5
		c3.2,1.1,7,2.9,9.2,5.2c0.1,0.1,0.1,0.1,0.2,0.2c0.1,0.1,0.2,0.2,0.3,0.3c0.2,0.2,0.4,0.4,0.6,0.7c0.1,0.2,0.3,0.3,0.4,0.5
		c7.2,9.6,6.3,23.9,6.5,35.3c0.2,14.5-0.6,29-2.5,43.4h0c-0.1,0.7-0.2,1.5-0.3,2.3c-0.2,1.4-0.5,2.7-0.8,4.1
		c-0.2,1.4-1.6,8.9-1.8,9.7c-0.7,2.8-1.5,5.6-2.5,8.3c-0.1,0.2-0.2,0.4-0.3,0.6C273.6,161.1,272.2,163.1,270.5,164.9z M147.3,172
		c-5.3-1.8-11.8-5.9-13.4-7.5c-1.5-1.7-2.8-3.6-3.9-5.7l0,0c-0.1-0.2-0.2-0.3-0.2-0.5c-1-2.7-1.9-5.5-2.5-8.4
		c-0.2-0.8-1.6-8.3-1.8-9.7c-0.3-1.4-0.5-2.7-0.8-4.1c-0.1-0.8-0.2-1.5-0.3-2.2c-1.9-14.4-2.7-28.9-2.5-43.5c0.1-11-0.7-24.9,6-34.5
		c0.5-0.7,1.1-1.4,1.7-2.1c0,0-0.1,0-0.1,0.1c0.2-0.2,0.3-0.4,0.5-0.5h0c1-1,2.1-1.8,3.3-2.4c1.2-0.7,2.6-1.3,3.9-1.9
		c2.3-0.9,4.8-1.6,7.1-2.3c0.8,0,1.3,0.4,1.6,0.9c0,0.3,0,1.5,0,3.3c0,0.1,0,0.3,0,0.5c0,0.1,0,0.2,0,0.3c0,8.8,0.3,31.6,3.7,66.5
		c0.2,2.5,0.5,4.9,0.7,7.2c1,12.6,2.2,25.2,3.8,37.8c0.4,3.6,0.7,6.5,0.8,7.8c-0.2,1.2-1,1.8-2.3,2
		C151.3,172.8,149.5,172.5,147.3,172z M204.3,42.8c3.6,0,11.9,0.2,22.7,0.5c0.4,0,0.8,0,1.1,0c7.8,0.5,12.9,1.1,14,1.3
		c0.3,0.2,0.4,0.4,0.4,0.9c-0.5,1.9-1.4,5.4-2.4,9.6c-2.7,10.4-5.6,22-8.4,32.3c-2.3,8.4-5.8,20.5-10,27c-0.1,0.2-0.3,0.4-0.4,0.6
		c-2.5,3.2-5.6,5.6-9.8,6.6c-2.5,0.4-5.5,0.5-9.3,0.5c-3.7,0-6.6-0.1-9.1-0.5c-4.7-1.1-8-3.9-10.6-7.5c-3-4.8-5.7-12.4-7.7-19.4
		c0-0.2-0.1-0.3-0.1-0.5c-3.8-13.5-8.1-31.1-11.8-45.1c-0.4-1.5-0.7-2.7-0.9-3.5c0-0.5,0.1-0.8,0.4-1c1.2-0.3,6.3-0.9,13.9-1.3
		c0.4,0,0.8,0,1.2,0c10.8-0.4,19.1-0.5,22.7-0.5c0.6,0,1.3,0,1.9,0v0c0,0,0,0,0.1,0c0,0,0,0,0,0v0C203.1,42.8,203.7,42.8,204.3,42.8
		z M202.4,174.8h-26.3c-0.2-0.1-0.4-0.1-0.5-0.2c0,0,0,0,0,0c-0.1-0.1-0.2-0.3-0.2-0.6c0,0,0-0.1,0-0.1c0-0.1,0-0.1,0-0.2
		c0-0.1,0-0.2,0.1-0.3c0.1-0.3,0.1-0.5,0.2-0.8c1-3.4,4.5-14.8,5.1-16.6c0.5-1.6,1.1-3.2,1.9-5.1c1.1-2.7,2.9-5,5.2-6.6
		c0.9-0.6,1.9-1.1,3-1.5c0.6-0.1,1.3-0.3,2-0.4c1.4-0.3,2.9-0.5,4.3-0.7c1.6-0.1,3.3-0.1,5.2-0.1c1.8,0,3.4,0,4.9,0.1
		c1.5,0.2,3,0.4,4.4,0.7c0.9,0.2,1.7,0.3,2.4,0.5c1,0.4,1.9,0.8,2.8,1.4c2.4,1.6,4.2,3.9,5.2,6.6c0.4,0.9,0.7,1.8,1,2.6
		c0.2,0.7,0.4,1.4,0.7,2.2c0,0,5.1,16.5,5.4,17.8c0.1,0.5,0,0.9-0.3,1.1c-0.1,0-0.2,0.1-0.3,0.1H202.4z"/>
</g>
</svg>
