<?xml version="1.0" encoding="utf-8"?>
<!-- Generator: Adobe Illustrator 22.0.0, SVG Export Plug-In . SVG Version: 6.00 Build 0)  -->
<svg version="1.1" id="Layer_1" xmlns="http://www.w3.org/2000/svg" xmlns:xlink="http://www.w3.org/1999/xlink" x="0px" y="0px"
	 viewBox="0 0 404.7 218.4" style="enable-background:new 0 0 404.7 218.4;" xml:space="preserve">
<style type="text/css">
	.st0{fill:url(#SVGID_1_);}
	.st1{fill:#A8A9AC;}
</style>
<g>
	<g id="Layer_2-2_8_">
		<linearGradient id="SVGID_1_" gradientUnits="userSpaceOnUse" x1="0" y1="109.2056" x2="404.7481" y2="109.2056">
			<stop  offset="0" style="stop-color:#393939"/>
			<stop  offset="0.739" style="stop-color:#101010"/>
		</linearGradient>
		<rect class="st0" width="404.7" height="218.4"/>
	</g>
	<g>
		<g id="LEXUS_1_">
			<path class="st1" d="M205.5,43.5c-6.7,8.2-25.7,34.7-27.8,38.1c-4.2,6.6-4.6,9.8-4.6,11.9c-0.4,3.3,0.8,6.6,3.3,8.9
				c5.7,5.1,13.6,4.2,20.7,4.2h58.2c2.5,0,3.2-0.7,4.6-2.5c4.3-6.4,6.6-14,6.7-21.7c0-14.8-9.6-33.4-33.9-41.8l-2.7,3.9
				c19.3,9.2,27.2,21.1,27.2,37.9c0.1,4.9-1.3,9.7-4,13.8h-56.7c-3.4,0-3.9-3.8-2.6-6c4.9-8.6,10.3-16.9,16.2-24.9
				c5.7-7.7,11.4-14.8,17.3-22.3c1.5-2.1,0.5-4.1-2.7-4.7c-7.2-1.6-14.5-2.4-21.9-2.4c-46.4,0-63.4,26.7-63.4,46.4
				c0,21.5,17.1,46.3,63.5,46.3c25.8,0,42.6-8.3,52.4-19h-9.8c-8.5,7.9-23.2,13.5-42.5,13.5c-39.3,0-53.8-22.1-53.8-41.1
				c0.3-17,15.8-40.4,54.8-41.2C205.4,40.9,206.5,42.2,205.5,43.5L205.5,43.5z"/>
			<path class="st1" d="M345.1,165.9c2.3,0.2,4,2.1,4.1,4.3c-0.1,2.5-2.2,4.5-4.8,4.4c0,0-0.1,0-0.1,0h-49.9V142h-14.7v32.7h-27
				c-7.3,0-8.8-4.5-8.8-8.5v-24.4h-24.4c-2.4,1.6-4.7,3.4-7.2,5l-14.5,8.9l-18.8-13.8h-29.2v8.2h10.6v-4.5l24.9,17.8l-17,10.7h-18.4
				v8.2h21.2c2.3-1.5,4.5-3.2,6.8-4.6l14.9-9l18.9,13.5h21.5l-28.3-21.4l14.6-9.5c3.1-2,6.4-3.8,9.6-5.6v21.5
				c0,9.1,2.3,15.3,20.6,15.3l103.1-0.2c8,0.1,13.1-5.4,13.1-12c0-6.6-5.9-12-13.1-12h-37.2c0.5-4.6,4.4-8.3,8.4-8.3h37.7l-0.1-7.9
				h-40c-12.5,0.2-22.6,10.2-23,22.7c-0.1,0.7,0.5,1.3,1.2,1.4c0.1,0,0.2,0,0.3,0L345.1,165.9L345.1,165.9z M149.8,165.8v-8.4h7.3
				v8.4H149.8z M149.8,141.9h-27.6c-7.5,0-13.2,2-17.5,5.3c-7.7,6-10.1,12.4-10,15.3h10c-4.1,2.9-7.2,7-8.9,11.7H63.2
				c-5.9,0-9.7-4.2-9.7-8.2v-24.4H39V167c0,9.1,8.7,15.3,22.5,15.3h88.2v-8.2h-35c0.5-4.5,4.2-8,8.7-8.4h26.4v-8.4h-35.4
				c-0.5-2.5,4.1-7.3,7.7-7.3h27.8L149.8,141.9L149.8,141.9z"/>
		</g>
	</g>
</g>
</svg>
