<svg xmlns="http://www.w3.org/2000/svg" viewBox="0 0 300 170"><defs><style>.cls-1{fill:#111;}.cls-2{fill:#c30;fill-rule:evenodd;}</style></defs><title>LEXUS</title><g id="Layer_2" data-name="Layer 2"><g id="Layer_2-2" data-name="Layer 2"><rect class="cls-1" width="300" height="170"/></g><g id="LEXUS"><path class="cls-2" d="M152.43,41.24c-4.35,5.35-16.74,22.65-18.15,24.88-2.72,4.29-3,6.37-3,7.76a6.81,6.81,0,0,0,2.13,5.81c3.71,3.3,8.9,2.77,13.51,2.77h38c1.63,0,2.11-.48,3-1.65a26.21,26.21,0,0,0,4.39-14.18c0-9.65-6.26-21.8-22.11-27.28l-1.79,2.55c12.58,6,17.77,13.78,17.77,24.7a15.69,15.69,0,0,1-2.61,9H146.56c-2.21,0-2.53-2.51-1.73-3.92a148.69,148.69,0,0,1,10.58-16.23c3.73-5,7.41-9.64,11.27-14.52,1-1.36.35-2.66-1.73-3.09a66.92,66.92,0,0,0-14.28-1.55c-30.3,0-41.38,17.4-41.38,30.3,0,14,11.16,30.22,41.46,30.22,16.81,0,27.81-5.41,34.18-12.37h-6.42c-5.57,5.15-15.13,8.8-27.76,8.8-25.66,0-35.12-14.42-35.12-26.84.18-11.08,10.34-26.37,35.76-26.88,1,0,1.7.85,1,1.68Z"/><path class="cls-2" d="M243.55,121.09a3,3,0,0,1,2.69,2.83,3,3,0,0,1-3.19,2.88H210.49V105.51h-9.6v21.34H183.25c-4.77,0-5.75-2.91-5.75-5.57V105.37H161.59c-1.57,1.07-3.09,2.24-4.71,3.23l-9.44,5.81-12.25-9H116.11v5.36H123v-2.93l16.23,11.64-11.09,7h-12v5.35H130c1.5-1,2.91-2.08,4.45-3l9.7-5.89,12.31,8.79h14L152,117.79l9.51-6.21c2-1.33,4.16-2.45,6.24-3.68v14c0,5.91,1.51,10,13.43,10l67.27-.16c5.2.08,8.53-3.52,8.53-7.86s-3.84-7.86-8.53-7.86h-24.3c.32-3,2.88-5.44,5.47-5.44h24.59l-.08-5.14H228a15.24,15.24,0,0,0-15,14.81.85.85,0,0,0,1,.91l29.6-.11ZM116.11,121v-5.46h4.74V121Zm0-15.56h-18c-4.88,0-8.64,1.28-11.41,3.47-5,3.94-6.58,8.1-6.53,10h6.51a15.94,15.94,0,0,0-5.79,7.65H59.57c-3.84,0-6.32-2.72-6.32-5.36v-15.9H43.82v16.52c0,5.94,5.65,10,14.71,10h57.58v-5.35H93.25A6.24,6.24,0,0,1,98.9,121h17.21v-5.46H93c-.32-1.6,2.66-4.74,5-4.74h18.17v-5.36Z"/></g></g></svg>