<svg xmlns="http://www.w3.org/2000/svg" viewBox="0 0 300 170"><defs><style>.cls-1{fill:#111;}.cls-2{fill:#c30;}</style></defs><title>MCDONALDS</title><g id="Layer_2" data-name="Layer 2"><g id="Layer_2-2" data-name="Layer 2"><rect class="cls-1" width="300" height="170"/></g><g id="MCDONALDS"><path class="cls-2" d="M181.71,19.45c8,0,17.46,7.15,26,27.15S219.49,88,221,102.45c1.5,14,2.68,46.09,2.68,46.09H205s.17-27.09-1.67-47-5.08-42-9.08-55-8-17.92-12.42-17.92C175.46,28.62,170,43,167,55.54s-6.48,33.75-7,50.91c-.62,20.34-1,32.59-1,32.59H141s-.32-9.23-1-32c-.5-16.75-5.08-43.25-7.33-51.92-2.11-8.11-7.09-26.5-14.92-26.5-7.5,0-12.94,19.14-14.75,26.92-1.51,6.49-5.75,32.75-6.75,52.75-1,20.84-1.17,40.25-1.17,40.25H76.54s0-19,1.92-40.84A254.08,254.08,0,0,1,90,53.29c3.5-9.84,14.25-33.75,27.25-33.75s20,12.69,23.46,20S150,64,150,64s5.71-17.88,9.33-24.58C165.87,27.37,174.21,19.45,181.71,19.45Z"/></g></g></svg>