<?xml version="1.0" encoding="utf-8"?>
<!-- Generator: Adobe Illustrator 22.0.0, SVG Export Plug-In . SVG Version: 6.00 Build 0)  -->
<svg version="1.1" id="Layer_1" xmlns="http://www.w3.org/2000/svg" xmlns:xlink="http://www.w3.org/1999/xlink" x="0px" y="0px"
	 viewBox="0 0 404.7 218.8" style="enable-background:new 0 0 404.7 218.8;" xml:space="preserve">
<style type="text/css">
	.st0{fill:url(#SVGID_1_);}
	.st1{fill:#A8A9AC;}
</style>
<g>
	<g id="Layer_2-2_5_">
		<linearGradient id="SVGID_1_" gradientUnits="userSpaceOnUse" x1="0" y1="109.3894" x2="404.7481" y2="109.3894">
			<stop  offset="0" style="stop-color:#393939"/>
			<stop  offset="0.739" style="stop-color:#101010"/>
		</linearGradient>
		<rect class="st0" width="404.7" height="218.8"/>
	</g>
	<g id="MCDONALDS_1_">
		<path class="st1" d="M238.8,37.8c9.2,0,20.1,8.2,29.9,31.3c9.8,23,13.6,47.7,15.3,64.3c1.7,16.1,3.1,53.1,3.1,53.1h-21.5
			c0,0,0.2-31.2-1.9-54.1c-2.1-22.9-5.8-48.3-10.5-63.3c-4.6-15-9.2-20.6-14.3-20.6c-7.3,0-13.6,16.6-17.1,31
			c-3.5,14.4-7.5,38.9-8.1,58.6c-0.7,23.4-1.1,37.5-1.1,37.5h-20.7c0,0-0.4-10.6-1.2-36.8c-0.6-19.3-5.8-49.8-8.4-59.8
			c-2.4-9.3-8.2-30.5-17.2-30.5c-8.6,0-14.9,22-17,31c-1.7,7.5-6.6,37.7-7.8,60.7c-1.2,24-1.3,46.3-1.3,46.3h-21.3
			c0,0,0-21.9,2.2-47c2.1-21.3,6.6-42.3,13.3-62.6c4-11.3,16.4-38.9,31.4-38.9c15,0,23,14.6,27,23c4,8.4,10.7,28.2,10.7,28.2
			s6.6-20.6,10.7-28.3C220.5,46.9,230.1,37.8,238.8,37.8z"/>
	</g>
</g>
</svg>
