<svg xmlns="http://www.w3.org/2000/svg" viewBox="0 0 300 170"><defs><style>.cls-1{fill:#111;}.cls-2{fill:#c30;}</style></defs><title>TOYOTA_1</title><g id="Layer_2" data-name="Layer 2"><g id="Layer_2-2" data-name="Layer 2"><rect class="cls-1" width="300" height="170"/></g><g id="TOYOTA"><path class="cls-2" d="M164.7,123.36a14.82,14.82,0,1,0,0,29.64,14.82,14.82,0,0,0,0-29.64Zm0,24.18c-4.64-.07-8.33-4.25-8.19-9.36-.14-5.21,3.55-9.39,8.19-9.36,4.46,0,8.15,4.15,8.19,9.36S169.16,147.47,164.7,147.54Z"/><polygon class="cls-2" points="204.87 124.53 181.08 124.53 181.08 129.6 190.06 129.6 190.06 152.22 196.29 152.22 196.29 129.6 204.87 129.6 204.87 124.53"/><path class="cls-2" d="M222,124.53h-7.8l-11.7,27.69h7.41l2.34-6.24h11.31l2.34,6.24h7.41Zm-3.9,16.77h-3.9l3.9-10.14L222,141.3Z"/><polygon class="cls-2" points="66.82 129.6 75.4 129.6 75.4 152.22 81.64 152.22 81.64 129.6 90.22 129.6 90.22 124.53 66.82 124.53 66.82 129.6"/><path class="cls-2" d="M106.59,123.36a14.82,14.82,0,0,0,0,29.64,14.82,14.82,0,0,0,0-29.64Zm0,24.18c-4.6-.07-8.29-4.25-8.18-9.36-.11-5.21,3.58-9.39,8.18-9.36s8.19,4.15,8.19,9.36S111.09,147.47,106.59,147.54Z"/><polygon class="cls-2" points="135.45 136.23 128.82 124.53 121.41 124.53 132.34 141.69 132.34 152.22 135.45 152.22 138.57 152.22 138.57 141.69 149.49 124.53 142.48 124.53 135.45 136.23"/><path class="cls-2" d="M148.42,110.71c41.78,0,75.77-21.13,75.77-47.11s-34-47.1-75.77-47.1S72.66,37.63,72.66,63.6,106.65,110.71,148.42,110.71Zm-9.93-48.1v0c3.24.27,6.58.42,9.93.42s6.69-.15,9.93-.42v0c0,14.61-4.36,26.06-9.93,26.06S138.49,77.22,138.49,62.61Zm19.72-11.17h0M199.63,39.1v.17h0v0l0,.25C199.61,39.4,199.63,39.25,199.63,39.1Zm-.12,1.23a.06.06,0,0,0,0,0c0,.1,0,.2-.05.3l0,.1Zm-.2-3.87c0,.06,0,.11.05.17s0-.11-.05-.17Zm.28,6.22C207,49,210.92,56.5,210.92,64.3c0,18.77-23,34.68-53.69,37.3C164.1,95,168.34,80.73,168.34,64c0,0,0-2.24-.05-2.74C185.45,58.13,197.32,51.05,199.59,42.68ZM187.36,37a4.35,4.35,0,0,1,.26,1.45,4.6,4.6,0,0,1-.68,2.34c-2.2,3.74-9.58,7-19.77,8.79C165.37,39,161.54,30.51,156.59,26,172.87,27.16,185.45,31.64,187.36,37Zm-38.94-.4c3.88,0,7.27,5.43,8.91,14.17-2.91.21-5.9.32-8.91.32s-6-.11-8.91-.32C141.15,42.05,144.54,36.62,148.42,36.62Zm-38.94.4c1.91-5.38,14.5-9.86,30.77-11-4.95,4.49-8.77,13-10.57,23.58-10.2-1.78-17.58-5.05-19.77-8.79a4.52,4.52,0,0,1-.69-2.34A4.35,4.35,0,0,1,109.48,37Zm21.38,21.63h0M97.54,36.45h0l-.06.18Zm-.12,4.29a.19.19,0,0,1,0-.07l-.06-.29v0C97.36,40.48,97.39,40.61,97.42,40.74Zm-.21-1.62,0,.39c0-.07,0-.14,0-.21v0h0A.85.85,0,0,0,97.21,39.12Zm.05,3.56c2.27,8.37,14.13,15.45,31.29,18.59,0,.5-.05,2.74-.05,2.74,0,16.72,4.24,30.94,11.12,37.59C108.94,99,85.92,83.07,85.92,64.3,85.92,56.5,89.85,49,97.26,42.68Z"/></g></g></svg>