<svg xmlns="http://www.w3.org/2000/svg" viewBox="0 0 300 170"><defs><style>.cls-1{fill:#111;}.cls-2{fill:#c30;fill-rule:evenodd;}</style></defs><title>WB</title><g id="Layer_2" data-name="Layer 2"><g id="Layer_2-2" data-name="Layer 2"><rect class="cls-1" width="300" height="170"/></g><g id="WB"><path class="cls-2" d="M188.5,65.41c1.31-7.29-3.56-13-9.2-17.19-7.9-5.82-16.85-9.29-26.05-12h0v96.21h0c4.08-3.56,8.16-7.56,12.07-11.64,8.34-9.2,16.06-18.58,19.28-29.87,1.3-5.12.6-10.94-3.74-14.41,3.74-3,7.12-6.6,7.64-11.12ZM172.61,98.67a60.86,60.86,0,0,1-11.37,14.41h0l-.09-27.52h0c3.13-2.26,6.34-4.26,10.25-4.6a5,5,0,0,1,4,1.73c3.48,5.47-.61,11.2-2.78,16Zm7.91-35.43c-.79,4.34-5.56,6.86-9,8.69a91.7,91.7,0,0,1-10.42,4.42h0V48.22h0A53,53,0,0,1,176.26,56c2.17,1.82,5.12,4.08,4.26,7.29Z"/><path class="cls-2" d="M146.13,131.75V35.89l-7.73,4V91.29h0c-.35,1.48.7,3.73-1,4.43a.84.84,0,0,1-1-.44c-3.3-12.41-4.69-25.52-5.3-39h0l-.26-11.73L123.55,50v3.13h0c.44,12.42,1.31,24.57,3.65,36.21h0l-3,3.3h0a29,29,0,0,1-2.61-4.86c-3.73-9.9-5.12-20.76-5.64-32h0l-6.43,4.78h0c.61,17,3.82,33.08,14.16,45.85,2-2.26,4-4.61,6-6.78A89.24,89.24,0,0,0,134,113.08c2.87,6.69,6.08,13.46,12.16,18.67Z"/><path class="cls-2" d="M205.26,48.48l-11.55-2.86-2.08-7.82L179.82,35l-2.43-8.51-27.87-6.34-27.36,6.34L119.73,35,107.92,37.8h0c-.78,2.69-1.47,5.3-2.17,7.9h0L94.2,48.48h0c-.86,24.57,5.91,46.2,18.15,65.47,9,13.81,22.4,28.4,37.17,35.6,10-4.77,18.84-12.76,26.83-21.7,19.36-22.41,30-48.63,28.91-79.37Zm-34,74.33c-6.33,7.12-13.46,14.15-21.44,18.23-7.64-3.82-14.33-10.42-20.41-17.1-15.8-18.5-26.31-39.16-28.05-63.39a45.7,45.7,0,0,1-.17-6h0L111,52.3l2.26-8.07,12.07-2.87.09-.26,2.17-8.34,21.88-5.12L172,32.76l2.17,8.51,12.24,3,2.08,8.07,9.9,2.26h0c-.26,26.4-10.76,48.54-27.18,68.25Z"/><path class="cls-2" d="M174.87,148.6a2.08,2.08,0,0,0,2.17-2.26c0-1.65-1-2.43-3-2.43h-3.12v8.34h1.39v-3.56h1.3l2.17,3.56h1.48l-2.35-3.65Zm-2.6-1V145h1.65c.78,0,1.73.17,1.73,1.21s-.87,1.31-1.91,1.31h-1.47Z"/><path class="cls-2" d="M173.83,141.22a7.12,7.12,0,1,0,7.12,7.12,7.15,7.15,0,0,0-7.12-7.12Zm0,13.54a6.43,6.43,0,1,1,6.42-6.42,6.41,6.41,0,0,1-6.42,6.42Z"/></g></g></svg>