<svg id="Layer_20" data-name="Layer 20" xmlns="http://www.w3.org/2000/svg" viewBox="0 0 500 500"><title>1000x1000</title><rect width="500" height="500" style="fill:#231f20"/><g id="LOGO_-_DESIGN_1" data-name="LOGO - DESIGN 1"><g id="_5" data-name="5"><g id="Main_Page" data-name="Main Page"><g id="dark_logo" data-name="dark logo"><path d="M455.12,488.64a2.53,2.53,0,1,1,0,5.06h-3.64l0.55,0.55a2.52,2.52,0,0,1,0,3.58,2.55,2.55,0,0,1-3.6,0l0,0L443.54,493a2.52,2.52,0,0,1,0-3.58,2.55,2.55,0,0,1,1.8-.74h9.78Z" style="fill:#222"/><path d="M488.31,455.56a2.43,2.43,0,0,1,1.8.62,2.52,2.52,0,0,1,0,3.58,2.69,2.69,0,0,1-1.8.87h-76.1a2.53,2.53,0,1,1,0-5.06h76.1Z" style="fill:#222"/><path d="M480.13,463.83a2.53,2.53,0,1,1,0,5.06H420.39a2.53,2.53,0,1,1,0-5.07h59.74Z" style="fill:#222"/><path d="M472,472.1a2.53,2.53,0,1,1,0,5.06H428.7a2.53,2.53,0,1,1,0-5.06H472Z" style="fill:#222"/><path d="M463.47,480.37a2.53,2.53,0,1,1,0,5.06H437a2.53,2.53,0,1,1,0-5.06h26.46Z" style="fill:#222"/><path d="M452.79,449.67a2.55,2.55,0,0,1-5.09,0v-46.3a2.55,2.55,0,0,1,5.09,0v46.3Z" style="fill:#222"/><path d="M435.41,418.26a2.55,2.55,0,0,0-3.6,0,2.52,2.52,0,0,0-.74,1.79v13.1a2.54,2.54,0,0,0,5.09,0v-13.1A2.5,2.5,0,0,0,435.41,418.26Z" style="fill:#222"/><path d="M427.09,426.35a2.56,2.56,0,0,0-3.6,0,2.52,2.52,0,0,0-.75,1.79v2.48h-2.59a2.53,2.53,0,1,0,0,5.06h5.14a2.53,2.53,0,0,0,2.53-2.54v-5A2.52,2.52,0,0,0,427.09,426.35Z" style="fill:#222"/><path d="M473.67,426.35a2.55,2.55,0,0,1,3.59,0,2.52,2.52,0,0,1,.75,1.8v2.48h2.59a2.53,2.53,0,1,1,0,5.06h-5.14a2.54,2.54,0,0,1-2.54-2.53v-5A2.51,2.51,0,0,1,473.67,426.35Z" style="fill:#222"/><path d="M466.88,444a2.6,2.6,0,0,1-1.81-.79,2.52,2.52,0,0,1-.75-1.79V420.05a2.54,2.54,0,0,1,5.09,0h0V438.9h18.9a2.53,2.53,0,1,1,0,5.06H466.88Z" style="fill:#222"/><path d="M439.38,438.89V411.82a2.55,2.55,0,0,1,5.09,0v29.6a2.53,2.53,0,0,1-.75,1.79,2.62,2.62,0,0,1-1.84.74H412.17a2.53,2.53,0,1,1,0-5.06h27.22Z" style="fill:#222"/><path d="M458.56,452.23a2.51,2.51,0,0,1-2.55-2.48s0,0,0,0V411.59a2.54,2.54,0,0,1,5.09,0h0v35.57h35.54a2.53,2.53,0,1,1,0,5.07H458.56Z" style="fill:#222"/><path d="M441.92,447.16h0a2.53,2.53,0,0,1,.16,5.06h-38.2a2.53,2.53,0,1,1,0-5.06h38Z" style="fill:#222"/></g></g><g id="Main_Page-2" data-name="Main Page"><g id="dark_logo-2" data-name="dark logo"><path d="M354.79,488.64a2.53,2.53,0,1,1,0,5.06h-3.64l0.55,0.55a2.52,2.52,0,0,1,0,3.58,2.55,2.55,0,0,1-3.6,0l0,0L343.22,493a2.52,2.52,0,0,1,0-3.58,2.55,2.55,0,0,1,1.8-.74h9.78Z" style="fill:#222"/><path d="M388,455.56a2.43,2.43,0,0,1,1.8.62,2.52,2.52,0,0,1,0,3.58,2.69,2.69,0,0,1-1.8.87h-76.1a2.53,2.53,0,1,1,0-5.06H388Z" style="fill:#222"/><path d="M379.81,463.83a2.53,2.53,0,1,1,0,5.06H320.06a2.53,2.53,0,1,1,0-5.07h59.74Z" style="fill:#222"/><path d="M371.63,472.1a2.53,2.53,0,1,1,0,5.06H328.38a2.53,2.53,0,1,1,0-5.06h43.26Z" style="fill:#222"/><path d="M363.15,480.37a2.53,2.53,0,1,1,0,5.06H336.69a2.53,2.53,0,1,1,0-5.06h26.46Z" style="fill:#222"/><path d="M352.46,449.67a2.55,2.55,0,0,1-5.09,0v-46.3a2.55,2.55,0,0,1,5.09,0v46.3Z" style="fill:#222"/><path d="M335.09,418.26a2.55,2.55,0,0,0-3.6,0,2.52,2.52,0,0,0-.74,1.79v13.1a2.54,2.54,0,0,0,5.09,0v-13.1A2.5,2.5,0,0,0,335.09,418.26Z" style="fill:#222"/><path d="M326.77,426.35a2.56,2.56,0,0,0-3.6,0,2.52,2.52,0,0,0-.75,1.79v2.48h-2.59a2.53,2.53,0,1,0,0,5.06H325a2.53,2.53,0,0,0,2.53-2.54v-5A2.52,2.52,0,0,0,326.77,426.35Z" style="fill:#222"/><path d="M373.34,426.35a2.55,2.55,0,0,1,3.59,0,2.52,2.52,0,0,1,.75,1.8v2.48h2.59a2.53,2.53,0,1,1,0,5.06h-5.14a2.54,2.54,0,0,1-2.54-2.53v-5A2.51,2.51,0,0,1,373.34,426.35Z" style="fill:#222"/><path d="M366.55,444a2.6,2.6,0,0,1-1.81-.79,2.52,2.52,0,0,1-.75-1.79V420.05a2.54,2.54,0,0,1,5.09,0h0V438.9H388a2.53,2.53,0,1,1,0,5.06H366.55Z" style="fill:#222"/><path d="M339.05,438.89V411.82a2.55,2.55,0,0,1,5.09,0v29.6a2.53,2.53,0,0,1-.75,1.79,2.62,2.62,0,0,1-1.84.74H311.84a2.53,2.53,0,1,1,0-5.06h27.22Z" style="fill:#222"/><path d="M358.23,452.23a2.51,2.51,0,0,1-2.55-2.48s0,0,0,0V411.59a2.54,2.54,0,0,1,5.09,0h0v35.57h35.54a2.53,2.53,0,1,1,0,5.07H358.23Z" style="fill:#222"/><path d="M341.6,447.16h0a2.53,2.53,0,0,1,.16,5.06h-38.2a2.53,2.53,0,1,1,0-5.06h38Z" style="fill:#222"/></g></g><g id="Main_Page-3" data-name="Main Page"><g id="dark_logo-3" data-name="dark logo"><path d="M254.79,488.64a2.53,2.53,0,1,1,0,5.06h-3.64l0.55,0.55a2.52,2.52,0,0,1,0,3.58,2.55,2.55,0,0,1-3.6,0l0,0L243.22,493a2.52,2.52,0,0,1,0-3.58,2.55,2.55,0,0,1,1.8-.74h9.78Z" style="fill:#222"/><path d="M288,455.56a2.43,2.43,0,0,1,1.8.62,2.52,2.52,0,0,1,0,3.58,2.69,2.69,0,0,1-1.8.87h-76.1a2.53,2.53,0,1,1,0-5.06H288Z" style="fill:#222"/><path d="M279.81,463.83a2.53,2.53,0,1,1,0,5.06H220.06a2.53,2.53,0,1,1,0-5.07h59.74Z" style="fill:#222"/><path d="M271.63,472.1a2.53,2.53,0,1,1,0,5.06H228.38a2.53,2.53,0,1,1,0-5.06h43.26Z" style="fill:#222"/><path d="M263.15,480.37a2.53,2.53,0,1,1,0,5.06H236.69a2.53,2.53,0,1,1,0-5.06h26.46Z" style="fill:#222"/><path d="M252.46,449.67a2.55,2.55,0,0,1-5.09,0v-46.3a2.55,2.55,0,0,1,5.09,0v46.3Z" style="fill:#222"/><path d="M235.09,418.26a2.55,2.55,0,0,0-3.6,0,2.52,2.52,0,0,0-.74,1.79v13.1a2.54,2.54,0,0,0,5.09,0v-13.1A2.5,2.5,0,0,0,235.09,418.26Z" style="fill:#222"/><path d="M226.77,426.35a2.56,2.56,0,0,0-3.6,0,2.52,2.52,0,0,0-.75,1.79v2.48h-2.59a2.53,2.53,0,1,0,0,5.06H225a2.53,2.53,0,0,0,2.53-2.54v-5A2.52,2.52,0,0,0,226.77,426.35Z" style="fill:#222"/><path d="M273.34,426.35a2.55,2.55,0,0,1,3.59,0,2.52,2.52,0,0,1,.75,1.8v2.48h2.59a2.53,2.53,0,1,1,0,5.06h-5.14a2.54,2.54,0,0,1-2.54-2.53v-5A2.51,2.51,0,0,1,273.34,426.35Z" style="fill:#222"/><path d="M266.55,444a2.6,2.6,0,0,1-1.81-.79,2.52,2.52,0,0,1-.75-1.79V420.05a2.54,2.54,0,0,1,5.09,0h0V438.9H288a2.53,2.53,0,1,1,0,5.06H266.55Z" style="fill:#222"/><path d="M239.05,438.89V411.82a2.55,2.55,0,0,1,5.09,0v29.6a2.53,2.53,0,0,1-.75,1.79,2.62,2.62,0,0,1-1.84.74H211.84a2.53,2.53,0,1,1,0-5.06h27.22Z" style="fill:#222"/><path d="M258.23,452.23a2.51,2.51,0,0,1-2.55-2.48s0,0,0,0V411.59a2.54,2.54,0,0,1,5.09,0h0v35.57h35.54a2.53,2.53,0,1,1,0,5.07H258.23Z" style="fill:#222"/><path d="M241.6,447.16h0a2.53,2.53,0,0,1,.16,5.06h-38.2a2.53,2.53,0,1,1,0-5.06h38Z" style="fill:#222"/></g></g><g id="Main_Page-4" data-name="Main Page"><g id="dark_logo-4" data-name="dark logo"><path d="M54.79,488.64a2.53,2.53,0,1,1,0,5.06H51.14l0.55,0.55a2.52,2.52,0,0,1,0,3.58,2.55,2.55,0,0,1-3.6,0l0,0L43.21,493a2.52,2.52,0,0,1,0-3.58,2.55,2.55,0,0,1,1.8-.74h9.78Z" style="fill:#222"/><path d="M88,455.56a2.43,2.43,0,0,1,1.8.62,2.52,2.52,0,0,1,0,3.58,2.69,2.69,0,0,1-1.8.87H11.87a2.53,2.53,0,1,1,0-5.06H88Z" style="fill:#222"/><path d="M79.8,463.83a2.53,2.53,0,1,1,0,5.06H20.06a2.53,2.53,0,1,1,0-5.07H79.8Z" style="fill:#222"/><path d="M71.62,472.1a2.53,2.53,0,1,1,0,5.06H28.37a2.53,2.53,0,1,1,0-5.06H71.62Z" style="fill:#222"/><path d="M63.14,480.37a2.53,2.53,0,1,1,0,5.06H36.68a2.53,2.53,0,1,1,0-5.06H63.14Z" style="fill:#222"/><path d="M52.45,449.67a2.55,2.55,0,0,1-5.09,0v-46.3a2.55,2.55,0,0,1,5.09,0v46.3Z" style="fill:#222"/><path d="M35.08,418.26a2.55,2.55,0,0,0-3.6,0,2.52,2.52,0,0,0-.74,1.79v13.1a2.54,2.54,0,0,0,5.09,0v-13.1A2.5,2.5,0,0,0,35.08,418.26Z" style="fill:#222"/><path d="M26.76,426.35a2.56,2.56,0,0,0-3.6,0,2.52,2.52,0,0,0-.75,1.79v2.48H19.83a2.53,2.53,0,1,0,0,5.06H25a2.53,2.53,0,0,0,2.53-2.54v-5A2.52,2.52,0,0,0,26.76,426.35Z" style="fill:#222"/><path d="M73.34,426.35a2.55,2.55,0,0,1,3.59,0,2.52,2.52,0,0,1,.75,1.8v2.48h2.59a2.53,2.53,0,1,1,0,5.06H75.13a2.54,2.54,0,0,1-2.54-2.53v-5A2.51,2.51,0,0,1,73.34,426.35Z" style="fill:#222"/><path d="M66.54,444a2.6,2.6,0,0,1-1.81-.79,2.52,2.52,0,0,1-.75-1.79V420.05a2.54,2.54,0,0,1,5.09,0h0V438.9H88A2.53,2.53,0,1,1,88,444H66.54Z" style="fill:#222"/><path d="M39,438.89V411.82a2.55,2.55,0,0,1,5.09,0v29.6a2.53,2.53,0,0,1-.75,1.79,2.62,2.62,0,0,1-1.84.74H11.83a2.53,2.53,0,1,1,0-5.06H39Z" style="fill:#222"/><path d="M58.22,452.23a2.51,2.51,0,0,1-2.55-2.48s0,0,0,0V411.59a2.54,2.54,0,0,1,5.09,0h0v35.57H96.31a2.53,2.53,0,1,1,0,5.07H58.22Z" style="fill:#222"/><path d="M41.59,447.16h0a2.53,2.53,0,0,1,.16,5.06H3.54a2.53,2.53,0,1,1,0-5.06h38Z" style="fill:#222"/></g></g><g id="Main_Page-5" data-name="Main Page"><g id="dark_logo-5" data-name="dark logo"><path d="M154.73,488.64a2.53,2.53,0,1,1,0,5.06h-3.64l0.55,0.55a2.52,2.52,0,0,1,0,3.58,2.55,2.55,0,0,1-3.6,0l0,0L143.15,493a2.52,2.52,0,0,1,0-3.58,2.55,2.55,0,0,1,1.8-.74h9.78Z" style="fill:#222"/><path d="M187.92,455.56a2.43,2.43,0,0,1,1.8.62,2.52,2.52,0,0,1,0,3.58,2.69,2.69,0,0,1-1.8.87h-76.1a2.53,2.53,0,1,1,0-5.06h76.1Z" style="fill:#222"/><path d="M179.74,463.83a2.53,2.53,0,1,1,0,5.06H120a2.53,2.53,0,1,1,0-5.07h59.74Z" style="fill:#222"/><path d="M171.56,472.1a2.53,2.53,0,1,1,0,5.06H128.31a2.53,2.53,0,1,1,0-5.06h43.26Z" style="fill:#222"/><path d="M163.08,480.37a2.53,2.53,0,1,1,0,5.06H136.62a2.53,2.53,0,1,1,0-5.06h26.46Z" style="fill:#222"/><path d="M152.39,449.67a2.55,2.55,0,0,1-5.09,0v-46.3a2.55,2.55,0,0,1,5.09,0v46.3Z" style="fill:#222"/><path d="M135,418.26a2.55,2.55,0,0,0-3.6,0,2.52,2.52,0,0,0-.74,1.79v13.1a2.54,2.54,0,0,0,5.09,0v-13.1A2.5,2.5,0,0,0,135,418.26Z" style="fill:#222"/><path d="M126.7,426.35a2.56,2.56,0,0,0-3.6,0,2.52,2.52,0,0,0-.75,1.79v2.48h-2.59a2.53,2.53,0,1,0,0,5.06h5.14a2.53,2.53,0,0,0,2.53-2.54v-5A2.52,2.52,0,0,0,126.7,426.35Z" style="fill:#222"/><path d="M173.27,426.35a2.55,2.55,0,0,1,3.59,0,2.52,2.52,0,0,1,.75,1.8v2.48h2.59a2.53,2.53,0,1,1,0,5.06h-5.14a2.54,2.54,0,0,1-2.54-2.53v-5A2.51,2.51,0,0,1,173.27,426.35Z" style="fill:#222"/><path d="M166.48,444a2.6,2.6,0,0,1-1.81-.79,2.52,2.52,0,0,1-.75-1.79V420.05a2.54,2.54,0,0,1,5.09,0h0V438.9h18.9a2.53,2.53,0,1,1,0,5.06H166.48Z" style="fill:#222"/><path d="M139,438.89V411.82a2.55,2.55,0,0,1,5.09,0v29.6a2.53,2.53,0,0,1-.75,1.79,2.62,2.62,0,0,1-1.84.74H111.77a2.53,2.53,0,1,1,0-5.06H139Z" style="fill:#222"/><path d="M158.16,452.23a2.51,2.51,0,0,1-2.55-2.48s0,0,0,0V411.59a2.54,2.54,0,0,1,5.09,0h0v35.57h35.54a2.53,2.53,0,1,1,0,5.07H158.16Z" style="fill:#222"/><path d="M141.53,447.16h0a2.53,2.53,0,0,1,.16,5.06h-38.2a2.53,2.53,0,1,1,0-5.06h38Z" style="fill:#222"/></g></g></g><g id="_4" data-name="4"><g id="Main_Page-6" data-name="Main Page"><g id="dark_logo-6" data-name="dark logo"><path d="M455.12,388.64a2.53,2.53,0,1,1,0,5.06h-3.64l0.55,0.55a2.52,2.52,0,0,1,0,3.58,2.55,2.55,0,0,1-3.6,0l0,0L443.54,393a2.52,2.52,0,0,1,0-3.58,2.55,2.55,0,0,1,1.8-.74h9.78Z" style="fill:#222"/><path d="M488.31,355.56a2.43,2.43,0,0,1,1.8.62,2.52,2.52,0,0,1,0,3.58,2.69,2.69,0,0,1-1.8.87h-76.1a2.53,2.53,0,1,1,0-5.06h76.1Z" style="fill:#222"/><path d="M480.13,363.83a2.53,2.53,0,1,1,0,5.06H420.39a2.53,2.53,0,1,1,0-5.07h59.74Z" style="fill:#222"/><path d="M472,372.1a2.53,2.53,0,1,1,0,5.06H428.7a2.53,2.53,0,1,1,0-5.06H472Z" style="fill:#222"/><path d="M463.47,380.37a2.53,2.53,0,1,1,0,5.06H437a2.53,2.53,0,1,1,0-5.06h26.46Z" style="fill:#222"/><path d="M452.79,349.67a2.55,2.55,0,0,1-5.09,0v-46.3a2.55,2.55,0,0,1,5.09,0v46.3Z" style="fill:#222"/><path d="M435.41,318.26a2.55,2.55,0,0,0-3.6,0,2.52,2.52,0,0,0-.74,1.79v13.1a2.54,2.54,0,0,0,5.09,0v-13.1A2.5,2.5,0,0,0,435.41,318.26Z" style="fill:#222"/><path d="M427.09,326.35a2.56,2.56,0,0,0-3.6,0,2.52,2.52,0,0,0-.75,1.79v2.48h-2.59a2.53,2.53,0,1,0,0,5.06h5.14a2.53,2.53,0,0,0,2.53-2.54v-5A2.52,2.52,0,0,0,427.09,326.35Z" style="fill:#222"/><path d="M473.67,326.35a2.55,2.55,0,0,1,3.59,0,2.52,2.52,0,0,1,.75,1.8v2.48h2.59a2.53,2.53,0,1,1,0,5.06h-5.14a2.54,2.54,0,0,1-2.54-2.53v-5A2.51,2.51,0,0,1,473.67,326.35Z" style="fill:#222"/><path d="M466.88,344a2.6,2.6,0,0,1-1.81-.79,2.52,2.52,0,0,1-.75-1.79V320.05a2.54,2.54,0,0,1,5.09,0h0V338.9h18.9a2.53,2.53,0,1,1,0,5.06H466.88Z" style="fill:#222"/><path d="M439.38,338.89V311.82a2.55,2.55,0,0,1,5.09,0v29.6a2.53,2.53,0,0,1-.75,1.79,2.62,2.62,0,0,1-1.84.74H412.17a2.53,2.53,0,1,1,0-5.06h27.22Z" style="fill:#222"/><path d="M458.56,352.23a2.51,2.51,0,0,1-2.55-2.48s0,0,0,0V311.59a2.54,2.54,0,0,1,5.09,0h0v35.57h35.54a2.53,2.53,0,1,1,0,5.07H458.56Z" style="fill:#222"/><path d="M441.92,347.16h0a2.53,2.53,0,0,1,.16,5.06h-38.2a2.53,2.53,0,1,1,0-5.06h38Z" style="fill:#222"/></g></g><g id="Main_Page-7" data-name="Main Page"><g id="dark_logo-7" data-name="dark logo"><path d="M354.79,388.64a2.53,2.53,0,1,1,0,5.06h-3.64l0.55,0.55a2.52,2.52,0,0,1,0,3.58,2.55,2.55,0,0,1-3.6,0l0,0L343.22,393a2.52,2.52,0,0,1,0-3.58,2.55,2.55,0,0,1,1.8-.74h9.78Z" style="fill:#222"/><path d="M388,355.56a2.43,2.43,0,0,1,1.8.62,2.52,2.52,0,0,1,0,3.58,2.69,2.69,0,0,1-1.8.87h-76.1a2.53,2.53,0,1,1,0-5.06H388Z" style="fill:#222"/><path d="M379.81,363.83a2.53,2.53,0,1,1,0,5.06H320.06a2.53,2.53,0,1,1,0-5.07h59.74Z" style="fill:#222"/><path d="M371.63,372.1a2.53,2.53,0,1,1,0,5.06H328.38a2.53,2.53,0,1,1,0-5.06h43.26Z" style="fill:#222"/><path d="M363.15,380.37a2.53,2.53,0,1,1,0,5.06H336.69a2.53,2.53,0,1,1,0-5.06h26.46Z" style="fill:#222"/><path d="M352.46,349.67a2.55,2.55,0,0,1-5.09,0v-46.3a2.55,2.55,0,0,1,5.09,0v46.3Z" style="fill:#222"/><path d="M335.09,318.26a2.55,2.55,0,0,0-3.6,0,2.52,2.52,0,0,0-.74,1.79v13.1a2.54,2.54,0,0,0,5.09,0v-13.1A2.5,2.5,0,0,0,335.09,318.26Z" style="fill:#222"/><path d="M326.77,326.35a2.56,2.56,0,0,0-3.6,0,2.52,2.52,0,0,0-.75,1.79v2.48h-2.59a2.53,2.53,0,1,0,0,5.06H325a2.53,2.53,0,0,0,2.53-2.54v-5A2.52,2.52,0,0,0,326.77,326.35Z" style="fill:#222"/><path d="M373.34,326.35a2.55,2.55,0,0,1,3.59,0,2.52,2.52,0,0,1,.75,1.8v2.48h2.59a2.53,2.53,0,1,1,0,5.06h-5.14a2.54,2.54,0,0,1-2.54-2.53v-5A2.51,2.51,0,0,1,373.34,326.35Z" style="fill:#222"/><path d="M366.55,344a2.6,2.6,0,0,1-1.81-.79,2.52,2.52,0,0,1-.75-1.79V320.05a2.54,2.54,0,0,1,5.09,0h0V338.9H388a2.53,2.53,0,1,1,0,5.06H366.55Z" style="fill:#222"/><path d="M339.05,338.89V311.82a2.55,2.55,0,0,1,5.09,0v29.6a2.53,2.53,0,0,1-.75,1.79,2.62,2.62,0,0,1-1.84.74H311.84a2.53,2.53,0,1,1,0-5.06h27.22Z" style="fill:#222"/><path d="M358.23,352.23a2.51,2.51,0,0,1-2.55-2.48s0,0,0,0V311.59a2.54,2.54,0,0,1,5.09,0h0v35.57h35.54a2.53,2.53,0,1,1,0,5.07H358.23Z" style="fill:#222"/><path d="M341.6,347.16h0a2.53,2.53,0,0,1,.16,5.06h-38.2a2.53,2.53,0,1,1,0-5.06h38Z" style="fill:#222"/></g></g><g id="Main_Page-8" data-name="Main Page"><g id="dark_logo-8" data-name="dark logo"><path d="M254.79,388.64a2.53,2.53,0,1,1,0,5.06h-3.64l0.55,0.55a2.52,2.52,0,0,1,0,3.58,2.55,2.55,0,0,1-3.6,0l0,0L243.22,393a2.52,2.52,0,0,1,0-3.58,2.55,2.55,0,0,1,1.8-.74h9.78Z" style="fill:#222"/><path d="M288,355.56a2.43,2.43,0,0,1,1.8.62,2.52,2.52,0,0,1,0,3.58,2.69,2.69,0,0,1-1.8.87h-76.1a2.53,2.53,0,1,1,0-5.06H288Z" style="fill:#222"/><path d="M279.81,363.83a2.53,2.53,0,1,1,0,5.06H220.06a2.53,2.53,0,1,1,0-5.07h59.74Z" style="fill:#222"/><path d="M271.63,372.1a2.53,2.53,0,1,1,0,5.06H228.38a2.53,2.53,0,1,1,0-5.06h43.26Z" style="fill:#222"/><path d="M263.15,380.37a2.53,2.53,0,1,1,0,5.06H236.69a2.53,2.53,0,1,1,0-5.06h26.46Z" style="fill:#222"/><path d="M252.46,349.67a2.55,2.55,0,0,1-5.09,0v-46.3a2.55,2.55,0,0,1,5.09,0v46.3Z" style="fill:#222"/><path d="M235.09,318.26a2.55,2.55,0,0,0-3.6,0,2.52,2.52,0,0,0-.74,1.79v13.1a2.54,2.54,0,0,0,5.09,0v-13.1A2.5,2.5,0,0,0,235.09,318.26Z" style="fill:#222"/><path d="M226.77,326.35a2.56,2.56,0,0,0-3.6,0,2.52,2.52,0,0,0-.75,1.79v2.48h-2.59a2.53,2.53,0,1,0,0,5.06H225a2.53,2.53,0,0,0,2.53-2.54v-5A2.52,2.52,0,0,0,226.77,326.35Z" style="fill:#222"/><path d="M273.34,326.35a2.55,2.55,0,0,1,3.59,0,2.52,2.52,0,0,1,.75,1.8v2.48h2.59a2.53,2.53,0,1,1,0,5.06h-5.14a2.54,2.54,0,0,1-2.54-2.53v-5A2.51,2.51,0,0,1,273.34,326.35Z" style="fill:#222"/><path d="M266.55,344a2.6,2.6,0,0,1-1.81-.79,2.52,2.52,0,0,1-.75-1.79V320.05a2.54,2.54,0,0,1,5.09,0h0V338.9H288a2.53,2.53,0,1,1,0,5.06H266.55Z" style="fill:#222"/><path d="M239.05,338.89V311.82a2.55,2.55,0,0,1,5.09,0v29.6a2.53,2.53,0,0,1-.75,1.79,2.62,2.62,0,0,1-1.84.74H211.84a2.53,2.53,0,1,1,0-5.06h27.22Z" style="fill:#222"/><path d="M258.23,352.23a2.51,2.51,0,0,1-2.55-2.48s0,0,0,0V311.59a2.54,2.54,0,0,1,5.09,0h0v35.57h35.54a2.53,2.53,0,1,1,0,5.07H258.23Z" style="fill:#222"/><path d="M241.6,347.16h0a2.53,2.53,0,0,1,.16,5.06h-38.2a2.53,2.53,0,1,1,0-5.06h38Z" style="fill:#222"/></g></g><g id="Main_Page-9" data-name="Main Page"><g id="dark_logo-9" data-name="dark logo"><path d="M54.79,388.64a2.53,2.53,0,1,1,0,5.06H51.14l0.55,0.55a2.52,2.52,0,0,1,0,3.58,2.55,2.55,0,0,1-3.6,0l0,0L43.21,393a2.52,2.52,0,0,1,0-3.58,2.55,2.55,0,0,1,1.8-.74h9.78Z" style="fill:#222"/><path d="M88,355.56a2.43,2.43,0,0,1,1.8.62,2.52,2.52,0,0,1,0,3.58,2.69,2.69,0,0,1-1.8.87H11.87a2.53,2.53,0,1,1,0-5.06H88Z" style="fill:#222"/><path d="M79.8,363.83a2.53,2.53,0,1,1,0,5.06H20.06a2.53,2.53,0,1,1,0-5.07H79.8Z" style="fill:#222"/><path d="M71.62,372.1a2.53,2.53,0,1,1,0,5.06H28.37a2.53,2.53,0,1,1,0-5.06H71.62Z" style="fill:#222"/><path d="M63.14,380.37a2.53,2.53,0,1,1,0,5.06H36.68a2.53,2.53,0,1,1,0-5.06H63.14Z" style="fill:#222"/><path d="M52.45,349.67a2.55,2.55,0,0,1-5.09,0v-46.3a2.55,2.55,0,0,1,5.09,0v46.3Z" style="fill:#222"/><path d="M35.08,318.26a2.55,2.55,0,0,0-3.6,0,2.52,2.52,0,0,0-.74,1.79v13.1a2.54,2.54,0,0,0,5.09,0v-13.1A2.5,2.5,0,0,0,35.08,318.26Z" style="fill:#222"/><path d="M26.76,326.35a2.56,2.56,0,0,0-3.6,0,2.52,2.52,0,0,0-.75,1.79v2.48H19.83a2.53,2.53,0,1,0,0,5.06H25a2.53,2.53,0,0,0,2.53-2.54v-5A2.52,2.52,0,0,0,26.76,326.35Z" style="fill:#222"/><path d="M73.34,326.35a2.55,2.55,0,0,1,3.59,0,2.52,2.52,0,0,1,.75,1.8v2.48h2.59a2.53,2.53,0,1,1,0,5.06H75.13a2.54,2.54,0,0,1-2.54-2.53v-5A2.51,2.51,0,0,1,73.34,326.35Z" style="fill:#222"/><path d="M66.54,344a2.6,2.6,0,0,1-1.81-.79,2.52,2.52,0,0,1-.75-1.79V320.05a2.54,2.54,0,0,1,5.09,0h0V338.9H88A2.53,2.53,0,1,1,88,344H66.54Z" style="fill:#222"/><path d="M39,338.89V311.82a2.55,2.55,0,0,1,5.09,0v29.6a2.53,2.53,0,0,1-.75,1.79,2.62,2.62,0,0,1-1.84.74H11.83a2.53,2.53,0,1,1,0-5.06H39Z" style="fill:#222"/><path d="M58.22,352.23a2.51,2.51,0,0,1-2.55-2.48s0,0,0,0V311.59a2.54,2.54,0,0,1,5.09,0h0v35.57H96.31a2.53,2.53,0,1,1,0,5.07H58.22Z" style="fill:#222"/><path d="M41.59,347.16h0a2.53,2.53,0,0,1,.16,5.06H3.54a2.53,2.53,0,1,1,0-5.06h38Z" style="fill:#222"/></g></g><g id="Main_Page-10" data-name="Main Page"><g id="dark_logo-10" data-name="dark logo"><path d="M154.73,388.64a2.53,2.53,0,1,1,0,5.06h-3.64l0.55,0.55a2.52,2.52,0,0,1,0,3.58,2.55,2.55,0,0,1-3.6,0l0,0L143.15,393a2.52,2.52,0,0,1,0-3.58,2.55,2.55,0,0,1,1.8-.74h9.78Z" style="fill:#222"/><path d="M187.92,355.56a2.43,2.43,0,0,1,1.8.62,2.52,2.52,0,0,1,0,3.58,2.69,2.69,0,0,1-1.8.87h-76.1a2.53,2.53,0,1,1,0-5.06h76.1Z" style="fill:#222"/><path d="M179.74,363.83a2.53,2.53,0,1,1,0,5.06H120a2.53,2.53,0,1,1,0-5.07h59.74Z" style="fill:#222"/><path d="M171.56,372.1a2.53,2.53,0,1,1,0,5.06H128.31a2.53,2.53,0,1,1,0-5.06h43.26Z" style="fill:#222"/><path d="M163.08,380.37a2.53,2.53,0,1,1,0,5.06H136.62a2.53,2.53,0,1,1,0-5.06h26.46Z" style="fill:#222"/><path d="M152.39,349.67a2.55,2.55,0,0,1-5.09,0v-46.3a2.55,2.55,0,0,1,5.09,0v46.3Z" style="fill:#222"/><path d="M135,318.26a2.55,2.55,0,0,0-3.6,0,2.52,2.52,0,0,0-.74,1.79v13.1a2.54,2.54,0,0,0,5.09,0v-13.1A2.5,2.5,0,0,0,135,318.26Z" style="fill:#222"/><path d="M126.7,326.35a2.56,2.56,0,0,0-3.6,0,2.52,2.52,0,0,0-.75,1.79v2.48h-2.59a2.53,2.53,0,1,0,0,5.06h5.14a2.53,2.53,0,0,0,2.53-2.54v-5A2.52,2.52,0,0,0,126.7,326.35Z" style="fill:#222"/><path d="M173.27,326.35a2.55,2.55,0,0,1,3.59,0,2.52,2.52,0,0,1,.75,1.8v2.48h2.59a2.53,2.53,0,1,1,0,5.06h-5.14a2.54,2.54,0,0,1-2.54-2.53v-5A2.51,2.51,0,0,1,173.27,326.35Z" style="fill:#222"/><path d="M166.48,344a2.6,2.6,0,0,1-1.81-.79,2.52,2.52,0,0,1-.75-1.79V320.05a2.54,2.54,0,0,1,5.09,0h0V338.9h18.9a2.53,2.53,0,1,1,0,5.06H166.48Z" style="fill:#222"/><path d="M139,338.89V311.82a2.55,2.55,0,0,1,5.09,0v29.6a2.53,2.53,0,0,1-.75,1.79,2.62,2.62,0,0,1-1.84.74H111.77a2.53,2.53,0,1,1,0-5.06H139Z" style="fill:#222"/><path d="M158.16,352.23a2.51,2.51,0,0,1-2.55-2.48s0,0,0,0V311.59a2.54,2.54,0,0,1,5.09,0h0v35.57h35.54a2.53,2.53,0,1,1,0,5.07H158.16Z" style="fill:#222"/><path d="M141.53,347.16h0a2.53,2.53,0,0,1,.16,5.06h-38.2a2.53,2.53,0,1,1,0-5.06h38Z" style="fill:#222"/></g></g></g><g id="_3" data-name="3"><g id="DESIGN"><g id="Main_Page-11" data-name="Main Page"><g id="dark_logo-11" data-name="dark logo"><path d="M455.12,288.64a2.53,2.53,0,1,1,0,5.06h-3.64l0.55,0.55a2.52,2.52,0,0,1,0,3.58,2.55,2.55,0,0,1-3.6,0l0,0L443.54,293a2.52,2.52,0,0,1,0-3.58,2.55,2.55,0,0,1,1.8-.74h9.78Z" style="fill:#222"/><path d="M488.31,255.56a2.43,2.43,0,0,1,1.8.62,2.52,2.52,0,0,1,0,3.58,2.69,2.69,0,0,1-1.8.87h-76.1a2.53,2.53,0,1,1,0-5.06h76.1Z" style="fill:#222"/><path d="M480.13,263.83a2.53,2.53,0,1,1,0,5.06H420.39a2.53,2.53,0,1,1,0-5.07h59.74Z" style="fill:#222"/><path d="M472,272.1a2.53,2.53,0,1,1,0,5.06H428.7a2.53,2.53,0,1,1,0-5.06H472Z" style="fill:#222"/><path d="M463.47,280.37a2.53,2.53,0,1,1,0,5.06H437a2.53,2.53,0,1,1,0-5.06h26.46Z" style="fill:#222"/><path d="M452.79,249.67a2.55,2.55,0,0,1-5.09,0v-46.3a2.55,2.55,0,0,1,5.09,0v46.3Z" style="fill:#222"/><path d="M435.41,218.26a2.55,2.55,0,0,0-3.6,0,2.52,2.52,0,0,0-.74,1.79v13.1a2.54,2.54,0,0,0,5.09,0v-13.1A2.5,2.5,0,0,0,435.41,218.26Z" style="fill:#222"/><path d="M427.09,226.35a2.56,2.56,0,0,0-3.6,0,2.52,2.52,0,0,0-.75,1.79v2.48h-2.59a2.53,2.53,0,1,0,0,5.06h5.14a2.53,2.53,0,0,0,2.53-2.54v-5A2.52,2.52,0,0,0,427.09,226.35Z" style="fill:#222"/><path d="M473.67,226.35a2.55,2.55,0,0,1,3.59,0,2.52,2.52,0,0,1,.75,1.8v2.48h2.59a2.53,2.53,0,1,1,0,5.06h-5.14a2.54,2.54,0,0,1-2.54-2.53v-5A2.51,2.51,0,0,1,473.67,226.35Z" style="fill:#222"/><path d="M466.88,244a2.6,2.6,0,0,1-1.81-.79,2.52,2.52,0,0,1-.75-1.79V220.05a2.54,2.54,0,0,1,5.09,0h0V238.9h18.9a2.53,2.53,0,1,1,0,5.06H466.88Z" style="fill:#222"/><path d="M439.38,238.89V211.82a2.55,2.55,0,0,1,5.09,0v29.6a2.53,2.53,0,0,1-.75,1.79,2.62,2.62,0,0,1-1.84.74H412.17a2.53,2.53,0,1,1,0-5.06h27.22Z" style="fill:#222"/><path d="M458.56,252.23a2.51,2.51,0,0,1-2.55-2.48s0,0,0,0V211.59a2.54,2.54,0,0,1,5.09,0h0v35.57h35.54a2.53,2.53,0,1,1,0,5.07H458.56Z" style="fill:#222"/><path d="M441.92,247.16h0a2.53,2.53,0,0,1,.16,5.06h-38.2a2.53,2.53,0,1,1,0-5.06h38Z" style="fill:#222"/></g></g><g id="Main_Page-12" data-name="Main Page"><g id="dark_logo-12" data-name="dark logo"><path d="M354.79,288.64a2.53,2.53,0,1,1,0,5.06h-3.64l0.55,0.55a2.52,2.52,0,0,1,0,3.58,2.55,2.55,0,0,1-3.6,0l0,0L343.22,293a2.52,2.52,0,0,1,0-3.58,2.55,2.55,0,0,1,1.8-.74h9.78Z" style="fill:#222"/><path d="M388,255.56a2.43,2.43,0,0,1,1.8.62,2.52,2.52,0,0,1,0,3.58,2.69,2.69,0,0,1-1.8.87h-76.1a2.53,2.53,0,1,1,0-5.06H388Z" style="fill:#222"/><path d="M379.81,263.83a2.53,2.53,0,1,1,0,5.06H320.06a2.53,2.53,0,1,1,0-5.07h59.74Z" style="fill:#222"/><path d="M371.63,272.1a2.53,2.53,0,1,1,0,5.06H328.38a2.53,2.53,0,1,1,0-5.06h43.26Z" style="fill:#222"/><path d="M363.15,280.37a2.53,2.53,0,1,1,0,5.06H336.69a2.53,2.53,0,1,1,0-5.06h26.46Z" style="fill:#222"/><path d="M352.46,249.67a2.55,2.55,0,0,1-5.09,0v-46.3a2.55,2.55,0,0,1,5.09,0v46.3Z" style="fill:#222"/><path d="M335.09,218.26a2.55,2.55,0,0,0-3.6,0,2.52,2.52,0,0,0-.74,1.79v13.1a2.54,2.54,0,0,0,5.09,0v-13.1A2.5,2.5,0,0,0,335.09,218.26Z" style="fill:#222"/><path d="M326.77,226.35a2.56,2.56,0,0,0-3.6,0,2.52,2.52,0,0,0-.75,1.79v2.48h-2.59a2.53,2.53,0,1,0,0,5.06H325a2.53,2.53,0,0,0,2.53-2.54v-5A2.52,2.52,0,0,0,326.77,226.35Z" style="fill:#222"/><path d="M373.34,226.35a2.55,2.55,0,0,1,3.59,0,2.52,2.52,0,0,1,.75,1.8v2.48h2.59a2.53,2.53,0,1,1,0,5.06h-5.14a2.54,2.54,0,0,1-2.54-2.53v-5A2.51,2.51,0,0,1,373.34,226.35Z" style="fill:#222"/><path d="M366.55,244a2.6,2.6,0,0,1-1.81-.79,2.52,2.52,0,0,1-.75-1.79V220.05a2.54,2.54,0,0,1,5.09,0h0V238.9H388a2.53,2.53,0,1,1,0,5.06H366.55Z" style="fill:#222"/><path d="M339.05,238.89V211.82a2.55,2.55,0,0,1,5.09,0v29.6a2.53,2.53,0,0,1-.75,1.79,2.62,2.62,0,0,1-1.84.74H311.84a2.53,2.53,0,1,1,0-5.06h27.22Z" style="fill:#222"/><path d="M358.23,252.23a2.51,2.51,0,0,1-2.55-2.48s0,0,0,0V211.59a2.54,2.54,0,0,1,5.09,0h0v35.57h35.54a2.53,2.53,0,1,1,0,5.07H358.23Z" style="fill:#222"/><path d="M341.6,247.16h0a2.53,2.53,0,0,1,.16,5.06h-38.2a2.53,2.53,0,1,1,0-5.06h38Z" style="fill:#222"/></g></g><g id="Main_Page-13" data-name="Main Page"><g id="dark_logo-13" data-name="dark logo"><path d="M254.79,288.64a2.53,2.53,0,1,1,0,5.06h-3.64l0.55,0.55a2.52,2.52,0,0,1,0,3.58,2.55,2.55,0,0,1-3.6,0l0,0L243.22,293a2.52,2.52,0,0,1,0-3.58,2.55,2.55,0,0,1,1.8-.74h9.78Z" style="fill:#222"/><path d="M288,255.56a2.43,2.43,0,0,1,1.8.62,2.52,2.52,0,0,1,0,3.58,2.69,2.69,0,0,1-1.8.87h-76.1a2.53,2.53,0,1,1,0-5.06H288Z" style="fill:#222"/><path d="M279.81,263.83a2.53,2.53,0,1,1,0,5.06H220.06a2.53,2.53,0,1,1,0-5.07h59.74Z" style="fill:#222"/><path d="M271.63,272.1a2.53,2.53,0,1,1,0,5.06H228.38a2.53,2.53,0,1,1,0-5.06h43.26Z" style="fill:#222"/><path d="M263.15,280.37a2.53,2.53,0,1,1,0,5.06H236.69a2.53,2.53,0,1,1,0-5.06h26.46Z" style="fill:#222"/><path d="M252.46,249.67a2.55,2.55,0,0,1-5.09,0v-46.3a2.55,2.55,0,0,1,5.09,0v46.3Z" style="fill:#222"/><path d="M235.09,218.26a2.55,2.55,0,0,0-3.6,0,2.52,2.52,0,0,0-.74,1.79v13.1a2.54,2.54,0,0,0,5.09,0v-13.1A2.5,2.5,0,0,0,235.09,218.26Z" style="fill:#222"/><path d="M226.77,226.35a2.56,2.56,0,0,0-3.6,0,2.52,2.52,0,0,0-.75,1.79v2.48h-2.59a2.53,2.53,0,1,0,0,5.06H225a2.53,2.53,0,0,0,2.53-2.54v-5A2.52,2.52,0,0,0,226.77,226.35Z" style="fill:#222"/><path d="M273.34,226.35a2.55,2.55,0,0,1,3.59,0,2.52,2.52,0,0,1,.75,1.8v2.48h2.59a2.53,2.53,0,1,1,0,5.06h-5.14a2.54,2.54,0,0,1-2.54-2.53v-5A2.51,2.51,0,0,1,273.34,226.35Z" style="fill:#222"/><path d="M266.55,244a2.6,2.6,0,0,1-1.81-.79,2.52,2.52,0,0,1-.75-1.79V220.05a2.54,2.54,0,0,1,5.09,0h0V238.9H288a2.53,2.53,0,1,1,0,5.06H266.55Z" style="fill:#222"/><path d="M239.05,238.89V211.82a2.55,2.55,0,0,1,5.09,0v29.6a2.53,2.53,0,0,1-.75,1.79,2.62,2.62,0,0,1-1.84.74H211.84a2.53,2.53,0,1,1,0-5.06h27.22Z" style="fill:#222"/><path d="M258.23,252.23a2.51,2.51,0,0,1-2.55-2.48s0,0,0,0V211.59a2.54,2.54,0,0,1,5.09,0h0v35.57h35.54a2.53,2.53,0,1,1,0,5.07H258.23Z" style="fill:#222"/><path d="M241.6,247.16h0a2.53,2.53,0,0,1,.16,5.06h-38.2a2.53,2.53,0,1,1,0-5.06h38Z" style="fill:#222"/></g></g><g id="Main_Page-14" data-name="Main Page"><g id="dark_logo-14" data-name="dark logo"><path d="M54.79,288.64a2.53,2.53,0,1,1,0,5.06H51.14l0.55,0.55a2.52,2.52,0,0,1,0,3.58,2.55,2.55,0,0,1-3.6,0l0,0L43.21,293a2.52,2.52,0,0,1,0-3.58,2.55,2.55,0,0,1,1.8-.74h9.78Z" style="fill:#222"/><path d="M88,255.56a2.43,2.43,0,0,1,1.8.62,2.52,2.52,0,0,1,0,3.58,2.69,2.69,0,0,1-1.8.87H11.87a2.53,2.53,0,1,1,0-5.06H88Z" style="fill:#222"/><path d="M79.8,263.83a2.53,2.53,0,1,1,0,5.06H20.06a2.53,2.53,0,1,1,0-5.07H79.8Z" style="fill:#222"/><path d="M71.62,272.1a2.53,2.53,0,1,1,0,5.06H28.37a2.53,2.53,0,1,1,0-5.06H71.62Z" style="fill:#222"/><path d="M63.14,280.37a2.53,2.53,0,1,1,0,5.06H36.68a2.53,2.53,0,1,1,0-5.06H63.14Z" style="fill:#222"/><path d="M52.45,249.67a2.55,2.55,0,0,1-5.09,0v-46.3a2.55,2.55,0,0,1,5.09,0v46.3Z" style="fill:#222"/><path d="M35.08,218.26a2.55,2.55,0,0,0-3.6,0,2.52,2.52,0,0,0-.74,1.79v13.1a2.54,2.54,0,0,0,5.09,0v-13.1A2.5,2.5,0,0,0,35.08,218.26Z" style="fill:#222"/><path d="M26.76,226.35a2.56,2.56,0,0,0-3.6,0,2.52,2.52,0,0,0-.75,1.79v2.48H19.83a2.53,2.53,0,1,0,0,5.06H25a2.53,2.53,0,0,0,2.53-2.54v-5A2.52,2.52,0,0,0,26.76,226.35Z" style="fill:#222"/><path d="M73.34,226.35a2.55,2.55,0,0,1,3.59,0,2.52,2.52,0,0,1,.75,1.8v2.48h2.59a2.53,2.53,0,1,1,0,5.06H75.13a2.54,2.54,0,0,1-2.54-2.53v-5A2.51,2.51,0,0,1,73.34,226.35Z" style="fill:#222"/><path d="M66.54,244a2.6,2.6,0,0,1-1.81-.79,2.52,2.52,0,0,1-.75-1.79V220.05a2.54,2.54,0,0,1,5.09,0h0V238.9H88A2.53,2.53,0,1,1,88,244H66.54Z" style="fill:#222"/><path d="M39,238.89V211.82a2.55,2.55,0,0,1,5.09,0v29.6a2.53,2.53,0,0,1-.75,1.79,2.62,2.62,0,0,1-1.84.74H11.83a2.53,2.53,0,1,1,0-5.06H39Z" style="fill:#222"/><path d="M58.22,252.23a2.51,2.51,0,0,1-2.55-2.48s0,0,0,0V211.59a2.54,2.54,0,0,1,5.09,0h0v35.57H96.31a2.53,2.53,0,1,1,0,5.07H58.22Z" style="fill:#222"/><path d="M41.59,247.16h0a2.53,2.53,0,0,1,.16,5.06H3.54a2.53,2.53,0,1,1,0-5.06h38Z" style="fill:#222"/></g></g><g id="Main_Page-15" data-name="Main Page"><g id="dark_logo-15" data-name="dark logo"><path d="M154.73,288.64a2.53,2.53,0,1,1,0,5.06h-3.64l0.55,0.55a2.52,2.52,0,0,1,0,3.58,2.55,2.55,0,0,1-3.6,0l0,0L143.15,293a2.52,2.52,0,0,1,0-3.58,2.55,2.55,0,0,1,1.8-.74h9.78Z" style="fill:#222"/><path d="M187.92,255.56a2.43,2.43,0,0,1,1.8.62,2.52,2.52,0,0,1,0,3.58,2.69,2.69,0,0,1-1.8.87h-76.1a2.53,2.53,0,1,1,0-5.06h76.1Z" style="fill:#222"/><path d="M179.74,263.83a2.53,2.53,0,1,1,0,5.06H120a2.53,2.53,0,1,1,0-5.07h59.74Z" style="fill:#222"/><path d="M171.56,272.1a2.53,2.53,0,1,1,0,5.06H128.31a2.53,2.53,0,1,1,0-5.06h43.26Z" style="fill:#222"/><path d="M163.08,280.37a2.53,2.53,0,1,1,0,5.06H136.62a2.53,2.53,0,1,1,0-5.06h26.46Z" style="fill:#222"/><path d="M152.39,249.67a2.55,2.55,0,0,1-5.09,0v-46.3a2.55,2.55,0,0,1,5.09,0v46.3Z" style="fill:#222"/><path d="M135,218.26a2.55,2.55,0,0,0-3.6,0,2.52,2.52,0,0,0-.74,1.79v13.1a2.54,2.54,0,0,0,5.09,0v-13.1A2.5,2.5,0,0,0,135,218.26Z" style="fill:#222"/><path d="M126.7,226.35a2.56,2.56,0,0,0-3.6,0,2.52,2.52,0,0,0-.75,1.79v2.48h-2.59a2.53,2.53,0,1,0,0,5.06h5.14a2.53,2.53,0,0,0,2.53-2.54v-5A2.52,2.52,0,0,0,126.7,226.35Z" style="fill:#222"/><path d="M173.27,226.35a2.55,2.55,0,0,1,3.59,0,2.52,2.52,0,0,1,.75,1.8v2.48h2.59a2.53,2.53,0,1,1,0,5.06h-5.14a2.54,2.54,0,0,1-2.54-2.53v-5A2.51,2.51,0,0,1,173.27,226.35Z" style="fill:#222"/><path d="M166.48,244a2.6,2.6,0,0,1-1.81-.79,2.52,2.52,0,0,1-.75-1.79V220.05a2.54,2.54,0,0,1,5.09,0h0V238.9h18.9a2.53,2.53,0,1,1,0,5.06H166.48Z" style="fill:#222"/><path d="M139,238.89V211.82a2.55,2.55,0,0,1,5.09,0v29.6a2.53,2.53,0,0,1-.75,1.79,2.62,2.62,0,0,1-1.84.74H111.77a2.53,2.53,0,1,1,0-5.06H139Z" style="fill:#222"/><path d="M158.16,252.23a2.51,2.51,0,0,1-2.55-2.48s0,0,0,0V211.59a2.54,2.54,0,0,1,5.09,0h0v35.57h35.54a2.53,2.53,0,1,1,0,5.07H158.16Z" style="fill:#222"/><path d="M141.53,247.16h0a2.53,2.53,0,0,1,.16,5.06h-38.2a2.53,2.53,0,1,1,0-5.06h38Z" style="fill:#222"/></g></g></g></g><g id="_2" data-name="2"><g id="DESIGN-2" data-name="DESIGN"><g id="Main_Page-16" data-name="Main Page"><g id="dark_logo-16" data-name="dark logo"><path d="M455.12,188.64a2.53,2.53,0,1,1,0,5.06h-3.64l0.55,0.55a2.52,2.52,0,0,1,0,3.58,2.55,2.55,0,0,1-3.6,0l0,0L443.54,193a2.52,2.52,0,0,1,0-3.58,2.55,2.55,0,0,1,1.8-.74h9.78Z" style="fill:#222"/><path d="M488.31,155.56a2.43,2.43,0,0,1,1.8.62,2.52,2.52,0,0,1,0,3.58,2.69,2.69,0,0,1-1.8.87h-76.1a2.53,2.53,0,1,1,0-5.06h76.1Z" style="fill:#222"/><path d="M480.13,163.83a2.53,2.53,0,1,1,0,5.06H420.39a2.53,2.53,0,1,1,0-5.07h59.74Z" style="fill:#222"/><path d="M472,172.1a2.53,2.53,0,1,1,0,5.06H428.7a2.53,2.53,0,1,1,0-5.06H472Z" style="fill:#222"/><path d="M463.47,180.37a2.53,2.53,0,1,1,0,5.06H437a2.53,2.53,0,1,1,0-5.06h26.46Z" style="fill:#222"/><path d="M452.79,149.67a2.55,2.55,0,0,1-5.09,0v-46.3a2.55,2.55,0,0,1,5.09,0v46.3Z" style="fill:#222"/><path d="M435.41,118.26a2.55,2.55,0,0,0-3.6,0,2.52,2.52,0,0,0-.74,1.79v13.1a2.54,2.54,0,0,0,5.09,0v-13.1A2.5,2.5,0,0,0,435.41,118.26Z" style="fill:#222"/><path d="M427.09,126.35a2.56,2.56,0,0,0-3.6,0,2.52,2.52,0,0,0-.75,1.79v2.48h-2.59a2.53,2.53,0,1,0,0,5.06h5.14a2.53,2.53,0,0,0,2.53-2.54v-5A2.52,2.52,0,0,0,427.09,126.35Z" style="fill:#222"/><path d="M473.67,126.35a2.55,2.55,0,0,1,3.59,0,2.52,2.52,0,0,1,.75,1.8v2.48h2.59a2.53,2.53,0,1,1,0,5.06h-5.14a2.54,2.54,0,0,1-2.54-2.53v-5A2.51,2.51,0,0,1,473.67,126.35Z" style="fill:#222"/><path d="M466.88,144a2.6,2.6,0,0,1-1.81-.79,2.52,2.52,0,0,1-.75-1.79V120.05a2.54,2.54,0,0,1,5.09,0h0V138.9h18.9a2.53,2.53,0,1,1,0,5.06H466.88Z" style="fill:#222"/><path d="M439.38,138.89V111.82a2.55,2.55,0,0,1,5.09,0v29.6a2.53,2.53,0,0,1-.75,1.79,2.62,2.62,0,0,1-1.84.74H412.17a2.53,2.53,0,1,1,0-5.06h27.22Z" style="fill:#222"/><path d="M458.56,152.23a2.51,2.51,0,0,1-2.55-2.48s0,0,0,0V111.59a2.54,2.54,0,0,1,5.09,0h0v35.57h35.54a2.53,2.53,0,1,1,0,5.07H458.56Z" style="fill:#222"/><path d="M441.92,147.16h0a2.53,2.53,0,0,1,.16,5.06h-38.2a2.53,2.53,0,1,1,0-5.06h38Z" style="fill:#222"/></g></g><g id="Main_Page-17" data-name="Main Page"><g id="dark_logo-17" data-name="dark logo"><path d="M354.79,188.64a2.53,2.53,0,1,1,0,5.06h-3.64l0.55,0.55a2.52,2.52,0,0,1,0,3.58,2.55,2.55,0,0,1-3.6,0l0,0L343.22,193a2.52,2.52,0,0,1,0-3.58,2.55,2.55,0,0,1,1.8-.74h9.78Z" style="fill:#222"/><path d="M388,155.56a2.43,2.43,0,0,1,1.8.62,2.52,2.52,0,0,1,0,3.58,2.69,2.69,0,0,1-1.8.87h-76.1a2.53,2.53,0,1,1,0-5.06H388Z" style="fill:#222"/><path d="M379.81,163.83a2.53,2.53,0,1,1,0,5.06H320.06a2.53,2.53,0,1,1,0-5.07h59.74Z" style="fill:#222"/><path d="M371.63,172.1a2.53,2.53,0,1,1,0,5.06H328.38a2.53,2.53,0,1,1,0-5.06h43.26Z" style="fill:#222"/><path d="M363.15,180.37a2.53,2.53,0,1,1,0,5.06H336.69a2.53,2.53,0,1,1,0-5.06h26.46Z" style="fill:#222"/><path d="M352.46,149.67a2.55,2.55,0,0,1-5.09,0v-46.3a2.55,2.55,0,0,1,5.09,0v46.3Z" style="fill:#222"/><path d="M335.09,118.26a2.55,2.55,0,0,0-3.6,0,2.52,2.52,0,0,0-.74,1.79v13.1a2.54,2.54,0,0,0,5.09,0v-13.1A2.5,2.5,0,0,0,335.09,118.26Z" style="fill:#222"/><path d="M326.77,126.35a2.56,2.56,0,0,0-3.6,0,2.52,2.52,0,0,0-.75,1.79v2.48h-2.59a2.53,2.53,0,1,0,0,5.06H325a2.53,2.53,0,0,0,2.53-2.54v-5A2.52,2.52,0,0,0,326.77,126.35Z" style="fill:#222"/><path d="M373.34,126.35a2.55,2.55,0,0,1,3.59,0,2.52,2.52,0,0,1,.75,1.8v2.48h2.59a2.53,2.53,0,1,1,0,5.06h-5.14a2.54,2.54,0,0,1-2.54-2.53v-5A2.51,2.51,0,0,1,373.34,126.35Z" style="fill:#222"/><path d="M366.55,144a2.6,2.6,0,0,1-1.81-.79,2.52,2.52,0,0,1-.75-1.79V120.05a2.54,2.54,0,0,1,5.09,0h0V138.9H388a2.53,2.53,0,1,1,0,5.06H366.55Z" style="fill:#222"/><path d="M339.05,138.89V111.82a2.55,2.55,0,0,1,5.09,0v29.6a2.53,2.53,0,0,1-.75,1.79,2.62,2.62,0,0,1-1.84.74H311.84a2.53,2.53,0,1,1,0-5.06h27.22Z" style="fill:#222"/><path d="M358.23,152.23a2.51,2.51,0,0,1-2.55-2.48s0,0,0,0V111.59a2.54,2.54,0,0,1,5.09,0h0v35.57h35.54a2.53,2.53,0,1,1,0,5.07H358.23Z" style="fill:#222"/><path d="M341.6,147.16h0a2.53,2.53,0,0,1,.16,5.06h-38.2a2.53,2.53,0,1,1,0-5.06h38Z" style="fill:#222"/></g></g><g id="Main_Page-18" data-name="Main Page"><g id="dark_logo-18" data-name="dark logo"><path d="M254.79,188.64a2.53,2.53,0,1,1,0,5.06h-3.64l0.55,0.55a2.52,2.52,0,0,1,0,3.58,2.55,2.55,0,0,1-3.6,0l0,0L243.22,193a2.52,2.52,0,0,1,0-3.58,2.55,2.55,0,0,1,1.8-.74h9.78Z" style="fill:#222"/><path d="M288,155.56a2.43,2.43,0,0,1,1.8.62,2.52,2.52,0,0,1,0,3.58,2.69,2.69,0,0,1-1.8.87h-76.1a2.53,2.53,0,1,1,0-5.06H288Z" style="fill:#222"/><path d="M279.81,163.83a2.53,2.53,0,1,1,0,5.06H220.06a2.53,2.53,0,1,1,0-5.07h59.74Z" style="fill:#222"/><path d="M271.63,172.1a2.53,2.53,0,1,1,0,5.06H228.38a2.53,2.53,0,1,1,0-5.06h43.26Z" style="fill:#222"/><path d="M263.15,180.37a2.53,2.53,0,1,1,0,5.06H236.69a2.53,2.53,0,1,1,0-5.06h26.46Z" style="fill:#222"/><path d="M252.46,149.67a2.55,2.55,0,0,1-5.09,0v-46.3a2.55,2.55,0,0,1,5.09,0v46.3Z" style="fill:#222"/><path d="M235.09,118.26a2.55,2.55,0,0,0-3.6,0,2.52,2.52,0,0,0-.74,1.79v13.1a2.54,2.54,0,0,0,5.09,0v-13.1A2.5,2.5,0,0,0,235.09,118.26Z" style="fill:#222"/><path d="M226.77,126.35a2.56,2.56,0,0,0-3.6,0,2.52,2.52,0,0,0-.75,1.79v2.48h-2.59a2.53,2.53,0,1,0,0,5.06H225a2.53,2.53,0,0,0,2.53-2.54v-5A2.52,2.52,0,0,0,226.77,126.35Z" style="fill:#222"/><path d="M273.34,126.35a2.55,2.55,0,0,1,3.59,0,2.52,2.52,0,0,1,.75,1.8v2.48h2.59a2.53,2.53,0,1,1,0,5.06h-5.14a2.54,2.54,0,0,1-2.54-2.53v-5A2.51,2.51,0,0,1,273.34,126.35Z" style="fill:#222"/><path d="M266.55,144a2.6,2.6,0,0,1-1.81-.79,2.52,2.52,0,0,1-.75-1.79V120.05a2.54,2.54,0,0,1,5.09,0h0V138.9H288a2.53,2.53,0,1,1,0,5.06H266.55Z" style="fill:#222"/><path d="M239.05,138.89V111.82a2.55,2.55,0,0,1,5.09,0v29.6a2.53,2.53,0,0,1-.75,1.79,2.62,2.62,0,0,1-1.84.74H211.84a2.53,2.53,0,1,1,0-5.06h27.22Z" style="fill:#222"/><path d="M258.23,152.23a2.51,2.51,0,0,1-2.55-2.48s0,0,0,0V111.59a2.54,2.54,0,0,1,5.09,0h0v35.57h35.54a2.53,2.53,0,1,1,0,5.07H258.23Z" style="fill:#222"/><path d="M241.6,147.16h0a2.53,2.53,0,0,1,.16,5.06h-38.2a2.53,2.53,0,1,1,0-5.06h38Z" style="fill:#222"/></g></g><g id="Main_Page-19" data-name="Main Page"><g id="dark_logo-19" data-name="dark logo"><path d="M54.79,188.64a2.53,2.53,0,1,1,0,5.06H51.14l0.55,0.55a2.52,2.52,0,0,1,0,3.58,2.55,2.55,0,0,1-3.6,0l0,0L43.21,193a2.52,2.52,0,0,1,0-3.58,2.55,2.55,0,0,1,1.8-.74h9.78Z" style="fill:#222"/><path d="M88,155.56a2.43,2.43,0,0,1,1.8.62,2.52,2.52,0,0,1,0,3.58,2.69,2.69,0,0,1-1.8.87H11.87a2.53,2.53,0,1,1,0-5.06H88Z" style="fill:#222"/><path d="M79.8,163.83a2.53,2.53,0,1,1,0,5.06H20.06a2.53,2.53,0,1,1,0-5.07H79.8Z" style="fill:#222"/><path d="M71.62,172.1a2.53,2.53,0,1,1,0,5.06H28.37a2.53,2.53,0,1,1,0-5.06H71.62Z" style="fill:#222"/><path d="M63.14,180.37a2.53,2.53,0,1,1,0,5.06H36.68a2.53,2.53,0,1,1,0-5.06H63.14Z" style="fill:#222"/><path d="M52.45,149.67a2.55,2.55,0,0,1-5.09,0v-46.3a2.55,2.55,0,0,1,5.09,0v46.3Z" style="fill:#222"/><path d="M35.08,118.26a2.55,2.55,0,0,0-3.6,0,2.52,2.52,0,0,0-.74,1.79v13.1a2.54,2.54,0,0,0,5.09,0v-13.1A2.5,2.5,0,0,0,35.08,118.26Z" style="fill:#222"/><path d="M26.76,126.35a2.56,2.56,0,0,0-3.6,0,2.52,2.52,0,0,0-.75,1.79v2.48H19.83a2.53,2.53,0,1,0,0,5.06H25a2.53,2.53,0,0,0,2.53-2.54v-5A2.52,2.52,0,0,0,26.76,126.35Z" style="fill:#222"/><path d="M73.34,126.35a2.55,2.55,0,0,1,3.59,0,2.52,2.52,0,0,1,.75,1.8v2.48h2.59a2.53,2.53,0,1,1,0,5.06H75.13a2.54,2.54,0,0,1-2.54-2.53v-5A2.51,2.51,0,0,1,73.34,126.35Z" style="fill:#222"/><path d="M66.54,144a2.6,2.6,0,0,1-1.81-.79,2.52,2.52,0,0,1-.75-1.79V120.05a2.54,2.54,0,0,1,5.09,0h0V138.9H88A2.53,2.53,0,1,1,88,144H66.54Z" style="fill:#222"/><path d="M39,138.89V111.82a2.55,2.55,0,0,1,5.09,0v29.6a2.53,2.53,0,0,1-.75,1.79,2.62,2.62,0,0,1-1.84.74H11.83a2.53,2.53,0,1,1,0-5.06H39Z" style="fill:#222"/><path d="M58.22,152.23a2.51,2.51,0,0,1-2.55-2.48s0,0,0,0V111.59a2.54,2.54,0,0,1,5.09,0h0v35.57H96.31a2.53,2.53,0,1,1,0,5.07H58.22Z" style="fill:#222"/><path d="M41.59,147.16h0a2.53,2.53,0,0,1,.16,5.06H3.54a2.53,2.53,0,1,1,0-5.06h38Z" style="fill:#222"/></g></g><g id="Main_Page-20" data-name="Main Page"><g id="dark_logo-20" data-name="dark logo"><path d="M154.73,188.64a2.53,2.53,0,1,1,0,5.06h-3.64l0.55,0.55a2.52,2.52,0,0,1,0,3.58,2.55,2.55,0,0,1-3.6,0l0,0L143.15,193a2.52,2.52,0,0,1,0-3.58,2.55,2.55,0,0,1,1.8-.74h9.78Z" style="fill:#222"/><path d="M187.92,155.56a2.43,2.43,0,0,1,1.8.62,2.52,2.52,0,0,1,0,3.58,2.69,2.69,0,0,1-1.8.87h-76.1a2.53,2.53,0,1,1,0-5.06h76.1Z" style="fill:#222"/><path d="M179.74,163.83a2.53,2.53,0,1,1,0,5.06H120a2.53,2.53,0,1,1,0-5.07h59.74Z" style="fill:#222"/><path d="M171.56,172.1a2.53,2.53,0,1,1,0,5.06H128.31a2.53,2.53,0,1,1,0-5.06h43.26Z" style="fill:#222"/><path d="M163.08,180.37a2.53,2.53,0,1,1,0,5.06H136.62a2.53,2.53,0,1,1,0-5.06h26.46Z" style="fill:#222"/><path d="M152.39,149.67a2.55,2.55,0,0,1-5.09,0v-46.3a2.55,2.55,0,0,1,5.09,0v46.3Z" style="fill:#222"/><path d="M135,118.26a2.55,2.55,0,0,0-3.6,0,2.52,2.52,0,0,0-.74,1.79v13.1a2.54,2.54,0,0,0,5.09,0v-13.1A2.5,2.5,0,0,0,135,118.26Z" style="fill:#222"/><path d="M126.7,126.35a2.56,2.56,0,0,0-3.6,0,2.52,2.52,0,0,0-.75,1.79v2.48h-2.59a2.53,2.53,0,1,0,0,5.06h5.14a2.53,2.53,0,0,0,2.53-2.54v-5A2.52,2.52,0,0,0,126.7,126.35Z" style="fill:#222"/><path d="M173.27,126.35a2.55,2.55,0,0,1,3.59,0,2.52,2.52,0,0,1,.75,1.8v2.48h2.59a2.53,2.53,0,1,1,0,5.06h-5.14a2.54,2.54,0,0,1-2.54-2.53v-5A2.51,2.51,0,0,1,173.27,126.35Z" style="fill:#222"/><path d="M166.48,144a2.6,2.6,0,0,1-1.81-.79,2.52,2.52,0,0,1-.75-1.79V120.05a2.54,2.54,0,0,1,5.09,0h0V138.9h18.9a2.53,2.53,0,1,1,0,5.06H166.48Z" style="fill:#222"/><path d="M139,138.89V111.82a2.55,2.55,0,0,1,5.09,0v29.6a2.53,2.53,0,0,1-.75,1.79,2.62,2.62,0,0,1-1.84.74H111.77a2.53,2.53,0,1,1,0-5.06H139Z" style="fill:#222"/><path d="M158.16,152.23a2.51,2.51,0,0,1-2.55-2.48s0,0,0,0V111.59a2.54,2.54,0,0,1,5.09,0h0v35.57h35.54a2.53,2.53,0,1,1,0,5.07H158.16Z" style="fill:#222"/><path d="M141.53,147.16h0a2.53,2.53,0,0,1,.16,5.06h-38.2a2.53,2.53,0,1,1,0-5.06h38Z" style="fill:#222"/></g></g></g></g><g id="_1" data-name="1"><g id="Main_Page-21" data-name="Main Page"><g id="dark_logo-21" data-name="dark logo"><path d="M455.12,88.64a2.53,2.53,0,1,1,0,5.06h-3.64L452,94.25a2.52,2.52,0,0,1,0,3.58,2.55,2.55,0,0,1-3.6,0l0,0L443.54,93a2.52,2.52,0,0,1,0-3.58,2.55,2.55,0,0,1,1.8-.74h9.78Z" style="fill:#222"/><path d="M488.31,55.56a2.43,2.43,0,0,1,1.8.62,2.52,2.52,0,0,1,0,3.58,2.69,2.69,0,0,1-1.8.87h-76.1a2.53,2.53,0,1,1,0-5.06h76.1Z" style="fill:#222"/><path d="M480.13,63.83a2.53,2.53,0,1,1,0,5.06H420.39a2.53,2.53,0,1,1,0-5.07h59.74Z" style="fill:#222"/><path d="M472,72.1a2.53,2.53,0,1,1,0,5.06H428.7a2.53,2.53,0,1,1,0-5.06H472Z" style="fill:#222"/><path d="M463.47,80.37a2.53,2.53,0,1,1,0,5.06H437a2.53,2.53,0,1,1,0-5.06h26.46Z" style="fill:#222"/><path d="M452.79,49.67a2.55,2.55,0,0,1-5.09,0V3.38a2.55,2.55,0,0,1,5.09,0v46.3Z" style="fill:#222"/><path d="M435.41,18.26a2.55,2.55,0,0,0-3.6,0,2.52,2.52,0,0,0-.74,1.79v13.1a2.54,2.54,0,0,0,5.09,0V20.05A2.5,2.5,0,0,0,435.41,18.26Z" style="fill:#222"/><path d="M427.09,26.35a2.56,2.56,0,0,0-3.6,0,2.52,2.52,0,0,0-.75,1.79v2.48h-2.59a2.53,2.53,0,1,0,0,5.06h5.14a2.53,2.53,0,0,0,2.53-2.54v-5A2.52,2.52,0,0,0,427.09,26.35Z" style="fill:#222"/><path d="M473.67,26.35a2.55,2.55,0,0,1,3.59,0,2.52,2.52,0,0,1,.75,1.8v2.48h2.59a2.53,2.53,0,1,1,0,5.06h-5.14a2.54,2.54,0,0,1-2.54-2.53v-5A2.51,2.51,0,0,1,473.67,26.35Z" style="fill:#222"/><path d="M466.88,44a2.6,2.6,0,0,1-1.81-.79,2.52,2.52,0,0,1-.75-1.79V20.05a2.54,2.54,0,0,1,5.09,0h0V38.9h18.9a2.53,2.53,0,1,1,0,5.06H466.88Z" style="fill:#222"/><path d="M439.38,38.89V11.82a2.55,2.55,0,0,1,5.09,0v29.6a2.53,2.53,0,0,1-.75,1.79,2.62,2.62,0,0,1-1.84.74H412.17a2.53,2.53,0,1,1,0-5.06h27.22Z" style="fill:#222"/><path d="M458.56,52.23A2.51,2.51,0,0,1,456,49.75s0,0,0,0V11.59a2.54,2.54,0,0,1,5.09,0h0V47.16h35.54a2.53,2.53,0,1,1,0,5.07H458.56Z" style="fill:#222"/><path d="M441.92,47.16h0a2.53,2.53,0,0,1,.16,5.06h-38.2a2.53,2.53,0,1,1,0-5.06h38Z" style="fill:#222"/></g></g><g id="Main_Page-22" data-name="Main Page"><g id="dark_logo-22" data-name="dark logo"><path d="M354.79,88.64a2.53,2.53,0,1,1,0,5.06h-3.64l0.55,0.55a2.52,2.52,0,0,1,0,3.58,2.55,2.55,0,0,1-3.6,0l0,0L343.22,93a2.52,2.52,0,0,1,0-3.58,2.55,2.55,0,0,1,1.8-.74h9.78Z" style="fill:#222"/><path d="M388,55.56a2.43,2.43,0,0,1,1.8.62,2.52,2.52,0,0,1,0,3.58,2.69,2.69,0,0,1-1.8.87h-76.1a2.53,2.53,0,1,1,0-5.06H388Z" style="fill:#222"/><path d="M379.81,63.83a2.53,2.53,0,1,1,0,5.06H320.06a2.53,2.53,0,1,1,0-5.07h59.74Z" style="fill:#222"/><path d="M371.63,72.1a2.53,2.53,0,1,1,0,5.06H328.38a2.53,2.53,0,1,1,0-5.06h43.26Z" style="fill:#222"/><path d="M363.15,80.37a2.53,2.53,0,1,1,0,5.06H336.69a2.53,2.53,0,1,1,0-5.06h26.46Z" style="fill:#222"/><path d="M352.46,49.67a2.55,2.55,0,0,1-5.09,0V3.38a2.55,2.55,0,0,1,5.09,0v46.3Z" style="fill:#222"/><path d="M335.09,18.26a2.55,2.55,0,0,0-3.6,0,2.52,2.52,0,0,0-.74,1.79v13.1a2.54,2.54,0,0,0,5.09,0V20.05A2.5,2.5,0,0,0,335.09,18.26Z" style="fill:#222"/><path d="M326.77,26.35a2.56,2.56,0,0,0-3.6,0,2.52,2.52,0,0,0-.75,1.79v2.48h-2.59a2.53,2.53,0,1,0,0,5.06H325a2.53,2.53,0,0,0,2.53-2.54v-5A2.52,2.52,0,0,0,326.77,26.35Z" style="fill:#222"/><path d="M373.34,26.35a2.55,2.55,0,0,1,3.59,0,2.52,2.52,0,0,1,.75,1.8v2.48h2.59a2.53,2.53,0,1,1,0,5.06h-5.14a2.54,2.54,0,0,1-2.54-2.53v-5A2.51,2.51,0,0,1,373.34,26.35Z" style="fill:#222"/><path d="M366.55,44a2.6,2.6,0,0,1-1.81-.79,2.52,2.52,0,0,1-.75-1.79V20.05a2.54,2.54,0,0,1,5.09,0h0V38.9H388A2.53,2.53,0,1,1,388,44H366.55Z" style="fill:#222"/><path d="M339.05,38.89V11.82a2.55,2.55,0,0,1,5.09,0v29.6a2.53,2.53,0,0,1-.75,1.79,2.62,2.62,0,0,1-1.84.74H311.84a2.53,2.53,0,1,1,0-5.06h27.22Z" style="fill:#222"/><path d="M358.23,52.23a2.51,2.51,0,0,1-2.55-2.48s0,0,0,0V11.59a2.54,2.54,0,0,1,5.09,0h0V47.16h35.54a2.53,2.53,0,1,1,0,5.07H358.23Z" style="fill:#222"/><path d="M341.6,47.16h0a2.53,2.53,0,0,1,.16,5.06h-38.2a2.53,2.53,0,1,1,0-5.06h38Z" style="fill:#222"/></g></g><g id="Main_Page-23" data-name="Main Page"><g id="dark_logo-23" data-name="dark logo"><path d="M254.79,88.64a2.53,2.53,0,1,1,0,5.06h-3.64l0.55,0.55a2.52,2.52,0,0,1,0,3.58,2.55,2.55,0,0,1-3.6,0l0,0L243.22,93a2.52,2.52,0,0,1,0-3.58,2.55,2.55,0,0,1,1.8-.74h9.78Z" style="fill:#222"/><path d="M288,55.56a2.43,2.43,0,0,1,1.8.62,2.52,2.52,0,0,1,0,3.58,2.69,2.69,0,0,1-1.8.87h-76.1a2.53,2.53,0,1,1,0-5.06H288Z" style="fill:#222"/><path d="M279.81,63.83a2.53,2.53,0,1,1,0,5.06H220.06a2.53,2.53,0,1,1,0-5.07h59.74Z" style="fill:#222"/><path d="M271.63,72.1a2.53,2.53,0,1,1,0,5.06H228.38a2.53,2.53,0,1,1,0-5.06h43.26Z" style="fill:#222"/><path d="M263.15,80.37a2.53,2.53,0,1,1,0,5.06H236.69a2.53,2.53,0,1,1,0-5.06h26.46Z" style="fill:#222"/><path d="M252.46,49.67a2.55,2.55,0,0,1-5.09,0V3.38a2.55,2.55,0,0,1,5.09,0v46.3Z" style="fill:#222"/><path d="M235.09,18.26a2.55,2.55,0,0,0-3.6,0,2.52,2.52,0,0,0-.74,1.79v13.1a2.54,2.54,0,0,0,5.09,0V20.05A2.5,2.5,0,0,0,235.09,18.26Z" style="fill:#222"/><path d="M226.77,26.35a2.56,2.56,0,0,0-3.6,0,2.52,2.52,0,0,0-.75,1.79v2.48h-2.59a2.53,2.53,0,1,0,0,5.06H225a2.53,2.53,0,0,0,2.53-2.54v-5A2.52,2.52,0,0,0,226.77,26.35Z" style="fill:#222"/><path d="M273.34,26.35a2.55,2.55,0,0,1,3.59,0,2.52,2.52,0,0,1,.75,1.8v2.48h2.59a2.53,2.53,0,1,1,0,5.06h-5.14a2.54,2.54,0,0,1-2.54-2.53v-5A2.51,2.51,0,0,1,273.34,26.35Z" style="fill:#222"/><path d="M266.55,44a2.6,2.6,0,0,1-1.81-.79,2.52,2.52,0,0,1-.75-1.79V20.05a2.54,2.54,0,0,1,5.09,0h0V38.9H288A2.53,2.53,0,1,1,288,44H266.55Z" style="fill:#222"/><path d="M239.05,38.89V11.82a2.55,2.55,0,0,1,5.09,0v29.6a2.53,2.53,0,0,1-.75,1.79,2.62,2.62,0,0,1-1.84.74H211.84a2.53,2.53,0,1,1,0-5.06h27.22Z" style="fill:#222"/><path d="M258.23,52.23a2.51,2.51,0,0,1-2.55-2.48s0,0,0,0V11.59a2.54,2.54,0,0,1,5.09,0h0V47.16h35.54a2.53,2.53,0,1,1,0,5.07H258.23Z" style="fill:#222"/><path d="M241.6,47.16h0a2.53,2.53,0,0,1,.16,5.06h-38.2a2.53,2.53,0,1,1,0-5.06h38Z" style="fill:#222"/></g></g><g id="Main_Page-24" data-name="Main Page"><g id="dark_logo-24" data-name="dark logo"><path d="M54.79,88.64a2.53,2.53,0,1,1,0,5.06H51.14l0.55,0.55a2.52,2.52,0,0,1,0,3.58,2.55,2.55,0,0,1-3.6,0l0,0L43.21,93a2.52,2.52,0,0,1,0-3.58,2.55,2.55,0,0,1,1.8-.74h9.78Z" style="fill:#222"/><path d="M88,55.56a2.43,2.43,0,0,1,1.8.62,2.52,2.52,0,0,1,0,3.58,2.69,2.69,0,0,1-1.8.87H11.87a2.53,2.53,0,1,1,0-5.06H88Z" style="fill:#222"/><path d="M79.8,63.83a2.53,2.53,0,1,1,0,5.06H20.06a2.53,2.53,0,1,1,0-5.07H79.8Z" style="fill:#222"/><path d="M71.62,72.1a2.53,2.53,0,1,1,0,5.06H28.37a2.53,2.53,0,1,1,0-5.06H71.62Z" style="fill:#222"/><path d="M63.14,80.37a2.53,2.53,0,1,1,0,5.06H36.68a2.53,2.53,0,1,1,0-5.06H63.14Z" style="fill:#222"/><path d="M52.45,49.67a2.55,2.55,0,0,1-5.09,0V3.38a2.55,2.55,0,0,1,5.09,0v46.3Z" style="fill:#222"/><path d="M35.08,18.26a2.55,2.55,0,0,0-3.6,0,2.52,2.52,0,0,0-.74,1.79v13.1a2.54,2.54,0,0,0,5.09,0V20.05A2.5,2.5,0,0,0,35.08,18.26Z" style="fill:#222"/><path d="M26.76,26.35a2.56,2.56,0,0,0-3.6,0,2.52,2.52,0,0,0-.75,1.79v2.48H19.83a2.53,2.53,0,1,0,0,5.06H25a2.53,2.53,0,0,0,2.53-2.54v-5A2.52,2.52,0,0,0,26.76,26.35Z" style="fill:#222"/><path d="M73.34,26.35a2.55,2.55,0,0,1,3.59,0,2.52,2.52,0,0,1,.75,1.8v2.48h2.59a2.53,2.53,0,1,1,0,5.06H75.13a2.54,2.54,0,0,1-2.54-2.53v-5A2.51,2.51,0,0,1,73.34,26.35Z" style="fill:#222"/><path d="M66.54,44a2.6,2.6,0,0,1-1.81-.79A2.52,2.52,0,0,1,64,41.38V20.05a2.54,2.54,0,0,1,5.09,0h0V38.9H88A2.53,2.53,0,1,1,88,44H66.54Z" style="fill:#222"/><path d="M39,38.89V11.82a2.55,2.55,0,0,1,5.09,0v29.6a2.53,2.53,0,0,1-.75,1.79,2.62,2.62,0,0,1-1.84.74H11.83a2.53,2.53,0,1,1,0-5.06H39Z" style="fill:#222"/><path d="M58.22,52.23a2.51,2.51,0,0,1-2.55-2.48s0,0,0,0V11.59a2.54,2.54,0,0,1,5.09,0h0V47.16H96.31a2.53,2.53,0,1,1,0,5.07H58.22Z" style="fill:#222"/><path d="M41.59,47.16h0a2.53,2.53,0,0,1,.16,5.06H3.54a2.53,2.53,0,1,1,0-5.06h38Z" style="fill:#222"/></g></g><g id="Main_Page-25" data-name="Main Page"><g id="dark_logo-25" data-name="dark logo"><path d="M154.73,88.64a2.53,2.53,0,1,1,0,5.06h-3.64l0.55,0.55a2.52,2.52,0,0,1,0,3.58,2.55,2.55,0,0,1-3.6,0l0,0L143.15,93a2.52,2.52,0,0,1,0-3.58,2.55,2.55,0,0,1,1.8-.74h9.78Z" style="fill:#222"/><path d="M187.92,55.56a2.43,2.43,0,0,1,1.8.62,2.52,2.52,0,0,1,0,3.58,2.69,2.69,0,0,1-1.8.87h-76.1a2.53,2.53,0,1,1,0-5.06h76.1Z" style="fill:#222"/><path d="M179.74,63.83a2.53,2.53,0,1,1,0,5.06H120a2.53,2.53,0,1,1,0-5.07h59.74Z" style="fill:#222"/><path d="M171.56,72.1a2.53,2.53,0,1,1,0,5.06H128.31a2.53,2.53,0,1,1,0-5.06h43.26Z" style="fill:#222"/><path d="M163.08,80.37a2.53,2.53,0,1,1,0,5.06H136.62a2.53,2.53,0,1,1,0-5.06h26.46Z" style="fill:#222"/><path d="M152.39,49.67a2.55,2.55,0,0,1-5.09,0V3.38a2.55,2.55,0,0,1,5.09,0v46.3Z" style="fill:#222"/><path d="M135,18.26a2.55,2.55,0,0,0-3.6,0,2.52,2.52,0,0,0-.74,1.79v13.1a2.54,2.54,0,0,0,5.09,0V20.05A2.5,2.5,0,0,0,135,18.26Z" style="fill:#222"/><path d="M126.7,26.35a2.56,2.56,0,0,0-3.6,0,2.52,2.52,0,0,0-.75,1.79v2.48h-2.59a2.53,2.53,0,1,0,0,5.06h5.14a2.53,2.53,0,0,0,2.53-2.54v-5A2.52,2.52,0,0,0,126.7,26.35Z" style="fill:#222"/><path d="M173.27,26.35a2.55,2.55,0,0,1,3.59,0,2.52,2.52,0,0,1,.75,1.8v2.48h2.59a2.53,2.53,0,1,1,0,5.06h-5.14a2.54,2.54,0,0,1-2.54-2.53v-5A2.51,2.51,0,0,1,173.27,26.35Z" style="fill:#222"/><path d="M166.48,44a2.6,2.6,0,0,1-1.81-.79,2.52,2.52,0,0,1-.75-1.79V20.05A2.54,2.54,0,0,1,169,20h0V38.9h18.9a2.53,2.53,0,1,1,0,5.06H166.48Z" style="fill:#222"/><path d="M139,38.89V11.82a2.55,2.55,0,0,1,5.09,0v29.6a2.53,2.53,0,0,1-.75,1.79,2.62,2.62,0,0,1-1.84.74H111.77a2.53,2.53,0,1,1,0-5.06H139Z" style="fill:#222"/><path d="M158.16,52.23a2.51,2.51,0,0,1-2.55-2.48s0,0,0,0V11.59a2.54,2.54,0,0,1,5.09,0h0V47.16h35.54a2.53,2.53,0,1,1,0,5.07H158.16Z" style="fill:#222"/><path d="M141.53,47.16h0a2.53,2.53,0,0,1,.16,5.06h-38.2a2.53,2.53,0,1,1,0-5.06h38Z" style="fill:#222"/></g></g></g></g></svg>