<?xml version="1.0" encoding="utf-8"?>
<!-- Generator: Adobe Illustrator 19.2.1, SVG Export Plug-In . SVG Version: 6.00 Build 0)  -->
<svg version="1.1" id="Layer_1" xmlns="http://www.w3.org/2000/svg" xmlns:xlink="http://www.w3.org/1999/xlink" x="0px" y="0px"
	 viewBox="0 0 1600 818.1" style="enable-background:new 0 0 1600 818.1;" xml:space="preserve">
<style type="text/css">
	.st0{fill:url(#black_background_1_);}
	.st1{opacity:0.2;}
	.st2{fill:#0F0F0F;}
	.st3{opacity:0.1;}
	.st4{fill:#6E6E6E;}
	.st5{fill:#222222;}
</style>
<title>Web Page Boisvert01</title>
<g id="Main_Page">
	<g id="background">
		
			<linearGradient id="black_background_1_" gradientUnits="userSpaceOnUse" x1="-30.8501" y1="89.1002" x2="1168.7999" y2="550.9402" gradientTransform="matrix(1 0 0 -1 0 818)">
			<stop  offset="0" style="stop-color:#393939"/>
			<stop  offset="0.74" style="stop-color:#0F0F0F"/>
		</linearGradient>
		<rect id="black_background" class="st0" width="1600" height="818.1"/>
		<g id="logo_stripes" class="st1">
			<polygon class="st2" points="82.7,818.1 0,818.1 0,735.4 0.1,735.5 			"/>
			<polygon class="st2" points="709.8,818.1 613.5,818.1 0,204.6 0,108.3 			"/>
			<polygon class="st2" points="554.8,818.1 458.5,818.1 0,359.6 0,263.3 			"/>
			<polygon class="st2" points="397.4,818.1 301.1,818.1 0,517 0,420.6 			"/>
			<polygon class="st2" points="240,818.1 143.7,818.1 0,674.3 0,578 			"/>
			<path class="st2" d="M876.1,0L439.9,436.2c-13.3,13.3-34.9,13.3-48.2,0c-13.3-13.3-13.3-34.9,0-48.2l388-388L876.1,0L876.1,0z"/>
			<path class="st2" d="M855.1,253.6c-9,0-17.7,3.6-24.1,10L706.3,388.2c-13.3,13.3-13.3,34.9,0,48.2c13.3,13.3,34.9,13.3,48.2,0
				l0,0l124.7-124.7c13.3-13.2,13.4-34.8,0.2-48.1C872.9,257.2,864.2,253.6,855.1,253.6z"/>
			<path class="st2" d="M855.1,488.8l23.6-23.6c13.3-13.3,13.3-34.9,0-48.2s-34.9-13.3-48.2,0l-47.7,47.7
				c-13.3,13.3-13.3,34.8-0.1,48.1c0,0,0,0,0,0l48.6,48.6c13.1,13.5,34.6,13.9,48.2,0.9c13.5-13.1,13.9-34.6,0.9-48.2
				c-0.3-0.3-0.6-0.6-0.9-0.9L855.1,488.8z"/>
			<path class="st2" d="M561.4,0L361.5,199.9c-6.4,6.4-15,10-24.1,10c-9.4,0-18.4-3.4-24.6-9.6L112.6,0h96.3L337,128.1L465,0H561.4z
				"/>
			<path class="st2" d="M621.2,412.3l257.6-257.6c13.3-13.3,13.3-34.9,0-48.2c-13.3-13.3-34.9-13.3-48.2,0L548.9,388.2
				c-6.4,6.4-10,15-10,24.1c0.1,9.2,3.8,17.9,10.3,24.4L830.5,718c12.9,13.7,34.5,14.3,48.1,1.3s14.3-34.5,1.3-48.1
				c-0.4-0.5-0.9-0.9-1.3-1.3L621.2,412.3z"/>
			<path class="st2" d="M718.8,0L360.9,357.8c-13.1,13.2-34.5,13.4-47.7,0.2c-0.1-0.1-0.2-0.2-0.4-0.4L0,44.8V0h51.5L337,285.5
				L622.4,0H718.8z"/>
			<path class="st2" d="M869.6,818.1h-96.3l-303-303l0,0c-0.5-0.5-0.9-1-1.4-1.5l-0.1,0l0,0c-12.9-13.7-12.2-35.2,1.5-48.1
				c13.7-12.9,35.2-12.2,48.1,1.5l0,0L869.6,818.1z"/>
		</g>
	</g>
	<g class="st3">
		<path class="st4" d="M1253.7,698.2c10.4,0,18.8,8.4,18.8,18.8s-8.4,18.8-18.8,18.8h-26.9l4.1,4.1c7.4,7.2,7.6,19.1,0.3,26.6
			c-7.2,7.4-19.1,7.6-26.6,0.3c-0.1-0.1-0.2-0.2-0.3-0.3l-36.1-36.2c-7.3-7.3-7.4-19.2,0-26.6c3.5-3.5,8.3-5.5,13.3-5.5
			L1253.7,698.2z"/>
		<path class="st4" d="M1498.9,452.5c4.8,0,9.6,0.9,13.3,4.6c7.3,7.3,7.3,19.2,0,26.6c-3.7,3.7-8.5,6.5-13.3,6.5H936.6
			c-10.4,0-18.8-8.4-18.8-18.8s8.4-18.8,18.8-18.8L1498.9,452.5L1498.9,452.5z"/>
		<path class="st4" d="M1438.5,513.9c10.4,0,18.8,8.4,18.8,18.8c0,10.4-8.4,18.8-18.8,18.8c0,0,0,0,0,0l-441.4,0
			c-10.4,0-18.8-8.4-18.8-18.8s8.4-18.8,18.8-18.8L1438.5,513.9L1438.5,513.9z"/>
		<path class="st4" d="M1378.1,575.3c10.4,0,18.8,8.4,18.8,18.8c0,10.4-8.4,18.8-18.8,18.8h-319.6c-10.4,0-18.8-8.4-18.8-18.8
			c0-10.4,8.4-18.8,18.8-18.8c0,0,0,0,0,0L1378.1,575.3z"/>
		<path class="st4" d="M1315.4,636.8c10.4,0,18.8,8.4,18.8,18.8c0,10.4-8.4,18.8-18.8,18.8h-195.5c-10.4,0-18.8-8.4-18.8-18.8
			c0-10.4,8.4-18.8,18.8-18.8L1315.4,636.8z"/>
		<path class="st4" d="M1236.4,408.8c-0.2,10.4-8.9,18.6-19.2,18.4c-10-0.2-18.1-8.3-18.4-18.4V64.8c0.2-10.4,8.9-18.6,19.2-18.4
			c10,0.2,18.1,8.3,18.4,18.4V408.8z"/>
		<path class="st4" d="M1108.1,175.4c-7.3-7.3-19.2-7.3-26.6,0c-3.5,3.5-5.5,8.3-5.5,13.3V286c0.2,10.4,8.8,18.6,19.2,18.4
			c10-0.2,18.1-8.3,18.4-18.4v-97.3C1113.6,183.7,1111.6,178.9,1108.1,175.4z"/>
		<path class="st4" d="M1046.6,235.5c-7.3-7.3-19.3-7.3-26.6,0c-3.5,3.5-5.5,8.3-5.5,13.3v18.4h-19.1c-10.4,0-18.8,8.4-18.8,18.8
			s8.4,18.8,18.8,18.8h38c10.4,0,18.7-8.5,18.7-18.8v-37.2C1052.1,243.8,1050.2,239,1046.6,235.5z"/>
		<path class="st4" d="M1390.8,235.5c7.3-7.3,19.2-7.4,26.6,0c3.5,3.5,5.5,8.3,5.5,13.4v18.4h19.1c10.4,0,18.8,8.4,18.8,18.8
			s-8.4,18.8-18.8,18.8h-38c-10.4,0-18.8-8.4-18.8-18.8v-37.2C1385.2,243.8,1387.2,239,1390.8,235.5z"/>
		<path class="st4" d="M1340.6,366.3c-5-0.1-9.9-2.2-13.4-5.8c-3.5-3.5-5.5-8.3-5.5-13.3V188.7c0-10.4,8.4-18.8,18.8-18.8
			c10.4,0,18.8,8.4,18.8,18.8c0,0,0,0,0,0v140h139.6c10.4,0,18.8,8.4,18.8,18.8c0,10.4-8.4,18.8-18.8,18.8L1340.6,366.3
			L1340.6,366.3z"/>
		<path class="st4" d="M1137.4,328.7V127.6c0-10.4,8.4-18.8,18.8-18.8c10.4,0,18.8,8.4,18.8,18.8v219.9c0,5-2,9.8-5.5,13.3
			c-3.6,3.5-8.5,5.5-13.6,5.5H936.4c-10.4,0-18.8-8.4-18.8-18.8s8.4-18.8,18.8-18.8c0,0,0,0,0,0L1137.4,328.7L1137.4,328.7z"/>
		<path class="st4" d="M1279.1,427.7c-10.3,0.1-18.7-8.1-18.8-18.4c0-0.1,0-0.2,0-0.3V125.8c0-10.4,8.4-18.8,18.8-18.8
			c10.4,0,18.8,8.4,18.8,18.8c0,0,0,0,0,0v264.3h262.6c10.4,0,18.8,8.4,18.8,18.8s-8.4,18.8-18.8,18.8H1279.1z"/>
		<path class="st4" d="M1156.2,390.1L1156.2,390.1c10.4-0.1,18.9,8.3,18.9,18.7c0,10-7.8,18.3-17.8,18.9l0,0c-0.3,0,0.4,0,0,0H875.1
			c-10.4,0-18.8-8.4-18.8-18.8c0-10.4,8.4-18.8,18.8-18.8L1156.2,390.1L1156.2,390.1z"/>
	</g>
	<g id="dark_logo">
		<path class="st5" d="M1253.7,698.2c10.4,0,18.8,8.4,18.8,18.8s-8.4,18.8-18.8,18.8h-26.9l4.1,4.1c7.4,7.2,7.6,19.1,0.3,26.6
			c-7.2,7.4-19.1,7.6-26.6,0.3c-0.1-0.1-0.2-0.2-0.3-0.3l-36.1-36.2c-7.3-7.3-7.4-19.2,0-26.6c3.5-3.5,8.3-5.5,13.3-5.5
			L1253.7,698.2z"/>
		<path class="st5" d="M1498.9,452.5c4.8,0,9.6,0.9,13.3,4.6c7.3,7.3,7.3,19.2,0,26.6c-3.7,3.7-8.5,6.5-13.3,6.5H936.6
			c-10.4,0-18.8-8.4-18.8-18.8s8.4-18.8,18.8-18.8L1498.9,452.5L1498.9,452.5z"/>
		<path class="st5" d="M1438.5,513.9c10.4,0,18.8,8.4,18.8,18.8c0,10.4-8.4,18.8-18.8,18.8c0,0,0,0,0,0l-441.4,0
			c-10.4,0-18.8-8.4-18.8-18.8s8.4-18.8,18.8-18.8L1438.5,513.9L1438.5,513.9z"/>
		<path class="st5" d="M1378.1,575.3c10.4,0,18.8,8.4,18.8,18.8c0,10.4-8.4,18.8-18.8,18.8h-319.6c-10.4,0-18.8-8.4-18.8-18.8
			c0-10.4,8.4-18.8,18.8-18.8c0,0,0,0,0,0L1378.1,575.3z"/>
		<path class="st5" d="M1315.4,636.8c10.4,0,18.8,8.4,18.8,18.8c0,10.4-8.4,18.8-18.8,18.8h-195.5c-10.4,0-18.8-8.4-18.8-18.8
			c0-10.4,8.4-18.8,18.8-18.8L1315.4,636.8z"/>
		<path class="st5" d="M1236.4,408.8c-0.2,10.4-8.9,18.6-19.2,18.4c-10-0.2-18.1-8.3-18.4-18.4V64.8c0.2-10.4,8.9-18.6,19.2-18.4
			c10,0.2,18.1,8.3,18.4,18.4V408.8z"/>
		<path class="st5" d="M1108.1,175.4c-7.3-7.3-19.2-7.3-26.6,0c-3.5,3.5-5.5,8.3-5.5,13.3V286c0.2,10.4,8.8,18.6,19.2,18.4
			c10-0.2,18.1-8.3,18.4-18.4v-97.3C1113.6,183.7,1111.6,178.9,1108.1,175.4z"/>
		<path class="st5" d="M1046.6,235.5c-7.3-7.3-19.3-7.3-26.6,0c-3.5,3.5-5.5,8.3-5.5,13.3v18.4h-19.1c-10.4,0-18.8,8.4-18.8,18.8
			s8.4,18.8,18.8,18.8h38c10.4,0,18.7-8.5,18.7-18.8v-37.2C1052.1,243.8,1050.2,239,1046.6,235.5z"/>
		<path class="st5" d="M1390.8,235.5c7.3-7.3,19.2-7.4,26.6,0c3.5,3.5,5.5,8.3,5.5,13.4v18.4h19.1c10.4,0,18.8,8.4,18.8,18.8
			s-8.4,18.8-18.8,18.8h-38c-10.4,0-18.8-8.4-18.8-18.8v-37.2C1385.2,243.8,1387.2,239,1390.8,235.5z"/>
		<path class="st5" d="M1340.6,366.3c-5-0.1-9.9-2.2-13.4-5.8c-3.5-3.5-5.5-8.3-5.5-13.3V188.7c0-10.4,8.4-18.8,18.8-18.8
			c10.4,0,18.8,8.4,18.8,18.8c0,0,0,0,0,0v140h139.6c10.4,0,18.8,8.4,18.8,18.8c0,10.4-8.4,18.8-18.8,18.8L1340.6,366.3
			L1340.6,366.3z"/>
		<path class="st5" d="M1137.4,328.7V127.6c0-10.4,8.4-18.8,18.8-18.8c10.4,0,18.8,8.4,18.8,18.8v219.9c0,5-2,9.8-5.5,13.3
			c-3.6,3.5-8.5,5.5-13.6,5.5H936.4c-10.4,0-18.8-8.4-18.8-18.8s8.4-18.8,18.8-18.8c0,0,0,0,0,0L1137.4,328.7L1137.4,328.7z"/>
		<path class="st5" d="M1279.1,427.7c-10.3,0.1-18.7-8.1-18.8-18.4c0-0.1,0-0.2,0-0.3V125.8c0-10.4,8.4-18.8,18.8-18.8
			c10.4,0,18.8,8.4,18.8,18.8c0,0,0,0,0,0v264.3h262.6c10.4,0,18.8,8.4,18.8,18.8s-8.4,18.8-18.8,18.8H1279.1z"/>
		<path class="st5" d="M1156.2,390.1L1156.2,390.1c10.4-0.1,18.9,8.3,18.9,18.7c0,10-7.8,18.3-17.8,18.9l0,0c-0.3,0,0.4,0,0,0H875.1
			c-10.4,0-18.8-8.4-18.8-18.8c0-10.4,8.4-18.8,18.8-18.8L1156.2,390.1L1156.2,390.1z"/>
	</g>
</g>
</svg>
