<svg xmlns="http://www.w3.org/2000/svg" viewBox="0 0 300 170"><defs><style>.cls-1{fill:#111;}.cls-2{fill:#c30;}</style></defs><title>DISNEY</title><g id="Layer_2" data-name="Layer 2"><g id="Layer_2-2" data-name="Layer 2"><rect class="cls-1" width="300" height="170"/></g><g id="DISNEY"><g id="layer1"><path id="path2665" class="cls-2" d="M209,106.12a8.27,8.27,0,0,1-.9-.89,16.45,16.45,0,0,1-1-1.6c-.13-.32-.24-.55-.34-.81a9.89,9.89,0,0,1-.3-5.71c.37-1.87.72-2,1.68-4.51a1.53,1.53,0,0,0,.11-.42c0-.35-.53-2.72-.57-3.48,0-1.16.86-2,2.37-2.14a1.59,1.59,0,0,0,.34,0c.6-.15,1-1.3,1.31-2.22.46-1.3,1.18-3.28,1.18-3.28s-1.91-.44-2.92-.82a4.2,4.2,0,0,1-2.52-2c-.61-1.22-.21-1.9,1.07-2.3.47-.15,4.16-.86,5.32-1,1.46-.22,2.83-.4,4.21-.57,1.21-.15,6.73-.79,8.49-.74a6.93,6.93,0,0,1,6,3.45c.85,1.21,1.42,2.66.15,3.44-2,1.18-8.28,1.27-9.44,1.29-1.84,0-4.4,0-4.4,0L217.49,86l7.08-.05a9.61,9.61,0,0,1,1.59.1c1.3.29,1.75,1.29,1.8,2.73.07,1.69-.25,2.47-1.59,2.69-.69.12-8.48.16-9.53.29-.66.07-1.36.17-1.36.17s-.56,1.47-1,3-.92,3.12-.92,3.12l.73,0a9.92,9.92,0,0,0,1.54-.15c2.37-.44,5.9-1,8.8-1.42,1.56-.25,2.34-.36,3.16.67a4.57,4.57,0,0,1,1.13,2.79c0,1-.75,1.73-1.72,2.47-3.06,2.35-8.3,4.89-12.2,5.32a7.69,7.69,0,0,1-3.82-.41,6.75,6.75,0,0,1-1.38-.64s-.59-.39-.79-.55Z"/><path id="path2671" class="cls-2" d="M69.52,82.25s-3.11.22-5.25.46A57.34,57.34,0,0,0,53.48,85c-.89.31-2.69,1.06-2.84,2a3.09,3.09,0,0,0,1.07,2.46c.38.44,2.51,2.49,3.11,3a54,54,0,0,0,11.33,6.9c1.28.53,3.41,1.29,3.41,1.29s-.16-6.06-.13-12c0-3.16.09-6.28.09-6.28m57,2.42a26.24,26.24,0,0,1-.31,5.11,24.06,24.06,0,0,1-1,3.36,37.15,37.15,0,0,1-1.73,3.46,28.68,28.68,0,0,1-4.88,6c-5.35,4.63-13.63,7.27-20.74,8.14a53.11,53.11,0,0,1-15.47-.45c-1.75-.33-4.37-.93-4.37-.93a17,17,0,0,1-.08,1.79,7.4,7.4,0,0,1-.43,1.5A2.38,2.38,0,0,1,75.67,114a5.57,5.57,0,0,1-3.19-.16c-1.63-.69-2.21-2.21-2.49-4-.23-1.4-.47-3.85-.47-3.85s-1.21-.57-2.23-1.08a56.42,56.42,0,0,1-8.65-5.31c-.71-.52-3.79-3.11-4.47-3.75A25.19,25.19,0,0,1,49.25,90a5.66,5.66,0,0,1-.54-5.32c1.07-2.67,4.88-4.68,7.5-5.83a62.89,62.89,0,0,1,10.36-3.15,29.71,29.71,0,0,0,3.09-.57.36.36,0,0,0,.11-.1c.06-.08.15-2.72.14-3.69s.7-7.18.93-8.5c.13-.72.66-3.46,1.22-4.18a1.09,1.09,0,0,1,1.51-.13c2.84,1.77,3.7,7.91,3.91,11,.13,1.9.19,4.76.19,4.76s3.26-.09,5.27,0a48.74,48.74,0,0,1,6.12.68,42.82,42.82,0,0,1,10.53,3c2.38,1.21,4.61,3.25,5.33,5.41a5.5,5.5,0,0,1-.45,5.12,7.15,7.15,0,0,1-5.53,3.64,9.17,9.17,0,0,1-3.89-.87.68.68,0,0,1-.06-.95c.08-.11,1.23-.71,1.91-1.08a4.15,4.15,0,0,0,.89-.62c.57-.51,1.08-1.06,1-1.7-.08-.84-1-1.35-1.8-1.68-4-1.57-11.84-2.88-15.66-3.11-1.49-.09-3.61-.16-3.61-.16L78.19,103s1.75.34,3.13.57c.8.12,4.16.42,5.05.44,6.81.18,14.4-.43,20.65-3.38a21.52,21.52,0,0,0,7.15-5.08,14.7,14.7,0,0,0,3.48-10.94c-.38-4.5-3.54-9.84-6.06-13.09-6.67-8.59-18.11-15.66-28.16-19.8a89.86,89.86,0,0,0-31.32-7.07c-2.81-.1-8.94,0-12,.9-.45.13-.89.28-1.3.36a3.84,3.84,0,0,0-1,.41l-.15.15s.19.11.37.19,1.71.22,2.43.35a2.38,2.38,0,0,1,1.56.94.92.92,0,0,1,0,1.16c-.71.86-3.35.71-4.51.53s-2.71-.56-3-1.62a4.92,4.92,0,0,1,.91-3.58,8.62,8.62,0,0,1,5.79-4.16,58.79,58.79,0,0,1,12.2-1.91,71,71,0,0,1,23.72,3.51,112.93,112.93,0,0,1,14.74,5.75,114.7,114.7,0,0,1,10.74,6.05c.86.57,5.93,4.3,6.72,5,1.64,1.34,3.79,3.27,5.35,4.82a49.94,49.94,0,0,1,8.57,11.2c.44.87.78,1.73,1.34,2.73a24.35,24.35,0,0,1,1.16,3c.14.59.34,1.46.37,1.5a21.58,21.58,0,0,1,.39,2.78Z"/><path id="path2673" class="cls-2" d="M128,60.94s.89-1.33,1.64-2.34a41.72,41.72,0,0,1,5.65-6l1.23-1s-1,.11-1.63.23a12.53,12.53,0,0,0-4.49,2.52c-1.69,1.45-3.55,3.81-2.71,5.91.12.3.31.69.31.69m9.42,2.53a17.82,17.82,0,0,0,7.51-2.25c2.29-1.28,5.66-3.78,5.31-6.73a2.47,2.47,0,0,0-1.51-2,3.43,3.43,0,0,0-2.86,0,8.59,8.59,0,0,0-2.26,1,34.56,34.56,0,0,0-8.37,7.41c-.47.61-.95,1.3-1.31,1.77a1.66,1.66,0,0,0-.4.63c.08.3,2.84.27,3.89.2m-6.82,5a13.37,13.37,0,0,0-.87,1.51,2.78,2.78,0,0,1-.66.76,1.36,1.36,0,0,1-2,0,4.8,4.8,0,0,1-1.52-3.38,10.71,10.71,0,0,0,0-1.62,10.59,10.59,0,0,0-1.37-2.33,9,9,0,0,1-.94-3.4c-.18-3.09,1.45-5.93,3.56-8.17a23.24,23.24,0,0,1,7.93-5.43c2.85-1.21,7-2,10.18-.94A7.85,7.85,0,0,1,148,47.55a1.83,1.83,0,0,0,.43.5,3,3,0,0,0,.79.18,7.81,7.81,0,0,1,3,1.44,5.87,5.87,0,0,1,2.13,3.42c.6,2.84-1,6-2.91,7.88a28.87,28.87,0,0,1-10.45,7.19,16.77,16.77,0,0,1-6.63,1.17c-.63,0-1.29-.22-1.9-.26a8.28,8.28,0,0,1-1.59-.41c-.15-.12-.35-.22-.39-.18m3.66,6.32a4.71,4.71,0,0,1,.48.14c1.44.55,2,1.88,2.38,3.34.82,3.39,1.17,10.89,1.3,13.83.1,2.2.16,4.37.25,6.55a26.29,26.29,0,0,1-.16,6,2.84,2.84,0,0,1-1.15,1.71,5.23,5.23,0,0,1-3.08.29c-2.1-.43-2.78-1.79-3.08-3.86-.71-5-.37-14.71.05-18.82a39.93,39.93,0,0,1,1.36-7.52c.24-.62.75-1.86,1.65-1.69"/><path id="path2675" class="cls-2" d="M161.56,86.2l.33,0a26.3,26.3,0,0,1,6.8,1.62,7.07,7.07,0,0,1,3.68,3.47,9.84,9.84,0,0,1-4.72,13.8,18.59,18.59,0,0,1-6.18,1.68,22.06,22.06,0,0,1-11.67-2.09,14,14,0,0,1-5.91-5,5,5,0,0,1,.23-5.39c1.83-2.51,5.75-3.06,8.71-3a36.46,36.46,0,0,1,8.45,1.55,16.68,16.68,0,0,1,3.16,1.45,1.06,1.06,0,0,1,.32,1c-.49,1.5-4.12,2.29-5.17,2.44-2.81.43-4.26-.63-7.45-1.89a11.34,11.34,0,0,0-2.66-.73c-1.45-.14-3.2.26-3.47,1.85-.15.82.81,1.58,1.54,1.9a11.76,11.76,0,0,0,4.8,1c5,.08,10.56-.74,14.63-3.63a2.27,2.27,0,0,0,1.12-1.72c0-.09-.14-.89-.39-1,0,0-.08,0-.11,0s-.25-.29-.38-.46a6.63,6.63,0,0,0-1.71-1c-2.74-1.15-7.81-1.7-10.42-1.92s-7.05-.6-8.08-.75a11.83,11.83,0,0,1-3.15-.78,3.93,3.93,0,0,1-2.1-2.39,7.44,7.44,0,0,1,1.17-5.67c2.72-3.92,9.09-5.4,13.85-6,4.61-.58,12.06-.57,16.59,1.84.7.37,1.06.72.91,1.47a3.66,3.66,0,0,1-2.63,2.71,29,29,0,0,1-5.33.66c-5.46.31-12,.15-17.25,1.57a3.64,3.64,0,0,0-1.34.56c-.81.88,1.51,1.14,2,1.24a1.88,1.88,0,0,0,.33,0l11.49,1.37"/><path id="path2677" class="cls-2" d="M178.59,106.64c-2.21-.81-2.71-4.37-2.81-6.17-.35-5.87,1.2-14,3.17-19.54.56-1.56,1.37-4.12,3.12-4a4.06,4.06,0,0,1,2.74,2c1.72,2.44,4,5.75,5.5,8,1.68,2.58,3.3,5.18,4.89,7.53a3.49,3.49,0,0,0,.59.74c.29.23.55.24.66,0s0-3-.12-3.64c-.12-.94-.18-1.71-.29-2.53a67.22,67.22,0,0,0-1.64-8c-.65-2.53-1.44-5.16-2-7.6A9.94,9.94,0,0,1,192,71.2a1.24,1.24,0,0,1,1.84-1.29c2.24.79,5.21,5.66,6.08,7.35.29.57,1.46,3.48,1.72,4.29A35.49,35.49,0,0,1,203.39,90c.25,3,0,7.26-1.21,10.18a11.25,11.25,0,0,1-2.18,3.24c-1.22,1.14-3.67,2-5.36,1.06s-4.87-6.3-5.38-7.19c-1.76-3.08-4.79-9.09-5.26-9.76a.86.86,0,0,0-.47-.37c-.17,0-.24.32-.29.56-.3,1.75-.51,9.94-.51,10.17a42.5,42.5,0,0,1-.52,6.42c-.26,1.09-.52,2-1.52,2.43a2.45,2.45,0,0,1-2.1-.13"/><path id="path2679" class="cls-2" d="M258.18,84.45a42.24,42.24,0,0,0-5.84,6.9c-1.65,2.36-3.21,5.07-4.7,7.16a18.4,18.4,0,0,0-1.24,2.22,5.08,5.08,0,0,0,2-.09,16.86,16.86,0,0,0,6.52-3.07,13.87,13.87,0,0,0,4.74-7.47c.34-1.37.52-4.25-.45-5.53a.75.75,0,0,0-1.05-.12M242.24,109.1s-.64,1.87-1.1,3.33c-.81,2.53-2.58,9.34-3,11.46-.61,3.14-2.37,11.37-2.46,11.55a1.09,1.09,0,0,1-.5.5c-.73.42-1,.28-1.89-.18a8.17,8.17,0,0,1-3-2.34c-1.71-2.23-1.31-6.43-1-8.89,1.18-8.61,2.37-12.4,5.64-21a.29.29,0,0,0,0-.31,17.22,17.22,0,0,1-1.56-6.93c0-6.71,3.86-13.36,8.18-18.7.33-.41,2.45-3,3.41-2.9s1.13,1.17,1,2.12c-.48,3.1-2.66,6.26-4.15,8.88A25.69,25.69,0,0,0,239,92.53a19.88,19.88,0,0,0-.45,2.63,15,15,0,0,0,.19,1.63s2.73-3.83,4.53-6.19c1-1.29,1.69-2.15,2.5-3.07s4-4.27,5-5.14a18,18,0,0,1,4.88-3.71c1.66-.86,3.15-1.07,4.76,0,2.57,1.68,3.68,5.25,4,8.14a19.4,19.4,0,0,1-1.89,10.3,21.22,21.22,0,0,1-7.62,8.29,20.18,20.18,0,0,1-11.39,3.73l-1.15,0"/></g></g></g></svg>