<svg xmlns="http://www.w3.org/2000/svg" viewBox="0 0 350.68 102.32"><title>Asset 2</title><g id="Layer_2" data-name="Layer 2"><g id="Layer_1-2" data-name="Layer 1"><g id="Logo"><path d="M56,91.92a2.65,2.65,0,1,1,0,5.3H52.22l.58.57a2.65,2.65,0,1,1-3.75,3.75L44,96.44a2.65,2.65,0,0,1,1.87-4.52Z" style="fill:#f90"/><path d="M90.58,57.28a2.54,2.54,0,0,1,1.87.64,2.64,2.64,0,0,1,0,3.75,2.78,2.78,0,0,1-1.87.91H11.33a2.65,2.65,0,0,1,0-5.3Z" style="fill:#f90"/><path d="M82.06,65.94a2.65,2.65,0,0,1,1.87,4.52,2.61,2.61,0,0,1-1.87.78H19.85A2.66,2.66,0,0,1,18,66.71a2.68,2.68,0,0,1,1.88-.77Z" style="fill:#f90"/><path d="M73.55,74.6a2.65,2.65,0,0,1,0,5.3h-45a2.65,2.65,0,1,1,0-5.3Z" style="fill:#f90"/><path d="M64.72,83.26a2.65,2.65,0,0,1,1.87,4.52,2.64,2.64,0,0,1-1.87.78H37.16a2.61,2.61,0,0,1-1.87-.78,2.65,2.65,0,0,1,0-3.75,2.68,2.68,0,0,1,1.88-.77Z" style="fill:#f90"/><path d="M53.58,51.12a2.65,2.65,0,0,1-5.3,0V2.65a2.65,2.65,0,0,1,5.3,0V51.12Z" style="fill:#f90"/><path d="M35.49,18.23A2.66,2.66,0,0,0,31,20.1V33.82a2.65,2.65,0,1,0,5.3,0V20.1A2.63,2.63,0,0,0,35.49,18.23Z" style="fill:#f90"/><path d="M26.83,26.7a2.66,2.66,0,0,0-4.53,1.87v2.6H19.61a2.65,2.65,0,1,0,0,5.3H25a2.63,2.63,0,0,0,2.64-2.65V28.58A2.68,2.68,0,0,0,26.83,26.7Z" style="fill:#f90"/><path d="M75.33,26.7a2.65,2.65,0,0,1,4.52,1.87v2.6h2.7a2.66,2.66,0,0,1,1.88,4.53,2.68,2.68,0,0,1-1.88.77H77.2a2.63,2.63,0,0,1-2.64-2.65V28.57A2.62,2.62,0,0,1,75.33,26.7Z" style="fill:#f90"/><path d="M68.26,45.13a2.73,2.73,0,0,1-2.66-2.7V20.1a2.65,2.65,0,0,1,5.3,0V39.83H90.58a2.65,2.65,0,0,1,0,5.3Z" style="fill:#f90"/><path d="M39.62,39.83V11.49a2.66,2.66,0,0,1,4.53-1.88,2.68,2.68,0,0,1,.77,1.88v31a2.68,2.68,0,0,1-.77,1.88,2.78,2.78,0,0,1-1.92.77H11.29a2.65,2.65,0,0,1-1.88-4.52,2.65,2.65,0,0,1,1.88-.78Z" style="fill:#f90"/><path d="M59.59,53.79a2.63,2.63,0,0,1-2.65-2.63V11.24a2.65,2.65,0,0,1,5.3,0V48.49h37a2.65,2.65,0,0,1,0,5.3Z" style="fill:#f90"/><path d="M42.27,48.49h0a2.65,2.65,0,0,1,.16,5.3H2.65a2.65,2.65,0,0,1,0-5.3Z" style="fill:#f90"/><path d="M124.33,74V27.84h6c4,0,7.17.76,9.24,2.7s3.15,5,3.15,9.56a12.39,12.39,0,0,1-.88,5.34,13.21,13.21,0,0,1-3.34,4.21c1.7,1,3,2.71,4,5.66a17.39,17.39,0,0,1,.76,5.66,16.11,16.11,0,0,1-2.2,8.92c-1.57,2.39-4.28,4-8.3,4.15Zm6.79-27.15a5.24,5.24,0,0,0,3-.69c1.13-.76,2-2.27,2-5.47s-.88-4.72-2-5.47a5.16,5.16,0,0,0-3-.69Zm0,20.43a4.75,4.75,0,0,0,3-.7c1.13-.81,2-2.64,2-6.41s-.88-5.59-2-6.41a4.73,4.73,0,0,0-3-.69Z" style="fill:#f90"/><path d="M164.87,64.55a12.57,12.57,0,0,1-1.13,5A8.51,8.51,0,0,1,161,73a8,8,0,0,1-5.22,1.57A8.24,8.24,0,0,1,150.54,73a8.52,8.52,0,0,1-2.64-3.39,12.57,12.57,0,0,1-1.13-5V37.33a12.46,12.46,0,0,1,1.13-5,8,8,0,0,1,7.92-5A8.47,8.47,0,0,1,161,28.91a8.71,8.71,0,0,1,2.7,3.46,12.46,12.46,0,0,1,1.13,5Zm-6.78-27.22a4.25,4.25,0,0,0-.88-2.89,2,2,0,0,0-1.39-.5,2.1,2.1,0,0,0-2,1.7,4.73,4.73,0,0,0-.25,1.69V64.55a4,4,0,0,0,.94,2.89,1.79,1.79,0,0,0,1.32.5,2,2,0,0,0,2-1.69,4.37,4.37,0,0,0,.26-1.7Z" style="fill:#f90"/><path d="M169.46,27.84h6.79V74h-6.79Z" style="fill:#f90"/><path d="M192.53,40.22a15.16,15.16,0,0,0-.5-4.52c-.44-1.26-1.13-2.14-2.2-2.14-1.76.06-2.33,1.89-2.33,4.59a10.4,10.4,0,0,0,1.7,5c1,1.76,2.32,3.58,3.64,5.53a67.65,67.65,0,0,1,4.34,7,15.74,15.74,0,0,1,2,7.23c0,3.08-.5,6-1.95,8.1s-3.77,3.52-7.48,3.52c-4.33,0-6.78-1.63-8.17-4.14s-1.69-5.85-1.69-9.31l6.66-.63a17.59,17.59,0,0,0,.56,5.35c.44,1.51,1.2,2.51,2.64,2.51,2,0,2.77-2.14,2.77-5.09a11.41,11.41,0,0,0-1.76-5.09c-.57-.88-1.13-1.82-1.76-2.77-1.32-1.88-2.77-4-4.27-6.35a26.51,26.51,0,0,1-3.34-7.16,12.59,12.59,0,0,1-.56-3.71,12.87,12.87,0,0,1,2-7.29,8.25,8.25,0,0,1,6.85-3.52c4.09-.06,6.48,1.63,7.8,4.08a18.06,18.06,0,0,1,1.69,8.18Z" style="fill:#f90"/><path d="M215.16,27.84h6.6l-7,46.2h-6.79l-7-46.2h6.6l3.39,25.4.26,1.94h.37l.25-1.94Z" style="fill:#f90"/><path d="M224.84,27.84h15.52v7h-8.73V47h6.28v7.42h-6.28V67.06h8.73v7H224.84Z" style="fill:#f90"/><path d="M256.27,74l-3.52-19.48h-1.83V74h-6.79V27.84h6.79c8.11,0,11.57,4.59,11.57,13.33,0,4.59-1.2,8.73-3.77,10.49L263.05,74Zm-5.35-25.77a4.73,4.73,0,0,0,3.21-1c1-.88,1.82-2.57,1.82-5.84s-.82-5-1.82-5.91a4.64,4.64,0,0,0-3.21-.94Z" style="fill:#f90"/><path d="M264.44,34.82v-7h19.61v7h-6.41V74h-6.79V34.82Z" style="fill:#f90"/><path d="M296.37,27.84h6.79V74h-6.79Z" style="fill:#f1f2f2"/><path d="M315.35,50l-.57-2.14h-.37V74h-6.23V27.84h6l6.6,24.08.56,2.13h.38V27.84H328V74h-6Z" style="fill:#f1f2f2"/><path d="M350.68,58.2v6.35a12.57,12.57,0,0,1-1.14,5,8.51,8.51,0,0,1-2.7,3.39,8,8,0,0,1-5.22,1.57A8.24,8.24,0,0,1,336.34,73a8.52,8.52,0,0,1-2.64-3.39,12.74,12.74,0,0,1-1.13-5V37.33a12.64,12.64,0,0,1,1.13-5,8,8,0,0,1,7.92-5,8.47,8.47,0,0,1,5.22,1.57,8.71,8.71,0,0,1,2.7,3.46,12.47,12.47,0,0,1,1.14,5v6.35h-6.35V37.33a4,4,0,0,0-1-2.89,2.25,2.25,0,0,0-1.57-.5,2.23,2.23,0,0,0-2.07,1.7,6.51,6.51,0,0,0-.32,1.69V64.55a4.31,4.31,0,0,0,1.07,2.89,1.76,1.76,0,0,0,1.32.5,2.19,2.19,0,0,0,2.33-1.69,4.59,4.59,0,0,0,.25-1.7V58.2Z" style="fill:#f1f2f2"/></g></g></g></svg>