<?xml version="1.0" encoding="utf-8"?>
<!-- Generator: Adobe Illustrator 22.0.0, SVG Export Plug-In . SVG Version: 6.00 Build 0)  -->
<svg version="1.1" id="Layer_1" xmlns="http://www.w3.org/2000/svg" xmlns:xlink="http://www.w3.org/1999/xlink" x="0px" y="0px"
	 viewBox="0 0 327.3 102.3" style="enable-background:new 0 0 327.3 102.3;" xml:space="preserve">
<style type="text/css">
	.st0{fill:#F8991D;}
	.st1{fill:#FFFFFF;}
</style>
<g id="Logo">
	<g>
		<path class="st0" d="M56,91.9c0.7,0,1.4,0.3,1.9,0.8c1,1,1,2.7,0,3.7c-0.5,0.5-1.2,0.8-1.9,0.8h-3.8l0.6,0.6
			c0.5,0.5,0.8,1.1,0.8,1.9c0,1.5-1.2,2.7-2.7,2.7c-0.7,0-1.4-0.3-1.9-0.8L44,96.4c-1-1-1-2.7,0-3.7c0.5-0.5,1.2-0.8,1.9-0.8
			L56,91.9z"/>
		<path class="st0" d="M90.6,57.3c0.7,0,1.4,0.1,1.9,0.6c1,1,1,2.7,0,3.7c-0.5,0.5-1.2,0.9-1.9,0.9H11.3c-0.7,0-1.4-0.3-1.9-0.8
			c-1-1-1-2.7,0-3.7c0.5-0.5,1.2-0.8,1.9-0.8H90.6z"/>
		<path class="st0" d="M82.1,65.9c0.7,0,1.4,0.3,1.9,0.8c1,1,1,2.7,0,3.7c-0.5,0.5-1.2,0.8-1.9,0.8l-62.2,0c-0.7,0-1.4-0.3-1.9-0.8
			c-1-1-1-2.7,0-3.8c0.5-0.5,1.2-0.8,1.9-0.8H82.1z"/>
		<path class="st0" d="M73.5,74.6c0.7,0,1.4,0.3,1.9,0.8c1,1,1,2.7,0,3.7c-0.5,0.5-1.2,0.8-1.9,0.8h-45c-0.7,0-1.4-0.3-1.9-0.8
			c-1-1-1-2.7,0-3.7c0.5-0.5,1.2-0.8,1.9-0.8L73.5,74.6z"/>
		<path class="st0" d="M64.7,83.3c0.7,0,1.4,0.3,1.9,0.8c1,1,1,2.7,0,3.7c-0.5,0.5-1.2,0.8-1.9,0.8H37.2c-0.7,0-1.4-0.3-1.9-0.8
			c-1-1-1-2.7,0-3.7c0.5-0.5,1.2-0.8,1.9-0.8L64.7,83.3z"/>
		<path class="st0" d="M53.6,51.1c0,0.7-0.3,1.4-0.8,1.9c-1,1-2.7,1-3.7,0c-0.5-0.5-0.8-1.2-0.8-1.9V2.7c0-0.7,0.3-1.4,0.8-1.9
			c1-1,2.7-1,3.7,0c0.5,0.5,0.8,1.2,0.8,1.9v45.8V51.1z"/>
		<g>
			<path class="st0" d="M35.5,18.2c-1-1-2.7-1-3.7,0c-0.5,0.5-0.8,1.2-0.8,1.9v13.7c0,0.7,0.3,1.4,0.8,1.9c1,1,2.7,1,3.7,0
				c0.5-0.5,0.8-1.2,0.8-1.9V20.1C36.3,19.4,36,18.7,35.5,18.2z"/>
			<path class="st0" d="M26.8,26.7c-1-1-2.7-1-3.7,0c-0.5,0.5-0.8,1.2-0.8,1.9v2.6h-2.7c-0.7,0-1.4,0.3-1.9,0.8c-1,1-1,2.7,0,3.7
				c0.5,0.5,1.2,0.8,1.9,0.8H25c0.7,0,1.4-0.3,1.9-0.8c0.5-0.5,0.8-1.2,0.8-1.9v-5.2C27.6,27.9,27.3,27.2,26.8,26.7z"/>
		</g>
		<path class="st0" d="M75.3,26.7c1-1,2.7-1,3.7,0c0.5,0.5,0.8,1.2,0.8,1.9v2.6l2.7,0c0.7,0,1.4,0.3,1.9,0.8c1,1,1,2.7,0,3.7
			c-0.5,0.5-1.2,0.8-1.9,0.8h-5.3c-0.7,0-1.4-0.3-1.9-0.8c-0.5-0.5-0.8-1.2-0.8-1.9l0-5.2C74.6,27.9,74.8,27.2,75.3,26.7z"/>
		<path class="st0" d="M68.3,45.1c-0.7,0-1.4-0.3-1.9-0.8c-0.5-0.5-0.8-1.2-0.8-1.9V20.1c0-0.7,0.3-1.4,0.8-1.9c1-1,2.7-1,3.7,0
			c0.5,0.5,0.8,1.2,0.8,1.9v19.7h19.7c0.7,0,1.4,0.3,1.9,0.8c1,1,1,2.7,0,3.7c-0.5,0.5-1.2,0.8-1.9,0.8L68.3,45.1z"/>
		<path class="st0" d="M39.6,39.8V11.5c0-0.7,0.3-1.4,0.8-1.9c1-1,2.7-1,3.7,0c0.5,0.5,0.8,1.2,0.8,1.9l0,31c0,0.7-0.3,1.4-0.8,1.9
			c-0.5,0.5-1.2,0.8-1.9,0.8l-30.9,0c-0.7,0-1.4-0.3-1.9-0.8c-1-1-1-2.7,0-3.8c0.5-0.5,1.2-0.8,1.9-0.8L39.6,39.8z"/>
		<path class="st0" d="M59.6,53.8c-0.7,0-1.4-0.2-1.9-0.8c-0.5-0.5-0.8-1.2-0.8-1.9V11.2c0-0.7,0.3-1.4,0.8-1.9c1-1,2.7-1,3.7,0
			c0.5,0.5,0.8,1.2,0.8,1.9v37.3h37c0.7,0,1.4,0.3,1.9,0.8c1,1,1,2.7,0,3.7c-0.5,0.5-1.2,0.8-1.9,0.8H59.6z"/>
		<path class="st0" d="M42.3,48.5L42.3,48.5c0.7,0,1.4,0.3,1.9,0.8c1,1,1,2.7,0,3.8c-0.5,0.5-1.1,0.7-1.7,0.8l0,0l0,0c0,0,0.1,0,0,0
			l0,0H2.6c-0.7,0-1.4-0.3-1.9-0.8c-1-1-1-2.7,0-3.7c0.5-0.5,1.2-0.8,1.9-0.8H42.3z"/>
	</g>
	<g>
		<path class="st1" d="M124.9,74V28.3h5.7c3.9,0,6.9,0.7,8.9,2.7c2,1.9,3,4.9,3,9.4c0,2.2-0.2,3.8-0.8,5.3c-0.7,1.5-1.7,2.7-3.2,4.2
			c1.6,0.9,2.8,2.7,3.8,5.6c0.5,1.4,0.7,3.3,0.7,5.6c0,3.4-0.6,6.5-2.1,8.8c-1.5,2.4-4.1,3.9-8,4.1H124.9z M131.4,47.2
			c0.5,0,1.8,0.1,2.9-0.7c1.1-0.7,1.9-2.2,1.9-5.4c0-3.2-0.8-4.7-1.9-5.4c-1.1-0.7-2.3-0.7-2.9-0.7V47.2z M131.4,67.3
			c0.5,0,1.8,0.1,2.9-0.7c1.1-0.8,1.9-2.6,1.9-6.3c0-3.7-0.8-5.5-1.9-6.3c-1.1-0.8-2.3-0.7-2.9-0.7V67.3z"/>
		<path class="st1" d="M163.3,64.6c-0.1,1.9-0.4,3.5-1.1,5c-0.5,1.2-1.4,2.4-2.6,3.4c-1.2,1-2.8,1.6-5,1.6c-2.2,0-3.9-0.6-5.1-1.6
			c-1.2-0.9-2-2.1-2.5-3.4c-0.7-1.4-1-3.1-1.1-5V37.7c0.1-1.8,0.4-3.5,1.1-4.9c0.5-1.2,1.3-2.5,2.5-3.4c1.2-0.9,2.9-1.6,5.1-1.6
			c2.2,0,3.8,0.6,5,1.6c1.2,0.9,2,2.2,2.6,3.4c0.7,1.4,1,3.1,1.1,4.9V64.6z M156.8,37.7c0-1.2-0.2-2.1-0.8-2.9
			c-0.3-0.3-0.8-0.5-1.3-0.5c-1.1,0-1.7,0.9-1.9,1.7c-0.2,0.5-0.2,1.1-0.2,1.7v26.9c0,1.3,0.3,2.2,0.9,2.9c0.3,0.3,0.7,0.5,1.3,0.5
			c1.1,0,1.7-0.7,1.9-1.7c0.2-0.4,0.2-1,0.2-1.7V37.7z"/>
		<path class="st1" d="M166.7,28.3h6.5V74h-6.5V28.3z"/>
		<path class="st1" d="M188.3,40.6c0-1.5-0.1-3.2-0.5-4.5c-0.4-1.2-1.1-2.1-2.1-2.1c-1.7,0.1-2.2,1.9-2.2,4.5c0,1.6,0.7,3.2,1.6,4.9
			c1,1.7,2.2,3.5,3.5,5.5c1.5,2.3,3,4.7,4.2,7c1.1,2.3,1.9,4.7,1.9,7.1c0,3-0.5,5.9-1.9,8c-1.4,2.1-3.6,3.5-7.2,3.5
			c-4.2,0-6.5-1.6-7.8-4.1c-1.3-2.5-1.6-5.8-1.6-9.2l6.4-0.6c0,1.9,0.1,3.9,0.5,5.3c0.4,1.5,1.1,2.5,2.5,2.5c1.9,0,2.6-2.1,2.6-5
			c0-1.5-0.7-3.2-1.7-5c-0.5-0.9-1.1-1.8-1.7-2.7c-1.3-1.9-2.7-4-4.1-6.3c-1.4-2.3-2.5-4.7-3.2-7.1c-0.4-1.2-0.5-2.4-0.5-3.7
			c0-2.5,0.5-5.2,1.9-7.2c1.4-2,3.5-3.4,6.6-3.5c3.9-0.1,6.2,1.6,7.5,4c1.3,2.5,1.6,5.5,1.6,8.1L188.3,40.6z"/>
		<path class="st1" d="M209.7,28.3h6.3L209.3,74h-6.5l-6.7-45.6h6.3l3.3,25.1l0.2,1.9h0.4l0.2-1.9L209.7,28.3z"/>
		<path class="st1" d="M218.8,28.3h14.9v6.9h-8.4v12h6v7.3h-6v12.5h8.4V74h-14.9V28.3z"/>
		<path class="st1" d="M248.3,74l-3.4-19.3h-1.7V74h-6.5V28.3h6.5c7.8,0,11.1,4.5,11.1,13.2c0,4.5-1.1,8.6-3.6,10.4l4.2,22.1H248.3z
			 M243.1,48.5c0.9,0,2.1-0.1,3.1-1c1-0.9,1.7-2.5,1.7-5.8s-0.8-5-1.7-5.8c-1-0.9-2.2-0.9-3.1-0.9V48.5z"/>
		<path class="st1" d="M256.1,35.2v-6.9h18.8v6.9h-6.1V74h-6.5V35.2H256.1z"/>
		<path class="st0" d="M277.4,28.3h6.5V74h-6.5V28.3z"/>
		<path class="st0" d="M294.4,50.2l-0.5-2.1h-0.4V74h-6V28.3h5.8l6.3,23.8l0.5,2.1h0.4V28.3h6V74h-5.8L294.4,50.2z"/>
		<path class="st0" d="M327.3,58.3v6.3c-0.1,1.9-0.4,3.5-1.1,5c-0.5,1.2-1.4,2.4-2.6,3.4c-1.2,1-2.8,1.6-5,1.6
			c-2.2,0-3.9-0.6-5.1-1.6c-1.2-0.9-2-2.1-2.5-3.4c-0.7-1.4-1-3.1-1.1-5V37.7c0.1-1.8,0.4-3.5,1.1-4.9c0.5-1.2,1.3-2.5,2.5-3.4
			c1.2-0.9,2.9-1.6,5.1-1.6c2.2,0,3.8,0.6,5,1.6c1.2,0.9,2,2.2,2.6,3.4c0.7,1.4,1,3.1,1.1,4.9V44h-6.1v-6.3c0-1.2-0.3-2.1-1-2.9
			c-0.3-0.3-0.8-0.5-1.5-0.5c-1.1,0-1.7,0.9-2,1.7c-0.2,0.5-0.2,1.1-0.3,1.7v26.9c0.1,1.3,0.4,2.2,1,2.9c0.3,0.3,0.7,0.5,1.3,0.5
			c1.4,0,1.9-0.7,2.2-1.7c0.2-0.4,0.2-1,0.2-1.7v-6.3H327.3z"/>
	</g>
</g>
</svg>
