<?xml version="1.0" encoding="utf-8"?>
<!-- Generator: Adobe Illustrator 22.0.0, SVG Export Plug-In . SVG Version: 6.00 Build 0)  -->
<svg version="1.1" id="Layer_1" xmlns="http://www.w3.org/2000/svg" xmlns:xlink="http://www.w3.org/1999/xlink" x="0px" y="0px"
	 viewBox="0 0 1920 1080" style="enable-background:new 0 0 1920 1080;" xml:space="preserve">
<style type="text/css">
	.st0{fill:url(#SVGID_1_);}
	.st1{opacity:0.2;}
	.st2{fill:#101010;}
	.st3{opacity:0.1;}
	.st4{fill:#6E6E6E;}
</style>
<g id="background_2_">
	<g>
		
			<linearGradient id="SVGID_1_" gradientUnits="userSpaceOnUse" x1="-51.7663" y1="931.7623" x2="1410.6412" y2="368.7707" gradientTransform="matrix(-1 0 0 1 1921.0625 0)">
			<stop  offset="0" style="stop-color:#393939"/>
			<stop  offset="0.739" style="stop-color:#101010"/>
		</linearGradient>
		<rect y="3.7" class="st0" width="1920" height="1076.3"/>
		<g class="st1">
			<polygon class="st2" points="1820.8,1080 1920,1080 1920,971.2 1919.9,971.3 			"/>
			<polygon class="st2" points="1068.2,1080 1183.9,1080 1920,272.9 1920,146.1 			"/>
			<polygon class="st2" points="1254.2,1080 1369.8,1080 1920,476.8 1920,350.1 			"/>
			<polygon class="st2" points="1443.1,1080 1558.7,1080 1920,683.9 1920,557.1 			"/>
			<polygon class="st2" points="1632,1080 1747.5,1080 1920,890.9 1920,764.2 			"/>
			<path class="st2" d="M868.7,3.7l523.4,573.9c7.4,8.1,17.6,13.1,28.9,13.1c22.5,0,40.8-20.1,40.8-44.8c0-12.4-4.6-23.6-12-31.7
				L984.2,3.7H868.7z"/>
			<path class="st2" d="M893.9,337.3c11.3,0,21.5,5,28.9,13.1l149.6,164c7.4,8.1,12,19.3,12,31.7c0,24.7-18.3,44.8-40.9,44.8
				c-11.3,0-21.5-5-28.9-13.1L865,413.8c-7.4-8.1-12-19.3-12-31.7C853,357.4,871.3,337.3,893.9,337.3z"/>
			<path class="st2" d="M893.9,646.8l-28.3-31.1c-7.4-8.1-12-19.3-12-31.7c0-24.7,18.3-44.8,40.9-44.8c11.3,0,21.5,5,28.9,13.1
				l57.2,62.7c7.4,8.1,12,19.3,12,31.7c0,12.4-4.6,23.5-11.9,31.6l-58.4,64c-7.4,8.1-17.6,13.1-28.9,13.1
				c-22.6,0-40.9-20.1-40.9-44.8c0-12.4,4.6-23.6,12-31.7L893.9,646.8z"/>
			<path class="st2" d="M1246.4,3.7l239.9,263c7.4,8.1,17.6,13.1,28.9,13.1c11.3,0,22.1-4.5,29.5-12.7L1784.9,3.7h-115.6
				l-153.7,168.5L1361.9,3.7H1246.4z"/>
			<path class="st2" d="M1174.6,546.2L865.5,207.3c-7.4-8.1-12-19.3-12-31.7c0-24.8,18.3-44.8,40.9-44.8c11.3,0,21.5,5,28.9,13.1
				l338,370.6c7.4,8.1,12,19.3,12,31.7c0,12.3-5,24-12.4,32.1l-337.4,370c-7.4,8.1-17.6,13.1-28.9,13.1c-22.6,0-40.9-20.1-40.9-44.8
				c0-12.3,4.6-23.6,12-31.7L1174.6,546.2z"/>
			<path class="st2" d="M1057.5,3.7L1487,474.5c7.4,8.1,17.6,13.2,28.9,13.2c11.3,0,21.4-5.2,28.8-13.3L1920,62.7v-59h-61.8
				l-342.6,375.6L1173.1,3.7H1057.5z"/>
			<path class="st2" d="M876.5,1080h115.6l363.6-398.6l0,0c0.6-0.6,1.1-1.3,1.6-1.9l0.1-0.1l0,0c6.4-7.9,10.3-18.3,10.3-29.7
				c0-24.7-18.3-44.8-40.9-44.8c-11.3,0-21.5,5-28.9,13.1l-0.1-0.1L876.5,1080z"/>
		</g>
	</g>
	<g class="st3">
		<path class="st4" d="M415.6,922.3c-5.8,0-11.6,2.4-15.9,7.3c-8.8,9.7-8.8,25.3,0,35c4.4,4.8,10.1,7.3,15.9,7.3h32.3l-4.9,5.4
			c-4.1,4.5-6.6,10.7-6.6,17.5c0,13.7,10.1,24.7,22.6,24.7c6.2,0,11.9-2.8,15.9-7.2l43.4-47.6c8.8-9.7,8.8-25.3,0-35
			c-4.4-4.8-10.2-7.2-16-7.2L415.6,922.3z"/>
		<path class="st4" d="M121.3,599c-5.8,0-11.6,1.2-16,6c-8.8,9.7-8.8,25.3,0,35c4.4,4.8,10.2,8.5,16,8.5H796c5.8,0,11.5-2.4,16-7.3
			c8.8-9.7,8.8-25.3,0-35c-4.4-4.8-10.2-7.2-16-7.2H121.3z"/>
		<path class="st4" d="M193.8,679.8c-5.8,0-11.6,2.4-16,7.2c-8.8,9.7-8.8,25.3,0,35c4.4,4.8,10.2,7.3,16,7.3l529.7,0
			c5.8,0,11.6-2.4,16-7.3c8.8-9.7,8.8-25.3,0-35c-4.4-4.8-10.2-7.2-16-7.2H193.8z"/>
		<path class="st4" d="M266.3,760.6c-5.8,0-11.5,2.4-15.9,7.3c-8.8,9.6-8.8,25.3,0,35c4.4,4.8,10.2,7.2,15.9,7.2h383.5
			c5.8,0,11.5-2.4,15.9-7.2c8.8-9.7,8.8-25.3,0-35c-4.4-4.8-10.2-7.2-16-7.2L266.3,760.6z"/>
		<path class="st4" d="M341.5,841.5c-5.8,0-11.6,2.4-15.9,7.2c-8.8,9.7-8.8,25.3,0,35c4.4,4.9,10.2,7.3,16,7.3h234.6
			c5.8,0,11.5-2.4,15.9-7.2c8.8-9.6,8.8-25.3,0-35c-4.4-4.8-10.2-7.3-16-7.2L341.5,841.5z"/>
		<path class="st4" d="M436.3,541.5c0,6.3,2.2,12.6,6.6,17.5c8.8,9.7,23.1,9.7,31.9,0c4.4-4.8,6.6-11.2,6.6-17.5V89
			c0-6.3-2.2-12.7-6.6-17.5c-8.8-9.7-23.1-9.7-31.9,0c-4.4,4.8-6.6,11.2-6.6,17.5v427.9V541.5z"/>
		<g>
			<path class="st4" d="M590.3,234.5c8.8-9.7,23.1-9.7,31.9,0c4.4,4.8,6.6,11.2,6.6,17.5V380c0,6.3-2.2,12.7-6.6,17.5
				c-8.8,9.7-23.1,9.7-31.9,0c-4.4-4.8-6.6-11.2-6.6-17.5V252C583.7,245.7,585.9,239.3,590.3,234.5z"/>
			<path class="st4" d="M664,313.6c8.8-9.7,23.1-9.7,31.9,0c4.4,4.8,6.6,11.2,6.6,17.5v24.3h22.9c5.8,0,11.6,2.4,16,7.2
				c8.8,9.6,8.8,25.3,0,35c-4.4,4.8-10.2,7.2-16,7.2h-45.6c-5.8,0-11.5-2.4-15.9-7.2c-4.4-4.8-6.6-11.2-6.6-17.5v-49
				C657.4,324.7,659.6,318.4,664,313.6z"/>
		</g>
		<path class="st4" d="M251.1,313.6c-8.8-9.7-23.1-9.7-31.9,0c-4.4,4.8-6.6,11.2-6.6,17.5v24.2l-23,0c-5.8,0-11.6,2.4-16,7.2
			c-8.8,9.6-8.8,25.3,0,35c4.4,4.8,10.2,7.2,16,7.2h45.5c5.8,0,11.5-2.4,15.9-7.2c4.4-4.8,6.6-11.2,6.6-17.5l0-49
			C257.7,324.7,255.5,318.4,251.1,313.6z"/>
		<path class="st4" d="M311.3,485.6c5.8,0,11.6-2.9,16-7.7c4.4-4.8,6.6-11.2,6.6-17.5V252c0-6.3-2.2-12.6-6.6-17.5
			c-8.8-9.7-23.1-9.7-31.9,0c-4.4,4.8-6.6,11.2-6.6,17.5v184.1H121.3c-5.8,0-11.6,2.4-16,7.2c-8.8,9.7-8.8,25.3,0,35
			c4.4,4.9,10.2,7.3,15.9,7.2L311.3,485.6z"/>
		<path class="st4" d="M555.1,436.1V171.5c0-6.3-2.2-12.7-6.6-17.5c-8.8-9.7-23.1-9.7-31.9,0c-4.4,4.9-6.6,11.2-6.6,17.5l0,289.3
			c0,6.3,2.2,12.7,6.6,17.5c4.4,4.8,10.5,7.2,16.3,7.2l263.5,0c5.8,0,11.5-2.4,16-7.2c8.8-9.7,8.8-25.3,0-35
			c-4.4-4.8-10.2-7.2-15.9-7.2L555.1,436.1z"/>
		<path class="st4" d="M385.1,566.4c5.8,0,11.6-2.3,16-7.1c4.4-4.8,6.6-11.1,6.6-17.5V169.2c0-6.3-2.2-12.6-6.6-17.5
			c-8.8-9.7-23.1-9.7-31.9,0c-4.4,4.8-6.6,11.2-6.6,17.5v347.7H47.5c-5.8,0-11.6,2.4-16,7.2c-8.8,9.7-8.8,25.3,0,35
			c4.4,4.8,10.2,7.3,16,7.3H385.1z"/>
		<path class="st4" d="M532.6,516.9L532.6,516.9c-5.8,0-11.6,2.5-16,7.3c-8.8,9.7-8.8,25.3,0,35c4.1,4.4,9.3,6.9,14.6,7.2l0,0l0,0
			c0.4,0-0.4,0,0,0l0,0h338.7c5.7,0,11.5-2.4,15.9-7.3c8.8-9.7,8.8-25.3,0-35c-4.4-4.8-10.1-7.3-15.9-7.2H532.6z"/>
	</g>
</g>
</svg>
